<?xml version="1.0" encoding="utf-8" standalone="no"?>
<!DOCTYPE svg PUBLIC "-//W3C//DTD SVG 1.1//EN"
  "http://www.w3.org/Graphics/SVG/1.1/DTD/svg11.dtd">
<svg xmlns:xlink="http://www.w3.org/1999/xlink" width="794.231875pt" height="332.28625pt" viewBox="0 0 794.231875 332.28625" xmlns="http://www.w3.org/2000/svg" version="1.1">
 <metadata>
  <rdf:RDF xmlns:dc="http://purl.org/dc/elements/1.1/" xmlns:cc="http://creativecommons.org/ns#" xmlns:rdf="http://www.w3.org/1999/02/22-rdf-syntax-ns#">
   <cc:Work>
    <dc:type rdf:resource="http://purl.org/dc/dcmitype/StillImage"/>
    <dc:date>2025-10-27T21:32:23.138983</dc:date>
    <dc:format>image/svg+xml</dc:format>
    <dc:creator>
     <cc:Agent>
      <dc:title>Matplotlib v3.10.7, https://matplotlib.org/</dc:title>
     </cc:Agent>
    </dc:creator>
   </cc:Work>
  </rdf:RDF>
 </metadata>
 <defs>
  <style type="text/css">*{stroke-linejoin: round; stroke-linecap: butt}</style>
 </defs>
 <g id="figure_1">
  <g id="patch_1">
   <path d="M 0 332.28625 
L 794.231875 332.28625 
L 794.231875 0 
L 0 0 
L 0 332.28625 
z
" style="fill: none"/>
  </g>
  <g id="axes_1">
   <g id="patch_2">
    <path d="M 88.631875 257.76 
L 758.231875 257.76 
L 758.231875 36 
L 88.631875 36 
L 88.631875 257.76 
z
" style="fill: none"/>
   </g>
   <g id="line2d_1">
    <path d="M 108.922784 257.76 
L 108.922784 36 
" clip-path="url(#pba16c015ba)" style="fill: none; stroke-dasharray: 0.74,0.32; stroke-dashoffset: 0; stroke: #a9a9a9; stroke-opacity: 0.5; stroke-width: 0.2"/>
   </g>
   <g id="line2d_2">
    <path d="M 129.213693 257.76 
L 129.213693 36 
" clip-path="url(#pba16c015ba)" style="fill: none; stroke-dasharray: 0.74,0.32; stroke-dashoffset: 0; stroke: #a9a9a9; stroke-opacity: 0.5; stroke-width: 0.2"/>
   </g>
   <g id="line2d_3">
    <path d="M 149.504602 257.76 
L 149.504602 36 
" clip-path="url(#pba16c015ba)" style="fill: none; stroke-dasharray: 0.74,0.32; stroke-dashoffset: 0; stroke: #a9a9a9; stroke-opacity: 0.5; stroke-width: 0.2"/>
   </g>
   <g id="line2d_4">
    <path d="M 169.795511 257.76 
L 169.795511 36 
" clip-path="url(#pba16c015ba)" style="fill: none; stroke-dasharray: 0.74,0.32; stroke-dashoffset: 0; stroke: #a9a9a9; stroke-opacity: 0.5; stroke-width: 0.2"/>
   </g>
   <g id="line2d_5">
    <path d="M 190.08642 257.76 
L 190.08642 36 
" clip-path="url(#pba16c015ba)" style="fill: none; stroke-dasharray: 0.74,0.32; stroke-dashoffset: 0; stroke: #a9a9a9; stroke-opacity: 0.5; stroke-width: 0.2"/>
   </g>
   <g id="line2d_6">
    <path d="M 210.37733 257.76 
L 210.37733 36 
" clip-path="url(#pba16c015ba)" style="fill: none; stroke-dasharray: 0.74,0.32; stroke-dashoffset: 0; stroke: #a9a9a9; stroke-opacity: 0.5; stroke-width: 0.2"/>
   </g>
   <g id="line2d_7">
    <path d="M 230.668239 257.76 
L 230.668239 36 
" clip-path="url(#pba16c015ba)" style="fill: none; stroke-dasharray: 0.74,0.32; stroke-dashoffset: 0; stroke: #a9a9a9; stroke-opacity: 0.5; stroke-width: 0.2"/>
   </g>
   <g id="line2d_8">
    <path d="M 250.959148 257.76 
L 250.959148 36 
" clip-path="url(#pba16c015ba)" style="fill: none; stroke-dasharray: 0.74,0.32; stroke-dashoffset: 0; stroke: #a9a9a9; stroke-opacity: 0.5; stroke-width: 0.2"/>
   </g>
   <g id="line2d_9">
    <path d="M 271.250057 257.76 
L 271.250057 36 
" clip-path="url(#pba16c015ba)" style="fill: none; stroke-dasharray: 0.74,0.32; stroke-dashoffset: 0; stroke: #a9a9a9; stroke-opacity: 0.5; stroke-width: 0.2"/>
   </g>
   <g id="line2d_10">
    <path d="M 291.540966 257.76 
L 291.540966 36 
" clip-path="url(#pba16c015ba)" style="fill: none; stroke-dasharray: 0.74,0.32; stroke-dashoffset: 0; stroke: #a9a9a9; stroke-opacity: 0.5; stroke-width: 0.2"/>
   </g>
   <g id="line2d_11">
    <path d="M 311.831875 257.76 
L 311.831875 36 
" clip-path="url(#pba16c015ba)" style="fill: none; stroke-dasharray: 0.74,0.32; stroke-dashoffset: 0; stroke: #a9a9a9; stroke-opacity: 0.5; stroke-width: 0.2"/>
   </g>
   <g id="line2d_12">
    <path d="M 332.122784 257.76 
L 332.122784 36 
" clip-path="url(#pba16c015ba)" style="fill: none; stroke-dasharray: 0.74,0.32; stroke-dashoffset: 0; stroke: #a9a9a9; stroke-opacity: 0.5; stroke-width: 0.2"/>
   </g>
   <g id="line2d_13">
    <path d="M 352.413693 257.76 
L 352.413693 36 
" clip-path="url(#pba16c015ba)" style="fill: none; stroke-dasharray: 0.74,0.32; stroke-dashoffset: 0; stroke: #a9a9a9; stroke-opacity: 0.5; stroke-width: 0.2"/>
   </g>
   <g id="line2d_14">
    <path d="M 372.704602 257.76 
L 372.704602 36 
" clip-path="url(#pba16c015ba)" style="fill: none; stroke-dasharray: 0.74,0.32; stroke-dashoffset: 0; stroke: #a9a9a9; stroke-opacity: 0.5; stroke-width: 0.2"/>
   </g>
   <g id="line2d_15">
    <path d="M 392.995511 257.76 
L 392.995511 36 
" clip-path="url(#pba16c015ba)" style="fill: none; stroke-dasharray: 0.74,0.32; stroke-dashoffset: 0; stroke: #a9a9a9; stroke-opacity: 0.5; stroke-width: 0.2"/>
   </g>
   <g id="line2d_16">
    <path d="M 413.28642 257.76 
L 413.28642 36 
" clip-path="url(#pba16c015ba)" style="fill: none; stroke-dasharray: 0.74,0.32; stroke-dashoffset: 0; stroke: #a9a9a9; stroke-opacity: 0.5; stroke-width: 0.2"/>
   </g>
   <g id="line2d_17">
    <path d="M 433.57733 257.76 
L 433.57733 36 
" clip-path="url(#pba16c015ba)" style="fill: none; stroke-dasharray: 0.74,0.32; stroke-dashoffset: 0; stroke: #a9a9a9; stroke-opacity: 0.5; stroke-width: 0.2"/>
   </g>
   <g id="line2d_18">
    <path d="M 453.868239 257.76 
L 453.868239 36 
" clip-path="url(#pba16c015ba)" style="fill: none; stroke-dasharray: 0.74,0.32; stroke-dashoffset: 0; stroke: #a9a9a9; stroke-opacity: 0.5; stroke-width: 0.2"/>
   </g>
   <g id="line2d_19">
    <path d="M 474.159148 257.76 
L 474.159148 36 
" clip-path="url(#pba16c015ba)" style="fill: none; stroke-dasharray: 0.74,0.32; stroke-dashoffset: 0; stroke: #a9a9a9; stroke-opacity: 0.5; stroke-width: 0.2"/>
   </g>
   <g id="line2d_20">
    <path d="M 494.450057 257.76 
L 494.450057 36 
" clip-path="url(#pba16c015ba)" style="fill: none; stroke-dasharray: 0.74,0.32; stroke-dashoffset: 0; stroke: #a9a9a9; stroke-opacity: 0.5; stroke-width: 0.2"/>
   </g>
   <g id="line2d_21">
    <path d="M 514.740966 257.76 
L 514.740966 36 
" clip-path="url(#pba16c015ba)" style="fill: none; stroke-dasharray: 0.74,0.32; stroke-dashoffset: 0; stroke: #a9a9a9; stroke-opacity: 0.5; stroke-width: 0.2"/>
   </g>
   <g id="line2d_22">
    <path d="M 535.031875 257.76 
L 535.031875 36 
" clip-path="url(#pba16c015ba)" style="fill: none; stroke-dasharray: 0.74,0.32; stroke-dashoffset: 0; stroke: #a9a9a9; stroke-opacity: 0.5; stroke-width: 0.2"/>
   </g>
   <g id="line2d_23">
    <path d="M 555.322784 257.76 
L 555.322784 36 
" clip-path="url(#pba16c015ba)" style="fill: none; stroke-dasharray: 0.74,0.32; stroke-dashoffset: 0; stroke: #a9a9a9; stroke-opacity: 0.5; stroke-width: 0.2"/>
   </g>
   <g id="line2d_24">
    <path d="M 575.613693 257.76 
L 575.613693 36 
" clip-path="url(#pba16c015ba)" style="fill: none; stroke-dasharray: 0.74,0.32; stroke-dashoffset: 0; stroke: #a9a9a9; stroke-opacity: 0.5; stroke-width: 0.2"/>
   </g>
   <g id="line2d_25">
    <path d="M 595.904602 257.76 
L 595.904602 36 
" clip-path="url(#pba16c015ba)" style="fill: none; stroke-dasharray: 0.74,0.32; stroke-dashoffset: 0; stroke: #a9a9a9; stroke-opacity: 0.5; stroke-width: 0.2"/>
   </g>
   <g id="line2d_26">
    <path d="M 616.195511 257.76 
L 616.195511 36 
" clip-path="url(#pba16c015ba)" style="fill: none; stroke-dasharray: 0.74,0.32; stroke-dashoffset: 0; stroke: #a9a9a9; stroke-opacity: 0.5; stroke-width: 0.2"/>
   </g>
   <g id="line2d_27">
    <path d="M 636.48642 257.76 
L 636.48642 36 
" clip-path="url(#pba16c015ba)" style="fill: none; stroke-dasharray: 0.74,0.32; stroke-dashoffset: 0; stroke: #a9a9a9; stroke-opacity: 0.5; stroke-width: 0.2"/>
   </g>
   <g id="line2d_28">
    <path d="M 656.77733 257.76 
L 656.77733 36 
" clip-path="url(#pba16c015ba)" style="fill: none; stroke-dasharray: 0.74,0.32; stroke-dashoffset: 0; stroke: #a9a9a9; stroke-opacity: 0.5; stroke-width: 0.2"/>
   </g>
   <g id="line2d_29">
    <path d="M 677.068239 257.76 
L 677.068239 36 
" clip-path="url(#pba16c015ba)" style="fill: none; stroke-dasharray: 0.74,0.32; stroke-dashoffset: 0; stroke: #a9a9a9; stroke-opacity: 0.5; stroke-width: 0.2"/>
   </g>
   <g id="line2d_30">
    <path d="M 697.359148 257.76 
L 697.359148 36 
" clip-path="url(#pba16c015ba)" style="fill: none; stroke-dasharray: 0.74,0.32; stroke-dashoffset: 0; stroke: #a9a9a9; stroke-opacity: 0.5; stroke-width: 0.2"/>
   </g>
   <g id="line2d_31">
    <path d="M 717.650057 257.76 
L 717.650057 36 
" clip-path="url(#pba16c015ba)" style="fill: none; stroke-dasharray: 0.74,0.32; stroke-dashoffset: 0; stroke: #a9a9a9; stroke-opacity: 0.5; stroke-width: 0.2"/>
   </g>
   <g id="line2d_32">
    <path d="M 737.940966 257.76 
L 737.940966 36 
" clip-path="url(#pba16c015ba)" style="fill: none; stroke-dasharray: 0.74,0.32; stroke-dashoffset: 0; stroke: #a9a9a9; stroke-opacity: 0.5; stroke-width: 0.2"/>
   </g>
   <g id="line2d_33">
    <path d="M 88.631875 235.584 
L 758.231875 235.584 
" clip-path="url(#pba16c015ba)" style="fill: none; stroke-dasharray: 0.74,0.32; stroke-dashoffset: 0; stroke: #a9a9a9; stroke-opacity: 0.5; stroke-width: 0.2"/>
   </g>
   <g id="line2d_34">
    <path d="M 88.631875 213.408 
L 758.231875 213.408 
" clip-path="url(#pba16c015ba)" style="fill: none; stroke-dasharray: 0.74,0.32; stroke-dashoffset: 0; stroke: #a9a9a9; stroke-opacity: 0.5; stroke-width: 0.2"/>
   </g>
   <g id="line2d_35">
    <path d="M 88.631875 191.232 
L 758.231875 191.232 
" clip-path="url(#pba16c015ba)" style="fill: none; stroke-dasharray: 0.74,0.32; stroke-dashoffset: 0; stroke: #a9a9a9; stroke-opacity: 0.5; stroke-width: 0.2"/>
   </g>
   <g id="line2d_36">
    <path d="M 88.631875 169.056 
L 758.231875 169.056 
" clip-path="url(#pba16c015ba)" style="fill: none; stroke-dasharray: 0.74,0.32; stroke-dashoffset: 0; stroke: #a9a9a9; stroke-opacity: 0.5; stroke-width: 0.2"/>
   </g>
   <g id="line2d_37">
    <path d="M 88.631875 146.88 
L 758.231875 146.88 
" clip-path="url(#pba16c015ba)" style="fill: none; stroke-dasharray: 0.74,0.32; stroke-dashoffset: 0; stroke: #a9a9a9; stroke-opacity: 0.5; stroke-width: 0.2"/>
   </g>
   <g id="line2d_38">
    <path d="M 88.631875 124.704 
L 758.231875 124.704 
" clip-path="url(#pba16c015ba)" style="fill: none; stroke-dasharray: 0.74,0.32; stroke-dashoffset: 0; stroke: #a9a9a9; stroke-opacity: 0.5; stroke-width: 0.2"/>
   </g>
   <g id="line2d_39">
    <path d="M 88.631875 102.528 
L 758.231875 102.528 
" clip-path="url(#pba16c015ba)" style="fill: none; stroke-dasharray: 0.74,0.32; stroke-dashoffset: 0; stroke: #a9a9a9; stroke-opacity: 0.5; stroke-width: 0.2"/>
   </g>
   <g id="line2d_40">
    <path d="M 88.631875 80.352 
L 758.231875 80.352 
" clip-path="url(#pba16c015ba)" style="fill: none; stroke-dasharray: 0.74,0.32; stroke-dashoffset: 0; stroke: #a9a9a9; stroke-opacity: 0.5; stroke-width: 0.2"/>
   </g>
   <g id="line2d_41">
    <path d="M 88.631875 58.176 
L 758.231875 58.176 
" clip-path="url(#pba16c015ba)" style="fill: none; stroke-dasharray: 0.74,0.32; stroke-dashoffset: 0; stroke: #a9a9a9; stroke-opacity: 0.5; stroke-width: 0.2"/>
   </g>
   <g id="matplotlib.axis_1">
    <g id="xtick_1">
     <g id="line2d_42">
      <defs>
       <path id="maac543d3c6" d="M 0 0 
L 0 5 
" style="stroke: #000000"/>
      </defs>
      <g>
       <use xlink:href="#maac543d3c6" x="102.581875" y="257.76" style="stroke: #000000"/>
      </g>
     </g>
     <g id="text_1">
      <!-- 1:00 -->
      <g transform="translate(105.684063 289.613125) rotate(-90) scale(0.12 -0.12)">
       <defs>
        <path id="ArialMT-31" d="M 2384 0 
L 1822 0 
L 1822 3584 
Q 1619 3391 1289 3197 
Q 959 3003 697 2906 
L 697 3450 
Q 1169 3672 1522 3987 
Q 1875 4303 2022 4600 
L 2384 4600 
L 2384 0 
z
" transform="scale(0.015625)"/>
        <path id="ArialMT-3a" d="M 578 2678 
L 578 3319 
L 1219 3319 
L 1219 2678 
L 578 2678 
z
M 578 0 
L 578 641 
L 1219 641 
L 1219 0 
L 578 0 
z
" transform="scale(0.015625)"/>
        <path id="ArialMT-30" d="M 266 2259 
Q 266 3072 433 3567 
Q 600 4063 929 4331 
Q 1259 4600 1759 4600 
Q 2128 4600 2406 4451 
Q 2684 4303 2865 4023 
Q 3047 3744 3150 3342 
Q 3253 2941 3253 2259 
Q 3253 1453 3087 958 
Q 2922 463 2592 192 
Q 2263 -78 1759 -78 
Q 1097 -78 719 397 
Q 266 969 266 2259 
z
M 844 2259 
Q 844 1131 1108 757 
Q 1372 384 1759 384 
Q 2147 384 2411 759 
Q 2675 1134 2675 2259 
Q 2675 3391 2411 3762 
Q 2147 4134 1753 4134 
Q 1366 4134 1134 3806 
Q 844 3388 844 2259 
z
" transform="scale(0.015625)"/>
       </defs>
       <use xlink:href="#ArialMT-31"/>
       <use xlink:href="#ArialMT-3a" transform="translate(55.615234 0)"/>
       <use xlink:href="#ArialMT-30" transform="translate(83.398438 0)"/>
       <use xlink:href="#ArialMT-30" transform="translate(139.013672 0)"/>
      </g>
     </g>
    </g>
    <g id="xtick_2">
     <g id="line2d_43">
      <g>
       <use xlink:href="#maac543d3c6" x="130.481875" y="257.76" style="stroke: #000000"/>
      </g>
     </g>
     <g id="text_2">
      <!-- 2:00 -->
      <g transform="translate(133.584063 289.613125) rotate(-90) scale(0.12 -0.12)">
       <defs>
        <path id="ArialMT-32" d="M 3222 541 
L 3222 0 
L 194 0 
Q 188 203 259 391 
Q 375 700 629 1000 
Q 884 1300 1366 1694 
Q 2113 2306 2375 2664 
Q 2638 3022 2638 3341 
Q 2638 3675 2398 3904 
Q 2159 4134 1775 4134 
Q 1369 4134 1125 3890 
Q 881 3647 878 3216 
L 300 3275 
Q 359 3922 746 4261 
Q 1134 4600 1788 4600 
Q 2447 4600 2831 4234 
Q 3216 3869 3216 3328 
Q 3216 3053 3103 2787 
Q 2991 2522 2730 2228 
Q 2469 1934 1863 1422 
Q 1356 997 1212 845 
Q 1069 694 975 541 
L 3222 541 
z
" transform="scale(0.015625)"/>
       </defs>
       <use xlink:href="#ArialMT-32"/>
       <use xlink:href="#ArialMT-3a" transform="translate(55.615234 0)"/>
       <use xlink:href="#ArialMT-30" transform="translate(83.398438 0)"/>
       <use xlink:href="#ArialMT-30" transform="translate(139.013672 0)"/>
      </g>
     </g>
    </g>
    <g id="xtick_3">
     <g id="line2d_44">
      <g>
       <use xlink:href="#maac543d3c6" x="158.381875" y="257.76" style="stroke: #000000"/>
      </g>
     </g>
     <g id="text_3">
      <!-- 3:00 -->
      <g transform="translate(161.484062 289.613125) rotate(-90) scale(0.12 -0.12)">
       <defs>
        <path id="ArialMT-33" d="M 269 1209 
L 831 1284 
Q 928 806 1161 595 
Q 1394 384 1728 384 
Q 2125 384 2398 659 
Q 2672 934 2672 1341 
Q 2672 1728 2419 1979 
Q 2166 2231 1775 2231 
Q 1616 2231 1378 2169 
L 1441 2663 
Q 1497 2656 1531 2656 
Q 1891 2656 2178 2843 
Q 2466 3031 2466 3422 
Q 2466 3731 2256 3934 
Q 2047 4138 1716 4138 
Q 1388 4138 1169 3931 
Q 950 3725 888 3313 
L 325 3413 
Q 428 3978 793 4289 
Q 1159 4600 1703 4600 
Q 2078 4600 2393 4439 
Q 2709 4278 2876 4000 
Q 3044 3722 3044 3409 
Q 3044 3113 2884 2869 
Q 2725 2625 2413 2481 
Q 2819 2388 3044 2092 
Q 3269 1797 3269 1353 
Q 3269 753 2831 336 
Q 2394 -81 1725 -81 
Q 1122 -81 723 278 
Q 325 638 269 1209 
z
" transform="scale(0.015625)"/>
       </defs>
       <use xlink:href="#ArialMT-33"/>
       <use xlink:href="#ArialMT-3a" transform="translate(55.615234 0)"/>
       <use xlink:href="#ArialMT-30" transform="translate(83.398438 0)"/>
       <use xlink:href="#ArialMT-30" transform="translate(139.013672 0)"/>
      </g>
     </g>
    </g>
    <g id="xtick_4">
     <g id="line2d_45">
      <g>
       <use xlink:href="#maac543d3c6" x="186.281875" y="257.76" style="stroke: #000000"/>
      </g>
     </g>
     <g id="text_4">
      <!-- 4:00 -->
      <g transform="translate(189.384063 289.613125) rotate(-90) scale(0.12 -0.12)">
       <defs>
        <path id="ArialMT-34" d="M 2069 0 
L 2069 1097 
L 81 1097 
L 81 1613 
L 2172 4581 
L 2631 4581 
L 2631 1613 
L 3250 1613 
L 3250 1097 
L 2631 1097 
L 2631 0 
L 2069 0 
z
M 2069 1613 
L 2069 3678 
L 634 1613 
L 2069 1613 
z
" transform="scale(0.015625)"/>
       </defs>
       <use xlink:href="#ArialMT-34"/>
       <use xlink:href="#ArialMT-3a" transform="translate(55.615234 0)"/>
       <use xlink:href="#ArialMT-30" transform="translate(83.398438 0)"/>
       <use xlink:href="#ArialMT-30" transform="translate(139.013672 0)"/>
      </g>
     </g>
    </g>
    <g id="xtick_5">
     <g id="line2d_46">
      <g>
       <use xlink:href="#maac543d3c6" x="214.181875" y="257.76" style="stroke: #000000"/>
      </g>
     </g>
     <g id="text_5">
      <!-- 5:00 -->
      <g transform="translate(217.284063 289.613125) rotate(-90) scale(0.12 -0.12)">
       <defs>
        <path id="ArialMT-35" d="M 266 1200 
L 856 1250 
Q 922 819 1161 601 
Q 1400 384 1738 384 
Q 2144 384 2425 690 
Q 2706 997 2706 1503 
Q 2706 1984 2436 2262 
Q 2166 2541 1728 2541 
Q 1456 2541 1237 2417 
Q 1019 2294 894 2097 
L 366 2166 
L 809 4519 
L 3088 4519 
L 3088 3981 
L 1259 3981 
L 1013 2750 
Q 1425 3038 1878 3038 
Q 2478 3038 2890 2622 
Q 3303 2206 3303 1553 
Q 3303 931 2941 478 
Q 2500 -78 1738 -78 
Q 1113 -78 717 272 
Q 322 622 266 1200 
z
" transform="scale(0.015625)"/>
       </defs>
       <use xlink:href="#ArialMT-35"/>
       <use xlink:href="#ArialMT-3a" transform="translate(55.615234 0)"/>
       <use xlink:href="#ArialMT-30" transform="translate(83.398438 0)"/>
       <use xlink:href="#ArialMT-30" transform="translate(139.013672 0)"/>
      </g>
     </g>
    </g>
    <g id="xtick_6">
     <g id="line2d_47">
      <g>
       <use xlink:href="#maac543d3c6" x="242.081875" y="257.76" style="stroke: #000000"/>
      </g>
     </g>
     <g id="text_6">
      <!-- 6:00 -->
      <g transform="translate(245.184063 289.613125) rotate(-90) scale(0.12 -0.12)">
       <defs>
        <path id="ArialMT-36" d="M 3184 3459 
L 2625 3416 
Q 2550 3747 2413 3897 
Q 2184 4138 1850 4138 
Q 1581 4138 1378 3988 
Q 1113 3794 959 3422 
Q 806 3050 800 2363 
Q 1003 2672 1297 2822 
Q 1591 2972 1913 2972 
Q 2475 2972 2870 2558 
Q 3266 2144 3266 1488 
Q 3266 1056 3080 686 
Q 2894 316 2569 119 
Q 2244 -78 1831 -78 
Q 1128 -78 684 439 
Q 241 956 241 2144 
Q 241 3472 731 4075 
Q 1159 4600 1884 4600 
Q 2425 4600 2770 4297 
Q 3116 3994 3184 3459 
z
M 888 1484 
Q 888 1194 1011 928 
Q 1134 663 1356 523 
Q 1578 384 1822 384 
Q 2178 384 2434 671 
Q 2691 959 2691 1453 
Q 2691 1928 2437 2201 
Q 2184 2475 1800 2475 
Q 1419 2475 1153 2201 
Q 888 1928 888 1484 
z
" transform="scale(0.015625)"/>
       </defs>
       <use xlink:href="#ArialMT-36"/>
       <use xlink:href="#ArialMT-3a" transform="translate(55.615234 0)"/>
       <use xlink:href="#ArialMT-30" transform="translate(83.398438 0)"/>
       <use xlink:href="#ArialMT-30" transform="translate(139.013672 0)"/>
      </g>
     </g>
    </g>
    <g id="xtick_7">
     <g id="line2d_48">
      <g>
       <use xlink:href="#maac543d3c6" x="269.981875" y="257.76" style="stroke: #000000"/>
      </g>
     </g>
     <g id="text_7">
      <!-- 7:00 -->
      <g transform="translate(273.084063 289.613125) rotate(-90) scale(0.12 -0.12)">
       <defs>
        <path id="ArialMT-37" d="M 303 3981 
L 303 4522 
L 3269 4522 
L 3269 4084 
Q 2831 3619 2401 2847 
Q 1972 2075 1738 1259 
Q 1569 684 1522 0 
L 944 0 
Q 953 541 1156 1306 
Q 1359 2072 1739 2783 
Q 2119 3494 2547 3981 
L 303 3981 
z
" transform="scale(0.015625)"/>
       </defs>
       <use xlink:href="#ArialMT-37"/>
       <use xlink:href="#ArialMT-3a" transform="translate(55.615234 0)"/>
       <use xlink:href="#ArialMT-30" transform="translate(83.398438 0)"/>
       <use xlink:href="#ArialMT-30" transform="translate(139.013672 0)"/>
      </g>
     </g>
    </g>
    <g id="xtick_8">
     <g id="line2d_49">
      <g>
       <use xlink:href="#maac543d3c6" x="297.881875" y="257.76" style="stroke: #000000"/>
      </g>
     </g>
     <g id="text_8">
      <!-- 8:00 -->
      <g transform="translate(300.984062 289.613125) rotate(-90) scale(0.12 -0.12)">
       <defs>
        <path id="ArialMT-38" d="M 1131 2484 
Q 781 2613 612 2850 
Q 444 3088 444 3419 
Q 444 3919 803 4259 
Q 1163 4600 1759 4600 
Q 2359 4600 2725 4251 
Q 3091 3903 3091 3403 
Q 3091 3084 2923 2848 
Q 2756 2613 2416 2484 
Q 2838 2347 3058 2040 
Q 3278 1734 3278 1309 
Q 3278 722 2862 322 
Q 2447 -78 1769 -78 
Q 1091 -78 675 323 
Q 259 725 259 1325 
Q 259 1772 486 2073 
Q 713 2375 1131 2484 
z
M 1019 3438 
Q 1019 3113 1228 2906 
Q 1438 2700 1772 2700 
Q 2097 2700 2305 2904 
Q 2513 3109 2513 3406 
Q 2513 3716 2298 3927 
Q 2084 4138 1766 4138 
Q 1444 4138 1231 3931 
Q 1019 3725 1019 3438 
z
M 838 1322 
Q 838 1081 952 856 
Q 1066 631 1291 507 
Q 1516 384 1775 384 
Q 2178 384 2440 643 
Q 2703 903 2703 1303 
Q 2703 1709 2433 1975 
Q 2163 2241 1756 2241 
Q 1359 2241 1098 1978 
Q 838 1716 838 1322 
z
" transform="scale(0.015625)"/>
       </defs>
       <use xlink:href="#ArialMT-38"/>
       <use xlink:href="#ArialMT-3a" transform="translate(55.615234 0)"/>
       <use xlink:href="#ArialMT-30" transform="translate(83.398438 0)"/>
       <use xlink:href="#ArialMT-30" transform="translate(139.013672 0)"/>
      </g>
     </g>
    </g>
    <g id="xtick_9">
     <g id="line2d_50">
      <g>
       <use xlink:href="#maac543d3c6" x="325.781875" y="257.76" style="stroke: #000000"/>
      </g>
     </g>
     <g id="text_9">
      <!-- 9:00 -->
      <g transform="translate(328.884063 289.613125) rotate(-90) scale(0.12 -0.12)">
       <defs>
        <path id="ArialMT-39" d="M 350 1059 
L 891 1109 
Q 959 728 1153 556 
Q 1347 384 1650 384 
Q 1909 384 2104 503 
Q 2300 622 2425 820 
Q 2550 1019 2634 1356 
Q 2719 1694 2719 2044 
Q 2719 2081 2716 2156 
Q 2547 1888 2255 1720 
Q 1963 1553 1622 1553 
Q 1053 1553 659 1965 
Q 266 2378 266 3053 
Q 266 3750 677 4175 
Q 1088 4600 1706 4600 
Q 2153 4600 2523 4359 
Q 2894 4119 3086 3673 
Q 3278 3228 3278 2384 
Q 3278 1506 3087 986 
Q 2897 466 2520 194 
Q 2144 -78 1638 -78 
Q 1100 -78 759 220 
Q 419 519 350 1059 
z
M 2653 3081 
Q 2653 3566 2395 3850 
Q 2138 4134 1775 4134 
Q 1400 4134 1122 3828 
Q 844 3522 844 3034 
Q 844 2597 1108 2323 
Q 1372 2050 1759 2050 
Q 2150 2050 2401 2323 
Q 2653 2597 2653 3081 
z
" transform="scale(0.015625)"/>
       </defs>
       <use xlink:href="#ArialMT-39"/>
       <use xlink:href="#ArialMT-3a" transform="translate(55.615234 0)"/>
       <use xlink:href="#ArialMT-30" transform="translate(83.398438 0)"/>
       <use xlink:href="#ArialMT-30" transform="translate(139.013672 0)"/>
      </g>
     </g>
    </g>
    <g id="xtick_10">
     <g id="line2d_51">
      <g>
       <use xlink:href="#maac543d3c6" x="353.681875" y="257.76" style="stroke: #000000"/>
      </g>
     </g>
     <g id="text_10">
      <!-- 10:00 -->
      <g transform="translate(356.784063 296.28625) rotate(-90) scale(0.12 -0.12)">
       <use xlink:href="#ArialMT-31"/>
       <use xlink:href="#ArialMT-30" transform="translate(55.615234 0)"/>
       <use xlink:href="#ArialMT-3a" transform="translate(111.230469 0)"/>
       <use xlink:href="#ArialMT-30" transform="translate(139.013672 0)"/>
       <use xlink:href="#ArialMT-30" transform="translate(194.628906 0)"/>
      </g>
     </g>
    </g>
    <g id="xtick_11">
     <g id="line2d_52">
      <g>
       <use xlink:href="#maac543d3c6" x="381.581875" y="257.76" style="stroke: #000000"/>
      </g>
     </g>
     <g id="text_11">
      <!-- 11:00 -->
      <g transform="translate(384.684063 295.40125) rotate(-90) scale(0.12 -0.12)">
       <use xlink:href="#ArialMT-31"/>
       <use xlink:href="#ArialMT-31" transform="translate(48.240234 0)"/>
       <use xlink:href="#ArialMT-3a" transform="translate(103.855469 0)"/>
       <use xlink:href="#ArialMT-30" transform="translate(131.638672 0)"/>
       <use xlink:href="#ArialMT-30" transform="translate(187.253906 0)"/>
      </g>
     </g>
    </g>
    <g id="xtick_12">
     <g id="line2d_53">
      <g>
       <use xlink:href="#maac543d3c6" x="409.481875" y="257.76" style="stroke: #000000"/>
      </g>
     </g>
     <g id="text_12">
      <!-- 12:00 -->
      <g transform="translate(412.584063 296.28625) rotate(-90) scale(0.12 -0.12)">
       <use xlink:href="#ArialMT-31"/>
       <use xlink:href="#ArialMT-32" transform="translate(55.615234 0)"/>
       <use xlink:href="#ArialMT-3a" transform="translate(111.230469 0)"/>
       <use xlink:href="#ArialMT-30" transform="translate(139.013672 0)"/>
       <use xlink:href="#ArialMT-30" transform="translate(194.628906 0)"/>
      </g>
     </g>
    </g>
    <g id="xtick_13">
     <g id="line2d_54">
      <g>
       <use xlink:href="#maac543d3c6" x="437.381875" y="257.76" style="stroke: #000000"/>
      </g>
     </g>
     <g id="text_13">
      <!-- 13:00 -->
      <g transform="translate(440.484062 296.28625) rotate(-90) scale(0.12 -0.12)">
       <use xlink:href="#ArialMT-31"/>
       <use xlink:href="#ArialMT-33" transform="translate(55.615234 0)"/>
       <use xlink:href="#ArialMT-3a" transform="translate(111.230469 0)"/>
       <use xlink:href="#ArialMT-30" transform="translate(139.013672 0)"/>
       <use xlink:href="#ArialMT-30" transform="translate(194.628906 0)"/>
      </g>
     </g>
    </g>
    <g id="xtick_14">
     <g id="line2d_55">
      <g>
       <use xlink:href="#maac543d3c6" x="465.281875" y="257.76" style="stroke: #000000"/>
      </g>
     </g>
     <g id="text_14">
      <!-- 14:00 -->
      <g transform="translate(468.384063 296.28625) rotate(-90) scale(0.12 -0.12)">
       <use xlink:href="#ArialMT-31"/>
       <use xlink:href="#ArialMT-34" transform="translate(55.615234 0)"/>
       <use xlink:href="#ArialMT-3a" transform="translate(111.230469 0)"/>
       <use xlink:href="#ArialMT-30" transform="translate(139.013672 0)"/>
       <use xlink:href="#ArialMT-30" transform="translate(194.628906 0)"/>
      </g>
     </g>
    </g>
    <g id="xtick_15">
     <g id="line2d_56">
      <g>
       <use xlink:href="#maac543d3c6" x="493.181875" y="257.76" style="stroke: #000000"/>
      </g>
     </g>
     <g id="text_15">
      <!-- 15:00 -->
      <g transform="translate(496.284063 296.28625) rotate(-90) scale(0.12 -0.12)">
       <use xlink:href="#ArialMT-31"/>
       <use xlink:href="#ArialMT-35" transform="translate(55.615234 0)"/>
       <use xlink:href="#ArialMT-3a" transform="translate(111.230469 0)"/>
       <use xlink:href="#ArialMT-30" transform="translate(139.013672 0)"/>
       <use xlink:href="#ArialMT-30" transform="translate(194.628906 0)"/>
      </g>
     </g>
    </g>
    <g id="xtick_16">
     <g id="line2d_57">
      <g>
       <use xlink:href="#maac543d3c6" x="521.081875" y="257.76" style="stroke: #000000"/>
      </g>
     </g>
     <g id="text_16">
      <!-- 16:00 -->
      <g transform="translate(524.184062 296.28625) rotate(-90) scale(0.12 -0.12)">
       <use xlink:href="#ArialMT-31"/>
       <use xlink:href="#ArialMT-36" transform="translate(55.615234 0)"/>
       <use xlink:href="#ArialMT-3a" transform="translate(111.230469 0)"/>
       <use xlink:href="#ArialMT-30" transform="translate(139.013672 0)"/>
       <use xlink:href="#ArialMT-30" transform="translate(194.628906 0)"/>
      </g>
     </g>
    </g>
    <g id="xtick_17">
     <g id="line2d_58">
      <g>
       <use xlink:href="#maac543d3c6" x="548.981875" y="257.76" style="stroke: #000000"/>
      </g>
     </g>
     <g id="text_17">
      <!-- 17:00 -->
      <g transform="translate(552.084062 296.28625) rotate(-90) scale(0.12 -0.12)">
       <use xlink:href="#ArialMT-31"/>
       <use xlink:href="#ArialMT-37" transform="translate(55.615234 0)"/>
       <use xlink:href="#ArialMT-3a" transform="translate(111.230469 0)"/>
       <use xlink:href="#ArialMT-30" transform="translate(139.013672 0)"/>
       <use xlink:href="#ArialMT-30" transform="translate(194.628906 0)"/>
      </g>
     </g>
    </g>
    <g id="xtick_18">
     <g id="line2d_59">
      <g>
       <use xlink:href="#maac543d3c6" x="576.881875" y="257.76" style="stroke: #000000"/>
      </g>
     </g>
     <g id="text_18">
      <!-- 18:00 -->
      <g transform="translate(579.984062 296.28625) rotate(-90) scale(0.12 -0.12)">
       <use xlink:href="#ArialMT-31"/>
       <use xlink:href="#ArialMT-38" transform="translate(55.615234 0)"/>
       <use xlink:href="#ArialMT-3a" transform="translate(111.230469 0)"/>
       <use xlink:href="#ArialMT-30" transform="translate(139.013672 0)"/>
       <use xlink:href="#ArialMT-30" transform="translate(194.628906 0)"/>
      </g>
     </g>
    </g>
    <g id="xtick_19">
     <g id="line2d_60">
      <g>
       <use xlink:href="#maac543d3c6" x="604.781875" y="257.76" style="stroke: #000000"/>
      </g>
     </g>
     <g id="text_19">
      <!-- 19:00 -->
      <g transform="translate(607.884063 296.28625) rotate(-90) scale(0.12 -0.12)">
       <use xlink:href="#ArialMT-31"/>
       <use xlink:href="#ArialMT-39" transform="translate(55.615234 0)"/>
       <use xlink:href="#ArialMT-3a" transform="translate(111.230469 0)"/>
       <use xlink:href="#ArialMT-30" transform="translate(139.013672 0)"/>
       <use xlink:href="#ArialMT-30" transform="translate(194.628906 0)"/>
      </g>
     </g>
    </g>
    <g id="xtick_20">
     <g id="line2d_61">
      <g>
       <use xlink:href="#maac543d3c6" x="632.681875" y="257.76" style="stroke: #000000"/>
      </g>
     </g>
     <g id="text_20">
      <!-- 20:00 -->
      <g transform="translate(635.784063 296.28625) rotate(-90) scale(0.12 -0.12)">
       <use xlink:href="#ArialMT-32"/>
       <use xlink:href="#ArialMT-30" transform="translate(55.615234 0)"/>
       <use xlink:href="#ArialMT-3a" transform="translate(111.230469 0)"/>
       <use xlink:href="#ArialMT-30" transform="translate(139.013672 0)"/>
       <use xlink:href="#ArialMT-30" transform="translate(194.628906 0)"/>
      </g>
     </g>
    </g>
    <g id="xtick_21">
     <g id="line2d_62">
      <g>
       <use xlink:href="#maac543d3c6" x="660.581875" y="257.76" style="stroke: #000000"/>
      </g>
     </g>
     <g id="text_21">
      <!-- 21:00 -->
      <g transform="translate(663.684062 296.28625) rotate(-90) scale(0.12 -0.12)">
       <use xlink:href="#ArialMT-32"/>
       <use xlink:href="#ArialMT-31" transform="translate(55.615234 0)"/>
       <use xlink:href="#ArialMT-3a" transform="translate(111.230469 0)"/>
       <use xlink:href="#ArialMT-30" transform="translate(139.013672 0)"/>
       <use xlink:href="#ArialMT-30" transform="translate(194.628906 0)"/>
      </g>
     </g>
    </g>
    <g id="xtick_22">
     <g id="line2d_63">
      <g>
       <use xlink:href="#maac543d3c6" x="688.481875" y="257.76" style="stroke: #000000"/>
      </g>
     </g>
     <g id="text_22">
      <!-- 22:00 -->
      <g transform="translate(691.584062 296.28625) rotate(-90) scale(0.12 -0.12)">
       <use xlink:href="#ArialMT-32"/>
       <use xlink:href="#ArialMT-32" transform="translate(55.615234 0)"/>
       <use xlink:href="#ArialMT-3a" transform="translate(111.230469 0)"/>
       <use xlink:href="#ArialMT-30" transform="translate(139.013672 0)"/>
       <use xlink:href="#ArialMT-30" transform="translate(194.628906 0)"/>
      </g>
     </g>
    </g>
    <g id="xtick_23">
     <g id="line2d_64">
      <g>
       <use xlink:href="#maac543d3c6" x="716.381875" y="257.76" style="stroke: #000000"/>
      </g>
     </g>
     <g id="text_23">
      <!-- 23:00 -->
      <g transform="translate(719.484062 296.28625) rotate(-90) scale(0.12 -0.12)">
       <use xlink:href="#ArialMT-32"/>
       <use xlink:href="#ArialMT-33" transform="translate(55.615234 0)"/>
       <use xlink:href="#ArialMT-3a" transform="translate(111.230469 0)"/>
       <use xlink:href="#ArialMT-30" transform="translate(139.013672 0)"/>
       <use xlink:href="#ArialMT-30" transform="translate(194.628906 0)"/>
      </g>
     </g>
    </g>
    <g id="xtick_24">
     <g id="line2d_65">
      <g>
       <use xlink:href="#maac543d3c6" x="744.281875" y="257.76" style="stroke: #000000"/>
      </g>
     </g>
     <g id="text_24">
      <!-- 24:00 -->
      <g transform="translate(747.384062 296.28625) rotate(-90) scale(0.12 -0.12)">
       <use xlink:href="#ArialMT-32"/>
       <use xlink:href="#ArialMT-34" transform="translate(55.615234 0)"/>
       <use xlink:href="#ArialMT-3a" transform="translate(111.230469 0)"/>
       <use xlink:href="#ArialMT-30" transform="translate(139.013672 0)"/>
       <use xlink:href="#ArialMT-30" transform="translate(194.628906 0)"/>
      </g>
     </g>
    </g>
   </g>
   <g id="matplotlib.axis_2">
    <g id="ytick_1">
     <g id="line2d_66">
      <defs>
       <path id="m5d349cc5f1" d="M 0 0 
L -5 0 
" style="stroke: #000000; stroke-opacity: 0; stroke-width: 1.5"/>
      </defs>
      <g>
       <use xlink:href="#m5d349cc5f1" x="88.631875" y="244.715294" style="fill-opacity: 0; stroke: #000000; stroke-opacity: 0; stroke-width: 1.5"/>
      </g>
     </g>
     <g id="text_25">
      <!-- 0.0 -->
      <g transform="translate(57.891875 250.441544) scale(0.16 -0.16)">
       <defs>
        <path id="ArialMT-2e" d="M 581 0 
L 581 641 
L 1222 641 
L 1222 0 
L 581 0 
z
" transform="scale(0.015625)"/>
       </defs>
       <use xlink:href="#ArialMT-30"/>
       <use xlink:href="#ArialMT-2e" transform="translate(55.615234 0)"/>
       <use xlink:href="#ArialMT-30" transform="translate(83.398438 0)"/>
      </g>
     </g>
    </g>
    <g id="ytick_2">
     <g id="line2d_67">
      <g>
       <use xlink:href="#m5d349cc5f1" x="88.631875" y="179.491765" style="fill-opacity: 0; stroke: #000000; stroke-opacity: 0; stroke-width: 1.5"/>
      </g>
     </g>
     <g id="text_26">
      <!-- 0.2 -->
      <g transform="translate(57.891875 185.218015) scale(0.16 -0.16)">
       <use xlink:href="#ArialMT-30"/>
       <use xlink:href="#ArialMT-2e" transform="translate(55.615234 0)"/>
       <use xlink:href="#ArialMT-32" transform="translate(83.398438 0)"/>
      </g>
     </g>
    </g>
    <g id="ytick_3">
     <g id="line2d_68">
      <g>
       <use xlink:href="#m5d349cc5f1" x="88.631875" y="114.268235" style="fill-opacity: 0; stroke: #000000; stroke-opacity: 0; stroke-width: 1.5"/>
      </g>
     </g>
     <g id="text_27">
      <!-- 0.4 -->
      <g transform="translate(57.891875 119.994485) scale(0.16 -0.16)">
       <use xlink:href="#ArialMT-30"/>
       <use xlink:href="#ArialMT-2e" transform="translate(55.615234 0)"/>
       <use xlink:href="#ArialMT-34" transform="translate(83.398438 0)"/>
      </g>
     </g>
    </g>
    <g id="ytick_4">
     <g id="line2d_69">
      <g>
       <use xlink:href="#m5d349cc5f1" x="88.631875" y="49.044706" style="fill-opacity: 0; stroke: #000000; stroke-opacity: 0; stroke-width: 1.5"/>
      </g>
     </g>
     <g id="text_28">
      <!-- 0.6 -->
      <g transform="translate(57.891875 54.770956) scale(0.16 -0.16)">
       <use xlink:href="#ArialMT-30"/>
       <use xlink:href="#ArialMT-2e" transform="translate(55.615234 0)"/>
       <use xlink:href="#ArialMT-36" transform="translate(83.398438 0)"/>
      </g>
     </g>
    </g>
    <g id="text_29">
     <!-- CNG (GGE) -->
     <g transform="translate(49.103437 195.377344) rotate(-90) scale(0.18 -0.18)">
      <defs>
       <path id="ArialMT-43" d="M 3763 1606 
L 4369 1453 
Q 4178 706 3683 314 
Q 3188 -78 2472 -78 
Q 1731 -78 1267 223 
Q 803 525 561 1097 
Q 319 1669 319 2325 
Q 319 3041 592 3573 
Q 866 4106 1370 4382 
Q 1875 4659 2481 4659 
Q 3169 4659 3637 4309 
Q 4106 3959 4291 3325 
L 3694 3184 
Q 3534 3684 3231 3912 
Q 2928 4141 2469 4141 
Q 1941 4141 1586 3887 
Q 1231 3634 1087 3207 
Q 944 2781 944 2328 
Q 944 1744 1114 1308 
Q 1284 872 1643 656 
Q 2003 441 2422 441 
Q 2931 441 3284 734 
Q 3638 1028 3763 1606 
z
" transform="scale(0.015625)"/>
       <path id="ArialMT-4e" d="M 488 0 
L 488 4581 
L 1109 4581 
L 3516 984 
L 3516 4581 
L 4097 4581 
L 4097 0 
L 3475 0 
L 1069 3600 
L 1069 0 
L 488 0 
z
" transform="scale(0.015625)"/>
       <path id="ArialMT-47" d="M 2638 1797 
L 2638 2334 
L 4578 2338 
L 4578 638 
Q 4131 281 3656 101 
Q 3181 -78 2681 -78 
Q 2006 -78 1454 211 
Q 903 500 622 1047 
Q 341 1594 341 2269 
Q 341 2938 620 3517 
Q 900 4097 1425 4378 
Q 1950 4659 2634 4659 
Q 3131 4659 3532 4498 
Q 3934 4338 4162 4050 
Q 4391 3763 4509 3300 
L 3963 3150 
Q 3859 3500 3706 3700 
Q 3553 3900 3268 4020 
Q 2984 4141 2638 4141 
Q 2222 4141 1919 4014 
Q 1616 3888 1430 3681 
Q 1244 3475 1141 3228 
Q 966 2803 966 2306 
Q 966 1694 1177 1281 
Q 1388 869 1791 669 
Q 2194 469 2647 469 
Q 3041 469 3416 620 
Q 3791 772 3984 944 
L 3984 1797 
L 2638 1797 
z
" transform="scale(0.015625)"/>
       <path id="ArialMT-20" transform="scale(0.015625)"/>
       <path id="ArialMT-28" d="M 1497 -1347 
Q 1031 -759 709 28 
Q 388 816 388 1659 
Q 388 2403 628 3084 
Q 909 3875 1497 4659 
L 1900 4659 
Q 1522 4009 1400 3731 
Q 1209 3300 1100 2831 
Q 966 2247 966 1656 
Q 966 153 1900 -1347 
L 1497 -1347 
z
" transform="scale(0.015625)"/>
       <path id="ArialMT-45" d="M 506 0 
L 506 4581 
L 3819 4581 
L 3819 4041 
L 1113 4041 
L 1113 2638 
L 3647 2638 
L 3647 2100 
L 1113 2100 
L 1113 541 
L 3925 541 
L 3925 0 
L 506 0 
z
" transform="scale(0.015625)"/>
       <path id="ArialMT-29" d="M 791 -1347 
L 388 -1347 
Q 1322 153 1322 1656 
Q 1322 2244 1188 2822 
Q 1081 3291 891 3722 
Q 769 4003 388 4659 
L 791 4659 
Q 1378 3875 1659 3084 
Q 1900 2403 1900 1659 
Q 1900 816 1576 28 
Q 1253 -759 791 -1347 
z
" transform="scale(0.015625)"/>
      </defs>
      <use xlink:href="#ArialMT-43"/>
      <use xlink:href="#ArialMT-4e" transform="translate(72.216797 0)"/>
      <use xlink:href="#ArialMT-47" transform="translate(144.433594 0)"/>
      <use xlink:href="#ArialMT-20" transform="translate(222.216797 0)"/>
      <use xlink:href="#ArialMT-28" transform="translate(250 0)"/>
      <use xlink:href="#ArialMT-47" transform="translate(283.300781 0)"/>
      <use xlink:href="#ArialMT-47" transform="translate(361.083984 0)"/>
      <use xlink:href="#ArialMT-45" transform="translate(438.867188 0)"/>
      <use xlink:href="#ArialMT-29" transform="translate(505.566406 0)"/>
     </g>
    </g>
   </g>
   <g id="line2d_70">
    <path d="M 102.581875 165.120668 
L 130.481875 190.86822 
L 158.381875 200.819195 
L 186.281875 201.939673 
L 214.181875 188.336276 
L 242.081875 139.860882 
L 269.981875 95.125483 
L 297.881875 92.48348 
L 325.781875 84.116948 
L 353.681875 80.568908 
L 381.581875 82.405254 
L 409.481875 81.995639 
L 437.381875 79.496383 
L 465.281875 80.499948 
L 493.181875 79.846979 
L 521.081875 80.01405 
L 548.981875 78.453087 
L 576.881875 78.998522 
L 604.781875 80.136773 
L 632.681875 84.872804 
L 660.581875 96.107256 
L 688.481875 93.907155 
L 716.381875 108.288883 
L 744.281875 132.206497 
" clip-path="url(#pba16c015ba)" style="fill: none; stroke: #9467bd; stroke-opacity: 0.8; stroke-width: 1.5; stroke-linecap: round"/>
   </g>
   <g id="line2d_71">
    <path d="M 102.581875 207.30994 
L 130.481875 219.295463 
L 158.381875 223.693394 
L 186.281875 224.625205 
L 214.181875 219.348536 
L 242.081875 200.324079 
L 269.981875 173.89474 
L 297.881875 164.288819 
L 325.781875 160.728088 
L 353.681875 159.416456 
L 381.581875 157.436473 
L 409.481875 156.232949 
L 437.381875 153.43636 
L 465.281875 154.43039 
L 493.181875 154.634659 
L 521.081875 155.070961 
L 548.981875 156.472377 
L 576.881875 156.660792 
L 604.781875 158.77736 
L 632.681875 163.659738 
L 660.581875 169.575307 
L 688.481875 171.511822 
L 716.381875 180.476412 
L 744.281875 193.024264 
" clip-path="url(#pba16c015ba)" style="fill: none; stroke: #8c564b; stroke-opacity: 0.8; stroke-width: 1.5; stroke-linecap: round"/>
   </g>
   <g id="line2d_72">
    <path d="M 102.581875 235.816902 
L 130.481875 240.193481 
L 158.381875 241.769279 
L 186.281875 241.450435 
L 214.181875 239.080978 
L 242.081875 231.588671 
L 269.981875 215.465409 
L 297.881875 200.640987 
L 325.781875 194.686334 
L 353.681875 193.959186 
L 381.581875 193.354617 
L 409.481875 191.33309 
L 437.381875 186.62445 
L 465.281875 186.758572 
L 493.181875 185.045845 
L 521.081875 181.147126 
L 548.981875 176.869341 
L 576.881875 179.268254 
L 604.781875 186.26824 
L 632.681875 194.154798 
L 660.581875 204.272477 
L 688.481875 213.98933 
L 716.381875 222.192645 
L 744.281875 229.378732 
" clip-path="url(#pba16c015ba)" style="fill: none; stroke: #ff9896; stroke-opacity: 0.8; stroke-width: 1.5; stroke-linecap: round"/>
   </g>
   <g id="line2d_73">
    <path d="M 102.581875 239.773649 
L 130.481875 241.99398 
L 158.381875 242.72057 
L 186.281875 242.567322 
L 214.181875 241.381763 
L 242.081875 236.305016 
L 269.981875 224.258225 
L 297.881875 211.974834 
L 325.781875 207.64533 
L 353.681875 206.590995 
L 381.581875 205.430068 
L 409.481875 201.341168 
L 437.381875 188.636633 
L 465.281875 186.220506 
L 493.181875 183.991362 
L 521.081875 182.668499 
L 548.981875 179.99236 
L 576.881875 180.482114 
L 604.781875 193.53209 
L 632.681875 209.184157 
L 660.581875 217.444955 
L 688.481875 224.984878 
L 716.381875 231.440547 
L 744.281875 236.085116 
" clip-path="url(#pba16c015ba)" style="fill: none; stroke: #d62728; stroke-opacity: 0.8; stroke-width: 1.5; stroke-linecap: round"/>
   </g>
   <g id="line2d_74">
    <path d="M 102.581875 214.686825 
L 130.481875 226.696279 
L 158.381875 231.042219 
L 186.281875 231.254386 
L 214.181875 225.183346 
L 242.081875 204.236563 
L 269.981875 178.205874 
L 297.881875 175.260398 
L 325.781875 170.308643 
L 353.681875 171.03931 
L 381.581875 169.163999 
L 409.481875 168.236585 
L 437.381875 165.522258 
L 465.281875 165.780438 
L 493.181875 165.339216 
L 521.081875 165.223872 
L 548.981875 165.053498 
L 576.881875 164.132717 
L 604.781875 165.742152 
L 632.681875 170.259473 
L 660.581875 173.600544 
L 688.481875 176.876879 
L 716.381875 187.320159 
L 744.281875 199.833265 
" clip-path="url(#pba16c015ba)" style="fill: none; stroke: #1f77b4; stroke-opacity: 0.8; stroke-width: 1.5; stroke-linecap: round"/>
   </g>
   <g id="line2d_75">
    <path d="M 102.581875 204.167064 
L 130.481875 218.6795 
L 158.381875 223.955925 
L 186.281875 224.343346 
L 214.181875 217.240828 
L 242.081875 191.852783 
L 269.981875 162.166273 
L 297.881875 155.869657 
L 325.781875 151.042373 
L 353.681875 149.718979 
L 381.581875 148.597088 
L 409.481875 147.462318 
L 437.381875 144.530474 
L 465.281875 145.009649 
L 493.181875 144.485308 
L 521.081875 144.58873 
L 548.981875 145.676071 
L 576.881875 144.855836 
L 604.781875 146.295553 
L 632.681875 150.834553 
L 660.581875 158.230297 
L 688.481875 160.238433 
L 716.381875 169.577884 
L 744.281875 184.437752 
" clip-path="url(#pba16c015ba)" style="fill: none; stroke: #aec7e8; stroke-opacity: 0.8; stroke-width: 1.5; stroke-linecap: round"/>
   </g>
   <g id="line2d_76">
    <path d="M 102.581875 239.189557 
L 130.481875 241.752277 
L 158.381875 242.573665 
L 186.281875 242.37607 
L 214.181875 241.01971 
L 242.081875 235.475724 
L 269.981875 222.689749 
L 297.881875 210.906513 
L 325.781875 207.971784 
L 353.681875 207.691887 
L 381.581875 206.79037 
L 409.481875 203.762468 
L 437.381875 196.591727 
L 465.281875 196.093322 
L 493.181875 190.879382 
L 521.081875 185.001411 
L 548.981875 181.423038 
L 576.881875 182.137174 
L 604.781875 196.269189 
L 632.681875 208.2112 
L 660.581875 215.891146 
L 688.481875 223.460503 
L 716.381875 230.181583 
L 744.281875 235.090357 
" clip-path="url(#pba16c015ba)" style="fill: none; stroke: #c49c94; stroke-opacity: 0.8; stroke-width: 1.5; stroke-linecap: round"/>
   </g>
   <g id="line2d_77">
    <path d="M 102.581875 236.491444 
L 130.481875 240.237741 
L 158.381875 241.421533 
L 186.281875 241.201862 
L 214.181875 239.473991 
L 242.081875 231.425196 
L 269.981875 213.749238 
L 297.881875 198.150336 
L 325.781875 192.189691 
L 353.681875 191.794669 
L 381.581875 191.566686 
L 409.481875 189.42208 
L 437.381875 185.694876 
L 465.281875 186.110269 
L 493.181875 185.494745 
L 521.081875 183.883328 
L 548.981875 180.732461 
L 576.881875 181.42262 
L 604.781875 186.747168 
L 632.681875 192.143115 
L 660.581875 202.150937 
L 688.481875 212.234258 
L 716.381875 222.493912 
L 744.281875 230.043616 
" clip-path="url(#pba16c015ba)" style="fill: none; stroke: #e377c2; stroke-opacity: 0.8; stroke-width: 1.5; stroke-linecap: round"/>
   </g>
   <g id="line2d_78">
    <path d="M 102.581875 202.552912 
L 130.481875 218.243952 
L 158.381875 223.919723 
L 186.281875 223.963923 
L 214.181875 215.64222 
L 242.081875 185.092371 
L 269.981875 146.226694 
L 297.881875 137.826649 
L 325.781875 135.729141 
L 353.681875 132.845573 
L 381.581875 129.75762 
L 409.481875 128.751116 
L 437.381875 125.498829 
L 465.281875 126.284549 
L 493.181875 125.398884 
L 521.081875 125.623992 
L 548.981875 126.648775 
L 576.881875 125.192552 
L 604.781875 126.941146 
L 632.681875 132.800865 
L 660.581875 137.710717 
L 688.481875 148.064231 
L 716.381875 162.913223 
L 744.281875 180.745082 
" clip-path="url(#pba16c015ba)" style="fill: none; stroke: #f7b6d2; stroke-opacity: 0.8; stroke-width: 1.5; stroke-linecap: round"/>
   </g>
   <g id="line2d_79">
    <path d="M 102.581875 227.525883 
L 130.481875 234.855007 
L 158.381875 237.275076 
L 186.281875 237.129003 
L 214.181875 233.146946 
L 242.081875 218.47503 
L 269.981875 197.21971 
L 297.881875 191.792876 
L 325.781875 186.935052 
L 353.681875 185.60162 
L 381.581875 183.705248 
L 409.481875 182.089819 
L 437.381875 178.856208 
L 465.281875 179.344117 
L 493.181875 178.84922 
L 521.081875 178.293984 
L 548.981875 177.748464 
L 576.881875 176.753453 
L 604.781875 179.309034 
L 632.681875 184.372217 
L 660.581875 191.11324 
L 688.481875 196.406612 
L 716.381875 206.543317 
L 744.281875 216.705687 
" clip-path="url(#pba16c015ba)" style="fill: none; stroke: #7f7f7f; stroke-opacity: 0.8; stroke-width: 1.5; stroke-linecap: round"/>
   </g>
   <g id="line2d_80">
    <path d="M 102.581875 233.866579 
L 130.481875 238.195478 
L 158.381875 239.644748 
L 186.281875 239.347086 
L 214.181875 237.449679 
L 242.081875 229.074045 
L 269.981875 212.429698 
L 297.881875 195.359491 
L 325.781875 186.76496 
L 353.681875 184.932826 
L 381.581875 184.007065 
L 409.481875 181.616557 
L 437.381875 177.350062 
L 465.281875 177.896265 
L 493.181875 177.632949 
L 521.081875 176.373884 
L 548.981875 173.347616 
L 576.881875 173.641954 
L 604.781875 178.489665 
L 632.681875 184.801423 
L 660.581875 195.610857 
L 688.481875 207.149482 
L 716.381875 218.776668 
L 744.281875 226.76267 
" clip-path="url(#pba16c015ba)" style="fill: none; stroke: #ff7f0e; stroke-opacity: 0.8; stroke-width: 1.5; stroke-linecap: round"/>
   </g>
   <g id="line2d_81">
    <path d="M 102.581875 239.833811 
L 130.481875 243.335598 
L 158.381875 244.165552 
L 186.281875 244.108336 
L 214.181875 243.005057 
L 242.081875 235.935903 
L 269.981875 221.325446 
L 297.881875 208.465227 
L 325.781875 202.274977 
L 353.681875 201.576521 
L 381.581875 199.588908 
L 409.481875 197.298233 
L 437.381875 193.638416 
L 465.281875 195.200174 
L 493.181875 195.101016 
L 521.081875 194.424133 
L 548.981875 191.184574 
L 576.881875 191.504899 
L 604.781875 197.074807 
L 632.681875 200.891763 
L 660.581875 210.671814 
L 688.481875 219.713286 
L 716.381875 228.682181 
L 744.281875 234.597982 
" clip-path="url(#pba16c015ba)" style="fill: none; stroke: #c7c7c7; stroke-opacity: 0.8; stroke-width: 1.5; stroke-linecap: round"/>
   </g>
   <g id="line2d_82">
    <path d="M 102.581875 235.829642 
L 130.481875 239.049221 
L 158.381875 240.328398 
L 186.281875 240.057277 
L 214.181875 238.456492 
L 242.081875 232.755527 
L 269.981875 220.915724 
L 297.881875 208.495749 
L 325.781875 202.417221 
L 353.681875 199.937922 
L 381.581875 198.226481 
L 409.481875 197.250322 
L 437.381875 191.406034 
L 465.281875 191.532373 
L 493.181875 190.496919 
L 521.081875 188.338244 
L 548.981875 186.935082 
L 576.881875 187.74572 
L 604.781875 194.000568 
L 632.681875 199.947753 
L 660.581875 208.848838 
L 688.481875 217.001509 
L 716.381875 224.926076 
L 744.281875 230.375822 
" clip-path="url(#pba16c015ba)" style="fill: none; stroke: #c5b0d5; stroke-opacity: 0.8; stroke-width: 1.5; stroke-linecap: round"/>
   </g>
   <g id="line2d_83">
    <path d="M 102.581875 210.218412 
L 130.481875 222.848481 
L 158.381875 227.240224 
L 186.281875 226.480611 
L 214.181875 219.465456 
L 242.081875 195.377906 
L 269.981875 155.729269 
L 297.881875 136.543078 
L 325.781875 133.842414 
L 353.681875 134.568135 
L 381.581875 131.778637 
L 409.481875 130.006507 
L 437.381875 125.874316 
L 465.281875 125.72799 
L 493.181875 124.001878 
L 521.081875 122.547293 
L 548.981875 123.083643 
L 576.881875 125.134808 
L 604.781875 127.252387 
L 632.681875 136.028225 
L 660.581875 137.943525 
L 688.481875 155.47058 
L 716.381875 174.919542 
L 744.281875 193.153507 
" clip-path="url(#pba16c015ba)" style="fill: none; stroke: #bcbd22; stroke-opacity: 0.8; stroke-width: 1.5; stroke-linecap: round"/>
   </g>
   <g id="line2d_84">
    <path d="M 102.581875 183.37034 
L 130.481875 205.879985 
L 158.381875 213.851469 
L 186.281875 212.268817 
L 214.181875 199.049982 
L 242.081875 159.802489 
L 269.981875 93.296389 
L 297.881875 65.361356 
L 325.781875 57.614874 
L 353.681875 55.379829 
L 381.581875 53.489957 
L 409.481875 77.214205 
L 437.381875 68.639648 
L 465.281875 65.482085 
L 493.181875 55.8278 
L 521.081875 48.553452 
L 548.981875 53.81945 
L 576.881875 65.41306 
L 604.781875 73.742678 
L 632.681875 53.120862 
L 660.581875 68.774516 
L 688.481875 97.049634 
L 716.381875 125.622974 
L 744.281875 154.256199 
" clip-path="url(#pba16c015ba)" style="fill: none; stroke: #dbdb8d; stroke-opacity: 0.8; stroke-width: 1.5; stroke-linecap: round"/>
   </g>
   <g id="line2d_85">
    <path d="M 102.581875 203.902065 
L 130.481875 219.090588 
L 158.381875 224.662229 
L 186.281875 224.30894 
L 214.181875 217.589576 
L 242.081875 193.169064 
L 269.981875 145.805533 
L 297.881875 127.020363 
L 325.781875 121.945439 
L 353.681875 121.458396 
L 381.581875 135.411218 
L 409.481875 128.857032 
L 437.381875 114.009251 
L 465.281875 112.637279 
L 493.181875 106.044805 
L 521.081875 100.876197 
L 548.981875 98.828787 
L 576.881875 103.780011 
L 604.781875 115.017614 
L 632.681875 134.597352 
L 660.581875 125.174056 
L 688.481875 141.832902 
L 716.381875 161.724334 
L 744.281875 182.784849 
" clip-path="url(#pba16c015ba)" style="fill: none; stroke: #17becf; stroke-opacity: 0.8; stroke-width: 1.5; stroke-linecap: round"/>
   </g>
   <g id="line2d_86">
    <path d="M 102.581875 226.296756 
L 130.481875 233.538321 
L 158.381875 235.95777 
L 186.281875 235.489525 
L 214.181875 231.5548 
L 242.081875 216.741266 
L 269.981875 192.234596 
L 297.881875 175.833687 
L 325.781875 173.051248 
L 353.681875 173.683442 
L 381.581875 171.568139 
L 409.481875 169.705871 
L 437.381875 165.727125 
L 465.281875 165.789795 
L 493.181875 164.826703 
L 521.081875 163.460638 
L 548.981875 162.447206 
L 576.881875 162.362558 
L 604.781875 166.152245 
L 632.681875 174.221704 
L 660.581875 178.167869 
L 688.481875 191.107157 
L 716.381875 204.726967 
L 744.281875 216.164813 
" clip-path="url(#pba16c015ba)" style="fill: none; stroke: #9edae5; stroke-opacity: 0.8; stroke-width: 1.5; stroke-linecap: round"/>
   </g>
   <g id="line2d_87">
    <path d="M 102.581875 238.07118 
L 130.481875 240.719331 
L 158.381875 241.753435 
L 186.281875 241.474885 
L 214.181875 239.71329 
L 242.081875 232.794839 
L 269.981875 216.6788 
L 297.881875 199.277342 
L 325.781875 195.753405 
L 353.681875 195.261313 
L 381.581875 194.322908 
L 409.481875 193.897515 
L 437.381875 188.493888 
L 465.281875 189.148856 
L 493.181875 188.817609 
L 521.081875 187.749048 
L 548.981875 187.327852 
L 576.881875 187.254839 
L 604.781875 191.570648 
L 632.681875 199.07986 
L 660.581875 209.828934 
L 688.481875 218.901773 
L 716.381875 227.56223 
L 744.281875 233.175805 
" clip-path="url(#pba16c015ba)" style="fill: none; stroke: #2ca02c; stroke-opacity: 0.8; stroke-width: 1.5; stroke-linecap: round"/>
   </g>
   <g id="line2d_88">
    <path d="M 102.581875 218.080994 
L 130.481875 228.173374 
L 158.381875 231.759244 
L 186.281875 231.730019 
L 214.181875 226.616005 
L 242.081875 207.591757 
L 269.981875 183.223767 
L 297.881875 177.930974 
L 325.781875 175.390504 
L 353.681875 173.720369 
L 381.581875 171.349052 
L 409.481875 169.895927 
L 437.381875 166.785986 
L 465.281875 167.49077 
L 493.181875 167.078086 
L 521.081875 167.0394 
L 548.981875 166.683407 
L 576.881875 165.686577 
L 604.781875 168.061852 
L 632.681875 173.172528 
L 660.581875 179.384969 
L 688.481875 182.442076 
L 716.381875 192.320773 
L 744.281875 204.037538 
" clip-path="url(#pba16c015ba)" style="fill: none; stroke: #98df8a; stroke-opacity: 0.8; stroke-width: 1.5; stroke-linecap: round"/>
   </g>
   <g id="line2d_89">
    <path d="M 102.581875 183.154078 
L 130.481875 205.420533 
L 158.381875 212.947079 
L 186.281875 212.387312 
L 214.181875 197.978424 
L 242.081875 152.152192 
L 269.981875 104.277083 
L 297.881875 95.905167 
L 325.781875 94.527788 
L 353.681875 98.794368 
L 381.581875 107.424024 
L 409.481875 101.960436 
L 437.381875 89.758285 
L 465.281875 89.056335 
L 493.181875 83.723696 
L 521.081875 78.747615 
L 548.981875 77.946928 
L 576.881875 79.952933 
L 604.781875 89.404911 
L 632.681875 108.860221 
L 660.581875 94.914686 
L 688.481875 108.070912 
L 716.381875 127.816933 
L 744.281875 152.880672 
" clip-path="url(#pba16c015ba)" style="fill: none; stroke: #ffbb78; stroke-opacity: 0.8; stroke-width: 1.5; stroke-linecap: round"/>
   </g>
   <g id="patch_3">
    <path d="M 88.631875 257.76 
L 88.631875 36 
" style="fill: none; stroke: #000000; stroke-linejoin: miter; stroke-linecap: square"/>
   </g>
   <g id="patch_4">
    <path d="M 758.231875 257.76 
L 758.231875 36 
" style="fill: none; stroke: #000000; stroke-linejoin: miter; stroke-linecap: square"/>
   </g>
   <g id="patch_5">
    <path d="M 88.631875 257.76 
L 758.231875 257.76 
" style="fill: none; stroke: #000000; stroke-linejoin: miter; stroke-linecap: square"/>
   </g>
   <g id="patch_6">
    <path d="M 88.631875 36 
L 758.231875 36 
" style="fill: none; stroke: #000000; stroke-linejoin: miter; stroke-linecap: square"/>
   </g>
  </g>
 </g>
 <defs>
  <clipPath id="pba16c015ba">
   <rect x="88.631875" y="36" width="669.6" height="221.76"/>
  </clipPath>
 </defs>
</svg>
