<?xml version="1.0" encoding="utf-8" standalone="no"?>
<!DOCTYPE svg PUBLIC "-//W3C//DTD SVG 1.1//EN"
  "http://www.w3.org/Graphics/SVG/1.1/DTD/svg11.dtd">
<svg xmlns:xlink="http://www.w3.org/1999/xlink" width="812.026875pt" height="332.28625pt" viewBox="0 0 812.026875 332.28625" xmlns="http://www.w3.org/2000/svg" version="1.1">
 <metadata>
  <rdf:RDF xmlns:dc="http://purl.org/dc/elements/1.1/" xmlns:cc="http://creativecommons.org/ns#" xmlns:rdf="http://www.w3.org/1999/02/22-rdf-syntax-ns#">
   <cc:Work>
    <dc:type rdf:resource="http://purl.org/dc/dcmitype/StillImage"/>
    <dc:date>2025-10-28T00:08:08.825271</dc:date>
    <dc:format>image/svg+xml</dc:format>
    <dc:creator>
     <cc:Agent>
      <dc:title>Matplotlib v3.10.7, https://matplotlib.org/</dc:title>
     </cc:Agent>
    </dc:creator>
   </cc:Work>
  </rdf:RDF>
 </metadata>
 <defs>
  <style type="text/css">*{stroke-linejoin: round; stroke-linecap: butt}</style>
 </defs>
 <g id="figure_1">
  <g id="patch_1">
   <path d="M 0 332.28625 
L 812.026875 332.28625 
L 812.026875 0 
L 0 0 
L 0 332.28625 
z
" style="fill: none"/>
  </g>
  <g id="axes_1">
   <g id="patch_2">
    <path d="M 106.426875 257.76 
L 776.026875 257.76 
L 776.026875 36 
L 106.426875 36 
L 106.426875 257.76 
z
" style="fill: none"/>
   </g>
   <g id="line2d_1">
    <path d="M 126.717784 257.76 
L 126.717784 36 
" clip-path="url(#p009a38450b)" style="fill: none; stroke-dasharray: 0.74,0.32; stroke-dashoffset: 0; stroke: #a9a9a9; stroke-opacity: 0.5; stroke-width: 0.2"/>
   </g>
   <g id="line2d_2">
    <path d="M 147.008693 257.76 
L 147.008693 36 
" clip-path="url(#p009a38450b)" style="fill: none; stroke-dasharray: 0.74,0.32; stroke-dashoffset: 0; stroke: #a9a9a9; stroke-opacity: 0.5; stroke-width: 0.2"/>
   </g>
   <g id="line2d_3">
    <path d="M 167.299602 257.76 
L 167.299602 36 
" clip-path="url(#p009a38450b)" style="fill: none; stroke-dasharray: 0.74,0.32; stroke-dashoffset: 0; stroke: #a9a9a9; stroke-opacity: 0.5; stroke-width: 0.2"/>
   </g>
   <g id="line2d_4">
    <path d="M 187.590511 257.76 
L 187.590511 36 
" clip-path="url(#p009a38450b)" style="fill: none; stroke-dasharray: 0.74,0.32; stroke-dashoffset: 0; stroke: #a9a9a9; stroke-opacity: 0.5; stroke-width: 0.2"/>
   </g>
   <g id="line2d_5">
    <path d="M 207.88142 257.76 
L 207.88142 36 
" clip-path="url(#p009a38450b)" style="fill: none; stroke-dasharray: 0.74,0.32; stroke-dashoffset: 0; stroke: #a9a9a9; stroke-opacity: 0.5; stroke-width: 0.2"/>
   </g>
   <g id="line2d_6">
    <path d="M 228.17233 257.76 
L 228.17233 36 
" clip-path="url(#p009a38450b)" style="fill: none; stroke-dasharray: 0.74,0.32; stroke-dashoffset: 0; stroke: #a9a9a9; stroke-opacity: 0.5; stroke-width: 0.2"/>
   </g>
   <g id="line2d_7">
    <path d="M 248.463239 257.76 
L 248.463239 36 
" clip-path="url(#p009a38450b)" style="fill: none; stroke-dasharray: 0.74,0.32; stroke-dashoffset: 0; stroke: #a9a9a9; stroke-opacity: 0.5; stroke-width: 0.2"/>
   </g>
   <g id="line2d_8">
    <path d="M 268.754148 257.76 
L 268.754148 36 
" clip-path="url(#p009a38450b)" style="fill: none; stroke-dasharray: 0.74,0.32; stroke-dashoffset: 0; stroke: #a9a9a9; stroke-opacity: 0.5; stroke-width: 0.2"/>
   </g>
   <g id="line2d_9">
    <path d="M 289.045057 257.76 
L 289.045057 36 
" clip-path="url(#p009a38450b)" style="fill: none; stroke-dasharray: 0.74,0.32; stroke-dashoffset: 0; stroke: #a9a9a9; stroke-opacity: 0.5; stroke-width: 0.2"/>
   </g>
   <g id="line2d_10">
    <path d="M 309.335966 257.76 
L 309.335966 36 
" clip-path="url(#p009a38450b)" style="fill: none; stroke-dasharray: 0.74,0.32; stroke-dashoffset: 0; stroke: #a9a9a9; stroke-opacity: 0.5; stroke-width: 0.2"/>
   </g>
   <g id="line2d_11">
    <path d="M 329.626875 257.76 
L 329.626875 36 
" clip-path="url(#p009a38450b)" style="fill: none; stroke-dasharray: 0.74,0.32; stroke-dashoffset: 0; stroke: #a9a9a9; stroke-opacity: 0.5; stroke-width: 0.2"/>
   </g>
   <g id="line2d_12">
    <path d="M 349.917784 257.76 
L 349.917784 36 
" clip-path="url(#p009a38450b)" style="fill: none; stroke-dasharray: 0.74,0.32; stroke-dashoffset: 0; stroke: #a9a9a9; stroke-opacity: 0.5; stroke-width: 0.2"/>
   </g>
   <g id="line2d_13">
    <path d="M 370.208693 257.76 
L 370.208693 36 
" clip-path="url(#p009a38450b)" style="fill: none; stroke-dasharray: 0.74,0.32; stroke-dashoffset: 0; stroke: #a9a9a9; stroke-opacity: 0.5; stroke-width: 0.2"/>
   </g>
   <g id="line2d_14">
    <path d="M 390.499602 257.76 
L 390.499602 36 
" clip-path="url(#p009a38450b)" style="fill: none; stroke-dasharray: 0.74,0.32; stroke-dashoffset: 0; stroke: #a9a9a9; stroke-opacity: 0.5; stroke-width: 0.2"/>
   </g>
   <g id="line2d_15">
    <path d="M 410.790511 257.76 
L 410.790511 36 
" clip-path="url(#p009a38450b)" style="fill: none; stroke-dasharray: 0.74,0.32; stroke-dashoffset: 0; stroke: #a9a9a9; stroke-opacity: 0.5; stroke-width: 0.2"/>
   </g>
   <g id="line2d_16">
    <path d="M 431.08142 257.76 
L 431.08142 36 
" clip-path="url(#p009a38450b)" style="fill: none; stroke-dasharray: 0.74,0.32; stroke-dashoffset: 0; stroke: #a9a9a9; stroke-opacity: 0.5; stroke-width: 0.2"/>
   </g>
   <g id="line2d_17">
    <path d="M 451.37233 257.76 
L 451.37233 36 
" clip-path="url(#p009a38450b)" style="fill: none; stroke-dasharray: 0.74,0.32; stroke-dashoffset: 0; stroke: #a9a9a9; stroke-opacity: 0.5; stroke-width: 0.2"/>
   </g>
   <g id="line2d_18">
    <path d="M 471.663239 257.76 
L 471.663239 36 
" clip-path="url(#p009a38450b)" style="fill: none; stroke-dasharray: 0.74,0.32; stroke-dashoffset: 0; stroke: #a9a9a9; stroke-opacity: 0.5; stroke-width: 0.2"/>
   </g>
   <g id="line2d_19">
    <path d="M 491.954148 257.76 
L 491.954148 36 
" clip-path="url(#p009a38450b)" style="fill: none; stroke-dasharray: 0.74,0.32; stroke-dashoffset: 0; stroke: #a9a9a9; stroke-opacity: 0.5; stroke-width: 0.2"/>
   </g>
   <g id="line2d_20">
    <path d="M 512.245057 257.76 
L 512.245057 36 
" clip-path="url(#p009a38450b)" style="fill: none; stroke-dasharray: 0.74,0.32; stroke-dashoffset: 0; stroke: #a9a9a9; stroke-opacity: 0.5; stroke-width: 0.2"/>
   </g>
   <g id="line2d_21">
    <path d="M 532.535966 257.76 
L 532.535966 36 
" clip-path="url(#p009a38450b)" style="fill: none; stroke-dasharray: 0.74,0.32; stroke-dashoffset: 0; stroke: #a9a9a9; stroke-opacity: 0.5; stroke-width: 0.2"/>
   </g>
   <g id="line2d_22">
    <path d="M 552.826875 257.76 
L 552.826875 36 
" clip-path="url(#p009a38450b)" style="fill: none; stroke-dasharray: 0.74,0.32; stroke-dashoffset: 0; stroke: #a9a9a9; stroke-opacity: 0.5; stroke-width: 0.2"/>
   </g>
   <g id="line2d_23">
    <path d="M 573.117784 257.76 
L 573.117784 36 
" clip-path="url(#p009a38450b)" style="fill: none; stroke-dasharray: 0.74,0.32; stroke-dashoffset: 0; stroke: #a9a9a9; stroke-opacity: 0.5; stroke-width: 0.2"/>
   </g>
   <g id="line2d_24">
    <path d="M 593.408693 257.76 
L 593.408693 36 
" clip-path="url(#p009a38450b)" style="fill: none; stroke-dasharray: 0.74,0.32; stroke-dashoffset: 0; stroke: #a9a9a9; stroke-opacity: 0.5; stroke-width: 0.2"/>
   </g>
   <g id="line2d_25">
    <path d="M 613.699602 257.76 
L 613.699602 36 
" clip-path="url(#p009a38450b)" style="fill: none; stroke-dasharray: 0.74,0.32; stroke-dashoffset: 0; stroke: #a9a9a9; stroke-opacity: 0.5; stroke-width: 0.2"/>
   </g>
   <g id="line2d_26">
    <path d="M 633.990511 257.76 
L 633.990511 36 
" clip-path="url(#p009a38450b)" style="fill: none; stroke-dasharray: 0.74,0.32; stroke-dashoffset: 0; stroke: #a9a9a9; stroke-opacity: 0.5; stroke-width: 0.2"/>
   </g>
   <g id="line2d_27">
    <path d="M 654.28142 257.76 
L 654.28142 36 
" clip-path="url(#p009a38450b)" style="fill: none; stroke-dasharray: 0.74,0.32; stroke-dashoffset: 0; stroke: #a9a9a9; stroke-opacity: 0.5; stroke-width: 0.2"/>
   </g>
   <g id="line2d_28">
    <path d="M 674.57233 257.76 
L 674.57233 36 
" clip-path="url(#p009a38450b)" style="fill: none; stroke-dasharray: 0.74,0.32; stroke-dashoffset: 0; stroke: #a9a9a9; stroke-opacity: 0.5; stroke-width: 0.2"/>
   </g>
   <g id="line2d_29">
    <path d="M 694.863239 257.76 
L 694.863239 36 
" clip-path="url(#p009a38450b)" style="fill: none; stroke-dasharray: 0.74,0.32; stroke-dashoffset: 0; stroke: #a9a9a9; stroke-opacity: 0.5; stroke-width: 0.2"/>
   </g>
   <g id="line2d_30">
    <path d="M 715.154148 257.76 
L 715.154148 36 
" clip-path="url(#p009a38450b)" style="fill: none; stroke-dasharray: 0.74,0.32; stroke-dashoffset: 0; stroke: #a9a9a9; stroke-opacity: 0.5; stroke-width: 0.2"/>
   </g>
   <g id="line2d_31">
    <path d="M 735.445057 257.76 
L 735.445057 36 
" clip-path="url(#p009a38450b)" style="fill: none; stroke-dasharray: 0.74,0.32; stroke-dashoffset: 0; stroke: #a9a9a9; stroke-opacity: 0.5; stroke-width: 0.2"/>
   </g>
   <g id="line2d_32">
    <path d="M 755.735966 257.76 
L 755.735966 36 
" clip-path="url(#p009a38450b)" style="fill: none; stroke-dasharray: 0.74,0.32; stroke-dashoffset: 0; stroke: #a9a9a9; stroke-opacity: 0.5; stroke-width: 0.2"/>
   </g>
   <g id="line2d_33">
    <path d="M 106.426875 235.584 
L 776.026875 235.584 
" clip-path="url(#p009a38450b)" style="fill: none; stroke-dasharray: 0.74,0.32; stroke-dashoffset: 0; stroke: #a9a9a9; stroke-opacity: 0.5; stroke-width: 0.2"/>
   </g>
   <g id="line2d_34">
    <path d="M 106.426875 213.408 
L 776.026875 213.408 
" clip-path="url(#p009a38450b)" style="fill: none; stroke-dasharray: 0.74,0.32; stroke-dashoffset: 0; stroke: #a9a9a9; stroke-opacity: 0.5; stroke-width: 0.2"/>
   </g>
   <g id="line2d_35">
    <path d="M 106.426875 191.232 
L 776.026875 191.232 
" clip-path="url(#p009a38450b)" style="fill: none; stroke-dasharray: 0.74,0.32; stroke-dashoffset: 0; stroke: #a9a9a9; stroke-opacity: 0.5; stroke-width: 0.2"/>
   </g>
   <g id="line2d_36">
    <path d="M 106.426875 169.056 
L 776.026875 169.056 
" clip-path="url(#p009a38450b)" style="fill: none; stroke-dasharray: 0.74,0.32; stroke-dashoffset: 0; stroke: #a9a9a9; stroke-opacity: 0.5; stroke-width: 0.2"/>
   </g>
   <g id="line2d_37">
    <path d="M 106.426875 146.88 
L 776.026875 146.88 
" clip-path="url(#p009a38450b)" style="fill: none; stroke-dasharray: 0.74,0.32; stroke-dashoffset: 0; stroke: #a9a9a9; stroke-opacity: 0.5; stroke-width: 0.2"/>
   </g>
   <g id="line2d_38">
    <path d="M 106.426875 124.704 
L 776.026875 124.704 
" clip-path="url(#p009a38450b)" style="fill: none; stroke-dasharray: 0.74,0.32; stroke-dashoffset: 0; stroke: #a9a9a9; stroke-opacity: 0.5; stroke-width: 0.2"/>
   </g>
   <g id="line2d_39">
    <path d="M 106.426875 102.528 
L 776.026875 102.528 
" clip-path="url(#p009a38450b)" style="fill: none; stroke-dasharray: 0.74,0.32; stroke-dashoffset: 0; stroke: #a9a9a9; stroke-opacity: 0.5; stroke-width: 0.2"/>
   </g>
   <g id="line2d_40">
    <path d="M 106.426875 80.352 
L 776.026875 80.352 
" clip-path="url(#p009a38450b)" style="fill: none; stroke-dasharray: 0.74,0.32; stroke-dashoffset: 0; stroke: #a9a9a9; stroke-opacity: 0.5; stroke-width: 0.2"/>
   </g>
   <g id="line2d_41">
    <path d="M 106.426875 58.176 
L 776.026875 58.176 
" clip-path="url(#p009a38450b)" style="fill: none; stroke-dasharray: 0.74,0.32; stroke-dashoffset: 0; stroke: #a9a9a9; stroke-opacity: 0.5; stroke-width: 0.2"/>
   </g>
   <g id="matplotlib.axis_1">
    <g id="xtick_1">
     <g id="line2d_42">
      <defs>
       <path id="mfea6a37ea1" d="M 0 0 
L 0 5 
" style="stroke: #000000"/>
      </defs>
      <g>
       <use xlink:href="#mfea6a37ea1" x="120.376875" y="257.76" style="stroke: #000000"/>
      </g>
     </g>
     <g id="text_1">
      <!-- 1:00 -->
      <g transform="translate(123.479063 289.613125) rotate(-90) scale(0.12 -0.12)">
       <defs>
        <path id="ArialMT-31" d="M 2384 0 
L 1822 0 
L 1822 3584 
Q 1619 3391 1289 3197 
Q 959 3003 697 2906 
L 697 3450 
Q 1169 3672 1522 3987 
Q 1875 4303 2022 4600 
L 2384 4600 
L 2384 0 
z
" transform="scale(0.015625)"/>
        <path id="ArialMT-3a" d="M 578 2678 
L 578 3319 
L 1219 3319 
L 1219 2678 
L 578 2678 
z
M 578 0 
L 578 641 
L 1219 641 
L 1219 0 
L 578 0 
z
" transform="scale(0.015625)"/>
        <path id="ArialMT-30" d="M 266 2259 
Q 266 3072 433 3567 
Q 600 4063 929 4331 
Q 1259 4600 1759 4600 
Q 2128 4600 2406 4451 
Q 2684 4303 2865 4023 
Q 3047 3744 3150 3342 
Q 3253 2941 3253 2259 
Q 3253 1453 3087 958 
Q 2922 463 2592 192 
Q 2263 -78 1759 -78 
Q 1097 -78 719 397 
Q 266 969 266 2259 
z
M 844 2259 
Q 844 1131 1108 757 
Q 1372 384 1759 384 
Q 2147 384 2411 759 
Q 2675 1134 2675 2259 
Q 2675 3391 2411 3762 
Q 2147 4134 1753 4134 
Q 1366 4134 1134 3806 
Q 844 3388 844 2259 
z
" transform="scale(0.015625)"/>
       </defs>
       <use xlink:href="#ArialMT-31"/>
       <use xlink:href="#ArialMT-3a" transform="translate(55.615234 0)"/>
       <use xlink:href="#ArialMT-30" transform="translate(83.398438 0)"/>
       <use xlink:href="#ArialMT-30" transform="translate(139.013672 0)"/>
      </g>
     </g>
    </g>
    <g id="xtick_2">
     <g id="line2d_43">
      <g>
       <use xlink:href="#mfea6a37ea1" x="148.276875" y="257.76" style="stroke: #000000"/>
      </g>
     </g>
     <g id="text_2">
      <!-- 2:00 -->
      <g transform="translate(151.379063 289.613125) rotate(-90) scale(0.12 -0.12)">
       <defs>
        <path id="ArialMT-32" d="M 3222 541 
L 3222 0 
L 194 0 
Q 188 203 259 391 
Q 375 700 629 1000 
Q 884 1300 1366 1694 
Q 2113 2306 2375 2664 
Q 2638 3022 2638 3341 
Q 2638 3675 2398 3904 
Q 2159 4134 1775 4134 
Q 1369 4134 1125 3890 
Q 881 3647 878 3216 
L 300 3275 
Q 359 3922 746 4261 
Q 1134 4600 1788 4600 
Q 2447 4600 2831 4234 
Q 3216 3869 3216 3328 
Q 3216 3053 3103 2787 
Q 2991 2522 2730 2228 
Q 2469 1934 1863 1422 
Q 1356 997 1212 845 
Q 1069 694 975 541 
L 3222 541 
z
" transform="scale(0.015625)"/>
       </defs>
       <use xlink:href="#ArialMT-32"/>
       <use xlink:href="#ArialMT-3a" transform="translate(55.615234 0)"/>
       <use xlink:href="#ArialMT-30" transform="translate(83.398438 0)"/>
       <use xlink:href="#ArialMT-30" transform="translate(139.013672 0)"/>
      </g>
     </g>
    </g>
    <g id="xtick_3">
     <g id="line2d_44">
      <g>
       <use xlink:href="#mfea6a37ea1" x="176.176875" y="257.76" style="stroke: #000000"/>
      </g>
     </g>
     <g id="text_3">
      <!-- 3:00 -->
      <g transform="translate(179.279063 289.613125) rotate(-90) scale(0.12 -0.12)">
       <defs>
        <path id="ArialMT-33" d="M 269 1209 
L 831 1284 
Q 928 806 1161 595 
Q 1394 384 1728 384 
Q 2125 384 2398 659 
Q 2672 934 2672 1341 
Q 2672 1728 2419 1979 
Q 2166 2231 1775 2231 
Q 1616 2231 1378 2169 
L 1441 2663 
Q 1497 2656 1531 2656 
Q 1891 2656 2178 2843 
Q 2466 3031 2466 3422 
Q 2466 3731 2256 3934 
Q 2047 4138 1716 4138 
Q 1388 4138 1169 3931 
Q 950 3725 888 3313 
L 325 3413 
Q 428 3978 793 4289 
Q 1159 4600 1703 4600 
Q 2078 4600 2393 4439 
Q 2709 4278 2876 4000 
Q 3044 3722 3044 3409 
Q 3044 3113 2884 2869 
Q 2725 2625 2413 2481 
Q 2819 2388 3044 2092 
Q 3269 1797 3269 1353 
Q 3269 753 2831 336 
Q 2394 -81 1725 -81 
Q 1122 -81 723 278 
Q 325 638 269 1209 
z
" transform="scale(0.015625)"/>
       </defs>
       <use xlink:href="#ArialMT-33"/>
       <use xlink:href="#ArialMT-3a" transform="translate(55.615234 0)"/>
       <use xlink:href="#ArialMT-30" transform="translate(83.398438 0)"/>
       <use xlink:href="#ArialMT-30" transform="translate(139.013672 0)"/>
      </g>
     </g>
    </g>
    <g id="xtick_4">
     <g id="line2d_45">
      <g>
       <use xlink:href="#mfea6a37ea1" x="204.076875" y="257.76" style="stroke: #000000"/>
      </g>
     </g>
     <g id="text_4">
      <!-- 4:00 -->
      <g transform="translate(207.179062 289.613125) rotate(-90) scale(0.12 -0.12)">
       <defs>
        <path id="ArialMT-34" d="M 2069 0 
L 2069 1097 
L 81 1097 
L 81 1613 
L 2172 4581 
L 2631 4581 
L 2631 1613 
L 3250 1613 
L 3250 1097 
L 2631 1097 
L 2631 0 
L 2069 0 
z
M 2069 1613 
L 2069 3678 
L 634 1613 
L 2069 1613 
z
" transform="scale(0.015625)"/>
       </defs>
       <use xlink:href="#ArialMT-34"/>
       <use xlink:href="#ArialMT-3a" transform="translate(55.615234 0)"/>
       <use xlink:href="#ArialMT-30" transform="translate(83.398438 0)"/>
       <use xlink:href="#ArialMT-30" transform="translate(139.013672 0)"/>
      </g>
     </g>
    </g>
    <g id="xtick_5">
     <g id="line2d_46">
      <g>
       <use xlink:href="#mfea6a37ea1" x="231.976875" y="257.76" style="stroke: #000000"/>
      </g>
     </g>
     <g id="text_5">
      <!-- 5:00 -->
      <g transform="translate(235.079063 289.613125) rotate(-90) scale(0.12 -0.12)">
       <defs>
        <path id="ArialMT-35" d="M 266 1200 
L 856 1250 
Q 922 819 1161 601 
Q 1400 384 1738 384 
Q 2144 384 2425 690 
Q 2706 997 2706 1503 
Q 2706 1984 2436 2262 
Q 2166 2541 1728 2541 
Q 1456 2541 1237 2417 
Q 1019 2294 894 2097 
L 366 2166 
L 809 4519 
L 3088 4519 
L 3088 3981 
L 1259 3981 
L 1013 2750 
Q 1425 3038 1878 3038 
Q 2478 3038 2890 2622 
Q 3303 2206 3303 1553 
Q 3303 931 2941 478 
Q 2500 -78 1738 -78 
Q 1113 -78 717 272 
Q 322 622 266 1200 
z
" transform="scale(0.015625)"/>
       </defs>
       <use xlink:href="#ArialMT-35"/>
       <use xlink:href="#ArialMT-3a" transform="translate(55.615234 0)"/>
       <use xlink:href="#ArialMT-30" transform="translate(83.398438 0)"/>
       <use xlink:href="#ArialMT-30" transform="translate(139.013672 0)"/>
      </g>
     </g>
    </g>
    <g id="xtick_6">
     <g id="line2d_47">
      <g>
       <use xlink:href="#mfea6a37ea1" x="259.876875" y="257.76" style="stroke: #000000"/>
      </g>
     </g>
     <g id="text_6">
      <!-- 6:00 -->
      <g transform="translate(262.979063 289.613125) rotate(-90) scale(0.12 -0.12)">
       <defs>
        <path id="ArialMT-36" d="M 3184 3459 
L 2625 3416 
Q 2550 3747 2413 3897 
Q 2184 4138 1850 4138 
Q 1581 4138 1378 3988 
Q 1113 3794 959 3422 
Q 806 3050 800 2363 
Q 1003 2672 1297 2822 
Q 1591 2972 1913 2972 
Q 2475 2972 2870 2558 
Q 3266 2144 3266 1488 
Q 3266 1056 3080 686 
Q 2894 316 2569 119 
Q 2244 -78 1831 -78 
Q 1128 -78 684 439 
Q 241 956 241 2144 
Q 241 3472 731 4075 
Q 1159 4600 1884 4600 
Q 2425 4600 2770 4297 
Q 3116 3994 3184 3459 
z
M 888 1484 
Q 888 1194 1011 928 
Q 1134 663 1356 523 
Q 1578 384 1822 384 
Q 2178 384 2434 671 
Q 2691 959 2691 1453 
Q 2691 1928 2437 2201 
Q 2184 2475 1800 2475 
Q 1419 2475 1153 2201 
Q 888 1928 888 1484 
z
" transform="scale(0.015625)"/>
       </defs>
       <use xlink:href="#ArialMT-36"/>
       <use xlink:href="#ArialMT-3a" transform="translate(55.615234 0)"/>
       <use xlink:href="#ArialMT-30" transform="translate(83.398438 0)"/>
       <use xlink:href="#ArialMT-30" transform="translate(139.013672 0)"/>
      </g>
     </g>
    </g>
    <g id="xtick_7">
     <g id="line2d_48">
      <g>
       <use xlink:href="#mfea6a37ea1" x="287.776875" y="257.76" style="stroke: #000000"/>
      </g>
     </g>
     <g id="text_7">
      <!-- 7:00 -->
      <g transform="translate(290.879063 289.613125) rotate(-90) scale(0.12 -0.12)">
       <defs>
        <path id="ArialMT-37" d="M 303 3981 
L 303 4522 
L 3269 4522 
L 3269 4084 
Q 2831 3619 2401 2847 
Q 1972 2075 1738 1259 
Q 1569 684 1522 0 
L 944 0 
Q 953 541 1156 1306 
Q 1359 2072 1739 2783 
Q 2119 3494 2547 3981 
L 303 3981 
z
" transform="scale(0.015625)"/>
       </defs>
       <use xlink:href="#ArialMT-37"/>
       <use xlink:href="#ArialMT-3a" transform="translate(55.615234 0)"/>
       <use xlink:href="#ArialMT-30" transform="translate(83.398438 0)"/>
       <use xlink:href="#ArialMT-30" transform="translate(139.013672 0)"/>
      </g>
     </g>
    </g>
    <g id="xtick_8">
     <g id="line2d_49">
      <g>
       <use xlink:href="#mfea6a37ea1" x="315.676875" y="257.76" style="stroke: #000000"/>
      </g>
     </g>
     <g id="text_8">
      <!-- 8:00 -->
      <g transform="translate(318.779063 289.613125) rotate(-90) scale(0.12 -0.12)">
       <defs>
        <path id="ArialMT-38" d="M 1131 2484 
Q 781 2613 612 2850 
Q 444 3088 444 3419 
Q 444 3919 803 4259 
Q 1163 4600 1759 4600 
Q 2359 4600 2725 4251 
Q 3091 3903 3091 3403 
Q 3091 3084 2923 2848 
Q 2756 2613 2416 2484 
Q 2838 2347 3058 2040 
Q 3278 1734 3278 1309 
Q 3278 722 2862 322 
Q 2447 -78 1769 -78 
Q 1091 -78 675 323 
Q 259 725 259 1325 
Q 259 1772 486 2073 
Q 713 2375 1131 2484 
z
M 1019 3438 
Q 1019 3113 1228 2906 
Q 1438 2700 1772 2700 
Q 2097 2700 2305 2904 
Q 2513 3109 2513 3406 
Q 2513 3716 2298 3927 
Q 2084 4138 1766 4138 
Q 1444 4138 1231 3931 
Q 1019 3725 1019 3438 
z
M 838 1322 
Q 838 1081 952 856 
Q 1066 631 1291 507 
Q 1516 384 1775 384 
Q 2178 384 2440 643 
Q 2703 903 2703 1303 
Q 2703 1709 2433 1975 
Q 2163 2241 1756 2241 
Q 1359 2241 1098 1978 
Q 838 1716 838 1322 
z
" transform="scale(0.015625)"/>
       </defs>
       <use xlink:href="#ArialMT-38"/>
       <use xlink:href="#ArialMT-3a" transform="translate(55.615234 0)"/>
       <use xlink:href="#ArialMT-30" transform="translate(83.398438 0)"/>
       <use xlink:href="#ArialMT-30" transform="translate(139.013672 0)"/>
      </g>
     </g>
    </g>
    <g id="xtick_9">
     <g id="line2d_50">
      <g>
       <use xlink:href="#mfea6a37ea1" x="343.576875" y="257.76" style="stroke: #000000"/>
      </g>
     </g>
     <g id="text_9">
      <!-- 9:00 -->
      <g transform="translate(346.679062 289.613125) rotate(-90) scale(0.12 -0.12)">
       <defs>
        <path id="ArialMT-39" d="M 350 1059 
L 891 1109 
Q 959 728 1153 556 
Q 1347 384 1650 384 
Q 1909 384 2104 503 
Q 2300 622 2425 820 
Q 2550 1019 2634 1356 
Q 2719 1694 2719 2044 
Q 2719 2081 2716 2156 
Q 2547 1888 2255 1720 
Q 1963 1553 1622 1553 
Q 1053 1553 659 1965 
Q 266 2378 266 3053 
Q 266 3750 677 4175 
Q 1088 4600 1706 4600 
Q 2153 4600 2523 4359 
Q 2894 4119 3086 3673 
Q 3278 3228 3278 2384 
Q 3278 1506 3087 986 
Q 2897 466 2520 194 
Q 2144 -78 1638 -78 
Q 1100 -78 759 220 
Q 419 519 350 1059 
z
M 2653 3081 
Q 2653 3566 2395 3850 
Q 2138 4134 1775 4134 
Q 1400 4134 1122 3828 
Q 844 3522 844 3034 
Q 844 2597 1108 2323 
Q 1372 2050 1759 2050 
Q 2150 2050 2401 2323 
Q 2653 2597 2653 3081 
z
" transform="scale(0.015625)"/>
       </defs>
       <use xlink:href="#ArialMT-39"/>
       <use xlink:href="#ArialMT-3a" transform="translate(55.615234 0)"/>
       <use xlink:href="#ArialMT-30" transform="translate(83.398438 0)"/>
       <use xlink:href="#ArialMT-30" transform="translate(139.013672 0)"/>
      </g>
     </g>
    </g>
    <g id="xtick_10">
     <g id="line2d_51">
      <g>
       <use xlink:href="#mfea6a37ea1" x="371.476875" y="257.76" style="stroke: #000000"/>
      </g>
     </g>
     <g id="text_10">
      <!-- 10:00 -->
      <g transform="translate(374.579063 296.28625) rotate(-90) scale(0.12 -0.12)">
       <use xlink:href="#ArialMT-31"/>
       <use xlink:href="#ArialMT-30" transform="translate(55.615234 0)"/>
       <use xlink:href="#ArialMT-3a" transform="translate(111.230469 0)"/>
       <use xlink:href="#ArialMT-30" transform="translate(139.013672 0)"/>
       <use xlink:href="#ArialMT-30" transform="translate(194.628906 0)"/>
      </g>
     </g>
    </g>
    <g id="xtick_11">
     <g id="line2d_52">
      <g>
       <use xlink:href="#mfea6a37ea1" x="399.376875" y="257.76" style="stroke: #000000"/>
      </g>
     </g>
     <g id="text_11">
      <!-- 11:00 -->
      <g transform="translate(402.479063 295.40125) rotate(-90) scale(0.12 -0.12)">
       <use xlink:href="#ArialMT-31"/>
       <use xlink:href="#ArialMT-31" transform="translate(48.240234 0)"/>
       <use xlink:href="#ArialMT-3a" transform="translate(103.855469 0)"/>
       <use xlink:href="#ArialMT-30" transform="translate(131.638672 0)"/>
       <use xlink:href="#ArialMT-30" transform="translate(187.253906 0)"/>
      </g>
     </g>
    </g>
    <g id="xtick_12">
     <g id="line2d_53">
      <g>
       <use xlink:href="#mfea6a37ea1" x="427.276875" y="257.76" style="stroke: #000000"/>
      </g>
     </g>
     <g id="text_12">
      <!-- 12:00 -->
      <g transform="translate(430.379063 296.28625) rotate(-90) scale(0.12 -0.12)">
       <use xlink:href="#ArialMT-31"/>
       <use xlink:href="#ArialMT-32" transform="translate(55.615234 0)"/>
       <use xlink:href="#ArialMT-3a" transform="translate(111.230469 0)"/>
       <use xlink:href="#ArialMT-30" transform="translate(139.013672 0)"/>
       <use xlink:href="#ArialMT-30" transform="translate(194.628906 0)"/>
      </g>
     </g>
    </g>
    <g id="xtick_13">
     <g id="line2d_54">
      <g>
       <use xlink:href="#mfea6a37ea1" x="455.176875" y="257.76" style="stroke: #000000"/>
      </g>
     </g>
     <g id="text_13">
      <!-- 13:00 -->
      <g transform="translate(458.279063 296.28625) rotate(-90) scale(0.12 -0.12)">
       <use xlink:href="#ArialMT-31"/>
       <use xlink:href="#ArialMT-33" transform="translate(55.615234 0)"/>
       <use xlink:href="#ArialMT-3a" transform="translate(111.230469 0)"/>
       <use xlink:href="#ArialMT-30" transform="translate(139.013672 0)"/>
       <use xlink:href="#ArialMT-30" transform="translate(194.628906 0)"/>
      </g>
     </g>
    </g>
    <g id="xtick_14">
     <g id="line2d_55">
      <g>
       <use xlink:href="#mfea6a37ea1" x="483.076875" y="257.76" style="stroke: #000000"/>
      </g>
     </g>
     <g id="text_14">
      <!-- 14:00 -->
      <g transform="translate(486.179062 296.28625) rotate(-90) scale(0.12 -0.12)">
       <use xlink:href="#ArialMT-31"/>
       <use xlink:href="#ArialMT-34" transform="translate(55.615234 0)"/>
       <use xlink:href="#ArialMT-3a" transform="translate(111.230469 0)"/>
       <use xlink:href="#ArialMT-30" transform="translate(139.013672 0)"/>
       <use xlink:href="#ArialMT-30" transform="translate(194.628906 0)"/>
      </g>
     </g>
    </g>
    <g id="xtick_15">
     <g id="line2d_56">
      <g>
       <use xlink:href="#mfea6a37ea1" x="510.976875" y="257.76" style="stroke: #000000"/>
      </g>
     </g>
     <g id="text_15">
      <!-- 15:00 -->
      <g transform="translate(514.079062 296.28625) rotate(-90) scale(0.12 -0.12)">
       <use xlink:href="#ArialMT-31"/>
       <use xlink:href="#ArialMT-35" transform="translate(55.615234 0)"/>
       <use xlink:href="#ArialMT-3a" transform="translate(111.230469 0)"/>
       <use xlink:href="#ArialMT-30" transform="translate(139.013672 0)"/>
       <use xlink:href="#ArialMT-30" transform="translate(194.628906 0)"/>
      </g>
     </g>
    </g>
    <g id="xtick_16">
     <g id="line2d_57">
      <g>
       <use xlink:href="#mfea6a37ea1" x="538.876875" y="257.76" style="stroke: #000000"/>
      </g>
     </g>
     <g id="text_16">
      <!-- 16:00 -->
      <g transform="translate(541.979063 296.28625) rotate(-90) scale(0.12 -0.12)">
       <use xlink:href="#ArialMT-31"/>
       <use xlink:href="#ArialMT-36" transform="translate(55.615234 0)"/>
       <use xlink:href="#ArialMT-3a" transform="translate(111.230469 0)"/>
       <use xlink:href="#ArialMT-30" transform="translate(139.013672 0)"/>
       <use xlink:href="#ArialMT-30" transform="translate(194.628906 0)"/>
      </g>
     </g>
    </g>
    <g id="xtick_17">
     <g id="line2d_58">
      <g>
       <use xlink:href="#mfea6a37ea1" x="566.776875" y="257.76" style="stroke: #000000"/>
      </g>
     </g>
     <g id="text_17">
      <!-- 17:00 -->
      <g transform="translate(569.879063 296.28625) rotate(-90) scale(0.12 -0.12)">
       <use xlink:href="#ArialMT-31"/>
       <use xlink:href="#ArialMT-37" transform="translate(55.615234 0)"/>
       <use xlink:href="#ArialMT-3a" transform="translate(111.230469 0)"/>
       <use xlink:href="#ArialMT-30" transform="translate(139.013672 0)"/>
       <use xlink:href="#ArialMT-30" transform="translate(194.628906 0)"/>
      </g>
     </g>
    </g>
    <g id="xtick_18">
     <g id="line2d_59">
      <g>
       <use xlink:href="#mfea6a37ea1" x="594.676875" y="257.76" style="stroke: #000000"/>
      </g>
     </g>
     <g id="text_18">
      <!-- 18:00 -->
      <g transform="translate(597.779063 296.28625) rotate(-90) scale(0.12 -0.12)">
       <use xlink:href="#ArialMT-31"/>
       <use xlink:href="#ArialMT-38" transform="translate(55.615234 0)"/>
       <use xlink:href="#ArialMT-3a" transform="translate(111.230469 0)"/>
       <use xlink:href="#ArialMT-30" transform="translate(139.013672 0)"/>
       <use xlink:href="#ArialMT-30" transform="translate(194.628906 0)"/>
      </g>
     </g>
    </g>
    <g id="xtick_19">
     <g id="line2d_60">
      <g>
       <use xlink:href="#mfea6a37ea1" x="622.576875" y="257.76" style="stroke: #000000"/>
      </g>
     </g>
     <g id="text_19">
      <!-- 19:00 -->
      <g transform="translate(625.679062 296.28625) rotate(-90) scale(0.12 -0.12)">
       <use xlink:href="#ArialMT-31"/>
       <use xlink:href="#ArialMT-39" transform="translate(55.615234 0)"/>
       <use xlink:href="#ArialMT-3a" transform="translate(111.230469 0)"/>
       <use xlink:href="#ArialMT-30" transform="translate(139.013672 0)"/>
       <use xlink:href="#ArialMT-30" transform="translate(194.628906 0)"/>
      </g>
     </g>
    </g>
    <g id="xtick_20">
     <g id="line2d_61">
      <g>
       <use xlink:href="#mfea6a37ea1" x="650.476875" y="257.76" style="stroke: #000000"/>
      </g>
     </g>
     <g id="text_20">
      <!-- 20:00 -->
      <g transform="translate(653.579063 296.28625) rotate(-90) scale(0.12 -0.12)">
       <use xlink:href="#ArialMT-32"/>
       <use xlink:href="#ArialMT-30" transform="translate(55.615234 0)"/>
       <use xlink:href="#ArialMT-3a" transform="translate(111.230469 0)"/>
       <use xlink:href="#ArialMT-30" transform="translate(139.013672 0)"/>
       <use xlink:href="#ArialMT-30" transform="translate(194.628906 0)"/>
      </g>
     </g>
    </g>
    <g id="xtick_21">
     <g id="line2d_62">
      <g>
       <use xlink:href="#mfea6a37ea1" x="678.376875" y="257.76" style="stroke: #000000"/>
      </g>
     </g>
     <g id="text_21">
      <!-- 21:00 -->
      <g transform="translate(681.479063 296.28625) rotate(-90) scale(0.12 -0.12)">
       <use xlink:href="#ArialMT-32"/>
       <use xlink:href="#ArialMT-31" transform="translate(55.615234 0)"/>
       <use xlink:href="#ArialMT-3a" transform="translate(111.230469 0)"/>
       <use xlink:href="#ArialMT-30" transform="translate(139.013672 0)"/>
       <use xlink:href="#ArialMT-30" transform="translate(194.628906 0)"/>
      </g>
     </g>
    </g>
    <g id="xtick_22">
     <g id="line2d_63">
      <g>
       <use xlink:href="#mfea6a37ea1" x="706.276875" y="257.76" style="stroke: #000000"/>
      </g>
     </g>
     <g id="text_22">
      <!-- 22:00 -->
      <g transform="translate(709.379063 296.28625) rotate(-90) scale(0.12 -0.12)">
       <use xlink:href="#ArialMT-32"/>
       <use xlink:href="#ArialMT-32" transform="translate(55.615234 0)"/>
       <use xlink:href="#ArialMT-3a" transform="translate(111.230469 0)"/>
       <use xlink:href="#ArialMT-30" transform="translate(139.013672 0)"/>
       <use xlink:href="#ArialMT-30" transform="translate(194.628906 0)"/>
      </g>
     </g>
    </g>
    <g id="xtick_23">
     <g id="line2d_64">
      <g>
       <use xlink:href="#mfea6a37ea1" x="734.176875" y="257.76" style="stroke: #000000"/>
      </g>
     </g>
     <g id="text_23">
      <!-- 23:00 -->
      <g transform="translate(737.279063 296.28625) rotate(-90) scale(0.12 -0.12)">
       <use xlink:href="#ArialMT-32"/>
       <use xlink:href="#ArialMT-33" transform="translate(55.615234 0)"/>
       <use xlink:href="#ArialMT-3a" transform="translate(111.230469 0)"/>
       <use xlink:href="#ArialMT-30" transform="translate(139.013672 0)"/>
       <use xlink:href="#ArialMT-30" transform="translate(194.628906 0)"/>
      </g>
     </g>
    </g>
    <g id="xtick_24">
     <g id="line2d_65">
      <g>
       <use xlink:href="#mfea6a37ea1" x="762.076875" y="257.76" style="stroke: #000000"/>
      </g>
     </g>
     <g id="text_24">
      <!-- 24:00 -->
      <g transform="translate(765.179062 296.28625) rotate(-90) scale(0.12 -0.12)">
       <use xlink:href="#ArialMT-32"/>
       <use xlink:href="#ArialMT-34" transform="translate(55.615234 0)"/>
       <use xlink:href="#ArialMT-3a" transform="translate(111.230469 0)"/>
       <use xlink:href="#ArialMT-30" transform="translate(139.013672 0)"/>
       <use xlink:href="#ArialMT-30" transform="translate(194.628906 0)"/>
      </g>
     </g>
    </g>
   </g>
   <g id="matplotlib.axis_2">
    <g id="ytick_1">
     <g id="line2d_66">
      <defs>
       <path id="m79520dde40" d="M 0 0 
L -5 0 
" style="stroke: #000000; stroke-opacity: 0; stroke-width: 1.5"/>
      </defs>
      <g>
       <use xlink:href="#m79520dde40" x="106.426875" y="245.088" style="fill-opacity: 0; stroke: #000000; stroke-opacity: 0; stroke-width: 1.5"/>
      </g>
     </g>
     <g id="text_25">
      <!-- 0.000 -->
      <g transform="translate(57.891875 250.81425) scale(0.16 -0.16)">
       <defs>
        <path id="ArialMT-2e" d="M 581 0 
L 581 641 
L 1222 641 
L 1222 0 
L 581 0 
z
" transform="scale(0.015625)"/>
       </defs>
       <use xlink:href="#ArialMT-30"/>
       <use xlink:href="#ArialMT-2e" transform="translate(55.615234 0)"/>
       <use xlink:href="#ArialMT-30" transform="translate(83.398438 0)"/>
       <use xlink:href="#ArialMT-30" transform="translate(139.013672 0)"/>
       <use xlink:href="#ArialMT-30" transform="translate(194.628906 0)"/>
      </g>
     </g>
    </g>
    <g id="ytick_2">
     <g id="line2d_67">
      <g>
       <use xlink:href="#m79520dde40" x="106.426875" y="194.4" style="fill-opacity: 0; stroke: #000000; stroke-opacity: 0; stroke-width: 1.5"/>
      </g>
     </g>
     <g id="text_26">
      <!-- 0.004 -->
      <g transform="translate(57.891875 200.12625) scale(0.16 -0.16)">
       <use xlink:href="#ArialMT-30"/>
       <use xlink:href="#ArialMT-2e" transform="translate(55.615234 0)"/>
       <use xlink:href="#ArialMT-30" transform="translate(83.398438 0)"/>
       <use xlink:href="#ArialMT-30" transform="translate(139.013672 0)"/>
       <use xlink:href="#ArialMT-34" transform="translate(194.628906 0)"/>
      </g>
     </g>
    </g>
    <g id="ytick_3">
     <g id="line2d_68">
      <g>
       <use xlink:href="#m79520dde40" x="106.426875" y="143.712" style="fill-opacity: 0; stroke: #000000; stroke-opacity: 0; stroke-width: 1.5"/>
      </g>
     </g>
     <g id="text_27">
      <!-- 0.008 -->
      <g transform="translate(57.891875 149.43825) scale(0.16 -0.16)">
       <use xlink:href="#ArialMT-30"/>
       <use xlink:href="#ArialMT-2e" transform="translate(55.615234 0)"/>
       <use xlink:href="#ArialMT-30" transform="translate(83.398438 0)"/>
       <use xlink:href="#ArialMT-30" transform="translate(139.013672 0)"/>
       <use xlink:href="#ArialMT-38" transform="translate(194.628906 0)"/>
      </g>
     </g>
    </g>
    <g id="ytick_4">
     <g id="line2d_69">
      <g>
       <use xlink:href="#m79520dde40" x="106.426875" y="93.024" style="fill-opacity: 0; stroke: #000000; stroke-opacity: 0; stroke-width: 1.5"/>
      </g>
     </g>
     <g id="text_28">
      <!-- 0.012 -->
      <g transform="translate(57.891875 98.75025) scale(0.16 -0.16)">
       <use xlink:href="#ArialMT-30"/>
       <use xlink:href="#ArialMT-2e" transform="translate(55.615234 0)"/>
       <use xlink:href="#ArialMT-30" transform="translate(83.398438 0)"/>
       <use xlink:href="#ArialMT-31" transform="translate(139.013672 0)"/>
       <use xlink:href="#ArialMT-32" transform="translate(194.628906 0)"/>
      </g>
     </g>
    </g>
    <g id="ytick_5">
     <g id="line2d_70">
      <g>
       <use xlink:href="#m79520dde40" x="106.426875" y="42.336" style="fill-opacity: 0; stroke: #000000; stroke-opacity: 0; stroke-width: 1.5"/>
      </g>
     </g>
     <g id="text_29">
      <!-- 0.016 -->
      <g transform="translate(57.891875 48.06225) scale(0.16 -0.16)">
       <use xlink:href="#ArialMT-30"/>
       <use xlink:href="#ArialMT-2e" transform="translate(55.615234 0)"/>
       <use xlink:href="#ArialMT-30" transform="translate(83.398438 0)"/>
       <use xlink:href="#ArialMT-31" transform="translate(139.013672 0)"/>
       <use xlink:href="#ArialMT-36" transform="translate(194.628906 0)"/>
      </g>
     </g>
    </g>
    <g id="text_30">
     <!-- CNG (GGE) -->
     <g transform="translate(49.103437 195.377344) rotate(-90) scale(0.18 -0.18)">
      <defs>
       <path id="ArialMT-43" d="M 3763 1606 
L 4369 1453 
Q 4178 706 3683 314 
Q 3188 -78 2472 -78 
Q 1731 -78 1267 223 
Q 803 525 561 1097 
Q 319 1669 319 2325 
Q 319 3041 592 3573 
Q 866 4106 1370 4382 
Q 1875 4659 2481 4659 
Q 3169 4659 3637 4309 
Q 4106 3959 4291 3325 
L 3694 3184 
Q 3534 3684 3231 3912 
Q 2928 4141 2469 4141 
Q 1941 4141 1586 3887 
Q 1231 3634 1087 3207 
Q 944 2781 944 2328 
Q 944 1744 1114 1308 
Q 1284 872 1643 656 
Q 2003 441 2422 441 
Q 2931 441 3284 734 
Q 3638 1028 3763 1606 
z
" transform="scale(0.015625)"/>
       <path id="ArialMT-4e" d="M 488 0 
L 488 4581 
L 1109 4581 
L 3516 984 
L 3516 4581 
L 4097 4581 
L 4097 0 
L 3475 0 
L 1069 3600 
L 1069 0 
L 488 0 
z
" transform="scale(0.015625)"/>
       <path id="ArialMT-47" d="M 2638 1797 
L 2638 2334 
L 4578 2338 
L 4578 638 
Q 4131 281 3656 101 
Q 3181 -78 2681 -78 
Q 2006 -78 1454 211 
Q 903 500 622 1047 
Q 341 1594 341 2269 
Q 341 2938 620 3517 
Q 900 4097 1425 4378 
Q 1950 4659 2634 4659 
Q 3131 4659 3532 4498 
Q 3934 4338 4162 4050 
Q 4391 3763 4509 3300 
L 3963 3150 
Q 3859 3500 3706 3700 
Q 3553 3900 3268 4020 
Q 2984 4141 2638 4141 
Q 2222 4141 1919 4014 
Q 1616 3888 1430 3681 
Q 1244 3475 1141 3228 
Q 966 2803 966 2306 
Q 966 1694 1177 1281 
Q 1388 869 1791 669 
Q 2194 469 2647 469 
Q 3041 469 3416 620 
Q 3791 772 3984 944 
L 3984 1797 
L 2638 1797 
z
" transform="scale(0.015625)"/>
       <path id="ArialMT-20" transform="scale(0.015625)"/>
       <path id="ArialMT-28" d="M 1497 -1347 
Q 1031 -759 709 28 
Q 388 816 388 1659 
Q 388 2403 628 3084 
Q 909 3875 1497 4659 
L 1900 4659 
Q 1522 4009 1400 3731 
Q 1209 3300 1100 2831 
Q 966 2247 966 1656 
Q 966 153 1900 -1347 
L 1497 -1347 
z
" transform="scale(0.015625)"/>
       <path id="ArialMT-45" d="M 506 0 
L 506 4581 
L 3819 4581 
L 3819 4041 
L 1113 4041 
L 1113 2638 
L 3647 2638 
L 3647 2100 
L 1113 2100 
L 1113 541 
L 3925 541 
L 3925 0 
L 506 0 
z
" transform="scale(0.015625)"/>
       <path id="ArialMT-29" d="M 791 -1347 
L 388 -1347 
Q 1322 153 1322 1656 
Q 1322 2244 1188 2822 
Q 1081 3291 891 3722 
Q 769 4003 388 4659 
L 791 4659 
Q 1378 3875 1659 3084 
Q 1900 2403 1900 1659 
Q 1900 816 1576 28 
Q 1253 -759 791 -1347 
z
" transform="scale(0.015625)"/>
      </defs>
      <use xlink:href="#ArialMT-43"/>
      <use xlink:href="#ArialMT-4e" transform="translate(72.216797 0)"/>
      <use xlink:href="#ArialMT-47" transform="translate(144.433594 0)"/>
      <use xlink:href="#ArialMT-20" transform="translate(222.216797 0)"/>
      <use xlink:href="#ArialMT-28" transform="translate(250 0)"/>
      <use xlink:href="#ArialMT-47" transform="translate(283.300781 0)"/>
      <use xlink:href="#ArialMT-47" transform="translate(361.083984 0)"/>
      <use xlink:href="#ArialMT-45" transform="translate(438.867188 0)"/>
      <use xlink:href="#ArialMT-29" transform="translate(505.566406 0)"/>
     </g>
    </g>
   </g>
   <g id="line2d_71">
    <path d="M 120.376875 238.350145 
L 148.276875 241.15808 
L 176.176875 241.779649 
L 204.076875 241.542306 
L 231.976875 238.071236 
L 259.876875 221.05892 
L 287.776875 203.494782 
L 315.676875 179.429719 
L 343.576875 170.252748 
L 371.476875 166.480605 
L 399.376875 163.584507 
L 427.276875 158.807024 
L 455.176875 155.887044 
L 483.076875 154.515487 
L 510.976875 151.039455 
L 538.876875 145.597255 
L 566.776875 144.163825 
L 594.676875 150.610675 
L 622.576875 166.001365 
L 650.476875 181.107793 
L 678.376875 195.749156 
L 706.276875 212.27631 
L 734.176875 228.750399 
L 762.076875 234.709028 
" clip-path="url(#p009a38450b)" style="fill: none; stroke: #1f77b4; stroke-opacity: 0.8; stroke-width: 1.5; stroke-linecap: round"/>
   </g>
   <g id="line2d_72">
    <path d="M 120.376875 238.198572 
L 148.276875 240.687957 
L 176.176875 241.205155 
L 204.076875 241.0329 
L 231.976875 238.104678 
L 259.876875 223.279651 
L 287.776875 205.862437 
L 315.676875 185.126988 
L 343.576875 177.384197 
L 371.476875 173.816433 
L 399.376875 168.015978 
L 427.276875 153.177062 
L 455.176875 143.228278 
L 483.076875 139.026721 
L 510.976875 133.356819 
L 538.876875 128.476713 
L 566.776875 127.821001 
L 594.676875 131.359687 
L 622.576875 168.055802 
L 650.476875 188.859258 
L 678.376875 202.331767 
L 706.276875 216.353039 
L 734.176875 229.656985 
L 762.076875 234.964872 
" clip-path="url(#p009a38450b)" style="fill: none; stroke: #dbdb8d; stroke-opacity: 0.8; stroke-width: 1.5; stroke-linecap: round"/>
   </g>
   <g id="line2d_73">
    <path d="M 120.376875 182.803031 
L 148.276875 199.157926 
L 176.176875 202.312573 
L 204.076875 201.65713 
L 231.976875 189.999326 
L 259.876875 138.679795 
L 287.776875 90.628887 
L 315.676875 81.743967 
L 343.576875 78.790739 
L 371.476875 76.611136 
L 399.376875 74.532813 
L 427.276875 71.508485 
L 455.176875 70.824735 
L 483.076875 69.837931 
L 510.976875 68.693606 
L 538.876875 66.354541 
L 566.776875 66.534659 
L 594.676875 68.740844 
L 622.576875 78.151692 
L 650.476875 86.361714 
L 678.376875 79.615006 
L 706.276875 98.90787 
L 734.176875 131.530708 
L 762.076875 154.440903 
" clip-path="url(#p009a38450b)" style="fill: none; stroke: #ffbb78; stroke-opacity: 0.8; stroke-width: 1.5; stroke-linecap: round"/>
   </g>
   <g id="line2d_74">
    <path d="M 120.376875 176.535251 
L 148.276875 194.708979 
L 176.176875 198.076044 
L 204.076875 196.098933 
L 231.976875 183.585221 
L 259.876875 120.699824 
L 287.776875 85.623451 
L 315.676875 82.206708 
L 343.576875 79.688998 
L 371.476875 77.667286 
L 399.376875 73.898758 
L 427.276875 69.725269 
L 455.176875 68.454671 
L 483.076875 68.440222 
L 510.976875 67.293637 
L 538.876875 65.740637 
L 566.776875 65.311637 
L 594.676875 67.460555 
L 622.576875 77.770813 
L 650.476875 88.393054 
L 678.376875 95.328285 
L 706.276875 83.080587 
L 734.176875 118.464745 
L 762.076875 143.981229 
" clip-path="url(#p009a38450b)" style="fill: none; stroke: #2ca02c; stroke-opacity: 0.8; stroke-width: 1.5; stroke-linecap: round"/>
   </g>
   <g id="line2d_75">
    <path d="M 120.376875 242.604493 
L 148.276875 243.870288 
L 176.176875 244.160811 
L 204.076875 244.064181 
L 231.976875 242.559063 
L 259.876875 219.232054 
L 287.776875 198.055319 
L 315.676875 173.022601 
L 343.576875 162.224443 
L 371.476875 155.440391 
L 399.376875 143.853792 
L 427.276875 120.758192 
L 455.176875 112.31282 
L 483.076875 107.874366 
L 510.976875 102.845505 
L 538.876875 100.818708 
L 566.776875 102.117969 
L 594.676875 104.484254 
L 622.576875 147.19998 
L 650.476875 176.771512 
L 678.376875 195.163207 
L 706.276875 213.153714 
L 734.176875 235.497497 
L 762.076875 240.216858 
" clip-path="url(#p009a38450b)" style="fill: none; stroke: #ff7f0e; stroke-opacity: 0.8; stroke-width: 1.5; stroke-linecap: round"/>
   </g>
   <g id="line2d_76">
    <path d="M 120.376875 196.473989 
L 148.276875 210.889732 
L 176.176875 213.611676 
L 204.076875 212.217895 
L 231.976875 199.754873 
L 259.876875 141.154817 
L 287.776875 89.474698 
L 315.676875 80.385674 
L 343.576875 77.420706 
L 371.476875 75.623186 
L 399.376875 73.803097 
L 427.276875 70.992 
L 455.176875 69.666922 
L 483.076875 69.818534 
L 510.976875 68.400917 
L 538.876875 66.756034 
L 566.776875 66.669818 
L 594.676875 68.792354 
L 622.576875 77.727287 
L 650.476875 85.138675 
L 678.376875 78.976769 
L 706.276875 104.912766 
L 734.176875 143.79394 
L 762.076875 169.358258 
" clip-path="url(#p009a38450b)" style="fill: none; stroke: #98df8a; stroke-opacity: 0.8; stroke-width: 1.5; stroke-linecap: round"/>
   </g>
   <g id="line2d_77">
    <path d="M 120.376875 242.355181 
L 148.276875 243.995911 
L 176.176875 244.310748 
L 204.076875 244.264728 
L 231.976875 242.182144 
L 259.876875 224.547606 
L 287.776875 206.397539 
L 315.676875 182.457717 
L 343.576875 170.995236 
L 371.476875 166.848176 
L 399.376875 161.400141 
L 427.276875 153.227812 
L 455.176875 148.559327 
L 483.076875 147.103178 
L 510.976875 138.09821 
L 538.876875 121.962523 
L 566.776875 123.201218 
L 594.676875 140.169865 
L 622.576875 165.067253 
L 650.476875 186.850348 
L 678.376875 202.928362 
L 706.276875 218.713607 
L 734.176875 235.66463 
L 762.076875 239.954135 
" clip-path="url(#p009a38450b)" style="fill: none; stroke: #17becf; stroke-opacity: 0.8; stroke-width: 1.5; stroke-linecap: round"/>
   </g>
   <g id="line2d_78">
    <path d="M 120.376875 198.836545 
L 148.276875 213.748891 
L 176.176875 216.269943 
L 204.076875 212.539043 
L 231.976875 195.369922 
L 259.876875 119.555424 
L 287.776875 68.66264 
L 315.676875 62.211123 
L 343.576875 60.409922 
L 371.476875 59.428681 
L 399.376875 58.213592 
L 427.276875 54.042571 
L 455.176875 52.570175 
L 483.076875 51.606789 
L 510.976875 50.344513 
L 538.876875 50.023226 
L 566.776875 51.181305 
L 594.676875 53.853143 
L 622.576875 61.906539 
L 650.476875 70.659159 
L 678.376875 68.062541 
L 706.276875 89.462153 
L 734.176875 137.64365 
L 762.076875 166.862231 
" clip-path="url(#p009a38450b)" style="fill: none; stroke: #d62728; stroke-opacity: 0.8; stroke-width: 1.5; stroke-linecap: round"/>
   </g>
   <g id="line2d_79">
    <path d="M 120.376875 224.341422 
L 148.276875 232.051336 
L 176.176875 233.367169 
L 204.076875 232.029319 
L 231.976875 224.332413 
L 259.876875 183.457667 
L 287.776875 144.925019 
L 315.676875 135.450212 
L 343.576875 132.050432 
L 371.476875 129.837621 
L 399.376875 126.856741 
L 427.276875 122.908982 
L 455.176875 121.070004 
L 483.076875 120.103046 
L 510.976875 117.213761 
L 538.876875 113.023698 
L 566.776875 111.487417 
L 594.676875 116.411154 
L 622.576875 129.364832 
L 650.476875 141.898046 
L 678.376875 138.816225 
L 706.276875 163.018825 
L 734.176875 195.667371 
L 762.076875 210.919507 
" clip-path="url(#p009a38450b)" style="fill: none; stroke: #9edae5; stroke-opacity: 0.8; stroke-width: 1.5; stroke-linecap: round"/>
   </g>
   <g id="line2d_80">
    <path d="M 120.376875 210.137303 
L 148.276875 221.211569 
L 176.176875 222.796144 
L 204.076875 218.756825 
L 231.976875 200.888168 
L 259.876875 144.383576 
L 287.776875 94.663104 
L 315.676875 68.826174 
L 343.576875 97.834612 
L 371.476875 101.187202 
L 399.376875 98.754076 
L 427.276875 94.642269 
L 455.176875 92.253555 
L 483.076875 90.279627 
L 510.976875 88.246161 
L 538.876875 86.303742 
L 566.776875 87.225784 
L 594.676875 90.694808 
L 622.576875 101.793917 
L 650.476875 70.671784 
L 678.376875 95.339357 
L 706.276875 127.925985 
L 734.176875 163.291148 
L 762.076875 187.143131 
" clip-path="url(#p009a38450b)" style="fill: none; stroke: #9edae5; stroke-opacity: 0.8; stroke-width: 1.5; stroke-linecap: round"/>
   </g>
   <g id="line2d_81">
    <path d="M 120.376875 243.371881 
L 148.276875 244.519222 
L 176.176875 244.594417 
L 204.076875 244.735977 
L 231.976875 242.910799 
L 259.876875 226.279184 
L 287.776875 209.463564 
L 315.676875 187.977615 
L 343.576875 181.260273 
L 371.476875 175.213004 
L 399.376875 167.770712 
L 427.276875 163.216791 
L 455.176875 160.264605 
L 483.076875 157.788272 
L 510.976875 149.769001 
L 538.876875 131.982465 
L 566.776875 131.675037 
L 594.676875 149.309083 
L 622.576875 168.634644 
L 650.476875 190.012444 
L 678.376875 205.627411 
L 706.276875 220.148333 
L 734.176875 237.447722 
L 762.076875 241.405021 
" clip-path="url(#p009a38450b)" style="fill: none; stroke: #f7b6d2; stroke-opacity: 0.8; stroke-width: 1.5; stroke-linecap: round"/>
   </g>
   <g id="line2d_82">
    <path d="M 120.376875 235.854225 
L 148.276875 239.329861 
L 176.176875 239.920595 
L 204.076875 239.747591 
L 231.976875 235.816397 
L 259.876875 207.725178 
L 287.776875 175.357889 
L 315.676875 141.04771 
L 343.576875 134.252225 
L 371.476875 129.146563 
L 399.376875 129.700936 
L 427.276875 126.782399 
L 455.176875 125.847507 
L 483.076875 123.966575 
L 510.976875 121.570331 
L 538.876875 118.254058 
L 566.776875 119.114322 
L 594.676875 122.862812 
L 622.576875 133.830153 
L 650.476875 148.262115 
L 678.376875 170.262696 
L 706.276875 195.331556 
L 734.176875 220.806379 
L 762.076875 230.552125 
" clip-path="url(#p009a38450b)" style="fill: none; stroke: #7f7f7f; stroke-opacity: 0.8; stroke-width: 1.5; stroke-linecap: round"/>
   </g>
   <g id="line2d_83">
    <path d="M 120.376875 240.863776 
L 148.276875 243.059295 
L 176.176875 243.481163 
L 204.076875 243.510897 
L 231.976875 240.22273 
L 259.876875 218.786411 
L 287.776875 196.800223 
L 315.676875 165.308912 
L 343.576875 157.655899 
L 371.476875 152.072909 
L 399.376875 148.716759 
L 427.276875 144.649733 
L 455.176875 143.096536 
L 483.076875 141.853481 
L 510.976875 140.026779 
L 538.876875 135.874902 
L 566.776875 135.851864 
L 594.676875 140.85914 
L 622.576875 152.228582 
L 650.476875 169.537119 
L 678.376875 189.548554 
L 706.276875 211.281217 
L 734.176875 231.668271 
L 762.076875 237.668292 
" clip-path="url(#p009a38450b)" style="fill: none; stroke: #1f77b4; stroke-opacity: 0.8; stroke-width: 1.5; stroke-linecap: round"/>
   </g>
   <g id="line2d_84">
    <path d="M 120.376875 240.953891 
L 148.276875 243.533881 
L 176.176875 244.054515 
L 204.076875 243.854582 
L 231.976875 239.968583 
L 259.876875 214.925615 
L 287.776875 188.575143 
L 315.676875 157.20119 
L 343.576875 149.504687 
L 371.476875 143.458068 
L 399.376875 141.907992 
L 427.276875 139.067708 
L 455.176875 138.446572 
L 483.076875 137.510936 
L 510.976875 133.218171 
L 538.876875 128.444589 
L 566.776875 128.485322 
L 594.676875 133.070359 
L 622.576875 143.717101 
L 650.476875 162.349097 
L 678.376875 185.451884 
L 706.276875 208.8174 
L 734.176875 230.811074 
L 762.076875 237.327245 
" clip-path="url(#p009a38450b)" style="fill: none; stroke: #bcbd22; stroke-opacity: 0.8; stroke-width: 1.5; stroke-linecap: round"/>
   </g>
   <g id="line2d_85">
    <path d="M 120.376875 242.988961 
L 148.276875 244.186005 
L 176.176875 244.414838 
L 204.076875 244.367811 
L 231.976875 242.563053 
L 259.876875 226.17591 
L 287.776875 211.907318 
L 315.676875 189.438964 
L 343.576875 185.712439 
L 371.476875 179.261298 
L 399.376875 173.149392 
L 427.276875 170.688096 
L 455.176875 170.795592 
L 483.076875 169.007226 
L 510.976875 165.653566 
L 538.876875 161.698119 
L 566.776875 161.637791 
L 594.676875 165.208435 
L 622.576875 175.532898 
L 650.476875 191.151136 
L 678.376875 207.202725 
L 706.276875 223.122123 
L 734.176875 236.879706 
L 762.076875 241.148086 
" clip-path="url(#p009a38450b)" style="fill: none; stroke: #8c564b; stroke-opacity: 0.8; stroke-width: 1.5; stroke-linecap: round"/>
   </g>
   <g id="line2d_86">
    <path d="M 120.376875 242.022786 
L 148.276875 243.547909 
L 176.176875 243.856035 
L 204.076875 243.641002 
L 231.976875 240.789243 
L 259.876875 220.774043 
L 287.776875 196.4371 
L 315.676875 170.42859 
L 343.576875 163.804917 
L 371.476875 159.188626 
L 399.376875 154.424944 
L 427.276875 151.743644 
L 455.176875 150.651454 
L 483.076875 149.584202 
L 510.976875 146.572525 
L 538.876875 143.015217 
L 566.776875 143.59916 
L 594.676875 147.796702 
L 622.576875 156.285749 
L 650.476875 180.70488 
L 678.376875 199.315724 
L 706.276875 217.8206 
L 734.176875 235.088499 
L 762.076875 239.518084 
" clip-path="url(#p009a38450b)" style="fill: none; stroke: #c7c7c7; stroke-opacity: 0.8; stroke-width: 1.5; stroke-linecap: round"/>
   </g>
   <g id="line2d_87">
    <path d="M 120.376875 235.811509 
L 148.276875 239.292731 
L 176.176875 240.013025 
L 204.076875 239.690479 
L 231.976875 235.103201 
L 259.876875 209.492865 
L 287.776875 181.376568 
L 315.676875 149.706864 
L 343.576875 142.269928 
L 371.476875 137.751364 
L 399.376875 139.790681 
L 427.276875 137.263576 
L 455.176875 135.787787 
L 483.076875 133.830058 
L 510.976875 129.754989 
L 538.876875 125.624544 
L 566.776875 126.134668 
L 594.676875 129.812438 
L 622.576875 141.050383 
L 650.476875 153.955424 
L 678.376875 176.381433 
L 706.276875 199.607771 
L 734.176875 222.892496 
L 762.076875 230.875448 
" clip-path="url(#p009a38450b)" style="fill: none; stroke: #9467bd; stroke-opacity: 0.8; stroke-width: 1.5; stroke-linecap: round"/>
   </g>
   <g id="line2d_88">
    <path d="M 120.376875 242.654693 
L 148.276875 244.143677 
L 176.176875 244.505012 
L 204.076875 244.433933 
L 231.976875 241.996904 
L 259.876875 222.167003 
L 287.776875 203.20896 
L 315.676875 178.578539 
L 343.576875 172.510721 
L 371.476875 165.616584 
L 399.376875 162.960825 
L 427.276875 159.336407 
L 455.176875 159.108661 
L 483.076875 158.178644 
L 510.976875 154.989121 
L 538.876875 150.269624 
L 566.776875 149.515536 
L 594.676875 155.895464 
L 622.576875 165.731499 
L 650.476875 181.162451 
L 678.376875 199.875015 
L 706.276875 218.057495 
L 734.176875 237.04354 
L 762.076875 240.74006 
" clip-path="url(#p009a38450b)" style="fill: none; stroke: #e377c2; stroke-opacity: 0.8; stroke-width: 1.5; stroke-linecap: round"/>
   </g>
   <g id="line2d_89">
    <path d="M 120.376875 243.270274 
L 148.276875 244.526208 
L 176.176875 244.839876 
L 204.076875 244.776811 
L 231.976875 242.608585 
L 259.876875 224.974447 
L 287.776875 206.659249 
L 315.676875 180.400025 
L 343.576875 174.007897 
L 371.476875 166.806455 
L 399.376875 157.881354 
L 427.276875 154.804175 
L 455.176875 153.92476 
L 483.076875 153.463434 
L 510.976875 149.198706 
L 538.876875 144.029512 
L 566.776875 143.173368 
L 594.676875 148.798514 
L 622.576875 157.700292 
L 650.476875 184.301749 
L 678.376875 204.124657 
L 706.276875 221.558885 
L 734.176875 237.445739 
L 762.076875 241.276864 
" clip-path="url(#p009a38450b)" style="fill: none; stroke: #c49c94; stroke-opacity: 0.8; stroke-width: 1.5; stroke-linecap: round"/>
   </g>
   <g id="line2d_90">
    <path d="M 120.376875 241.590831 
L 148.276875 243.700387 
L 176.176875 244.25119 
L 204.076875 244.169373 
L 231.976875 240.650703 
L 259.876875 220.232878 
L 287.776875 198.826843 
L 315.676875 170.34141 
L 343.576875 162.737337 
L 371.476875 155.706522 
L 399.376875 145.323903 
L 427.276875 143.573205 
L 455.176875 141.460204 
L 483.076875 140.372422 
L 510.976875 138.004564 
L 538.876875 134.966598 
L 566.776875 135.068511 
L 594.676875 140.200699 
L 622.576875 144.490406 
L 650.476875 173.907287 
L 678.376875 194.688941 
L 706.276875 216.236796 
L 734.176875 232.319402 
L 762.076875 238.498259 
" clip-path="url(#p009a38450b)" style="fill: none; stroke: #c5b0d5; stroke-opacity: 0.8; stroke-width: 1.5; stroke-linecap: round"/>
   </g>
   <g id="line2d_91">
    <path d="M 120.376875 241.540286 
L 148.276875 244.159688 
L 176.176875 244.681055 
L 204.076875 244.493822 
L 231.976875 240.241287 
L 259.876875 212.581984 
L 287.776875 190.507299 
L 315.676875 159.394059 
L 343.576875 153.253347 
L 371.476875 145.630546 
L 399.376875 137.334236 
L 427.276875 134.198613 
L 455.176875 133.000381 
L 483.076875 132.54667 
L 510.976875 129.218988 
L 538.876875 125.264821 
L 566.776875 125.175441 
L 594.676875 129.488034 
L 622.576875 135.195609 
L 650.476875 164.019476 
L 678.376875 185.122869 
L 706.276875 208.150734 
L 734.176875 232.633927 
L 762.076875 238.418584 
" clip-path="url(#p009a38450b)" style="fill: none; stroke: #ff9896; stroke-opacity: 0.8; stroke-width: 1.5; stroke-linecap: round"/>
   </g>
   <g id="line2d_92">
    <path d="M 120.376875 234.443182 
L 148.276875 238.894836 
L 176.176875 239.979797 
L 204.076875 239.405476 
L 231.976875 233.277855 
L 259.876875 209.426326 
L 287.776875 184.262513 
L 315.676875 152.178273 
L 343.576875 144.486912 
L 371.476875 138.746519 
L 399.376875 134.969547 
L 427.276875 133.095018 
L 455.176875 132.840877 
L 483.076875 131.718408 
L 510.976875 128.379315 
L 538.876875 124.652871 
L 566.776875 124.157623 
L 594.676875 128.477385 
L 622.576875 136.531303 
L 650.476875 151.225514 
L 678.376875 175.422393 
L 706.276875 198.45155 
L 734.176875 219.667282 
L 762.076875 228.709019 
" clip-path="url(#p009a38450b)" style="fill: none; stroke: #aec7e8; stroke-opacity: 0.8; stroke-width: 1.5; stroke-linecap: round"/>
   </g>
   <g id="line2d_93">
    <path d="M 120.376875 241.000181 
L 148.276875 243.701572 
L 176.176875 244.365299 
L 204.076875 244.374192 
L 231.976875 240.322376 
L 259.876875 212.858832 
L 287.776875 190.833498 
L 315.676875 161.251839 
L 343.576875 151.042891 
L 371.476875 143.150869 
L 399.376875 134.275252 
L 427.276875 129.330881 
L 455.176875 127.262805 
L 483.076875 126.647992 
L 510.976875 124.481517 
L 538.876875 120.898498 
L 566.776875 120.469582 
L 594.676875 124.900545 
L 622.576875 133.385345 
L 650.476875 160.931611 
L 678.376875 182.47827 
L 706.276875 204.530296 
L 734.176875 233.040115 
L 762.076875 238.239799 
" clip-path="url(#p009a38450b)" style="fill: none; stroke: #8c564b; stroke-opacity: 0.8; stroke-width: 1.5; stroke-linecap: round"/>
   </g>
   <g id="patch_3">
    <path d="M 106.426875 257.76 
L 106.426875 36 
" style="fill: none; stroke: #000000; stroke-linejoin: miter; stroke-linecap: square"/>
   </g>
   <g id="patch_4">
    <path d="M 776.026875 257.76 
L 776.026875 36 
" style="fill: none; stroke: #000000; stroke-linejoin: miter; stroke-linecap: square"/>
   </g>
   <g id="patch_5">
    <path d="M 106.426875 257.76 
L 776.026875 257.76 
" style="fill: none; stroke: #000000; stroke-linejoin: miter; stroke-linecap: square"/>
   </g>
   <g id="patch_6">
    <path d="M 106.426875 36 
L 776.026875 36 
" style="fill: none; stroke: #000000; stroke-linejoin: miter; stroke-linecap: square"/>
   </g>
  </g>
 </g>
 <defs>
  <clipPath id="p009a38450b">
   <rect x="106.426875" y="36" width="669.6" height="221.76"/>
  </clipPath>
 </defs>
</svg>
