<?xml version="1.0" encoding="utf-8" standalone="no"?>
<!DOCTYPE svg PUBLIC "-//W3C//DTD SVG 1.1//EN"
  "http://www.w3.org/Graphics/SVG/1.1/DTD/svg11.dtd">
<svg xmlns:xlink="http://www.w3.org/1999/xlink" width="803.129375pt" height="338.0125pt" viewBox="0 0 803.129375 338.0125" xmlns="http://www.w3.org/2000/svg" version="1.1">
 <metadata>
  <rdf:RDF xmlns:dc="http://purl.org/dc/elements/1.1/" xmlns:cc="http://creativecommons.org/ns#" xmlns:rdf="http://www.w3.org/1999/02/22-rdf-syntax-ns#">
   <cc:Work>
    <dc:type rdf:resource="http://purl.org/dc/dcmitype/StillImage"/>
    <dc:date>2025-10-27T21:47:31.171584</dc:date>
    <dc:format>image/svg+xml</dc:format>
    <dc:creator>
     <cc:Agent>
      <dc:title>Matplotlib v3.10.7, https://matplotlib.org/</dc:title>
     </cc:Agent>
    </dc:creator>
   </cc:Work>
  </rdf:RDF>
 </metadata>
 <defs>
  <style type="text/css">*{stroke-linejoin: round; stroke-linecap: butt}</style>
 </defs>
 <g id="figure_1">
  <g id="patch_1">
   <path d="M 0 338.0125 
L 803.129375 338.0125 
L 803.129375 0 
L 0 0 
L 0 338.0125 
z
" style="fill: none"/>
  </g>
  <g id="axes_1">
   <g id="patch_2">
    <path d="M 97.529375 263.48625 
L 767.129375 263.48625 
L 767.129375 41.72625 
L 97.529375 41.72625 
L 97.529375 263.48625 
z
" style="fill: none"/>
   </g>
   <g id="line2d_1">
    <path d="M 117.820284 263.48625 
L 117.820284 41.72625 
" clip-path="url(#pff1021dcfa)" style="fill: none; stroke-dasharray: 0.74,0.32; stroke-dashoffset: 0; stroke: #a9a9a9; stroke-opacity: 0.5; stroke-width: 0.2"/>
   </g>
   <g id="line2d_2">
    <path d="M 138.111193 263.48625 
L 138.111193 41.72625 
" clip-path="url(#pff1021dcfa)" style="fill: none; stroke-dasharray: 0.74,0.32; stroke-dashoffset: 0; stroke: #a9a9a9; stroke-opacity: 0.5; stroke-width: 0.2"/>
   </g>
   <g id="line2d_3">
    <path d="M 158.402102 263.48625 
L 158.402102 41.72625 
" clip-path="url(#pff1021dcfa)" style="fill: none; stroke-dasharray: 0.74,0.32; stroke-dashoffset: 0; stroke: #a9a9a9; stroke-opacity: 0.5; stroke-width: 0.2"/>
   </g>
   <g id="line2d_4">
    <path d="M 178.693011 263.48625 
L 178.693011 41.72625 
" clip-path="url(#pff1021dcfa)" style="fill: none; stroke-dasharray: 0.74,0.32; stroke-dashoffset: 0; stroke: #a9a9a9; stroke-opacity: 0.5; stroke-width: 0.2"/>
   </g>
   <g id="line2d_5">
    <path d="M 198.98392 263.48625 
L 198.98392 41.72625 
" clip-path="url(#pff1021dcfa)" style="fill: none; stroke-dasharray: 0.74,0.32; stroke-dashoffset: 0; stroke: #a9a9a9; stroke-opacity: 0.5; stroke-width: 0.2"/>
   </g>
   <g id="line2d_6">
    <path d="M 219.27483 263.48625 
L 219.27483 41.72625 
" clip-path="url(#pff1021dcfa)" style="fill: none; stroke-dasharray: 0.74,0.32; stroke-dashoffset: 0; stroke: #a9a9a9; stroke-opacity: 0.5; stroke-width: 0.2"/>
   </g>
   <g id="line2d_7">
    <path d="M 239.565739 263.48625 
L 239.565739 41.72625 
" clip-path="url(#pff1021dcfa)" style="fill: none; stroke-dasharray: 0.74,0.32; stroke-dashoffset: 0; stroke: #a9a9a9; stroke-opacity: 0.5; stroke-width: 0.2"/>
   </g>
   <g id="line2d_8">
    <path d="M 259.856648 263.48625 
L 259.856648 41.72625 
" clip-path="url(#pff1021dcfa)" style="fill: none; stroke-dasharray: 0.74,0.32; stroke-dashoffset: 0; stroke: #a9a9a9; stroke-opacity: 0.5; stroke-width: 0.2"/>
   </g>
   <g id="line2d_9">
    <path d="M 280.147557 263.48625 
L 280.147557 41.72625 
" clip-path="url(#pff1021dcfa)" style="fill: none; stroke-dasharray: 0.74,0.32; stroke-dashoffset: 0; stroke: #a9a9a9; stroke-opacity: 0.5; stroke-width: 0.2"/>
   </g>
   <g id="line2d_10">
    <path d="M 300.438466 263.48625 
L 300.438466 41.72625 
" clip-path="url(#pff1021dcfa)" style="fill: none; stroke-dasharray: 0.74,0.32; stroke-dashoffset: 0; stroke: #a9a9a9; stroke-opacity: 0.5; stroke-width: 0.2"/>
   </g>
   <g id="line2d_11">
    <path d="M 320.729375 263.48625 
L 320.729375 41.72625 
" clip-path="url(#pff1021dcfa)" style="fill: none; stroke-dasharray: 0.74,0.32; stroke-dashoffset: 0; stroke: #a9a9a9; stroke-opacity: 0.5; stroke-width: 0.2"/>
   </g>
   <g id="line2d_12">
    <path d="M 341.020284 263.48625 
L 341.020284 41.72625 
" clip-path="url(#pff1021dcfa)" style="fill: none; stroke-dasharray: 0.74,0.32; stroke-dashoffset: 0; stroke: #a9a9a9; stroke-opacity: 0.5; stroke-width: 0.2"/>
   </g>
   <g id="line2d_13">
    <path d="M 361.311193 263.48625 
L 361.311193 41.72625 
" clip-path="url(#pff1021dcfa)" style="fill: none; stroke-dasharray: 0.74,0.32; stroke-dashoffset: 0; stroke: #a9a9a9; stroke-opacity: 0.5; stroke-width: 0.2"/>
   </g>
   <g id="line2d_14">
    <path d="M 381.602102 263.48625 
L 381.602102 41.72625 
" clip-path="url(#pff1021dcfa)" style="fill: none; stroke-dasharray: 0.74,0.32; stroke-dashoffset: 0; stroke: #a9a9a9; stroke-opacity: 0.5; stroke-width: 0.2"/>
   </g>
   <g id="line2d_15">
    <path d="M 401.893011 263.48625 
L 401.893011 41.72625 
" clip-path="url(#pff1021dcfa)" style="fill: none; stroke-dasharray: 0.74,0.32; stroke-dashoffset: 0; stroke: #a9a9a9; stroke-opacity: 0.5; stroke-width: 0.2"/>
   </g>
   <g id="line2d_16">
    <path d="M 422.18392 263.48625 
L 422.18392 41.72625 
" clip-path="url(#pff1021dcfa)" style="fill: none; stroke-dasharray: 0.74,0.32; stroke-dashoffset: 0; stroke: #a9a9a9; stroke-opacity: 0.5; stroke-width: 0.2"/>
   </g>
   <g id="line2d_17">
    <path d="M 442.47483 263.48625 
L 442.47483 41.72625 
" clip-path="url(#pff1021dcfa)" style="fill: none; stroke-dasharray: 0.74,0.32; stroke-dashoffset: 0; stroke: #a9a9a9; stroke-opacity: 0.5; stroke-width: 0.2"/>
   </g>
   <g id="line2d_18">
    <path d="M 462.765739 263.48625 
L 462.765739 41.72625 
" clip-path="url(#pff1021dcfa)" style="fill: none; stroke-dasharray: 0.74,0.32; stroke-dashoffset: 0; stroke: #a9a9a9; stroke-opacity: 0.5; stroke-width: 0.2"/>
   </g>
   <g id="line2d_19">
    <path d="M 483.056648 263.48625 
L 483.056648 41.72625 
" clip-path="url(#pff1021dcfa)" style="fill: none; stroke-dasharray: 0.74,0.32; stroke-dashoffset: 0; stroke: #a9a9a9; stroke-opacity: 0.5; stroke-width: 0.2"/>
   </g>
   <g id="line2d_20">
    <path d="M 503.347557 263.48625 
L 503.347557 41.72625 
" clip-path="url(#pff1021dcfa)" style="fill: none; stroke-dasharray: 0.74,0.32; stroke-dashoffset: 0; stroke: #a9a9a9; stroke-opacity: 0.5; stroke-width: 0.2"/>
   </g>
   <g id="line2d_21">
    <path d="M 523.638466 263.48625 
L 523.638466 41.72625 
" clip-path="url(#pff1021dcfa)" style="fill: none; stroke-dasharray: 0.74,0.32; stroke-dashoffset: 0; stroke: #a9a9a9; stroke-opacity: 0.5; stroke-width: 0.2"/>
   </g>
   <g id="line2d_22">
    <path d="M 543.929375 263.48625 
L 543.929375 41.72625 
" clip-path="url(#pff1021dcfa)" style="fill: none; stroke-dasharray: 0.74,0.32; stroke-dashoffset: 0; stroke: #a9a9a9; stroke-opacity: 0.5; stroke-width: 0.2"/>
   </g>
   <g id="line2d_23">
    <path d="M 564.220284 263.48625 
L 564.220284 41.72625 
" clip-path="url(#pff1021dcfa)" style="fill: none; stroke-dasharray: 0.74,0.32; stroke-dashoffset: 0; stroke: #a9a9a9; stroke-opacity: 0.5; stroke-width: 0.2"/>
   </g>
   <g id="line2d_24">
    <path d="M 584.511193 263.48625 
L 584.511193 41.72625 
" clip-path="url(#pff1021dcfa)" style="fill: none; stroke-dasharray: 0.74,0.32; stroke-dashoffset: 0; stroke: #a9a9a9; stroke-opacity: 0.5; stroke-width: 0.2"/>
   </g>
   <g id="line2d_25">
    <path d="M 604.802102 263.48625 
L 604.802102 41.72625 
" clip-path="url(#pff1021dcfa)" style="fill: none; stroke-dasharray: 0.74,0.32; stroke-dashoffset: 0; stroke: #a9a9a9; stroke-opacity: 0.5; stroke-width: 0.2"/>
   </g>
   <g id="line2d_26">
    <path d="M 625.093011 263.48625 
L 625.093011 41.72625 
" clip-path="url(#pff1021dcfa)" style="fill: none; stroke-dasharray: 0.74,0.32; stroke-dashoffset: 0; stroke: #a9a9a9; stroke-opacity: 0.5; stroke-width: 0.2"/>
   </g>
   <g id="line2d_27">
    <path d="M 645.38392 263.48625 
L 645.38392 41.72625 
" clip-path="url(#pff1021dcfa)" style="fill: none; stroke-dasharray: 0.74,0.32; stroke-dashoffset: 0; stroke: #a9a9a9; stroke-opacity: 0.5; stroke-width: 0.2"/>
   </g>
   <g id="line2d_28">
    <path d="M 665.67483 263.48625 
L 665.67483 41.72625 
" clip-path="url(#pff1021dcfa)" style="fill: none; stroke-dasharray: 0.74,0.32; stroke-dashoffset: 0; stroke: #a9a9a9; stroke-opacity: 0.5; stroke-width: 0.2"/>
   </g>
   <g id="line2d_29">
    <path d="M 685.965739 263.48625 
L 685.965739 41.72625 
" clip-path="url(#pff1021dcfa)" style="fill: none; stroke-dasharray: 0.74,0.32; stroke-dashoffset: 0; stroke: #a9a9a9; stroke-opacity: 0.5; stroke-width: 0.2"/>
   </g>
   <g id="line2d_30">
    <path d="M 706.256648 263.48625 
L 706.256648 41.72625 
" clip-path="url(#pff1021dcfa)" style="fill: none; stroke-dasharray: 0.74,0.32; stroke-dashoffset: 0; stroke: #a9a9a9; stroke-opacity: 0.5; stroke-width: 0.2"/>
   </g>
   <g id="line2d_31">
    <path d="M 726.547557 263.48625 
L 726.547557 41.72625 
" clip-path="url(#pff1021dcfa)" style="fill: none; stroke-dasharray: 0.74,0.32; stroke-dashoffset: 0; stroke: #a9a9a9; stroke-opacity: 0.5; stroke-width: 0.2"/>
   </g>
   <g id="line2d_32">
    <path d="M 746.838466 263.48625 
L 746.838466 41.72625 
" clip-path="url(#pff1021dcfa)" style="fill: none; stroke-dasharray: 0.74,0.32; stroke-dashoffset: 0; stroke: #a9a9a9; stroke-opacity: 0.5; stroke-width: 0.2"/>
   </g>
   <g id="line2d_33">
    <path d="M 97.529375 241.31025 
L 767.129375 241.31025 
" clip-path="url(#pff1021dcfa)" style="fill: none; stroke-dasharray: 0.74,0.32; stroke-dashoffset: 0; stroke: #a9a9a9; stroke-opacity: 0.5; stroke-width: 0.2"/>
   </g>
   <g id="line2d_34">
    <path d="M 97.529375 219.13425 
L 767.129375 219.13425 
" clip-path="url(#pff1021dcfa)" style="fill: none; stroke-dasharray: 0.74,0.32; stroke-dashoffset: 0; stroke: #a9a9a9; stroke-opacity: 0.5; stroke-width: 0.2"/>
   </g>
   <g id="line2d_35">
    <path d="M 97.529375 196.95825 
L 767.129375 196.95825 
" clip-path="url(#pff1021dcfa)" style="fill: none; stroke-dasharray: 0.74,0.32; stroke-dashoffset: 0; stroke: #a9a9a9; stroke-opacity: 0.5; stroke-width: 0.2"/>
   </g>
   <g id="line2d_36">
    <path d="M 97.529375 174.78225 
L 767.129375 174.78225 
" clip-path="url(#pff1021dcfa)" style="fill: none; stroke-dasharray: 0.74,0.32; stroke-dashoffset: 0; stroke: #a9a9a9; stroke-opacity: 0.5; stroke-width: 0.2"/>
   </g>
   <g id="line2d_37">
    <path d="M 97.529375 152.60625 
L 767.129375 152.60625 
" clip-path="url(#pff1021dcfa)" style="fill: none; stroke-dasharray: 0.74,0.32; stroke-dashoffset: 0; stroke: #a9a9a9; stroke-opacity: 0.5; stroke-width: 0.2"/>
   </g>
   <g id="line2d_38">
    <path d="M 97.529375 130.43025 
L 767.129375 130.43025 
" clip-path="url(#pff1021dcfa)" style="fill: none; stroke-dasharray: 0.74,0.32; stroke-dashoffset: 0; stroke: #a9a9a9; stroke-opacity: 0.5; stroke-width: 0.2"/>
   </g>
   <g id="line2d_39">
    <path d="M 97.529375 108.25425 
L 767.129375 108.25425 
" clip-path="url(#pff1021dcfa)" style="fill: none; stroke-dasharray: 0.74,0.32; stroke-dashoffset: 0; stroke: #a9a9a9; stroke-opacity: 0.5; stroke-width: 0.2"/>
   </g>
   <g id="line2d_40">
    <path d="M 97.529375 86.07825 
L 767.129375 86.07825 
" clip-path="url(#pff1021dcfa)" style="fill: none; stroke-dasharray: 0.74,0.32; stroke-dashoffset: 0; stroke: #a9a9a9; stroke-opacity: 0.5; stroke-width: 0.2"/>
   </g>
   <g id="line2d_41">
    <path d="M 97.529375 63.90225 
L 767.129375 63.90225 
" clip-path="url(#pff1021dcfa)" style="fill: none; stroke-dasharray: 0.74,0.32; stroke-dashoffset: 0; stroke: #a9a9a9; stroke-opacity: 0.5; stroke-width: 0.2"/>
   </g>
   <g id="matplotlib.axis_1">
    <g id="xtick_1">
     <g id="line2d_42">
      <defs>
       <path id="m49452db509" d="M 0 0 
L 0 5 
" style="stroke: #000000"/>
      </defs>
      <g>
       <use xlink:href="#m49452db509" x="111.479375" y="263.48625" style="stroke: #000000"/>
      </g>
     </g>
     <g id="text_1">
      <!-- 1:00 -->
      <g transform="translate(114.581563 295.339375) rotate(-90) scale(0.12 -0.12)">
       <defs>
        <path id="ArialMT-31" d="M 2384 0 
L 1822 0 
L 1822 3584 
Q 1619 3391 1289 3197 
Q 959 3003 697 2906 
L 697 3450 
Q 1169 3672 1522 3987 
Q 1875 4303 2022 4600 
L 2384 4600 
L 2384 0 
z
" transform="scale(0.015625)"/>
        <path id="ArialMT-3a" d="M 578 2678 
L 578 3319 
L 1219 3319 
L 1219 2678 
L 578 2678 
z
M 578 0 
L 578 641 
L 1219 641 
L 1219 0 
L 578 0 
z
" transform="scale(0.015625)"/>
        <path id="ArialMT-30" d="M 266 2259 
Q 266 3072 433 3567 
Q 600 4063 929 4331 
Q 1259 4600 1759 4600 
Q 2128 4600 2406 4451 
Q 2684 4303 2865 4023 
Q 3047 3744 3150 3342 
Q 3253 2941 3253 2259 
Q 3253 1453 3087 958 
Q 2922 463 2592 192 
Q 2263 -78 1759 -78 
Q 1097 -78 719 397 
Q 266 969 266 2259 
z
M 844 2259 
Q 844 1131 1108 757 
Q 1372 384 1759 384 
Q 2147 384 2411 759 
Q 2675 1134 2675 2259 
Q 2675 3391 2411 3762 
Q 2147 4134 1753 4134 
Q 1366 4134 1134 3806 
Q 844 3388 844 2259 
z
" transform="scale(0.015625)"/>
       </defs>
       <use xlink:href="#ArialMT-31"/>
       <use xlink:href="#ArialMT-3a" transform="translate(55.615234 0)"/>
       <use xlink:href="#ArialMT-30" transform="translate(83.398438 0)"/>
       <use xlink:href="#ArialMT-30" transform="translate(139.013672 0)"/>
      </g>
     </g>
    </g>
    <g id="xtick_2">
     <g id="line2d_43">
      <g>
       <use xlink:href="#m49452db509" x="139.379375" y="263.48625" style="stroke: #000000"/>
      </g>
     </g>
     <g id="text_2">
      <!-- 2:00 -->
      <g transform="translate(142.481562 295.339375) rotate(-90) scale(0.12 -0.12)">
       <defs>
        <path id="ArialMT-32" d="M 3222 541 
L 3222 0 
L 194 0 
Q 188 203 259 391 
Q 375 700 629 1000 
Q 884 1300 1366 1694 
Q 2113 2306 2375 2664 
Q 2638 3022 2638 3341 
Q 2638 3675 2398 3904 
Q 2159 4134 1775 4134 
Q 1369 4134 1125 3890 
Q 881 3647 878 3216 
L 300 3275 
Q 359 3922 746 4261 
Q 1134 4600 1788 4600 
Q 2447 4600 2831 4234 
Q 3216 3869 3216 3328 
Q 3216 3053 3103 2787 
Q 2991 2522 2730 2228 
Q 2469 1934 1863 1422 
Q 1356 997 1212 845 
Q 1069 694 975 541 
L 3222 541 
z
" transform="scale(0.015625)"/>
       </defs>
       <use xlink:href="#ArialMT-32"/>
       <use xlink:href="#ArialMT-3a" transform="translate(55.615234 0)"/>
       <use xlink:href="#ArialMT-30" transform="translate(83.398438 0)"/>
       <use xlink:href="#ArialMT-30" transform="translate(139.013672 0)"/>
      </g>
     </g>
    </g>
    <g id="xtick_3">
     <g id="line2d_44">
      <g>
       <use xlink:href="#m49452db509" x="167.279375" y="263.48625" style="stroke: #000000"/>
      </g>
     </g>
     <g id="text_3">
      <!-- 3:00 -->
      <g transform="translate(170.381563 295.339375) rotate(-90) scale(0.12 -0.12)">
       <defs>
        <path id="ArialMT-33" d="M 269 1209 
L 831 1284 
Q 928 806 1161 595 
Q 1394 384 1728 384 
Q 2125 384 2398 659 
Q 2672 934 2672 1341 
Q 2672 1728 2419 1979 
Q 2166 2231 1775 2231 
Q 1616 2231 1378 2169 
L 1441 2663 
Q 1497 2656 1531 2656 
Q 1891 2656 2178 2843 
Q 2466 3031 2466 3422 
Q 2466 3731 2256 3934 
Q 2047 4138 1716 4138 
Q 1388 4138 1169 3931 
Q 950 3725 888 3313 
L 325 3413 
Q 428 3978 793 4289 
Q 1159 4600 1703 4600 
Q 2078 4600 2393 4439 
Q 2709 4278 2876 4000 
Q 3044 3722 3044 3409 
Q 3044 3113 2884 2869 
Q 2725 2625 2413 2481 
Q 2819 2388 3044 2092 
Q 3269 1797 3269 1353 
Q 3269 753 2831 336 
Q 2394 -81 1725 -81 
Q 1122 -81 723 278 
Q 325 638 269 1209 
z
" transform="scale(0.015625)"/>
       </defs>
       <use xlink:href="#ArialMT-33"/>
       <use xlink:href="#ArialMT-3a" transform="translate(55.615234 0)"/>
       <use xlink:href="#ArialMT-30" transform="translate(83.398438 0)"/>
       <use xlink:href="#ArialMT-30" transform="translate(139.013672 0)"/>
      </g>
     </g>
    </g>
    <g id="xtick_4">
     <g id="line2d_45">
      <g>
       <use xlink:href="#m49452db509" x="195.179375" y="263.48625" style="stroke: #000000"/>
      </g>
     </g>
     <g id="text_4">
      <!-- 4:00 -->
      <g transform="translate(198.281563 295.339375) rotate(-90) scale(0.12 -0.12)">
       <defs>
        <path id="ArialMT-34" d="M 2069 0 
L 2069 1097 
L 81 1097 
L 81 1613 
L 2172 4581 
L 2631 4581 
L 2631 1613 
L 3250 1613 
L 3250 1097 
L 2631 1097 
L 2631 0 
L 2069 0 
z
M 2069 1613 
L 2069 3678 
L 634 1613 
L 2069 1613 
z
" transform="scale(0.015625)"/>
       </defs>
       <use xlink:href="#ArialMT-34"/>
       <use xlink:href="#ArialMT-3a" transform="translate(55.615234 0)"/>
       <use xlink:href="#ArialMT-30" transform="translate(83.398438 0)"/>
       <use xlink:href="#ArialMT-30" transform="translate(139.013672 0)"/>
      </g>
     </g>
    </g>
    <g id="xtick_5">
     <g id="line2d_46">
      <g>
       <use xlink:href="#m49452db509" x="223.079375" y="263.48625" style="stroke: #000000"/>
      </g>
     </g>
     <g id="text_5">
      <!-- 5:00 -->
      <g transform="translate(226.181562 295.339375) rotate(-90) scale(0.12 -0.12)">
       <defs>
        <path id="ArialMT-35" d="M 266 1200 
L 856 1250 
Q 922 819 1161 601 
Q 1400 384 1738 384 
Q 2144 384 2425 690 
Q 2706 997 2706 1503 
Q 2706 1984 2436 2262 
Q 2166 2541 1728 2541 
Q 1456 2541 1237 2417 
Q 1019 2294 894 2097 
L 366 2166 
L 809 4519 
L 3088 4519 
L 3088 3981 
L 1259 3981 
L 1013 2750 
Q 1425 3038 1878 3038 
Q 2478 3038 2890 2622 
Q 3303 2206 3303 1553 
Q 3303 931 2941 478 
Q 2500 -78 1738 -78 
Q 1113 -78 717 272 
Q 322 622 266 1200 
z
" transform="scale(0.015625)"/>
       </defs>
       <use xlink:href="#ArialMT-35"/>
       <use xlink:href="#ArialMT-3a" transform="translate(55.615234 0)"/>
       <use xlink:href="#ArialMT-30" transform="translate(83.398438 0)"/>
       <use xlink:href="#ArialMT-30" transform="translate(139.013672 0)"/>
      </g>
     </g>
    </g>
    <g id="xtick_6">
     <g id="line2d_47">
      <g>
       <use xlink:href="#m49452db509" x="250.979375" y="263.48625" style="stroke: #000000"/>
      </g>
     </g>
     <g id="text_6">
      <!-- 6:00 -->
      <g transform="translate(254.081563 295.339375) rotate(-90) scale(0.12 -0.12)">
       <defs>
        <path id="ArialMT-36" d="M 3184 3459 
L 2625 3416 
Q 2550 3747 2413 3897 
Q 2184 4138 1850 4138 
Q 1581 4138 1378 3988 
Q 1113 3794 959 3422 
Q 806 3050 800 2363 
Q 1003 2672 1297 2822 
Q 1591 2972 1913 2972 
Q 2475 2972 2870 2558 
Q 3266 2144 3266 1488 
Q 3266 1056 3080 686 
Q 2894 316 2569 119 
Q 2244 -78 1831 -78 
Q 1128 -78 684 439 
Q 241 956 241 2144 
Q 241 3472 731 4075 
Q 1159 4600 1884 4600 
Q 2425 4600 2770 4297 
Q 3116 3994 3184 3459 
z
M 888 1484 
Q 888 1194 1011 928 
Q 1134 663 1356 523 
Q 1578 384 1822 384 
Q 2178 384 2434 671 
Q 2691 959 2691 1453 
Q 2691 1928 2437 2201 
Q 2184 2475 1800 2475 
Q 1419 2475 1153 2201 
Q 888 1928 888 1484 
z
" transform="scale(0.015625)"/>
       </defs>
       <use xlink:href="#ArialMT-36"/>
       <use xlink:href="#ArialMT-3a" transform="translate(55.615234 0)"/>
       <use xlink:href="#ArialMT-30" transform="translate(83.398438 0)"/>
       <use xlink:href="#ArialMT-30" transform="translate(139.013672 0)"/>
      </g>
     </g>
    </g>
    <g id="xtick_7">
     <g id="line2d_48">
      <g>
       <use xlink:href="#m49452db509" x="278.879375" y="263.48625" style="stroke: #000000"/>
      </g>
     </g>
     <g id="text_7">
      <!-- 7:00 -->
      <g transform="translate(281.981562 295.339375) rotate(-90) scale(0.12 -0.12)">
       <defs>
        <path id="ArialMT-37" d="M 303 3981 
L 303 4522 
L 3269 4522 
L 3269 4084 
Q 2831 3619 2401 2847 
Q 1972 2075 1738 1259 
Q 1569 684 1522 0 
L 944 0 
Q 953 541 1156 1306 
Q 1359 2072 1739 2783 
Q 2119 3494 2547 3981 
L 303 3981 
z
" transform="scale(0.015625)"/>
       </defs>
       <use xlink:href="#ArialMT-37"/>
       <use xlink:href="#ArialMT-3a" transform="translate(55.615234 0)"/>
       <use xlink:href="#ArialMT-30" transform="translate(83.398438 0)"/>
       <use xlink:href="#ArialMT-30" transform="translate(139.013672 0)"/>
      </g>
     </g>
    </g>
    <g id="xtick_8">
     <g id="line2d_49">
      <g>
       <use xlink:href="#m49452db509" x="306.779375" y="263.48625" style="stroke: #000000"/>
      </g>
     </g>
     <g id="text_8">
      <!-- 8:00 -->
      <g transform="translate(309.881562 295.339375) rotate(-90) scale(0.12 -0.12)">
       <defs>
        <path id="ArialMT-38" d="M 1131 2484 
Q 781 2613 612 2850 
Q 444 3088 444 3419 
Q 444 3919 803 4259 
Q 1163 4600 1759 4600 
Q 2359 4600 2725 4251 
Q 3091 3903 3091 3403 
Q 3091 3084 2923 2848 
Q 2756 2613 2416 2484 
Q 2838 2347 3058 2040 
Q 3278 1734 3278 1309 
Q 3278 722 2862 322 
Q 2447 -78 1769 -78 
Q 1091 -78 675 323 
Q 259 725 259 1325 
Q 259 1772 486 2073 
Q 713 2375 1131 2484 
z
M 1019 3438 
Q 1019 3113 1228 2906 
Q 1438 2700 1772 2700 
Q 2097 2700 2305 2904 
Q 2513 3109 2513 3406 
Q 2513 3716 2298 3927 
Q 2084 4138 1766 4138 
Q 1444 4138 1231 3931 
Q 1019 3725 1019 3438 
z
M 838 1322 
Q 838 1081 952 856 
Q 1066 631 1291 507 
Q 1516 384 1775 384 
Q 2178 384 2440 643 
Q 2703 903 2703 1303 
Q 2703 1709 2433 1975 
Q 2163 2241 1756 2241 
Q 1359 2241 1098 1978 
Q 838 1716 838 1322 
z
" transform="scale(0.015625)"/>
       </defs>
       <use xlink:href="#ArialMT-38"/>
       <use xlink:href="#ArialMT-3a" transform="translate(55.615234 0)"/>
       <use xlink:href="#ArialMT-30" transform="translate(83.398438 0)"/>
       <use xlink:href="#ArialMT-30" transform="translate(139.013672 0)"/>
      </g>
     </g>
    </g>
    <g id="xtick_9">
     <g id="line2d_50">
      <g>
       <use xlink:href="#m49452db509" x="334.679375" y="263.48625" style="stroke: #000000"/>
      </g>
     </g>
     <g id="text_9">
      <!-- 9:00 -->
      <g transform="translate(337.781563 295.339375) rotate(-90) scale(0.12 -0.12)">
       <defs>
        <path id="ArialMT-39" d="M 350 1059 
L 891 1109 
Q 959 728 1153 556 
Q 1347 384 1650 384 
Q 1909 384 2104 503 
Q 2300 622 2425 820 
Q 2550 1019 2634 1356 
Q 2719 1694 2719 2044 
Q 2719 2081 2716 2156 
Q 2547 1888 2255 1720 
Q 1963 1553 1622 1553 
Q 1053 1553 659 1965 
Q 266 2378 266 3053 
Q 266 3750 677 4175 
Q 1088 4600 1706 4600 
Q 2153 4600 2523 4359 
Q 2894 4119 3086 3673 
Q 3278 3228 3278 2384 
Q 3278 1506 3087 986 
Q 2897 466 2520 194 
Q 2144 -78 1638 -78 
Q 1100 -78 759 220 
Q 419 519 350 1059 
z
M 2653 3081 
Q 2653 3566 2395 3850 
Q 2138 4134 1775 4134 
Q 1400 4134 1122 3828 
Q 844 3522 844 3034 
Q 844 2597 1108 2323 
Q 1372 2050 1759 2050 
Q 2150 2050 2401 2323 
Q 2653 2597 2653 3081 
z
" transform="scale(0.015625)"/>
       </defs>
       <use xlink:href="#ArialMT-39"/>
       <use xlink:href="#ArialMT-3a" transform="translate(55.615234 0)"/>
       <use xlink:href="#ArialMT-30" transform="translate(83.398438 0)"/>
       <use xlink:href="#ArialMT-30" transform="translate(139.013672 0)"/>
      </g>
     </g>
    </g>
    <g id="xtick_10">
     <g id="line2d_51">
      <g>
       <use xlink:href="#m49452db509" x="362.579375" y="263.48625" style="stroke: #000000"/>
      </g>
     </g>
     <g id="text_10">
      <!-- 10:00 -->
      <g transform="translate(365.681562 302.0125) rotate(-90) scale(0.12 -0.12)">
       <use xlink:href="#ArialMT-31"/>
       <use xlink:href="#ArialMT-30" transform="translate(55.615234 0)"/>
       <use xlink:href="#ArialMT-3a" transform="translate(111.230469 0)"/>
       <use xlink:href="#ArialMT-30" transform="translate(139.013672 0)"/>
       <use xlink:href="#ArialMT-30" transform="translate(194.628906 0)"/>
      </g>
     </g>
    </g>
    <g id="xtick_11">
     <g id="line2d_52">
      <g>
       <use xlink:href="#m49452db509" x="390.479375" y="263.48625" style="stroke: #000000"/>
      </g>
     </g>
     <g id="text_11">
      <!-- 11:00 -->
      <g transform="translate(393.581562 301.1275) rotate(-90) scale(0.12 -0.12)">
       <use xlink:href="#ArialMT-31"/>
       <use xlink:href="#ArialMT-31" transform="translate(48.240234 0)"/>
       <use xlink:href="#ArialMT-3a" transform="translate(103.855469 0)"/>
       <use xlink:href="#ArialMT-30" transform="translate(131.638672 0)"/>
       <use xlink:href="#ArialMT-30" transform="translate(187.253906 0)"/>
      </g>
     </g>
    </g>
    <g id="xtick_12">
     <g id="line2d_53">
      <g>
       <use xlink:href="#m49452db509" x="418.379375" y="263.48625" style="stroke: #000000"/>
      </g>
     </g>
     <g id="text_12">
      <!-- 12:00 -->
      <g transform="translate(421.481562 302.0125) rotate(-90) scale(0.12 -0.12)">
       <use xlink:href="#ArialMT-31"/>
       <use xlink:href="#ArialMT-32" transform="translate(55.615234 0)"/>
       <use xlink:href="#ArialMT-3a" transform="translate(111.230469 0)"/>
       <use xlink:href="#ArialMT-30" transform="translate(139.013672 0)"/>
       <use xlink:href="#ArialMT-30" transform="translate(194.628906 0)"/>
      </g>
     </g>
    </g>
    <g id="xtick_13">
     <g id="line2d_54">
      <g>
       <use xlink:href="#m49452db509" x="446.279375" y="263.48625" style="stroke: #000000"/>
      </g>
     </g>
     <g id="text_13">
      <!-- 13:00 -->
      <g transform="translate(449.381562 302.0125) rotate(-90) scale(0.12 -0.12)">
       <use xlink:href="#ArialMT-31"/>
       <use xlink:href="#ArialMT-33" transform="translate(55.615234 0)"/>
       <use xlink:href="#ArialMT-3a" transform="translate(111.230469 0)"/>
       <use xlink:href="#ArialMT-30" transform="translate(139.013672 0)"/>
       <use xlink:href="#ArialMT-30" transform="translate(194.628906 0)"/>
      </g>
     </g>
    </g>
    <g id="xtick_14">
     <g id="line2d_55">
      <g>
       <use xlink:href="#m49452db509" x="474.179375" y="263.48625" style="stroke: #000000"/>
      </g>
     </g>
     <g id="text_14">
      <!-- 14:00 -->
      <g transform="translate(477.281562 302.0125) rotate(-90) scale(0.12 -0.12)">
       <use xlink:href="#ArialMT-31"/>
       <use xlink:href="#ArialMT-34" transform="translate(55.615234 0)"/>
       <use xlink:href="#ArialMT-3a" transform="translate(111.230469 0)"/>
       <use xlink:href="#ArialMT-30" transform="translate(139.013672 0)"/>
       <use xlink:href="#ArialMT-30" transform="translate(194.628906 0)"/>
      </g>
     </g>
    </g>
    <g id="xtick_15">
     <g id="line2d_56">
      <g>
       <use xlink:href="#m49452db509" x="502.079375" y="263.48625" style="stroke: #000000"/>
      </g>
     </g>
     <g id="text_15">
      <!-- 15:00 -->
      <g transform="translate(505.181562 302.0125) rotate(-90) scale(0.12 -0.12)">
       <use xlink:href="#ArialMT-31"/>
       <use xlink:href="#ArialMT-35" transform="translate(55.615234 0)"/>
       <use xlink:href="#ArialMT-3a" transform="translate(111.230469 0)"/>
       <use xlink:href="#ArialMT-30" transform="translate(139.013672 0)"/>
       <use xlink:href="#ArialMT-30" transform="translate(194.628906 0)"/>
      </g>
     </g>
    </g>
    <g id="xtick_16">
     <g id="line2d_57">
      <g>
       <use xlink:href="#m49452db509" x="529.979375" y="263.48625" style="stroke: #000000"/>
      </g>
     </g>
     <g id="text_16">
      <!-- 16:00 -->
      <g transform="translate(533.081563 302.0125) rotate(-90) scale(0.12 -0.12)">
       <use xlink:href="#ArialMT-31"/>
       <use xlink:href="#ArialMT-36" transform="translate(55.615234 0)"/>
       <use xlink:href="#ArialMT-3a" transform="translate(111.230469 0)"/>
       <use xlink:href="#ArialMT-30" transform="translate(139.013672 0)"/>
       <use xlink:href="#ArialMT-30" transform="translate(194.628906 0)"/>
      </g>
     </g>
    </g>
    <g id="xtick_17">
     <g id="line2d_58">
      <g>
       <use xlink:href="#m49452db509" x="557.879375" y="263.48625" style="stroke: #000000"/>
      </g>
     </g>
     <g id="text_17">
      <!-- 17:00 -->
      <g transform="translate(560.981562 302.0125) rotate(-90) scale(0.12 -0.12)">
       <use xlink:href="#ArialMT-31"/>
       <use xlink:href="#ArialMT-37" transform="translate(55.615234 0)"/>
       <use xlink:href="#ArialMT-3a" transform="translate(111.230469 0)"/>
       <use xlink:href="#ArialMT-30" transform="translate(139.013672 0)"/>
       <use xlink:href="#ArialMT-30" transform="translate(194.628906 0)"/>
      </g>
     </g>
    </g>
    <g id="xtick_18">
     <g id="line2d_59">
      <g>
       <use xlink:href="#m49452db509" x="585.779375" y="263.48625" style="stroke: #000000"/>
      </g>
     </g>
     <g id="text_18">
      <!-- 18:00 -->
      <g transform="translate(588.881562 302.0125) rotate(-90) scale(0.12 -0.12)">
       <use xlink:href="#ArialMT-31"/>
       <use xlink:href="#ArialMT-38" transform="translate(55.615234 0)"/>
       <use xlink:href="#ArialMT-3a" transform="translate(111.230469 0)"/>
       <use xlink:href="#ArialMT-30" transform="translate(139.013672 0)"/>
       <use xlink:href="#ArialMT-30" transform="translate(194.628906 0)"/>
      </g>
     </g>
    </g>
    <g id="xtick_19">
     <g id="line2d_60">
      <g>
       <use xlink:href="#m49452db509" x="613.679375" y="263.48625" style="stroke: #000000"/>
      </g>
     </g>
     <g id="text_19">
      <!-- 19:00 -->
      <g transform="translate(616.781562 302.0125) rotate(-90) scale(0.12 -0.12)">
       <use xlink:href="#ArialMT-31"/>
       <use xlink:href="#ArialMT-39" transform="translate(55.615234 0)"/>
       <use xlink:href="#ArialMT-3a" transform="translate(111.230469 0)"/>
       <use xlink:href="#ArialMT-30" transform="translate(139.013672 0)"/>
       <use xlink:href="#ArialMT-30" transform="translate(194.628906 0)"/>
      </g>
     </g>
    </g>
    <g id="xtick_20">
     <g id="line2d_61">
      <g>
       <use xlink:href="#m49452db509" x="641.579375" y="263.48625" style="stroke: #000000"/>
      </g>
     </g>
     <g id="text_20">
      <!-- 20:00 -->
      <g transform="translate(644.681562 302.0125) rotate(-90) scale(0.12 -0.12)">
       <use xlink:href="#ArialMT-32"/>
       <use xlink:href="#ArialMT-30" transform="translate(55.615234 0)"/>
       <use xlink:href="#ArialMT-3a" transform="translate(111.230469 0)"/>
       <use xlink:href="#ArialMT-30" transform="translate(139.013672 0)"/>
       <use xlink:href="#ArialMT-30" transform="translate(194.628906 0)"/>
      </g>
     </g>
    </g>
    <g id="xtick_21">
     <g id="line2d_62">
      <g>
       <use xlink:href="#m49452db509" x="669.479375" y="263.48625" style="stroke: #000000"/>
      </g>
     </g>
     <g id="text_21">
      <!-- 21:00 -->
      <g transform="translate(672.581562 302.0125) rotate(-90) scale(0.12 -0.12)">
       <use xlink:href="#ArialMT-32"/>
       <use xlink:href="#ArialMT-31" transform="translate(55.615234 0)"/>
       <use xlink:href="#ArialMT-3a" transform="translate(111.230469 0)"/>
       <use xlink:href="#ArialMT-30" transform="translate(139.013672 0)"/>
       <use xlink:href="#ArialMT-30" transform="translate(194.628906 0)"/>
      </g>
     </g>
    </g>
    <g id="xtick_22">
     <g id="line2d_63">
      <g>
       <use xlink:href="#m49452db509" x="697.379375" y="263.48625" style="stroke: #000000"/>
      </g>
     </g>
     <g id="text_22">
      <!-- 22:00 -->
      <g transform="translate(700.481562 302.0125) rotate(-90) scale(0.12 -0.12)">
       <use xlink:href="#ArialMT-32"/>
       <use xlink:href="#ArialMT-32" transform="translate(55.615234 0)"/>
       <use xlink:href="#ArialMT-3a" transform="translate(111.230469 0)"/>
       <use xlink:href="#ArialMT-30" transform="translate(139.013672 0)"/>
       <use xlink:href="#ArialMT-30" transform="translate(194.628906 0)"/>
      </g>
     </g>
    </g>
    <g id="xtick_23">
     <g id="line2d_64">
      <g>
       <use xlink:href="#m49452db509" x="725.279375" y="263.48625" style="stroke: #000000"/>
      </g>
     </g>
     <g id="text_23">
      <!-- 23:00 -->
      <g transform="translate(728.381562 302.0125) rotate(-90) scale(0.12 -0.12)">
       <use xlink:href="#ArialMT-32"/>
       <use xlink:href="#ArialMT-33" transform="translate(55.615234 0)"/>
       <use xlink:href="#ArialMT-3a" transform="translate(111.230469 0)"/>
       <use xlink:href="#ArialMT-30" transform="translate(139.013672 0)"/>
       <use xlink:href="#ArialMT-30" transform="translate(194.628906 0)"/>
      </g>
     </g>
    </g>
    <g id="xtick_24">
     <g id="line2d_65">
      <g>
       <use xlink:href="#m49452db509" x="753.179375" y="263.48625" style="stroke: #000000"/>
      </g>
     </g>
     <g id="text_24">
      <!-- 24:00 -->
      <g transform="translate(756.281562 302.0125) rotate(-90) scale(0.12 -0.12)">
       <use xlink:href="#ArialMT-32"/>
       <use xlink:href="#ArialMT-34" transform="translate(55.615234 0)"/>
       <use xlink:href="#ArialMT-3a" transform="translate(111.230469 0)"/>
       <use xlink:href="#ArialMT-30" transform="translate(139.013672 0)"/>
       <use xlink:href="#ArialMT-30" transform="translate(194.628906 0)"/>
      </g>
     </g>
    </g>
   </g>
   <g id="matplotlib.axis_2">
    <g id="ytick_1">
     <g id="line2d_66">
      <defs>
       <path id="m2660143355" d="M 0 0 
L -5 0 
" style="stroke: #000000; stroke-opacity: 0; stroke-width: 1.5"/>
      </defs>
      <g>
       <use xlink:href="#m2660143355" x="97.529375" y="259.85084" style="fill-opacity: 0; stroke: #000000; stroke-opacity: 0; stroke-width: 1.5"/>
      </g>
     </g>
     <g id="text_25">
      <!-- 0.00 -->
      <g transform="translate(57.891875 265.57709) scale(0.16 -0.16)">
       <defs>
        <path id="ArialMT-2e" d="M 581 0 
L 581 641 
L 1222 641 
L 1222 0 
L 581 0 
z
" transform="scale(0.015625)"/>
       </defs>
       <use xlink:href="#ArialMT-30"/>
       <use xlink:href="#ArialMT-2e" transform="translate(55.615234 0)"/>
       <use xlink:href="#ArialMT-30" transform="translate(83.398438 0)"/>
       <use xlink:href="#ArialMT-30" transform="translate(139.013672 0)"/>
      </g>
     </g>
    </g>
    <g id="ytick_2">
     <g id="line2d_67">
      <g>
       <use xlink:href="#m2660143355" x="97.529375" y="187.142643" style="fill-opacity: 0; stroke: #000000; stroke-opacity: 0; stroke-width: 1.5"/>
      </g>
     </g>
     <g id="text_26">
      <!-- 0.02 -->
      <g transform="translate(57.891875 192.868893) scale(0.16 -0.16)">
       <use xlink:href="#ArialMT-30"/>
       <use xlink:href="#ArialMT-2e" transform="translate(55.615234 0)"/>
       <use xlink:href="#ArialMT-30" transform="translate(83.398438 0)"/>
       <use xlink:href="#ArialMT-32" transform="translate(139.013672 0)"/>
      </g>
     </g>
    </g>
    <g id="ytick_3">
     <g id="line2d_68">
      <g>
       <use xlink:href="#m2660143355" x="97.529375" y="114.434447" style="fill-opacity: 0; stroke: #000000; stroke-opacity: 0; stroke-width: 1.5"/>
      </g>
     </g>
     <g id="text_27">
      <!-- 0.04 -->
      <g transform="translate(57.891875 120.160697) scale(0.16 -0.16)">
       <use xlink:href="#ArialMT-30"/>
       <use xlink:href="#ArialMT-2e" transform="translate(55.615234 0)"/>
       <use xlink:href="#ArialMT-30" transform="translate(83.398438 0)"/>
       <use xlink:href="#ArialMT-34" transform="translate(139.013672 0)"/>
      </g>
     </g>
    </g>
    <g id="ytick_4">
     <g id="line2d_69">
      <g>
       <use xlink:href="#m2660143355" x="97.529375" y="41.72625" style="fill-opacity: 0; stroke: #000000; stroke-opacity: 0; stroke-width: 1.5"/>
      </g>
     </g>
     <g id="text_28">
      <!-- 0.06 -->
      <g transform="translate(57.891875 47.4525) scale(0.16 -0.16)">
       <use xlink:href="#ArialMT-30"/>
       <use xlink:href="#ArialMT-2e" transform="translate(55.615234 0)"/>
       <use xlink:href="#ArialMT-30" transform="translate(83.398438 0)"/>
       <use xlink:href="#ArialMT-36" transform="translate(139.013672 0)"/>
      </g>
     </g>
    </g>
    <g id="text_29">
     <!-- CNG (GGE) -->
     <g transform="translate(49.103438 201.103594) rotate(-90) scale(0.18 -0.18)">
      <defs>
       <path id="ArialMT-43" d="M 3763 1606 
L 4369 1453 
Q 4178 706 3683 314 
Q 3188 -78 2472 -78 
Q 1731 -78 1267 223 
Q 803 525 561 1097 
Q 319 1669 319 2325 
Q 319 3041 592 3573 
Q 866 4106 1370 4382 
Q 1875 4659 2481 4659 
Q 3169 4659 3637 4309 
Q 4106 3959 4291 3325 
L 3694 3184 
Q 3534 3684 3231 3912 
Q 2928 4141 2469 4141 
Q 1941 4141 1586 3887 
Q 1231 3634 1087 3207 
Q 944 2781 944 2328 
Q 944 1744 1114 1308 
Q 1284 872 1643 656 
Q 2003 441 2422 441 
Q 2931 441 3284 734 
Q 3638 1028 3763 1606 
z
" transform="scale(0.015625)"/>
       <path id="ArialMT-4e" d="M 488 0 
L 488 4581 
L 1109 4581 
L 3516 984 
L 3516 4581 
L 4097 4581 
L 4097 0 
L 3475 0 
L 1069 3600 
L 1069 0 
L 488 0 
z
" transform="scale(0.015625)"/>
       <path id="ArialMT-47" d="M 2638 1797 
L 2638 2334 
L 4578 2338 
L 4578 638 
Q 4131 281 3656 101 
Q 3181 -78 2681 -78 
Q 2006 -78 1454 211 
Q 903 500 622 1047 
Q 341 1594 341 2269 
Q 341 2938 620 3517 
Q 900 4097 1425 4378 
Q 1950 4659 2634 4659 
Q 3131 4659 3532 4498 
Q 3934 4338 4162 4050 
Q 4391 3763 4509 3300 
L 3963 3150 
Q 3859 3500 3706 3700 
Q 3553 3900 3268 4020 
Q 2984 4141 2638 4141 
Q 2222 4141 1919 4014 
Q 1616 3888 1430 3681 
Q 1244 3475 1141 3228 
Q 966 2803 966 2306 
Q 966 1694 1177 1281 
Q 1388 869 1791 669 
Q 2194 469 2647 469 
Q 3041 469 3416 620 
Q 3791 772 3984 944 
L 3984 1797 
L 2638 1797 
z
" transform="scale(0.015625)"/>
       <path id="ArialMT-20" transform="scale(0.015625)"/>
       <path id="ArialMT-28" d="M 1497 -1347 
Q 1031 -759 709 28 
Q 388 816 388 1659 
Q 388 2403 628 3084 
Q 909 3875 1497 4659 
L 1900 4659 
Q 1522 4009 1400 3731 
Q 1209 3300 1100 2831 
Q 966 2247 966 1656 
Q 966 153 1900 -1347 
L 1497 -1347 
z
" transform="scale(0.015625)"/>
       <path id="ArialMT-45" d="M 506 0 
L 506 4581 
L 3819 4581 
L 3819 4041 
L 1113 4041 
L 1113 2638 
L 3647 2638 
L 3647 2100 
L 1113 2100 
L 1113 541 
L 3925 541 
L 3925 0 
L 506 0 
z
" transform="scale(0.015625)"/>
       <path id="ArialMT-29" d="M 791 -1347 
L 388 -1347 
Q 1322 153 1322 1656 
Q 1322 2244 1188 2822 
Q 1081 3291 891 3722 
Q 769 4003 388 4659 
L 791 4659 
Q 1378 3875 1659 3084 
Q 1900 2403 1900 1659 
Q 1900 816 1576 28 
Q 1253 -759 791 -1347 
z
" transform="scale(0.015625)"/>
      </defs>
      <use xlink:href="#ArialMT-43"/>
      <use xlink:href="#ArialMT-4e" transform="translate(72.216797 0)"/>
      <use xlink:href="#ArialMT-47" transform="translate(144.433594 0)"/>
      <use xlink:href="#ArialMT-20" transform="translate(222.216797 0)"/>
      <use xlink:href="#ArialMT-28" transform="translate(250 0)"/>
      <use xlink:href="#ArialMT-47" transform="translate(283.300781 0)"/>
      <use xlink:href="#ArialMT-47" transform="translate(361.083984 0)"/>
      <use xlink:href="#ArialMT-45" transform="translate(438.867188 0)"/>
      <use xlink:href="#ArialMT-29" transform="translate(505.566406 0)"/>
     </g>
    </g>
   </g>
   <g id="line2d_70">
    <path d="M 111.479375 231.208895 
L 139.379375 240.780489 
L 167.279375 243.860654 
L 195.179375 241.165796 
L 223.079375 233.117462 
L 250.979375 212.213929 
L 278.879375 178.383157 
L 306.779375 143.871717 
L 334.679375 129.954537 
L 362.579375 127.379074 
L 390.479375 119.765963 
L 418.379375 93.600301 
L 446.279375 82.064473 
L 474.179375 74.329977 
L 502.079375 67.271425 
L 529.979375 64.884415 
L 557.879375 62.633869 
L 585.779375 74.656141 
L 613.679375 110.558502 
L 641.579375 145.677565 
L 669.479375 164.588943 
L 697.379375 182.297176 
L 725.279375 194.648346 
L 753.179375 210.389449 
" clip-path="url(#pff1021dcfa)" style="fill: none; stroke: #d62728; stroke-opacity: 0.8; stroke-width: 1.5; stroke-linecap: round"/>
   </g>
   <g id="line2d_71">
    <path d="M 111.479375 244.265397 
L 139.379375 250.640412 
L 167.279375 252.15786 
L 195.179375 251.228106 
L 223.079375 246.615217 
L 250.979375 236.5471 
L 278.879375 211.190079 
L 306.779375 189.170443 
L 334.679375 178.738988 
L 362.579375 172.687129 
L 390.479375 167.478091 
L 418.379375 148.796243 
L 446.279375 130.62291 
L 474.179375 120.013322 
L 502.079375 109.550301 
L 529.979375 103.191771 
L 557.879375 114.26907 
L 585.779375 130.84515 
L 613.679375 166.464355 
L 641.579375 180.783716 
L 669.479375 193.937714 
L 697.379375 208.192764 
L 725.279375 217.271785 
L 753.179375 228.492916 
" clip-path="url(#pff1021dcfa)" style="fill: none; stroke: #9467bd; stroke-opacity: 0.8; stroke-width: 1.5; stroke-linecap: round"/>
   </g>
   <g id="line2d_72">
    <path d="M 111.479375 241.327513 
L 139.379375 248.860305 
L 167.279375 250.108769 
L 195.179375 249.448315 
L 223.079375 245.664431 
L 250.979375 229.885111 
L 278.879375 203.972665 
L 306.779375 174.846947 
L 334.679375 155.909831 
L 362.579375 147.499182 
L 390.479375 139.96374 
L 418.379375 118.807356 
L 446.279375 113.970303 
L 474.179375 101.297175 
L 502.079375 87.648771 
L 529.979375 76.238666 
L 557.879375 69.604671 
L 585.779375 88.872508 
L 613.679375 134.226149 
L 641.579375 154.458745 
L 669.479375 173.920122 
L 697.379375 193.125787 
L 725.279375 209.262188 
L 753.179375 222.907516 
" clip-path="url(#pff1021dcfa)" style="fill: none; stroke: #9467bd; stroke-opacity: 0.8; stroke-width: 1.5; stroke-linecap: round"/>
   </g>
   <g id="line2d_73">
    <path d="M 111.479375 248.98004 
L 139.379375 252.579296 
L 167.279375 252.812165 
L 195.179375 251.250136 
L 223.079375 246.349703 
L 250.979375 241.020038 
L 278.879375 222.505584 
L 306.779375 205.109224 
L 334.679375 194.571615 
L 362.579375 190.494983 
L 390.479375 184.298774 
L 418.379375 170.092447 
L 446.279375 166.105863 
L 474.179375 162.492027 
L 502.079375 162.033842 
L 529.979375 162.115673 
L 557.879375 162.241902 
L 585.779375 177.08671 
L 613.679375 193.837965 
L 641.579375 204.743924 
L 669.479375 214.414098 
L 697.379375 223.61362 
L 725.279375 233.773078 
L 753.179375 240.901163 
" clip-path="url(#pff1021dcfa)" style="fill: none; stroke: #c5b0d5; stroke-opacity: 0.8; stroke-width: 1.5; stroke-linecap: round"/>
   </g>
   <g id="line2d_74">
    <path d="M 111.479375 247.881059 
L 139.379375 251.901976 
L 167.279375 252.340222 
L 195.179375 251.282633 
L 223.079375 245.7816 
L 250.979375 239.195762 
L 278.879375 219.651032 
L 306.779375 203.376911 
L 334.679375 189.919541 
L 362.579375 186.036329 
L 390.479375 177.481403 
L 418.379375 164.808435 
L 446.279375 159.240368 
L 474.179375 155.412186 
L 502.079375 155.130389 
L 529.979375 155.447275 
L 557.879375 155.107921 
L 585.779375 168.858733 
L 613.679375 189.598566 
L 641.579375 201.297079 
L 669.479375 212.428831 
L 697.379375 221.340454 
L 725.279375 231.186559 
L 753.179375 238.920364 
" clip-path="url(#pff1021dcfa)" style="fill: none; stroke: #8c564b; stroke-opacity: 0.8; stroke-width: 1.5; stroke-linecap: round"/>
   </g>
   <g id="line2d_75">
    <path d="M 111.479375 246.010482 
L 139.379375 250.743727 
L 167.279375 251.613348 
L 195.179375 250.968883 
L 223.079375 245.185353 
L 250.979375 234.907102 
L 278.879375 213.555115 
L 306.779375 194.492451 
L 334.679375 181.053369 
L 362.579375 176.437364 
L 390.479375 169.473088 
L 418.379375 150.180862 
L 446.279375 145.32378 
L 474.179375 138.156134 
L 502.079375 137.579288 
L 529.979375 136.792204 
L 557.879375 132.782138 
L 585.779375 148.359628 
L 613.679375 177.028613 
L 641.579375 190.796066 
L 669.479375 203.108487 
L 697.379375 214.418662 
L 725.279375 225.181499 
L 753.179375 235.18156 
" clip-path="url(#pff1021dcfa)" style="fill: none; stroke: #c49c94; stroke-opacity: 0.8; stroke-width: 1.5; stroke-linecap: round"/>
   </g>
   <g id="line2d_76">
    <path d="M 111.479375 240.537564 
L 139.379375 247.793185 
L 167.279375 249.477101 
L 195.179375 247.403009 
L 223.079375 242.984557 
L 250.979375 226.611677 
L 278.879375 196.01006 
L 306.779375 167.057118 
L 334.679375 150.495847 
L 362.579375 142.322585 
L 390.479375 133.978481 
L 418.379375 105.998569 
L 446.279375 88.021499 
L 474.179375 75.588116 
L 502.079375 67.107154 
L 529.979375 65.058937 
L 557.879375 62.703699 
L 585.779375 81.986577 
L 613.679375 135.193783 
L 641.579375 159.158952 
L 669.479375 176.663358 
L 697.379375 196.286058 
L 725.279375 207.215481 
L 753.179375 221.650241 
" clip-path="url(#pff1021dcfa)" style="fill: none; stroke: #c49c94; stroke-opacity: 0.8; stroke-width: 1.5; stroke-linecap: round"/>
   </g>
   <g id="line2d_77">
    <path d="M 111.479375 238.820641 
L 139.379375 246.256563 
L 167.279375 246.766815 
L 195.179375 245.441893 
L 223.079375 240.899742 
L 250.979375 226.500785 
L 278.879375 197.677014 
L 306.779375 167.708495 
L 334.679375 143.31851 
L 362.579375 135.790744 
L 390.479375 127.492347 
L 418.379375 101.669022 
L 446.279375 89.582306 
L 474.179375 83.501772 
L 502.079375 75.449134 
L 529.979375 70.35042 
L 557.879375 69.665456 
L 585.779375 93.743436 
L 613.679375 126.130388 
L 641.579375 150.492298 
L 669.479375 170.633197 
L 697.379375 190.57821 
L 725.279375 206.087126 
L 753.179375 219.67809 
" clip-path="url(#pff1021dcfa)" style="fill: none; stroke: #2ca02c; stroke-opacity: 0.8; stroke-width: 1.5; stroke-linecap: round"/>
   </g>
   <g id="line2d_78">
    <path d="M 111.479375 242.670695 
L 139.379375 247.426783 
L 167.279375 248.19614 
L 195.179375 246.326307 
L 223.079375 241.743609 
L 250.979375 234.043898 
L 278.879375 215.443964 
L 306.779375 191.368377 
L 334.679375 177.079543 
L 362.579375 169.048833 
L 390.479375 160.282306 
L 418.379375 142.642392 
L 446.279375 132.700593 
L 474.179375 130.21433 
L 502.079375 126.461787 
L 529.979375 129.285637 
L 557.879375 133.025519 
L 585.779375 149.409426 
L 613.679375 163.742871 
L 641.579375 180.178884 
L 669.479375 193.875343 
L 697.379375 208.591716 
L 725.279375 221.103332 
L 753.179375 231.73478 
" clip-path="url(#pff1021dcfa)" style="fill: none; stroke: #ff7f0e; stroke-opacity: 0.8; stroke-width: 1.5; stroke-linecap: round"/>
   </g>
   <g id="line2d_79">
    <path d="M 111.479375 241.938936 
L 139.379375 247.229327 
L 167.279375 248.463014 
L 195.179375 247.717236 
L 223.079375 242.446762 
L 250.979375 230.916793 
L 278.879375 210.030145 
L 306.779375 186.094424 
L 334.679375 170.876916 
L 362.579375 163.045486 
L 390.479375 155.537976 
L 418.379375 137.353631 
L 446.279375 126.986954 
L 474.179375 122.184009 
L 502.079375 120.452547 
L 529.979375 122.331069 
L 557.879375 123.125704 
L 585.779375 136.489814 
L 613.679375 156.963286 
L 641.579375 174.27823 
L 669.479375 189.170428 
L 697.379375 204.544013 
L 725.279375 217.259072 
L 753.179375 229.569531 
" clip-path="url(#pff1021dcfa)" style="fill: none; stroke: #98df8a; stroke-opacity: 0.8; stroke-width: 1.5; stroke-linecap: round"/>
   </g>
   <g id="line2d_80">
    <path d="M 111.479375 236.880833 
L 139.379375 246.321766 
L 167.279375 247.790316 
L 195.179375 246.909791 
L 223.079375 241.896594 
L 250.979375 223.040123 
L 278.879375 186.608252 
L 306.779375 151.748479 
L 334.679375 140.154384 
L 362.579375 135.041293 
L 390.479375 127.683266 
L 418.379375 98.320728 
L 446.279375 93.636216 
L 474.179375 88.553861 
L 502.079375 72.43404 
L 529.979375 64.589511 
L 557.879375 60.616288 
L 585.779375 79.710601 
L 613.679375 127.58407 
L 641.579375 154.724358 
L 669.479375 172.876516 
L 697.379375 191.855482 
L 725.279375 200.956165 
L 753.179375 216.435078 
" clip-path="url(#pff1021dcfa)" style="fill: none; stroke: #e377c2; stroke-opacity: 0.8; stroke-width: 1.5; stroke-linecap: round"/>
   </g>
   <g id="line2d_81">
    <path d="M 111.479375 236.236823 
L 139.379375 243.851108 
L 167.279375 245.57945 
L 195.179375 244.194322 
L 223.079375 240.29028 
L 250.979375 222.133239 
L 278.879375 188.24654 
L 306.779375 156.645112 
L 334.679375 143.180064 
L 362.579375 138.723509 
L 390.479375 130.40137 
L 418.379375 98.128553 
L 446.279375 84.73693 
L 474.179375 70.991469 
L 502.079375 64.448843 
L 529.979375 61.548096 
L 557.879375 71.977384 
L 585.779375 89.799004 
L 613.679375 124.423736 
L 641.579375 150.110415 
L 669.479375 168.803744 
L 697.379375 186.067941 
L 725.279375 201.060122 
L 753.179375 216.761759 
" clip-path="url(#pff1021dcfa)" style="fill: none; stroke: #1f77b4; stroke-opacity: 0.8; stroke-width: 1.5; stroke-linecap: round"/>
   </g>
   <g id="line2d_82">
    <path d="M 111.479375 236.474086 
L 139.379375 244.01601 
L 167.279375 245.729087 
L 195.179375 244.184276 
L 223.079375 240.026466 
L 250.979375 224.514183 
L 278.879375 193.37138 
L 306.779375 163.64597 
L 334.679375 152.929584 
L 362.579375 146.566424 
L 390.479375 136.648506 
L 418.379375 105.012217 
L 446.279375 87.226476 
L 474.179375 77.570074 
L 502.079375 71.976109 
L 529.979375 66.015395 
L 557.879375 66.045906 
L 585.779375 98.385437 
L 613.679375 136.426576 
L 641.579375 155.757936 
L 669.479375 172.533309 
L 697.379375 188.982801 
L 725.279375 203.643043 
L 753.179375 217.696385 
" clip-path="url(#pff1021dcfa)" style="fill: none; stroke: #f7b6d2; stroke-opacity: 0.8; stroke-width: 1.5; stroke-linecap: round"/>
   </g>
   <g id="line2d_83">
    <path d="M 111.479375 234.37693 
L 139.379375 242.203118 
L 167.279375 244.328824 
L 195.179375 243.39893 
L 223.079375 239.116547 
L 250.979375 222.82184 
L 278.879375 193.133991 
L 306.779375 162.372456 
L 334.679375 150.879508 
L 362.579375 144.373633 
L 390.479375 134.338453 
L 418.379375 104.130105 
L 446.279375 89.031707 
L 474.179375 76.333139 
L 502.079375 68.129686 
L 529.979375 62.501718 
L 557.879375 59.959376 
L 585.779375 84.123382 
L 613.679375 127.981686 
L 641.579375 149.744071 
L 669.479375 166.699085 
L 697.379375 185.124031 
L 725.279375 198.823932 
L 753.179375 214.579746 
" clip-path="url(#pff1021dcfa)" style="fill: none; stroke: #ff9896; stroke-opacity: 0.8; stroke-width: 1.5; stroke-linecap: round"/>
   </g>
   <g id="line2d_84">
    <path d="M 111.479375 231.451612 
L 139.379375 240.368556 
L 167.279375 244.275351 
L 195.179375 241.23665 
L 223.079375 231.934509 
L 250.979375 204.440328 
L 278.879375 161.461579 
L 306.779375 122.013891 
L 334.679375 101.856375 
L 362.579375 94.019219 
L 390.479375 86.870197 
L 418.379375 69.367184 
L 446.279375 66.831968 
L 474.179375 62.971823 
L 502.079375 60.932663 
L 529.979375 60.364742 
L 557.879375 61.010096 
L 585.779375 76.560472 
L 613.679375 102.64954 
L 641.579375 138.334601 
L 669.479375 159.031625 
L 697.379375 176.56042 
L 725.279375 191.806876 
L 753.179375 207.614797 
" clip-path="url(#pff1021dcfa)" style="fill: none; stroke: #ff7f0e; stroke-opacity: 0.8; stroke-width: 1.5; stroke-linecap: round"/>
   </g>
   <g id="line2d_85">
    <path d="M 111.479375 235.483026 
L 139.379375 243.110652 
L 167.279375 245.112158 
L 195.179375 244.56072 
L 223.079375 240.382894 
L 250.979375 224.158181 
L 278.879375 197.395058 
L 306.779375 162.381239 
L 334.679375 149.772007 
L 362.579375 140.456068 
L 390.479375 126.113678 
L 418.379375 100.620234 
L 446.279375 92.401432 
L 474.179375 84.778196 
L 502.079375 77.667828 
L 529.979375 70.734611 
L 557.879375 69.666388 
L 585.779375 84.837063 
L 613.679375 120.471164 
L 641.579375 151.529174 
L 669.479375 168.436742 
L 697.379375 186.414686 
L 725.279375 196.414285 
L 753.179375 214.267866 
" clip-path="url(#pff1021dcfa)" style="fill: none; stroke: #f7b6d2; stroke-opacity: 0.8; stroke-width: 1.5; stroke-linecap: round"/>
   </g>
   <g id="line2d_86">
    <path d="M 111.479375 235.452844 
L 139.379375 242.985147 
L 167.279375 245.229708 
L 195.179375 244.60629 
L 223.079375 239.560814 
L 250.979375 223.725058 
L 278.879375 195.725986 
L 306.779375 167.060633 
L 334.679375 149.706429 
L 362.579375 136.30003 
L 390.479375 124.958513 
L 418.379375 102.336897 
L 446.279375 94.796085 
L 474.179375 88.537892 
L 502.079375 85.645905 
L 529.979375 82.146887 
L 557.879375 86.418724 
L 585.779375 99.718087 
L 613.679375 122.97124 
L 641.579375 154.340415 
L 669.479375 172.523218 
L 697.379375 190.941166 
L 725.279375 204.029317 
L 753.179375 217.412973 
" clip-path="url(#pff1021dcfa)" style="fill: none; stroke: #7f7f7f; stroke-opacity: 0.8; stroke-width: 1.5; stroke-linecap: round"/>
   </g>
   <g id="line2d_87">
    <path d="M 111.479375 228.148504 
L 139.379375 238.230105 
L 167.279375 241.032331 
L 195.179375 238.907816 
L 223.079375 230.888018 
L 250.979375 204.415105 
L 278.879375 159.805428 
L 306.779375 119.78661 
L 334.679375 101.097106 
L 362.579375 92.025063 
L 390.479375 81.618449 
L 418.379375 65.879103 
L 446.279375 61.95558 
L 474.179375 56.688394 
L 502.079375 56.425255 
L 529.979375 59.818615 
L 557.879375 63.816816 
L 585.779375 80.51805 
L 613.679375 101.731887 
L 641.579375 133.130721 
L 669.479375 156.591713 
L 697.379375 171.314279 
L 725.279375 185.16782 
L 753.179375 203.771492 
" clip-path="url(#pff1021dcfa)" style="fill: none; stroke: #c7c7c7; stroke-opacity: 0.8; stroke-width: 1.5; stroke-linecap: round"/>
   </g>
   <g id="line2d_88">
    <path d="M 111.479375 238.517505 
L 139.379375 244.780006 
L 167.279375 246.639207 
L 195.179375 245.796462 
L 223.079375 242.146819 
L 250.979375 227.606188 
L 278.879375 205.121764 
L 306.779375 176.80086 
L 334.679375 166.73418 
L 362.579375 159.522083 
L 390.479375 149.489642 
L 418.379375 125.081888 
L 446.279375 110.949387 
L 474.179375 96.914397 
L 502.079375 91.729984 
L 529.979375 88.685913 
L 557.879375 87.983763 
L 585.779375 106.179639 
L 613.679375 129.778055 
L 641.579375 162.801052 
L 669.479375 180.882227 
L 697.379375 196.912793 
L 725.279375 209.135053 
L 753.179375 223.795657 
" clip-path="url(#pff1021dcfa)" style="fill: none; stroke: #aec7e8; stroke-opacity: 0.8; stroke-width: 1.5; stroke-linecap: round"/>
   </g>
   <g id="line2d_89">
    <path d="M 111.479375 236.143142 
L 139.379375 243.949699 
L 167.279375 245.960224 
L 195.179375 245.89885 
L 223.079375 242.389989 
L 250.979375 227.597123 
L 278.879375 204.189155 
L 306.779375 170.19653 
L 334.679375 156.991331 
L 362.579375 147.705373 
L 390.479375 131.417111 
L 418.379375 101.772507 
L 446.279375 89.873024 
L 474.179375 80.082061 
L 502.079375 74.656141 
L 529.979375 70.489474 
L 557.879375 73.508646 
L 585.779375 90.000677 
L 613.679375 118.77622 
L 641.579375 154.440446 
L 669.479375 173.745021 
L 697.379375 191.66012 
L 725.279375 205.084672 
L 753.179375 219.227059 
" clip-path="url(#pff1021dcfa)" style="fill: none; stroke: #d62728; stroke-opacity: 0.8; stroke-width: 1.5; stroke-linecap: round"/>
   </g>
   <g id="line2d_90">
    <path d="M 111.479375 236.769407 
L 139.379375 243.258596 
L 167.279375 244.405572 
L 195.179375 245.551292 
L 223.079375 240.658471 
L 250.979375 226.52442 
L 278.879375 201.491659 
L 306.779375 166.593017 
L 334.679375 154.723374 
L 362.579375 148.289672 
L 390.479375 133.703987 
L 418.379375 111.784254 
L 446.279375 102.63262 
L 474.179375 96.332336 
L 502.079375 94.772687 
L 529.979375 96.653794 
L 557.879375 99.482564 
L 585.779375 113.227219 
L 613.679375 137.973176 
L 641.579375 165.91318 
L 669.479375 183.153924 
L 697.379375 198.35793 
L 725.279375 209.123506 
L 753.179375 221.411532 
" clip-path="url(#pff1021dcfa)" style="fill: none; stroke: #9edae5; stroke-opacity: 0.8; stroke-width: 1.5; stroke-linecap: round"/>
   </g>
   <g id="line2d_91">
    <path d="M 111.479375 238.344971 
L 139.379375 245.746808 
L 167.279375 247.112833 
L 195.179375 246.78431 
L 223.079375 242.414542 
L 250.979375 226.076171 
L 278.879375 191.641868 
L 306.779375 163.789745 
L 334.679375 151.002671 
L 362.579375 144.596332 
L 390.479375 124.555205 
L 418.379375 110.772383 
L 446.279375 100.930764 
L 474.179375 88.476423 
L 502.079375 83.500755 
L 529.979375 78.8243 
L 557.879375 84.227144 
L 585.779375 100.034877 
L 613.679375 138.833486 
L 641.579375 164.428447 
L 669.479375 179.252946 
L 697.379375 192.736778 
L 725.279375 207.052504 
L 753.179375 221.33737 
" clip-path="url(#pff1021dcfa)" style="fill: none; stroke: #bcbd22; stroke-opacity: 0.8; stroke-width: 1.5; stroke-linecap: round"/>
   </g>
   <g id="line2d_92">
    <path d="M 111.479375 237.075641 
L 139.379375 244.16847 
L 167.279375 245.875199 
L 195.179375 245.123296 
L 223.079375 241.222012 
L 250.979375 222.521114 
L 278.879375 188.561718 
L 306.779375 157.80793 
L 334.679375 142.997996 
L 362.579375 136.921681 
L 390.479375 128.048943 
L 418.379375 100.657528 
L 446.279375 94.985411 
L 474.179375 83.671337 
L 502.079375 79.040674 
L 529.979375 76.933204 
L 557.879375 86.001551 
L 585.779375 110.952461 
L 613.679375 134.774946 
L 641.579375 159.89788 
L 669.479375 176.91513 
L 697.379375 191.469102 
L 725.279375 205.215022 
L 753.179375 220.319702 
" clip-path="url(#pff1021dcfa)" style="fill: none; stroke: #1f77b4; stroke-opacity: 0.8; stroke-width: 1.5; stroke-linecap: round"/>
   </g>
   <g id="line2d_93">
    <path d="M 111.479375 231.967148 
L 139.379375 240.949231 
L 167.279375 243.498857 
L 195.179375 242.739435 
L 223.079375 238.91669 
L 250.979375 221.200051 
L 278.879375 191.730141 
L 306.779375 158.672138 
L 334.679375 147.958984 
L 362.579375 142.08446 
L 390.479375 129.87287 
L 418.379375 102.475285 
L 446.279375 93.809647 
L 474.179375 84.2271 
L 502.079375 78.749712 
L 529.979375 70.820679 
L 557.879375 68.776858 
L 585.779375 87.065478 
L 613.679375 121.904156 
L 641.579375 154.326425 
L 669.479375 168.726421 
L 697.379375 184.062846 
L 725.279375 197.328641 
L 753.179375 211.584085 
" clip-path="url(#pff1021dcfa)" style="fill: none; stroke: #dbdb8d; stroke-opacity: 0.8; stroke-width: 1.5; stroke-linecap: round"/>
   </g>
   <g id="line2d_94">
    <path d="M 111.479375 238.277182 
L 139.379375 246.453753 
L 167.279375 248.511415 
L 195.179375 247.751209 
L 223.079375 243.618771 
L 250.979375 233.034679 
L 278.879375 208.064833 
L 306.779375 179.843892 
L 334.679375 167.351176 
L 362.579375 152.312008 
L 390.479375 134.607133 
L 418.379375 113.150736 
L 446.279375 109.810197 
L 474.179375 105.600436 
L 502.079375 102.803906 
L 529.979375 99.008092 
L 557.879375 100.432139 
L 585.779375 111.426584 
L 613.679375 130.376418 
L 641.579375 172.767161 
L 669.479375 185.562088 
L 697.379375 197.046099 
L 725.279375 208.137256 
L 753.179375 220.684827 
" clip-path="url(#pff1021dcfa)" style="fill: none; stroke: #2ca02c; stroke-opacity: 0.8; stroke-width: 1.5; stroke-linecap: round"/>
   </g>
   <g id="line2d_95">
    <path d="M 111.479375 227.924274 
L 139.379375 237.970094 
L 167.279375 240.945813 
L 195.179375 240.630427 
L 223.079375 235.132423 
L 250.979375 217.079224 
L 278.879375 184.289366 
L 306.779375 148.23055 
L 334.679375 137.068468 
L 362.579375 128.580931 
L 390.479375 102.272144 
L 418.379375 83.605687 
L 446.279375 77.227064 
L 474.179375 68.728441 
L 502.079375 63.215215 
L 529.979375 56.299785 
L 557.879375 52.629635 
L 585.779375 68.160865 
L 613.679375 96.346423 
L 641.579375 145.862768 
L 669.479375 161.141748 
L 697.379375 176.741078 
L 725.279375 187.605414 
L 753.179375 205.265783 
" clip-path="url(#pff1021dcfa)" style="fill: none; stroke: #c7c7c7; stroke-opacity: 0.8; stroke-width: 1.5; stroke-linecap: round"/>
   </g>
   <g id="line2d_96">
    <path d="M 111.479375 235.285344 
L 139.379375 240.93156 
L 167.279375 242.061295 
L 195.179375 240.923298 
L 223.079375 235.9215 
L 250.979375 223.094517 
L 278.879375 193.094288 
L 306.779375 159.935539 
L 334.679375 150.222254 
L 362.579375 145.803188 
L 390.479375 124.894804 
L 418.379375 109.44217 
L 446.279375 101.172626 
L 474.179375 89.016319 
L 502.079375 86.24353 
L 529.979375 86.609874 
L 557.879375 96.810123 
L 585.779375 112.298876 
L 613.679375 142.594489 
L 641.579375 166.129358 
L 669.479375 179.869601 
L 697.379375 192.323669 
L 725.279375 202.598952 
L 753.179375 218.945757 
" clip-path="url(#pff1021dcfa)" style="fill: none; stroke: #ffbb78; stroke-opacity: 0.8; stroke-width: 1.5; stroke-linecap: round"/>
   </g>
   <g id="line2d_97">
    <path d="M 111.479375 236.686599 
L 139.379375 243.887665 
L 167.279375 245.917215 
L 195.179375 245.434555 
L 223.079375 241.908993 
L 250.979375 227.288519 
L 278.879375 202.955218 
L 306.779375 174.676726 
L 334.679375 162.372859 
L 362.579375 154.162232 
L 390.479375 142.428343 
L 418.379375 115.923545 
L 446.279375 97.525158 
L 474.179375 84.336058 
L 502.079375 77.747602 
L 529.979375 73.748054 
L 557.879375 71.24816 
L 585.779375 85.996194 
L 613.679375 105.620057 
L 641.579375 153.813003 
L 669.479375 173.403234 
L 697.379375 191.684368 
L 725.279375 203.83367 
L 753.179375 218.460168 
" clip-path="url(#pff1021dcfa)" style="fill: none; stroke: #dbdb8d; stroke-opacity: 0.8; stroke-width: 1.5; stroke-linecap: round"/>
   </g>
   <g id="line2d_98">
    <path d="M 111.479375 240.732302 
L 139.379375 246.622909 
L 167.279375 247.144653 
L 195.179375 245.800382 
L 223.079375 241.397782 
L 250.979375 228.314515 
L 278.879375 197.932965 
L 306.779375 167.736717 
L 334.679375 153.708371 
L 362.579375 146.971771 
L 390.479375 134.167157 
L 418.379375 114.187756 
L 446.279375 113.19065 
L 474.179375 106.721461 
L 502.079375 102.698309 
L 529.979375 101.980526 
L 557.879375 106.753516 
L 585.779375 124.733235 
L 613.679375 148.574164 
L 641.579375 166.750604 
L 669.479375 183.662366 
L 697.379375 196.576205 
L 725.279375 210.519135 
L 753.179375 224.883747 
" clip-path="url(#pff1021dcfa)" style="fill: none; stroke: #17becf; stroke-opacity: 0.8; stroke-width: 1.5; stroke-linecap: round"/>
   </g>
   <g id="line2d_99">
    <path d="M 111.479375 239.505884 
L 139.379375 244.287966 
L 167.279375 245.251386 
L 195.179375 244.016701 
L 223.079375 240.097228 
L 250.979375 229.857955 
L 278.879375 204.619121 
L 306.779375 176.525454 
L 334.679375 165.113556 
L 362.579375 161.268085 
L 390.479375 140.957176 
L 418.379375 125.288966 
L 446.279375 115.095475 
L 474.179375 104.643608 
L 502.079375 102.438313 
L 529.979375 102.56632 
L 557.879375 111.147288 
L 585.779375 125.242209 
L 613.679375 161.700068 
L 641.579375 178.58565 
L 669.479375 191.754998 
L 697.379375 203.573092 
L 725.279375 214.037701 
L 753.179375 226.549371 
" clip-path="url(#pff1021dcfa)" style="fill: none; stroke: #9edae5; stroke-opacity: 0.8; stroke-width: 1.5; stroke-linecap: round"/>
   </g>
   <g id="patch_3">
    <path d="M 97.529375 263.48625 
L 97.529375 41.72625 
" style="fill: none; stroke: #000000; stroke-linejoin: miter; stroke-linecap: square"/>
   </g>
   <g id="patch_4">
    <path d="M 767.129375 263.48625 
L 767.129375 41.72625 
" style="fill: none; stroke: #000000; stroke-linejoin: miter; stroke-linecap: square"/>
   </g>
   <g id="patch_5">
    <path d="M 97.529375 263.48625 
L 767.129375 263.48625 
" style="fill: none; stroke: #000000; stroke-linejoin: miter; stroke-linecap: square"/>
   </g>
   <g id="patch_6">
    <path d="M 97.529375 41.72625 
L 767.129375 41.72625 
" style="fill: none; stroke: #000000; stroke-linejoin: miter; stroke-linecap: square"/>
   </g>
  </g>
 </g>
 <defs>
  <clipPath id="pff1021dcfa">
   <rect x="97.529375" y="41.72625" width="669.6" height="221.76"/>
  </clipPath>
 </defs>
</svg>
