<?xml version="1.0" encoding="utf-8" standalone="no"?>
<!DOCTYPE svg PUBLIC "-//W3C//DTD SVG 1.1//EN"
  "http://www.w3.org/Graphics/SVG/1.1/DTD/svg11.dtd">
<svg xmlns:xlink="http://www.w3.org/1999/xlink" width="781.0975pt" height="332.28625pt" viewBox="0 0 781.0975 332.28625" xmlns="http://www.w3.org/2000/svg" version="1.1">
 <metadata>
  <rdf:RDF xmlns:dc="http://purl.org/dc/elements/1.1/" xmlns:cc="http://creativecommons.org/ns#" xmlns:rdf="http://www.w3.org/1999/02/22-rdf-syntax-ns#">
   <cc:Work>
    <dc:type rdf:resource="http://purl.org/dc/dcmitype/StillImage"/>
    <dc:date>2025-10-27T23:50:03.546793</dc:date>
    <dc:format>image/svg+xml</dc:format>
    <dc:creator>
     <cc:Agent>
      <dc:title>Matplotlib v3.10.7, https://matplotlib.org/</dc:title>
     </cc:Agent>
    </dc:creator>
   </cc:Work>
  </rdf:RDF>
 </metadata>
 <defs>
  <style type="text/css">*{stroke-linejoin: round; stroke-linecap: butt}</style>
 </defs>
 <g id="figure_1">
  <g id="patch_1">
   <path d="M 0 332.28625 
L 781.0975 332.28625 
L 781.0975 0 
L 0 0 
L 0 332.28625 
z
" style="fill: none"/>
  </g>
  <g id="axes_1">
   <g id="patch_2">
    <path d="M 75.4975 257.76 
L 745.0975 257.76 
L 745.0975 36 
L 75.4975 36 
L 75.4975 257.76 
z
" style="fill: none"/>
   </g>
   <g id="line2d_1">
    <path d="M 95.788409 257.76 
L 95.788409 36 
" clip-path="url(#p28814ef256)" style="fill: none; stroke-dasharray: 0.74,0.32; stroke-dashoffset: 0; stroke: #a9a9a9; stroke-opacity: 0.5; stroke-width: 0.2"/>
   </g>
   <g id="line2d_2">
    <path d="M 116.079318 257.76 
L 116.079318 36 
" clip-path="url(#p28814ef256)" style="fill: none; stroke-dasharray: 0.74,0.32; stroke-dashoffset: 0; stroke: #a9a9a9; stroke-opacity: 0.5; stroke-width: 0.2"/>
   </g>
   <g id="line2d_3">
    <path d="M 136.370227 257.76 
L 136.370227 36 
" clip-path="url(#p28814ef256)" style="fill: none; stroke-dasharray: 0.74,0.32; stroke-dashoffset: 0; stroke: #a9a9a9; stroke-opacity: 0.5; stroke-width: 0.2"/>
   </g>
   <g id="line2d_4">
    <path d="M 156.661136 257.76 
L 156.661136 36 
" clip-path="url(#p28814ef256)" style="fill: none; stroke-dasharray: 0.74,0.32; stroke-dashoffset: 0; stroke: #a9a9a9; stroke-opacity: 0.5; stroke-width: 0.2"/>
   </g>
   <g id="line2d_5">
    <path d="M 176.952045 257.76 
L 176.952045 36 
" clip-path="url(#p28814ef256)" style="fill: none; stroke-dasharray: 0.74,0.32; stroke-dashoffset: 0; stroke: #a9a9a9; stroke-opacity: 0.5; stroke-width: 0.2"/>
   </g>
   <g id="line2d_6">
    <path d="M 197.242955 257.76 
L 197.242955 36 
" clip-path="url(#p28814ef256)" style="fill: none; stroke-dasharray: 0.74,0.32; stroke-dashoffset: 0; stroke: #a9a9a9; stroke-opacity: 0.5; stroke-width: 0.2"/>
   </g>
   <g id="line2d_7">
    <path d="M 217.533864 257.76 
L 217.533864 36 
" clip-path="url(#p28814ef256)" style="fill: none; stroke-dasharray: 0.74,0.32; stroke-dashoffset: 0; stroke: #a9a9a9; stroke-opacity: 0.5; stroke-width: 0.2"/>
   </g>
   <g id="line2d_8">
    <path d="M 237.824773 257.76 
L 237.824773 36 
" clip-path="url(#p28814ef256)" style="fill: none; stroke-dasharray: 0.74,0.32; stroke-dashoffset: 0; stroke: #a9a9a9; stroke-opacity: 0.5; stroke-width: 0.2"/>
   </g>
   <g id="line2d_9">
    <path d="M 258.115682 257.76 
L 258.115682 36 
" clip-path="url(#p28814ef256)" style="fill: none; stroke-dasharray: 0.74,0.32; stroke-dashoffset: 0; stroke: #a9a9a9; stroke-opacity: 0.5; stroke-width: 0.2"/>
   </g>
   <g id="line2d_10">
    <path d="M 278.406591 257.76 
L 278.406591 36 
" clip-path="url(#p28814ef256)" style="fill: none; stroke-dasharray: 0.74,0.32; stroke-dashoffset: 0; stroke: #a9a9a9; stroke-opacity: 0.5; stroke-width: 0.2"/>
   </g>
   <g id="line2d_11">
    <path d="M 298.6975 257.76 
L 298.6975 36 
" clip-path="url(#p28814ef256)" style="fill: none; stroke-dasharray: 0.74,0.32; stroke-dashoffset: 0; stroke: #a9a9a9; stroke-opacity: 0.5; stroke-width: 0.2"/>
   </g>
   <g id="line2d_12">
    <path d="M 318.988409 257.76 
L 318.988409 36 
" clip-path="url(#p28814ef256)" style="fill: none; stroke-dasharray: 0.74,0.32; stroke-dashoffset: 0; stroke: #a9a9a9; stroke-opacity: 0.5; stroke-width: 0.2"/>
   </g>
   <g id="line2d_13">
    <path d="M 339.279318 257.76 
L 339.279318 36 
" clip-path="url(#p28814ef256)" style="fill: none; stroke-dasharray: 0.74,0.32; stroke-dashoffset: 0; stroke: #a9a9a9; stroke-opacity: 0.5; stroke-width: 0.2"/>
   </g>
   <g id="line2d_14">
    <path d="M 359.570227 257.76 
L 359.570227 36 
" clip-path="url(#p28814ef256)" style="fill: none; stroke-dasharray: 0.74,0.32; stroke-dashoffset: 0; stroke: #a9a9a9; stroke-opacity: 0.5; stroke-width: 0.2"/>
   </g>
   <g id="line2d_15">
    <path d="M 379.861136 257.76 
L 379.861136 36 
" clip-path="url(#p28814ef256)" style="fill: none; stroke-dasharray: 0.74,0.32; stroke-dashoffset: 0; stroke: #a9a9a9; stroke-opacity: 0.5; stroke-width: 0.2"/>
   </g>
   <g id="line2d_16">
    <path d="M 400.152045 257.76 
L 400.152045 36 
" clip-path="url(#p28814ef256)" style="fill: none; stroke-dasharray: 0.74,0.32; stroke-dashoffset: 0; stroke: #a9a9a9; stroke-opacity: 0.5; stroke-width: 0.2"/>
   </g>
   <g id="line2d_17">
    <path d="M 420.442955 257.76 
L 420.442955 36 
" clip-path="url(#p28814ef256)" style="fill: none; stroke-dasharray: 0.74,0.32; stroke-dashoffset: 0; stroke: #a9a9a9; stroke-opacity: 0.5; stroke-width: 0.2"/>
   </g>
   <g id="line2d_18">
    <path d="M 440.733864 257.76 
L 440.733864 36 
" clip-path="url(#p28814ef256)" style="fill: none; stroke-dasharray: 0.74,0.32; stroke-dashoffset: 0; stroke: #a9a9a9; stroke-opacity: 0.5; stroke-width: 0.2"/>
   </g>
   <g id="line2d_19">
    <path d="M 461.024773 257.76 
L 461.024773 36 
" clip-path="url(#p28814ef256)" style="fill: none; stroke-dasharray: 0.74,0.32; stroke-dashoffset: 0; stroke: #a9a9a9; stroke-opacity: 0.5; stroke-width: 0.2"/>
   </g>
   <g id="line2d_20">
    <path d="M 481.315682 257.76 
L 481.315682 36 
" clip-path="url(#p28814ef256)" style="fill: none; stroke-dasharray: 0.74,0.32; stroke-dashoffset: 0; stroke: #a9a9a9; stroke-opacity: 0.5; stroke-width: 0.2"/>
   </g>
   <g id="line2d_21">
    <path d="M 501.606591 257.76 
L 501.606591 36 
" clip-path="url(#p28814ef256)" style="fill: none; stroke-dasharray: 0.74,0.32; stroke-dashoffset: 0; stroke: #a9a9a9; stroke-opacity: 0.5; stroke-width: 0.2"/>
   </g>
   <g id="line2d_22">
    <path d="M 521.8975 257.76 
L 521.8975 36 
" clip-path="url(#p28814ef256)" style="fill: none; stroke-dasharray: 0.74,0.32; stroke-dashoffset: 0; stroke: #a9a9a9; stroke-opacity: 0.5; stroke-width: 0.2"/>
   </g>
   <g id="line2d_23">
    <path d="M 542.188409 257.76 
L 542.188409 36 
" clip-path="url(#p28814ef256)" style="fill: none; stroke-dasharray: 0.74,0.32; stroke-dashoffset: 0; stroke: #a9a9a9; stroke-opacity: 0.5; stroke-width: 0.2"/>
   </g>
   <g id="line2d_24">
    <path d="M 562.479318 257.76 
L 562.479318 36 
" clip-path="url(#p28814ef256)" style="fill: none; stroke-dasharray: 0.74,0.32; stroke-dashoffset: 0; stroke: #a9a9a9; stroke-opacity: 0.5; stroke-width: 0.2"/>
   </g>
   <g id="line2d_25">
    <path d="M 582.770227 257.76 
L 582.770227 36 
" clip-path="url(#p28814ef256)" style="fill: none; stroke-dasharray: 0.74,0.32; stroke-dashoffset: 0; stroke: #a9a9a9; stroke-opacity: 0.5; stroke-width: 0.2"/>
   </g>
   <g id="line2d_26">
    <path d="M 603.061136 257.76 
L 603.061136 36 
" clip-path="url(#p28814ef256)" style="fill: none; stroke-dasharray: 0.74,0.32; stroke-dashoffset: 0; stroke: #a9a9a9; stroke-opacity: 0.5; stroke-width: 0.2"/>
   </g>
   <g id="line2d_27">
    <path d="M 623.352045 257.76 
L 623.352045 36 
" clip-path="url(#p28814ef256)" style="fill: none; stroke-dasharray: 0.74,0.32; stroke-dashoffset: 0; stroke: #a9a9a9; stroke-opacity: 0.5; stroke-width: 0.2"/>
   </g>
   <g id="line2d_28">
    <path d="M 643.642955 257.76 
L 643.642955 36 
" clip-path="url(#p28814ef256)" style="fill: none; stroke-dasharray: 0.74,0.32; stroke-dashoffset: 0; stroke: #a9a9a9; stroke-opacity: 0.5; stroke-width: 0.2"/>
   </g>
   <g id="line2d_29">
    <path d="M 663.933864 257.76 
L 663.933864 36 
" clip-path="url(#p28814ef256)" style="fill: none; stroke-dasharray: 0.74,0.32; stroke-dashoffset: 0; stroke: #a9a9a9; stroke-opacity: 0.5; stroke-width: 0.2"/>
   </g>
   <g id="line2d_30">
    <path d="M 684.224773 257.76 
L 684.224773 36 
" clip-path="url(#p28814ef256)" style="fill: none; stroke-dasharray: 0.74,0.32; stroke-dashoffset: 0; stroke: #a9a9a9; stroke-opacity: 0.5; stroke-width: 0.2"/>
   </g>
   <g id="line2d_31">
    <path d="M 704.515682 257.76 
L 704.515682 36 
" clip-path="url(#p28814ef256)" style="fill: none; stroke-dasharray: 0.74,0.32; stroke-dashoffset: 0; stroke: #a9a9a9; stroke-opacity: 0.5; stroke-width: 0.2"/>
   </g>
   <g id="line2d_32">
    <path d="M 724.806591 257.76 
L 724.806591 36 
" clip-path="url(#p28814ef256)" style="fill: none; stroke-dasharray: 0.74,0.32; stroke-dashoffset: 0; stroke: #a9a9a9; stroke-opacity: 0.5; stroke-width: 0.2"/>
   </g>
   <g id="line2d_33">
    <path d="M 75.4975 235.584 
L 745.0975 235.584 
" clip-path="url(#p28814ef256)" style="fill: none; stroke-dasharray: 0.74,0.32; stroke-dashoffset: 0; stroke: #a9a9a9; stroke-opacity: 0.5; stroke-width: 0.2"/>
   </g>
   <g id="line2d_34">
    <path d="M 75.4975 213.408 
L 745.0975 213.408 
" clip-path="url(#p28814ef256)" style="fill: none; stroke-dasharray: 0.74,0.32; stroke-dashoffset: 0; stroke: #a9a9a9; stroke-opacity: 0.5; stroke-width: 0.2"/>
   </g>
   <g id="line2d_35">
    <path d="M 75.4975 191.232 
L 745.0975 191.232 
" clip-path="url(#p28814ef256)" style="fill: none; stroke-dasharray: 0.74,0.32; stroke-dashoffset: 0; stroke: #a9a9a9; stroke-opacity: 0.5; stroke-width: 0.2"/>
   </g>
   <g id="line2d_36">
    <path d="M 75.4975 169.056 
L 745.0975 169.056 
" clip-path="url(#p28814ef256)" style="fill: none; stroke-dasharray: 0.74,0.32; stroke-dashoffset: 0; stroke: #a9a9a9; stroke-opacity: 0.5; stroke-width: 0.2"/>
   </g>
   <g id="line2d_37">
    <path d="M 75.4975 146.88 
L 745.0975 146.88 
" clip-path="url(#p28814ef256)" style="fill: none; stroke-dasharray: 0.74,0.32; stroke-dashoffset: 0; stroke: #a9a9a9; stroke-opacity: 0.5; stroke-width: 0.2"/>
   </g>
   <g id="line2d_38">
    <path d="M 75.4975 124.704 
L 745.0975 124.704 
" clip-path="url(#p28814ef256)" style="fill: none; stroke-dasharray: 0.74,0.32; stroke-dashoffset: 0; stroke: #a9a9a9; stroke-opacity: 0.5; stroke-width: 0.2"/>
   </g>
   <g id="line2d_39">
    <path d="M 75.4975 102.528 
L 745.0975 102.528 
" clip-path="url(#p28814ef256)" style="fill: none; stroke-dasharray: 0.74,0.32; stroke-dashoffset: 0; stroke: #a9a9a9; stroke-opacity: 0.5; stroke-width: 0.2"/>
   </g>
   <g id="line2d_40">
    <path d="M 75.4975 80.352 
L 745.0975 80.352 
" clip-path="url(#p28814ef256)" style="fill: none; stroke-dasharray: 0.74,0.32; stroke-dashoffset: 0; stroke: #a9a9a9; stroke-opacity: 0.5; stroke-width: 0.2"/>
   </g>
   <g id="line2d_41">
    <path d="M 75.4975 58.176 
L 745.0975 58.176 
" clip-path="url(#p28814ef256)" style="fill: none; stroke-dasharray: 0.74,0.32; stroke-dashoffset: 0; stroke: #a9a9a9; stroke-opacity: 0.5; stroke-width: 0.2"/>
   </g>
   <g id="matplotlib.axis_1">
    <g id="xtick_1">
     <g id="line2d_42">
      <defs>
       <path id="mb2432eadc6" d="M 0 0 
L 0 5 
" style="stroke: #000000"/>
      </defs>
      <g>
       <use xlink:href="#mb2432eadc6" x="89.4475" y="257.76" style="stroke: #000000"/>
      </g>
     </g>
     <g id="text_1">
      <!-- 1:00 -->
      <g transform="translate(92.549688 289.613125) rotate(-90) scale(0.12 -0.12)">
       <defs>
        <path id="ArialMT-31" d="M 2384 0 
L 1822 0 
L 1822 3584 
Q 1619 3391 1289 3197 
Q 959 3003 697 2906 
L 697 3450 
Q 1169 3672 1522 3987 
Q 1875 4303 2022 4600 
L 2384 4600 
L 2384 0 
z
" transform="scale(0.015625)"/>
        <path id="ArialMT-3a" d="M 578 2678 
L 578 3319 
L 1219 3319 
L 1219 2678 
L 578 2678 
z
M 578 0 
L 578 641 
L 1219 641 
L 1219 0 
L 578 0 
z
" transform="scale(0.015625)"/>
        <path id="ArialMT-30" d="M 266 2259 
Q 266 3072 433 3567 
Q 600 4063 929 4331 
Q 1259 4600 1759 4600 
Q 2128 4600 2406 4451 
Q 2684 4303 2865 4023 
Q 3047 3744 3150 3342 
Q 3253 2941 3253 2259 
Q 3253 1453 3087 958 
Q 2922 463 2592 192 
Q 2263 -78 1759 -78 
Q 1097 -78 719 397 
Q 266 969 266 2259 
z
M 844 2259 
Q 844 1131 1108 757 
Q 1372 384 1759 384 
Q 2147 384 2411 759 
Q 2675 1134 2675 2259 
Q 2675 3391 2411 3762 
Q 2147 4134 1753 4134 
Q 1366 4134 1134 3806 
Q 844 3388 844 2259 
z
" transform="scale(0.015625)"/>
       </defs>
       <use xlink:href="#ArialMT-31"/>
       <use xlink:href="#ArialMT-3a" transform="translate(55.615234 0)"/>
       <use xlink:href="#ArialMT-30" transform="translate(83.398438 0)"/>
       <use xlink:href="#ArialMT-30" transform="translate(139.013672 0)"/>
      </g>
     </g>
    </g>
    <g id="xtick_2">
     <g id="line2d_43">
      <g>
       <use xlink:href="#mb2432eadc6" x="117.3475" y="257.76" style="stroke: #000000"/>
      </g>
     </g>
     <g id="text_2">
      <!-- 2:00 -->
      <g transform="translate(120.449688 289.613125) rotate(-90) scale(0.12 -0.12)">
       <defs>
        <path id="ArialMT-32" d="M 3222 541 
L 3222 0 
L 194 0 
Q 188 203 259 391 
Q 375 700 629 1000 
Q 884 1300 1366 1694 
Q 2113 2306 2375 2664 
Q 2638 3022 2638 3341 
Q 2638 3675 2398 3904 
Q 2159 4134 1775 4134 
Q 1369 4134 1125 3890 
Q 881 3647 878 3216 
L 300 3275 
Q 359 3922 746 4261 
Q 1134 4600 1788 4600 
Q 2447 4600 2831 4234 
Q 3216 3869 3216 3328 
Q 3216 3053 3103 2787 
Q 2991 2522 2730 2228 
Q 2469 1934 1863 1422 
Q 1356 997 1212 845 
Q 1069 694 975 541 
L 3222 541 
z
" transform="scale(0.015625)"/>
       </defs>
       <use xlink:href="#ArialMT-32"/>
       <use xlink:href="#ArialMT-3a" transform="translate(55.615234 0)"/>
       <use xlink:href="#ArialMT-30" transform="translate(83.398438 0)"/>
       <use xlink:href="#ArialMT-30" transform="translate(139.013672 0)"/>
      </g>
     </g>
    </g>
    <g id="xtick_3">
     <g id="line2d_44">
      <g>
       <use xlink:href="#mb2432eadc6" x="145.2475" y="257.76" style="stroke: #000000"/>
      </g>
     </g>
     <g id="text_3">
      <!-- 3:00 -->
      <g transform="translate(148.349688 289.613125) rotate(-90) scale(0.12 -0.12)">
       <defs>
        <path id="ArialMT-33" d="M 269 1209 
L 831 1284 
Q 928 806 1161 595 
Q 1394 384 1728 384 
Q 2125 384 2398 659 
Q 2672 934 2672 1341 
Q 2672 1728 2419 1979 
Q 2166 2231 1775 2231 
Q 1616 2231 1378 2169 
L 1441 2663 
Q 1497 2656 1531 2656 
Q 1891 2656 2178 2843 
Q 2466 3031 2466 3422 
Q 2466 3731 2256 3934 
Q 2047 4138 1716 4138 
Q 1388 4138 1169 3931 
Q 950 3725 888 3313 
L 325 3413 
Q 428 3978 793 4289 
Q 1159 4600 1703 4600 
Q 2078 4600 2393 4439 
Q 2709 4278 2876 4000 
Q 3044 3722 3044 3409 
Q 3044 3113 2884 2869 
Q 2725 2625 2413 2481 
Q 2819 2388 3044 2092 
Q 3269 1797 3269 1353 
Q 3269 753 2831 336 
Q 2394 -81 1725 -81 
Q 1122 -81 723 278 
Q 325 638 269 1209 
z
" transform="scale(0.015625)"/>
       </defs>
       <use xlink:href="#ArialMT-33"/>
       <use xlink:href="#ArialMT-3a" transform="translate(55.615234 0)"/>
       <use xlink:href="#ArialMT-30" transform="translate(83.398438 0)"/>
       <use xlink:href="#ArialMT-30" transform="translate(139.013672 0)"/>
      </g>
     </g>
    </g>
    <g id="xtick_4">
     <g id="line2d_45">
      <g>
       <use xlink:href="#mb2432eadc6" x="173.1475" y="257.76" style="stroke: #000000"/>
      </g>
     </g>
     <g id="text_4">
      <!-- 4:00 -->
      <g transform="translate(176.249688 289.613125) rotate(-90) scale(0.12 -0.12)">
       <defs>
        <path id="ArialMT-34" d="M 2069 0 
L 2069 1097 
L 81 1097 
L 81 1613 
L 2172 4581 
L 2631 4581 
L 2631 1613 
L 3250 1613 
L 3250 1097 
L 2631 1097 
L 2631 0 
L 2069 0 
z
M 2069 1613 
L 2069 3678 
L 634 1613 
L 2069 1613 
z
" transform="scale(0.015625)"/>
       </defs>
       <use xlink:href="#ArialMT-34"/>
       <use xlink:href="#ArialMT-3a" transform="translate(55.615234 0)"/>
       <use xlink:href="#ArialMT-30" transform="translate(83.398438 0)"/>
       <use xlink:href="#ArialMT-30" transform="translate(139.013672 0)"/>
      </g>
     </g>
    </g>
    <g id="xtick_5">
     <g id="line2d_46">
      <g>
       <use xlink:href="#mb2432eadc6" x="201.0475" y="257.76" style="stroke: #000000"/>
      </g>
     </g>
     <g id="text_5">
      <!-- 5:00 -->
      <g transform="translate(204.149688 289.613125) rotate(-90) scale(0.12 -0.12)">
       <defs>
        <path id="ArialMT-35" d="M 266 1200 
L 856 1250 
Q 922 819 1161 601 
Q 1400 384 1738 384 
Q 2144 384 2425 690 
Q 2706 997 2706 1503 
Q 2706 1984 2436 2262 
Q 2166 2541 1728 2541 
Q 1456 2541 1237 2417 
Q 1019 2294 894 2097 
L 366 2166 
L 809 4519 
L 3088 4519 
L 3088 3981 
L 1259 3981 
L 1013 2750 
Q 1425 3038 1878 3038 
Q 2478 3038 2890 2622 
Q 3303 2206 3303 1553 
Q 3303 931 2941 478 
Q 2500 -78 1738 -78 
Q 1113 -78 717 272 
Q 322 622 266 1200 
z
" transform="scale(0.015625)"/>
       </defs>
       <use xlink:href="#ArialMT-35"/>
       <use xlink:href="#ArialMT-3a" transform="translate(55.615234 0)"/>
       <use xlink:href="#ArialMT-30" transform="translate(83.398438 0)"/>
       <use xlink:href="#ArialMT-30" transform="translate(139.013672 0)"/>
      </g>
     </g>
    </g>
    <g id="xtick_6">
     <g id="line2d_47">
      <g>
       <use xlink:href="#mb2432eadc6" x="228.9475" y="257.76" style="stroke: #000000"/>
      </g>
     </g>
     <g id="text_6">
      <!-- 6:00 -->
      <g transform="translate(232.049688 289.613125) rotate(-90) scale(0.12 -0.12)">
       <defs>
        <path id="ArialMT-36" d="M 3184 3459 
L 2625 3416 
Q 2550 3747 2413 3897 
Q 2184 4138 1850 4138 
Q 1581 4138 1378 3988 
Q 1113 3794 959 3422 
Q 806 3050 800 2363 
Q 1003 2672 1297 2822 
Q 1591 2972 1913 2972 
Q 2475 2972 2870 2558 
Q 3266 2144 3266 1488 
Q 3266 1056 3080 686 
Q 2894 316 2569 119 
Q 2244 -78 1831 -78 
Q 1128 -78 684 439 
Q 241 956 241 2144 
Q 241 3472 731 4075 
Q 1159 4600 1884 4600 
Q 2425 4600 2770 4297 
Q 3116 3994 3184 3459 
z
M 888 1484 
Q 888 1194 1011 928 
Q 1134 663 1356 523 
Q 1578 384 1822 384 
Q 2178 384 2434 671 
Q 2691 959 2691 1453 
Q 2691 1928 2437 2201 
Q 2184 2475 1800 2475 
Q 1419 2475 1153 2201 
Q 888 1928 888 1484 
z
" transform="scale(0.015625)"/>
       </defs>
       <use xlink:href="#ArialMT-36"/>
       <use xlink:href="#ArialMT-3a" transform="translate(55.615234 0)"/>
       <use xlink:href="#ArialMT-30" transform="translate(83.398438 0)"/>
       <use xlink:href="#ArialMT-30" transform="translate(139.013672 0)"/>
      </g>
     </g>
    </g>
    <g id="xtick_7">
     <g id="line2d_48">
      <g>
       <use xlink:href="#mb2432eadc6" x="256.8475" y="257.76" style="stroke: #000000"/>
      </g>
     </g>
     <g id="text_7">
      <!-- 7:00 -->
      <g transform="translate(259.949688 289.613125) rotate(-90) scale(0.12 -0.12)">
       <defs>
        <path id="ArialMT-37" d="M 303 3981 
L 303 4522 
L 3269 4522 
L 3269 4084 
Q 2831 3619 2401 2847 
Q 1972 2075 1738 1259 
Q 1569 684 1522 0 
L 944 0 
Q 953 541 1156 1306 
Q 1359 2072 1739 2783 
Q 2119 3494 2547 3981 
L 303 3981 
z
" transform="scale(0.015625)"/>
       </defs>
       <use xlink:href="#ArialMT-37"/>
       <use xlink:href="#ArialMT-3a" transform="translate(55.615234 0)"/>
       <use xlink:href="#ArialMT-30" transform="translate(83.398438 0)"/>
       <use xlink:href="#ArialMT-30" transform="translate(139.013672 0)"/>
      </g>
     </g>
    </g>
    <g id="xtick_8">
     <g id="line2d_49">
      <g>
       <use xlink:href="#mb2432eadc6" x="284.7475" y="257.76" style="stroke: #000000"/>
      </g>
     </g>
     <g id="text_8">
      <!-- 8:00 -->
      <g transform="translate(287.849688 289.613125) rotate(-90) scale(0.12 -0.12)">
       <defs>
        <path id="ArialMT-38" d="M 1131 2484 
Q 781 2613 612 2850 
Q 444 3088 444 3419 
Q 444 3919 803 4259 
Q 1163 4600 1759 4600 
Q 2359 4600 2725 4251 
Q 3091 3903 3091 3403 
Q 3091 3084 2923 2848 
Q 2756 2613 2416 2484 
Q 2838 2347 3058 2040 
Q 3278 1734 3278 1309 
Q 3278 722 2862 322 
Q 2447 -78 1769 -78 
Q 1091 -78 675 323 
Q 259 725 259 1325 
Q 259 1772 486 2073 
Q 713 2375 1131 2484 
z
M 1019 3438 
Q 1019 3113 1228 2906 
Q 1438 2700 1772 2700 
Q 2097 2700 2305 2904 
Q 2513 3109 2513 3406 
Q 2513 3716 2298 3927 
Q 2084 4138 1766 4138 
Q 1444 4138 1231 3931 
Q 1019 3725 1019 3438 
z
M 838 1322 
Q 838 1081 952 856 
Q 1066 631 1291 507 
Q 1516 384 1775 384 
Q 2178 384 2440 643 
Q 2703 903 2703 1303 
Q 2703 1709 2433 1975 
Q 2163 2241 1756 2241 
Q 1359 2241 1098 1978 
Q 838 1716 838 1322 
z
" transform="scale(0.015625)"/>
       </defs>
       <use xlink:href="#ArialMT-38"/>
       <use xlink:href="#ArialMT-3a" transform="translate(55.615234 0)"/>
       <use xlink:href="#ArialMT-30" transform="translate(83.398438 0)"/>
       <use xlink:href="#ArialMT-30" transform="translate(139.013672 0)"/>
      </g>
     </g>
    </g>
    <g id="xtick_9">
     <g id="line2d_50">
      <g>
       <use xlink:href="#mb2432eadc6" x="312.6475" y="257.76" style="stroke: #000000"/>
      </g>
     </g>
     <g id="text_9">
      <!-- 9:00 -->
      <g transform="translate(315.749688 289.613125) rotate(-90) scale(0.12 -0.12)">
       <defs>
        <path id="ArialMT-39" d="M 350 1059 
L 891 1109 
Q 959 728 1153 556 
Q 1347 384 1650 384 
Q 1909 384 2104 503 
Q 2300 622 2425 820 
Q 2550 1019 2634 1356 
Q 2719 1694 2719 2044 
Q 2719 2081 2716 2156 
Q 2547 1888 2255 1720 
Q 1963 1553 1622 1553 
Q 1053 1553 659 1965 
Q 266 2378 266 3053 
Q 266 3750 677 4175 
Q 1088 4600 1706 4600 
Q 2153 4600 2523 4359 
Q 2894 4119 3086 3673 
Q 3278 3228 3278 2384 
Q 3278 1506 3087 986 
Q 2897 466 2520 194 
Q 2144 -78 1638 -78 
Q 1100 -78 759 220 
Q 419 519 350 1059 
z
M 2653 3081 
Q 2653 3566 2395 3850 
Q 2138 4134 1775 4134 
Q 1400 4134 1122 3828 
Q 844 3522 844 3034 
Q 844 2597 1108 2323 
Q 1372 2050 1759 2050 
Q 2150 2050 2401 2323 
Q 2653 2597 2653 3081 
z
" transform="scale(0.015625)"/>
       </defs>
       <use xlink:href="#ArialMT-39"/>
       <use xlink:href="#ArialMT-3a" transform="translate(55.615234 0)"/>
       <use xlink:href="#ArialMT-30" transform="translate(83.398438 0)"/>
       <use xlink:href="#ArialMT-30" transform="translate(139.013672 0)"/>
      </g>
     </g>
    </g>
    <g id="xtick_10">
     <g id="line2d_51">
      <g>
       <use xlink:href="#mb2432eadc6" x="340.5475" y="257.76" style="stroke: #000000"/>
      </g>
     </g>
     <g id="text_10">
      <!-- 10:00 -->
      <g transform="translate(343.649688 296.28625) rotate(-90) scale(0.12 -0.12)">
       <use xlink:href="#ArialMT-31"/>
       <use xlink:href="#ArialMT-30" transform="translate(55.615234 0)"/>
       <use xlink:href="#ArialMT-3a" transform="translate(111.230469 0)"/>
       <use xlink:href="#ArialMT-30" transform="translate(139.013672 0)"/>
       <use xlink:href="#ArialMT-30" transform="translate(194.628906 0)"/>
      </g>
     </g>
    </g>
    <g id="xtick_11">
     <g id="line2d_52">
      <g>
       <use xlink:href="#mb2432eadc6" x="368.4475" y="257.76" style="stroke: #000000"/>
      </g>
     </g>
     <g id="text_11">
      <!-- 11:00 -->
      <g transform="translate(371.549688 295.40125) rotate(-90) scale(0.12 -0.12)">
       <use xlink:href="#ArialMT-31"/>
       <use xlink:href="#ArialMT-31" transform="translate(48.240234 0)"/>
       <use xlink:href="#ArialMT-3a" transform="translate(103.855469 0)"/>
       <use xlink:href="#ArialMT-30" transform="translate(131.638672 0)"/>
       <use xlink:href="#ArialMT-30" transform="translate(187.253906 0)"/>
      </g>
     </g>
    </g>
    <g id="xtick_12">
     <g id="line2d_53">
      <g>
       <use xlink:href="#mb2432eadc6" x="396.3475" y="257.76" style="stroke: #000000"/>
      </g>
     </g>
     <g id="text_12">
      <!-- 12:00 -->
      <g transform="translate(399.449688 296.28625) rotate(-90) scale(0.12 -0.12)">
       <use xlink:href="#ArialMT-31"/>
       <use xlink:href="#ArialMT-32" transform="translate(55.615234 0)"/>
       <use xlink:href="#ArialMT-3a" transform="translate(111.230469 0)"/>
       <use xlink:href="#ArialMT-30" transform="translate(139.013672 0)"/>
       <use xlink:href="#ArialMT-30" transform="translate(194.628906 0)"/>
      </g>
     </g>
    </g>
    <g id="xtick_13">
     <g id="line2d_54">
      <g>
       <use xlink:href="#mb2432eadc6" x="424.2475" y="257.76" style="stroke: #000000"/>
      </g>
     </g>
     <g id="text_13">
      <!-- 13:00 -->
      <g transform="translate(427.349688 296.28625) rotate(-90) scale(0.12 -0.12)">
       <use xlink:href="#ArialMT-31"/>
       <use xlink:href="#ArialMT-33" transform="translate(55.615234 0)"/>
       <use xlink:href="#ArialMT-3a" transform="translate(111.230469 0)"/>
       <use xlink:href="#ArialMT-30" transform="translate(139.013672 0)"/>
       <use xlink:href="#ArialMT-30" transform="translate(194.628906 0)"/>
      </g>
     </g>
    </g>
    <g id="xtick_14">
     <g id="line2d_55">
      <g>
       <use xlink:href="#mb2432eadc6" x="452.1475" y="257.76" style="stroke: #000000"/>
      </g>
     </g>
     <g id="text_14">
      <!-- 14:00 -->
      <g transform="translate(455.249688 296.28625) rotate(-90) scale(0.12 -0.12)">
       <use xlink:href="#ArialMT-31"/>
       <use xlink:href="#ArialMT-34" transform="translate(55.615234 0)"/>
       <use xlink:href="#ArialMT-3a" transform="translate(111.230469 0)"/>
       <use xlink:href="#ArialMT-30" transform="translate(139.013672 0)"/>
       <use xlink:href="#ArialMT-30" transform="translate(194.628906 0)"/>
      </g>
     </g>
    </g>
    <g id="xtick_15">
     <g id="line2d_56">
      <g>
       <use xlink:href="#mb2432eadc6" x="480.0475" y="257.76" style="stroke: #000000"/>
      </g>
     </g>
     <g id="text_15">
      <!-- 15:00 -->
      <g transform="translate(483.149688 296.28625) rotate(-90) scale(0.12 -0.12)">
       <use xlink:href="#ArialMT-31"/>
       <use xlink:href="#ArialMT-35" transform="translate(55.615234 0)"/>
       <use xlink:href="#ArialMT-3a" transform="translate(111.230469 0)"/>
       <use xlink:href="#ArialMT-30" transform="translate(139.013672 0)"/>
       <use xlink:href="#ArialMT-30" transform="translate(194.628906 0)"/>
      </g>
     </g>
    </g>
    <g id="xtick_16">
     <g id="line2d_57">
      <g>
       <use xlink:href="#mb2432eadc6" x="507.9475" y="257.76" style="stroke: #000000"/>
      </g>
     </g>
     <g id="text_16">
      <!-- 16:00 -->
      <g transform="translate(511.049688 296.28625) rotate(-90) scale(0.12 -0.12)">
       <use xlink:href="#ArialMT-31"/>
       <use xlink:href="#ArialMT-36" transform="translate(55.615234 0)"/>
       <use xlink:href="#ArialMT-3a" transform="translate(111.230469 0)"/>
       <use xlink:href="#ArialMT-30" transform="translate(139.013672 0)"/>
       <use xlink:href="#ArialMT-30" transform="translate(194.628906 0)"/>
      </g>
     </g>
    </g>
    <g id="xtick_17">
     <g id="line2d_58">
      <g>
       <use xlink:href="#mb2432eadc6" x="535.8475" y="257.76" style="stroke: #000000"/>
      </g>
     </g>
     <g id="text_17">
      <!-- 17:00 -->
      <g transform="translate(538.949688 296.28625) rotate(-90) scale(0.12 -0.12)">
       <use xlink:href="#ArialMT-31"/>
       <use xlink:href="#ArialMT-37" transform="translate(55.615234 0)"/>
       <use xlink:href="#ArialMT-3a" transform="translate(111.230469 0)"/>
       <use xlink:href="#ArialMT-30" transform="translate(139.013672 0)"/>
       <use xlink:href="#ArialMT-30" transform="translate(194.628906 0)"/>
      </g>
     </g>
    </g>
    <g id="xtick_18">
     <g id="line2d_59">
      <g>
       <use xlink:href="#mb2432eadc6" x="563.7475" y="257.76" style="stroke: #000000"/>
      </g>
     </g>
     <g id="text_18">
      <!-- 18:00 -->
      <g transform="translate(566.849688 296.28625) rotate(-90) scale(0.12 -0.12)">
       <use xlink:href="#ArialMT-31"/>
       <use xlink:href="#ArialMT-38" transform="translate(55.615234 0)"/>
       <use xlink:href="#ArialMT-3a" transform="translate(111.230469 0)"/>
       <use xlink:href="#ArialMT-30" transform="translate(139.013672 0)"/>
       <use xlink:href="#ArialMT-30" transform="translate(194.628906 0)"/>
      </g>
     </g>
    </g>
    <g id="xtick_19">
     <g id="line2d_60">
      <g>
       <use xlink:href="#mb2432eadc6" x="591.6475" y="257.76" style="stroke: #000000"/>
      </g>
     </g>
     <g id="text_19">
      <!-- 19:00 -->
      <g transform="translate(594.749688 296.28625) rotate(-90) scale(0.12 -0.12)">
       <use xlink:href="#ArialMT-31"/>
       <use xlink:href="#ArialMT-39" transform="translate(55.615234 0)"/>
       <use xlink:href="#ArialMT-3a" transform="translate(111.230469 0)"/>
       <use xlink:href="#ArialMT-30" transform="translate(139.013672 0)"/>
       <use xlink:href="#ArialMT-30" transform="translate(194.628906 0)"/>
      </g>
     </g>
    </g>
    <g id="xtick_20">
     <g id="line2d_61">
      <g>
       <use xlink:href="#mb2432eadc6" x="619.5475" y="257.76" style="stroke: #000000"/>
      </g>
     </g>
     <g id="text_20">
      <!-- 20:00 -->
      <g transform="translate(622.649688 296.28625) rotate(-90) scale(0.12 -0.12)">
       <use xlink:href="#ArialMT-32"/>
       <use xlink:href="#ArialMT-30" transform="translate(55.615234 0)"/>
       <use xlink:href="#ArialMT-3a" transform="translate(111.230469 0)"/>
       <use xlink:href="#ArialMT-30" transform="translate(139.013672 0)"/>
       <use xlink:href="#ArialMT-30" transform="translate(194.628906 0)"/>
      </g>
     </g>
    </g>
    <g id="xtick_21">
     <g id="line2d_62">
      <g>
       <use xlink:href="#mb2432eadc6" x="647.4475" y="257.76" style="stroke: #000000"/>
      </g>
     </g>
     <g id="text_21">
      <!-- 21:00 -->
      <g transform="translate(650.549688 296.28625) rotate(-90) scale(0.12 -0.12)">
       <use xlink:href="#ArialMT-32"/>
       <use xlink:href="#ArialMT-31" transform="translate(55.615234 0)"/>
       <use xlink:href="#ArialMT-3a" transform="translate(111.230469 0)"/>
       <use xlink:href="#ArialMT-30" transform="translate(139.013672 0)"/>
       <use xlink:href="#ArialMT-30" transform="translate(194.628906 0)"/>
      </g>
     </g>
    </g>
    <g id="xtick_22">
     <g id="line2d_63">
      <g>
       <use xlink:href="#mb2432eadc6" x="675.3475" y="257.76" style="stroke: #000000"/>
      </g>
     </g>
     <g id="text_22">
      <!-- 22:00 -->
      <g transform="translate(678.449688 296.28625) rotate(-90) scale(0.12 -0.12)">
       <use xlink:href="#ArialMT-32"/>
       <use xlink:href="#ArialMT-32" transform="translate(55.615234 0)"/>
       <use xlink:href="#ArialMT-3a" transform="translate(111.230469 0)"/>
       <use xlink:href="#ArialMT-30" transform="translate(139.013672 0)"/>
       <use xlink:href="#ArialMT-30" transform="translate(194.628906 0)"/>
      </g>
     </g>
    </g>
    <g id="xtick_23">
     <g id="line2d_64">
      <g>
       <use xlink:href="#mb2432eadc6" x="703.2475" y="257.76" style="stroke: #000000"/>
      </g>
     </g>
     <g id="text_23">
      <!-- 23:00 -->
      <g transform="translate(706.349688 296.28625) rotate(-90) scale(0.12 -0.12)">
       <use xlink:href="#ArialMT-32"/>
       <use xlink:href="#ArialMT-33" transform="translate(55.615234 0)"/>
       <use xlink:href="#ArialMT-3a" transform="translate(111.230469 0)"/>
       <use xlink:href="#ArialMT-30" transform="translate(139.013672 0)"/>
       <use xlink:href="#ArialMT-30" transform="translate(194.628906 0)"/>
      </g>
     </g>
    </g>
    <g id="xtick_24">
     <g id="line2d_65">
      <g>
       <use xlink:href="#mb2432eadc6" x="731.1475" y="257.76" style="stroke: #000000"/>
      </g>
     </g>
     <g id="text_24">
      <!-- 24:00 -->
      <g transform="translate(734.249688 296.28625) rotate(-90) scale(0.12 -0.12)">
       <use xlink:href="#ArialMT-32"/>
       <use xlink:href="#ArialMT-34" transform="translate(55.615234 0)"/>
       <use xlink:href="#ArialMT-3a" transform="translate(111.230469 0)"/>
       <use xlink:href="#ArialMT-30" transform="translate(139.013672 0)"/>
       <use xlink:href="#ArialMT-30" transform="translate(194.628906 0)"/>
      </g>
     </g>
    </g>
   </g>
   <g id="matplotlib.axis_2">
    <g id="ytick_1">
     <g id="line2d_66">
      <defs>
       <path id="m75d4ad3819" d="M 0 0 
L -5 0 
" style="stroke: #000000; stroke-opacity: 0; stroke-width: 1.5"/>
      </defs>
      <g>
       <use xlink:href="#m75d4ad3819" x="75.4975" y="244.715294" style="fill-opacity: 0; stroke: #000000; stroke-opacity: 0; stroke-width: 1.5"/>
      </g>
     </g>
     <g id="text_25">
      <!-- 0 -->
      <g transform="translate(58.1 250.441544) scale(0.16 -0.16)">
       <use xlink:href="#ArialMT-30"/>
      </g>
     </g>
    </g>
    <g id="ytick_2">
     <g id="line2d_67">
      <g>
       <use xlink:href="#m75d4ad3819" x="75.4975" y="179.491765" style="fill-opacity: 0; stroke: #000000; stroke-opacity: 0; stroke-width: 1.5"/>
      </g>
     </g>
     <g id="text_26">
      <!-- 1 -->
      <g transform="translate(58.1 185.218015) scale(0.16 -0.16)">
       <use xlink:href="#ArialMT-31"/>
      </g>
     </g>
    </g>
    <g id="ytick_3">
     <g id="line2d_68">
      <g>
       <use xlink:href="#m75d4ad3819" x="75.4975" y="114.268235" style="fill-opacity: 0; stroke: #000000; stroke-opacity: 0; stroke-width: 1.5"/>
      </g>
     </g>
     <g id="text_27">
      <!-- 2 -->
      <g transform="translate(58.1 119.994485) scale(0.16 -0.16)">
       <use xlink:href="#ArialMT-32"/>
      </g>
     </g>
    </g>
    <g id="ytick_4">
     <g id="line2d_69">
      <g>
       <use xlink:href="#m75d4ad3819" x="75.4975" y="49.044706" style="fill-opacity: 0; stroke: #000000; stroke-opacity: 0; stroke-width: 1.5"/>
      </g>
     </g>
     <g id="text_28">
      <!-- 3 -->
      <g transform="translate(58.1 54.770956) scale(0.16 -0.16)">
       <use xlink:href="#ArialMT-33"/>
      </g>
     </g>
    </g>
    <g id="text_29">
     <!-- CO$_{\mathregular{2}}$ (ton) -->
     <g transform="translate(49.14 185.31) rotate(-90) scale(0.18 -0.18)">
      <defs>
       <path id="ArialMT-43" d="M 3763 1606 
L 4369 1453 
Q 4178 706 3683 314 
Q 3188 -78 2472 -78 
Q 1731 -78 1267 223 
Q 803 525 561 1097 
Q 319 1669 319 2325 
Q 319 3041 592 3573 
Q 866 4106 1370 4382 
Q 1875 4659 2481 4659 
Q 3169 4659 3637 4309 
Q 4106 3959 4291 3325 
L 3694 3184 
Q 3534 3684 3231 3912 
Q 2928 4141 2469 4141 
Q 1941 4141 1586 3887 
Q 1231 3634 1087 3207 
Q 944 2781 944 2328 
Q 944 1744 1114 1308 
Q 1284 872 1643 656 
Q 2003 441 2422 441 
Q 2931 441 3284 734 
Q 3638 1028 3763 1606 
z
" transform="scale(0.015625)"/>
       <path id="ArialMT-4f" d="M 309 2231 
Q 309 3372 921 4017 
Q 1534 4663 2503 4663 
Q 3138 4663 3647 4359 
Q 4156 4056 4423 3514 
Q 4691 2972 4691 2284 
Q 4691 1588 4409 1038 
Q 4128 488 3612 205 
Q 3097 -78 2500 -78 
Q 1853 -78 1343 234 
Q 834 547 571 1087 
Q 309 1628 309 2231 
z
M 934 2222 
Q 934 1394 1379 917 
Q 1825 441 2497 441 
Q 3181 441 3623 922 
Q 4066 1403 4066 2288 
Q 4066 2847 3877 3264 
Q 3688 3681 3323 3911 
Q 2959 4141 2506 4141 
Q 1863 4141 1398 3698 
Q 934 3256 934 2222 
z
" transform="scale(0.015625)"/>
       <path id="ArialMT-20" transform="scale(0.015625)"/>
       <path id="ArialMT-28" d="M 1497 -1347 
Q 1031 -759 709 28 
Q 388 816 388 1659 
Q 388 2403 628 3084 
Q 909 3875 1497 4659 
L 1900 4659 
Q 1522 4009 1400 3731 
Q 1209 3300 1100 2831 
Q 966 2247 966 1656 
Q 966 153 1900 -1347 
L 1497 -1347 
z
" transform="scale(0.015625)"/>
       <path id="ArialMT-74" d="M 1650 503 
L 1731 6 
Q 1494 -44 1306 -44 
Q 1000 -44 831 53 
Q 663 150 594 308 
Q 525 466 525 972 
L 525 2881 
L 113 2881 
L 113 3319 
L 525 3319 
L 525 4141 
L 1084 4478 
L 1084 3319 
L 1650 3319 
L 1650 2881 
L 1084 2881 
L 1084 941 
Q 1084 700 1114 631 
Q 1144 563 1211 522 
Q 1278 481 1403 481 
Q 1497 481 1650 503 
z
" transform="scale(0.015625)"/>
       <path id="ArialMT-6f" d="M 213 1659 
Q 213 2581 725 3025 
Q 1153 3394 1769 3394 
Q 2453 3394 2887 2945 
Q 3322 2497 3322 1706 
Q 3322 1066 3130 698 
Q 2938 331 2570 128 
Q 2203 -75 1769 -75 
Q 1072 -75 642 372 
Q 213 819 213 1659 
z
M 791 1659 
Q 791 1022 1069 705 
Q 1347 388 1769 388 
Q 2188 388 2466 706 
Q 2744 1025 2744 1678 
Q 2744 2294 2464 2611 
Q 2184 2928 1769 2928 
Q 1347 2928 1069 2612 
Q 791 2297 791 1659 
z
" transform="scale(0.015625)"/>
       <path id="ArialMT-6e" d="M 422 0 
L 422 3319 
L 928 3319 
L 928 2847 
Q 1294 3394 1984 3394 
Q 2284 3394 2536 3286 
Q 2788 3178 2913 3003 
Q 3038 2828 3088 2588 
Q 3119 2431 3119 2041 
L 3119 0 
L 2556 0 
L 2556 2019 
Q 2556 2363 2490 2533 
Q 2425 2703 2258 2804 
Q 2091 2906 1866 2906 
Q 1506 2906 1245 2678 
Q 984 2450 984 1813 
L 984 0 
L 422 0 
z
" transform="scale(0.015625)"/>
       <path id="ArialMT-29" d="M 791 -1347 
L 388 -1347 
Q 1322 153 1322 1656 
Q 1322 2244 1188 2822 
Q 1081 3291 891 3722 
Q 769 4003 388 4659 
L 791 4659 
Q 1378 3875 1659 3084 
Q 1900 2403 1900 1659 
Q 1900 816 1576 28 
Q 1253 -759 791 -1347 
z
" transform="scale(0.015625)"/>
      </defs>
      <use xlink:href="#ArialMT-43" transform="translate(0 0.140625)"/>
      <use xlink:href="#ArialMT-4f" transform="translate(72.216797 0.140625)"/>
      <use xlink:href="#ArialMT-32" transform="translate(150.957031 -16.265625) scale(0.7)"/>
      <use xlink:href="#ArialMT-20" transform="translate(192.62207 0.140625)"/>
      <use xlink:href="#ArialMT-28" transform="translate(220.405273 0.140625)"/>
      <use xlink:href="#ArialMT-74" transform="translate(253.706055 0.140625)"/>
      <use xlink:href="#ArialMT-6f" transform="translate(281.489258 0.140625)"/>
      <use xlink:href="#ArialMT-6e" transform="translate(337.104492 0.140625)"/>
      <use xlink:href="#ArialMT-29" transform="translate(392.719727 0.140625)"/>
     </g>
    </g>
   </g>
   <g id="line2d_70">
    <path d="M 89.4475 238.340591 
L 117.3475 241.004638 
L 145.2475 241.594846 
L 173.1475 241.371434 
L 201.0475 238.072921 
L 228.9475 221.849953 
L 256.8475 205.150486 
L 284.7475 182.321348 
L 312.6475 173.741572 
L 340.5475 170.347241 
L 368.4475 168.065197 
L 396.3475 165.328955 
L 424.2475 164.380062 
L 452.1475 164.172258 
L 480.0475 163.282329 
L 507.9475 162.013345 
L 535.8475 161.842293 
L 563.7475 163.49489 
L 591.6475 170.660865 
L 619.5475 183.888048 
L 647.4475 197.799459 
L 675.3475 213.519059 
L 703.2475 229.242348 
L 731.1475 234.891602 
" clip-path="url(#p28814ef256)" style="fill: none; stroke: #1f77b4; stroke-opacity: 0.8; stroke-width: 1.5; stroke-linecap: round"/>
   </g>
   <g id="line2d_71">
    <path d="M 89.4475 238.55908 
L 117.3475 240.791276 
L 145.2475 241.255687 
L 173.1475 241.102461 
L 201.0475 238.47126 
L 228.9475 225.107802 
L 256.8475 209.491342 
L 284.7475 191.189144 
L 312.6475 185.001683 
L 340.5475 182.731617 
L 368.4475 182.034329 
L 396.3475 179.282646 
L 424.2475 178.237955 
L 452.1475 177.914415 
L 480.0475 177.012813 
L 507.9475 175.420276 
L 535.8475 175.099479 
L 563.7475 176.570432 
L 591.6475 182.044971 
L 619.5475 194.366818 
L 647.4475 206.310407 
L 675.3475 218.895088 
L 703.2475 230.908608 
L 731.1475 235.664244 
" clip-path="url(#p28814ef256)" style="fill: none; stroke: #dbdb8d; stroke-opacity: 0.8; stroke-width: 1.5; stroke-linecap: round"/>
   </g>
   <g id="line2d_72">
    <path d="M 89.4475 189.323126 
L 117.3475 203.889718 
L 145.2475 206.700629 
L 173.1475 206.118304 
L 201.0475 195.711578 
L 228.9475 149.753997 
L 256.8475 106.387048 
L 284.7475 94.812382 
L 312.6475 90.202998 
L 340.5475 86.789197 
L 368.4475 83.795303 
L 396.3475 80.18359 
L 424.2475 79.41128 
L 452.1475 78.521647 
L 480.0475 77.614361 
L 507.9475 75.791354 
L 535.8475 76.036961 
L 563.7475 77.947624 
L 591.6475 86.507048 
L 619.5475 97.062106 
L 647.4475 95.808737 
L 675.3475 114.069882 
L 703.2475 143.619012 
L 731.1475 164.070111 
" clip-path="url(#p28814ef256)" style="fill: none; stroke: #ffbb78; stroke-opacity: 0.8; stroke-width: 1.5; stroke-linecap: round"/>
   </g>
   <g id="line2d_73">
    <path d="M 89.4475 185.212793 
L 117.3475 201.034986 
L 145.2475 203.964509 
L 173.1475 202.249923 
L 201.0475 191.331921 
L 228.9475 135.844991 
L 256.8475 102.038736 
L 284.7475 93.917324 
L 312.6475 89.550032 
L 340.5475 86.620099 
L 368.4475 82.444988 
L 396.3475 78.491151 
L 424.2475 77.475902 
L 452.1475 77.601774 
L 480.0475 76.866472 
L 507.9475 75.872791 
L 535.8475 75.61986 
L 563.7475 77.262381 
L 591.6475 86.123317 
L 619.5475 97.685862 
L 647.4475 107.652212 
L 675.3475 100.869802 
L 703.2475 134.125897 
L 731.1475 156.745669 
" clip-path="url(#p28814ef256)" style="fill: none; stroke: #2ca02c; stroke-opacity: 0.8; stroke-width: 1.5; stroke-linecap: round"/>
   </g>
   <g id="line2d_74">
    <path d="M 89.4475 242.498683 
L 117.3475 243.632577 
L 145.2475 243.893116 
L 173.1475 243.807983 
L 201.0475 242.454132 
L 228.9475 221.706947 
L 256.8475 202.903446 
L 284.7475 180.895738 
L 312.6475 172.211529 
L 340.5475 168.231802 
L 368.4475 165.407595 
L 396.3475 162.150823 
L 424.2475 161.286619 
L 452.1475 161.213147 
L 480.0475 160.263793 
L 507.9475 158.078453 
L 535.8475 158.655569 
L 563.7475 161.053811 
L 591.6475 168.694854 
L 619.5475 184.097323 
L 647.4475 200.303746 
L 675.3475 216.293987 
L 703.2475 236.18014 
L 731.1475 240.375352 
" clip-path="url(#p28814ef256)" style="fill: none; stroke: #ff7f0e; stroke-opacity: 0.8; stroke-width: 1.5; stroke-linecap: round"/>
   </g>
   <g id="line2d_75">
    <path d="M 89.4475 201.609307 
L 117.3475 214.41206 
L 145.2475 216.831139 
L 173.1475 215.596922 
L 201.0475 204.50676 
L 228.9475 152.205642 
L 256.8475 105.826905 
L 284.7475 94.577549 
L 312.6475 90.175284 
L 340.5475 87.492298 
L 368.4475 84.509536 
L 396.3475 80.631875 
L 424.2475 78.820064 
L 452.1475 78.658699 
L 480.0475 76.973938 
L 507.9475 75.531525 
L 535.8475 75.474667 
L 563.7475 77.40797 
L 591.6475 87.045803 
L 619.5475 97.63991 
L 647.4475 95.988082 
L 675.3475 119.867259 
L 703.2475 154.80512 
L 731.1475 177.547074 
" clip-path="url(#p28814ef256)" style="fill: none; stroke: #98df8a; stroke-opacity: 0.8; stroke-width: 1.5; stroke-linecap: round"/>
   </g>
   <g id="line2d_76">
    <path d="M 89.4475 242.142367 
L 117.3475 243.688981 
L 145.2475 243.986863 
L 173.1475 243.944127 
L 201.0475 241.976268 
L 228.9475 225.36525 
L 256.8475 208.316411 
L 284.7475 185.843801 
L 312.6475 175.2303 
L 340.5475 171.521357 
L 368.4475 168.35127 
L 396.3475 165.329845 
L 424.2475 164.227435 
L 452.1475 164.34913 
L 480.0475 163.358454 
L 507.9475 161.871407 
L 535.8475 162.116376 
L 563.7475 164.505318 
L 591.6475 170.002013 
L 619.5475 189.91651 
L 647.4475 205.026402 
L 675.3475 219.875637 
L 703.2475 235.858837 
L 731.1475 239.888121 
" clip-path="url(#p28814ef256)" style="fill: none; stroke: #17becf; stroke-opacity: 0.8; stroke-width: 1.5; stroke-linecap: round"/>
   </g>
   <g id="line2d_77">
    <path d="M 89.4475 204.095059 
L 117.3475 217.212594 
L 145.2475 219.432861 
L 173.1475 216.161161 
L 201.0475 201.044378 
L 228.9475 133.980845 
L 256.8475 87.51727 
L 284.7475 78.533635 
L 312.6475 75.327015 
L 340.5475 73.357644 
L 368.4475 70.901017 
L 396.3475 65.061951 
L 424.2475 63.110821 
L 452.1475 61.936012 
L 480.0475 60.100791 
L 507.9475 59.570485 
L 535.8475 60.714567 
L 563.7475 63.209513 
L 591.6475 72.587303 
L 619.5475 85.404302 
L 647.4475 86.552998 
L 675.3475 107.062798 
L 703.2475 150.22746 
L 731.1475 175.993698 
" clip-path="url(#p28814ef256)" style="fill: none; stroke: #d62728; stroke-opacity: 0.8; stroke-width: 1.5; stroke-linecap: round"/>
   </g>
   <g id="line2d_78">
    <path d="M 89.4475 226.127726 
L 117.3475 233.049651 
L 145.2475 234.233446 
L 173.1475 233.038137 
L 201.0475 226.111455 
L 228.9475 189.245923 
L 256.8475 154.390307 
L 284.7475 141.33192 
L 312.6475 137.346986 
L 340.5475 135.214699 
L 368.4475 132.693316 
L 396.3475 129.457421 
L 424.2475 128.163551 
L 452.1475 127.628245 
L 480.0475 126.220636 
L 507.9475 124.972677 
L 535.8475 124.275179 
L 563.7475 126.47064 
L 591.6475 135.32652 
L 619.5475 147.106578 
L 647.4475 148.658129 
L 675.3475 170.849639 
L 703.2475 200.406296 
L 731.1475 214.10055 
" clip-path="url(#p28814ef256)" style="fill: none; stroke: #9edae5; stroke-opacity: 0.8; stroke-width: 1.5; stroke-linecap: round"/>
   </g>
   <g id="line2d_79">
    <path d="M 89.4475 213.684656 
L 117.3475 223.53616 
L 145.2475 224.949567 
L 173.1475 221.370076 
L 201.0475 205.478062 
L 228.9475 154.999779 
L 256.8475 110.469629 
L 284.7475 86.138905 
L 312.6475 107.175184 
L 340.5475 108.787044 
L 368.4475 105.99229 
L 396.3475 101.750228 
L 424.2475 99.598492 
L 452.1475 97.951205 
L 480.0475 96.424661 
L 507.9475 95.123404 
L 535.8475 96.140285 
L 563.7475 98.993438 
L 591.6475 108.611037 
L 619.5475 88.305521 
L 647.4475 110.964279 
L 675.3475 140.277717 
L 703.2475 172.048705 
L 731.1475 193.266479 
" clip-path="url(#p28814ef256)" style="fill: none; stroke: #9edae5; stroke-opacity: 0.8; stroke-width: 1.5; stroke-linecap: round"/>
   </g>
   <g id="line2d_80">
    <path d="M 89.4475 243.080492 
L 117.3475 244.173205 
L 145.2475 244.248898 
L 173.1475 244.381 
L 201.0475 242.644781 
L 228.9475 226.903071 
L 256.8475 211.035795 
L 284.7475 190.758972 
L 312.6475 184.425918 
L 340.5475 178.761003 
L 368.4475 172.020115 
L 396.3475 171.567401 
L 424.2475 170.711825 
L 452.1475 170.190342 
L 480.0475 168.606045 
L 507.9475 166.566123 
L 535.8475 167.024377 
L 563.7475 169.831566 
L 591.6475 172.747819 
L 619.5475 192.651362 
L 647.4475 207.388347 
L 675.3475 221.115366 
L 703.2475 237.488576 
L 731.1475 241.222953 
" clip-path="url(#p28814ef256)" style="fill: none; stroke: #f7b6d2; stroke-opacity: 0.8; stroke-width: 1.5; stroke-linecap: round"/>
   </g>
   <g id="line2d_81">
    <path d="M 89.4475 236.216082 
L 117.3475 239.428167 
L 145.2475 239.976392 
L 173.1475 239.818109 
L 201.0475 236.173873 
L 228.9475 210.14838 
L 256.8475 180.250142 
L 284.7475 148.247521 
L 312.6475 141.660382 
L 340.5475 136.333841 
L 368.4475 135.327994 
L 396.3475 132.000454 
L 424.2475 131.244626 
L 452.1475 129.726169 
L 480.0475 127.888322 
L 507.9475 125.527069 
L 535.8475 126.228285 
L 563.7475 129.111582 
L 591.6475 139.083698 
L 619.5475 154.974626 
L 647.4475 175.483792 
L 675.3475 198.706208 
L 703.2475 222.350738 
L 731.1475 231.3312 
" clip-path="url(#p28814ef256)" style="fill: none; stroke: #7f7f7f; stroke-opacity: 0.8; stroke-width: 1.5; stroke-linecap: round"/>
   </g>
   <g id="line2d_82">
    <path d="M 89.4475 240.736634 
L 117.3475 242.810714 
L 145.2475 243.210802 
L 173.1475 243.238594 
L 201.0475 240.132239 
L 228.9475 219.8698 
L 256.8475 199.15181 
L 284.7475 169.427816 
L 312.6475 162.069488 
L 340.5475 156.551886 
L 368.4475 152.753084 
L 396.3475 149.10814 
L 424.2475 147.927052 
L 452.1475 146.992985 
L 480.0475 145.948957 
L 507.9475 143.85913 
L 535.8475 143.905446 
L 563.7475 146.969797 
L 591.6475 156.1259 
L 619.5475 173.393226 
L 647.4475 192.304828 
L 675.3475 212.789248 
L 703.2475 232.085778 
L 731.1475 237.730483 
" clip-path="url(#p28814ef256)" style="fill: none; stroke: #1f77b4; stroke-opacity: 0.8; stroke-width: 1.5; stroke-linecap: round"/>
   </g>
   <g id="line2d_83">
    <path d="M 89.4475 240.867027 
L 117.3475 243.270352 
L 145.2475 243.756693 
L 173.1475 243.57295 
L 201.0475 239.953241 
L 228.9475 216.610855 
L 256.8475 192.127787 
L 284.7475 162.89442 
L 312.6475 155.591588 
L 340.5475 149.484643 
L 368.4475 146.73711 
L 396.3475 143.525349 
L 424.2475 142.963113 
L 452.1475 142.372283 
L 480.0475 138.823411 
L 507.9475 135.205759 
L 535.8475 135.154472 
L 563.7475 138.510872 
L 591.6475 148.130042 
L 619.5475 167.64863 
L 647.4475 189.159896 
L 675.3475 210.89874 
L 703.2475 231.449205 
L 731.1475 237.500592 
" clip-path="url(#p28814ef256)" style="fill: none; stroke: #bcbd22; stroke-opacity: 0.8; stroke-width: 1.5; stroke-linecap: round"/>
   </g>
   <g id="line2d_84">
    <path d="M 89.4475 242.721436 
L 117.3475 243.8627 
L 145.2475 244.082543 
L 173.1475 244.039015 
L 201.0475 242.318594 
L 228.9475 226.803119 
L 256.8475 213.314508 
L 284.7475 192.114054 
L 312.6475 188.524373 
L 340.5475 182.376775 
L 368.4475 176.292075 
L 396.3475 173.383453 
L 424.2475 173.352768 
L 452.1475 171.75847 
L 480.0475 168.965517 
L 507.9475 165.965316 
L 535.8475 166.307244 
L 563.7475 168.749636 
L 591.6475 178.023224 
L 619.5475 193.703863 
L 647.4475 208.854244 
L 675.3475 223.875283 
L 703.2475 236.963039 
L 731.1475 240.982175 
" clip-path="url(#p28814ef256)" style="fill: none; stroke: #8c564b; stroke-opacity: 0.8; stroke-width: 1.5; stroke-linecap: round"/>
   </g>
   <g id="line2d_85">
    <path d="M 89.4475 241.837316 
L 117.3475 243.277135 
L 145.2475 243.569416 
L 173.1475 243.371001 
L 201.0475 240.690518 
L 228.9475 221.888785 
L 256.8475 199.158483 
L 284.7475 174.73776 
L 312.6475 168.417692 
L 340.5475 163.917354 
L 368.4475 158.935123 
L 396.3475 155.66492 
L 424.2475 154.376091 
L 452.1475 153.293357 
L 480.0475 150.594957 
L 507.9475 147.638354 
L 535.8475 148.122857 
L 563.7475 151.700433 
L 591.6475 160.921405 
L 619.5475 184.266689 
L 647.4475 201.718707 
L 675.3475 219.064002 
L 703.2475 235.34178 
L 731.1475 239.492447 
" clip-path="url(#p28814ef256)" style="fill: none; stroke: #c7c7c7; stroke-opacity: 0.8; stroke-width: 1.5; stroke-linecap: round"/>
   </g>
   <g id="line2d_86">
    <path d="M 89.4475 236.242452 
L 117.3475 239.437076 
L 145.2475 240.099418 
L 173.1475 239.80677 
L 201.0475 235.590801 
L 228.9475 211.98956 
L 256.8475 186.16965 
L 284.7475 156.848666 
L 312.6475 149.734684 
L 340.5475 145.122342 
L 368.4475 145.03053 
L 396.3475 141.83103 
L 424.2475 140.296757 
L 452.1475 138.552759 
L 480.0475 135.093179 
L 507.9475 131.6919 
L 535.8475 132.224502 
L 563.7475 135.238855 
L 591.6475 145.714497 
L 619.5475 160.767857 
L 647.4475 181.520522 
L 675.3475 202.907524 
L 703.2475 224.413371 
L 731.1475 231.726513 
" clip-path="url(#p28814ef256)" style="fill: none; stroke: #9467bd; stroke-opacity: 0.8; stroke-width: 1.5; stroke-linecap: round"/>
   </g>
   <g id="line2d_87">
    <path d="M 89.4475 242.392121 
L 117.3475 243.816058 
L 145.2475 244.161704 
L 173.1475 244.095348 
L 201.0475 241.769117 
L 228.9475 222.905369 
L 256.8475 204.920466 
L 284.7475 181.530083 
L 312.6475 175.707899 
L 340.5475 169.037953 
L 368.4475 166.072589 
L 396.3475 162.917521 
L 424.2475 162.767696 
L 452.1475 162.226507 
L 480.0475 160.418007 
L 507.9475 158.520581 
L 535.8475 158.679329 
L 563.7475 161.583735 
L 591.6475 168.936845 
L 619.5475 183.947894 
L 647.4475 201.704968 
L 675.3475 218.965139 
L 703.2475 237.05214 
L 731.1475 240.569498 
" clip-path="url(#p28814ef256)" style="fill: none; stroke: #e377c2; stroke-opacity: 0.8; stroke-width: 1.5; stroke-linecap: round"/>
   </g>
   <g id="line2d_88">
    <path d="M 89.4475 242.95859 
L 117.3475 244.170939 
L 145.2475 244.473596 
L 173.1475 244.41439 
L 201.0475 242.328478 
L 228.9475 225.427243 
L 256.8475 207.94836 
L 284.7475 182.910743 
L 312.6475 176.779586 
L 340.5475 169.907936 
L 368.4475 161.304545 
L 396.3475 158.459393 
L 424.2475 157.793325 
L 452.1475 157.684801 
L 480.0475 154.623176 
L 507.9475 151.797042 
L 535.8475 150.119205 
L 563.7475 153.652248 
L 591.6475 161.107517 
L 619.5475 186.576483 
L 647.4475 205.468151 
L 675.3475 222.11886 
L 703.2475 237.388974 
L 731.1475 241.052007 
" clip-path="url(#p28814ef256)" style="fill: none; stroke: #c49c94; stroke-opacity: 0.8; stroke-width: 1.5; stroke-linecap: round"/>
   </g>
   <g id="line2d_89">
    <path d="M 89.4475 241.44621 
L 117.3475 243.421236 
L 145.2475 243.936373 
L 173.1475 243.861248 
L 201.0475 240.572859 
L 228.9475 221.44002 
L 256.8475 201.468689 
L 284.7475 174.879453 
L 312.6475 167.737407 
L 340.5475 161.126503 
L 368.4475 151.177106 
L 396.3475 148.089687 
L 424.2475 145.902178 
L 452.1475 144.569236 
L 480.0475 142.300759 
L 507.9475 139.965004 
L 535.8475 140.114011 
L 563.7475 144.453176 
L 591.6475 150.329494 
L 619.5475 178.15819 
L 647.4475 197.554844 
L 675.3475 217.657115 
L 703.2475 232.816779 
L 731.1475 238.566419 
" clip-path="url(#p28814ef256)" style="fill: none; stroke: #c5b0d5; stroke-opacity: 0.8; stroke-width: 1.5; stroke-linecap: round"/>
   </g>
   <g id="line2d_90">
    <path d="M 89.4475 241.362543 
L 117.3475 243.83396 
L 145.2475 244.327478 
L 173.1475 244.153397 
L 201.0475 240.145366 
L 228.9475 214.062214 
L 256.8475 193.243994 
L 284.7475 163.912837 
L 312.6475 158.058483 
L 340.5475 150.826394 
L 368.4475 142.802842 
L 396.3475 139.009553 
L 424.2475 137.694794 
L 452.1475 137.093265 
L 480.0475 134.18354 
L 507.9475 130.94299 
L 535.8475 130.964076 
L 563.7475 134.519778 
L 591.6475 140.609839 
L 619.5475 168.215759 
L 647.4475 188.127941 
L 675.3475 209.833409 
L 703.2475 232.974964 
L 731.1475 238.423053 
" clip-path="url(#p28814ef256)" style="fill: none; stroke: #ff9896; stroke-opacity: 0.8; stroke-width: 1.5; stroke-linecap: round"/>
   </g>
   <g id="line2d_91">
    <path d="M 89.4475 235.151445 
L 117.3475 239.167052 
L 145.2475 240.145823 
L 173.1475 239.63354 
L 201.0475 234.100736 
L 228.9475 212.374814 
L 256.8475 189.562123 
L 284.7475 160.404798 
L 312.6475 153.318234 
L 340.5475 147.969692 
L 368.4475 143.83456 
L 396.3475 140.832056 
L 424.2475 139.872194 
L 452.1475 137.75927 
L 480.0475 133.543941 
L 507.9475 129.448949 
L 535.8475 129.036166 
L 563.7475 133.292561 
L 591.6475 143.866927 
L 619.5475 159.544689 
L 647.4475 181.534862 
L 675.3475 202.44704 
L 703.2475 221.838968 
L 731.1475 229.990556 
" clip-path="url(#p28814ef256)" style="fill: none; stroke: #aec7e8; stroke-opacity: 0.8; stroke-width: 1.5; stroke-linecap: round"/>
   </g>
   <g id="line2d_92">
    <path d="M 89.4475 240.81727 
L 117.3475 243.393237 
L 145.2475 244.026148 
L 173.1475 244.034628 
L 201.0475 240.170936 
L 228.9475 213.982511 
L 256.8475 192.979738 
L 284.7475 164.768352 
L 312.6475 155.024351 
L 340.5475 147.475292 
L 368.4475 138.918768 
L 396.3475 134.26076 
L 424.2475 132.572052 
L 452.1475 132.214261 
L 480.0475 130.502235 
L 507.9475 128.012958 
L 535.8475 127.933842 
L 563.7475 131.06379 
L 591.6475 138.050402 
L 619.5475 164.462893 
L 647.4475 185.012302 
L 675.3475 206.040654 
L 703.2475 233.226786 
L 731.1475 238.185051 
" clip-path="url(#p28814ef256)" style="fill: none; stroke: #8c564b; stroke-opacity: 0.8; stroke-width: 1.5; stroke-linecap: round"/>
   </g>
   <g id="patch_3">
    <path d="M 75.4975 257.76 
L 75.4975 36 
" style="fill: none; stroke: #000000; stroke-linejoin: miter; stroke-linecap: square"/>
   </g>
   <g id="patch_4">
    <path d="M 745.0975 257.76 
L 745.0975 36 
" style="fill: none; stroke: #000000; stroke-linejoin: miter; stroke-linecap: square"/>
   </g>
   <g id="patch_5">
    <path d="M 75.4975 257.76 
L 745.0975 257.76 
" style="fill: none; stroke: #000000; stroke-linejoin: miter; stroke-linecap: square"/>
   </g>
   <g id="patch_6">
    <path d="M 75.4975 36 
L 745.0975 36 
" style="fill: none; stroke: #000000; stroke-linejoin: miter; stroke-linecap: square"/>
   </g>
  </g>
 </g>
 <defs>
  <clipPath id="p28814ef256">
   <rect x="75.4975" y="36" width="669.6" height="221.76"/>
  </clipPath>
 </defs>
</svg>
