<?xml version="1.0" encoding="utf-8" standalone="no"?>
<!DOCTYPE svg PUBLIC "-//W3C//DTD SVG 1.1//EN"
  "http://www.w3.org/Graphics/SVG/1.1/DTD/svg11.dtd">
<svg xmlns:xlink="http://www.w3.org/1999/xlink" width="781.0975pt" height="332.28625pt" viewBox="0 0 781.0975 332.28625" xmlns="http://www.w3.org/2000/svg" version="1.1">
 <metadata>
  <rdf:RDF xmlns:dc="http://purl.org/dc/elements/1.1/" xmlns:cc="http://creativecommons.org/ns#" xmlns:rdf="http://www.w3.org/1999/02/22-rdf-syntax-ns#">
   <cc:Work>
    <dc:type rdf:resource="http://purl.org/dc/dcmitype/StillImage"/>
    <dc:date>2025-10-27T21:19:22.541842</dc:date>
    <dc:format>image/svg+xml</dc:format>
    <dc:creator>
     <cc:Agent>
      <dc:title>Matplotlib v3.10.7, https://matplotlib.org/</dc:title>
     </cc:Agent>
    </dc:creator>
   </cc:Work>
  </rdf:RDF>
 </metadata>
 <defs>
  <style type="text/css">*{stroke-linejoin: round; stroke-linecap: butt}</style>
 </defs>
 <g id="figure_1">
  <g id="patch_1">
   <path d="M 0 332.28625 
L 781.0975 332.28625 
L 781.0975 0 
L 0 0 
L 0 332.28625 
z
" style="fill: none"/>
  </g>
  <g id="axes_1">
   <g id="patch_2">
    <path d="M 75.4975 257.76 
L 745.0975 257.76 
L 745.0975 36 
L 75.4975 36 
L 75.4975 257.76 
z
" style="fill: none"/>
   </g>
   <g id="line2d_1">
    <path d="M 95.788409 257.76 
L 95.788409 36 
" clip-path="url(#pbd80b8da13)" style="fill: none; stroke-dasharray: 0.74,0.32; stroke-dashoffset: 0; stroke: #a9a9a9; stroke-opacity: 0.5; stroke-width: 0.2"/>
   </g>
   <g id="line2d_2">
    <path d="M 116.079318 257.76 
L 116.079318 36 
" clip-path="url(#pbd80b8da13)" style="fill: none; stroke-dasharray: 0.74,0.32; stroke-dashoffset: 0; stroke: #a9a9a9; stroke-opacity: 0.5; stroke-width: 0.2"/>
   </g>
   <g id="line2d_3">
    <path d="M 136.370227 257.76 
L 136.370227 36 
" clip-path="url(#pbd80b8da13)" style="fill: none; stroke-dasharray: 0.74,0.32; stroke-dashoffset: 0; stroke: #a9a9a9; stroke-opacity: 0.5; stroke-width: 0.2"/>
   </g>
   <g id="line2d_4">
    <path d="M 156.661136 257.76 
L 156.661136 36 
" clip-path="url(#pbd80b8da13)" style="fill: none; stroke-dasharray: 0.74,0.32; stroke-dashoffset: 0; stroke: #a9a9a9; stroke-opacity: 0.5; stroke-width: 0.2"/>
   </g>
   <g id="line2d_5">
    <path d="M 176.952045 257.76 
L 176.952045 36 
" clip-path="url(#pbd80b8da13)" style="fill: none; stroke-dasharray: 0.74,0.32; stroke-dashoffset: 0; stroke: #a9a9a9; stroke-opacity: 0.5; stroke-width: 0.2"/>
   </g>
   <g id="line2d_6">
    <path d="M 197.242955 257.76 
L 197.242955 36 
" clip-path="url(#pbd80b8da13)" style="fill: none; stroke-dasharray: 0.74,0.32; stroke-dashoffset: 0; stroke: #a9a9a9; stroke-opacity: 0.5; stroke-width: 0.2"/>
   </g>
   <g id="line2d_7">
    <path d="M 217.533864 257.76 
L 217.533864 36 
" clip-path="url(#pbd80b8da13)" style="fill: none; stroke-dasharray: 0.74,0.32; stroke-dashoffset: 0; stroke: #a9a9a9; stroke-opacity: 0.5; stroke-width: 0.2"/>
   </g>
   <g id="line2d_8">
    <path d="M 237.824773 257.76 
L 237.824773 36 
" clip-path="url(#pbd80b8da13)" style="fill: none; stroke-dasharray: 0.74,0.32; stroke-dashoffset: 0; stroke: #a9a9a9; stroke-opacity: 0.5; stroke-width: 0.2"/>
   </g>
   <g id="line2d_9">
    <path d="M 258.115682 257.76 
L 258.115682 36 
" clip-path="url(#pbd80b8da13)" style="fill: none; stroke-dasharray: 0.74,0.32; stroke-dashoffset: 0; stroke: #a9a9a9; stroke-opacity: 0.5; stroke-width: 0.2"/>
   </g>
   <g id="line2d_10">
    <path d="M 278.406591 257.76 
L 278.406591 36 
" clip-path="url(#pbd80b8da13)" style="fill: none; stroke-dasharray: 0.74,0.32; stroke-dashoffset: 0; stroke: #a9a9a9; stroke-opacity: 0.5; stroke-width: 0.2"/>
   </g>
   <g id="line2d_11">
    <path d="M 298.6975 257.76 
L 298.6975 36 
" clip-path="url(#pbd80b8da13)" style="fill: none; stroke-dasharray: 0.74,0.32; stroke-dashoffset: 0; stroke: #a9a9a9; stroke-opacity: 0.5; stroke-width: 0.2"/>
   </g>
   <g id="line2d_12">
    <path d="M 318.988409 257.76 
L 318.988409 36 
" clip-path="url(#pbd80b8da13)" style="fill: none; stroke-dasharray: 0.74,0.32; stroke-dashoffset: 0; stroke: #a9a9a9; stroke-opacity: 0.5; stroke-width: 0.2"/>
   </g>
   <g id="line2d_13">
    <path d="M 339.279318 257.76 
L 339.279318 36 
" clip-path="url(#pbd80b8da13)" style="fill: none; stroke-dasharray: 0.74,0.32; stroke-dashoffset: 0; stroke: #a9a9a9; stroke-opacity: 0.5; stroke-width: 0.2"/>
   </g>
   <g id="line2d_14">
    <path d="M 359.570227 257.76 
L 359.570227 36 
" clip-path="url(#pbd80b8da13)" style="fill: none; stroke-dasharray: 0.74,0.32; stroke-dashoffset: 0; stroke: #a9a9a9; stroke-opacity: 0.5; stroke-width: 0.2"/>
   </g>
   <g id="line2d_15">
    <path d="M 379.861136 257.76 
L 379.861136 36 
" clip-path="url(#pbd80b8da13)" style="fill: none; stroke-dasharray: 0.74,0.32; stroke-dashoffset: 0; stroke: #a9a9a9; stroke-opacity: 0.5; stroke-width: 0.2"/>
   </g>
   <g id="line2d_16">
    <path d="M 400.152045 257.76 
L 400.152045 36 
" clip-path="url(#pbd80b8da13)" style="fill: none; stroke-dasharray: 0.74,0.32; stroke-dashoffset: 0; stroke: #a9a9a9; stroke-opacity: 0.5; stroke-width: 0.2"/>
   </g>
   <g id="line2d_17">
    <path d="M 420.442955 257.76 
L 420.442955 36 
" clip-path="url(#pbd80b8da13)" style="fill: none; stroke-dasharray: 0.74,0.32; stroke-dashoffset: 0; stroke: #a9a9a9; stroke-opacity: 0.5; stroke-width: 0.2"/>
   </g>
   <g id="line2d_18">
    <path d="M 440.733864 257.76 
L 440.733864 36 
" clip-path="url(#pbd80b8da13)" style="fill: none; stroke-dasharray: 0.74,0.32; stroke-dashoffset: 0; stroke: #a9a9a9; stroke-opacity: 0.5; stroke-width: 0.2"/>
   </g>
   <g id="line2d_19">
    <path d="M 461.024773 257.76 
L 461.024773 36 
" clip-path="url(#pbd80b8da13)" style="fill: none; stroke-dasharray: 0.74,0.32; stroke-dashoffset: 0; stroke: #a9a9a9; stroke-opacity: 0.5; stroke-width: 0.2"/>
   </g>
   <g id="line2d_20">
    <path d="M 481.315682 257.76 
L 481.315682 36 
" clip-path="url(#pbd80b8da13)" style="fill: none; stroke-dasharray: 0.74,0.32; stroke-dashoffset: 0; stroke: #a9a9a9; stroke-opacity: 0.5; stroke-width: 0.2"/>
   </g>
   <g id="line2d_21">
    <path d="M 501.606591 257.76 
L 501.606591 36 
" clip-path="url(#pbd80b8da13)" style="fill: none; stroke-dasharray: 0.74,0.32; stroke-dashoffset: 0; stroke: #a9a9a9; stroke-opacity: 0.5; stroke-width: 0.2"/>
   </g>
   <g id="line2d_22">
    <path d="M 521.8975 257.76 
L 521.8975 36 
" clip-path="url(#pbd80b8da13)" style="fill: none; stroke-dasharray: 0.74,0.32; stroke-dashoffset: 0; stroke: #a9a9a9; stroke-opacity: 0.5; stroke-width: 0.2"/>
   </g>
   <g id="line2d_23">
    <path d="M 542.188409 257.76 
L 542.188409 36 
" clip-path="url(#pbd80b8da13)" style="fill: none; stroke-dasharray: 0.74,0.32; stroke-dashoffset: 0; stroke: #a9a9a9; stroke-opacity: 0.5; stroke-width: 0.2"/>
   </g>
   <g id="line2d_24">
    <path d="M 562.479318 257.76 
L 562.479318 36 
" clip-path="url(#pbd80b8da13)" style="fill: none; stroke-dasharray: 0.74,0.32; stroke-dashoffset: 0; stroke: #a9a9a9; stroke-opacity: 0.5; stroke-width: 0.2"/>
   </g>
   <g id="line2d_25">
    <path d="M 582.770227 257.76 
L 582.770227 36 
" clip-path="url(#pbd80b8da13)" style="fill: none; stroke-dasharray: 0.74,0.32; stroke-dashoffset: 0; stroke: #a9a9a9; stroke-opacity: 0.5; stroke-width: 0.2"/>
   </g>
   <g id="line2d_26">
    <path d="M 603.061136 257.76 
L 603.061136 36 
" clip-path="url(#pbd80b8da13)" style="fill: none; stroke-dasharray: 0.74,0.32; stroke-dashoffset: 0; stroke: #a9a9a9; stroke-opacity: 0.5; stroke-width: 0.2"/>
   </g>
   <g id="line2d_27">
    <path d="M 623.352045 257.76 
L 623.352045 36 
" clip-path="url(#pbd80b8da13)" style="fill: none; stroke-dasharray: 0.74,0.32; stroke-dashoffset: 0; stroke: #a9a9a9; stroke-opacity: 0.5; stroke-width: 0.2"/>
   </g>
   <g id="line2d_28">
    <path d="M 643.642955 257.76 
L 643.642955 36 
" clip-path="url(#pbd80b8da13)" style="fill: none; stroke-dasharray: 0.74,0.32; stroke-dashoffset: 0; stroke: #a9a9a9; stroke-opacity: 0.5; stroke-width: 0.2"/>
   </g>
   <g id="line2d_29">
    <path d="M 663.933864 257.76 
L 663.933864 36 
" clip-path="url(#pbd80b8da13)" style="fill: none; stroke-dasharray: 0.74,0.32; stroke-dashoffset: 0; stroke: #a9a9a9; stroke-opacity: 0.5; stroke-width: 0.2"/>
   </g>
   <g id="line2d_30">
    <path d="M 684.224773 257.76 
L 684.224773 36 
" clip-path="url(#pbd80b8da13)" style="fill: none; stroke-dasharray: 0.74,0.32; stroke-dashoffset: 0; stroke: #a9a9a9; stroke-opacity: 0.5; stroke-width: 0.2"/>
   </g>
   <g id="line2d_31">
    <path d="M 704.515682 257.76 
L 704.515682 36 
" clip-path="url(#pbd80b8da13)" style="fill: none; stroke-dasharray: 0.74,0.32; stroke-dashoffset: 0; stroke: #a9a9a9; stroke-opacity: 0.5; stroke-width: 0.2"/>
   </g>
   <g id="line2d_32">
    <path d="M 724.806591 257.76 
L 724.806591 36 
" clip-path="url(#pbd80b8da13)" style="fill: none; stroke-dasharray: 0.74,0.32; stroke-dashoffset: 0; stroke: #a9a9a9; stroke-opacity: 0.5; stroke-width: 0.2"/>
   </g>
   <g id="line2d_33">
    <path d="M 75.4975 235.584 
L 745.0975 235.584 
" clip-path="url(#pbd80b8da13)" style="fill: none; stroke-dasharray: 0.74,0.32; stroke-dashoffset: 0; stroke: #a9a9a9; stroke-opacity: 0.5; stroke-width: 0.2"/>
   </g>
   <g id="line2d_34">
    <path d="M 75.4975 213.408 
L 745.0975 213.408 
" clip-path="url(#pbd80b8da13)" style="fill: none; stroke-dasharray: 0.74,0.32; stroke-dashoffset: 0; stroke: #a9a9a9; stroke-opacity: 0.5; stroke-width: 0.2"/>
   </g>
   <g id="line2d_35">
    <path d="M 75.4975 191.232 
L 745.0975 191.232 
" clip-path="url(#pbd80b8da13)" style="fill: none; stroke-dasharray: 0.74,0.32; stroke-dashoffset: 0; stroke: #a9a9a9; stroke-opacity: 0.5; stroke-width: 0.2"/>
   </g>
   <g id="line2d_36">
    <path d="M 75.4975 169.056 
L 745.0975 169.056 
" clip-path="url(#pbd80b8da13)" style="fill: none; stroke-dasharray: 0.74,0.32; stroke-dashoffset: 0; stroke: #a9a9a9; stroke-opacity: 0.5; stroke-width: 0.2"/>
   </g>
   <g id="line2d_37">
    <path d="M 75.4975 146.88 
L 745.0975 146.88 
" clip-path="url(#pbd80b8da13)" style="fill: none; stroke-dasharray: 0.74,0.32; stroke-dashoffset: 0; stroke: #a9a9a9; stroke-opacity: 0.5; stroke-width: 0.2"/>
   </g>
   <g id="line2d_38">
    <path d="M 75.4975 124.704 
L 745.0975 124.704 
" clip-path="url(#pbd80b8da13)" style="fill: none; stroke-dasharray: 0.74,0.32; stroke-dashoffset: 0; stroke: #a9a9a9; stroke-opacity: 0.5; stroke-width: 0.2"/>
   </g>
   <g id="line2d_39">
    <path d="M 75.4975 102.528 
L 745.0975 102.528 
" clip-path="url(#pbd80b8da13)" style="fill: none; stroke-dasharray: 0.74,0.32; stroke-dashoffset: 0; stroke: #a9a9a9; stroke-opacity: 0.5; stroke-width: 0.2"/>
   </g>
   <g id="line2d_40">
    <path d="M 75.4975 80.352 
L 745.0975 80.352 
" clip-path="url(#pbd80b8da13)" style="fill: none; stroke-dasharray: 0.74,0.32; stroke-dashoffset: 0; stroke: #a9a9a9; stroke-opacity: 0.5; stroke-width: 0.2"/>
   </g>
   <g id="line2d_41">
    <path d="M 75.4975 58.176 
L 745.0975 58.176 
" clip-path="url(#pbd80b8da13)" style="fill: none; stroke-dasharray: 0.74,0.32; stroke-dashoffset: 0; stroke: #a9a9a9; stroke-opacity: 0.5; stroke-width: 0.2"/>
   </g>
   <g id="matplotlib.axis_1">
    <g id="xtick_1">
     <g id="line2d_42">
      <defs>
       <path id="mfb7c2529b2" d="M 0 0 
L 0 5 
" style="stroke: #000000"/>
      </defs>
      <g>
       <use xlink:href="#mfb7c2529b2" x="89.4475" y="257.76" style="stroke: #000000"/>
      </g>
     </g>
     <g id="text_1">
      <!-- 1:00 -->
      <g transform="translate(92.549688 289.613125) rotate(-90) scale(0.12 -0.12)">
       <defs>
        <path id="ArialMT-31" d="M 2384 0 
L 1822 0 
L 1822 3584 
Q 1619 3391 1289 3197 
Q 959 3003 697 2906 
L 697 3450 
Q 1169 3672 1522 3987 
Q 1875 4303 2022 4600 
L 2384 4600 
L 2384 0 
z
" transform="scale(0.015625)"/>
        <path id="ArialMT-3a" d="M 578 2678 
L 578 3319 
L 1219 3319 
L 1219 2678 
L 578 2678 
z
M 578 0 
L 578 641 
L 1219 641 
L 1219 0 
L 578 0 
z
" transform="scale(0.015625)"/>
        <path id="ArialMT-30" d="M 266 2259 
Q 266 3072 433 3567 
Q 600 4063 929 4331 
Q 1259 4600 1759 4600 
Q 2128 4600 2406 4451 
Q 2684 4303 2865 4023 
Q 3047 3744 3150 3342 
Q 3253 2941 3253 2259 
Q 3253 1453 3087 958 
Q 2922 463 2592 192 
Q 2263 -78 1759 -78 
Q 1097 -78 719 397 
Q 266 969 266 2259 
z
M 844 2259 
Q 844 1131 1108 757 
Q 1372 384 1759 384 
Q 2147 384 2411 759 
Q 2675 1134 2675 2259 
Q 2675 3391 2411 3762 
Q 2147 4134 1753 4134 
Q 1366 4134 1134 3806 
Q 844 3388 844 2259 
z
" transform="scale(0.015625)"/>
       </defs>
       <use xlink:href="#ArialMT-31"/>
       <use xlink:href="#ArialMT-3a" transform="translate(55.615234 0)"/>
       <use xlink:href="#ArialMT-30" transform="translate(83.398438 0)"/>
       <use xlink:href="#ArialMT-30" transform="translate(139.013672 0)"/>
      </g>
     </g>
    </g>
    <g id="xtick_2">
     <g id="line2d_43">
      <g>
       <use xlink:href="#mfb7c2529b2" x="117.3475" y="257.76" style="stroke: #000000"/>
      </g>
     </g>
     <g id="text_2">
      <!-- 2:00 -->
      <g transform="translate(120.449688 289.613125) rotate(-90) scale(0.12 -0.12)">
       <defs>
        <path id="ArialMT-32" d="M 3222 541 
L 3222 0 
L 194 0 
Q 188 203 259 391 
Q 375 700 629 1000 
Q 884 1300 1366 1694 
Q 2113 2306 2375 2664 
Q 2638 3022 2638 3341 
Q 2638 3675 2398 3904 
Q 2159 4134 1775 4134 
Q 1369 4134 1125 3890 
Q 881 3647 878 3216 
L 300 3275 
Q 359 3922 746 4261 
Q 1134 4600 1788 4600 
Q 2447 4600 2831 4234 
Q 3216 3869 3216 3328 
Q 3216 3053 3103 2787 
Q 2991 2522 2730 2228 
Q 2469 1934 1863 1422 
Q 1356 997 1212 845 
Q 1069 694 975 541 
L 3222 541 
z
" transform="scale(0.015625)"/>
       </defs>
       <use xlink:href="#ArialMT-32"/>
       <use xlink:href="#ArialMT-3a" transform="translate(55.615234 0)"/>
       <use xlink:href="#ArialMT-30" transform="translate(83.398438 0)"/>
       <use xlink:href="#ArialMT-30" transform="translate(139.013672 0)"/>
      </g>
     </g>
    </g>
    <g id="xtick_3">
     <g id="line2d_44">
      <g>
       <use xlink:href="#mfb7c2529b2" x="145.2475" y="257.76" style="stroke: #000000"/>
      </g>
     </g>
     <g id="text_3">
      <!-- 3:00 -->
      <g transform="translate(148.349688 289.613125) rotate(-90) scale(0.12 -0.12)">
       <defs>
        <path id="ArialMT-33" d="M 269 1209 
L 831 1284 
Q 928 806 1161 595 
Q 1394 384 1728 384 
Q 2125 384 2398 659 
Q 2672 934 2672 1341 
Q 2672 1728 2419 1979 
Q 2166 2231 1775 2231 
Q 1616 2231 1378 2169 
L 1441 2663 
Q 1497 2656 1531 2656 
Q 1891 2656 2178 2843 
Q 2466 3031 2466 3422 
Q 2466 3731 2256 3934 
Q 2047 4138 1716 4138 
Q 1388 4138 1169 3931 
Q 950 3725 888 3313 
L 325 3413 
Q 428 3978 793 4289 
Q 1159 4600 1703 4600 
Q 2078 4600 2393 4439 
Q 2709 4278 2876 4000 
Q 3044 3722 3044 3409 
Q 3044 3113 2884 2869 
Q 2725 2625 2413 2481 
Q 2819 2388 3044 2092 
Q 3269 1797 3269 1353 
Q 3269 753 2831 336 
Q 2394 -81 1725 -81 
Q 1122 -81 723 278 
Q 325 638 269 1209 
z
" transform="scale(0.015625)"/>
       </defs>
       <use xlink:href="#ArialMT-33"/>
       <use xlink:href="#ArialMT-3a" transform="translate(55.615234 0)"/>
       <use xlink:href="#ArialMT-30" transform="translate(83.398438 0)"/>
       <use xlink:href="#ArialMT-30" transform="translate(139.013672 0)"/>
      </g>
     </g>
    </g>
    <g id="xtick_4">
     <g id="line2d_45">
      <g>
       <use xlink:href="#mfb7c2529b2" x="173.1475" y="257.76" style="stroke: #000000"/>
      </g>
     </g>
     <g id="text_4">
      <!-- 4:00 -->
      <g transform="translate(176.249688 289.613125) rotate(-90) scale(0.12 -0.12)">
       <defs>
        <path id="ArialMT-34" d="M 2069 0 
L 2069 1097 
L 81 1097 
L 81 1613 
L 2172 4581 
L 2631 4581 
L 2631 1613 
L 3250 1613 
L 3250 1097 
L 2631 1097 
L 2631 0 
L 2069 0 
z
M 2069 1613 
L 2069 3678 
L 634 1613 
L 2069 1613 
z
" transform="scale(0.015625)"/>
       </defs>
       <use xlink:href="#ArialMT-34"/>
       <use xlink:href="#ArialMT-3a" transform="translate(55.615234 0)"/>
       <use xlink:href="#ArialMT-30" transform="translate(83.398438 0)"/>
       <use xlink:href="#ArialMT-30" transform="translate(139.013672 0)"/>
      </g>
     </g>
    </g>
    <g id="xtick_5">
     <g id="line2d_46">
      <g>
       <use xlink:href="#mfb7c2529b2" x="201.0475" y="257.76" style="stroke: #000000"/>
      </g>
     </g>
     <g id="text_5">
      <!-- 5:00 -->
      <g transform="translate(204.149688 289.613125) rotate(-90) scale(0.12 -0.12)">
       <defs>
        <path id="ArialMT-35" d="M 266 1200 
L 856 1250 
Q 922 819 1161 601 
Q 1400 384 1738 384 
Q 2144 384 2425 690 
Q 2706 997 2706 1503 
Q 2706 1984 2436 2262 
Q 2166 2541 1728 2541 
Q 1456 2541 1237 2417 
Q 1019 2294 894 2097 
L 366 2166 
L 809 4519 
L 3088 4519 
L 3088 3981 
L 1259 3981 
L 1013 2750 
Q 1425 3038 1878 3038 
Q 2478 3038 2890 2622 
Q 3303 2206 3303 1553 
Q 3303 931 2941 478 
Q 2500 -78 1738 -78 
Q 1113 -78 717 272 
Q 322 622 266 1200 
z
" transform="scale(0.015625)"/>
       </defs>
       <use xlink:href="#ArialMT-35"/>
       <use xlink:href="#ArialMT-3a" transform="translate(55.615234 0)"/>
       <use xlink:href="#ArialMT-30" transform="translate(83.398438 0)"/>
       <use xlink:href="#ArialMT-30" transform="translate(139.013672 0)"/>
      </g>
     </g>
    </g>
    <g id="xtick_6">
     <g id="line2d_47">
      <g>
       <use xlink:href="#mfb7c2529b2" x="228.9475" y="257.76" style="stroke: #000000"/>
      </g>
     </g>
     <g id="text_6">
      <!-- 6:00 -->
      <g transform="translate(232.049688 289.613125) rotate(-90) scale(0.12 -0.12)">
       <defs>
        <path id="ArialMT-36" d="M 3184 3459 
L 2625 3416 
Q 2550 3747 2413 3897 
Q 2184 4138 1850 4138 
Q 1581 4138 1378 3988 
Q 1113 3794 959 3422 
Q 806 3050 800 2363 
Q 1003 2672 1297 2822 
Q 1591 2972 1913 2972 
Q 2475 2972 2870 2558 
Q 3266 2144 3266 1488 
Q 3266 1056 3080 686 
Q 2894 316 2569 119 
Q 2244 -78 1831 -78 
Q 1128 -78 684 439 
Q 241 956 241 2144 
Q 241 3472 731 4075 
Q 1159 4600 1884 4600 
Q 2425 4600 2770 4297 
Q 3116 3994 3184 3459 
z
M 888 1484 
Q 888 1194 1011 928 
Q 1134 663 1356 523 
Q 1578 384 1822 384 
Q 2178 384 2434 671 
Q 2691 959 2691 1453 
Q 2691 1928 2437 2201 
Q 2184 2475 1800 2475 
Q 1419 2475 1153 2201 
Q 888 1928 888 1484 
z
" transform="scale(0.015625)"/>
       </defs>
       <use xlink:href="#ArialMT-36"/>
       <use xlink:href="#ArialMT-3a" transform="translate(55.615234 0)"/>
       <use xlink:href="#ArialMT-30" transform="translate(83.398438 0)"/>
       <use xlink:href="#ArialMT-30" transform="translate(139.013672 0)"/>
      </g>
     </g>
    </g>
    <g id="xtick_7">
     <g id="line2d_48">
      <g>
       <use xlink:href="#mfb7c2529b2" x="256.8475" y="257.76" style="stroke: #000000"/>
      </g>
     </g>
     <g id="text_7">
      <!-- 7:00 -->
      <g transform="translate(259.949688 289.613125) rotate(-90) scale(0.12 -0.12)">
       <defs>
        <path id="ArialMT-37" d="M 303 3981 
L 303 4522 
L 3269 4522 
L 3269 4084 
Q 2831 3619 2401 2847 
Q 1972 2075 1738 1259 
Q 1569 684 1522 0 
L 944 0 
Q 953 541 1156 1306 
Q 1359 2072 1739 2783 
Q 2119 3494 2547 3981 
L 303 3981 
z
" transform="scale(0.015625)"/>
       </defs>
       <use xlink:href="#ArialMT-37"/>
       <use xlink:href="#ArialMT-3a" transform="translate(55.615234 0)"/>
       <use xlink:href="#ArialMT-30" transform="translate(83.398438 0)"/>
       <use xlink:href="#ArialMT-30" transform="translate(139.013672 0)"/>
      </g>
     </g>
    </g>
    <g id="xtick_8">
     <g id="line2d_49">
      <g>
       <use xlink:href="#mfb7c2529b2" x="284.7475" y="257.76" style="stroke: #000000"/>
      </g>
     </g>
     <g id="text_8">
      <!-- 8:00 -->
      <g transform="translate(287.849688 289.613125) rotate(-90) scale(0.12 -0.12)">
       <defs>
        <path id="ArialMT-38" d="M 1131 2484 
Q 781 2613 612 2850 
Q 444 3088 444 3419 
Q 444 3919 803 4259 
Q 1163 4600 1759 4600 
Q 2359 4600 2725 4251 
Q 3091 3903 3091 3403 
Q 3091 3084 2923 2848 
Q 2756 2613 2416 2484 
Q 2838 2347 3058 2040 
Q 3278 1734 3278 1309 
Q 3278 722 2862 322 
Q 2447 -78 1769 -78 
Q 1091 -78 675 323 
Q 259 725 259 1325 
Q 259 1772 486 2073 
Q 713 2375 1131 2484 
z
M 1019 3438 
Q 1019 3113 1228 2906 
Q 1438 2700 1772 2700 
Q 2097 2700 2305 2904 
Q 2513 3109 2513 3406 
Q 2513 3716 2298 3927 
Q 2084 4138 1766 4138 
Q 1444 4138 1231 3931 
Q 1019 3725 1019 3438 
z
M 838 1322 
Q 838 1081 952 856 
Q 1066 631 1291 507 
Q 1516 384 1775 384 
Q 2178 384 2440 643 
Q 2703 903 2703 1303 
Q 2703 1709 2433 1975 
Q 2163 2241 1756 2241 
Q 1359 2241 1098 1978 
Q 838 1716 838 1322 
z
" transform="scale(0.015625)"/>
       </defs>
       <use xlink:href="#ArialMT-38"/>
       <use xlink:href="#ArialMT-3a" transform="translate(55.615234 0)"/>
       <use xlink:href="#ArialMT-30" transform="translate(83.398438 0)"/>
       <use xlink:href="#ArialMT-30" transform="translate(139.013672 0)"/>
      </g>
     </g>
    </g>
    <g id="xtick_9">
     <g id="line2d_50">
      <g>
       <use xlink:href="#mfb7c2529b2" x="312.6475" y="257.76" style="stroke: #000000"/>
      </g>
     </g>
     <g id="text_9">
      <!-- 9:00 -->
      <g transform="translate(315.749688 289.613125) rotate(-90) scale(0.12 -0.12)">
       <defs>
        <path id="ArialMT-39" d="M 350 1059 
L 891 1109 
Q 959 728 1153 556 
Q 1347 384 1650 384 
Q 1909 384 2104 503 
Q 2300 622 2425 820 
Q 2550 1019 2634 1356 
Q 2719 1694 2719 2044 
Q 2719 2081 2716 2156 
Q 2547 1888 2255 1720 
Q 1963 1553 1622 1553 
Q 1053 1553 659 1965 
Q 266 2378 266 3053 
Q 266 3750 677 4175 
Q 1088 4600 1706 4600 
Q 2153 4600 2523 4359 
Q 2894 4119 3086 3673 
Q 3278 3228 3278 2384 
Q 3278 1506 3087 986 
Q 2897 466 2520 194 
Q 2144 -78 1638 -78 
Q 1100 -78 759 220 
Q 419 519 350 1059 
z
M 2653 3081 
Q 2653 3566 2395 3850 
Q 2138 4134 1775 4134 
Q 1400 4134 1122 3828 
Q 844 3522 844 3034 
Q 844 2597 1108 2323 
Q 1372 2050 1759 2050 
Q 2150 2050 2401 2323 
Q 2653 2597 2653 3081 
z
" transform="scale(0.015625)"/>
       </defs>
       <use xlink:href="#ArialMT-39"/>
       <use xlink:href="#ArialMT-3a" transform="translate(55.615234 0)"/>
       <use xlink:href="#ArialMT-30" transform="translate(83.398438 0)"/>
       <use xlink:href="#ArialMT-30" transform="translate(139.013672 0)"/>
      </g>
     </g>
    </g>
    <g id="xtick_10">
     <g id="line2d_51">
      <g>
       <use xlink:href="#mfb7c2529b2" x="340.5475" y="257.76" style="stroke: #000000"/>
      </g>
     </g>
     <g id="text_10">
      <!-- 10:00 -->
      <g transform="translate(343.649688 296.28625) rotate(-90) scale(0.12 -0.12)">
       <use xlink:href="#ArialMT-31"/>
       <use xlink:href="#ArialMT-30" transform="translate(55.615234 0)"/>
       <use xlink:href="#ArialMT-3a" transform="translate(111.230469 0)"/>
       <use xlink:href="#ArialMT-30" transform="translate(139.013672 0)"/>
       <use xlink:href="#ArialMT-30" transform="translate(194.628906 0)"/>
      </g>
     </g>
    </g>
    <g id="xtick_11">
     <g id="line2d_52">
      <g>
       <use xlink:href="#mfb7c2529b2" x="368.4475" y="257.76" style="stroke: #000000"/>
      </g>
     </g>
     <g id="text_11">
      <!-- 11:00 -->
      <g transform="translate(371.549688 295.40125) rotate(-90) scale(0.12 -0.12)">
       <use xlink:href="#ArialMT-31"/>
       <use xlink:href="#ArialMT-31" transform="translate(48.240234 0)"/>
       <use xlink:href="#ArialMT-3a" transform="translate(103.855469 0)"/>
       <use xlink:href="#ArialMT-30" transform="translate(131.638672 0)"/>
       <use xlink:href="#ArialMT-30" transform="translate(187.253906 0)"/>
      </g>
     </g>
    </g>
    <g id="xtick_12">
     <g id="line2d_53">
      <g>
       <use xlink:href="#mfb7c2529b2" x="396.3475" y="257.76" style="stroke: #000000"/>
      </g>
     </g>
     <g id="text_12">
      <!-- 12:00 -->
      <g transform="translate(399.449688 296.28625) rotate(-90) scale(0.12 -0.12)">
       <use xlink:href="#ArialMT-31"/>
       <use xlink:href="#ArialMT-32" transform="translate(55.615234 0)"/>
       <use xlink:href="#ArialMT-3a" transform="translate(111.230469 0)"/>
       <use xlink:href="#ArialMT-30" transform="translate(139.013672 0)"/>
       <use xlink:href="#ArialMT-30" transform="translate(194.628906 0)"/>
      </g>
     </g>
    </g>
    <g id="xtick_13">
     <g id="line2d_54">
      <g>
       <use xlink:href="#mfb7c2529b2" x="424.2475" y="257.76" style="stroke: #000000"/>
      </g>
     </g>
     <g id="text_13">
      <!-- 13:00 -->
      <g transform="translate(427.349688 296.28625) rotate(-90) scale(0.12 -0.12)">
       <use xlink:href="#ArialMT-31"/>
       <use xlink:href="#ArialMT-33" transform="translate(55.615234 0)"/>
       <use xlink:href="#ArialMT-3a" transform="translate(111.230469 0)"/>
       <use xlink:href="#ArialMT-30" transform="translate(139.013672 0)"/>
       <use xlink:href="#ArialMT-30" transform="translate(194.628906 0)"/>
      </g>
     </g>
    </g>
    <g id="xtick_14">
     <g id="line2d_55">
      <g>
       <use xlink:href="#mfb7c2529b2" x="452.1475" y="257.76" style="stroke: #000000"/>
      </g>
     </g>
     <g id="text_14">
      <!-- 14:00 -->
      <g transform="translate(455.249688 296.28625) rotate(-90) scale(0.12 -0.12)">
       <use xlink:href="#ArialMT-31"/>
       <use xlink:href="#ArialMT-34" transform="translate(55.615234 0)"/>
       <use xlink:href="#ArialMT-3a" transform="translate(111.230469 0)"/>
       <use xlink:href="#ArialMT-30" transform="translate(139.013672 0)"/>
       <use xlink:href="#ArialMT-30" transform="translate(194.628906 0)"/>
      </g>
     </g>
    </g>
    <g id="xtick_15">
     <g id="line2d_56">
      <g>
       <use xlink:href="#mfb7c2529b2" x="480.0475" y="257.76" style="stroke: #000000"/>
      </g>
     </g>
     <g id="text_15">
      <!-- 15:00 -->
      <g transform="translate(483.149688 296.28625) rotate(-90) scale(0.12 -0.12)">
       <use xlink:href="#ArialMT-31"/>
       <use xlink:href="#ArialMT-35" transform="translate(55.615234 0)"/>
       <use xlink:href="#ArialMT-3a" transform="translate(111.230469 0)"/>
       <use xlink:href="#ArialMT-30" transform="translate(139.013672 0)"/>
       <use xlink:href="#ArialMT-30" transform="translate(194.628906 0)"/>
      </g>
     </g>
    </g>
    <g id="xtick_16">
     <g id="line2d_57">
      <g>
       <use xlink:href="#mfb7c2529b2" x="507.9475" y="257.76" style="stroke: #000000"/>
      </g>
     </g>
     <g id="text_16">
      <!-- 16:00 -->
      <g transform="translate(511.049688 296.28625) rotate(-90) scale(0.12 -0.12)">
       <use xlink:href="#ArialMT-31"/>
       <use xlink:href="#ArialMT-36" transform="translate(55.615234 0)"/>
       <use xlink:href="#ArialMT-3a" transform="translate(111.230469 0)"/>
       <use xlink:href="#ArialMT-30" transform="translate(139.013672 0)"/>
       <use xlink:href="#ArialMT-30" transform="translate(194.628906 0)"/>
      </g>
     </g>
    </g>
    <g id="xtick_17">
     <g id="line2d_58">
      <g>
       <use xlink:href="#mfb7c2529b2" x="535.8475" y="257.76" style="stroke: #000000"/>
      </g>
     </g>
     <g id="text_17">
      <!-- 17:00 -->
      <g transform="translate(538.949688 296.28625) rotate(-90) scale(0.12 -0.12)">
       <use xlink:href="#ArialMT-31"/>
       <use xlink:href="#ArialMT-37" transform="translate(55.615234 0)"/>
       <use xlink:href="#ArialMT-3a" transform="translate(111.230469 0)"/>
       <use xlink:href="#ArialMT-30" transform="translate(139.013672 0)"/>
       <use xlink:href="#ArialMT-30" transform="translate(194.628906 0)"/>
      </g>
     </g>
    </g>
    <g id="xtick_18">
     <g id="line2d_59">
      <g>
       <use xlink:href="#mfb7c2529b2" x="563.7475" y="257.76" style="stroke: #000000"/>
      </g>
     </g>
     <g id="text_18">
      <!-- 18:00 -->
      <g transform="translate(566.849688 296.28625) rotate(-90) scale(0.12 -0.12)">
       <use xlink:href="#ArialMT-31"/>
       <use xlink:href="#ArialMT-38" transform="translate(55.615234 0)"/>
       <use xlink:href="#ArialMT-3a" transform="translate(111.230469 0)"/>
       <use xlink:href="#ArialMT-30" transform="translate(139.013672 0)"/>
       <use xlink:href="#ArialMT-30" transform="translate(194.628906 0)"/>
      </g>
     </g>
    </g>
    <g id="xtick_19">
     <g id="line2d_60">
      <g>
       <use xlink:href="#mfb7c2529b2" x="591.6475" y="257.76" style="stroke: #000000"/>
      </g>
     </g>
     <g id="text_19">
      <!-- 19:00 -->
      <g transform="translate(594.749688 296.28625) rotate(-90) scale(0.12 -0.12)">
       <use xlink:href="#ArialMT-31"/>
       <use xlink:href="#ArialMT-39" transform="translate(55.615234 0)"/>
       <use xlink:href="#ArialMT-3a" transform="translate(111.230469 0)"/>
       <use xlink:href="#ArialMT-30" transform="translate(139.013672 0)"/>
       <use xlink:href="#ArialMT-30" transform="translate(194.628906 0)"/>
      </g>
     </g>
    </g>
    <g id="xtick_20">
     <g id="line2d_61">
      <g>
       <use xlink:href="#mfb7c2529b2" x="619.5475" y="257.76" style="stroke: #000000"/>
      </g>
     </g>
     <g id="text_20">
      <!-- 20:00 -->
      <g transform="translate(622.649688 296.28625) rotate(-90) scale(0.12 -0.12)">
       <use xlink:href="#ArialMT-32"/>
       <use xlink:href="#ArialMT-30" transform="translate(55.615234 0)"/>
       <use xlink:href="#ArialMT-3a" transform="translate(111.230469 0)"/>
       <use xlink:href="#ArialMT-30" transform="translate(139.013672 0)"/>
       <use xlink:href="#ArialMT-30" transform="translate(194.628906 0)"/>
      </g>
     </g>
    </g>
    <g id="xtick_21">
     <g id="line2d_62">
      <g>
       <use xlink:href="#mfb7c2529b2" x="647.4475" y="257.76" style="stroke: #000000"/>
      </g>
     </g>
     <g id="text_21">
      <!-- 21:00 -->
      <g transform="translate(650.549688 296.28625) rotate(-90) scale(0.12 -0.12)">
       <use xlink:href="#ArialMT-32"/>
       <use xlink:href="#ArialMT-31" transform="translate(55.615234 0)"/>
       <use xlink:href="#ArialMT-3a" transform="translate(111.230469 0)"/>
       <use xlink:href="#ArialMT-30" transform="translate(139.013672 0)"/>
       <use xlink:href="#ArialMT-30" transform="translate(194.628906 0)"/>
      </g>
     </g>
    </g>
    <g id="xtick_22">
     <g id="line2d_63">
      <g>
       <use xlink:href="#mfb7c2529b2" x="675.3475" y="257.76" style="stroke: #000000"/>
      </g>
     </g>
     <g id="text_22">
      <!-- 22:00 -->
      <g transform="translate(678.449688 296.28625) rotate(-90) scale(0.12 -0.12)">
       <use xlink:href="#ArialMT-32"/>
       <use xlink:href="#ArialMT-32" transform="translate(55.615234 0)"/>
       <use xlink:href="#ArialMT-3a" transform="translate(111.230469 0)"/>
       <use xlink:href="#ArialMT-30" transform="translate(139.013672 0)"/>
       <use xlink:href="#ArialMT-30" transform="translate(194.628906 0)"/>
      </g>
     </g>
    </g>
    <g id="xtick_23">
     <g id="line2d_64">
      <g>
       <use xlink:href="#mfb7c2529b2" x="703.2475" y="257.76" style="stroke: #000000"/>
      </g>
     </g>
     <g id="text_23">
      <!-- 23:00 -->
      <g transform="translate(706.349688 296.28625) rotate(-90) scale(0.12 -0.12)">
       <use xlink:href="#ArialMT-32"/>
       <use xlink:href="#ArialMT-33" transform="translate(55.615234 0)"/>
       <use xlink:href="#ArialMT-3a" transform="translate(111.230469 0)"/>
       <use xlink:href="#ArialMT-30" transform="translate(139.013672 0)"/>
       <use xlink:href="#ArialMT-30" transform="translate(194.628906 0)"/>
      </g>
     </g>
    </g>
    <g id="xtick_24">
     <g id="line2d_65">
      <g>
       <use xlink:href="#mfb7c2529b2" x="731.1475" y="257.76" style="stroke: #000000"/>
      </g>
     </g>
     <g id="text_24">
      <!-- 24:00 -->
      <g transform="translate(734.249688 296.28625) rotate(-90) scale(0.12 -0.12)">
       <use xlink:href="#ArialMT-32"/>
       <use xlink:href="#ArialMT-34" transform="translate(55.615234 0)"/>
       <use xlink:href="#ArialMT-3a" transform="translate(111.230469 0)"/>
       <use xlink:href="#ArialMT-30" transform="translate(139.013672 0)"/>
       <use xlink:href="#ArialMT-30" transform="translate(194.628906 0)"/>
      </g>
     </g>
    </g>
   </g>
   <g id="matplotlib.axis_2">
    <g id="ytick_1">
     <g id="line2d_66">
      <defs>
       <path id="m3e2bfbe02c" d="M 0 0 
L -5 0 
" style="stroke: #000000; stroke-opacity: 0; stroke-width: 1.5"/>
      </defs>
      <g>
       <use xlink:href="#m3e2bfbe02c" x="75.4975" y="250.113103" style="fill-opacity: 0; stroke: #000000; stroke-opacity: 0; stroke-width: 1.5"/>
      </g>
     </g>
     <g id="text_25">
      <!-- 0 -->
      <g transform="translate(58.1 255.839353) scale(0.16 -0.16)">
       <use xlink:href="#ArialMT-30"/>
      </g>
     </g>
    </g>
    <g id="ytick_2">
     <g id="line2d_67">
      <g>
       <use xlink:href="#m3e2bfbe02c" x="75.4975" y="199.133793" style="fill-opacity: 0; stroke: #000000; stroke-opacity: 0; stroke-width: 1.5"/>
      </g>
     </g>
     <g id="text_26">
      <!-- 1 -->
      <g transform="translate(58.1 204.860043) scale(0.16 -0.16)">
       <use xlink:href="#ArialMT-31"/>
      </g>
     </g>
    </g>
    <g id="ytick_3">
     <g id="line2d_68">
      <g>
       <use xlink:href="#m3e2bfbe02c" x="75.4975" y="148.154483" style="fill-opacity: 0; stroke: #000000; stroke-opacity: 0; stroke-width: 1.5"/>
      </g>
     </g>
     <g id="text_27">
      <!-- 2 -->
      <g transform="translate(58.1 153.880733) scale(0.16 -0.16)">
       <use xlink:href="#ArialMT-32"/>
      </g>
     </g>
    </g>
    <g id="ytick_4">
     <g id="line2d_69">
      <g>
       <use xlink:href="#m3e2bfbe02c" x="75.4975" y="97.175172" style="fill-opacity: 0; stroke: #000000; stroke-opacity: 0; stroke-width: 1.5"/>
      </g>
     </g>
     <g id="text_28">
      <!-- 3 -->
      <g transform="translate(58.1 102.901422) scale(0.16 -0.16)">
       <use xlink:href="#ArialMT-33"/>
      </g>
     </g>
    </g>
    <g id="ytick_5">
     <g id="line2d_70">
      <g>
       <use xlink:href="#m3e2bfbe02c" x="75.4975" y="46.195862" style="fill-opacity: 0; stroke: #000000; stroke-opacity: 0; stroke-width: 1.5"/>
      </g>
     </g>
     <g id="text_29">
      <!-- 4 -->
      <g transform="translate(58.1 51.922112) scale(0.16 -0.16)">
       <use xlink:href="#ArialMT-34"/>
      </g>
     </g>
    </g>
    <g id="text_30">
     <!-- CO$_{\mathregular{2}}$ (ton) -->
     <g transform="translate(49.14 185.31) rotate(-90) scale(0.18 -0.18)">
      <defs>
       <path id="ArialMT-43" d="M 3763 1606 
L 4369 1453 
Q 4178 706 3683 314 
Q 3188 -78 2472 -78 
Q 1731 -78 1267 223 
Q 803 525 561 1097 
Q 319 1669 319 2325 
Q 319 3041 592 3573 
Q 866 4106 1370 4382 
Q 1875 4659 2481 4659 
Q 3169 4659 3637 4309 
Q 4106 3959 4291 3325 
L 3694 3184 
Q 3534 3684 3231 3912 
Q 2928 4141 2469 4141 
Q 1941 4141 1586 3887 
Q 1231 3634 1087 3207 
Q 944 2781 944 2328 
Q 944 1744 1114 1308 
Q 1284 872 1643 656 
Q 2003 441 2422 441 
Q 2931 441 3284 734 
Q 3638 1028 3763 1606 
z
" transform="scale(0.015625)"/>
       <path id="ArialMT-4f" d="M 309 2231 
Q 309 3372 921 4017 
Q 1534 4663 2503 4663 
Q 3138 4663 3647 4359 
Q 4156 4056 4423 3514 
Q 4691 2972 4691 2284 
Q 4691 1588 4409 1038 
Q 4128 488 3612 205 
Q 3097 -78 2500 -78 
Q 1853 -78 1343 234 
Q 834 547 571 1087 
Q 309 1628 309 2231 
z
M 934 2222 
Q 934 1394 1379 917 
Q 1825 441 2497 441 
Q 3181 441 3623 922 
Q 4066 1403 4066 2288 
Q 4066 2847 3877 3264 
Q 3688 3681 3323 3911 
Q 2959 4141 2506 4141 
Q 1863 4141 1398 3698 
Q 934 3256 934 2222 
z
" transform="scale(0.015625)"/>
       <path id="ArialMT-20" transform="scale(0.015625)"/>
       <path id="ArialMT-28" d="M 1497 -1347 
Q 1031 -759 709 28 
Q 388 816 388 1659 
Q 388 2403 628 3084 
Q 909 3875 1497 4659 
L 1900 4659 
Q 1522 4009 1400 3731 
Q 1209 3300 1100 2831 
Q 966 2247 966 1656 
Q 966 153 1900 -1347 
L 1497 -1347 
z
" transform="scale(0.015625)"/>
       <path id="ArialMT-74" d="M 1650 503 
L 1731 6 
Q 1494 -44 1306 -44 
Q 1000 -44 831 53 
Q 663 150 594 308 
Q 525 466 525 972 
L 525 2881 
L 113 2881 
L 113 3319 
L 525 3319 
L 525 4141 
L 1084 4478 
L 1084 3319 
L 1650 3319 
L 1650 2881 
L 1084 2881 
L 1084 941 
Q 1084 700 1114 631 
Q 1144 563 1211 522 
Q 1278 481 1403 481 
Q 1497 481 1650 503 
z
" transform="scale(0.015625)"/>
       <path id="ArialMT-6f" d="M 213 1659 
Q 213 2581 725 3025 
Q 1153 3394 1769 3394 
Q 2453 3394 2887 2945 
Q 3322 2497 3322 1706 
Q 3322 1066 3130 698 
Q 2938 331 2570 128 
Q 2203 -75 1769 -75 
Q 1072 -75 642 372 
Q 213 819 213 1659 
z
M 791 1659 
Q 791 1022 1069 705 
Q 1347 388 1769 388 
Q 2188 388 2466 706 
Q 2744 1025 2744 1678 
Q 2744 2294 2464 2611 
Q 2184 2928 1769 2928 
Q 1347 2928 1069 2612 
Q 791 2297 791 1659 
z
" transform="scale(0.015625)"/>
       <path id="ArialMT-6e" d="M 422 0 
L 422 3319 
L 928 3319 
L 928 2847 
Q 1294 3394 1984 3394 
Q 2284 3394 2536 3286 
Q 2788 3178 2913 3003 
Q 3038 2828 3088 2588 
Q 3119 2431 3119 2041 
L 3119 0 
L 2556 0 
L 2556 2019 
Q 2556 2363 2490 2533 
Q 2425 2703 2258 2804 
Q 2091 2906 1866 2906 
Q 1506 2906 1245 2678 
Q 984 2450 984 1813 
L 984 0 
L 422 0 
z
" transform="scale(0.015625)"/>
       <path id="ArialMT-29" d="M 791 -1347 
L 388 -1347 
Q 1322 153 1322 1656 
Q 1322 2244 1188 2822 
Q 1081 3291 891 3722 
Q 769 4003 388 4659 
L 791 4659 
Q 1378 3875 1659 3084 
Q 1900 2403 1900 1659 
Q 1900 816 1576 28 
Q 1253 -759 791 -1347 
z
" transform="scale(0.015625)"/>
      </defs>
      <use xlink:href="#ArialMT-43" transform="translate(0 0.140625)"/>
      <use xlink:href="#ArialMT-4f" transform="translate(72.216797 0.140625)"/>
      <use xlink:href="#ArialMT-32" transform="translate(150.957031 -16.265625) scale(0.7)"/>
      <use xlink:href="#ArialMT-20" transform="translate(192.62207 0.140625)"/>
      <use xlink:href="#ArialMT-28" transform="translate(220.405273 0.140625)"/>
      <use xlink:href="#ArialMT-74" transform="translate(253.706055 0.140625)"/>
      <use xlink:href="#ArialMT-6f" transform="translate(281.489258 0.140625)"/>
      <use xlink:href="#ArialMT-6e" transform="translate(337.104492 0.140625)"/>
      <use xlink:href="#ArialMT-29" transform="translate(392.719727 0.140625)"/>
     </g>
    </g>
   </g>
   <g id="line2d_71">
    <path d="M 89.4475 179.593964 
L 117.3475 202.471168 
L 145.2475 211.283212 
L 173.1475 212.264754 
L 201.0475 200.186938 
L 228.9475 156.94241 
L 256.8475 117.286397 
L 284.7475 118.002655 
L 312.6475 110.969357 
L 340.5475 108.315933 
L 368.4475 111.781085 
L 396.3475 112.175288 
L 424.2475 111.123611 
L 452.1475 112.221384 
L 480.0475 112.060588 
L 507.9475 112.39417 
L 535.8475 110.365556 
L 563.7475 110.232291 
L 591.6475 110.73526 
L 619.5475 113.31849 
L 647.4475 121.946274 
L 675.3475 116.355701 
L 703.2475 128.682141 
L 731.1475 150.138649 
" clip-path="url(#pbd80b8da13)" style="fill: none; stroke: #9467bd; stroke-opacity: 0.8; stroke-width: 1.5; stroke-linecap: round"/>
   </g>
   <g id="line2d_72">
    <path d="M 89.4475 216.682912 
L 117.3475 227.400987 
L 145.2475 231.334038 
L 173.1475 232.152922 
L 201.0475 227.397077 
L 228.9475 210.334329 
L 256.8475 187.526161 
L 284.7475 181.242719 
L 312.6475 179.110442 
L 340.5475 178.31099 
L 368.4475 176.989213 
L 396.3475 176.385147 
L 424.2475 174.672292 
L 452.1475 175.554859 
L 480.0475 175.947808 
L 507.9475 176.546355 
L 535.8475 177.939988 
L 563.7475 177.780481 
L 591.6475 179.156611 
L 619.5475 182.471379 
L 647.4475 186.475389 
L 675.3475 185.894261 
L 703.2475 192.99526 
L 731.1475 203.951868 
" clip-path="url(#pbd80b8da13)" style="fill: none; stroke: #8c564b; stroke-opacity: 0.8; stroke-width: 1.5; stroke-linecap: round"/>
   </g>
   <g id="line2d_73">
    <path d="M 89.4475 242.595452 
L 117.3475 246.257185 
L 145.2475 247.573226 
L 173.1475 247.311282 
L 201.0475 245.318402 
L 228.9475 239.011981 
L 256.8475 225.65036 
L 284.7475 213.615671 
L 312.6475 208.997432 
L 340.5475 208.473684 
L 368.4475 208.097449 
L 396.3475 207.104947 
L 424.2475 205.787533 
L 452.1475 206.604836 
L 480.0475 206.964528 
L 507.9475 206.396977 
L 535.8475 205.27306 
L 563.7475 204.40829 
L 591.6475 205.97348 
L 619.5475 208.565399 
L 647.4475 216.503992 
L 675.3475 224.476093 
L 703.2475 231.251005 
L 731.1475 237.217844 
" clip-path="url(#pbd80b8da13)" style="fill: none; stroke: #ff9896; stroke-opacity: 0.8; stroke-width: 1.5; stroke-linecap: round"/>
   </g>
   <g id="line2d_74">
    <path d="M 89.4475 245.946046 
L 117.3475 247.796405 
L 145.2475 248.402762 
L 173.1475 248.279122 
L 201.0475 247.280871 
L 228.9475 243.068436 
L 256.8475 233.306308 
L 284.7475 223.649517 
L 312.6475 220.766562 
L 340.5475 220.447939 
L 368.4475 220.471847 
L 396.3475 219.756228 
L 424.2475 218.319646 
L 452.1475 219.146248 
L 480.0475 219.475882 
L 507.9475 219.580614 
L 535.8475 219.359779 
L 563.7475 218.790938 
L 591.6475 220.251792 
L 619.5475 221.52847 
L 647.4475 227.86089 
L 675.3475 233.90326 
L 703.2475 239.109482 
L 731.1475 242.897746 
" clip-path="url(#pbd80b8da13)" style="fill: none; stroke: #d62728; stroke-opacity: 0.8; stroke-width: 1.5; stroke-linecap: round"/>
   </g>
   <g id="line2d_75">
    <path d="M 89.4475 223.194989 
L 117.3475 233.94992 
L 145.2475 237.83269 
L 173.1475 238.015127 
L 201.0475 232.560728 
L 228.9475 213.714487 
L 256.8475 190.273304 
L 284.7475 189.485544 
L 312.6475 185.456349 
L 340.5475 186.812956 
L 368.4475 185.710973 
L 396.3475 185.437964 
L 424.2475 183.633799 
L 452.1475 183.895078 
L 480.0475 183.680006 
L 507.9475 183.829891 
L 535.8475 183.8656 
L 563.7475 182.887867 
L 591.6475 183.732774 
L 619.5475 186.621397 
L 647.4475 187.766085 
L 675.3475 189.170796 
L 703.2475 198.496505 
L 731.1475 209.820133 
" clip-path="url(#pbd80b8da13)" style="fill: none; stroke: #1f77b4; stroke-opacity: 0.8; stroke-width: 1.5; stroke-linecap: round"/>
   </g>
   <g id="line2d_76">
    <path d="M 89.4475 213.806406 
L 117.3475 226.806281 
L 145.2475 231.52663 
L 173.1475 231.864794 
L 201.0475 225.478253 
L 228.9475 202.681534 
L 256.8475 176.62615 
L 284.7475 173.139583 
L 312.6475 169.482141 
L 340.5475 168.744038 
L 368.4475 168.133952 
L 396.3475 167.630288 
L 424.2475 165.809244 
L 452.1475 166.266345 
L 480.0475 165.99053 
L 507.9475 166.271489 
L 535.8475 167.2622 
L 563.7475 166.270152 
L 591.6475 167.186284 
L 619.5475 169.924795 
L 647.4475 175.339987 
L 675.3475 175.218146 
L 703.2475 182.937601 
L 731.1475 196.138656 
" clip-path="url(#pbd80b8da13)" style="fill: none; stroke: #aec7e8; stroke-opacity: 0.8; stroke-width: 1.5; stroke-linecap: round"/>
   </g>
   <g id="line2d_77">
    <path d="M 89.4475 245.403852 
L 117.3475 247.559762 
L 145.2475 248.252366 
L 173.1475 248.091429 
L 201.0475 246.93866 
L 228.9475 242.282401 
L 256.8475 231.786784 
L 284.7475 222.393728 
L 312.6475 220.203222 
L 340.5475 219.993917 
L 368.4475 219.857913 
L 396.3475 219.199773 
L 424.2475 217.630949 
L 452.1475 218.533472 
L 480.0475 218.559762 
L 507.9475 218.455813 
L 535.8475 218.742363 
L 563.7475 218.465159 
L 591.6475 220.001397 
L 619.5475 220.291159 
L 647.4475 226.279413 
L 675.3475 232.42818 
L 703.2475 237.920237 
L 731.1475 241.977228 
" clip-path="url(#pbd80b8da13)" style="fill: none; stroke: #c49c94; stroke-opacity: 0.8; stroke-width: 1.5; stroke-linecap: round"/>
   </g>
   <g id="line2d_78">
    <path d="M 89.4475 242.946679 
L 117.3475 246.180539 
L 145.2475 247.204889 
L 173.1475 247.019331 
L 201.0475 245.505581 
L 228.9475 238.565319 
L 256.8475 223.591022 
L 284.7475 210.669584 
L 312.6475 206.040941 
L 340.5475 205.770028 
L 368.4475 205.832007 
L 396.3475 204.420571 
L 424.2475 202.341997 
L 452.1475 202.86157 
L 480.0475 202.903596 
L 507.9475 202.868578 
L 535.8475 202.579938 
L 563.7475 200.993975 
L 591.6475 203.16918 
L 619.5475 205.93254 
L 647.4475 213.913438 
L 675.3475 222.365321 
L 703.2475 231.005353 
L 731.1475 237.421991 
" clip-path="url(#pbd80b8da13)" style="fill: none; stroke: #e377c2; stroke-opacity: 0.8; stroke-width: 1.5; stroke-linecap: round"/>
   </g>
   <g id="line2d_79">
    <path d="M 89.4475 212.364457 
L 117.3475 226.407365 
L 145.2475 231.483205 
L 173.1475 231.517933 
L 201.0475 224.04961 
L 228.9475 196.695291 
L 256.8475 162.393788 
L 284.7475 156.50653 
L 312.6475 155.383253 
L 340.5475 153.030853 
L 368.4475 151.039897 
L 396.3475 150.83086 
L 424.2475 149.068601 
L 452.1475 149.91339 
L 480.0475 149.558761 
L 507.9475 150.151684 
L 535.8475 151.10891 
L 563.7475 149.444475 
L 591.6475 150.309351 
L 619.5475 153.861452 
L 647.4475 156.038883 
L 675.3475 163.960983 
L 703.2475 176.968755 
L 731.1475 192.862568 
" clip-path="url(#pbd80b8da13)" style="fill: none; stroke: #f7b6d2; stroke-opacity: 0.8; stroke-width: 1.5; stroke-linecap: round"/>
   </g>
   <g id="line2d_80">
    <path d="M 89.4475 234.896272 
L 117.3475 241.357208 
L 145.2475 243.492506 
L 173.1475 243.362913 
L 201.0475 239.836116 
L 228.9475 226.9031 
L 256.8475 208.521675 
L 284.7475 205.561195 
L 312.6475 201.742729 
L 340.5475 200.839234 
L 368.4475 199.586312 
L 396.3475 198.656894 
L 424.2475 196.774804 
L 452.1475 197.207282 
L 480.0475 196.966728 
L 507.9475 196.766569 
L 535.8475 196.614957 
L 563.7475 195.383097 
L 591.6475 196.845569 
L 619.5475 200.026393 
L 647.4475 204.846203 
L 675.3475 207.89087 
L 703.2475 216.527301 
L 731.1475 225.388944 
" clip-path="url(#pbd80b8da13)" style="fill: none; stroke: #7f7f7f; stroke-opacity: 0.8; stroke-width: 1.5; stroke-linecap: round"/>
   </g>
   <g id="line2d_81">
    <path d="M 89.4475 240.718486 
L 117.3475 244.454517 
L 145.2475 245.705568 
L 173.1475 245.454285 
L 201.0475 243.790112 
L 228.9475 236.542357 
L 256.8475 222.367764 
L 284.7475 208.169741 
L 312.6475 201.227663 
L 340.5475 199.876961 
L 368.4475 199.326338 
L 396.3475 197.766758 
L 424.2475 195.396134 
L 452.1475 196.064158 
L 480.0475 196.33128 
L 507.9475 196.078525 
L 535.8475 195.513782 
L 563.7475 193.554189 
L 591.6475 196.198141 
L 619.5475 199.741111 
L 647.4475 208.357138 
L 675.3475 218.014753 
L 703.2475 227.81624 
L 731.1475 234.621565 
" clip-path="url(#pbd80b8da13)" style="fill: none; stroke: #ff7f0e; stroke-opacity: 0.8; stroke-width: 1.5; stroke-linecap: round"/>
   </g>
   <g id="line2d_82">
    <path d="M 89.4475 245.786892 
L 117.3475 248.77353 
L 145.2475 249.49327 
L 173.1475 249.443436 
L 201.0475 248.463004 
L 228.9475 242.425345 
L 256.8475 230.16535 
L 284.7475 219.558141 
L 312.6475 214.486501 
L 340.5475 213.900119 
L 368.4475 212.361786 
L 396.3475 210.922819 
L 424.2475 208.837875 
L 452.1475 210.366189 
L 480.0475 210.87672 
L 507.9475 211.431438 
L 535.8475 210.995242 
L 563.7475 210.862944 
L 591.6475 212.266704 
L 619.5475 213.316921 
L 647.4475 221.344623 
L 675.3475 228.875024 
L 703.2475 236.346377 
L 731.1475 241.334396 
" clip-path="url(#pbd80b8da13)" style="fill: none; stroke: #c7c7c7; stroke-opacity: 0.8; stroke-width: 1.5; stroke-linecap: round"/>
   </g>
   <g id="line2d_83">
    <path d="M 89.4475 242.548645 
L 117.3475 245.289758 
L 145.2475 246.371626 
L 173.1475 246.14782 
L 201.0475 244.767376 
L 228.9475 239.876065 
L 256.8475 229.943863 
L 284.7475 219.798363 
L 312.6475 214.925088 
L 340.5475 213.018629 
L 368.4475 211.805588 
L 396.3475 212.012535 
L 424.2475 208.308747 
L 452.1475 208.888185 
L 480.0475 208.924376 
L 507.9475 208.399565 
L 535.8475 208.12242 
L 563.7475 207.458922 
L 591.6475 209.451866 
L 619.5475 212.978187 
L 647.4475 220.065534 
L 675.3475 226.791737 
L 703.2475 233.362582 
L 731.1475 237.942605 
" clip-path="url(#pbd80b8da13)" style="fill: none; stroke: #c5b0d5; stroke-opacity: 0.8; stroke-width: 1.5; stroke-linecap: round"/>
   </g>
   <g id="line2d_84">
    <path d="M 89.4475 219.453627 
L 117.3475 230.679401 
L 145.2475 234.577562 
L 173.1475 233.910213 
L 201.0475 227.660437 
L 228.9475 206.182619 
L 256.8475 170.666264 
L 284.7475 153.086033 
L 312.6475 151.335718 
L 340.5475 152.462019 
L 368.4475 150.732713 
L 396.3475 149.763623 
L 424.2475 147.216701 
L 452.1475 147.287685 
L 480.0475 146.232211 
L 507.9475 145.42377 
L 535.8475 146.037257 
L 563.7475 147.042906 
L 591.6475 148.139803 
L 619.5475 154.776215 
L 647.4475 154.294798 
L 675.3475 170.487139 
L 703.2475 187.97099 
L 731.1475 204.245952 
" clip-path="url(#pbd80b8da13)" style="fill: none; stroke: #bcbd22; stroke-opacity: 0.8; stroke-width: 1.5; stroke-linecap: round"/>
   </g>
   <g id="line2d_85">
    <path d="M 89.4475 196.412867 
L 117.3475 216.120841 
L 145.2475 223.09353 
L 173.1475 221.718166 
L 201.0475 210.135965 
L 228.9475 175.671576 
L 256.8475 116.983017 
L 284.7475 91.557618 
L 312.6475 84.07634 
L 340.5475 81.737586 
L 368.4475 79.484212 
L 396.3475 105.311786 
L 424.2475 98.499926 
L 452.1475 95.602568 
L 480.0475 86.678473 
L 507.9475 79.861987 
L 535.8475 84.772685 
L 563.7475 95.470775 
L 591.6475 103.19881 
L 619.5475 79.117512 
L 647.4475 94.696621 
L 675.3475 120.371445 
L 703.2475 145.690108 
L 731.1475 170.868583 
" clip-path="url(#pbd80b8da13)" style="fill: none; stroke: #dbdb8d; stroke-opacity: 0.8; stroke-width: 1.5; stroke-linecap: round"/>
   </g>
   <g id="line2d_86">
    <path d="M 89.4475 214.067057 
L 117.3475 227.481598 
L 145.2475 232.39108 
L 173.1475 232.079046 
L 201.0475 226.106439 
L 228.9475 204.413367 
L 256.8475 162.166569 
L 284.7475 144.820472 
L 312.6475 140.081117 
L 340.5475 140.214787 
L 368.4475 156.640236 
L 396.3475 150.522929 
L 424.2475 136.715658 
L 452.1475 135.445146 
L 480.0475 129.281294 
L 507.9475 124.444963 
L 535.8475 122.550055 
L 563.7475 127.147915 
L 591.6475 137.652123 
L 619.5475 155.417636 
L 647.4475 143.037943 
L 675.3475 158.661534 
L 703.2475 176.622001 
L 731.1475 195.363258 
" clip-path="url(#pbd80b8da13)" style="fill: none; stroke: #17becf; stroke-opacity: 0.8; stroke-width: 1.5; stroke-linecap: round"/>
   </g>
   <g id="line2d_87">
    <path d="M 89.4475 233.293485 
L 117.3475 239.890155 
L 145.2475 242.094784 
L 173.1475 241.675964 
L 201.0475 238.071521 
L 228.9475 224.571622 
L 256.8475 202.490551 
L 284.7475 188.373532 
L 312.6475 186.790613 
L 340.5475 187.688716 
L 368.4475 186.176785 
L 396.3475 185.05562 
L 424.2475 182.694975 
L 452.1475 182.851849 
L 480.0475 182.275053 
L 507.9475 181.370231 
L 535.8475 180.734886 
L 563.7475 180.228402 
L 591.6475 182.575013 
L 619.5475 188.531291 
L 647.4475 190.226105 
L 675.3475 201.548168 
L 703.2475 213.735849 
L 731.1475 224.069375 
" clip-path="url(#pbd80b8da13)" style="fill: none; stroke: #9edae5; stroke-opacity: 0.8; stroke-width: 1.5; stroke-linecap: round"/>
   </g>
   <g id="line2d_88">
    <path d="M 89.4475 244.165772 
L 117.3475 246.522109 
L 145.2475 247.434403 
L 173.1475 247.19818 
L 201.0475 245.633684 
L 228.9475 239.553949 
L 256.8475 225.747241 
L 284.7475 211.288998 
L 312.6475 208.446828 
L 340.5475 208.037042 
L 368.4475 207.314339 
L 396.3475 207.624642 
L 424.2475 203.534298 
L 452.1475 204.211574 
L 480.0475 204.174571 
L 507.9475 203.706311 
L 535.8475 203.936337 
L 563.7475 203.371956 
L 591.6475 205.979883 
L 619.5475 210.965427 
L 647.4475 219.927564 
L 675.3475 227.635022 
L 703.2475 235.015774 
L 731.1475 239.877322 
" clip-path="url(#pbd80b8da13)" style="fill: none; stroke: #2ca02c; stroke-opacity: 0.8; stroke-width: 1.5; stroke-linecap: round"/>
   </g>
   <g id="line2d_89">
    <path d="M 89.4475 226.305375 
L 117.3475 235.31238 
L 145.2475 238.512616 
L 173.1475 238.482371 
L 201.0475 233.888023 
L 228.9475 216.908908 
L 256.8475 195.917629 
L 284.7475 193.162534 
L 312.6475 191.854883 
L 340.5475 190.775192 
L 368.4475 189.201794 
L 396.3475 188.439483 
L 424.2475 186.685765 
L 452.1475 187.342756 
L 480.0475 187.225961 
L 507.9475 187.423858 
L 535.8475 187.401236 
L 563.7475 186.210821 
L 591.6475 187.548586 
L 619.5475 190.729971 
L 647.4475 194.883516 
L 675.3475 195.357971 
L 703.2475 203.57658 
L 731.1475 213.830566 
" clip-path="url(#pbd80b8da13)" style="fill: none; stroke: #98df8a; stroke-opacity: 0.8; stroke-width: 1.5; stroke-linecap: round"/>
   </g>
   <g id="line2d_90">
    <path d="M 89.4475 195.971542 
L 117.3475 215.574785 
L 145.2475 222.191837 
L 173.1475 221.699821 
L 201.0475 209.027501 
L 228.9475 168.535847 
L 256.8475 125.072977 
L 284.7475 117.025753 
L 312.6475 116.293865 
L 340.5475 121.663747 
L 368.4475 132.417859 
L 396.3475 127.278003 
L 424.2475 115.94214 
L 452.1475 115.302906 
L 480.0475 110.330458 
L 507.9475 105.647581 
L 535.8475 104.919967 
L 563.7475 106.815328 
L 591.6475 115.631384 
L 619.5475 133.762262 
L 647.4475 116.144556 
L 675.3475 128.668782 
L 703.2475 146.748892 
L 731.1475 169.195129 
" clip-path="url(#pbd80b8da13)" style="fill: none; stroke: #ffbb78; stroke-opacity: 0.8; stroke-width: 1.5; stroke-linecap: round"/>
   </g>
   <g id="patch_3">
    <path d="M 75.4975 257.76 
L 75.4975 36 
" style="fill: none; stroke: #000000; stroke-linejoin: miter; stroke-linecap: square"/>
   </g>
   <g id="patch_4">
    <path d="M 745.0975 257.76 
L 745.0975 36 
" style="fill: none; stroke: #000000; stroke-linejoin: miter; stroke-linecap: square"/>
   </g>
   <g id="patch_5">
    <path d="M 75.4975 257.76 
L 745.0975 257.76 
" style="fill: none; stroke: #000000; stroke-linejoin: miter; stroke-linecap: square"/>
   </g>
   <g id="patch_6">
    <path d="M 75.4975 36 
L 745.0975 36 
" style="fill: none; stroke: #000000; stroke-linejoin: miter; stroke-linecap: square"/>
   </g>
  </g>
 </g>
 <defs>
  <clipPath id="pbd80b8da13">
   <rect x="75.4975" y="36" width="669.6" height="221.76"/>
  </clipPath>
 </defs>
</svg>
