<?xml version="1.0" encoding="utf-8" standalone="no"?>
<!DOCTYPE svg PUBLIC "-//W3C//DTD SVG 1.1//EN"
  "http://www.w3.org/Graphics/SVG/1.1/DTD/svg11.dtd">
<svg xmlns:xlink="http://www.w3.org/1999/xlink" width="781.0975pt" height="332.28625pt" viewBox="0 0 781.0975 332.28625" xmlns="http://www.w3.org/2000/svg" version="1.1">
 <metadata>
  <rdf:RDF xmlns:dc="http://purl.org/dc/elements/1.1/" xmlns:cc="http://creativecommons.org/ns#" xmlns:rdf="http://www.w3.org/1999/02/22-rdf-syntax-ns#">
   <cc:Work>
    <dc:type rdf:resource="http://purl.org/dc/dcmitype/StillImage"/>
    <dc:date>2025-10-27T20:50:17.463270</dc:date>
    <dc:format>image/svg+xml</dc:format>
    <dc:creator>
     <cc:Agent>
      <dc:title>Matplotlib v3.10.7, https://matplotlib.org/</dc:title>
     </cc:Agent>
    </dc:creator>
   </cc:Work>
  </rdf:RDF>
 </metadata>
 <defs>
  <style type="text/css">*{stroke-linejoin: round; stroke-linecap: butt}</style>
 </defs>
 <g id="figure_1">
  <g id="patch_1">
   <path d="M 0 332.28625 
L 781.0975 332.28625 
L 781.0975 0 
L 0 0 
L 0 332.28625 
z
" style="fill: none"/>
  </g>
  <g id="axes_1">
   <g id="patch_2">
    <path d="M 75.4975 257.76 
L 745.0975 257.76 
L 745.0975 36 
L 75.4975 36 
L 75.4975 257.76 
z
" style="fill: none"/>
   </g>
   <g id="line2d_1">
    <path d="M 95.788409 257.76 
L 95.788409 36 
" clip-path="url(#p31f9f3a7cb)" style="fill: none; stroke-dasharray: 0.74,0.32; stroke-dashoffset: 0; stroke: #a9a9a9; stroke-opacity: 0.5; stroke-width: 0.2"/>
   </g>
   <g id="line2d_2">
    <path d="M 116.079318 257.76 
L 116.079318 36 
" clip-path="url(#p31f9f3a7cb)" style="fill: none; stroke-dasharray: 0.74,0.32; stroke-dashoffset: 0; stroke: #a9a9a9; stroke-opacity: 0.5; stroke-width: 0.2"/>
   </g>
   <g id="line2d_3">
    <path d="M 136.370227 257.76 
L 136.370227 36 
" clip-path="url(#p31f9f3a7cb)" style="fill: none; stroke-dasharray: 0.74,0.32; stroke-dashoffset: 0; stroke: #a9a9a9; stroke-opacity: 0.5; stroke-width: 0.2"/>
   </g>
   <g id="line2d_4">
    <path d="M 156.661136 257.76 
L 156.661136 36 
" clip-path="url(#p31f9f3a7cb)" style="fill: none; stroke-dasharray: 0.74,0.32; stroke-dashoffset: 0; stroke: #a9a9a9; stroke-opacity: 0.5; stroke-width: 0.2"/>
   </g>
   <g id="line2d_5">
    <path d="M 176.952045 257.76 
L 176.952045 36 
" clip-path="url(#p31f9f3a7cb)" style="fill: none; stroke-dasharray: 0.74,0.32; stroke-dashoffset: 0; stroke: #a9a9a9; stroke-opacity: 0.5; stroke-width: 0.2"/>
   </g>
   <g id="line2d_6">
    <path d="M 197.242955 257.76 
L 197.242955 36 
" clip-path="url(#p31f9f3a7cb)" style="fill: none; stroke-dasharray: 0.74,0.32; stroke-dashoffset: 0; stroke: #a9a9a9; stroke-opacity: 0.5; stroke-width: 0.2"/>
   </g>
   <g id="line2d_7">
    <path d="M 217.533864 257.76 
L 217.533864 36 
" clip-path="url(#p31f9f3a7cb)" style="fill: none; stroke-dasharray: 0.74,0.32; stroke-dashoffset: 0; stroke: #a9a9a9; stroke-opacity: 0.5; stroke-width: 0.2"/>
   </g>
   <g id="line2d_8">
    <path d="M 237.824773 257.76 
L 237.824773 36 
" clip-path="url(#p31f9f3a7cb)" style="fill: none; stroke-dasharray: 0.74,0.32; stroke-dashoffset: 0; stroke: #a9a9a9; stroke-opacity: 0.5; stroke-width: 0.2"/>
   </g>
   <g id="line2d_9">
    <path d="M 258.115682 257.76 
L 258.115682 36 
" clip-path="url(#p31f9f3a7cb)" style="fill: none; stroke-dasharray: 0.74,0.32; stroke-dashoffset: 0; stroke: #a9a9a9; stroke-opacity: 0.5; stroke-width: 0.2"/>
   </g>
   <g id="line2d_10">
    <path d="M 278.406591 257.76 
L 278.406591 36 
" clip-path="url(#p31f9f3a7cb)" style="fill: none; stroke-dasharray: 0.74,0.32; stroke-dashoffset: 0; stroke: #a9a9a9; stroke-opacity: 0.5; stroke-width: 0.2"/>
   </g>
   <g id="line2d_11">
    <path d="M 298.6975 257.76 
L 298.6975 36 
" clip-path="url(#p31f9f3a7cb)" style="fill: none; stroke-dasharray: 0.74,0.32; stroke-dashoffset: 0; stroke: #a9a9a9; stroke-opacity: 0.5; stroke-width: 0.2"/>
   </g>
   <g id="line2d_12">
    <path d="M 318.988409 257.76 
L 318.988409 36 
" clip-path="url(#p31f9f3a7cb)" style="fill: none; stroke-dasharray: 0.74,0.32; stroke-dashoffset: 0; stroke: #a9a9a9; stroke-opacity: 0.5; stroke-width: 0.2"/>
   </g>
   <g id="line2d_13">
    <path d="M 339.279318 257.76 
L 339.279318 36 
" clip-path="url(#p31f9f3a7cb)" style="fill: none; stroke-dasharray: 0.74,0.32; stroke-dashoffset: 0; stroke: #a9a9a9; stroke-opacity: 0.5; stroke-width: 0.2"/>
   </g>
   <g id="line2d_14">
    <path d="M 359.570227 257.76 
L 359.570227 36 
" clip-path="url(#p31f9f3a7cb)" style="fill: none; stroke-dasharray: 0.74,0.32; stroke-dashoffset: 0; stroke: #a9a9a9; stroke-opacity: 0.5; stroke-width: 0.2"/>
   </g>
   <g id="line2d_15">
    <path d="M 379.861136 257.76 
L 379.861136 36 
" clip-path="url(#p31f9f3a7cb)" style="fill: none; stroke-dasharray: 0.74,0.32; stroke-dashoffset: 0; stroke: #a9a9a9; stroke-opacity: 0.5; stroke-width: 0.2"/>
   </g>
   <g id="line2d_16">
    <path d="M 400.152045 257.76 
L 400.152045 36 
" clip-path="url(#p31f9f3a7cb)" style="fill: none; stroke-dasharray: 0.74,0.32; stroke-dashoffset: 0; stroke: #a9a9a9; stroke-opacity: 0.5; stroke-width: 0.2"/>
   </g>
   <g id="line2d_17">
    <path d="M 420.442955 257.76 
L 420.442955 36 
" clip-path="url(#p31f9f3a7cb)" style="fill: none; stroke-dasharray: 0.74,0.32; stroke-dashoffset: 0; stroke: #a9a9a9; stroke-opacity: 0.5; stroke-width: 0.2"/>
   </g>
   <g id="line2d_18">
    <path d="M 440.733864 257.76 
L 440.733864 36 
" clip-path="url(#p31f9f3a7cb)" style="fill: none; stroke-dasharray: 0.74,0.32; stroke-dashoffset: 0; stroke: #a9a9a9; stroke-opacity: 0.5; stroke-width: 0.2"/>
   </g>
   <g id="line2d_19">
    <path d="M 461.024773 257.76 
L 461.024773 36 
" clip-path="url(#p31f9f3a7cb)" style="fill: none; stroke-dasharray: 0.74,0.32; stroke-dashoffset: 0; stroke: #a9a9a9; stroke-opacity: 0.5; stroke-width: 0.2"/>
   </g>
   <g id="line2d_20">
    <path d="M 481.315682 257.76 
L 481.315682 36 
" clip-path="url(#p31f9f3a7cb)" style="fill: none; stroke-dasharray: 0.74,0.32; stroke-dashoffset: 0; stroke: #a9a9a9; stroke-opacity: 0.5; stroke-width: 0.2"/>
   </g>
   <g id="line2d_21">
    <path d="M 501.606591 257.76 
L 501.606591 36 
" clip-path="url(#p31f9f3a7cb)" style="fill: none; stroke-dasharray: 0.74,0.32; stroke-dashoffset: 0; stroke: #a9a9a9; stroke-opacity: 0.5; stroke-width: 0.2"/>
   </g>
   <g id="line2d_22">
    <path d="M 521.8975 257.76 
L 521.8975 36 
" clip-path="url(#p31f9f3a7cb)" style="fill: none; stroke-dasharray: 0.74,0.32; stroke-dashoffset: 0; stroke: #a9a9a9; stroke-opacity: 0.5; stroke-width: 0.2"/>
   </g>
   <g id="line2d_23">
    <path d="M 542.188409 257.76 
L 542.188409 36 
" clip-path="url(#p31f9f3a7cb)" style="fill: none; stroke-dasharray: 0.74,0.32; stroke-dashoffset: 0; stroke: #a9a9a9; stroke-opacity: 0.5; stroke-width: 0.2"/>
   </g>
   <g id="line2d_24">
    <path d="M 562.479318 257.76 
L 562.479318 36 
" clip-path="url(#p31f9f3a7cb)" style="fill: none; stroke-dasharray: 0.74,0.32; stroke-dashoffset: 0; stroke: #a9a9a9; stroke-opacity: 0.5; stroke-width: 0.2"/>
   </g>
   <g id="line2d_25">
    <path d="M 582.770227 257.76 
L 582.770227 36 
" clip-path="url(#p31f9f3a7cb)" style="fill: none; stroke-dasharray: 0.74,0.32; stroke-dashoffset: 0; stroke: #a9a9a9; stroke-opacity: 0.5; stroke-width: 0.2"/>
   </g>
   <g id="line2d_26">
    <path d="M 603.061136 257.76 
L 603.061136 36 
" clip-path="url(#p31f9f3a7cb)" style="fill: none; stroke-dasharray: 0.74,0.32; stroke-dashoffset: 0; stroke: #a9a9a9; stroke-opacity: 0.5; stroke-width: 0.2"/>
   </g>
   <g id="line2d_27">
    <path d="M 623.352045 257.76 
L 623.352045 36 
" clip-path="url(#p31f9f3a7cb)" style="fill: none; stroke-dasharray: 0.74,0.32; stroke-dashoffset: 0; stroke: #a9a9a9; stroke-opacity: 0.5; stroke-width: 0.2"/>
   </g>
   <g id="line2d_28">
    <path d="M 643.642955 257.76 
L 643.642955 36 
" clip-path="url(#p31f9f3a7cb)" style="fill: none; stroke-dasharray: 0.74,0.32; stroke-dashoffset: 0; stroke: #a9a9a9; stroke-opacity: 0.5; stroke-width: 0.2"/>
   </g>
   <g id="line2d_29">
    <path d="M 663.933864 257.76 
L 663.933864 36 
" clip-path="url(#p31f9f3a7cb)" style="fill: none; stroke-dasharray: 0.74,0.32; stroke-dashoffset: 0; stroke: #a9a9a9; stroke-opacity: 0.5; stroke-width: 0.2"/>
   </g>
   <g id="line2d_30">
    <path d="M 684.224773 257.76 
L 684.224773 36 
" clip-path="url(#p31f9f3a7cb)" style="fill: none; stroke-dasharray: 0.74,0.32; stroke-dashoffset: 0; stroke: #a9a9a9; stroke-opacity: 0.5; stroke-width: 0.2"/>
   </g>
   <g id="line2d_31">
    <path d="M 704.515682 257.76 
L 704.515682 36 
" clip-path="url(#p31f9f3a7cb)" style="fill: none; stroke-dasharray: 0.74,0.32; stroke-dashoffset: 0; stroke: #a9a9a9; stroke-opacity: 0.5; stroke-width: 0.2"/>
   </g>
   <g id="line2d_32">
    <path d="M 724.806591 257.76 
L 724.806591 36 
" clip-path="url(#p31f9f3a7cb)" style="fill: none; stroke-dasharray: 0.74,0.32; stroke-dashoffset: 0; stroke: #a9a9a9; stroke-opacity: 0.5; stroke-width: 0.2"/>
   </g>
   <g id="line2d_33">
    <path d="M 75.4975 235.584 
L 745.0975 235.584 
" clip-path="url(#p31f9f3a7cb)" style="fill: none; stroke-dasharray: 0.74,0.32; stroke-dashoffset: 0; stroke: #a9a9a9; stroke-opacity: 0.5; stroke-width: 0.2"/>
   </g>
   <g id="line2d_34">
    <path d="M 75.4975 213.408 
L 745.0975 213.408 
" clip-path="url(#p31f9f3a7cb)" style="fill: none; stroke-dasharray: 0.74,0.32; stroke-dashoffset: 0; stroke: #a9a9a9; stroke-opacity: 0.5; stroke-width: 0.2"/>
   </g>
   <g id="line2d_35">
    <path d="M 75.4975 191.232 
L 745.0975 191.232 
" clip-path="url(#p31f9f3a7cb)" style="fill: none; stroke-dasharray: 0.74,0.32; stroke-dashoffset: 0; stroke: #a9a9a9; stroke-opacity: 0.5; stroke-width: 0.2"/>
   </g>
   <g id="line2d_36">
    <path d="M 75.4975 169.056 
L 745.0975 169.056 
" clip-path="url(#p31f9f3a7cb)" style="fill: none; stroke-dasharray: 0.74,0.32; stroke-dashoffset: 0; stroke: #a9a9a9; stroke-opacity: 0.5; stroke-width: 0.2"/>
   </g>
   <g id="line2d_37">
    <path d="M 75.4975 146.88 
L 745.0975 146.88 
" clip-path="url(#p31f9f3a7cb)" style="fill: none; stroke-dasharray: 0.74,0.32; stroke-dashoffset: 0; stroke: #a9a9a9; stroke-opacity: 0.5; stroke-width: 0.2"/>
   </g>
   <g id="line2d_38">
    <path d="M 75.4975 124.704 
L 745.0975 124.704 
" clip-path="url(#p31f9f3a7cb)" style="fill: none; stroke-dasharray: 0.74,0.32; stroke-dashoffset: 0; stroke: #a9a9a9; stroke-opacity: 0.5; stroke-width: 0.2"/>
   </g>
   <g id="line2d_39">
    <path d="M 75.4975 102.528 
L 745.0975 102.528 
" clip-path="url(#p31f9f3a7cb)" style="fill: none; stroke-dasharray: 0.74,0.32; stroke-dashoffset: 0; stroke: #a9a9a9; stroke-opacity: 0.5; stroke-width: 0.2"/>
   </g>
   <g id="line2d_40">
    <path d="M 75.4975 80.352 
L 745.0975 80.352 
" clip-path="url(#p31f9f3a7cb)" style="fill: none; stroke-dasharray: 0.74,0.32; stroke-dashoffset: 0; stroke: #a9a9a9; stroke-opacity: 0.5; stroke-width: 0.2"/>
   </g>
   <g id="line2d_41">
    <path d="M 75.4975 58.176 
L 745.0975 58.176 
" clip-path="url(#p31f9f3a7cb)" style="fill: none; stroke-dasharray: 0.74,0.32; stroke-dashoffset: 0; stroke: #a9a9a9; stroke-opacity: 0.5; stroke-width: 0.2"/>
   </g>
   <g id="matplotlib.axis_1">
    <g id="xtick_1">
     <g id="line2d_42">
      <defs>
       <path id="m0b2ab80e71" d="M 0 0 
L 0 5 
" style="stroke: #000000"/>
      </defs>
      <g>
       <use xlink:href="#m0b2ab80e71" x="89.4475" y="257.76" style="stroke: #000000"/>
      </g>
     </g>
     <g id="text_1">
      <!-- 1:00 -->
      <g transform="translate(92.549688 289.613125) rotate(-90) scale(0.12 -0.12)">
       <defs>
        <path id="ArialMT-31" d="M 2384 0 
L 1822 0 
L 1822 3584 
Q 1619 3391 1289 3197 
Q 959 3003 697 2906 
L 697 3450 
Q 1169 3672 1522 3987 
Q 1875 4303 2022 4600 
L 2384 4600 
L 2384 0 
z
" transform="scale(0.015625)"/>
        <path id="ArialMT-3a" d="M 578 2678 
L 578 3319 
L 1219 3319 
L 1219 2678 
L 578 2678 
z
M 578 0 
L 578 641 
L 1219 641 
L 1219 0 
L 578 0 
z
" transform="scale(0.015625)"/>
        <path id="ArialMT-30" d="M 266 2259 
Q 266 3072 433 3567 
Q 600 4063 929 4331 
Q 1259 4600 1759 4600 
Q 2128 4600 2406 4451 
Q 2684 4303 2865 4023 
Q 3047 3744 3150 3342 
Q 3253 2941 3253 2259 
Q 3253 1453 3087 958 
Q 2922 463 2592 192 
Q 2263 -78 1759 -78 
Q 1097 -78 719 397 
Q 266 969 266 2259 
z
M 844 2259 
Q 844 1131 1108 757 
Q 1372 384 1759 384 
Q 2147 384 2411 759 
Q 2675 1134 2675 2259 
Q 2675 3391 2411 3762 
Q 2147 4134 1753 4134 
Q 1366 4134 1134 3806 
Q 844 3388 844 2259 
z
" transform="scale(0.015625)"/>
       </defs>
       <use xlink:href="#ArialMT-31"/>
       <use xlink:href="#ArialMT-3a" transform="translate(55.615234 0)"/>
       <use xlink:href="#ArialMT-30" transform="translate(83.398438 0)"/>
       <use xlink:href="#ArialMT-30" transform="translate(139.013672 0)"/>
      </g>
     </g>
    </g>
    <g id="xtick_2">
     <g id="line2d_43">
      <g>
       <use xlink:href="#m0b2ab80e71" x="117.3475" y="257.76" style="stroke: #000000"/>
      </g>
     </g>
     <g id="text_2">
      <!-- 2:00 -->
      <g transform="translate(120.449688 289.613125) rotate(-90) scale(0.12 -0.12)">
       <defs>
        <path id="ArialMT-32" d="M 3222 541 
L 3222 0 
L 194 0 
Q 188 203 259 391 
Q 375 700 629 1000 
Q 884 1300 1366 1694 
Q 2113 2306 2375 2664 
Q 2638 3022 2638 3341 
Q 2638 3675 2398 3904 
Q 2159 4134 1775 4134 
Q 1369 4134 1125 3890 
Q 881 3647 878 3216 
L 300 3275 
Q 359 3922 746 4261 
Q 1134 4600 1788 4600 
Q 2447 4600 2831 4234 
Q 3216 3869 3216 3328 
Q 3216 3053 3103 2787 
Q 2991 2522 2730 2228 
Q 2469 1934 1863 1422 
Q 1356 997 1212 845 
Q 1069 694 975 541 
L 3222 541 
z
" transform="scale(0.015625)"/>
       </defs>
       <use xlink:href="#ArialMT-32"/>
       <use xlink:href="#ArialMT-3a" transform="translate(55.615234 0)"/>
       <use xlink:href="#ArialMT-30" transform="translate(83.398438 0)"/>
       <use xlink:href="#ArialMT-30" transform="translate(139.013672 0)"/>
      </g>
     </g>
    </g>
    <g id="xtick_3">
     <g id="line2d_44">
      <g>
       <use xlink:href="#m0b2ab80e71" x="145.2475" y="257.76" style="stroke: #000000"/>
      </g>
     </g>
     <g id="text_3">
      <!-- 3:00 -->
      <g transform="translate(148.349688 289.613125) rotate(-90) scale(0.12 -0.12)">
       <defs>
        <path id="ArialMT-33" d="M 269 1209 
L 831 1284 
Q 928 806 1161 595 
Q 1394 384 1728 384 
Q 2125 384 2398 659 
Q 2672 934 2672 1341 
Q 2672 1728 2419 1979 
Q 2166 2231 1775 2231 
Q 1616 2231 1378 2169 
L 1441 2663 
Q 1497 2656 1531 2656 
Q 1891 2656 2178 2843 
Q 2466 3031 2466 3422 
Q 2466 3731 2256 3934 
Q 2047 4138 1716 4138 
Q 1388 4138 1169 3931 
Q 950 3725 888 3313 
L 325 3413 
Q 428 3978 793 4289 
Q 1159 4600 1703 4600 
Q 2078 4600 2393 4439 
Q 2709 4278 2876 4000 
Q 3044 3722 3044 3409 
Q 3044 3113 2884 2869 
Q 2725 2625 2413 2481 
Q 2819 2388 3044 2092 
Q 3269 1797 3269 1353 
Q 3269 753 2831 336 
Q 2394 -81 1725 -81 
Q 1122 -81 723 278 
Q 325 638 269 1209 
z
" transform="scale(0.015625)"/>
       </defs>
       <use xlink:href="#ArialMT-33"/>
       <use xlink:href="#ArialMT-3a" transform="translate(55.615234 0)"/>
       <use xlink:href="#ArialMT-30" transform="translate(83.398438 0)"/>
       <use xlink:href="#ArialMT-30" transform="translate(139.013672 0)"/>
      </g>
     </g>
    </g>
    <g id="xtick_4">
     <g id="line2d_45">
      <g>
       <use xlink:href="#m0b2ab80e71" x="173.1475" y="257.76" style="stroke: #000000"/>
      </g>
     </g>
     <g id="text_4">
      <!-- 4:00 -->
      <g transform="translate(176.249688 289.613125) rotate(-90) scale(0.12 -0.12)">
       <defs>
        <path id="ArialMT-34" d="M 2069 0 
L 2069 1097 
L 81 1097 
L 81 1613 
L 2172 4581 
L 2631 4581 
L 2631 1613 
L 3250 1613 
L 3250 1097 
L 2631 1097 
L 2631 0 
L 2069 0 
z
M 2069 1613 
L 2069 3678 
L 634 1613 
L 2069 1613 
z
" transform="scale(0.015625)"/>
       </defs>
       <use xlink:href="#ArialMT-34"/>
       <use xlink:href="#ArialMT-3a" transform="translate(55.615234 0)"/>
       <use xlink:href="#ArialMT-30" transform="translate(83.398438 0)"/>
       <use xlink:href="#ArialMT-30" transform="translate(139.013672 0)"/>
      </g>
     </g>
    </g>
    <g id="xtick_5">
     <g id="line2d_46">
      <g>
       <use xlink:href="#m0b2ab80e71" x="201.0475" y="257.76" style="stroke: #000000"/>
      </g>
     </g>
     <g id="text_5">
      <!-- 5:00 -->
      <g transform="translate(204.149688 289.613125) rotate(-90) scale(0.12 -0.12)">
       <defs>
        <path id="ArialMT-35" d="M 266 1200 
L 856 1250 
Q 922 819 1161 601 
Q 1400 384 1738 384 
Q 2144 384 2425 690 
Q 2706 997 2706 1503 
Q 2706 1984 2436 2262 
Q 2166 2541 1728 2541 
Q 1456 2541 1237 2417 
Q 1019 2294 894 2097 
L 366 2166 
L 809 4519 
L 3088 4519 
L 3088 3981 
L 1259 3981 
L 1013 2750 
Q 1425 3038 1878 3038 
Q 2478 3038 2890 2622 
Q 3303 2206 3303 1553 
Q 3303 931 2941 478 
Q 2500 -78 1738 -78 
Q 1113 -78 717 272 
Q 322 622 266 1200 
z
" transform="scale(0.015625)"/>
       </defs>
       <use xlink:href="#ArialMT-35"/>
       <use xlink:href="#ArialMT-3a" transform="translate(55.615234 0)"/>
       <use xlink:href="#ArialMT-30" transform="translate(83.398438 0)"/>
       <use xlink:href="#ArialMT-30" transform="translate(139.013672 0)"/>
      </g>
     </g>
    </g>
    <g id="xtick_6">
     <g id="line2d_47">
      <g>
       <use xlink:href="#m0b2ab80e71" x="228.9475" y="257.76" style="stroke: #000000"/>
      </g>
     </g>
     <g id="text_6">
      <!-- 6:00 -->
      <g transform="translate(232.049688 289.613125) rotate(-90) scale(0.12 -0.12)">
       <defs>
        <path id="ArialMT-36" d="M 3184 3459 
L 2625 3416 
Q 2550 3747 2413 3897 
Q 2184 4138 1850 4138 
Q 1581 4138 1378 3988 
Q 1113 3794 959 3422 
Q 806 3050 800 2363 
Q 1003 2672 1297 2822 
Q 1591 2972 1913 2972 
Q 2475 2972 2870 2558 
Q 3266 2144 3266 1488 
Q 3266 1056 3080 686 
Q 2894 316 2569 119 
Q 2244 -78 1831 -78 
Q 1128 -78 684 439 
Q 241 956 241 2144 
Q 241 3472 731 4075 
Q 1159 4600 1884 4600 
Q 2425 4600 2770 4297 
Q 3116 3994 3184 3459 
z
M 888 1484 
Q 888 1194 1011 928 
Q 1134 663 1356 523 
Q 1578 384 1822 384 
Q 2178 384 2434 671 
Q 2691 959 2691 1453 
Q 2691 1928 2437 2201 
Q 2184 2475 1800 2475 
Q 1419 2475 1153 2201 
Q 888 1928 888 1484 
z
" transform="scale(0.015625)"/>
       </defs>
       <use xlink:href="#ArialMT-36"/>
       <use xlink:href="#ArialMT-3a" transform="translate(55.615234 0)"/>
       <use xlink:href="#ArialMT-30" transform="translate(83.398438 0)"/>
       <use xlink:href="#ArialMT-30" transform="translate(139.013672 0)"/>
      </g>
     </g>
    </g>
    <g id="xtick_7">
     <g id="line2d_48">
      <g>
       <use xlink:href="#m0b2ab80e71" x="256.8475" y="257.76" style="stroke: #000000"/>
      </g>
     </g>
     <g id="text_7">
      <!-- 7:00 -->
      <g transform="translate(259.949688 289.613125) rotate(-90) scale(0.12 -0.12)">
       <defs>
        <path id="ArialMT-37" d="M 303 3981 
L 303 4522 
L 3269 4522 
L 3269 4084 
Q 2831 3619 2401 2847 
Q 1972 2075 1738 1259 
Q 1569 684 1522 0 
L 944 0 
Q 953 541 1156 1306 
Q 1359 2072 1739 2783 
Q 2119 3494 2547 3981 
L 303 3981 
z
" transform="scale(0.015625)"/>
       </defs>
       <use xlink:href="#ArialMT-37"/>
       <use xlink:href="#ArialMT-3a" transform="translate(55.615234 0)"/>
       <use xlink:href="#ArialMT-30" transform="translate(83.398438 0)"/>
       <use xlink:href="#ArialMT-30" transform="translate(139.013672 0)"/>
      </g>
     </g>
    </g>
    <g id="xtick_8">
     <g id="line2d_49">
      <g>
       <use xlink:href="#m0b2ab80e71" x="284.7475" y="257.76" style="stroke: #000000"/>
      </g>
     </g>
     <g id="text_8">
      <!-- 8:00 -->
      <g transform="translate(287.849688 289.613125) rotate(-90) scale(0.12 -0.12)">
       <defs>
        <path id="ArialMT-38" d="M 1131 2484 
Q 781 2613 612 2850 
Q 444 3088 444 3419 
Q 444 3919 803 4259 
Q 1163 4600 1759 4600 
Q 2359 4600 2725 4251 
Q 3091 3903 3091 3403 
Q 3091 3084 2923 2848 
Q 2756 2613 2416 2484 
Q 2838 2347 3058 2040 
Q 3278 1734 3278 1309 
Q 3278 722 2862 322 
Q 2447 -78 1769 -78 
Q 1091 -78 675 323 
Q 259 725 259 1325 
Q 259 1772 486 2073 
Q 713 2375 1131 2484 
z
M 1019 3438 
Q 1019 3113 1228 2906 
Q 1438 2700 1772 2700 
Q 2097 2700 2305 2904 
Q 2513 3109 2513 3406 
Q 2513 3716 2298 3927 
Q 2084 4138 1766 4138 
Q 1444 4138 1231 3931 
Q 1019 3725 1019 3438 
z
M 838 1322 
Q 838 1081 952 856 
Q 1066 631 1291 507 
Q 1516 384 1775 384 
Q 2178 384 2440 643 
Q 2703 903 2703 1303 
Q 2703 1709 2433 1975 
Q 2163 2241 1756 2241 
Q 1359 2241 1098 1978 
Q 838 1716 838 1322 
z
" transform="scale(0.015625)"/>
       </defs>
       <use xlink:href="#ArialMT-38"/>
       <use xlink:href="#ArialMT-3a" transform="translate(55.615234 0)"/>
       <use xlink:href="#ArialMT-30" transform="translate(83.398438 0)"/>
       <use xlink:href="#ArialMT-30" transform="translate(139.013672 0)"/>
      </g>
     </g>
    </g>
    <g id="xtick_9">
     <g id="line2d_50">
      <g>
       <use xlink:href="#m0b2ab80e71" x="312.6475" y="257.76" style="stroke: #000000"/>
      </g>
     </g>
     <g id="text_9">
      <!-- 9:00 -->
      <g transform="translate(315.749688 289.613125) rotate(-90) scale(0.12 -0.12)">
       <defs>
        <path id="ArialMT-39" d="M 350 1059 
L 891 1109 
Q 959 728 1153 556 
Q 1347 384 1650 384 
Q 1909 384 2104 503 
Q 2300 622 2425 820 
Q 2550 1019 2634 1356 
Q 2719 1694 2719 2044 
Q 2719 2081 2716 2156 
Q 2547 1888 2255 1720 
Q 1963 1553 1622 1553 
Q 1053 1553 659 1965 
Q 266 2378 266 3053 
Q 266 3750 677 4175 
Q 1088 4600 1706 4600 
Q 2153 4600 2523 4359 
Q 2894 4119 3086 3673 
Q 3278 3228 3278 2384 
Q 3278 1506 3087 986 
Q 2897 466 2520 194 
Q 2144 -78 1638 -78 
Q 1100 -78 759 220 
Q 419 519 350 1059 
z
M 2653 3081 
Q 2653 3566 2395 3850 
Q 2138 4134 1775 4134 
Q 1400 4134 1122 3828 
Q 844 3522 844 3034 
Q 844 2597 1108 2323 
Q 1372 2050 1759 2050 
Q 2150 2050 2401 2323 
Q 2653 2597 2653 3081 
z
" transform="scale(0.015625)"/>
       </defs>
       <use xlink:href="#ArialMT-39"/>
       <use xlink:href="#ArialMT-3a" transform="translate(55.615234 0)"/>
       <use xlink:href="#ArialMT-30" transform="translate(83.398438 0)"/>
       <use xlink:href="#ArialMT-30" transform="translate(139.013672 0)"/>
      </g>
     </g>
    </g>
    <g id="xtick_10">
     <g id="line2d_51">
      <g>
       <use xlink:href="#m0b2ab80e71" x="340.5475" y="257.76" style="stroke: #000000"/>
      </g>
     </g>
     <g id="text_10">
      <!-- 10:00 -->
      <g transform="translate(343.649688 296.28625) rotate(-90) scale(0.12 -0.12)">
       <use xlink:href="#ArialMT-31"/>
       <use xlink:href="#ArialMT-30" transform="translate(55.615234 0)"/>
       <use xlink:href="#ArialMT-3a" transform="translate(111.230469 0)"/>
       <use xlink:href="#ArialMT-30" transform="translate(139.013672 0)"/>
       <use xlink:href="#ArialMT-30" transform="translate(194.628906 0)"/>
      </g>
     </g>
    </g>
    <g id="xtick_11">
     <g id="line2d_52">
      <g>
       <use xlink:href="#m0b2ab80e71" x="368.4475" y="257.76" style="stroke: #000000"/>
      </g>
     </g>
     <g id="text_11">
      <!-- 11:00 -->
      <g transform="translate(371.549688 295.40125) rotate(-90) scale(0.12 -0.12)">
       <use xlink:href="#ArialMT-31"/>
       <use xlink:href="#ArialMT-31" transform="translate(48.240234 0)"/>
       <use xlink:href="#ArialMT-3a" transform="translate(103.855469 0)"/>
       <use xlink:href="#ArialMT-30" transform="translate(131.638672 0)"/>
       <use xlink:href="#ArialMT-30" transform="translate(187.253906 0)"/>
      </g>
     </g>
    </g>
    <g id="xtick_12">
     <g id="line2d_53">
      <g>
       <use xlink:href="#m0b2ab80e71" x="396.3475" y="257.76" style="stroke: #000000"/>
      </g>
     </g>
     <g id="text_12">
      <!-- 12:00 -->
      <g transform="translate(399.449688 296.28625) rotate(-90) scale(0.12 -0.12)">
       <use xlink:href="#ArialMT-31"/>
       <use xlink:href="#ArialMT-32" transform="translate(55.615234 0)"/>
       <use xlink:href="#ArialMT-3a" transform="translate(111.230469 0)"/>
       <use xlink:href="#ArialMT-30" transform="translate(139.013672 0)"/>
       <use xlink:href="#ArialMT-30" transform="translate(194.628906 0)"/>
      </g>
     </g>
    </g>
    <g id="xtick_13">
     <g id="line2d_54">
      <g>
       <use xlink:href="#m0b2ab80e71" x="424.2475" y="257.76" style="stroke: #000000"/>
      </g>
     </g>
     <g id="text_13">
      <!-- 13:00 -->
      <g transform="translate(427.349688 296.28625) rotate(-90) scale(0.12 -0.12)">
       <use xlink:href="#ArialMT-31"/>
       <use xlink:href="#ArialMT-33" transform="translate(55.615234 0)"/>
       <use xlink:href="#ArialMT-3a" transform="translate(111.230469 0)"/>
       <use xlink:href="#ArialMT-30" transform="translate(139.013672 0)"/>
       <use xlink:href="#ArialMT-30" transform="translate(194.628906 0)"/>
      </g>
     </g>
    </g>
    <g id="xtick_14">
     <g id="line2d_55">
      <g>
       <use xlink:href="#m0b2ab80e71" x="452.1475" y="257.76" style="stroke: #000000"/>
      </g>
     </g>
     <g id="text_14">
      <!-- 14:00 -->
      <g transform="translate(455.249688 296.28625) rotate(-90) scale(0.12 -0.12)">
       <use xlink:href="#ArialMT-31"/>
       <use xlink:href="#ArialMT-34" transform="translate(55.615234 0)"/>
       <use xlink:href="#ArialMT-3a" transform="translate(111.230469 0)"/>
       <use xlink:href="#ArialMT-30" transform="translate(139.013672 0)"/>
       <use xlink:href="#ArialMT-30" transform="translate(194.628906 0)"/>
      </g>
     </g>
    </g>
    <g id="xtick_15">
     <g id="line2d_56">
      <g>
       <use xlink:href="#m0b2ab80e71" x="480.0475" y="257.76" style="stroke: #000000"/>
      </g>
     </g>
     <g id="text_15">
      <!-- 15:00 -->
      <g transform="translate(483.149688 296.28625) rotate(-90) scale(0.12 -0.12)">
       <use xlink:href="#ArialMT-31"/>
       <use xlink:href="#ArialMT-35" transform="translate(55.615234 0)"/>
       <use xlink:href="#ArialMT-3a" transform="translate(111.230469 0)"/>
       <use xlink:href="#ArialMT-30" transform="translate(139.013672 0)"/>
       <use xlink:href="#ArialMT-30" transform="translate(194.628906 0)"/>
      </g>
     </g>
    </g>
    <g id="xtick_16">
     <g id="line2d_57">
      <g>
       <use xlink:href="#m0b2ab80e71" x="507.9475" y="257.76" style="stroke: #000000"/>
      </g>
     </g>
     <g id="text_16">
      <!-- 16:00 -->
      <g transform="translate(511.049688 296.28625) rotate(-90) scale(0.12 -0.12)">
       <use xlink:href="#ArialMT-31"/>
       <use xlink:href="#ArialMT-36" transform="translate(55.615234 0)"/>
       <use xlink:href="#ArialMT-3a" transform="translate(111.230469 0)"/>
       <use xlink:href="#ArialMT-30" transform="translate(139.013672 0)"/>
       <use xlink:href="#ArialMT-30" transform="translate(194.628906 0)"/>
      </g>
     </g>
    </g>
    <g id="xtick_17">
     <g id="line2d_58">
      <g>
       <use xlink:href="#m0b2ab80e71" x="535.8475" y="257.76" style="stroke: #000000"/>
      </g>
     </g>
     <g id="text_17">
      <!-- 17:00 -->
      <g transform="translate(538.949688 296.28625) rotate(-90) scale(0.12 -0.12)">
       <use xlink:href="#ArialMT-31"/>
       <use xlink:href="#ArialMT-37" transform="translate(55.615234 0)"/>
       <use xlink:href="#ArialMT-3a" transform="translate(111.230469 0)"/>
       <use xlink:href="#ArialMT-30" transform="translate(139.013672 0)"/>
       <use xlink:href="#ArialMT-30" transform="translate(194.628906 0)"/>
      </g>
     </g>
    </g>
    <g id="xtick_18">
     <g id="line2d_59">
      <g>
       <use xlink:href="#m0b2ab80e71" x="563.7475" y="257.76" style="stroke: #000000"/>
      </g>
     </g>
     <g id="text_18">
      <!-- 18:00 -->
      <g transform="translate(566.849688 296.28625) rotate(-90) scale(0.12 -0.12)">
       <use xlink:href="#ArialMT-31"/>
       <use xlink:href="#ArialMT-38" transform="translate(55.615234 0)"/>
       <use xlink:href="#ArialMT-3a" transform="translate(111.230469 0)"/>
       <use xlink:href="#ArialMT-30" transform="translate(139.013672 0)"/>
       <use xlink:href="#ArialMT-30" transform="translate(194.628906 0)"/>
      </g>
     </g>
    </g>
    <g id="xtick_19">
     <g id="line2d_60">
      <g>
       <use xlink:href="#m0b2ab80e71" x="591.6475" y="257.76" style="stroke: #000000"/>
      </g>
     </g>
     <g id="text_19">
      <!-- 19:00 -->
      <g transform="translate(594.749688 296.28625) rotate(-90) scale(0.12 -0.12)">
       <use xlink:href="#ArialMT-31"/>
       <use xlink:href="#ArialMT-39" transform="translate(55.615234 0)"/>
       <use xlink:href="#ArialMT-3a" transform="translate(111.230469 0)"/>
       <use xlink:href="#ArialMT-30" transform="translate(139.013672 0)"/>
       <use xlink:href="#ArialMT-30" transform="translate(194.628906 0)"/>
      </g>
     </g>
    </g>
    <g id="xtick_20">
     <g id="line2d_61">
      <g>
       <use xlink:href="#m0b2ab80e71" x="619.5475" y="257.76" style="stroke: #000000"/>
      </g>
     </g>
     <g id="text_20">
      <!-- 20:00 -->
      <g transform="translate(622.649688 296.28625) rotate(-90) scale(0.12 -0.12)">
       <use xlink:href="#ArialMT-32"/>
       <use xlink:href="#ArialMT-30" transform="translate(55.615234 0)"/>
       <use xlink:href="#ArialMT-3a" transform="translate(111.230469 0)"/>
       <use xlink:href="#ArialMT-30" transform="translate(139.013672 0)"/>
       <use xlink:href="#ArialMT-30" transform="translate(194.628906 0)"/>
      </g>
     </g>
    </g>
    <g id="xtick_21">
     <g id="line2d_62">
      <g>
       <use xlink:href="#m0b2ab80e71" x="647.4475" y="257.76" style="stroke: #000000"/>
      </g>
     </g>
     <g id="text_21">
      <!-- 21:00 -->
      <g transform="translate(650.549688 296.28625) rotate(-90) scale(0.12 -0.12)">
       <use xlink:href="#ArialMT-32"/>
       <use xlink:href="#ArialMT-31" transform="translate(55.615234 0)"/>
       <use xlink:href="#ArialMT-3a" transform="translate(111.230469 0)"/>
       <use xlink:href="#ArialMT-30" transform="translate(139.013672 0)"/>
       <use xlink:href="#ArialMT-30" transform="translate(194.628906 0)"/>
      </g>
     </g>
    </g>
    <g id="xtick_22">
     <g id="line2d_63">
      <g>
       <use xlink:href="#m0b2ab80e71" x="675.3475" y="257.76" style="stroke: #000000"/>
      </g>
     </g>
     <g id="text_22">
      <!-- 22:00 -->
      <g transform="translate(678.449688 296.28625) rotate(-90) scale(0.12 -0.12)">
       <use xlink:href="#ArialMT-32"/>
       <use xlink:href="#ArialMT-32" transform="translate(55.615234 0)"/>
       <use xlink:href="#ArialMT-3a" transform="translate(111.230469 0)"/>
       <use xlink:href="#ArialMT-30" transform="translate(139.013672 0)"/>
       <use xlink:href="#ArialMT-30" transform="translate(194.628906 0)"/>
      </g>
     </g>
    </g>
    <g id="xtick_23">
     <g id="line2d_64">
      <g>
       <use xlink:href="#m0b2ab80e71" x="703.2475" y="257.76" style="stroke: #000000"/>
      </g>
     </g>
     <g id="text_23">
      <!-- 23:00 -->
      <g transform="translate(706.349688 296.28625) rotate(-90) scale(0.12 -0.12)">
       <use xlink:href="#ArialMT-32"/>
       <use xlink:href="#ArialMT-33" transform="translate(55.615234 0)"/>
       <use xlink:href="#ArialMT-3a" transform="translate(111.230469 0)"/>
       <use xlink:href="#ArialMT-30" transform="translate(139.013672 0)"/>
       <use xlink:href="#ArialMT-30" transform="translate(194.628906 0)"/>
      </g>
     </g>
    </g>
    <g id="xtick_24">
     <g id="line2d_65">
      <g>
       <use xlink:href="#m0b2ab80e71" x="731.1475" y="257.76" style="stroke: #000000"/>
      </g>
     </g>
     <g id="text_24">
      <!-- 24:00 -->
      <g transform="translate(734.249688 296.28625) rotate(-90) scale(0.12 -0.12)">
       <use xlink:href="#ArialMT-32"/>
       <use xlink:href="#ArialMT-34" transform="translate(55.615234 0)"/>
       <use xlink:href="#ArialMT-3a" transform="translate(111.230469 0)"/>
       <use xlink:href="#ArialMT-30" transform="translate(139.013672 0)"/>
       <use xlink:href="#ArialMT-30" transform="translate(194.628906 0)"/>
      </g>
     </g>
    </g>
   </g>
   <g id="matplotlib.axis_2">
    <g id="ytick_1">
     <g id="line2d_66">
      <defs>
       <path id="m332078138e" d="M 0 0 
L -5 0 
" style="stroke: #000000; stroke-opacity: 0; stroke-width: 1.5"/>
      </defs>
      <g>
       <use xlink:href="#m332078138e" x="75.4975" y="247.830448" style="fill-opacity: 0; stroke: #000000; stroke-opacity: 0; stroke-width: 1.5"/>
      </g>
     </g>
     <g id="text_25">
      <!-- 0 -->
      <g transform="translate(58.1 253.556698) scale(0.16 -0.16)">
       <use xlink:href="#ArialMT-30"/>
      </g>
     </g>
    </g>
    <g id="ytick_2">
     <g id="line2d_67">
      <g>
       <use xlink:href="#m332078138e" x="75.4975" y="181.633433" style="fill-opacity: 0; stroke: #000000; stroke-opacity: 0; stroke-width: 1.5"/>
      </g>
     </g>
     <g id="text_26">
      <!-- 1 -->
      <g transform="translate(58.1 187.359683) scale(0.16 -0.16)">
       <use xlink:href="#ArialMT-31"/>
      </g>
     </g>
    </g>
    <g id="ytick_3">
     <g id="line2d_68">
      <g>
       <use xlink:href="#m332078138e" x="75.4975" y="115.436418" style="fill-opacity: 0; stroke: #000000; stroke-opacity: 0; stroke-width: 1.5"/>
      </g>
     </g>
     <g id="text_27">
      <!-- 2 -->
      <g transform="translate(58.1 121.162668) scale(0.16 -0.16)">
       <use xlink:href="#ArialMT-32"/>
      </g>
     </g>
    </g>
    <g id="ytick_4">
     <g id="line2d_69">
      <g>
       <use xlink:href="#m332078138e" x="75.4975" y="49.239403" style="fill-opacity: 0; stroke: #000000; stroke-opacity: 0; stroke-width: 1.5"/>
      </g>
     </g>
     <g id="text_28">
      <!-- 3 -->
      <g transform="translate(58.1 54.965653) scale(0.16 -0.16)">
       <use xlink:href="#ArialMT-33"/>
      </g>
     </g>
    </g>
    <g id="text_29">
     <!-- CO$_{\mathregular{2}}$ (ton) -->
     <g transform="translate(49.14 185.31) rotate(-90) scale(0.18 -0.18)">
      <defs>
       <path id="ArialMT-43" d="M 3763 1606 
L 4369 1453 
Q 4178 706 3683 314 
Q 3188 -78 2472 -78 
Q 1731 -78 1267 223 
Q 803 525 561 1097 
Q 319 1669 319 2325 
Q 319 3041 592 3573 
Q 866 4106 1370 4382 
Q 1875 4659 2481 4659 
Q 3169 4659 3637 4309 
Q 4106 3959 4291 3325 
L 3694 3184 
Q 3534 3684 3231 3912 
Q 2928 4141 2469 4141 
Q 1941 4141 1586 3887 
Q 1231 3634 1087 3207 
Q 944 2781 944 2328 
Q 944 1744 1114 1308 
Q 1284 872 1643 656 
Q 2003 441 2422 441 
Q 2931 441 3284 734 
Q 3638 1028 3763 1606 
z
" transform="scale(0.015625)"/>
       <path id="ArialMT-4f" d="M 309 2231 
Q 309 3372 921 4017 
Q 1534 4663 2503 4663 
Q 3138 4663 3647 4359 
Q 4156 4056 4423 3514 
Q 4691 2972 4691 2284 
Q 4691 1588 4409 1038 
Q 4128 488 3612 205 
Q 3097 -78 2500 -78 
Q 1853 -78 1343 234 
Q 834 547 571 1087 
Q 309 1628 309 2231 
z
M 934 2222 
Q 934 1394 1379 917 
Q 1825 441 2497 441 
Q 3181 441 3623 922 
Q 4066 1403 4066 2288 
Q 4066 2847 3877 3264 
Q 3688 3681 3323 3911 
Q 2959 4141 2506 4141 
Q 1863 4141 1398 3698 
Q 934 3256 934 2222 
z
" transform="scale(0.015625)"/>
       <path id="ArialMT-20" transform="scale(0.015625)"/>
       <path id="ArialMT-28" d="M 1497 -1347 
Q 1031 -759 709 28 
Q 388 816 388 1659 
Q 388 2403 628 3084 
Q 909 3875 1497 4659 
L 1900 4659 
Q 1522 4009 1400 3731 
Q 1209 3300 1100 2831 
Q 966 2247 966 1656 
Q 966 153 1900 -1347 
L 1497 -1347 
z
" transform="scale(0.015625)"/>
       <path id="ArialMT-74" d="M 1650 503 
L 1731 6 
Q 1494 -44 1306 -44 
Q 1000 -44 831 53 
Q 663 150 594 308 
Q 525 466 525 972 
L 525 2881 
L 113 2881 
L 113 3319 
L 525 3319 
L 525 4141 
L 1084 4478 
L 1084 3319 
L 1650 3319 
L 1650 2881 
L 1084 2881 
L 1084 941 
Q 1084 700 1114 631 
Q 1144 563 1211 522 
Q 1278 481 1403 481 
Q 1497 481 1650 503 
z
" transform="scale(0.015625)"/>
       <path id="ArialMT-6f" d="M 213 1659 
Q 213 2581 725 3025 
Q 1153 3394 1769 3394 
Q 2453 3394 2887 2945 
Q 3322 2497 3322 1706 
Q 3322 1066 3130 698 
Q 2938 331 2570 128 
Q 2203 -75 1769 -75 
Q 1072 -75 642 372 
Q 213 819 213 1659 
z
M 791 1659 
Q 791 1022 1069 705 
Q 1347 388 1769 388 
Q 2188 388 2466 706 
Q 2744 1025 2744 1678 
Q 2744 2294 2464 2611 
Q 2184 2928 1769 2928 
Q 1347 2928 1069 2612 
Q 791 2297 791 1659 
z
" transform="scale(0.015625)"/>
       <path id="ArialMT-6e" d="M 422 0 
L 422 3319 
L 928 3319 
L 928 2847 
Q 1294 3394 1984 3394 
Q 2284 3394 2536 3286 
Q 2788 3178 2913 3003 
Q 3038 2828 3088 2588 
Q 3119 2431 3119 2041 
L 3119 0 
L 2556 0 
L 2556 2019 
Q 2556 2363 2490 2533 
Q 2425 2703 2258 2804 
Q 2091 2906 1866 2906 
Q 1506 2906 1245 2678 
Q 984 2450 984 1813 
L 984 0 
L 422 0 
z
" transform="scale(0.015625)"/>
       <path id="ArialMT-29" d="M 791 -1347 
L 388 -1347 
Q 1322 153 1322 1656 
Q 1322 2244 1188 2822 
Q 1081 3291 891 3722 
Q 769 4003 388 4659 
L 791 4659 
Q 1378 3875 1659 3084 
Q 1900 2403 1900 1659 
Q 1900 816 1576 28 
Q 1253 -759 791 -1347 
z
" transform="scale(0.015625)"/>
      </defs>
      <use xlink:href="#ArialMT-43" transform="translate(0 0.140625)"/>
      <use xlink:href="#ArialMT-4f" transform="translate(72.216797 0.140625)"/>
      <use xlink:href="#ArialMT-32" transform="translate(150.957031 -16.265625) scale(0.7)"/>
      <use xlink:href="#ArialMT-20" transform="translate(192.62207 0.140625)"/>
      <use xlink:href="#ArialMT-28" transform="translate(220.405273 0.140625)"/>
      <use xlink:href="#ArialMT-74" transform="translate(253.706055 0.140625)"/>
      <use xlink:href="#ArialMT-6f" transform="translate(281.489258 0.140625)"/>
      <use xlink:href="#ArialMT-6e" transform="translate(337.104492 0.140625)"/>
      <use xlink:href="#ArialMT-29" transform="translate(392.719727 0.140625)"/>
     </g>
    </g>
   </g>
   <g id="line2d_70">
    <path d="M 89.4475 184.601136 
L 117.3475 206.087324 
L 145.2475 213.431675 
L 173.1475 210.846964 
L 201.0475 186.352787 
L 228.9475 129.82946 
L 256.8475 125.954143 
L 284.7475 117.608969 
L 312.6475 115.56336 
L 340.5475 117.208134 
L 368.4475 115.179597 
L 396.3475 112.589434 
L 424.2475 109.899526 
L 452.1475 109.04251 
L 480.0475 111.301891 
L 507.9475 110.973344 
L 535.8475 108.72111 
L 563.7475 110.730082 
L 591.6475 114.334706 
L 619.5475 122.184416 
L 647.4475 125.773124 
L 675.3475 125.484622 
L 703.2475 126.660515 
L 731.1475 150.917471 
" clip-path="url(#p31f9f3a7cb)" style="fill: none; stroke: #9edae5; stroke-opacity: 0.8; stroke-width: 1.5; stroke-linecap: round"/>
   </g>
   <g id="line2d_71">
    <path d="M 89.4475 241.552797 
L 117.3475 243.592148 
L 145.2475 244.467935 
L 173.1475 244.811568 
L 201.0475 242.588882 
L 228.9475 235.377445 
L 256.8475 221.803045 
L 284.7475 206.01192 
L 312.6475 202.717537 
L 340.5475 202.2129 
L 368.4475 202.090568 
L 396.3475 200.982095 
L 424.2475 199.218063 
L 452.1475 199.722879 
L 480.0475 198.571494 
L 507.9475 198.189786 
L 535.8475 198.162221 
L 563.7475 198.916296 
L 591.6475 202.350928 
L 619.5475 209.591668 
L 647.4475 217.574983 
L 675.3475 224.423583 
L 703.2475 230.568802 
L 731.1475 238.204231 
" clip-path="url(#p31f9f3a7cb)" style="fill: none; stroke: #f7b6d2; stroke-opacity: 0.8; stroke-width: 1.5; stroke-linecap: round"/>
   </g>
   <g id="line2d_72">
    <path d="M 89.4475 240.955656 
L 117.3475 242.9178 
L 145.2475 243.570609 
L 173.1475 243.34491 
L 201.0475 240.727846 
L 228.9475 232.218693 
L 256.8475 220.301701 
L 284.7475 205.246623 
L 312.6475 200.452336 
L 340.5475 199.099169 
L 368.4475 198.125227 
L 396.3475 198.085925 
L 424.2475 196.35918 
L 452.1475 196.969841 
L 480.0475 197.032065 
L 507.9475 197.595391 
L 535.8475 197.33397 
L 563.7475 197.544806 
L 591.6475 201.688641 
L 619.5475 209.627106 
L 647.4475 217.079939 
L 675.3475 223.204908 
L 703.2475 229.347292 
L 731.1475 238.650816 
" clip-path="url(#p31f9f3a7cb)" style="fill: none; stroke: #bcbd22; stroke-opacity: 0.8; stroke-width: 1.5; stroke-linecap: round"/>
   </g>
   <g id="line2d_73">
    <path d="M 89.4475 206.904608 
L 117.3475 221.39853 
L 145.2475 226.214755 
L 173.1475 223.548303 
L 201.0475 203.461383 
L 228.9475 157.789449 
L 256.8475 124.825823 
L 284.7475 124.174017 
L 312.6475 120.29577 
L 340.5475 122.769132 
L 368.4475 123.219104 
L 396.3475 122.250728 
L 424.2475 120.873888 
L 452.1475 120.267968 
L 480.0475 121.085216 
L 507.9475 121.864635 
L 535.8475 122.48409 
L 563.7475 122.359216 
L 591.6475 126.333014 
L 619.5475 131.745525 
L 647.4475 117.271547 
L 675.3475 131.158318 
L 703.2475 155.350347 
L 731.1475 183.261025 
" clip-path="url(#p31f9f3a7cb)" style="fill: none; stroke: #9467bd; stroke-opacity: 0.8; stroke-width: 1.5; stroke-linecap: round"/>
   </g>
   <g id="line2d_74">
    <path d="M 89.4475 225.930595 
L 117.3475 233.76935 
L 145.2475 236.729987 
L 173.1475 236.824566 
L 201.0475 228.091245 
L 228.9475 205.03583 
L 256.8475 186.586751 
L 284.7475 172.576277 
L 312.6475 171.927404 
L 340.5475 172.998722 
L 368.4475 171.824378 
L 396.3475 170.649395 
L 424.2475 169.830899 
L 452.1475 170.014817 
L 480.0475 170.793153 
L 507.9475 169.887651 
L 535.8475 169.967074 
L 563.7475 170.78993 
L 591.6475 174.038929 
L 619.5475 178.118707 
L 647.4475 176.809893 
L 675.3475 185.506629 
L 703.2475 198.821278 
L 731.1475 213.616837 
" clip-path="url(#p31f9f3a7cb)" style="fill: none; stroke: #c5b0d5; stroke-opacity: 0.8; stroke-width: 1.5; stroke-linecap: round"/>
   </g>
   <g id="line2d_75">
    <path d="M 89.4475 240.143861 
L 117.3475 243.099794 
L 145.2475 244.253594 
L 173.1475 245.01263 
L 201.0475 242.316924 
L 228.9475 233.653476 
L 256.8475 218.548799 
L 284.7475 203.488628 
L 312.6475 200.583616 
L 340.5475 200.434573 
L 368.4475 200.871577 
L 396.3475 198.742581 
L 424.2475 196.611391 
L 452.1475 196.928207 
L 480.0475 195.66199 
L 507.9475 194.755301 
L 535.8475 194.649018 
L 563.7475 194.677615 
L 591.6475 200.330784 
L 619.5475 203.266828 
L 647.4475 211.971687 
L 675.3475 219.865475 
L 703.2475 226.285776 
L 731.1475 235.06954 
" clip-path="url(#p31f9f3a7cb)" style="fill: none; stroke: #8c564b; stroke-opacity: 0.8; stroke-width: 1.5; stroke-linecap: round"/>
   </g>
   <g id="line2d_76">
    <path d="M 89.4475 239.3916 
L 117.3475 242.986908 
L 145.2475 244.236121 
L 173.1475 245.121784 
L 201.0475 242.664408 
L 228.9475 234.629416 
L 256.8475 220.440349 
L 284.7475 204.888706 
L 312.6475 201.343329 
L 340.5475 200.696355 
L 368.4475 200.424371 
L 396.3475 197.660604 
L 424.2475 195.768327 
L 452.1475 196.623522 
L 480.0475 196.256907 
L 507.9475 196.954925 
L 535.8475 195.281412 
L 563.7475 195.891773 
L 591.6475 200.554829 
L 619.5475 203.110897 
L 647.4475 211.865477 
L 675.3475 218.530103 
L 703.2475 225.52004 
L 731.1475 233.755675 
" clip-path="url(#p31f9f3a7cb)" style="fill: none; stroke: #7f7f7f; stroke-opacity: 0.8; stroke-width: 1.5; stroke-linecap: round"/>
   </g>
   <g id="line2d_77">
    <path d="M 89.4475 224.275356 
L 117.3475 232.636568 
L 145.2475 235.819175 
L 173.1475 236.591945 
L 201.0475 228.976269 
L 228.9475 208.546157 
L 256.8475 181.686361 
L 284.7475 159.285077 
L 312.6475 157.247735 
L 340.5475 163.737173 
L 368.4475 163.886513 
L 396.3475 162.224719 
L 424.2475 159.509127 
L 452.1475 158.766289 
L 480.0475 158.054837 
L 507.9475 159.193901 
L 535.8475 159.325849 
L 563.7475 159.21607 
L 591.6475 165.034115 
L 619.5475 155.480083 
L 647.4475 164.846181 
L 675.3475 176.532553 
L 703.2475 191.115677 
L 731.1475 209.82558 
" clip-path="url(#p31f9f3a7cb)" style="fill: none; stroke: #9edae5; stroke-opacity: 0.8; stroke-width: 1.5; stroke-linecap: round"/>
   </g>
   <g id="line2d_78">
    <path d="M 89.4475 229.897601 
L 117.3475 236.420005 
L 145.2475 238.801694 
L 173.1475 239.342274 
L 201.0475 232.688361 
L 228.9475 214.782843 
L 256.8475 188.780684 
L 284.7475 169.759577 
L 312.6475 165.250554 
L 340.5475 164.866765 
L 368.4475 164.194749 
L 396.3475 162.738434 
L 424.2475 162.022717 
L 452.1475 161.767316 
L 480.0475 161.593904 
L 507.9475 162.453768 
L 535.8475 161.873631 
L 563.7475 160.45787 
L 591.6475 162.180243 
L 619.5475 168.913811 
L 647.4475 176.2089 
L 675.3475 186.161833 
L 703.2475 199.892624 
L 731.1475 218.811997 
" clip-path="url(#p31f9f3a7cb)" style="fill: none; stroke: #c7c7c7; stroke-opacity: 0.8; stroke-width: 1.5; stroke-linecap: round"/>
   </g>
   <g id="line2d_79">
    <path d="M 89.4475 231.701973 
L 117.3475 237.596839 
L 145.2475 240.192564 
L 173.1475 242.338707 
L 201.0475 237.138347 
L 228.9475 223.582559 
L 256.8475 206.496855 
L 284.7475 190.465644 
L 312.6475 182.620579 
L 340.5475 182.047982 
L 368.4475 183.021771 
L 396.3475 180.257904 
L 424.2475 179.178106 
L 452.1475 179.364058 
L 480.0475 178.355882 
L 507.9475 178.645351 
L 535.8475 178.582061 
L 563.7475 178.735634 
L 591.6475 183.316883 
L 619.5475 182.967396 
L 647.4475 192.434957 
L 675.3475 200.767562 
L 703.2475 208.893792 
L 731.1475 222.75758 
" clip-path="url(#p31f9f3a7cb)" style="fill: none; stroke: #c49c94; stroke-opacity: 0.8; stroke-width: 1.5; stroke-linecap: round"/>
   </g>
   <g id="line2d_80">
    <path d="M 89.4475 231.745727 
L 117.3475 237.513858 
L 145.2475 239.81551 
L 173.1475 241.369215 
L 201.0475 236.482276 
L 228.9475 222.624702 
L 256.8475 204.745464 
L 284.7475 189.191557 
L 312.6475 182.831258 
L 340.5475 182.291324 
L 368.4475 182.46395 
L 396.3475 180.645448 
L 424.2475 178.315281 
L 452.1475 177.36445 
L 480.0475 176.146402 
L 507.9475 176.202497 
L 535.8475 175.844659 
L 563.7475 176.912259 
L 591.6475 180.526716 
L 619.5475 182.991863 
L 647.4475 192.894233 
L 675.3475 200.651466 
L 703.2475 209.052963 
L 731.1475 222.982212 
" clip-path="url(#p31f9f3a7cb)" style="fill: none; stroke: #1f77b4; stroke-opacity: 0.8; stroke-width: 1.5; stroke-linecap: round"/>
   </g>
   <g id="line2d_81">
    <path d="M 89.4475 240.193047 
L 117.3475 242.965478 
L 145.2475 244.273217 
L 173.1475 244.870848 
L 201.0475 241.738389 
L 228.9475 233.512749 
L 256.8475 220.255773 
L 284.7475 204.320096 
L 312.6475 199.110794 
L 340.5475 197.517735 
L 368.4475 196.256786 
L 396.3475 195.521356 
L 424.2475 193.690585 
L 452.1475 193.142432 
L 480.0475 191.539255 
L 507.9475 190.440639 
L 535.8475 189.154458 
L 563.7475 190.013575 
L 591.6475 196.11222 
L 619.5475 202.049859 
L 647.4475 212.208443 
L 675.3475 219.560268 
L 703.2475 226.146584 
L 731.1475 235.372783 
" clip-path="url(#p31f9f3a7cb)" style="fill: none; stroke: #aec7e8; stroke-opacity: 0.8; stroke-width: 1.5; stroke-linecap: round"/>
   </g>
   <g id="line2d_82">
    <path d="M 89.4475 241.423085 
L 117.3475 243.775802 
L 145.2475 244.895523 
L 173.1475 245.542474 
L 201.0475 243.364088 
L 228.9475 234.823158 
L 256.8475 221.306279 
L 284.7475 200.527301 
L 312.6475 193.08881 
L 340.5475 190.834501 
L 368.4475 191.697812 
L 396.3475 189.464773 
L 424.2475 187.693536 
L 452.1475 189.314702 
L 480.0475 187.328752 
L 507.9475 185.791765 
L 535.8475 185.074384 
L 563.7475 183.935289 
L 591.6475 187.865805 
L 619.5475 196.970551 
L 647.4475 212.410734 
L 675.3475 221.908132 
L 703.2475 229.424054 
L 731.1475 236.358507 
" clip-path="url(#p31f9f3a7cb)" style="fill: none; stroke: #1f77b4; stroke-opacity: 0.8; stroke-width: 1.5; stroke-linecap: round"/>
   </g>
   <g id="line2d_83">
    <path d="M 89.4475 236.869761 
L 117.3475 240.566059 
L 145.2475 242.409004 
L 173.1475 243.676909 
L 201.0475 240.381268 
L 228.9475 229.375927 
L 256.8475 212.25029 
L 284.7475 187.081009 
L 312.6475 178.210908 
L 340.5475 177.246445 
L 368.4475 178.377886 
L 396.3475 173.772272 
L 424.2475 172.10517 
L 452.1475 175.015601 
L 480.0475 171.40339 
L 507.9475 169.521039 
L 535.8475 168.797644 
L 563.7475 169.5265 
L 591.6475 178.285055 
L 619.5475 177.764453 
L 647.4475 195.818518 
L 675.3475 209.841028 
L 703.2475 219.223767 
L 731.1475 229.361495 
" clip-path="url(#p31f9f3a7cb)" style="fill: none; stroke: #e377c2; stroke-opacity: 0.8; stroke-width: 1.5; stroke-linecap: round"/>
   </g>
   <g id="line2d_84">
    <path d="M 89.4475 240.454363 
L 117.3475 242.493806 
L 145.2475 243.081491 
L 173.1475 243.509159 
L 201.0475 241.429621 
L 228.9475 233.79807 
L 256.8475 221.513259 
L 284.7475 204.069794 
L 312.6475 197.230385 
L 340.5475 195.263912 
L 368.4475 195.629433 
L 396.3475 194.159222 
L 424.2475 194.005609 
L 452.1475 195.367185 
L 480.0475 195.571397 
L 507.9475 195.213491 
L 535.8475 195.363604 
L 563.7475 195.863949 
L 591.6475 196.465167 
L 619.5475 202.481578 
L 647.4475 210.975088 
L 675.3475 218.56515 
L 703.2475 225.96113 
L 731.1475 237.14327 
" clip-path="url(#p31f9f3a7cb)" style="fill: none; stroke: #ff7f0e; stroke-opacity: 0.8; stroke-width: 1.5; stroke-linecap: round"/>
   </g>
   <g id="line2d_85">
    <path d="M 89.4475 242.361736 
L 117.3475 244.488089 
L 145.2475 245.420674 
L 173.1475 245.940313 
L 201.0475 243.868087 
L 228.9475 236.126003 
L 256.8475 221.957564 
L 284.7475 203.77651 
L 312.6475 198.505679 
L 340.5475 197.062973 
L 368.4475 196.447644 
L 396.3475 195.851319 
L 424.2475 194.542162 
L 452.1475 195.540754 
L 480.0475 194.871232 
L 507.9475 193.568116 
L 535.8475 192.942005 
L 563.7475 194.631044 
L 591.6475 199.660441 
L 619.5475 204.667484 
L 647.4475 215.801791 
L 675.3475 223.812877 
L 703.2475 230.588356 
L 731.1475 237.857338 
" clip-path="url(#p31f9f3a7cb)" style="fill: none; stroke: #98df8a; stroke-opacity: 0.8; stroke-width: 1.5; stroke-linecap: round"/>
   </g>
   <g id="line2d_86">
    <path d="M 89.4475 236.483605 
L 117.3475 240.278965 
L 145.2475 242.365739 
L 173.1475 243.569032 
L 201.0475 240.189811 
L 228.9475 228.507763 
L 256.8475 209.310816 
L 284.7475 183.67862 
L 312.6475 172.51158 
L 340.5475 169.845544 
L 368.4475 173.086425 
L 396.3475 168.863236 
L 424.2475 166.06406 
L 452.1475 170.519461 
L 480.0475 166.784798 
L 507.9475 165.638884 
L 535.8475 167.697864 
L 563.7475 167.923671 
L 591.6475 173.238543 
L 619.5475 172.744773 
L 647.4475 193.942705 
L 675.3475 208.472586 
L 703.2475 218.193383 
L 731.1475 228.605005 
" clip-path="url(#p31f9f3a7cb)" style="fill: none; stroke: #d62728; stroke-opacity: 0.8; stroke-width: 1.5; stroke-linecap: round"/>
   </g>
   <g id="line2d_87">
    <path d="M 89.4475 182.652315 
L 117.3475 204.40366 
L 145.2475 211.926522 
L 173.1475 212.737611 
L 201.0475 190.476959 
L 228.9475 148.60811 
L 256.8475 102.160645 
L 284.7475 82.824761 
L 312.6475 78.625203 
L 340.5475 77.20103 
L 368.4475 75.778725 
L 396.3475 75.256582 
L 424.2475 74.049013 
L 452.1475 74.784935 
L 480.0475 73.840857 
L 507.9475 73.313928 
L 535.8475 76.54032 
L 563.7475 78.700891 
L 591.6475 74.927655 
L 619.5475 75.105315 
L 647.4475 86.991907 
L 675.3475 99.594294 
L 703.2475 124.346494 
L 731.1475 159.244464 
" clip-path="url(#p31f9f3a7cb)" style="fill: none; stroke: #ffbb78; stroke-opacity: 0.8; stroke-width: 1.5; stroke-linecap: round"/>
   </g>
   <g id="line2d_88">
    <path d="M 89.4475 184.684215 
L 117.3475 207.431615 
L 145.2475 214.222763 
L 173.1475 215.091334 
L 201.0475 191.931279 
L 228.9475 146.249297 
L 256.8475 98.76724 
L 284.7475 87.206609 
L 312.6475 83.712232 
L 340.5475 83.250161 
L 368.4475 82.758679 
L 396.3475 83.739438 
L 424.2475 83.483629 
L 452.1475 84.081412 
L 480.0475 84.942486 
L 507.9475 85.960293 
L 535.8475 87.170444 
L 563.7475 88.877388 
L 591.6475 87.964548 
L 619.5475 104.317896 
L 647.4475 87.358514 
L 675.3475 98.253004 
L 703.2475 121.62154 
L 731.1475 155.512916 
" clip-path="url(#p31f9f3a7cb)" style="fill: none; stroke: #2ca02c; stroke-opacity: 0.8; stroke-width: 1.5; stroke-linecap: round"/>
   </g>
   <g id="line2d_89">
    <path d="M 89.4475 210.539159 
L 117.3475 223.147081 
L 145.2475 227.804592 
L 173.1475 226.948693 
L 201.0475 210.637463 
L 228.9475 174.292738 
L 256.8475 146.134697 
L 284.7475 130.411783 
L 312.6475 127.652254 
L 340.5475 127.609657 
L 368.4475 127.872764 
L 396.3475 126.350828 
L 424.2475 125.246054 
L 452.1475 126.014013 
L 480.0475 125.313666 
L 507.9475 127.123675 
L 535.8475 127.391664 
L 563.7475 126.786297 
L 591.6475 130.509946 
L 619.5475 134.661889 
L 647.4475 138.325956 
L 675.3475 151.398584 
L 703.2475 169.296092 
L 731.1475 194.151004 
" clip-path="url(#p31f9f3a7cb)" style="fill: none; stroke: #dbdb8d; stroke-opacity: 0.8; stroke-width: 1.5; stroke-linecap: round"/>
   </g>
   <g id="line2d_90">
    <path d="M 89.4475 229.842267 
L 117.3475 236.354633 
L 145.2475 238.208753 
L 173.1475 237.666887 
L 201.0475 228.563829 
L 228.9475 207.743438 
L 256.8475 183.988022 
L 284.7475 161.692669 
L 312.6475 163.471456 
L 340.5475 167.703887 
L 368.4475 167.09196 
L 396.3475 165.104362 
L 424.2475 163.792511 
L 452.1475 163.129104 
L 480.0475 162.641833 
L 507.9475 162.212669 
L 535.8475 162.292415 
L 563.7475 165.090196 
L 591.6475 171.139914 
L 619.5475 165.804559 
L 647.4475 180.860351 
L 675.3475 192.284878 
L 703.2475 205.43766 
L 731.1475 220.742022 
" clip-path="url(#p31f9f3a7cb)" style="fill: none; stroke: #d62728; stroke-opacity: 0.8; stroke-width: 1.5; stroke-linecap: round"/>
   </g>
   <g id="line2d_91">
    <path d="M 89.4475 230.089328 
L 117.3475 236.251425 
L 145.2475 238.011151 
L 173.1475 237.040286 
L 201.0475 227.136338 
L 228.9475 200.776257 
L 256.8475 177.300022 
L 284.7475 166.564011 
L 312.6475 169.359752 
L 340.5475 168.64948 
L 368.4475 168.015736 
L 396.3475 166.438509 
L 424.2475 165.081581 
L 452.1475 165.040293 
L 480.0475 164.904825 
L 507.9475 165.679607 
L 535.8475 165.594162 
L 563.7475 167.922382 
L 591.6475 172.929739 
L 619.5475 162.535032 
L 647.4475 176.593638 
L 675.3475 188.098477 
L 703.2475 202.158179 
L 731.1475 220.501901 
" clip-path="url(#p31f9f3a7cb)" style="fill: none; stroke: #ff9896; stroke-opacity: 0.8; stroke-width: 1.5; stroke-linecap: round"/>
   </g>
   <g id="line2d_92">
    <path d="M 89.4475 232.055124 
L 117.3475 237.92165 
L 145.2475 240.245959 
L 173.1475 241.71915 
L 201.0475 236.170054 
L 228.9475 218.805668 
L 256.8475 196.34794 
L 284.7475 166.179425 
L 312.6475 161.711854 
L 340.5475 160.559293 
L 368.4475 160.509196 
L 396.3475 155.663611 
L 424.2475 151.105265 
L 452.1475 151.58144 
L 480.0475 148.040248 
L 507.9475 148.132913 
L 535.8475 146.55296 
L 563.7475 149.733473 
L 591.6475 159.165986 
L 619.5475 166.303444 
L 647.4475 183.376769 
L 675.3475 198.82349 
L 703.2475 209.790733 
L 731.1475 221.985339 
" clip-path="url(#p31f9f3a7cb)" style="fill: none; stroke: #17becf; stroke-opacity: 0.8; stroke-width: 1.5; stroke-linecap: round"/>
   </g>
   <g id="line2d_93">
    <path d="M 89.4475 234.164882 
L 117.3475 239.272284 
L 145.2475 241.270102 
L 173.1475 242.311469 
L 201.0475 237.671466 
L 228.9475 222.094771 
L 256.8475 199.111085 
L 284.7475 170.91588 
L 312.6475 167.459561 
L 340.5475 167.127687 
L 368.4475 165.933797 
L 396.3475 162.632638 
L 424.2475 162.576598 
L 452.1475 162.764844 
L 480.0475 160.839989 
L 507.9475 159.715756 
L 535.8475 156.715568 
L 563.7475 160.378513 
L 591.6475 170.854988 
L 619.5475 174.091476 
L 647.4475 190.571387 
L 675.3475 204.251954 
L 703.2475 215.700927 
L 731.1475 225.913644 
" clip-path="url(#p31f9f3a7cb)" style="fill: none; stroke: #f7b6d2; stroke-opacity: 0.8; stroke-width: 1.5; stroke-linecap: round"/>
   </g>
   <g id="patch_3">
    <path d="M 75.4975 257.76 
L 75.4975 36 
" style="fill: none; stroke: #000000; stroke-linejoin: miter; stroke-linecap: square"/>
   </g>
   <g id="patch_4">
    <path d="M 745.0975 257.76 
L 745.0975 36 
" style="fill: none; stroke: #000000; stroke-linejoin: miter; stroke-linecap: square"/>
   </g>
   <g id="patch_5">
    <path d="M 75.4975 257.76 
L 745.0975 257.76 
" style="fill: none; stroke: #000000; stroke-linejoin: miter; stroke-linecap: square"/>
   </g>
   <g id="patch_6">
    <path d="M 75.4975 36 
L 745.0975 36 
" style="fill: none; stroke: #000000; stroke-linejoin: miter; stroke-linecap: square"/>
   </g>
  </g>
 </g>
 <defs>
  <clipPath id="p31f9f3a7cb">
   <rect x="75.4975" y="36" width="669.6" height="221.76"/>
  </clipPath>
 </defs>
</svg>
