<?xml version="1.0" encoding="utf-8" standalone="no"?>
<!DOCTYPE svg PUBLIC "-//W3C//DTD SVG 1.1//EN"
  "http://www.w3.org/Graphics/SVG/1.1/DTD/svg11.dtd">
<svg xmlns:xlink="http://www.w3.org/1999/xlink" width="794.44pt" height="332.28625pt" viewBox="0 0 794.44 332.28625" xmlns="http://www.w3.org/2000/svg" version="1.1">
 <metadata>
  <rdf:RDF xmlns:dc="http://purl.org/dc/elements/1.1/" xmlns:cc="http://creativecommons.org/ns#" xmlns:rdf="http://www.w3.org/1999/02/22-rdf-syntax-ns#">
   <cc:Work>
    <dc:type rdf:resource="http://purl.org/dc/dcmitype/StillImage"/>
    <dc:date>2025-10-27T23:50:28.337399</dc:date>
    <dc:format>image/svg+xml</dc:format>
    <dc:creator>
     <cc:Agent>
      <dc:title>Matplotlib v3.10.7, https://matplotlib.org/</dc:title>
     </cc:Agent>
    </dc:creator>
   </cc:Work>
  </rdf:RDF>
 </metadata>
 <defs>
  <style type="text/css">*{stroke-linejoin: round; stroke-linecap: butt}</style>
 </defs>
 <g id="figure_1">
  <g id="patch_1">
   <path d="M 0 332.28625 
L 794.44 332.28625 
L 794.44 0 
L 0 0 
L 0 332.28625 
z
" style="fill: none"/>
  </g>
  <g id="axes_1">
   <g id="patch_2">
    <path d="M 88.84 257.76 
L 758.44 257.76 
L 758.44 36 
L 88.84 36 
L 88.84 257.76 
z
" style="fill: none"/>
   </g>
   <g id="line2d_1">
    <path d="M 109.130909 257.76 
L 109.130909 36 
" clip-path="url(#p3d7e06d2c7)" style="fill: none; stroke-dasharray: 0.74,0.32; stroke-dashoffset: 0; stroke: #a9a9a9; stroke-opacity: 0.5; stroke-width: 0.2"/>
   </g>
   <g id="line2d_2">
    <path d="M 129.421818 257.76 
L 129.421818 36 
" clip-path="url(#p3d7e06d2c7)" style="fill: none; stroke-dasharray: 0.74,0.32; stroke-dashoffset: 0; stroke: #a9a9a9; stroke-opacity: 0.5; stroke-width: 0.2"/>
   </g>
   <g id="line2d_3">
    <path d="M 149.712727 257.76 
L 149.712727 36 
" clip-path="url(#p3d7e06d2c7)" style="fill: none; stroke-dasharray: 0.74,0.32; stroke-dashoffset: 0; stroke: #a9a9a9; stroke-opacity: 0.5; stroke-width: 0.2"/>
   </g>
   <g id="line2d_4">
    <path d="M 170.003636 257.76 
L 170.003636 36 
" clip-path="url(#p3d7e06d2c7)" style="fill: none; stroke-dasharray: 0.74,0.32; stroke-dashoffset: 0; stroke: #a9a9a9; stroke-opacity: 0.5; stroke-width: 0.2"/>
   </g>
   <g id="line2d_5">
    <path d="M 190.294545 257.76 
L 190.294545 36 
" clip-path="url(#p3d7e06d2c7)" style="fill: none; stroke-dasharray: 0.74,0.32; stroke-dashoffset: 0; stroke: #a9a9a9; stroke-opacity: 0.5; stroke-width: 0.2"/>
   </g>
   <g id="line2d_6">
    <path d="M 210.585455 257.76 
L 210.585455 36 
" clip-path="url(#p3d7e06d2c7)" style="fill: none; stroke-dasharray: 0.74,0.32; stroke-dashoffset: 0; stroke: #a9a9a9; stroke-opacity: 0.5; stroke-width: 0.2"/>
   </g>
   <g id="line2d_7">
    <path d="M 230.876364 257.76 
L 230.876364 36 
" clip-path="url(#p3d7e06d2c7)" style="fill: none; stroke-dasharray: 0.74,0.32; stroke-dashoffset: 0; stroke: #a9a9a9; stroke-opacity: 0.5; stroke-width: 0.2"/>
   </g>
   <g id="line2d_8">
    <path d="M 251.167273 257.76 
L 251.167273 36 
" clip-path="url(#p3d7e06d2c7)" style="fill: none; stroke-dasharray: 0.74,0.32; stroke-dashoffset: 0; stroke: #a9a9a9; stroke-opacity: 0.5; stroke-width: 0.2"/>
   </g>
   <g id="line2d_9">
    <path d="M 271.458182 257.76 
L 271.458182 36 
" clip-path="url(#p3d7e06d2c7)" style="fill: none; stroke-dasharray: 0.74,0.32; stroke-dashoffset: 0; stroke: #a9a9a9; stroke-opacity: 0.5; stroke-width: 0.2"/>
   </g>
   <g id="line2d_10">
    <path d="M 291.749091 257.76 
L 291.749091 36 
" clip-path="url(#p3d7e06d2c7)" style="fill: none; stroke-dasharray: 0.74,0.32; stroke-dashoffset: 0; stroke: #a9a9a9; stroke-opacity: 0.5; stroke-width: 0.2"/>
   </g>
   <g id="line2d_11">
    <path d="M 312.04 257.76 
L 312.04 36 
" clip-path="url(#p3d7e06d2c7)" style="fill: none; stroke-dasharray: 0.74,0.32; stroke-dashoffset: 0; stroke: #a9a9a9; stroke-opacity: 0.5; stroke-width: 0.2"/>
   </g>
   <g id="line2d_12">
    <path d="M 332.330909 257.76 
L 332.330909 36 
" clip-path="url(#p3d7e06d2c7)" style="fill: none; stroke-dasharray: 0.74,0.32; stroke-dashoffset: 0; stroke: #a9a9a9; stroke-opacity: 0.5; stroke-width: 0.2"/>
   </g>
   <g id="line2d_13">
    <path d="M 352.621818 257.76 
L 352.621818 36 
" clip-path="url(#p3d7e06d2c7)" style="fill: none; stroke-dasharray: 0.74,0.32; stroke-dashoffset: 0; stroke: #a9a9a9; stroke-opacity: 0.5; stroke-width: 0.2"/>
   </g>
   <g id="line2d_14">
    <path d="M 372.912727 257.76 
L 372.912727 36 
" clip-path="url(#p3d7e06d2c7)" style="fill: none; stroke-dasharray: 0.74,0.32; stroke-dashoffset: 0; stroke: #a9a9a9; stroke-opacity: 0.5; stroke-width: 0.2"/>
   </g>
   <g id="line2d_15">
    <path d="M 393.203636 257.76 
L 393.203636 36 
" clip-path="url(#p3d7e06d2c7)" style="fill: none; stroke-dasharray: 0.74,0.32; stroke-dashoffset: 0; stroke: #a9a9a9; stroke-opacity: 0.5; stroke-width: 0.2"/>
   </g>
   <g id="line2d_16">
    <path d="M 413.494545 257.76 
L 413.494545 36 
" clip-path="url(#p3d7e06d2c7)" style="fill: none; stroke-dasharray: 0.74,0.32; stroke-dashoffset: 0; stroke: #a9a9a9; stroke-opacity: 0.5; stroke-width: 0.2"/>
   </g>
   <g id="line2d_17">
    <path d="M 433.785455 257.76 
L 433.785455 36 
" clip-path="url(#p3d7e06d2c7)" style="fill: none; stroke-dasharray: 0.74,0.32; stroke-dashoffset: 0; stroke: #a9a9a9; stroke-opacity: 0.5; stroke-width: 0.2"/>
   </g>
   <g id="line2d_18">
    <path d="M 454.076364 257.76 
L 454.076364 36 
" clip-path="url(#p3d7e06d2c7)" style="fill: none; stroke-dasharray: 0.74,0.32; stroke-dashoffset: 0; stroke: #a9a9a9; stroke-opacity: 0.5; stroke-width: 0.2"/>
   </g>
   <g id="line2d_19">
    <path d="M 474.367273 257.76 
L 474.367273 36 
" clip-path="url(#p3d7e06d2c7)" style="fill: none; stroke-dasharray: 0.74,0.32; stroke-dashoffset: 0; stroke: #a9a9a9; stroke-opacity: 0.5; stroke-width: 0.2"/>
   </g>
   <g id="line2d_20">
    <path d="M 494.658182 257.76 
L 494.658182 36 
" clip-path="url(#p3d7e06d2c7)" style="fill: none; stroke-dasharray: 0.74,0.32; stroke-dashoffset: 0; stroke: #a9a9a9; stroke-opacity: 0.5; stroke-width: 0.2"/>
   </g>
   <g id="line2d_21">
    <path d="M 514.949091 257.76 
L 514.949091 36 
" clip-path="url(#p3d7e06d2c7)" style="fill: none; stroke-dasharray: 0.74,0.32; stroke-dashoffset: 0; stroke: #a9a9a9; stroke-opacity: 0.5; stroke-width: 0.2"/>
   </g>
   <g id="line2d_22">
    <path d="M 535.24 257.76 
L 535.24 36 
" clip-path="url(#p3d7e06d2c7)" style="fill: none; stroke-dasharray: 0.74,0.32; stroke-dashoffset: 0; stroke: #a9a9a9; stroke-opacity: 0.5; stroke-width: 0.2"/>
   </g>
   <g id="line2d_23">
    <path d="M 555.530909 257.76 
L 555.530909 36 
" clip-path="url(#p3d7e06d2c7)" style="fill: none; stroke-dasharray: 0.74,0.32; stroke-dashoffset: 0; stroke: #a9a9a9; stroke-opacity: 0.5; stroke-width: 0.2"/>
   </g>
   <g id="line2d_24">
    <path d="M 575.821818 257.76 
L 575.821818 36 
" clip-path="url(#p3d7e06d2c7)" style="fill: none; stroke-dasharray: 0.74,0.32; stroke-dashoffset: 0; stroke: #a9a9a9; stroke-opacity: 0.5; stroke-width: 0.2"/>
   </g>
   <g id="line2d_25">
    <path d="M 596.112727 257.76 
L 596.112727 36 
" clip-path="url(#p3d7e06d2c7)" style="fill: none; stroke-dasharray: 0.74,0.32; stroke-dashoffset: 0; stroke: #a9a9a9; stroke-opacity: 0.5; stroke-width: 0.2"/>
   </g>
   <g id="line2d_26">
    <path d="M 616.403636 257.76 
L 616.403636 36 
" clip-path="url(#p3d7e06d2c7)" style="fill: none; stroke-dasharray: 0.74,0.32; stroke-dashoffset: 0; stroke: #a9a9a9; stroke-opacity: 0.5; stroke-width: 0.2"/>
   </g>
   <g id="line2d_27">
    <path d="M 636.694545 257.76 
L 636.694545 36 
" clip-path="url(#p3d7e06d2c7)" style="fill: none; stroke-dasharray: 0.74,0.32; stroke-dashoffset: 0; stroke: #a9a9a9; stroke-opacity: 0.5; stroke-width: 0.2"/>
   </g>
   <g id="line2d_28">
    <path d="M 656.985455 257.76 
L 656.985455 36 
" clip-path="url(#p3d7e06d2c7)" style="fill: none; stroke-dasharray: 0.74,0.32; stroke-dashoffset: 0; stroke: #a9a9a9; stroke-opacity: 0.5; stroke-width: 0.2"/>
   </g>
   <g id="line2d_29">
    <path d="M 677.276364 257.76 
L 677.276364 36 
" clip-path="url(#p3d7e06d2c7)" style="fill: none; stroke-dasharray: 0.74,0.32; stroke-dashoffset: 0; stroke: #a9a9a9; stroke-opacity: 0.5; stroke-width: 0.2"/>
   </g>
   <g id="line2d_30">
    <path d="M 697.567273 257.76 
L 697.567273 36 
" clip-path="url(#p3d7e06d2c7)" style="fill: none; stroke-dasharray: 0.74,0.32; stroke-dashoffset: 0; stroke: #a9a9a9; stroke-opacity: 0.5; stroke-width: 0.2"/>
   </g>
   <g id="line2d_31">
    <path d="M 717.858182 257.76 
L 717.858182 36 
" clip-path="url(#p3d7e06d2c7)" style="fill: none; stroke-dasharray: 0.74,0.32; stroke-dashoffset: 0; stroke: #a9a9a9; stroke-opacity: 0.5; stroke-width: 0.2"/>
   </g>
   <g id="line2d_32">
    <path d="M 738.149091 257.76 
L 738.149091 36 
" clip-path="url(#p3d7e06d2c7)" style="fill: none; stroke-dasharray: 0.74,0.32; stroke-dashoffset: 0; stroke: #a9a9a9; stroke-opacity: 0.5; stroke-width: 0.2"/>
   </g>
   <g id="line2d_33">
    <path d="M 88.84 235.584 
L 758.44 235.584 
" clip-path="url(#p3d7e06d2c7)" style="fill: none; stroke-dasharray: 0.74,0.32; stroke-dashoffset: 0; stroke: #a9a9a9; stroke-opacity: 0.5; stroke-width: 0.2"/>
   </g>
   <g id="line2d_34">
    <path d="M 88.84 213.408 
L 758.44 213.408 
" clip-path="url(#p3d7e06d2c7)" style="fill: none; stroke-dasharray: 0.74,0.32; stroke-dashoffset: 0; stroke: #a9a9a9; stroke-opacity: 0.5; stroke-width: 0.2"/>
   </g>
   <g id="line2d_35">
    <path d="M 88.84 191.232 
L 758.44 191.232 
" clip-path="url(#p3d7e06d2c7)" style="fill: none; stroke-dasharray: 0.74,0.32; stroke-dashoffset: 0; stroke: #a9a9a9; stroke-opacity: 0.5; stroke-width: 0.2"/>
   </g>
   <g id="line2d_36">
    <path d="M 88.84 169.056 
L 758.44 169.056 
" clip-path="url(#p3d7e06d2c7)" style="fill: none; stroke-dasharray: 0.74,0.32; stroke-dashoffset: 0; stroke: #a9a9a9; stroke-opacity: 0.5; stroke-width: 0.2"/>
   </g>
   <g id="line2d_37">
    <path d="M 88.84 146.88 
L 758.44 146.88 
" clip-path="url(#p3d7e06d2c7)" style="fill: none; stroke-dasharray: 0.74,0.32; stroke-dashoffset: 0; stroke: #a9a9a9; stroke-opacity: 0.5; stroke-width: 0.2"/>
   </g>
   <g id="line2d_38">
    <path d="M 88.84 124.704 
L 758.44 124.704 
" clip-path="url(#p3d7e06d2c7)" style="fill: none; stroke-dasharray: 0.74,0.32; stroke-dashoffset: 0; stroke: #a9a9a9; stroke-opacity: 0.5; stroke-width: 0.2"/>
   </g>
   <g id="line2d_39">
    <path d="M 88.84 102.528 
L 758.44 102.528 
" clip-path="url(#p3d7e06d2c7)" style="fill: none; stroke-dasharray: 0.74,0.32; stroke-dashoffset: 0; stroke: #a9a9a9; stroke-opacity: 0.5; stroke-width: 0.2"/>
   </g>
   <g id="line2d_40">
    <path d="M 88.84 80.352 
L 758.44 80.352 
" clip-path="url(#p3d7e06d2c7)" style="fill: none; stroke-dasharray: 0.74,0.32; stroke-dashoffset: 0; stroke: #a9a9a9; stroke-opacity: 0.5; stroke-width: 0.2"/>
   </g>
   <g id="line2d_41">
    <path d="M 88.84 58.176 
L 758.44 58.176 
" clip-path="url(#p3d7e06d2c7)" style="fill: none; stroke-dasharray: 0.74,0.32; stroke-dashoffset: 0; stroke: #a9a9a9; stroke-opacity: 0.5; stroke-width: 0.2"/>
   </g>
   <g id="matplotlib.axis_1">
    <g id="xtick_1">
     <g id="line2d_42">
      <defs>
       <path id="m6f10483dcf" d="M 0 0 
L 0 5 
" style="stroke: #000000"/>
      </defs>
      <g>
       <use xlink:href="#m6f10483dcf" x="102.79" y="257.76" style="stroke: #000000"/>
      </g>
     </g>
     <g id="text_1">
      <!-- 1:00 -->
      <g transform="translate(105.892188 289.613125) rotate(-90) scale(0.12 -0.12)">
       <defs>
        <path id="ArialMT-31" d="M 2384 0 
L 1822 0 
L 1822 3584 
Q 1619 3391 1289 3197 
Q 959 3003 697 2906 
L 697 3450 
Q 1169 3672 1522 3987 
Q 1875 4303 2022 4600 
L 2384 4600 
L 2384 0 
z
" transform="scale(0.015625)"/>
        <path id="ArialMT-3a" d="M 578 2678 
L 578 3319 
L 1219 3319 
L 1219 2678 
L 578 2678 
z
M 578 0 
L 578 641 
L 1219 641 
L 1219 0 
L 578 0 
z
" transform="scale(0.015625)"/>
        <path id="ArialMT-30" d="M 266 2259 
Q 266 3072 433 3567 
Q 600 4063 929 4331 
Q 1259 4600 1759 4600 
Q 2128 4600 2406 4451 
Q 2684 4303 2865 4023 
Q 3047 3744 3150 3342 
Q 3253 2941 3253 2259 
Q 3253 1453 3087 958 
Q 2922 463 2592 192 
Q 2263 -78 1759 -78 
Q 1097 -78 719 397 
Q 266 969 266 2259 
z
M 844 2259 
Q 844 1131 1108 757 
Q 1372 384 1759 384 
Q 2147 384 2411 759 
Q 2675 1134 2675 2259 
Q 2675 3391 2411 3762 
Q 2147 4134 1753 4134 
Q 1366 4134 1134 3806 
Q 844 3388 844 2259 
z
" transform="scale(0.015625)"/>
       </defs>
       <use xlink:href="#ArialMT-31"/>
       <use xlink:href="#ArialMT-3a" transform="translate(55.615234 0)"/>
       <use xlink:href="#ArialMT-30" transform="translate(83.398438 0)"/>
       <use xlink:href="#ArialMT-30" transform="translate(139.013672 0)"/>
      </g>
     </g>
    </g>
    <g id="xtick_2">
     <g id="line2d_43">
      <g>
       <use xlink:href="#m6f10483dcf" x="130.69" y="257.76" style="stroke: #000000"/>
      </g>
     </g>
     <g id="text_2">
      <!-- 2:00 -->
      <g transform="translate(133.792188 289.613125) rotate(-90) scale(0.12 -0.12)">
       <defs>
        <path id="ArialMT-32" d="M 3222 541 
L 3222 0 
L 194 0 
Q 188 203 259 391 
Q 375 700 629 1000 
Q 884 1300 1366 1694 
Q 2113 2306 2375 2664 
Q 2638 3022 2638 3341 
Q 2638 3675 2398 3904 
Q 2159 4134 1775 4134 
Q 1369 4134 1125 3890 
Q 881 3647 878 3216 
L 300 3275 
Q 359 3922 746 4261 
Q 1134 4600 1788 4600 
Q 2447 4600 2831 4234 
Q 3216 3869 3216 3328 
Q 3216 3053 3103 2787 
Q 2991 2522 2730 2228 
Q 2469 1934 1863 1422 
Q 1356 997 1212 845 
Q 1069 694 975 541 
L 3222 541 
z
" transform="scale(0.015625)"/>
       </defs>
       <use xlink:href="#ArialMT-32"/>
       <use xlink:href="#ArialMT-3a" transform="translate(55.615234 0)"/>
       <use xlink:href="#ArialMT-30" transform="translate(83.398438 0)"/>
       <use xlink:href="#ArialMT-30" transform="translate(139.013672 0)"/>
      </g>
     </g>
    </g>
    <g id="xtick_3">
     <g id="line2d_44">
      <g>
       <use xlink:href="#m6f10483dcf" x="158.59" y="257.76" style="stroke: #000000"/>
      </g>
     </g>
     <g id="text_3">
      <!-- 3:00 -->
      <g transform="translate(161.692187 289.613125) rotate(-90) scale(0.12 -0.12)">
       <defs>
        <path id="ArialMT-33" d="M 269 1209 
L 831 1284 
Q 928 806 1161 595 
Q 1394 384 1728 384 
Q 2125 384 2398 659 
Q 2672 934 2672 1341 
Q 2672 1728 2419 1979 
Q 2166 2231 1775 2231 
Q 1616 2231 1378 2169 
L 1441 2663 
Q 1497 2656 1531 2656 
Q 1891 2656 2178 2843 
Q 2466 3031 2466 3422 
Q 2466 3731 2256 3934 
Q 2047 4138 1716 4138 
Q 1388 4138 1169 3931 
Q 950 3725 888 3313 
L 325 3413 
Q 428 3978 793 4289 
Q 1159 4600 1703 4600 
Q 2078 4600 2393 4439 
Q 2709 4278 2876 4000 
Q 3044 3722 3044 3409 
Q 3044 3113 2884 2869 
Q 2725 2625 2413 2481 
Q 2819 2388 3044 2092 
Q 3269 1797 3269 1353 
Q 3269 753 2831 336 
Q 2394 -81 1725 -81 
Q 1122 -81 723 278 
Q 325 638 269 1209 
z
" transform="scale(0.015625)"/>
       </defs>
       <use xlink:href="#ArialMT-33"/>
       <use xlink:href="#ArialMT-3a" transform="translate(55.615234 0)"/>
       <use xlink:href="#ArialMT-30" transform="translate(83.398438 0)"/>
       <use xlink:href="#ArialMT-30" transform="translate(139.013672 0)"/>
      </g>
     </g>
    </g>
    <g id="xtick_4">
     <g id="line2d_45">
      <g>
       <use xlink:href="#m6f10483dcf" x="186.49" y="257.76" style="stroke: #000000"/>
      </g>
     </g>
     <g id="text_4">
      <!-- 4:00 -->
      <g transform="translate(189.592188 289.613125) rotate(-90) scale(0.12 -0.12)">
       <defs>
        <path id="ArialMT-34" d="M 2069 0 
L 2069 1097 
L 81 1097 
L 81 1613 
L 2172 4581 
L 2631 4581 
L 2631 1613 
L 3250 1613 
L 3250 1097 
L 2631 1097 
L 2631 0 
L 2069 0 
z
M 2069 1613 
L 2069 3678 
L 634 1613 
L 2069 1613 
z
" transform="scale(0.015625)"/>
       </defs>
       <use xlink:href="#ArialMT-34"/>
       <use xlink:href="#ArialMT-3a" transform="translate(55.615234 0)"/>
       <use xlink:href="#ArialMT-30" transform="translate(83.398438 0)"/>
       <use xlink:href="#ArialMT-30" transform="translate(139.013672 0)"/>
      </g>
     </g>
    </g>
    <g id="xtick_5">
     <g id="line2d_46">
      <g>
       <use xlink:href="#m6f10483dcf" x="214.39" y="257.76" style="stroke: #000000"/>
      </g>
     </g>
     <g id="text_5">
      <!-- 5:00 -->
      <g transform="translate(217.492188 289.613125) rotate(-90) scale(0.12 -0.12)">
       <defs>
        <path id="ArialMT-35" d="M 266 1200 
L 856 1250 
Q 922 819 1161 601 
Q 1400 384 1738 384 
Q 2144 384 2425 690 
Q 2706 997 2706 1503 
Q 2706 1984 2436 2262 
Q 2166 2541 1728 2541 
Q 1456 2541 1237 2417 
Q 1019 2294 894 2097 
L 366 2166 
L 809 4519 
L 3088 4519 
L 3088 3981 
L 1259 3981 
L 1013 2750 
Q 1425 3038 1878 3038 
Q 2478 3038 2890 2622 
Q 3303 2206 3303 1553 
Q 3303 931 2941 478 
Q 2500 -78 1738 -78 
Q 1113 -78 717 272 
Q 322 622 266 1200 
z
" transform="scale(0.015625)"/>
       </defs>
       <use xlink:href="#ArialMT-35"/>
       <use xlink:href="#ArialMT-3a" transform="translate(55.615234 0)"/>
       <use xlink:href="#ArialMT-30" transform="translate(83.398438 0)"/>
       <use xlink:href="#ArialMT-30" transform="translate(139.013672 0)"/>
      </g>
     </g>
    </g>
    <g id="xtick_6">
     <g id="line2d_47">
      <g>
       <use xlink:href="#m6f10483dcf" x="242.29" y="257.76" style="stroke: #000000"/>
      </g>
     </g>
     <g id="text_6">
      <!-- 6:00 -->
      <g transform="translate(245.392188 289.613125) rotate(-90) scale(0.12 -0.12)">
       <defs>
        <path id="ArialMT-36" d="M 3184 3459 
L 2625 3416 
Q 2550 3747 2413 3897 
Q 2184 4138 1850 4138 
Q 1581 4138 1378 3988 
Q 1113 3794 959 3422 
Q 806 3050 800 2363 
Q 1003 2672 1297 2822 
Q 1591 2972 1913 2972 
Q 2475 2972 2870 2558 
Q 3266 2144 3266 1488 
Q 3266 1056 3080 686 
Q 2894 316 2569 119 
Q 2244 -78 1831 -78 
Q 1128 -78 684 439 
Q 241 956 241 2144 
Q 241 3472 731 4075 
Q 1159 4600 1884 4600 
Q 2425 4600 2770 4297 
Q 3116 3994 3184 3459 
z
M 888 1484 
Q 888 1194 1011 928 
Q 1134 663 1356 523 
Q 1578 384 1822 384 
Q 2178 384 2434 671 
Q 2691 959 2691 1453 
Q 2691 1928 2437 2201 
Q 2184 2475 1800 2475 
Q 1419 2475 1153 2201 
Q 888 1928 888 1484 
z
" transform="scale(0.015625)"/>
       </defs>
       <use xlink:href="#ArialMT-36"/>
       <use xlink:href="#ArialMT-3a" transform="translate(55.615234 0)"/>
       <use xlink:href="#ArialMT-30" transform="translate(83.398438 0)"/>
       <use xlink:href="#ArialMT-30" transform="translate(139.013672 0)"/>
      </g>
     </g>
    </g>
    <g id="xtick_7">
     <g id="line2d_48">
      <g>
       <use xlink:href="#m6f10483dcf" x="270.19" y="257.76" style="stroke: #000000"/>
      </g>
     </g>
     <g id="text_7">
      <!-- 7:00 -->
      <g transform="translate(273.292188 289.613125) rotate(-90) scale(0.12 -0.12)">
       <defs>
        <path id="ArialMT-37" d="M 303 3981 
L 303 4522 
L 3269 4522 
L 3269 4084 
Q 2831 3619 2401 2847 
Q 1972 2075 1738 1259 
Q 1569 684 1522 0 
L 944 0 
Q 953 541 1156 1306 
Q 1359 2072 1739 2783 
Q 2119 3494 2547 3981 
L 303 3981 
z
" transform="scale(0.015625)"/>
       </defs>
       <use xlink:href="#ArialMT-37"/>
       <use xlink:href="#ArialMT-3a" transform="translate(55.615234 0)"/>
       <use xlink:href="#ArialMT-30" transform="translate(83.398438 0)"/>
       <use xlink:href="#ArialMT-30" transform="translate(139.013672 0)"/>
      </g>
     </g>
    </g>
    <g id="xtick_8">
     <g id="line2d_49">
      <g>
       <use xlink:href="#m6f10483dcf" x="298.09" y="257.76" style="stroke: #000000"/>
      </g>
     </g>
     <g id="text_8">
      <!-- 8:00 -->
      <g transform="translate(301.192187 289.613125) rotate(-90) scale(0.12 -0.12)">
       <defs>
        <path id="ArialMT-38" d="M 1131 2484 
Q 781 2613 612 2850 
Q 444 3088 444 3419 
Q 444 3919 803 4259 
Q 1163 4600 1759 4600 
Q 2359 4600 2725 4251 
Q 3091 3903 3091 3403 
Q 3091 3084 2923 2848 
Q 2756 2613 2416 2484 
Q 2838 2347 3058 2040 
Q 3278 1734 3278 1309 
Q 3278 722 2862 322 
Q 2447 -78 1769 -78 
Q 1091 -78 675 323 
Q 259 725 259 1325 
Q 259 1772 486 2073 
Q 713 2375 1131 2484 
z
M 1019 3438 
Q 1019 3113 1228 2906 
Q 1438 2700 1772 2700 
Q 2097 2700 2305 2904 
Q 2513 3109 2513 3406 
Q 2513 3716 2298 3927 
Q 2084 4138 1766 4138 
Q 1444 4138 1231 3931 
Q 1019 3725 1019 3438 
z
M 838 1322 
Q 838 1081 952 856 
Q 1066 631 1291 507 
Q 1516 384 1775 384 
Q 2178 384 2440 643 
Q 2703 903 2703 1303 
Q 2703 1709 2433 1975 
Q 2163 2241 1756 2241 
Q 1359 2241 1098 1978 
Q 838 1716 838 1322 
z
" transform="scale(0.015625)"/>
       </defs>
       <use xlink:href="#ArialMT-38"/>
       <use xlink:href="#ArialMT-3a" transform="translate(55.615234 0)"/>
       <use xlink:href="#ArialMT-30" transform="translate(83.398438 0)"/>
       <use xlink:href="#ArialMT-30" transform="translate(139.013672 0)"/>
      </g>
     </g>
    </g>
    <g id="xtick_9">
     <g id="line2d_50">
      <g>
       <use xlink:href="#m6f10483dcf" x="325.99" y="257.76" style="stroke: #000000"/>
      </g>
     </g>
     <g id="text_9">
      <!-- 9:00 -->
      <g transform="translate(329.092188 289.613125) rotate(-90) scale(0.12 -0.12)">
       <defs>
        <path id="ArialMT-39" d="M 350 1059 
L 891 1109 
Q 959 728 1153 556 
Q 1347 384 1650 384 
Q 1909 384 2104 503 
Q 2300 622 2425 820 
Q 2550 1019 2634 1356 
Q 2719 1694 2719 2044 
Q 2719 2081 2716 2156 
Q 2547 1888 2255 1720 
Q 1963 1553 1622 1553 
Q 1053 1553 659 1965 
Q 266 2378 266 3053 
Q 266 3750 677 4175 
Q 1088 4600 1706 4600 
Q 2153 4600 2523 4359 
Q 2894 4119 3086 3673 
Q 3278 3228 3278 2384 
Q 3278 1506 3087 986 
Q 2897 466 2520 194 
Q 2144 -78 1638 -78 
Q 1100 -78 759 220 
Q 419 519 350 1059 
z
M 2653 3081 
Q 2653 3566 2395 3850 
Q 2138 4134 1775 4134 
Q 1400 4134 1122 3828 
Q 844 3522 844 3034 
Q 844 2597 1108 2323 
Q 1372 2050 1759 2050 
Q 2150 2050 2401 2323 
Q 2653 2597 2653 3081 
z
" transform="scale(0.015625)"/>
       </defs>
       <use xlink:href="#ArialMT-39"/>
       <use xlink:href="#ArialMT-3a" transform="translate(55.615234 0)"/>
       <use xlink:href="#ArialMT-30" transform="translate(83.398438 0)"/>
       <use xlink:href="#ArialMT-30" transform="translate(139.013672 0)"/>
      </g>
     </g>
    </g>
    <g id="xtick_10">
     <g id="line2d_51">
      <g>
       <use xlink:href="#m6f10483dcf" x="353.89" y="257.76" style="stroke: #000000"/>
      </g>
     </g>
     <g id="text_10">
      <!-- 10:00 -->
      <g transform="translate(356.992188 296.28625) rotate(-90) scale(0.12 -0.12)">
       <use xlink:href="#ArialMT-31"/>
       <use xlink:href="#ArialMT-30" transform="translate(55.615234 0)"/>
       <use xlink:href="#ArialMT-3a" transform="translate(111.230469 0)"/>
       <use xlink:href="#ArialMT-30" transform="translate(139.013672 0)"/>
       <use xlink:href="#ArialMT-30" transform="translate(194.628906 0)"/>
      </g>
     </g>
    </g>
    <g id="xtick_11">
     <g id="line2d_52">
      <g>
       <use xlink:href="#m6f10483dcf" x="381.79" y="257.76" style="stroke: #000000"/>
      </g>
     </g>
     <g id="text_11">
      <!-- 11:00 -->
      <g transform="translate(384.892188 295.40125) rotate(-90) scale(0.12 -0.12)">
       <use xlink:href="#ArialMT-31"/>
       <use xlink:href="#ArialMT-31" transform="translate(48.240234 0)"/>
       <use xlink:href="#ArialMT-3a" transform="translate(103.855469 0)"/>
       <use xlink:href="#ArialMT-30" transform="translate(131.638672 0)"/>
       <use xlink:href="#ArialMT-30" transform="translate(187.253906 0)"/>
      </g>
     </g>
    </g>
    <g id="xtick_12">
     <g id="line2d_53">
      <g>
       <use xlink:href="#m6f10483dcf" x="409.69" y="257.76" style="stroke: #000000"/>
      </g>
     </g>
     <g id="text_12">
      <!-- 12:00 -->
      <g transform="translate(412.792188 296.28625) rotate(-90) scale(0.12 -0.12)">
       <use xlink:href="#ArialMT-31"/>
       <use xlink:href="#ArialMT-32" transform="translate(55.615234 0)"/>
       <use xlink:href="#ArialMT-3a" transform="translate(111.230469 0)"/>
       <use xlink:href="#ArialMT-30" transform="translate(139.013672 0)"/>
       <use xlink:href="#ArialMT-30" transform="translate(194.628906 0)"/>
      </g>
     </g>
    </g>
    <g id="xtick_13">
     <g id="line2d_54">
      <g>
       <use xlink:href="#m6f10483dcf" x="437.59" y="257.76" style="stroke: #000000"/>
      </g>
     </g>
     <g id="text_13">
      <!-- 13:00 -->
      <g transform="translate(440.692187 296.28625) rotate(-90) scale(0.12 -0.12)">
       <use xlink:href="#ArialMT-31"/>
       <use xlink:href="#ArialMT-33" transform="translate(55.615234 0)"/>
       <use xlink:href="#ArialMT-3a" transform="translate(111.230469 0)"/>
       <use xlink:href="#ArialMT-30" transform="translate(139.013672 0)"/>
       <use xlink:href="#ArialMT-30" transform="translate(194.628906 0)"/>
      </g>
     </g>
    </g>
    <g id="xtick_14">
     <g id="line2d_55">
      <g>
       <use xlink:href="#m6f10483dcf" x="465.49" y="257.76" style="stroke: #000000"/>
      </g>
     </g>
     <g id="text_14">
      <!-- 14:00 -->
      <g transform="translate(468.592188 296.28625) rotate(-90) scale(0.12 -0.12)">
       <use xlink:href="#ArialMT-31"/>
       <use xlink:href="#ArialMT-34" transform="translate(55.615234 0)"/>
       <use xlink:href="#ArialMT-3a" transform="translate(111.230469 0)"/>
       <use xlink:href="#ArialMT-30" transform="translate(139.013672 0)"/>
       <use xlink:href="#ArialMT-30" transform="translate(194.628906 0)"/>
      </g>
     </g>
    </g>
    <g id="xtick_15">
     <g id="line2d_56">
      <g>
       <use xlink:href="#m6f10483dcf" x="493.39" y="257.76" style="stroke: #000000"/>
      </g>
     </g>
     <g id="text_15">
      <!-- 15:00 -->
      <g transform="translate(496.492188 296.28625) rotate(-90) scale(0.12 -0.12)">
       <use xlink:href="#ArialMT-31"/>
       <use xlink:href="#ArialMT-35" transform="translate(55.615234 0)"/>
       <use xlink:href="#ArialMT-3a" transform="translate(111.230469 0)"/>
       <use xlink:href="#ArialMT-30" transform="translate(139.013672 0)"/>
       <use xlink:href="#ArialMT-30" transform="translate(194.628906 0)"/>
      </g>
     </g>
    </g>
    <g id="xtick_16">
     <g id="line2d_57">
      <g>
       <use xlink:href="#m6f10483dcf" x="521.29" y="257.76" style="stroke: #000000"/>
      </g>
     </g>
     <g id="text_16">
      <!-- 16:00 -->
      <g transform="translate(524.392187 296.28625) rotate(-90) scale(0.12 -0.12)">
       <use xlink:href="#ArialMT-31"/>
       <use xlink:href="#ArialMT-36" transform="translate(55.615234 0)"/>
       <use xlink:href="#ArialMT-3a" transform="translate(111.230469 0)"/>
       <use xlink:href="#ArialMT-30" transform="translate(139.013672 0)"/>
       <use xlink:href="#ArialMT-30" transform="translate(194.628906 0)"/>
      </g>
     </g>
    </g>
    <g id="xtick_17">
     <g id="line2d_58">
      <g>
       <use xlink:href="#m6f10483dcf" x="549.19" y="257.76" style="stroke: #000000"/>
      </g>
     </g>
     <g id="text_17">
      <!-- 17:00 -->
      <g transform="translate(552.292187 296.28625) rotate(-90) scale(0.12 -0.12)">
       <use xlink:href="#ArialMT-31"/>
       <use xlink:href="#ArialMT-37" transform="translate(55.615234 0)"/>
       <use xlink:href="#ArialMT-3a" transform="translate(111.230469 0)"/>
       <use xlink:href="#ArialMT-30" transform="translate(139.013672 0)"/>
       <use xlink:href="#ArialMT-30" transform="translate(194.628906 0)"/>
      </g>
     </g>
    </g>
    <g id="xtick_18">
     <g id="line2d_59">
      <g>
       <use xlink:href="#m6f10483dcf" x="577.09" y="257.76" style="stroke: #000000"/>
      </g>
     </g>
     <g id="text_18">
      <!-- 18:00 -->
      <g transform="translate(580.192187 296.28625) rotate(-90) scale(0.12 -0.12)">
       <use xlink:href="#ArialMT-31"/>
       <use xlink:href="#ArialMT-38" transform="translate(55.615234 0)"/>
       <use xlink:href="#ArialMT-3a" transform="translate(111.230469 0)"/>
       <use xlink:href="#ArialMT-30" transform="translate(139.013672 0)"/>
       <use xlink:href="#ArialMT-30" transform="translate(194.628906 0)"/>
      </g>
     </g>
    </g>
    <g id="xtick_19">
     <g id="line2d_60">
      <g>
       <use xlink:href="#m6f10483dcf" x="604.99" y="257.76" style="stroke: #000000"/>
      </g>
     </g>
     <g id="text_19">
      <!-- 19:00 -->
      <g transform="translate(608.092188 296.28625) rotate(-90) scale(0.12 -0.12)">
       <use xlink:href="#ArialMT-31"/>
       <use xlink:href="#ArialMT-39" transform="translate(55.615234 0)"/>
       <use xlink:href="#ArialMT-3a" transform="translate(111.230469 0)"/>
       <use xlink:href="#ArialMT-30" transform="translate(139.013672 0)"/>
       <use xlink:href="#ArialMT-30" transform="translate(194.628906 0)"/>
      </g>
     </g>
    </g>
    <g id="xtick_20">
     <g id="line2d_61">
      <g>
       <use xlink:href="#m6f10483dcf" x="632.89" y="257.76" style="stroke: #000000"/>
      </g>
     </g>
     <g id="text_20">
      <!-- 20:00 -->
      <g transform="translate(635.992188 296.28625) rotate(-90) scale(0.12 -0.12)">
       <use xlink:href="#ArialMT-32"/>
       <use xlink:href="#ArialMT-30" transform="translate(55.615234 0)"/>
       <use xlink:href="#ArialMT-3a" transform="translate(111.230469 0)"/>
       <use xlink:href="#ArialMT-30" transform="translate(139.013672 0)"/>
       <use xlink:href="#ArialMT-30" transform="translate(194.628906 0)"/>
      </g>
     </g>
    </g>
    <g id="xtick_21">
     <g id="line2d_62">
      <g>
       <use xlink:href="#m6f10483dcf" x="660.79" y="257.76" style="stroke: #000000"/>
      </g>
     </g>
     <g id="text_21">
      <!-- 21:00 -->
      <g transform="translate(663.892187 296.28625) rotate(-90) scale(0.12 -0.12)">
       <use xlink:href="#ArialMT-32"/>
       <use xlink:href="#ArialMT-31" transform="translate(55.615234 0)"/>
       <use xlink:href="#ArialMT-3a" transform="translate(111.230469 0)"/>
       <use xlink:href="#ArialMT-30" transform="translate(139.013672 0)"/>
       <use xlink:href="#ArialMT-30" transform="translate(194.628906 0)"/>
      </g>
     </g>
    </g>
    <g id="xtick_22">
     <g id="line2d_63">
      <g>
       <use xlink:href="#m6f10483dcf" x="688.69" y="257.76" style="stroke: #000000"/>
      </g>
     </g>
     <g id="text_22">
      <!-- 22:00 -->
      <g transform="translate(691.792187 296.28625) rotate(-90) scale(0.12 -0.12)">
       <use xlink:href="#ArialMT-32"/>
       <use xlink:href="#ArialMT-32" transform="translate(55.615234 0)"/>
       <use xlink:href="#ArialMT-3a" transform="translate(111.230469 0)"/>
       <use xlink:href="#ArialMT-30" transform="translate(139.013672 0)"/>
       <use xlink:href="#ArialMT-30" transform="translate(194.628906 0)"/>
      </g>
     </g>
    </g>
    <g id="xtick_23">
     <g id="line2d_64">
      <g>
       <use xlink:href="#m6f10483dcf" x="716.59" y="257.76" style="stroke: #000000"/>
      </g>
     </g>
     <g id="text_23">
      <!-- 23:00 -->
      <g transform="translate(719.692187 296.28625) rotate(-90) scale(0.12 -0.12)">
       <use xlink:href="#ArialMT-32"/>
       <use xlink:href="#ArialMT-33" transform="translate(55.615234 0)"/>
       <use xlink:href="#ArialMT-3a" transform="translate(111.230469 0)"/>
       <use xlink:href="#ArialMT-30" transform="translate(139.013672 0)"/>
       <use xlink:href="#ArialMT-30" transform="translate(194.628906 0)"/>
      </g>
     </g>
    </g>
    <g id="xtick_24">
     <g id="line2d_65">
      <g>
       <use xlink:href="#m6f10483dcf" x="744.49" y="257.76" style="stroke: #000000"/>
      </g>
     </g>
     <g id="text_24">
      <!-- 24:00 -->
      <g transform="translate(747.592187 296.28625) rotate(-90) scale(0.12 -0.12)">
       <use xlink:href="#ArialMT-32"/>
       <use xlink:href="#ArialMT-34" transform="translate(55.615234 0)"/>
       <use xlink:href="#ArialMT-3a" transform="translate(111.230469 0)"/>
       <use xlink:href="#ArialMT-30" transform="translate(139.013672 0)"/>
       <use xlink:href="#ArialMT-30" transform="translate(194.628906 0)"/>
      </g>
     </g>
    </g>
   </g>
   <g id="matplotlib.axis_2">
    <g id="ytick_1">
     <g id="line2d_66">
      <defs>
       <path id="meb5d44bf59" d="M 0 0 
L -5 0 
" style="stroke: #000000; stroke-opacity: 0; stroke-width: 1.5"/>
      </defs>
      <g>
       <use xlink:href="#meb5d44bf59" x="88.84" y="248.52" style="fill-opacity: 0; stroke: #000000; stroke-opacity: 0; stroke-width: 1.5"/>
      </g>
     </g>
     <g id="text_25">
      <!-- 0.0 -->
      <g transform="translate(58.1 254.24625) scale(0.16 -0.16)">
       <defs>
        <path id="ArialMT-2e" d="M 581 0 
L 581 641 
L 1222 641 
L 1222 0 
L 581 0 
z
" transform="scale(0.015625)"/>
       </defs>
       <use xlink:href="#ArialMT-30"/>
       <use xlink:href="#ArialMT-2e" transform="translate(55.615234 0)"/>
       <use xlink:href="#ArialMT-30" transform="translate(83.398438 0)"/>
      </g>
     </g>
    </g>
    <g id="ytick_2">
     <g id="line2d_67">
      <g>
       <use xlink:href="#meb5d44bf59" x="88.84" y="202.32" style="fill-opacity: 0; stroke: #000000; stroke-opacity: 0; stroke-width: 1.5"/>
      </g>
     </g>
     <g id="text_26">
      <!-- 0.5 -->
      <g transform="translate(58.1 208.04625) scale(0.16 -0.16)">
       <use xlink:href="#ArialMT-30"/>
       <use xlink:href="#ArialMT-2e" transform="translate(55.615234 0)"/>
       <use xlink:href="#ArialMT-35" transform="translate(83.398438 0)"/>
      </g>
     </g>
    </g>
    <g id="ytick_3">
     <g id="line2d_68">
      <g>
       <use xlink:href="#meb5d44bf59" x="88.84" y="156.12" style="fill-opacity: 0; stroke: #000000; stroke-opacity: 0; stroke-width: 1.5"/>
      </g>
     </g>
     <g id="text_27">
      <!-- 1.0 -->
      <g transform="translate(58.1 161.84625) scale(0.16 -0.16)">
       <use xlink:href="#ArialMT-31"/>
       <use xlink:href="#ArialMT-2e" transform="translate(55.615234 0)"/>
       <use xlink:href="#ArialMT-30" transform="translate(83.398438 0)"/>
      </g>
     </g>
    </g>
    <g id="ytick_4">
     <g id="line2d_69">
      <g>
       <use xlink:href="#meb5d44bf59" x="88.84" y="109.92" style="fill-opacity: 0; stroke: #000000; stroke-opacity: 0; stroke-width: 1.5"/>
      </g>
     </g>
     <g id="text_28">
      <!-- 1.5 -->
      <g transform="translate(58.1 115.64625) scale(0.16 -0.16)">
       <use xlink:href="#ArialMT-31"/>
       <use xlink:href="#ArialMT-2e" transform="translate(55.615234 0)"/>
       <use xlink:href="#ArialMT-35" transform="translate(83.398438 0)"/>
      </g>
     </g>
    </g>
    <g id="ytick_5">
     <g id="line2d_70">
      <g>
       <use xlink:href="#meb5d44bf59" x="88.84" y="63.72" style="fill-opacity: 0; stroke: #000000; stroke-opacity: 0; stroke-width: 1.5"/>
      </g>
     </g>
     <g id="text_29">
      <!-- 2.0 -->
      <g transform="translate(58.1 69.44625) scale(0.16 -0.16)">
       <use xlink:href="#ArialMT-32"/>
       <use xlink:href="#ArialMT-2e" transform="translate(55.615234 0)"/>
       <use xlink:href="#ArialMT-30" transform="translate(83.398438 0)"/>
      </g>
     </g>
    </g>
    <g id="text_30">
     <!-- CO$_{\mathregular{2}}$ (ton) -->
     <g transform="translate(49.14 185.31) rotate(-90) scale(0.18 -0.18)">
      <defs>
       <path id="ArialMT-43" d="M 3763 1606 
L 4369 1453 
Q 4178 706 3683 314 
Q 3188 -78 2472 -78 
Q 1731 -78 1267 223 
Q 803 525 561 1097 
Q 319 1669 319 2325 
Q 319 3041 592 3573 
Q 866 4106 1370 4382 
Q 1875 4659 2481 4659 
Q 3169 4659 3637 4309 
Q 4106 3959 4291 3325 
L 3694 3184 
Q 3534 3684 3231 3912 
Q 2928 4141 2469 4141 
Q 1941 4141 1586 3887 
Q 1231 3634 1087 3207 
Q 944 2781 944 2328 
Q 944 1744 1114 1308 
Q 1284 872 1643 656 
Q 2003 441 2422 441 
Q 2931 441 3284 734 
Q 3638 1028 3763 1606 
z
" transform="scale(0.015625)"/>
       <path id="ArialMT-4f" d="M 309 2231 
Q 309 3372 921 4017 
Q 1534 4663 2503 4663 
Q 3138 4663 3647 4359 
Q 4156 4056 4423 3514 
Q 4691 2972 4691 2284 
Q 4691 1588 4409 1038 
Q 4128 488 3612 205 
Q 3097 -78 2500 -78 
Q 1853 -78 1343 234 
Q 834 547 571 1087 
Q 309 1628 309 2231 
z
M 934 2222 
Q 934 1394 1379 917 
Q 1825 441 2497 441 
Q 3181 441 3623 922 
Q 4066 1403 4066 2288 
Q 4066 2847 3877 3264 
Q 3688 3681 3323 3911 
Q 2959 4141 2506 4141 
Q 1863 4141 1398 3698 
Q 934 3256 934 2222 
z
" transform="scale(0.015625)"/>
       <path id="ArialMT-20" transform="scale(0.015625)"/>
       <path id="ArialMT-28" d="M 1497 -1347 
Q 1031 -759 709 28 
Q 388 816 388 1659 
Q 388 2403 628 3084 
Q 909 3875 1497 4659 
L 1900 4659 
Q 1522 4009 1400 3731 
Q 1209 3300 1100 2831 
Q 966 2247 966 1656 
Q 966 153 1900 -1347 
L 1497 -1347 
z
" transform="scale(0.015625)"/>
       <path id="ArialMT-74" d="M 1650 503 
L 1731 6 
Q 1494 -44 1306 -44 
Q 1000 -44 831 53 
Q 663 150 594 308 
Q 525 466 525 972 
L 525 2881 
L 113 2881 
L 113 3319 
L 525 3319 
L 525 4141 
L 1084 4478 
L 1084 3319 
L 1650 3319 
L 1650 2881 
L 1084 2881 
L 1084 941 
Q 1084 700 1114 631 
Q 1144 563 1211 522 
Q 1278 481 1403 481 
Q 1497 481 1650 503 
z
" transform="scale(0.015625)"/>
       <path id="ArialMT-6f" d="M 213 1659 
Q 213 2581 725 3025 
Q 1153 3394 1769 3394 
Q 2453 3394 2887 2945 
Q 3322 2497 3322 1706 
Q 3322 1066 3130 698 
Q 2938 331 2570 128 
Q 2203 -75 1769 -75 
Q 1072 -75 642 372 
Q 213 819 213 1659 
z
M 791 1659 
Q 791 1022 1069 705 
Q 1347 388 1769 388 
Q 2188 388 2466 706 
Q 2744 1025 2744 1678 
Q 2744 2294 2464 2611 
Q 2184 2928 1769 2928 
Q 1347 2928 1069 2612 
Q 791 2297 791 1659 
z
" transform="scale(0.015625)"/>
       <path id="ArialMT-6e" d="M 422 0 
L 422 3319 
L 928 3319 
L 928 2847 
Q 1294 3394 1984 3394 
Q 2284 3394 2536 3286 
Q 2788 3178 2913 3003 
Q 3038 2828 3088 2588 
Q 3119 2431 3119 2041 
L 3119 0 
L 2556 0 
L 2556 2019 
Q 2556 2363 2490 2533 
Q 2425 2703 2258 2804 
Q 2091 2906 1866 2906 
Q 1506 2906 1245 2678 
Q 984 2450 984 1813 
L 984 0 
L 422 0 
z
" transform="scale(0.015625)"/>
       <path id="ArialMT-29" d="M 791 -1347 
L 388 -1347 
Q 1322 153 1322 1656 
Q 1322 2244 1188 2822 
Q 1081 3291 891 3722 
Q 769 4003 388 4659 
L 791 4659 
Q 1378 3875 1659 3084 
Q 1900 2403 1900 1659 
Q 1900 816 1576 28 
Q 1253 -759 791 -1347 
z
" transform="scale(0.015625)"/>
      </defs>
      <use xlink:href="#ArialMT-43" transform="translate(0 0.140625)"/>
      <use xlink:href="#ArialMT-4f" transform="translate(72.216797 0.140625)"/>
      <use xlink:href="#ArialMT-32" transform="translate(150.957031 -16.265625) scale(0.7)"/>
      <use xlink:href="#ArialMT-20" transform="translate(192.62207 0.140625)"/>
      <use xlink:href="#ArialMT-28" transform="translate(220.405273 0.140625)"/>
      <use xlink:href="#ArialMT-74" transform="translate(253.706055 0.140625)"/>
      <use xlink:href="#ArialMT-6f" transform="translate(281.489258 0.140625)"/>
      <use xlink:href="#ArialMT-6e" transform="translate(337.104492 0.140625)"/>
      <use xlink:href="#ArialMT-29" transform="translate(392.719727 0.140625)"/>
     </g>
    </g>
   </g>
   <g id="line2d_71">
    <path d="M 102.79 215.195169 
L 130.69 226.319642 
L 158.59 229.900373 
L 186.49 226.766425 
L 214.39 217.411645 
L 242.29 193.195056 
L 270.19 154.840198 
L 298.09 121.289324 
L 325.99 111.746994 
L 353.89 109.840531 
L 381.79 105.93401 
L 409.69 90.396036 
L 437.59 79.034722 
L 465.49 70.853523 
L 493.39 64.841983 
L 521.29 63.96637 
L 549.19 63.112447 
L 577.09 73.06339 
L 604.99 101.572511 
L 632.89 122.675083 
L 660.79 140.204901 
L 688.69 159.124794 
L 716.59 173.023621 
L 744.49 191.076589 
" clip-path="url(#p3d7e06d2c7)" style="fill: none; stroke: #d62728; stroke-opacity: 0.8; stroke-width: 1.5; stroke-linecap: round"/>
   </g>
   <g id="line2d_72">
    <path d="M 102.79 227.872667 
L 130.69 236.306872 
L 158.59 238.314112 
L 186.49 237.082231 
L 214.39 230.977636 
L 242.29 217.652009 
L 270.19 184.180506 
L 298.09 155.711728 
L 325.99 143.240029 
L 353.89 136.768786 
L 381.79 132.074123 
L 409.69 120.997368 
L 437.59 116.403666 
L 465.49 112.979379 
L 493.39 105.320327 
L 521.29 98.67157 
L 549.19 109.328947 
L 577.09 119.660683 
L 604.99 131.352499 
L 632.89 145.59244 
L 660.79 161.758996 
L 688.69 180.250408 
L 716.59 192.193448 
L 744.49 207.014718 
" clip-path="url(#p3d7e06d2c7)" style="fill: none; stroke: #9467bd; stroke-opacity: 0.8; stroke-width: 1.5; stroke-linecap: round"/>
   </g>
   <g id="line2d_73">
    <path d="M 102.79 224.068817 
L 130.69 234.001144 
L 158.59 235.647907 
L 186.49 234.774443 
L 214.39 229.780295 
L 242.29 208.976229 
L 270.19 174.816716 
L 298.09 136.726706 
L 325.99 112.862057 
L 353.89 103.073398 
L 381.79 95.080513 
L 409.69 83.095236 
L 437.59 78.840088 
L 465.49 72.867034 
L 493.39 68.051695 
L 521.29 68.351305 
L 549.19 66.375161 
L 577.09 78.352605 
L 604.99 90.007778 
L 632.89 111.146276 
L 660.79 135.553226 
L 688.69 160.583228 
L 716.59 181.796348 
L 744.49 199.782762 
" clip-path="url(#p3d7e06d2c7)" style="fill: none; stroke: #9467bd; stroke-opacity: 0.8; stroke-width: 1.5; stroke-linecap: round"/>
   </g>
   <g id="line2d_74">
    <path d="M 102.79 237.824441 
L 130.69 241.358825 
L 158.59 241.58981 
L 186.49 240.05883 
L 214.39 235.256141 
L 242.29 230.013116 
L 270.19 211.87057 
L 298.09 195.06121 
L 325.99 185.370656 
L 353.89 181.81324 
L 381.79 176.488366 
L 409.69 162.485731 
L 437.59 159.511858 
L 465.49 157.074439 
L 493.39 156.767417 
L 521.29 156.414609 
L 549.19 155.458433 
L 577.09 169.476629 
L 604.99 184.707418 
L 632.89 194.718454 
L 660.79 203.989226 
L 688.69 212.944254 
L 716.59 222.88161 
L 744.49 229.885453 
" clip-path="url(#p3d7e06d2c7)" style="fill: none; stroke: #c5b0d5; stroke-opacity: 0.8; stroke-width: 1.5; stroke-linecap: round"/>
   </g>
   <g id="line2d_75">
    <path d="M 102.79 236.360827 
L 130.69 240.438213 
L 158.59 240.884238 
L 186.49 239.811734 
L 214.39 234.243251 
L 242.29 227.561735 
L 270.19 207.842316 
L 298.09 191.832499 
L 325.99 179.699983 
L 353.89 176.502525 
L 381.79 169.961225 
L 409.69 157.397576 
L 437.59 152.194915 
L 465.49 149.734058 
L 493.39 149.893767 
L 521.29 150.593191 
L 549.19 149.896301 
L 577.09 162.072932 
L 604.99 179.378173 
L 632.89 189.871008 
L 660.79 200.643823 
L 688.69 209.524383 
L 716.59 219.437261 
L 744.49 227.27258 
" clip-path="url(#p3d7e06d2c7)" style="fill: none; stroke: #8c564b; stroke-opacity: 0.8; stroke-width: 1.5; stroke-linecap: round"/>
   </g>
   <g id="line2d_76">
    <path d="M 102.79 233.733659 
L 130.69 238.782616 
L 158.59 239.710619 
L 186.49 239.021045 
L 214.39 232.858623 
L 242.29 221.900026 
L 270.19 199.193341 
L 298.09 179.328652 
L 325.99 166.415069 
L 353.89 162.444815 
L 381.79 157.182391 
L 409.69 143.883818 
L 437.59 138.943145 
L 465.49 132.214356 
L 493.39 132.737495 
L 521.29 132.960501 
L 549.19 129.467464 
L 577.09 142.350408 
L 604.99 162.932405 
L 632.89 175.649151 
L 660.79 188.208987 
L 688.69 200.099163 
L 716.59 211.52176 
L 744.49 222.179938 
" clip-path="url(#p3d7e06d2c7)" style="fill: none; stroke: #c49c94; stroke-opacity: 0.8; stroke-width: 1.5; stroke-linecap: round"/>
   </g>
   <g id="line2d_77">
    <path d="M 102.79 224.623328 
L 130.69 233.591209 
L 158.59 235.672225 
L 186.49 233.108876 
L 214.39 227.64421 
L 242.29 207.416539 
L 270.19 169.714761 
L 298.09 135.015674 
L 325.99 117.215563 
L 353.89 110.110828 
L 381.79 104.628254 
L 409.69 91.555813 
L 437.59 83.485607 
L 465.49 72.860933 
L 493.39 64.796582 
L 521.29 65.538289 
L 549.19 64.029575 
L 577.09 80.741446 
L 604.99 105.405019 
L 632.89 126.098972 
L 660.79 146.256804 
L 688.69 170.045205 
L 716.59 183.482128 
L 744.49 201.290997 
" clip-path="url(#p3d7e06d2c7)" style="fill: none; stroke: #c49c94; stroke-opacity: 0.8; stroke-width: 1.5; stroke-linecap: round"/>
   </g>
   <g id="line2d_78">
    <path d="M 102.79 224.35823 
L 130.69 232.892711 
L 158.59 233.480626 
L 186.49 231.958501 
L 214.39 226.741718 
L 242.29 210.217488 
L 270.19 177.205061 
L 298.09 143.540777 
L 325.99 118.561207 
L 353.89 111.923697 
L 381.79 105.534573 
L 409.69 92.601623 
L 437.59 86.373322 
L 465.49 80.938624 
L 493.39 73.022071 
L 521.29 67.051459 
L 549.19 66.73142 
L 577.09 86.785862 
L 604.99 104.634289 
L 632.89 125.453459 
L 660.79 146.754757 
L 688.69 169.134452 
L 716.59 186.821572 
L 744.49 202.397817 
" clip-path="url(#p3d7e06d2c7)" style="fill: none; stroke: #2ca02c; stroke-opacity: 0.8; stroke-width: 1.5; stroke-linecap: round"/>
   </g>
   <g id="line2d_79">
    <path d="M 102.79 231.262423 
L 130.69 236.036699 
L 158.59 236.809777 
L 186.49 234.934974 
L 214.39 230.337472 
L 242.29 222.602486 
L 270.19 203.949894 
L 298.09 180.078387 
L 325.99 166.378601 
L 353.89 159.048269 
L 381.79 151.545629 
L 409.69 136.980074 
L 437.59 126.716218 
L 465.49 124.298621 
L 493.39 120.624632 
L 521.29 123.393782 
L 549.19 127.173332 
L 577.09 142.924357 
L 604.99 154.447521 
L 632.89 169.325754 
L 660.79 182.570673 
L 688.69 197.131985 
L 716.59 209.62298 
L 744.49 220.282997 
" clip-path="url(#p3d7e06d2c7)" style="fill: none; stroke: #ff7f0e; stroke-opacity: 0.8; stroke-width: 1.5; stroke-linecap: round"/>
   </g>
   <g id="line2d_80">
    <path d="M 102.79 229.66735 
L 130.69 235.230868 
L 158.59 236.527809 
L 186.49 235.741393 
L 214.39 230.201843 
L 242.29 218.081766 
L 270.19 196.149077 
L 298.09 171.328627 
L 325.99 156.254282 
L 353.89 149.029813 
L 381.79 142.666839 
L 409.69 129.971979 
L 437.59 122.034315 
L 465.49 117.34182 
L 493.39 115.52389 
L 521.29 117.442233 
L 549.19 118.411109 
L 577.09 129.33428 
L 604.99 143.838824 
L 632.89 159.566444 
L 660.79 174.512079 
L 688.69 190.428904 
L 716.59 203.729767 
L 744.49 216.658498 
" clip-path="url(#p3d7e06d2c7)" style="fill: none; stroke: #98df8a; stroke-opacity: 0.8; stroke-width: 1.5; stroke-linecap: round"/>
   </g>
   <g id="line2d_81">
    <path d="M 102.79 222.917672 
L 130.69 233.426977 
L 158.59 235.06277 
L 186.49 234.079567 
L 214.39 228.4935 
L 242.29 207.511099 
L 270.19 167.176888 
L 298.09 130.523999 
L 325.99 119.725989 
L 353.89 115.482896 
L 381.79 109.941539 
L 409.69 94.676579 
L 437.59 90.406772 
L 465.49 85.745668 
L 493.39 69.13074 
L 521.29 62.05287 
L 549.19 59.797693 
L 577.09 76.148429 
L 604.99 110.05975 
L 632.89 133.379018 
L 660.79 152.251618 
L 688.69 172.921963 
L 716.59 182.987749 
L 744.49 200.169336 
" clip-path="url(#p3d7e06d2c7)" style="fill: none; stroke: #e377c2; stroke-opacity: 0.8; stroke-width: 1.5; stroke-linecap: round"/>
   </g>
   <g id="line2d_82">
    <path d="M 102.79 219.269649 
L 130.69 228.694491 
L 158.59 230.833758 
L 186.49 229.117693 
L 214.39 224.279781 
L 242.29 201.823524 
L 270.19 160.112399 
L 298.09 122.713755 
L 325.99 108.679715 
L 353.89 104.593869 
L 381.79 98.12794 
L 409.69 84.891973 
L 437.59 78.036467 
L 465.49 69.091809 
L 493.39 62.446763 
L 521.29 59.319786 
L 549.19 68.958558 
L 577.09 80.60773 
L 604.99 94.552461 
L 632.89 115.621858 
L 660.79 136.705594 
L 688.69 157.452705 
L 716.59 175.815313 
L 744.49 195.183983 
" clip-path="url(#p3d7e06d2c7)" style="fill: none; stroke: #1f77b4; stroke-opacity: 0.8; stroke-width: 1.5; stroke-linecap: round"/>
   </g>
   <g id="line2d_83">
    <path d="M 102.79 219.241368 
L 130.69 228.680341 
L 158.59 230.824374 
L 186.49 228.889654 
L 214.39 223.681007 
L 242.29 204.278017 
L 270.19 165.501622 
L 298.09 129.697675 
L 325.99 117.860473 
L 353.89 111.511437 
L 381.79 103.28103 
L 409.69 90.154727 
L 437.59 83.076045 
L 465.49 75.212959 
L 493.39 69.308041 
L 521.29 62.854224 
L 549.19 63.368441 
L 577.09 86.03908 
L 604.99 103.222511 
L 632.89 120.917234 
L 660.79 140.123568 
L 688.69 160.09513 
L 716.59 178.239697 
L 744.49 195.763938 
" clip-path="url(#p3d7e06d2c7)" style="fill: none; stroke: #f7b6d2; stroke-opacity: 0.8; stroke-width: 1.5; stroke-linecap: round"/>
   </g>
   <g id="line2d_84">
    <path d="M 102.79 215.621154 
L 130.69 225.722078 
L 158.59 228.465214 
L 186.49 227.262348 
L 214.39 221.729768 
L 242.29 200.711474 
L 270.19 162.574268 
L 298.09 124.060878 
L 325.99 110.591712 
L 353.89 103.54321 
L 381.79 93.949071 
L 409.69 80.42472 
L 437.59 74.59541 
L 465.49 69.807295 
L 493.39 65.539951 
L 521.29 60.952152 
L 549.19 58.025904 
L 577.09 74.14518 
L 604.99 89.315366 
L 632.89 109.384238 
L 660.79 129.364841 
L 688.69 152.398369 
L 716.59 169.862686 
L 744.49 190.101504 
" clip-path="url(#p3d7e06d2c7)" style="fill: none; stroke: #ff9896; stroke-opacity: 0.8; stroke-width: 1.5; stroke-linecap: round"/>
   </g>
   <g id="line2d_85">
    <path d="M 102.79 218.760128 
L 130.69 228.095678 
L 158.59 232.18324 
L 186.49 229.002077 
L 214.39 219.267754 
L 242.29 190.577174 
L 270.19 146.878387 
L 298.09 113.559066 
L 325.99 97.653054 
L 353.89 89.923552 
L 381.79 82.971604 
L 409.69 68.666562 
L 437.59 67.465063 
L 465.49 64.20586 
L 493.39 62.432769 
L 521.29 61.796299 
L 549.19 62.148565 
L 577.09 75.234615 
L 604.99 99.009746 
L 632.89 125.91439 
L 660.79 144.481693 
L 688.69 161.823951 
L 716.59 177.440763 
L 744.49 193.858488 
" clip-path="url(#p3d7e06d2c7)" style="fill: none; stroke: #ff7f0e; stroke-opacity: 0.8; stroke-width: 1.5; stroke-linecap: round"/>
   </g>
   <g id="line2d_86">
    <path d="M 102.79 218.928449 
L 130.69 228.183882 
L 158.59 230.612165 
L 186.49 229.93961 
L 214.39 224.864435 
L 242.29 205.190038 
L 270.19 172.882757 
L 298.09 132.566232 
L 325.99 120.028163 
L 353.89 112.402918 
L 381.79 103.741813 
L 409.69 91.211744 
L 437.59 86.227411 
L 465.49 81.87931 
L 493.39 75.282814 
L 521.29 67.857511 
L 549.19 66.534359 
L 577.09 82.081769 
L 604.99 101.375069 
L 632.89 121.68858 
L 660.79 139.142718 
L 688.69 159.831628 
L 716.59 171.737844 
L 744.49 193.231334 
" clip-path="url(#p3d7e06d2c7)" style="fill: none; stroke: #f7b6d2; stroke-opacity: 0.8; stroke-width: 1.5; stroke-linecap: round"/>
   </g>
   <g id="line2d_87">
    <path d="M 102.79 221.954748 
L 130.69 230.148232 
L 158.59 232.589052 
L 186.49 231.907333 
L 214.39 226.414738 
L 242.29 209.206376 
L 270.19 178.991069 
L 298.09 149.534033 
L 325.99 133.83471 
L 353.89 124.120313 
L 381.79 117.277871 
L 409.69 98.352666 
L 437.59 90.424085 
L 465.49 84.781135 
L 493.39 83.099393 
L 521.29 80.704731 
L 549.19 82.649373 
L 577.09 95.417849 
L 604.99 116.106005 
L 632.89 137.754299 
L 660.79 154.872365 
L 688.69 173.916851 
L 716.59 187.899624 
L 744.49 202.365103 
" clip-path="url(#p3d7e06d2c7)" style="fill: none; stroke: #7f7f7f; stroke-opacity: 0.8; stroke-width: 1.5; stroke-linecap: round"/>
   </g>
   <g id="line2d_88">
    <path d="M 102.79 213.07685 
L 130.69 224.332932 
L 158.59 227.463114 
L 186.49 225.087989 
L 214.39 216.131516 
L 242.29 186.728833 
L 270.19 139.479429 
L 298.09 108.739573 
L 325.99 97.719794 
L 353.89 89.018954 
L 381.79 77.933162 
L 409.69 64.52534 
L 437.59 62.131521 
L 465.49 57.948639 
L 493.39 57.394138 
L 521.29 59.55286 
L 549.19 61.246851 
L 577.09 77.302421 
L 604.99 96.214761 
L 632.89 116.846183 
L 660.79 136.343107 
L 688.69 151.000027 
L 716.59 165.663003 
L 744.49 185.99276 
" clip-path="url(#p3d7e06d2c7)" style="fill: none; stroke: #c7c7c7; stroke-opacity: 0.8; stroke-width: 1.5; stroke-linecap: round"/>
   </g>
   <g id="line2d_89">
    <path d="M 102.79 220.084669 
L 130.69 228.426216 
L 158.59 230.901762 
L 186.49 229.776674 
L 214.39 224.910314 
L 242.29 205.563668 
L 270.19 175.772327 
L 298.09 139.558089 
L 325.99 127.853126 
L 353.89 120.319223 
L 381.79 112.231391 
L 409.69 98.603287 
L 437.59 92.617682 
L 465.49 86.686079 
L 493.39 84.910608 
L 521.29 84.511497 
L 549.19 84.560069 
L 577.09 95.88682 
L 604.99 106.601861 
L 632.89 123.701457 
L 660.79 144.5789 
L 688.69 165.05029 
L 716.59 181.078998 
L 744.49 200.4968 
" clip-path="url(#p3d7e06d2c7)" style="fill: none; stroke: #aec7e8; stroke-opacity: 0.8; stroke-width: 1.5; stroke-linecap: round"/>
   </g>
   <g id="line2d_90">
    <path d="M 102.79 219.78634 
L 130.69 229.238931 
L 158.59 231.673236 
L 186.49 231.594355 
L 214.39 227.33769 
L 242.29 209.431167 
L 270.19 181.189794 
L 298.09 141.741082 
L 325.99 128.200235 
L 353.89 120.172533 
L 381.79 109.877886 
L 409.69 94.246447 
L 437.59 86.682147 
L 465.49 77.429694 
L 493.39 71.479487 
L 521.29 67.206248 
L 549.19 70.733327 
L 577.09 86.83655 
L 604.99 104.970505 
L 632.89 125.896751 
L 660.79 145.656191 
L 688.69 166.30342 
L 716.59 182.294455 
L 744.49 199.3265 
" clip-path="url(#p3d7e06d2c7)" style="fill: none; stroke: #d62728; stroke-opacity: 0.8; stroke-width: 1.5; stroke-linecap: round"/>
   </g>
   <g id="line2d_91">
    <path d="M 102.79 222.311921 
L 130.69 229.672533 
L 158.59 230.97478 
L 186.49 232.267109 
L 214.39 226.713241 
L 242.29 210.706743 
L 270.19 182.661574 
L 298.09 147.277206 
L 325.99 138.009383 
L 353.89 133.814911 
L 381.79 126.380742 
L 409.69 107.067493 
L 437.59 97.793404 
L 465.49 93.350507 
L 493.39 92.528114 
L 521.29 93.448892 
L 549.19 94.886207 
L 577.09 108.51758 
L 604.99 128.49724 
L 632.89 146.598264 
L 660.79 163.037185 
L 688.69 179.221402 
L 716.59 191.13246 
L 744.49 204.934421 
" clip-path="url(#p3d7e06d2c7)" style="fill: none; stroke: #9edae5; stroke-opacity: 0.8; stroke-width: 1.5; stroke-linecap: round"/>
   </g>
   <g id="line2d_92">
    <path d="M 102.79 221.592886 
L 130.69 230.851314 
L 158.59 232.56059 
L 186.49 232.145708 
L 214.39 226.675104 
L 242.29 206.252005 
L 270.19 163.507435 
L 298.09 131.030126 
L 325.99 119.374005 
L 353.89 115.00267 
L 381.79 108.514286 
L 409.69 98.160772 
L 437.59 95.391566 
L 465.49 85.349415 
L 493.39 79.650656 
L 521.29 75.463266 
L 549.19 80.730371 
L 577.09 96.445297 
L 604.99 112.273539 
L 632.89 131.649145 
L 660.79 148.490102 
L 688.69 164.824104 
L 716.59 182.522794 
L 744.49 200.331917 
" clip-path="url(#p3d7e06d2c7)" style="fill: none; stroke: #bcbd22; stroke-opacity: 0.8; stroke-width: 1.5; stroke-linecap: round"/>
   </g>
   <g id="line2d_93">
    <path d="M 102.79 221.416531 
L 130.69 229.850252 
L 158.59 231.87943 
L 186.49 230.982275 
L 214.39 226.337664 
L 242.29 204.132129 
L 270.19 164.149907 
L 298.09 130.151129 
L 325.99 116.606651 
L 353.89 111.917609 
L 381.79 106.143368 
L 409.69 93.234137 
L 437.59 89.731454 
L 465.49 80.896233 
L 493.39 75.651914 
L 521.29 73.25599 
L 549.19 83.134554 
L 577.09 98.559065 
L 604.99 110.419829 
L 632.89 132.241379 
L 660.79 150.740273 
L 688.69 167.496854 
L 716.59 183.629821 
L 744.49 201.511091 
" clip-path="url(#p3d7e06d2c7)" style="fill: none; stroke: #1f77b4; stroke-opacity: 0.8; stroke-width: 1.5; stroke-linecap: round"/>
   </g>
   <g id="line2d_94">
    <path d="M 102.79 213.216906 
L 130.69 224.578611 
L 158.59 227.803722 
L 186.49 226.839378 
L 214.39 221.994875 
L 242.29 199.599916 
L 270.19 162.599076 
L 298.09 123.319539 
L 325.99 112.450829 
L 353.89 107.455837 
L 381.79 100.025189 
L 409.69 86.652383 
L 437.59 83.556406 
L 465.49 79.055179 
L 493.39 75.866228 
L 521.29 68.678969 
L 549.19 66.2488 
L 577.09 83.422553 
L 604.99 97.095759 
L 632.89 118.678765 
L 660.79 134.690859 
L 688.69 153.140693 
L 716.59 169.585941 
L 744.49 187.484205 
" clip-path="url(#p3d7e06d2c7)" style="fill: none; stroke: #dbdb8d; stroke-opacity: 0.8; stroke-width: 1.5; stroke-linecap: round"/>
   </g>
   <g id="line2d_95">
    <path d="M 102.79 221.839911 
L 130.69 231.937816 
L 158.59 234.47911 
L 186.49 233.536753 
L 214.39 228.425891 
L 242.29 215.345607 
L 270.19 184.679472 
L 298.09 152.432726 
L 325.99 141.992559 
L 353.89 134.928647 
L 381.79 126.692986 
L 409.69 108.241657 
L 437.59 104.738218 
L 465.49 102.139956 
L 493.39 100.155234 
L 521.29 97.139434 
L 549.19 97.055125 
L 577.09 106.355392 
L 604.99 125.39259 
L 632.89 146.036519 
L 660.79 158.345799 
L 688.69 171.484881 
L 716.59 184.801019 
L 744.49 200.155241 
" clip-path="url(#p3d7e06d2c7)" style="fill: none; stroke: #2ca02c; stroke-opacity: 0.8; stroke-width: 1.5; stroke-linecap: round"/>
   </g>
   <g id="line2d_96">
    <path d="M 102.79 208.388974 
L 130.69 221.002618 
L 158.59 224.73981 
L 186.49 224.339208 
L 214.39 217.426886 
L 242.29 194.781088 
L 270.19 154.093508 
L 298.09 113.581351 
L 325.99 104.531014 
L 353.89 99.651436 
L 381.79 90.62584 
L 409.69 77.162092 
L 437.59 73.778576 
L 465.49 66.745003 
L 493.39 60.711939 
L 521.29 53.496204 
L 549.19 50.652965 
L 577.09 65.057661 
L 604.99 86.89161 
L 632.89 111.407238 
L 660.79 126.864539 
L 688.69 144.969275 
L 716.59 158.168783 
L 744.49 180.031285 
" clip-path="url(#p3d7e06d2c7)" style="fill: none; stroke: #c7c7c7; stroke-opacity: 0.8; stroke-width: 1.5; stroke-linecap: round"/>
   </g>
   <g id="line2d_97">
    <path d="M 102.79 216.343851 
L 130.69 223.735858 
L 158.59 225.215795 
L 186.49 223.72406 
L 214.39 217.176495 
L 242.29 200.424045 
L 270.19 161.834149 
L 298.09 123.574457 
L 325.99 115.903191 
L 353.89 113.204543 
L 381.79 106.03848 
L 409.69 94.992677 
L 437.59 92.518519 
L 465.49 86.06755 
L 493.39 83.255525 
L 521.29 83.489828 
L 549.19 91.865905 
L 577.09 101.31727 
L 604.99 112.260987 
L 632.89 129.696857 
L 660.79 145.480183 
L 688.69 160.838679 
L 716.59 173.891165 
L 744.49 195.018298 
" clip-path="url(#p3d7e06d2c7)" style="fill: none; stroke: #ffbb78; stroke-opacity: 0.8; stroke-width: 1.5; stroke-linecap: round"/>
   </g>
   <g id="line2d_98">
    <path d="M 102.79 218.212375 
L 130.69 227.626405 
L 158.59 230.278904 
L 186.49 229.644084 
L 214.39 225.027807 
L 242.29 205.923996 
L 270.19 174.232588 
L 298.09 138.417522 
L 325.99 123.894496 
L 353.89 115.259549 
L 381.79 105.913672 
L 409.69 92.043044 
L 437.59 83.76469 
L 465.49 77.906265 
L 493.39 74.804521 
L 521.29 71.60591 
L 549.19 69.026719 
L 577.09 82.465445 
L 604.99 94.939553 
L 632.89 115.007843 
L 660.79 136.906766 
L 688.69 159.760777 
L 716.59 175.402292 
L 744.49 194.41695 
" clip-path="url(#p3d7e06d2c7)" style="fill: none; stroke: #dbdb8d; stroke-opacity: 0.8; stroke-width: 1.5; stroke-linecap: round"/>
   </g>
   <g id="line2d_99">
    <path d="M 102.79 228.076083 
L 130.69 234.36844 
L 158.59 234.928256 
L 186.49 233.491377 
L 214.39 228.787041 
L 242.29 214.827248 
L 270.19 182.656104 
L 298.09 152.381248 
L 325.99 140.254444 
L 353.89 135.144664 
L 381.79 126.717055 
L 409.69 109.340197 
L 437.59 108.06476 
L 465.49 101.907858 
L 493.39 99.647116 
L 521.29 99.501758 
L 549.19 102.441163 
L 577.09 119.373907 
L 604.99 136.300013 
L 632.89 151.419047 
L 660.79 167.91266 
L 688.69 181.229418 
L 716.59 195.901641 
L 744.49 211.168211 
" clip-path="url(#p3d7e06d2c7)" style="fill: none; stroke: #17becf; stroke-opacity: 0.8; stroke-width: 1.5; stroke-linecap: round"/>
   </g>
   <g id="line2d_100">
    <path d="M 102.79 222.081722 
L 130.69 228.293923 
L 158.59 229.545964 
L 186.49 227.941443 
L 214.39 222.849659 
L 242.29 209.566562 
L 270.19 177.123634 
L 298.09 143.363469 
L 325.99 132.76825 
L 353.89 130.147332 
L 381.79 123.619242 
L 409.69 112.928912 
L 437.59 109.574579 
L 465.49 100.478783 
L 493.39 97.743921 
L 521.29 97.835505 
L 549.19 106.947317 
L 577.09 119.101443 
L 604.99 130.498434 
L 632.89 145.540705 
L 660.79 161.033362 
L 688.69 175.786242 
L 716.59 189.143273 
L 744.49 205.280787 
" clip-path="url(#p3d7e06d2c7)" style="fill: none; stroke: #9edae5; stroke-opacity: 0.8; stroke-width: 1.5; stroke-linecap: round"/>
   </g>
   <g id="patch_3">
    <path d="M 88.84 257.76 
L 88.84 36 
" style="fill: none; stroke: #000000; stroke-linejoin: miter; stroke-linecap: square"/>
   </g>
   <g id="patch_4">
    <path d="M 758.44 257.76 
L 758.44 36 
" style="fill: none; stroke: #000000; stroke-linejoin: miter; stroke-linecap: square"/>
   </g>
   <g id="patch_5">
    <path d="M 88.84 257.76 
L 758.44 257.76 
" style="fill: none; stroke: #000000; stroke-linejoin: miter; stroke-linecap: square"/>
   </g>
   <g id="patch_6">
    <path d="M 88.84 36 
L 758.44 36 
" style="fill: none; stroke: #000000; stroke-linejoin: miter; stroke-linecap: square"/>
   </g>
  </g>
 </g>
 <defs>
  <clipPath id="p3d7e06d2c7">
   <rect x="88.84" y="36" width="669.6" height="221.76"/>
  </clipPath>
 </defs>
</svg>
