<?xml version="1.0" encoding="utf-8" standalone="no"?>
<!DOCTYPE svg PUBLIC "-//W3C//DTD SVG 1.1//EN"
  "http://www.w3.org/Graphics/SVG/1.1/DTD/svg11.dtd">
<svg xmlns:xlink="http://www.w3.org/1999/xlink" width="794.231875pt" height="332.28625pt" viewBox="0 0 794.231875 332.28625" xmlns="http://www.w3.org/2000/svg" version="1.1">
 <metadata>
  <rdf:RDF xmlns:dc="http://purl.org/dc/elements/1.1/" xmlns:cc="http://creativecommons.org/ns#" xmlns:rdf="http://www.w3.org/1999/02/22-rdf-syntax-ns#">
   <cc:Work>
    <dc:type rdf:resource="http://purl.org/dc/dcmitype/StillImage"/>
    <dc:date>2025-10-27T21:17:15.288609</dc:date>
    <dc:format>image/svg+xml</dc:format>
    <dc:creator>
     <cc:Agent>
      <dc:title>Matplotlib v3.10.7, https://matplotlib.org/</dc:title>
     </cc:Agent>
    </dc:creator>
   </cc:Work>
  </rdf:RDF>
 </metadata>
 <defs>
  <style type="text/css">*{stroke-linejoin: round; stroke-linecap: butt}</style>
 </defs>
 <g id="figure_1">
  <g id="patch_1">
   <path d="M 0 332.28625 
L 794.231875 332.28625 
L 794.231875 0 
L 0 0 
L 0 332.28625 
z
" style="fill: none"/>
  </g>
  <g id="axes_1">
   <g id="patch_2">
    <path d="M 88.631875 257.76 
L 758.231875 257.76 
L 758.231875 36 
L 88.631875 36 
L 88.631875 257.76 
z
" style="fill: none"/>
   </g>
   <g id="line2d_1">
    <path d="M 108.922784 257.76 
L 108.922784 36 
" clip-path="url(#pcbec21e3ac)" style="fill: none; stroke-dasharray: 0.74,0.32; stroke-dashoffset: 0; stroke: #a9a9a9; stroke-opacity: 0.5; stroke-width: 0.2"/>
   </g>
   <g id="line2d_2">
    <path d="M 129.213693 257.76 
L 129.213693 36 
" clip-path="url(#pcbec21e3ac)" style="fill: none; stroke-dasharray: 0.74,0.32; stroke-dashoffset: 0; stroke: #a9a9a9; stroke-opacity: 0.5; stroke-width: 0.2"/>
   </g>
   <g id="line2d_3">
    <path d="M 149.504602 257.76 
L 149.504602 36 
" clip-path="url(#pcbec21e3ac)" style="fill: none; stroke-dasharray: 0.74,0.32; stroke-dashoffset: 0; stroke: #a9a9a9; stroke-opacity: 0.5; stroke-width: 0.2"/>
   </g>
   <g id="line2d_4">
    <path d="M 169.795511 257.76 
L 169.795511 36 
" clip-path="url(#pcbec21e3ac)" style="fill: none; stroke-dasharray: 0.74,0.32; stroke-dashoffset: 0; stroke: #a9a9a9; stroke-opacity: 0.5; stroke-width: 0.2"/>
   </g>
   <g id="line2d_5">
    <path d="M 190.08642 257.76 
L 190.08642 36 
" clip-path="url(#pcbec21e3ac)" style="fill: none; stroke-dasharray: 0.74,0.32; stroke-dashoffset: 0; stroke: #a9a9a9; stroke-opacity: 0.5; stroke-width: 0.2"/>
   </g>
   <g id="line2d_6">
    <path d="M 210.37733 257.76 
L 210.37733 36 
" clip-path="url(#pcbec21e3ac)" style="fill: none; stroke-dasharray: 0.74,0.32; stroke-dashoffset: 0; stroke: #a9a9a9; stroke-opacity: 0.5; stroke-width: 0.2"/>
   </g>
   <g id="line2d_7">
    <path d="M 230.668239 257.76 
L 230.668239 36 
" clip-path="url(#pcbec21e3ac)" style="fill: none; stroke-dasharray: 0.74,0.32; stroke-dashoffset: 0; stroke: #a9a9a9; stroke-opacity: 0.5; stroke-width: 0.2"/>
   </g>
   <g id="line2d_8">
    <path d="M 250.959148 257.76 
L 250.959148 36 
" clip-path="url(#pcbec21e3ac)" style="fill: none; stroke-dasharray: 0.74,0.32; stroke-dashoffset: 0; stroke: #a9a9a9; stroke-opacity: 0.5; stroke-width: 0.2"/>
   </g>
   <g id="line2d_9">
    <path d="M 271.250057 257.76 
L 271.250057 36 
" clip-path="url(#pcbec21e3ac)" style="fill: none; stroke-dasharray: 0.74,0.32; stroke-dashoffset: 0; stroke: #a9a9a9; stroke-opacity: 0.5; stroke-width: 0.2"/>
   </g>
   <g id="line2d_10">
    <path d="M 291.540966 257.76 
L 291.540966 36 
" clip-path="url(#pcbec21e3ac)" style="fill: none; stroke-dasharray: 0.74,0.32; stroke-dashoffset: 0; stroke: #a9a9a9; stroke-opacity: 0.5; stroke-width: 0.2"/>
   </g>
   <g id="line2d_11">
    <path d="M 311.831875 257.76 
L 311.831875 36 
" clip-path="url(#pcbec21e3ac)" style="fill: none; stroke-dasharray: 0.74,0.32; stroke-dashoffset: 0; stroke: #a9a9a9; stroke-opacity: 0.5; stroke-width: 0.2"/>
   </g>
   <g id="line2d_12">
    <path d="M 332.122784 257.76 
L 332.122784 36 
" clip-path="url(#pcbec21e3ac)" style="fill: none; stroke-dasharray: 0.74,0.32; stroke-dashoffset: 0; stroke: #a9a9a9; stroke-opacity: 0.5; stroke-width: 0.2"/>
   </g>
   <g id="line2d_13">
    <path d="M 352.413693 257.76 
L 352.413693 36 
" clip-path="url(#pcbec21e3ac)" style="fill: none; stroke-dasharray: 0.74,0.32; stroke-dashoffset: 0; stroke: #a9a9a9; stroke-opacity: 0.5; stroke-width: 0.2"/>
   </g>
   <g id="line2d_14">
    <path d="M 372.704602 257.76 
L 372.704602 36 
" clip-path="url(#pcbec21e3ac)" style="fill: none; stroke-dasharray: 0.74,0.32; stroke-dashoffset: 0; stroke: #a9a9a9; stroke-opacity: 0.5; stroke-width: 0.2"/>
   </g>
   <g id="line2d_15">
    <path d="M 392.995511 257.76 
L 392.995511 36 
" clip-path="url(#pcbec21e3ac)" style="fill: none; stroke-dasharray: 0.74,0.32; stroke-dashoffset: 0; stroke: #a9a9a9; stroke-opacity: 0.5; stroke-width: 0.2"/>
   </g>
   <g id="line2d_16">
    <path d="M 413.28642 257.76 
L 413.28642 36 
" clip-path="url(#pcbec21e3ac)" style="fill: none; stroke-dasharray: 0.74,0.32; stroke-dashoffset: 0; stroke: #a9a9a9; stroke-opacity: 0.5; stroke-width: 0.2"/>
   </g>
   <g id="line2d_17">
    <path d="M 433.57733 257.76 
L 433.57733 36 
" clip-path="url(#pcbec21e3ac)" style="fill: none; stroke-dasharray: 0.74,0.32; stroke-dashoffset: 0; stroke: #a9a9a9; stroke-opacity: 0.5; stroke-width: 0.2"/>
   </g>
   <g id="line2d_18">
    <path d="M 453.868239 257.76 
L 453.868239 36 
" clip-path="url(#pcbec21e3ac)" style="fill: none; stroke-dasharray: 0.74,0.32; stroke-dashoffset: 0; stroke: #a9a9a9; stroke-opacity: 0.5; stroke-width: 0.2"/>
   </g>
   <g id="line2d_19">
    <path d="M 474.159148 257.76 
L 474.159148 36 
" clip-path="url(#pcbec21e3ac)" style="fill: none; stroke-dasharray: 0.74,0.32; stroke-dashoffset: 0; stroke: #a9a9a9; stroke-opacity: 0.5; stroke-width: 0.2"/>
   </g>
   <g id="line2d_20">
    <path d="M 494.450057 257.76 
L 494.450057 36 
" clip-path="url(#pcbec21e3ac)" style="fill: none; stroke-dasharray: 0.74,0.32; stroke-dashoffset: 0; stroke: #a9a9a9; stroke-opacity: 0.5; stroke-width: 0.2"/>
   </g>
   <g id="line2d_21">
    <path d="M 514.740966 257.76 
L 514.740966 36 
" clip-path="url(#pcbec21e3ac)" style="fill: none; stroke-dasharray: 0.74,0.32; stroke-dashoffset: 0; stroke: #a9a9a9; stroke-opacity: 0.5; stroke-width: 0.2"/>
   </g>
   <g id="line2d_22">
    <path d="M 535.031875 257.76 
L 535.031875 36 
" clip-path="url(#pcbec21e3ac)" style="fill: none; stroke-dasharray: 0.74,0.32; stroke-dashoffset: 0; stroke: #a9a9a9; stroke-opacity: 0.5; stroke-width: 0.2"/>
   </g>
   <g id="line2d_23">
    <path d="M 555.322784 257.76 
L 555.322784 36 
" clip-path="url(#pcbec21e3ac)" style="fill: none; stroke-dasharray: 0.74,0.32; stroke-dashoffset: 0; stroke: #a9a9a9; stroke-opacity: 0.5; stroke-width: 0.2"/>
   </g>
   <g id="line2d_24">
    <path d="M 575.613693 257.76 
L 575.613693 36 
" clip-path="url(#pcbec21e3ac)" style="fill: none; stroke-dasharray: 0.74,0.32; stroke-dashoffset: 0; stroke: #a9a9a9; stroke-opacity: 0.5; stroke-width: 0.2"/>
   </g>
   <g id="line2d_25">
    <path d="M 595.904602 257.76 
L 595.904602 36 
" clip-path="url(#pcbec21e3ac)" style="fill: none; stroke-dasharray: 0.74,0.32; stroke-dashoffset: 0; stroke: #a9a9a9; stroke-opacity: 0.5; stroke-width: 0.2"/>
   </g>
   <g id="line2d_26">
    <path d="M 616.195511 257.76 
L 616.195511 36 
" clip-path="url(#pcbec21e3ac)" style="fill: none; stroke-dasharray: 0.74,0.32; stroke-dashoffset: 0; stroke: #a9a9a9; stroke-opacity: 0.5; stroke-width: 0.2"/>
   </g>
   <g id="line2d_27">
    <path d="M 636.48642 257.76 
L 636.48642 36 
" clip-path="url(#pcbec21e3ac)" style="fill: none; stroke-dasharray: 0.74,0.32; stroke-dashoffset: 0; stroke: #a9a9a9; stroke-opacity: 0.5; stroke-width: 0.2"/>
   </g>
   <g id="line2d_28">
    <path d="M 656.77733 257.76 
L 656.77733 36 
" clip-path="url(#pcbec21e3ac)" style="fill: none; stroke-dasharray: 0.74,0.32; stroke-dashoffset: 0; stroke: #a9a9a9; stroke-opacity: 0.5; stroke-width: 0.2"/>
   </g>
   <g id="line2d_29">
    <path d="M 677.068239 257.76 
L 677.068239 36 
" clip-path="url(#pcbec21e3ac)" style="fill: none; stroke-dasharray: 0.74,0.32; stroke-dashoffset: 0; stroke: #a9a9a9; stroke-opacity: 0.5; stroke-width: 0.2"/>
   </g>
   <g id="line2d_30">
    <path d="M 697.359148 257.76 
L 697.359148 36 
" clip-path="url(#pcbec21e3ac)" style="fill: none; stroke-dasharray: 0.74,0.32; stroke-dashoffset: 0; stroke: #a9a9a9; stroke-opacity: 0.5; stroke-width: 0.2"/>
   </g>
   <g id="line2d_31">
    <path d="M 717.650057 257.76 
L 717.650057 36 
" clip-path="url(#pcbec21e3ac)" style="fill: none; stroke-dasharray: 0.74,0.32; stroke-dashoffset: 0; stroke: #a9a9a9; stroke-opacity: 0.5; stroke-width: 0.2"/>
   </g>
   <g id="line2d_32">
    <path d="M 737.940966 257.76 
L 737.940966 36 
" clip-path="url(#pcbec21e3ac)" style="fill: none; stroke-dasharray: 0.74,0.32; stroke-dashoffset: 0; stroke: #a9a9a9; stroke-opacity: 0.5; stroke-width: 0.2"/>
   </g>
   <g id="line2d_33">
    <path d="M 88.631875 235.584 
L 758.231875 235.584 
" clip-path="url(#pcbec21e3ac)" style="fill: none; stroke-dasharray: 0.74,0.32; stroke-dashoffset: 0; stroke: #a9a9a9; stroke-opacity: 0.5; stroke-width: 0.2"/>
   </g>
   <g id="line2d_34">
    <path d="M 88.631875 213.408 
L 758.231875 213.408 
" clip-path="url(#pcbec21e3ac)" style="fill: none; stroke-dasharray: 0.74,0.32; stroke-dashoffset: 0; stroke: #a9a9a9; stroke-opacity: 0.5; stroke-width: 0.2"/>
   </g>
   <g id="line2d_35">
    <path d="M 88.631875 191.232 
L 758.231875 191.232 
" clip-path="url(#pcbec21e3ac)" style="fill: none; stroke-dasharray: 0.74,0.32; stroke-dashoffset: 0; stroke: #a9a9a9; stroke-opacity: 0.5; stroke-width: 0.2"/>
   </g>
   <g id="line2d_36">
    <path d="M 88.631875 169.056 
L 758.231875 169.056 
" clip-path="url(#pcbec21e3ac)" style="fill: none; stroke-dasharray: 0.74,0.32; stroke-dashoffset: 0; stroke: #a9a9a9; stroke-opacity: 0.5; stroke-width: 0.2"/>
   </g>
   <g id="line2d_37">
    <path d="M 88.631875 146.88 
L 758.231875 146.88 
" clip-path="url(#pcbec21e3ac)" style="fill: none; stroke-dasharray: 0.74,0.32; stroke-dashoffset: 0; stroke: #a9a9a9; stroke-opacity: 0.5; stroke-width: 0.2"/>
   </g>
   <g id="line2d_38">
    <path d="M 88.631875 124.704 
L 758.231875 124.704 
" clip-path="url(#pcbec21e3ac)" style="fill: none; stroke-dasharray: 0.74,0.32; stroke-dashoffset: 0; stroke: #a9a9a9; stroke-opacity: 0.5; stroke-width: 0.2"/>
   </g>
   <g id="line2d_39">
    <path d="M 88.631875 102.528 
L 758.231875 102.528 
" clip-path="url(#pcbec21e3ac)" style="fill: none; stroke-dasharray: 0.74,0.32; stroke-dashoffset: 0; stroke: #a9a9a9; stroke-opacity: 0.5; stroke-width: 0.2"/>
   </g>
   <g id="line2d_40">
    <path d="M 88.631875 80.352 
L 758.231875 80.352 
" clip-path="url(#pcbec21e3ac)" style="fill: none; stroke-dasharray: 0.74,0.32; stroke-dashoffset: 0; stroke: #a9a9a9; stroke-opacity: 0.5; stroke-width: 0.2"/>
   </g>
   <g id="line2d_41">
    <path d="M 88.631875 58.176 
L 758.231875 58.176 
" clip-path="url(#pcbec21e3ac)" style="fill: none; stroke-dasharray: 0.74,0.32; stroke-dashoffset: 0; stroke: #a9a9a9; stroke-opacity: 0.5; stroke-width: 0.2"/>
   </g>
   <g id="matplotlib.axis_1">
    <g id="xtick_1">
     <g id="line2d_42">
      <defs>
       <path id="m0581cf6cf3" d="M 0 0 
L 0 5 
" style="stroke: #000000"/>
      </defs>
      <g>
       <use xlink:href="#m0581cf6cf3" x="102.581875" y="257.76" style="stroke: #000000"/>
      </g>
     </g>
     <g id="text_1">
      <!-- 1:00 -->
      <g transform="translate(105.684063 289.613125) rotate(-90) scale(0.12 -0.12)">
       <defs>
        <path id="ArialMT-31" d="M 2384 0 
L 1822 0 
L 1822 3584 
Q 1619 3391 1289 3197 
Q 959 3003 697 2906 
L 697 3450 
Q 1169 3672 1522 3987 
Q 1875 4303 2022 4600 
L 2384 4600 
L 2384 0 
z
" transform="scale(0.015625)"/>
        <path id="ArialMT-3a" d="M 578 2678 
L 578 3319 
L 1219 3319 
L 1219 2678 
L 578 2678 
z
M 578 0 
L 578 641 
L 1219 641 
L 1219 0 
L 578 0 
z
" transform="scale(0.015625)"/>
        <path id="ArialMT-30" d="M 266 2259 
Q 266 3072 433 3567 
Q 600 4063 929 4331 
Q 1259 4600 1759 4600 
Q 2128 4600 2406 4451 
Q 2684 4303 2865 4023 
Q 3047 3744 3150 3342 
Q 3253 2941 3253 2259 
Q 3253 1453 3087 958 
Q 2922 463 2592 192 
Q 2263 -78 1759 -78 
Q 1097 -78 719 397 
Q 266 969 266 2259 
z
M 844 2259 
Q 844 1131 1108 757 
Q 1372 384 1759 384 
Q 2147 384 2411 759 
Q 2675 1134 2675 2259 
Q 2675 3391 2411 3762 
Q 2147 4134 1753 4134 
Q 1366 4134 1134 3806 
Q 844 3388 844 2259 
z
" transform="scale(0.015625)"/>
       </defs>
       <use xlink:href="#ArialMT-31"/>
       <use xlink:href="#ArialMT-3a" transform="translate(55.615234 0)"/>
       <use xlink:href="#ArialMT-30" transform="translate(83.398438 0)"/>
       <use xlink:href="#ArialMT-30" transform="translate(139.013672 0)"/>
      </g>
     </g>
    </g>
    <g id="xtick_2">
     <g id="line2d_43">
      <g>
       <use xlink:href="#m0581cf6cf3" x="130.481875" y="257.76" style="stroke: #000000"/>
      </g>
     </g>
     <g id="text_2">
      <!-- 2:00 -->
      <g transform="translate(133.584063 289.613125) rotate(-90) scale(0.12 -0.12)">
       <defs>
        <path id="ArialMT-32" d="M 3222 541 
L 3222 0 
L 194 0 
Q 188 203 259 391 
Q 375 700 629 1000 
Q 884 1300 1366 1694 
Q 2113 2306 2375 2664 
Q 2638 3022 2638 3341 
Q 2638 3675 2398 3904 
Q 2159 4134 1775 4134 
Q 1369 4134 1125 3890 
Q 881 3647 878 3216 
L 300 3275 
Q 359 3922 746 4261 
Q 1134 4600 1788 4600 
Q 2447 4600 2831 4234 
Q 3216 3869 3216 3328 
Q 3216 3053 3103 2787 
Q 2991 2522 2730 2228 
Q 2469 1934 1863 1422 
Q 1356 997 1212 845 
Q 1069 694 975 541 
L 3222 541 
z
" transform="scale(0.015625)"/>
       </defs>
       <use xlink:href="#ArialMT-32"/>
       <use xlink:href="#ArialMT-3a" transform="translate(55.615234 0)"/>
       <use xlink:href="#ArialMT-30" transform="translate(83.398438 0)"/>
       <use xlink:href="#ArialMT-30" transform="translate(139.013672 0)"/>
      </g>
     </g>
    </g>
    <g id="xtick_3">
     <g id="line2d_44">
      <g>
       <use xlink:href="#m0581cf6cf3" x="158.381875" y="257.76" style="stroke: #000000"/>
      </g>
     </g>
     <g id="text_3">
      <!-- 3:00 -->
      <g transform="translate(161.484062 289.613125) rotate(-90) scale(0.12 -0.12)">
       <defs>
        <path id="ArialMT-33" d="M 269 1209 
L 831 1284 
Q 928 806 1161 595 
Q 1394 384 1728 384 
Q 2125 384 2398 659 
Q 2672 934 2672 1341 
Q 2672 1728 2419 1979 
Q 2166 2231 1775 2231 
Q 1616 2231 1378 2169 
L 1441 2663 
Q 1497 2656 1531 2656 
Q 1891 2656 2178 2843 
Q 2466 3031 2466 3422 
Q 2466 3731 2256 3934 
Q 2047 4138 1716 4138 
Q 1388 4138 1169 3931 
Q 950 3725 888 3313 
L 325 3413 
Q 428 3978 793 4289 
Q 1159 4600 1703 4600 
Q 2078 4600 2393 4439 
Q 2709 4278 2876 4000 
Q 3044 3722 3044 3409 
Q 3044 3113 2884 2869 
Q 2725 2625 2413 2481 
Q 2819 2388 3044 2092 
Q 3269 1797 3269 1353 
Q 3269 753 2831 336 
Q 2394 -81 1725 -81 
Q 1122 -81 723 278 
Q 325 638 269 1209 
z
" transform="scale(0.015625)"/>
       </defs>
       <use xlink:href="#ArialMT-33"/>
       <use xlink:href="#ArialMT-3a" transform="translate(55.615234 0)"/>
       <use xlink:href="#ArialMT-30" transform="translate(83.398438 0)"/>
       <use xlink:href="#ArialMT-30" transform="translate(139.013672 0)"/>
      </g>
     </g>
    </g>
    <g id="xtick_4">
     <g id="line2d_45">
      <g>
       <use xlink:href="#m0581cf6cf3" x="186.281875" y="257.76" style="stroke: #000000"/>
      </g>
     </g>
     <g id="text_4">
      <!-- 4:00 -->
      <g transform="translate(189.384063 289.613125) rotate(-90) scale(0.12 -0.12)">
       <defs>
        <path id="ArialMT-34" d="M 2069 0 
L 2069 1097 
L 81 1097 
L 81 1613 
L 2172 4581 
L 2631 4581 
L 2631 1613 
L 3250 1613 
L 3250 1097 
L 2631 1097 
L 2631 0 
L 2069 0 
z
M 2069 1613 
L 2069 3678 
L 634 1613 
L 2069 1613 
z
" transform="scale(0.015625)"/>
       </defs>
       <use xlink:href="#ArialMT-34"/>
       <use xlink:href="#ArialMT-3a" transform="translate(55.615234 0)"/>
       <use xlink:href="#ArialMT-30" transform="translate(83.398438 0)"/>
       <use xlink:href="#ArialMT-30" transform="translate(139.013672 0)"/>
      </g>
     </g>
    </g>
    <g id="xtick_5">
     <g id="line2d_46">
      <g>
       <use xlink:href="#m0581cf6cf3" x="214.181875" y="257.76" style="stroke: #000000"/>
      </g>
     </g>
     <g id="text_5">
      <!-- 5:00 -->
      <g transform="translate(217.284063 289.613125) rotate(-90) scale(0.12 -0.12)">
       <defs>
        <path id="ArialMT-35" d="M 266 1200 
L 856 1250 
Q 922 819 1161 601 
Q 1400 384 1738 384 
Q 2144 384 2425 690 
Q 2706 997 2706 1503 
Q 2706 1984 2436 2262 
Q 2166 2541 1728 2541 
Q 1456 2541 1237 2417 
Q 1019 2294 894 2097 
L 366 2166 
L 809 4519 
L 3088 4519 
L 3088 3981 
L 1259 3981 
L 1013 2750 
Q 1425 3038 1878 3038 
Q 2478 3038 2890 2622 
Q 3303 2206 3303 1553 
Q 3303 931 2941 478 
Q 2500 -78 1738 -78 
Q 1113 -78 717 272 
Q 322 622 266 1200 
z
" transform="scale(0.015625)"/>
       </defs>
       <use xlink:href="#ArialMT-35"/>
       <use xlink:href="#ArialMT-3a" transform="translate(55.615234 0)"/>
       <use xlink:href="#ArialMT-30" transform="translate(83.398438 0)"/>
       <use xlink:href="#ArialMT-30" transform="translate(139.013672 0)"/>
      </g>
     </g>
    </g>
    <g id="xtick_6">
     <g id="line2d_47">
      <g>
       <use xlink:href="#m0581cf6cf3" x="242.081875" y="257.76" style="stroke: #000000"/>
      </g>
     </g>
     <g id="text_6">
      <!-- 6:00 -->
      <g transform="translate(245.184063 289.613125) rotate(-90) scale(0.12 -0.12)">
       <defs>
        <path id="ArialMT-36" d="M 3184 3459 
L 2625 3416 
Q 2550 3747 2413 3897 
Q 2184 4138 1850 4138 
Q 1581 4138 1378 3988 
Q 1113 3794 959 3422 
Q 806 3050 800 2363 
Q 1003 2672 1297 2822 
Q 1591 2972 1913 2972 
Q 2475 2972 2870 2558 
Q 3266 2144 3266 1488 
Q 3266 1056 3080 686 
Q 2894 316 2569 119 
Q 2244 -78 1831 -78 
Q 1128 -78 684 439 
Q 241 956 241 2144 
Q 241 3472 731 4075 
Q 1159 4600 1884 4600 
Q 2425 4600 2770 4297 
Q 3116 3994 3184 3459 
z
M 888 1484 
Q 888 1194 1011 928 
Q 1134 663 1356 523 
Q 1578 384 1822 384 
Q 2178 384 2434 671 
Q 2691 959 2691 1453 
Q 2691 1928 2437 2201 
Q 2184 2475 1800 2475 
Q 1419 2475 1153 2201 
Q 888 1928 888 1484 
z
" transform="scale(0.015625)"/>
       </defs>
       <use xlink:href="#ArialMT-36"/>
       <use xlink:href="#ArialMT-3a" transform="translate(55.615234 0)"/>
       <use xlink:href="#ArialMT-30" transform="translate(83.398438 0)"/>
       <use xlink:href="#ArialMT-30" transform="translate(139.013672 0)"/>
      </g>
     </g>
    </g>
    <g id="xtick_7">
     <g id="line2d_48">
      <g>
       <use xlink:href="#m0581cf6cf3" x="269.981875" y="257.76" style="stroke: #000000"/>
      </g>
     </g>
     <g id="text_7">
      <!-- 7:00 -->
      <g transform="translate(273.084063 289.613125) rotate(-90) scale(0.12 -0.12)">
       <defs>
        <path id="ArialMT-37" d="M 303 3981 
L 303 4522 
L 3269 4522 
L 3269 4084 
Q 2831 3619 2401 2847 
Q 1972 2075 1738 1259 
Q 1569 684 1522 0 
L 944 0 
Q 953 541 1156 1306 
Q 1359 2072 1739 2783 
Q 2119 3494 2547 3981 
L 303 3981 
z
" transform="scale(0.015625)"/>
       </defs>
       <use xlink:href="#ArialMT-37"/>
       <use xlink:href="#ArialMT-3a" transform="translate(55.615234 0)"/>
       <use xlink:href="#ArialMT-30" transform="translate(83.398438 0)"/>
       <use xlink:href="#ArialMT-30" transform="translate(139.013672 0)"/>
      </g>
     </g>
    </g>
    <g id="xtick_8">
     <g id="line2d_49">
      <g>
       <use xlink:href="#m0581cf6cf3" x="297.881875" y="257.76" style="stroke: #000000"/>
      </g>
     </g>
     <g id="text_8">
      <!-- 8:00 -->
      <g transform="translate(300.984062 289.613125) rotate(-90) scale(0.12 -0.12)">
       <defs>
        <path id="ArialMT-38" d="M 1131 2484 
Q 781 2613 612 2850 
Q 444 3088 444 3419 
Q 444 3919 803 4259 
Q 1163 4600 1759 4600 
Q 2359 4600 2725 4251 
Q 3091 3903 3091 3403 
Q 3091 3084 2923 2848 
Q 2756 2613 2416 2484 
Q 2838 2347 3058 2040 
Q 3278 1734 3278 1309 
Q 3278 722 2862 322 
Q 2447 -78 1769 -78 
Q 1091 -78 675 323 
Q 259 725 259 1325 
Q 259 1772 486 2073 
Q 713 2375 1131 2484 
z
M 1019 3438 
Q 1019 3113 1228 2906 
Q 1438 2700 1772 2700 
Q 2097 2700 2305 2904 
Q 2513 3109 2513 3406 
Q 2513 3716 2298 3927 
Q 2084 4138 1766 4138 
Q 1444 4138 1231 3931 
Q 1019 3725 1019 3438 
z
M 838 1322 
Q 838 1081 952 856 
Q 1066 631 1291 507 
Q 1516 384 1775 384 
Q 2178 384 2440 643 
Q 2703 903 2703 1303 
Q 2703 1709 2433 1975 
Q 2163 2241 1756 2241 
Q 1359 2241 1098 1978 
Q 838 1716 838 1322 
z
" transform="scale(0.015625)"/>
       </defs>
       <use xlink:href="#ArialMT-38"/>
       <use xlink:href="#ArialMT-3a" transform="translate(55.615234 0)"/>
       <use xlink:href="#ArialMT-30" transform="translate(83.398438 0)"/>
       <use xlink:href="#ArialMT-30" transform="translate(139.013672 0)"/>
      </g>
     </g>
    </g>
    <g id="xtick_9">
     <g id="line2d_50">
      <g>
       <use xlink:href="#m0581cf6cf3" x="325.781875" y="257.76" style="stroke: #000000"/>
      </g>
     </g>
     <g id="text_9">
      <!-- 9:00 -->
      <g transform="translate(328.884063 289.613125) rotate(-90) scale(0.12 -0.12)">
       <defs>
        <path id="ArialMT-39" d="M 350 1059 
L 891 1109 
Q 959 728 1153 556 
Q 1347 384 1650 384 
Q 1909 384 2104 503 
Q 2300 622 2425 820 
Q 2550 1019 2634 1356 
Q 2719 1694 2719 2044 
Q 2719 2081 2716 2156 
Q 2547 1888 2255 1720 
Q 1963 1553 1622 1553 
Q 1053 1553 659 1965 
Q 266 2378 266 3053 
Q 266 3750 677 4175 
Q 1088 4600 1706 4600 
Q 2153 4600 2523 4359 
Q 2894 4119 3086 3673 
Q 3278 3228 3278 2384 
Q 3278 1506 3087 986 
Q 2897 466 2520 194 
Q 2144 -78 1638 -78 
Q 1100 -78 759 220 
Q 419 519 350 1059 
z
M 2653 3081 
Q 2653 3566 2395 3850 
Q 2138 4134 1775 4134 
Q 1400 4134 1122 3828 
Q 844 3522 844 3034 
Q 844 2597 1108 2323 
Q 1372 2050 1759 2050 
Q 2150 2050 2401 2323 
Q 2653 2597 2653 3081 
z
" transform="scale(0.015625)"/>
       </defs>
       <use xlink:href="#ArialMT-39"/>
       <use xlink:href="#ArialMT-3a" transform="translate(55.615234 0)"/>
       <use xlink:href="#ArialMT-30" transform="translate(83.398438 0)"/>
       <use xlink:href="#ArialMT-30" transform="translate(139.013672 0)"/>
      </g>
     </g>
    </g>
    <g id="xtick_10">
     <g id="line2d_51">
      <g>
       <use xlink:href="#m0581cf6cf3" x="353.681875" y="257.76" style="stroke: #000000"/>
      </g>
     </g>
     <g id="text_10">
      <!-- 10:00 -->
      <g transform="translate(356.784063 296.28625) rotate(-90) scale(0.12 -0.12)">
       <use xlink:href="#ArialMT-31"/>
       <use xlink:href="#ArialMT-30" transform="translate(55.615234 0)"/>
       <use xlink:href="#ArialMT-3a" transform="translate(111.230469 0)"/>
       <use xlink:href="#ArialMT-30" transform="translate(139.013672 0)"/>
       <use xlink:href="#ArialMT-30" transform="translate(194.628906 0)"/>
      </g>
     </g>
    </g>
    <g id="xtick_11">
     <g id="line2d_52">
      <g>
       <use xlink:href="#m0581cf6cf3" x="381.581875" y="257.76" style="stroke: #000000"/>
      </g>
     </g>
     <g id="text_11">
      <!-- 11:00 -->
      <g transform="translate(384.684063 295.40125) rotate(-90) scale(0.12 -0.12)">
       <use xlink:href="#ArialMT-31"/>
       <use xlink:href="#ArialMT-31" transform="translate(48.240234 0)"/>
       <use xlink:href="#ArialMT-3a" transform="translate(103.855469 0)"/>
       <use xlink:href="#ArialMT-30" transform="translate(131.638672 0)"/>
       <use xlink:href="#ArialMT-30" transform="translate(187.253906 0)"/>
      </g>
     </g>
    </g>
    <g id="xtick_12">
     <g id="line2d_53">
      <g>
       <use xlink:href="#m0581cf6cf3" x="409.481875" y="257.76" style="stroke: #000000"/>
      </g>
     </g>
     <g id="text_12">
      <!-- 12:00 -->
      <g transform="translate(412.584063 296.28625) rotate(-90) scale(0.12 -0.12)">
       <use xlink:href="#ArialMT-31"/>
       <use xlink:href="#ArialMT-32" transform="translate(55.615234 0)"/>
       <use xlink:href="#ArialMT-3a" transform="translate(111.230469 0)"/>
       <use xlink:href="#ArialMT-30" transform="translate(139.013672 0)"/>
       <use xlink:href="#ArialMT-30" transform="translate(194.628906 0)"/>
      </g>
     </g>
    </g>
    <g id="xtick_13">
     <g id="line2d_54">
      <g>
       <use xlink:href="#m0581cf6cf3" x="437.381875" y="257.76" style="stroke: #000000"/>
      </g>
     </g>
     <g id="text_13">
      <!-- 13:00 -->
      <g transform="translate(440.484062 296.28625) rotate(-90) scale(0.12 -0.12)">
       <use xlink:href="#ArialMT-31"/>
       <use xlink:href="#ArialMT-33" transform="translate(55.615234 0)"/>
       <use xlink:href="#ArialMT-3a" transform="translate(111.230469 0)"/>
       <use xlink:href="#ArialMT-30" transform="translate(139.013672 0)"/>
       <use xlink:href="#ArialMT-30" transform="translate(194.628906 0)"/>
      </g>
     </g>
    </g>
    <g id="xtick_14">
     <g id="line2d_55">
      <g>
       <use xlink:href="#m0581cf6cf3" x="465.281875" y="257.76" style="stroke: #000000"/>
      </g>
     </g>
     <g id="text_14">
      <!-- 14:00 -->
      <g transform="translate(468.384063 296.28625) rotate(-90) scale(0.12 -0.12)">
       <use xlink:href="#ArialMT-31"/>
       <use xlink:href="#ArialMT-34" transform="translate(55.615234 0)"/>
       <use xlink:href="#ArialMT-3a" transform="translate(111.230469 0)"/>
       <use xlink:href="#ArialMT-30" transform="translate(139.013672 0)"/>
       <use xlink:href="#ArialMT-30" transform="translate(194.628906 0)"/>
      </g>
     </g>
    </g>
    <g id="xtick_15">
     <g id="line2d_56">
      <g>
       <use xlink:href="#m0581cf6cf3" x="493.181875" y="257.76" style="stroke: #000000"/>
      </g>
     </g>
     <g id="text_15">
      <!-- 15:00 -->
      <g transform="translate(496.284063 296.28625) rotate(-90) scale(0.12 -0.12)">
       <use xlink:href="#ArialMT-31"/>
       <use xlink:href="#ArialMT-35" transform="translate(55.615234 0)"/>
       <use xlink:href="#ArialMT-3a" transform="translate(111.230469 0)"/>
       <use xlink:href="#ArialMT-30" transform="translate(139.013672 0)"/>
       <use xlink:href="#ArialMT-30" transform="translate(194.628906 0)"/>
      </g>
     </g>
    </g>
    <g id="xtick_16">
     <g id="line2d_57">
      <g>
       <use xlink:href="#m0581cf6cf3" x="521.081875" y="257.76" style="stroke: #000000"/>
      </g>
     </g>
     <g id="text_16">
      <!-- 16:00 -->
      <g transform="translate(524.184062 296.28625) rotate(-90) scale(0.12 -0.12)">
       <use xlink:href="#ArialMT-31"/>
       <use xlink:href="#ArialMT-36" transform="translate(55.615234 0)"/>
       <use xlink:href="#ArialMT-3a" transform="translate(111.230469 0)"/>
       <use xlink:href="#ArialMT-30" transform="translate(139.013672 0)"/>
       <use xlink:href="#ArialMT-30" transform="translate(194.628906 0)"/>
      </g>
     </g>
    </g>
    <g id="xtick_17">
     <g id="line2d_58">
      <g>
       <use xlink:href="#m0581cf6cf3" x="548.981875" y="257.76" style="stroke: #000000"/>
      </g>
     </g>
     <g id="text_17">
      <!-- 17:00 -->
      <g transform="translate(552.084062 296.28625) rotate(-90) scale(0.12 -0.12)">
       <use xlink:href="#ArialMT-31"/>
       <use xlink:href="#ArialMT-37" transform="translate(55.615234 0)"/>
       <use xlink:href="#ArialMT-3a" transform="translate(111.230469 0)"/>
       <use xlink:href="#ArialMT-30" transform="translate(139.013672 0)"/>
       <use xlink:href="#ArialMT-30" transform="translate(194.628906 0)"/>
      </g>
     </g>
    </g>
    <g id="xtick_18">
     <g id="line2d_59">
      <g>
       <use xlink:href="#m0581cf6cf3" x="576.881875" y="257.76" style="stroke: #000000"/>
      </g>
     </g>
     <g id="text_18">
      <!-- 18:00 -->
      <g transform="translate(579.984062 296.28625) rotate(-90) scale(0.12 -0.12)">
       <use xlink:href="#ArialMT-31"/>
       <use xlink:href="#ArialMT-38" transform="translate(55.615234 0)"/>
       <use xlink:href="#ArialMT-3a" transform="translate(111.230469 0)"/>
       <use xlink:href="#ArialMT-30" transform="translate(139.013672 0)"/>
       <use xlink:href="#ArialMT-30" transform="translate(194.628906 0)"/>
      </g>
     </g>
    </g>
    <g id="xtick_19">
     <g id="line2d_60">
      <g>
       <use xlink:href="#m0581cf6cf3" x="604.781875" y="257.76" style="stroke: #000000"/>
      </g>
     </g>
     <g id="text_19">
      <!-- 19:00 -->
      <g transform="translate(607.884063 296.28625) rotate(-90) scale(0.12 -0.12)">
       <use xlink:href="#ArialMT-31"/>
       <use xlink:href="#ArialMT-39" transform="translate(55.615234 0)"/>
       <use xlink:href="#ArialMT-3a" transform="translate(111.230469 0)"/>
       <use xlink:href="#ArialMT-30" transform="translate(139.013672 0)"/>
       <use xlink:href="#ArialMT-30" transform="translate(194.628906 0)"/>
      </g>
     </g>
    </g>
    <g id="xtick_20">
     <g id="line2d_61">
      <g>
       <use xlink:href="#m0581cf6cf3" x="632.681875" y="257.76" style="stroke: #000000"/>
      </g>
     </g>
     <g id="text_20">
      <!-- 20:00 -->
      <g transform="translate(635.784063 296.28625) rotate(-90) scale(0.12 -0.12)">
       <use xlink:href="#ArialMT-32"/>
       <use xlink:href="#ArialMT-30" transform="translate(55.615234 0)"/>
       <use xlink:href="#ArialMT-3a" transform="translate(111.230469 0)"/>
       <use xlink:href="#ArialMT-30" transform="translate(139.013672 0)"/>
       <use xlink:href="#ArialMT-30" transform="translate(194.628906 0)"/>
      </g>
     </g>
    </g>
    <g id="xtick_21">
     <g id="line2d_62">
      <g>
       <use xlink:href="#m0581cf6cf3" x="660.581875" y="257.76" style="stroke: #000000"/>
      </g>
     </g>
     <g id="text_21">
      <!-- 21:00 -->
      <g transform="translate(663.684062 296.28625) rotate(-90) scale(0.12 -0.12)">
       <use xlink:href="#ArialMT-32"/>
       <use xlink:href="#ArialMT-31" transform="translate(55.615234 0)"/>
       <use xlink:href="#ArialMT-3a" transform="translate(111.230469 0)"/>
       <use xlink:href="#ArialMT-30" transform="translate(139.013672 0)"/>
       <use xlink:href="#ArialMT-30" transform="translate(194.628906 0)"/>
      </g>
     </g>
    </g>
    <g id="xtick_22">
     <g id="line2d_63">
      <g>
       <use xlink:href="#m0581cf6cf3" x="688.481875" y="257.76" style="stroke: #000000"/>
      </g>
     </g>
     <g id="text_22">
      <!-- 22:00 -->
      <g transform="translate(691.584062 296.28625) rotate(-90) scale(0.12 -0.12)">
       <use xlink:href="#ArialMT-32"/>
       <use xlink:href="#ArialMT-32" transform="translate(55.615234 0)"/>
       <use xlink:href="#ArialMT-3a" transform="translate(111.230469 0)"/>
       <use xlink:href="#ArialMT-30" transform="translate(139.013672 0)"/>
       <use xlink:href="#ArialMT-30" transform="translate(194.628906 0)"/>
      </g>
     </g>
    </g>
    <g id="xtick_23">
     <g id="line2d_64">
      <g>
       <use xlink:href="#m0581cf6cf3" x="716.381875" y="257.76" style="stroke: #000000"/>
      </g>
     </g>
     <g id="text_23">
      <!-- 23:00 -->
      <g transform="translate(719.484062 296.28625) rotate(-90) scale(0.12 -0.12)">
       <use xlink:href="#ArialMT-32"/>
       <use xlink:href="#ArialMT-33" transform="translate(55.615234 0)"/>
       <use xlink:href="#ArialMT-3a" transform="translate(111.230469 0)"/>
       <use xlink:href="#ArialMT-30" transform="translate(139.013672 0)"/>
       <use xlink:href="#ArialMT-30" transform="translate(194.628906 0)"/>
      </g>
     </g>
    </g>
    <g id="xtick_24">
     <g id="line2d_65">
      <g>
       <use xlink:href="#m0581cf6cf3" x="744.281875" y="257.76" style="stroke: #000000"/>
      </g>
     </g>
     <g id="text_24">
      <!-- 24:00 -->
      <g transform="translate(747.384062 296.28625) rotate(-90) scale(0.12 -0.12)">
       <use xlink:href="#ArialMT-32"/>
       <use xlink:href="#ArialMT-34" transform="translate(55.615234 0)"/>
       <use xlink:href="#ArialMT-3a" transform="translate(111.230469 0)"/>
       <use xlink:href="#ArialMT-30" transform="translate(139.013672 0)"/>
       <use xlink:href="#ArialMT-30" transform="translate(194.628906 0)"/>
      </g>
     </g>
    </g>
   </g>
   <g id="matplotlib.axis_2">
    <g id="ytick_1">
     <g id="line2d_66">
      <defs>
       <path id="m04897cfc8e" d="M 0 0 
L -5 0 
" style="stroke: #000000; stroke-opacity: 0; stroke-width: 1.5"/>
      </defs>
      <g>
       <use xlink:href="#m04897cfc8e" x="88.631875" y="245.44" style="fill-opacity: 0; stroke: #000000; stroke-opacity: 0; stroke-width: 1.5"/>
      </g>
     </g>
     <g id="text_25">
      <!-- 0.0 -->
      <g transform="translate(57.891875 251.16625) scale(0.16 -0.16)">
       <defs>
        <path id="ArialMT-2e" d="M 581 0 
L 581 641 
L 1222 641 
L 1222 0 
L 581 0 
z
" transform="scale(0.015625)"/>
       </defs>
       <use xlink:href="#ArialMT-30"/>
       <use xlink:href="#ArialMT-2e" transform="translate(55.615234 0)"/>
       <use xlink:href="#ArialMT-30" transform="translate(83.398438 0)"/>
      </g>
     </g>
    </g>
    <g id="ytick_2">
     <g id="line2d_67">
      <g>
       <use xlink:href="#m04897cfc8e" x="88.631875" y="196.16" style="fill-opacity: 0; stroke: #000000; stroke-opacity: 0; stroke-width: 1.5"/>
      </g>
     </g>
     <g id="text_26">
      <!-- 0.2 -->
      <g transform="translate(57.891875 201.88625) scale(0.16 -0.16)">
       <use xlink:href="#ArialMT-30"/>
       <use xlink:href="#ArialMT-2e" transform="translate(55.615234 0)"/>
       <use xlink:href="#ArialMT-32" transform="translate(83.398438 0)"/>
      </g>
     </g>
    </g>
    <g id="ytick_3">
     <g id="line2d_68">
      <g>
       <use xlink:href="#m04897cfc8e" x="88.631875" y="146.88" style="fill-opacity: 0; stroke: #000000; stroke-opacity: 0; stroke-width: 1.5"/>
      </g>
     </g>
     <g id="text_27">
      <!-- 0.4 -->
      <g transform="translate(57.891875 152.60625) scale(0.16 -0.16)">
       <use xlink:href="#ArialMT-30"/>
       <use xlink:href="#ArialMT-2e" transform="translate(55.615234 0)"/>
       <use xlink:href="#ArialMT-34" transform="translate(83.398438 0)"/>
      </g>
     </g>
    </g>
    <g id="ytick_4">
     <g id="line2d_69">
      <g>
       <use xlink:href="#m04897cfc8e" x="88.631875" y="97.6" style="fill-opacity: 0; stroke: #000000; stroke-opacity: 0; stroke-width: 1.5"/>
      </g>
     </g>
     <g id="text_28">
      <!-- 0.6 -->
      <g transform="translate(57.891875 103.32625) scale(0.16 -0.16)">
       <use xlink:href="#ArialMT-30"/>
       <use xlink:href="#ArialMT-2e" transform="translate(55.615234 0)"/>
       <use xlink:href="#ArialMT-36" transform="translate(83.398438 0)"/>
      </g>
     </g>
    </g>
    <g id="ytick_5">
     <g id="line2d_70">
      <g>
       <use xlink:href="#m04897cfc8e" x="88.631875" y="48.32" style="fill-opacity: 0; stroke: #000000; stroke-opacity: 0; stroke-width: 1.5"/>
      </g>
     </g>
     <g id="text_29">
      <!-- 0.8 -->
      <g transform="translate(57.891875 54.04625) scale(0.16 -0.16)">
       <use xlink:href="#ArialMT-30"/>
       <use xlink:href="#ArialMT-2e" transform="translate(55.615234 0)"/>
       <use xlink:href="#ArialMT-38" transform="translate(83.398438 0)"/>
      </g>
     </g>
    </g>
    <g id="text_30">
     <!-- CNG (GGE) -->
     <g transform="translate(49.103437 195.377344) rotate(-90) scale(0.18 -0.18)">
      <defs>
       <path id="ArialMT-43" d="M 3763 1606 
L 4369 1453 
Q 4178 706 3683 314 
Q 3188 -78 2472 -78 
Q 1731 -78 1267 223 
Q 803 525 561 1097 
Q 319 1669 319 2325 
Q 319 3041 592 3573 
Q 866 4106 1370 4382 
Q 1875 4659 2481 4659 
Q 3169 4659 3637 4309 
Q 4106 3959 4291 3325 
L 3694 3184 
Q 3534 3684 3231 3912 
Q 2928 4141 2469 4141 
Q 1941 4141 1586 3887 
Q 1231 3634 1087 3207 
Q 944 2781 944 2328 
Q 944 1744 1114 1308 
Q 1284 872 1643 656 
Q 2003 441 2422 441 
Q 2931 441 3284 734 
Q 3638 1028 3763 1606 
z
" transform="scale(0.015625)"/>
       <path id="ArialMT-4e" d="M 488 0 
L 488 4581 
L 1109 4581 
L 3516 984 
L 3516 4581 
L 4097 4581 
L 4097 0 
L 3475 0 
L 1069 3600 
L 1069 0 
L 488 0 
z
" transform="scale(0.015625)"/>
       <path id="ArialMT-47" d="M 2638 1797 
L 2638 2334 
L 4578 2338 
L 4578 638 
Q 4131 281 3656 101 
Q 3181 -78 2681 -78 
Q 2006 -78 1454 211 
Q 903 500 622 1047 
Q 341 1594 341 2269 
Q 341 2938 620 3517 
Q 900 4097 1425 4378 
Q 1950 4659 2634 4659 
Q 3131 4659 3532 4498 
Q 3934 4338 4162 4050 
Q 4391 3763 4509 3300 
L 3963 3150 
Q 3859 3500 3706 3700 
Q 3553 3900 3268 4020 
Q 2984 4141 2638 4141 
Q 2222 4141 1919 4014 
Q 1616 3888 1430 3681 
Q 1244 3475 1141 3228 
Q 966 2803 966 2306 
Q 966 1694 1177 1281 
Q 1388 869 1791 669 
Q 2194 469 2647 469 
Q 3041 469 3416 620 
Q 3791 772 3984 944 
L 3984 1797 
L 2638 1797 
z
" transform="scale(0.015625)"/>
       <path id="ArialMT-20" transform="scale(0.015625)"/>
       <path id="ArialMT-28" d="M 1497 -1347 
Q 1031 -759 709 28 
Q 388 816 388 1659 
Q 388 2403 628 3084 
Q 909 3875 1497 4659 
L 1900 4659 
Q 1522 4009 1400 3731 
Q 1209 3300 1100 2831 
Q 966 2247 966 1656 
Q 966 153 1900 -1347 
L 1497 -1347 
z
" transform="scale(0.015625)"/>
       <path id="ArialMT-45" d="M 506 0 
L 506 4581 
L 3819 4581 
L 3819 4041 
L 1113 4041 
L 1113 2638 
L 3647 2638 
L 3647 2100 
L 1113 2100 
L 1113 541 
L 3925 541 
L 3925 0 
L 506 0 
z
" transform="scale(0.015625)"/>
       <path id="ArialMT-29" d="M 791 -1347 
L 388 -1347 
Q 1322 153 1322 1656 
Q 1322 2244 1188 2822 
Q 1081 3291 891 3722 
Q 769 4003 388 4659 
L 791 4659 
Q 1378 3875 1659 3084 
Q 1900 2403 1900 1659 
Q 1900 816 1576 28 
Q 1253 -759 791 -1347 
z
" transform="scale(0.015625)"/>
      </defs>
      <use xlink:href="#ArialMT-43"/>
      <use xlink:href="#ArialMT-4e" transform="translate(72.216797 0)"/>
      <use xlink:href="#ArialMT-47" transform="translate(144.433594 0)"/>
      <use xlink:href="#ArialMT-20" transform="translate(222.216797 0)"/>
      <use xlink:href="#ArialMT-28" transform="translate(250 0)"/>
      <use xlink:href="#ArialMT-47" transform="translate(283.300781 0)"/>
      <use xlink:href="#ArialMT-47" transform="translate(361.083984 0)"/>
      <use xlink:href="#ArialMT-45" transform="translate(438.867188 0)"/>
      <use xlink:href="#ArialMT-29" transform="translate(505.566406 0)"/>
     </g>
    </g>
   </g>
   <g id="line2d_71">
    <path d="M 102.581875 177.058521 
L 130.481875 200.290158 
L 158.381875 208.232242 
L 186.281875 205.433809 
L 214.181875 178.946524 
L 242.081875 117.364045 
L 269.981875 112.221945 
L 297.881875 101.759132 
L 325.781875 99.374201 
L 353.681875 101.131699 
L 381.581875 98.675112 
L 409.481875 95.69626 
L 437.381875 92.63103 
L 465.281875 91.690606 
L 493.181875 94.276549 
L 521.081875 94.041069 
L 548.981875 91.450874 
L 576.881875 93.576579 
L 604.781875 97.557544 
L 632.681875 106.701875 
L 660.581875 112.161549 
L 688.481875 111.401754 
L 716.381875 113.407402 
L 744.281875 140.630671 
" clip-path="url(#pcbec21e3ac)" style="fill: none; stroke: #9edae5; stroke-opacity: 0.8; stroke-width: 1.5; stroke-linecap: round"/>
   </g>
   <g id="line2d_72">
    <path d="M 102.581875 238.463151 
L 130.481875 240.728806 
L 158.381875 241.701997 
L 186.281875 242.083546 
L 214.181875 239.613095 
L 242.081875 231.597839 
L 269.981875 216.489786 
L 297.881875 198.512179 
L 325.781875 193.694764 
L 353.681875 192.462036 
L 381.581875 191.205143 
L 409.481875 187.122606 
L 437.381875 174.917296 
L 465.281875 169.272575 
L 493.181875 160.332634 
L 521.081875 159.450196 
L 548.981875 159.903931 
L 576.881875 160.790864 
L 604.781875 191.973485 
L 632.681875 202.757148 
L 660.581875 211.772238 
L 688.481875 219.409401 
L 716.381875 226.247159 
L 744.281875 234.742691 
" clip-path="url(#pcbec21e3ac)" style="fill: none; stroke: #f7b6d2; stroke-opacity: 0.8; stroke-width: 1.5; stroke-linecap: round"/>
   </g>
   <g id="line2d_73">
    <path d="M 102.581875 237.650197 
L 130.481875 239.872064 
L 158.381875 240.610895 
L 186.281875 240.353428 
L 214.181875 237.387421 
L 242.081875 227.741735 
L 269.981875 214.207744 
L 297.881875 196.73955 
L 325.781875 190.566414 
L 353.681875 188.512984 
L 381.581875 186.786115 
L 409.481875 173.708666 
L 437.381875 164.467801 
L 465.281875 161.053952 
L 493.181875 157.413907 
L 521.081875 158.354152 
L 548.981875 158.054284 
L 576.881875 158.250962 
L 604.781875 192.249334 
L 632.681875 201.947758 
L 660.581875 210.535636 
L 688.481875 217.511957 
L 716.381875 224.486339 
L 744.281875 235.042796 
" clip-path="url(#pcbec21e3ac)" style="fill: none; stroke: #bcbd22; stroke-opacity: 0.8; stroke-width: 1.5; stroke-linecap: round"/>
   </g>
   <g id="line2d_74">
    <path d="M 102.581875 201.034018 
L 130.481875 216.761497 
L 158.381875 221.98623 
L 186.281875 219.089841 
L 214.181875 197.28872 
L 242.081875 147.643268 
L 269.981875 111.314073 
L 297.881875 108.438767 
L 325.781875 104.155356 
L 353.681875 106.957543 
L 381.581875 107.577598 
L 409.481875 106.604026 
L 437.381875 105.005072 
L 465.281875 104.279647 
L 493.181875 105.041832 
L 521.081875 105.674222 
L 548.981875 106.304455 
L 576.881875 106.223747 
L 604.781875 111.043198 
L 632.681875 117.014406 
L 660.581875 102.615219 
L 688.481875 118.420528 
L 716.381875 144.994962 
L 744.281875 175.36426 
" clip-path="url(#pcbec21e3ac)" style="fill: none; stroke: #9467bd; stroke-opacity: 0.8; stroke-width: 1.5; stroke-linecap: round"/>
   </g>
   <g id="line2d_75">
    <path d="M 102.581875 221.210041 
L 130.481875 229.882699 
L 158.381875 233.158121 
L 186.281875 233.261194 
L 214.181875 223.597423 
L 242.081875 198.083733 
L 269.981875 177.660285 
L 297.881875 162.160899 
L 325.781875 161.551881 
L 353.681875 162.714216 
L 381.581875 161.253007 
L 409.481875 159.807154 
L 437.381875 158.726343 
L 465.281875 158.426276 
L 493.181875 157.668002 
L 521.081875 154.609428 
L 548.981875 153.608981 
L 576.881875 156.337125 
L 604.781875 163.38586 
L 632.681875 168.141575 
L 660.581875 166.791468 
L 688.481875 176.453532 
L 716.381875 191.205819 
L 744.281875 207.584704 
" clip-path="url(#pcbec21e3ac)" style="fill: none; stroke: #c5b0d5; stroke-opacity: 0.8; stroke-width: 1.5; stroke-linecap: round"/>
   </g>
   <g id="line2d_76">
    <path d="M 102.581875 236.527943 
L 130.481875 239.955309 
L 158.381875 241.293039 
L 186.281875 242.17338 
L 214.181875 239.047912 
L 242.081875 229.001062 
L 269.981875 211.413353 
L 297.881875 192.683584 
L 325.781875 186.503779 
L 353.681875 185.74961 
L 381.581875 168.012216 
L 409.481875 160.286934 
L 437.381875 156.842867 
L 465.281875 157.820386 
L 493.181875 156.989168 
L 521.081875 156.718973 
L 548.981875 155.51168 
L 576.881875 154.405313 
L 604.781875 163.140172 
L 632.681875 192.318514 
L 660.581875 203.613956 
L 688.481875 212.953915 
L 716.381875 220.437829 
L 744.281875 230.642307 
" clip-path="url(#pcbec21e3ac)" style="fill: none; stroke: #8c564b; stroke-opacity: 0.8; stroke-width: 1.5; stroke-linecap: round"/>
   </g>
   <g id="line2d_77">
    <path d="M 102.581875 235.757447 
L 130.481875 239.883531 
L 158.381875 241.316784 
L 186.281875 242.333355 
L 214.181875 239.514821 
L 242.081875 230.297255 
L 269.981875 213.972507 
L 297.881875 195.287128 
L 325.781875 189.798099 
L 353.681875 188.392574 
L 381.581875 181.498796 
L 409.481875 172.9268 
L 437.381875 156.970721 
L 465.281875 156.754143 
L 493.181875 156.884759 
L 521.081875 159.531715 
L 548.981875 157.728474 
L 576.881875 156.257616 
L 604.781875 164.026334 
L 632.681875 192.653085 
L 660.581875 203.951343 
L 688.481875 211.752105 
L 716.381875 219.820256 
L 744.281875 229.28789 
" clip-path="url(#pcbec21e3ac)" style="fill: none; stroke: #7f7f7f; stroke-opacity: 0.8; stroke-width: 1.5; stroke-linecap: round"/>
   </g>
   <g id="line2d_78">
    <path d="M 102.581875 219.356351 
L 130.481875 228.614821 
L 158.381875 232.13879 
L 186.281875 232.993561 
L 214.181875 224.560801 
L 242.081875 201.942104 
L 269.981875 172.193631 
L 297.881875 147.372162 
L 325.781875 145.228114 
L 353.681875 151.94063 
L 381.581875 151.158455 
L 409.481875 146.397263 
L 437.381875 139.66658 
L 465.281875 136.186174 
L 493.181875 130.55448 
L 521.081875 125.88038 
L 548.981875 113.819376 
L 576.881875 123.428248 
L 604.781875 143.976485 
L 632.681875 143.240106 
L 660.581875 153.506815 
L 688.481875 166.464312 
L 716.381875 182.629084 
L 744.281875 203.35424 
" clip-path="url(#pcbec21e3ac)" style="fill: none; stroke: #9edae5; stroke-opacity: 0.8; stroke-width: 1.5; stroke-linecap: round"/>
   </g>
   <g id="line2d_79">
    <path d="M 102.581875 225.684162 
L 130.481875 232.869397 
L 158.381875 235.492854 
L 186.281875 236.087279 
L 214.181875 228.756249 
L 242.081875 209.032183 
L 269.981875 180.37132 
L 297.881875 159.302286 
L 325.781875 154.061397 
L 353.681875 153.584782 
L 381.581875 152.829661 
L 409.481875 151.270855 
L 437.381875 150.565679 
L 465.281875 150.336934 
L 493.181875 150.145443 
L 521.081875 150.988463 
L 548.981875 150.285962 
L 576.881875 148.884664 
L 604.781875 150.616532 
L 632.681875 158.10972 
L 660.581875 166.483278 
L 688.481875 177.469051 
L 716.381875 192.612386 
L 744.281875 213.470391 
" clip-path="url(#pcbec21e3ac)" style="fill: none; stroke: #c7c7c7; stroke-opacity: 0.8; stroke-width: 1.5; stroke-linecap: round"/>
   </g>
   <g id="line2d_80">
    <path d="M 102.581875 227.577833 
L 130.481875 234.106316 
L 158.381875 236.981288 
L 186.281875 239.359126 
L 214.181875 233.600207 
L 242.081875 218.591717 
L 269.981875 199.667691 
L 297.881875 181.863002 
L 325.781875 172.580545 
L 353.681875 171.170015 
L 381.581875 168.859847 
L 409.481875 163.836863 
L 437.381875 159.046735 
L 465.281875 156.715996 
L 493.181875 148.081686 
L 521.081875 136.445531 
L 548.981875 127.936984 
L 576.881875 127.712097 
L 604.781875 153.207942 
L 632.681875 173.182963 
L 660.581875 184.032752 
L 688.481875 193.294925 
L 716.381875 202.305826 
L 744.281875 217.671623 
" clip-path="url(#pcbec21e3ac)" style="fill: none; stroke: #c49c94; stroke-opacity: 0.8; stroke-width: 1.5; stroke-linecap: round"/>
   </g>
   <g id="line2d_81">
    <path d="M 102.581875 227.228172 
L 130.481875 233.759997 
L 158.381875 236.365514 
L 186.281875 238.124482 
L 214.181875 232.593094 
L 242.081875 216.891517 
L 269.981875 196.455808 
L 297.881875 177.569174 
L 325.781875 166.534877 
L 353.681875 164.034933 
L 381.581875 157.244044 
L 409.481875 137.113831 
L 437.381875 127.089255 
L 465.281875 123.685773 
L 493.181875 121.121339 
L 521.081875 121.454247 
L 548.981875 120.591353 
L 576.881875 122.69123 
L 604.781875 140.570662 
L 632.681875 166.758558 
L 660.581875 182.337029 
L 688.481875 191.669187 
L 716.381875 201.407188 
L 744.281875 217.292955 
" clip-path="url(#pcbec21e3ac)" style="fill: none; stroke: #1f77b4; stroke-opacity: 0.8; stroke-width: 1.5; stroke-linecap: round"/>
   </g>
   <g id="line2d_82">
    <path d="M 102.581875 236.868919 
L 130.481875 239.98008 
L 158.381875 241.448103 
L 186.281875 242.118808 
L 214.181875 238.602128 
L 242.081875 229.371289 
L 269.981875 214.477334 
L 297.881875 196.346866 
L 325.781875 189.951055 
L 353.681875 187.737173 
L 381.581875 185.683904 
L 409.481875 178.448075 
L 437.381875 165.045017 
L 465.281875 157.185196 
L 493.181875 148.813632 
L 521.081875 145.874391 
L 548.981875 143.847941 
L 576.881875 145.145405 
L 604.781875 173.330298 
L 632.681875 193.635563 
L 660.581875 205.38896 
L 688.481875 213.685859 
L 716.381875 221.090867 
L 744.281875 231.458438 
" clip-path="url(#pcbec21e3ac)" style="fill: none; stroke: #aec7e8; stroke-opacity: 0.8; stroke-width: 1.5; stroke-linecap: round"/>
   </g>
   <g id="line2d_83">
    <path d="M 102.581875 238.358661 
L 130.481875 240.958703 
L 158.381875 242.196812 
L 186.281875 242.912339 
L 214.181875 240.504794 
L 242.081875 231.06146 
L 269.981875 216.114091 
L 297.881875 193.136093 
L 325.781875 184.922863 
L 353.681875 182.437423 
L 381.581875 183.391471 
L 409.481875 180.953477 
L 437.381875 178.934271 
L 465.281875 180.481204 
L 493.181875 176.302646 
L 521.081875 171.021095 
L 548.981875 169.585402 
L 576.881875 170.49085 
L 604.781875 179.099526 
L 632.681875 189.193469 
L 660.581875 206.26791 
L 688.481875 216.773253 
L 716.381875 225.08656 
L 744.281875 232.757424 
" clip-path="url(#pcbec21e3ac)" style="fill: none; stroke: #1f77b4; stroke-opacity: 0.8; stroke-width: 1.5; stroke-linecap: round"/>
   </g>
   <g id="line2d_84">
    <path d="M 102.581875 233.331196 
L 130.481875 237.413923 
L 158.381875 239.450345 
L 186.281875 240.851869 
L 214.181875 237.211789 
L 242.081875 225.056372 
L 269.981875 206.138686 
L 297.881875 178.318828 
L 325.781875 168.441434 
L 353.681875 167.378086 
L 381.581875 168.65581 
L 409.481875 163.313268 
L 437.381875 156.998246 
L 465.281875 156.085936 
L 493.181875 132.101561 
L 521.081875 118.862991 
L 548.981875 109.104574 
L 576.881875 109.80817 
L 604.781875 147.818757 
L 632.681875 167.934882 
L 660.581875 187.964411 
L 688.481875 203.464743 
L 716.381875 213.831308 
L 744.281875 225.034706 
" clip-path="url(#pcbec21e3ac)" style="fill: none; stroke: #e377c2; stroke-opacity: 0.8; stroke-width: 1.5; stroke-linecap: round"/>
   </g>
   <g id="line2d_85">
    <path d="M 102.581875 237.298496 
L 130.481875 239.547573 
L 158.381875 240.194871 
L 186.281875 240.666562 
L 214.181875 238.37241 
L 242.081875 229.95107 
L 269.981875 216.391599 
L 297.881875 197.127521 
L 325.781875 189.522303 
L 353.681875 187.20007 
L 381.581875 187.354282 
L 409.481875 184.700231 
L 437.381875 182.367705 
L 465.281875 181.835451 
L 493.181875 177.333843 
L 521.081875 171.529967 
L 548.981875 156.997899 
L 576.881875 155.638687 
L 604.781875 187.092713 
L 632.681875 195.361155 
L 660.581875 204.741654 
L 688.481875 213.121379 
L 716.381875 221.288607 
L 744.281875 233.646983 
" clip-path="url(#pcbec21e3ac)" style="fill: none; stroke: #ff7f0e; stroke-opacity: 0.8; stroke-width: 1.5; stroke-linecap: round"/>
   </g>
   <g id="line2d_86">
    <path d="M 102.581875 239.409349 
L 130.481875 241.754498 
L 158.381875 242.783438 
L 186.281875 243.356853 
L 214.181875 241.070872 
L 242.081875 232.527533 
L 269.981875 216.8845 
L 297.881875 196.81209 
L 325.781875 190.972492 
L 353.681875 189.358553 
L 381.581875 188.657148 
L 409.481875 187.859655 
L 437.381875 186.000539 
L 465.281875 185.409632 
L 493.181875 180.859343 
L 521.081875 176.707919 
L 548.981875 161.564312 
L 576.881875 159.225624 
L 604.781875 186.750974 
L 632.681875 197.792659 
L 660.581875 210.086069 
L 688.481875 218.929594 
L 716.381875 226.409474 
L 744.281875 234.437549 
" clip-path="url(#pcbec21e3ac)" style="fill: none; stroke: #98df8a; stroke-opacity: 0.8; stroke-width: 1.5; stroke-linecap: round"/>
   </g>
   <g id="line2d_87">
    <path d="M 102.581875 232.885414 
L 130.481875 237.083844 
L 158.381875 239.393581 
L 186.281875 240.725632 
L 214.181875 236.98762 
L 242.081875 224.064624 
L 269.981875 202.825085 
L 297.881875 174.480761 
L 325.781875 162.161034 
L 353.681875 159.226471 
L 381.581875 162.78878 
L 409.481875 158.163712 
L 437.381875 154.833954 
L 465.281875 158.53062 
L 493.181875 147.484844 
L 521.081875 141.389288 
L 548.981875 125.722761 
L 576.881875 113.845545 
L 604.781875 156.859741 
L 632.681875 162.395175 
L 660.581875 185.80979 
L 688.481875 201.887808 
L 716.381875 212.64288 
L 744.281875 224.166221 
" clip-path="url(#pcbec21e3ac)" style="fill: none; stroke: #d62728; stroke-opacity: 0.8; stroke-width: 1.5; stroke-linecap: round"/>
   </g>
   <g id="line2d_88">
    <path d="M 102.581875 174.933512 
L 130.481875 198.463891 
L 158.381875 206.600613 
L 186.281875 207.476089 
L 214.181875 183.394881 
L 242.081875 138.090862 
L 269.981875 87.496884 
L 297.881875 64.047596 
L 325.781875 58.780434 
L 353.681875 57.084862 
L 381.581875 55.413801 
L 409.481875 54.549094 
L 437.381875 53.057557 
L 465.281875 53.792594 
L 493.181875 52.708771 
L 521.081875 52.166899 
L 548.981875 55.894936 
L 576.881875 58.440655 
L 604.781875 54.632641 
L 632.681875 55.127493 
L 660.581875 70.069313 
L 688.481875 84.636567 
L 716.381875 111.746861 
L 744.281875 149.608054 
" clip-path="url(#pcbec21e3ac)" style="fill: none; stroke: #ffbb78; stroke-opacity: 0.8; stroke-width: 1.5; stroke-linecap: round"/>
   </g>
   <g id="line2d_89">
    <path d="M 102.581875 176.127716 
L 130.481875 201.081955 
L 158.381875 208.535765 
L 186.281875 209.487097 
L 214.181875 184.069831 
L 242.081875 134.105028 
L 269.981875 82.993014 
L 297.881875 71.470583 
L 325.781875 66.574554 
L 353.681875 65.009592 
L 381.581875 63.706977 
L 409.481875 64.545375 
L 437.381875 64.109474 
L 465.281875 64.662263 
L 493.181875 65.487419 
L 521.081875 66.634827 
L 548.981875 68.2399 
L 576.881875 70.241144 
L 604.781875 69.557576 
L 632.681875 87.227014 
L 660.581875 71.375327 
L 688.481875 82.442028 
L 716.381875 107.385689 
L 744.281875 144.204168 
" clip-path="url(#pcbec21e3ac)" style="fill: none; stroke: #2ca02c; stroke-opacity: 0.8; stroke-width: 1.5; stroke-linecap: round"/>
   </g>
   <g id="line2d_90">
    <path d="M 102.581875 204.408893 
L 130.481875 218.281812 
L 158.381875 223.405496 
L 186.281875 222.461022 
L 214.181875 204.509764 
L 242.081875 164.477868 
L 269.981875 133.35723 
L 297.881875 115.683549 
L 325.781875 112.328714 
L 353.681875 112.277962 
L 381.581875 112.577262 
L 409.481875 110.996825 
L 437.381875 109.881482 
L 465.281875 110.783921 
L 493.181875 110.024823 
L 521.081875 111.917107 
L 548.981875 112.106352 
L 576.881875 111.613196 
L 604.781875 115.732683 
L 632.681875 120.135222 
L 660.581875 124.715193 
L 688.481875 139.184411 
L 716.381875 158.972743 
L 744.281875 186.372052 
" clip-path="url(#pcbec21e3ac)" style="fill: none; stroke: #dbdb8d; stroke-opacity: 0.8; stroke-width: 1.5; stroke-linecap: round"/>
   </g>
   <g id="line2d_91">
    <path d="M 102.581875 225.564856 
L 130.481875 232.760097 
L 158.381875 234.807557 
L 186.281875 234.206004 
L 214.181875 224.143611 
L 242.081875 201.135628 
L 269.981875 174.869193 
L 297.881875 150.108859 
L 325.781875 152.115141 
L 353.681875 156.686544 
L 381.581875 155.873075 
L 409.481875 152.929328 
L 437.381875 149.538353 
L 465.281875 147.641556 
L 493.181875 143.398649 
L 521.081875 138.980853 
L 548.981875 137.905093 
L 576.881875 146.218655 
L 604.781875 159.833543 
L 632.681875 154.710615 
L 660.581875 171.416687 
L 688.481875 184.055372 
L 716.381875 198.596006 
L 744.281875 215.512041 
" clip-path="url(#pcbec21e3ac)" style="fill: none; stroke: #d62728; stroke-opacity: 0.8; stroke-width: 1.5; stroke-linecap: round"/>
   </g>
   <g id="line2d_92">
    <path d="M 102.581875 225.893411 
L 130.481875 232.681885 
L 158.381875 234.619312 
L 186.281875 233.545969 
L 214.181875 222.62788 
L 242.081875 193.572459 
L 269.981875 167.699967 
L 297.881875 155.58972 
L 325.781875 158.68913 
L 353.681875 157.779425 
L 381.581875 156.949046 
L 409.481875 154.995847 
L 437.381875 152.643879 
L 465.281875 151.940304 
L 493.181875 149.369315 
L 521.081875 148.553117 
L 548.981875 147.698147 
L 576.881875 153.180655 
L 604.781875 162.288023 
L 632.681875 151.309421 
L 660.581875 166.93648 
L 688.481875 179.616325 
L 716.381875 195.110854 
L 744.281875 215.331847 
" clip-path="url(#pcbec21e3ac)" style="fill: none; stroke: #ff9896; stroke-opacity: 0.8; stroke-width: 1.5; stroke-linecap: round"/>
   </g>
   <g id="line2d_93">
    <path d="M 102.581875 228.003251 
L 130.481875 234.487514 
L 158.381875 237.05672 
L 186.281875 238.685428 
L 214.181875 232.551594 
L 242.081875 213.359465 
L 269.981875 188.544575 
L 297.881875 155.207134 
L 325.781875 150.199725 
L 353.681875 148.830116 
L 381.581875 148.780248 
L 409.481875 142.893509 
L 437.381875 133.613359 
L 465.281875 131.817286 
L 493.181875 118.045478 
L 521.081875 105.929719 
L 548.981875 90.154643 
L 576.881875 108.869531 
L 604.781875 142.848724 
L 632.681875 155.344875 
L 660.581875 174.20725 
L 688.481875 191.275262 
L 716.381875 203.393046 
L 744.281875 216.872196 
" clip-path="url(#pcbec21e3ac)" style="fill: none; stroke: #17becf; stroke-opacity: 0.8; stroke-width: 1.5; stroke-linecap: round"/>
   </g>
   <g id="line2d_94">
    <path d="M 102.581875 230.341748 
L 130.481875 235.984612 
L 158.381875 238.191836 
L 186.281875 239.342408 
L 214.181875 234.215917 
L 242.081875 217.00615 
L 269.981875 191.611876 
L 297.881875 160.380656 
L 325.781875 156.507832 
L 353.681875 156.116315 
L 381.581875 154.640991 
L 409.481875 148.986742 
L 437.381875 142.146932 
L 465.281875 139.449432 
L 493.181875 123.803005 
L 521.081875 100.802186 
L 548.981875 87.606432 
L 576.881875 98.836818 
L 604.781875 152.404131 
L 632.681875 163.945586 
L 660.581875 182.174741 
L 688.481875 197.292341 
L 716.381875 209.941885 
L 744.281875 221.225399 
" clip-path="url(#pcbec21e3ac)" style="fill: none; stroke: #f7b6d2; stroke-opacity: 0.8; stroke-width: 1.5; stroke-linecap: round"/>
   </g>
   <g id="patch_3">
    <path d="M 88.631875 257.76 
L 88.631875 36 
" style="fill: none; stroke: #000000; stroke-linejoin: miter; stroke-linecap: square"/>
   </g>
   <g id="patch_4">
    <path d="M 758.231875 257.76 
L 758.231875 36 
" style="fill: none; stroke: #000000; stroke-linejoin: miter; stroke-linecap: square"/>
   </g>
   <g id="patch_5">
    <path d="M 88.631875 257.76 
L 758.231875 257.76 
" style="fill: none; stroke: #000000; stroke-linejoin: miter; stroke-linecap: square"/>
   </g>
   <g id="patch_6">
    <path d="M 88.631875 36 
L 758.231875 36 
" style="fill: none; stroke: #000000; stroke-linejoin: miter; stroke-linecap: square"/>
   </g>
  </g>
 </g>
 <defs>
  <clipPath id="pcbec21e3ac">
   <rect x="88.631875" y="36" width="669.6" height="221.76"/>
  </clipPath>
 </defs>
</svg>
