<?xml version="1.0" encoding="utf-8" standalone="no"?>
<!DOCTYPE svg PUBLIC "-//W3C//DTD SVG 1.1//EN"
  "http://www.w3.org/Graphics/SVG/1.1/DTD/svg11.dtd">
<svg xmlns:xlink="http://www.w3.org/1999/xlink" width="789.786875pt" height="338.0125pt" viewBox="0 0 789.786875 338.0125" xmlns="http://www.w3.org/2000/svg" version="1.1">
 <metadata>
  <rdf:RDF xmlns:dc="http://purl.org/dc/elements/1.1/" xmlns:cc="http://creativecommons.org/ns#" xmlns:rdf="http://www.w3.org/1999/02/22-rdf-syntax-ns#">
   <cc:Work>
    <dc:type rdf:resource="http://purl.org/dc/dcmitype/StillImage"/>
    <dc:date>2025-10-27T21:09:53.494546</dc:date>
    <dc:format>image/svg+xml</dc:format>
    <dc:creator>
     <cc:Agent>
      <dc:title>Matplotlib v3.10.7, https://matplotlib.org/</dc:title>
     </cc:Agent>
    </dc:creator>
   </cc:Work>
  </rdf:RDF>
 </metadata>
 <defs>
  <style type="text/css">*{stroke-linejoin: round; stroke-linecap: butt}</style>
 </defs>
 <g id="figure_1">
  <g id="patch_1">
   <path d="M 0 338.0125 
L 789.786875 338.0125 
L 789.786875 0 
L 0 0 
L 0 338.0125 
z
" style="fill: none"/>
  </g>
  <g id="axes_1">
   <g id="patch_2">
    <path d="M 84.186875 263.48625 
L 753.786875 263.48625 
L 753.786875 41.72625 
L 84.186875 41.72625 
L 84.186875 263.48625 
z
" style="fill: none"/>
   </g>
   <g id="line2d_1">
    <path d="M 104.477784 263.48625 
L 104.477784 41.72625 
" clip-path="url(#p6317714736)" style="fill: none; stroke-dasharray: 0.74,0.32; stroke-dashoffset: 0; stroke: #a9a9a9; stroke-opacity: 0.5; stroke-width: 0.2"/>
   </g>
   <g id="line2d_2">
    <path d="M 124.768693 263.48625 
L 124.768693 41.72625 
" clip-path="url(#p6317714736)" style="fill: none; stroke-dasharray: 0.74,0.32; stroke-dashoffset: 0; stroke: #a9a9a9; stroke-opacity: 0.5; stroke-width: 0.2"/>
   </g>
   <g id="line2d_3">
    <path d="M 145.059602 263.48625 
L 145.059602 41.72625 
" clip-path="url(#p6317714736)" style="fill: none; stroke-dasharray: 0.74,0.32; stroke-dashoffset: 0; stroke: #a9a9a9; stroke-opacity: 0.5; stroke-width: 0.2"/>
   </g>
   <g id="line2d_4">
    <path d="M 165.350511 263.48625 
L 165.350511 41.72625 
" clip-path="url(#p6317714736)" style="fill: none; stroke-dasharray: 0.74,0.32; stroke-dashoffset: 0; stroke: #a9a9a9; stroke-opacity: 0.5; stroke-width: 0.2"/>
   </g>
   <g id="line2d_5">
    <path d="M 185.64142 263.48625 
L 185.64142 41.72625 
" clip-path="url(#p6317714736)" style="fill: none; stroke-dasharray: 0.74,0.32; stroke-dashoffset: 0; stroke: #a9a9a9; stroke-opacity: 0.5; stroke-width: 0.2"/>
   </g>
   <g id="line2d_6">
    <path d="M 205.93233 263.48625 
L 205.93233 41.72625 
" clip-path="url(#p6317714736)" style="fill: none; stroke-dasharray: 0.74,0.32; stroke-dashoffset: 0; stroke: #a9a9a9; stroke-opacity: 0.5; stroke-width: 0.2"/>
   </g>
   <g id="line2d_7">
    <path d="M 226.223239 263.48625 
L 226.223239 41.72625 
" clip-path="url(#p6317714736)" style="fill: none; stroke-dasharray: 0.74,0.32; stroke-dashoffset: 0; stroke: #a9a9a9; stroke-opacity: 0.5; stroke-width: 0.2"/>
   </g>
   <g id="line2d_8">
    <path d="M 246.514148 263.48625 
L 246.514148 41.72625 
" clip-path="url(#p6317714736)" style="fill: none; stroke-dasharray: 0.74,0.32; stroke-dashoffset: 0; stroke: #a9a9a9; stroke-opacity: 0.5; stroke-width: 0.2"/>
   </g>
   <g id="line2d_9">
    <path d="M 266.805057 263.48625 
L 266.805057 41.72625 
" clip-path="url(#p6317714736)" style="fill: none; stroke-dasharray: 0.74,0.32; stroke-dashoffset: 0; stroke: #a9a9a9; stroke-opacity: 0.5; stroke-width: 0.2"/>
   </g>
   <g id="line2d_10">
    <path d="M 287.095966 263.48625 
L 287.095966 41.72625 
" clip-path="url(#p6317714736)" style="fill: none; stroke-dasharray: 0.74,0.32; stroke-dashoffset: 0; stroke: #a9a9a9; stroke-opacity: 0.5; stroke-width: 0.2"/>
   </g>
   <g id="line2d_11">
    <path d="M 307.386875 263.48625 
L 307.386875 41.72625 
" clip-path="url(#p6317714736)" style="fill: none; stroke-dasharray: 0.74,0.32; stroke-dashoffset: 0; stroke: #a9a9a9; stroke-opacity: 0.5; stroke-width: 0.2"/>
   </g>
   <g id="line2d_12">
    <path d="M 327.677784 263.48625 
L 327.677784 41.72625 
" clip-path="url(#p6317714736)" style="fill: none; stroke-dasharray: 0.74,0.32; stroke-dashoffset: 0; stroke: #a9a9a9; stroke-opacity: 0.5; stroke-width: 0.2"/>
   </g>
   <g id="line2d_13">
    <path d="M 347.968693 263.48625 
L 347.968693 41.72625 
" clip-path="url(#p6317714736)" style="fill: none; stroke-dasharray: 0.74,0.32; stroke-dashoffset: 0; stroke: #a9a9a9; stroke-opacity: 0.5; stroke-width: 0.2"/>
   </g>
   <g id="line2d_14">
    <path d="M 368.259602 263.48625 
L 368.259602 41.72625 
" clip-path="url(#p6317714736)" style="fill: none; stroke-dasharray: 0.74,0.32; stroke-dashoffset: 0; stroke: #a9a9a9; stroke-opacity: 0.5; stroke-width: 0.2"/>
   </g>
   <g id="line2d_15">
    <path d="M 388.550511 263.48625 
L 388.550511 41.72625 
" clip-path="url(#p6317714736)" style="fill: none; stroke-dasharray: 0.74,0.32; stroke-dashoffset: 0; stroke: #a9a9a9; stroke-opacity: 0.5; stroke-width: 0.2"/>
   </g>
   <g id="line2d_16">
    <path d="M 408.84142 263.48625 
L 408.84142 41.72625 
" clip-path="url(#p6317714736)" style="fill: none; stroke-dasharray: 0.74,0.32; stroke-dashoffset: 0; stroke: #a9a9a9; stroke-opacity: 0.5; stroke-width: 0.2"/>
   </g>
   <g id="line2d_17">
    <path d="M 429.13233 263.48625 
L 429.13233 41.72625 
" clip-path="url(#p6317714736)" style="fill: none; stroke-dasharray: 0.74,0.32; stroke-dashoffset: 0; stroke: #a9a9a9; stroke-opacity: 0.5; stroke-width: 0.2"/>
   </g>
   <g id="line2d_18">
    <path d="M 449.423239 263.48625 
L 449.423239 41.72625 
" clip-path="url(#p6317714736)" style="fill: none; stroke-dasharray: 0.74,0.32; stroke-dashoffset: 0; stroke: #a9a9a9; stroke-opacity: 0.5; stroke-width: 0.2"/>
   </g>
   <g id="line2d_19">
    <path d="M 469.714148 263.48625 
L 469.714148 41.72625 
" clip-path="url(#p6317714736)" style="fill: none; stroke-dasharray: 0.74,0.32; stroke-dashoffset: 0; stroke: #a9a9a9; stroke-opacity: 0.5; stroke-width: 0.2"/>
   </g>
   <g id="line2d_20">
    <path d="M 490.005057 263.48625 
L 490.005057 41.72625 
" clip-path="url(#p6317714736)" style="fill: none; stroke-dasharray: 0.74,0.32; stroke-dashoffset: 0; stroke: #a9a9a9; stroke-opacity: 0.5; stroke-width: 0.2"/>
   </g>
   <g id="line2d_21">
    <path d="M 510.295966 263.48625 
L 510.295966 41.72625 
" clip-path="url(#p6317714736)" style="fill: none; stroke-dasharray: 0.74,0.32; stroke-dashoffset: 0; stroke: #a9a9a9; stroke-opacity: 0.5; stroke-width: 0.2"/>
   </g>
   <g id="line2d_22">
    <path d="M 530.586875 263.48625 
L 530.586875 41.72625 
" clip-path="url(#p6317714736)" style="fill: none; stroke-dasharray: 0.74,0.32; stroke-dashoffset: 0; stroke: #a9a9a9; stroke-opacity: 0.5; stroke-width: 0.2"/>
   </g>
   <g id="line2d_23">
    <path d="M 550.877784 263.48625 
L 550.877784 41.72625 
" clip-path="url(#p6317714736)" style="fill: none; stroke-dasharray: 0.74,0.32; stroke-dashoffset: 0; stroke: #a9a9a9; stroke-opacity: 0.5; stroke-width: 0.2"/>
   </g>
   <g id="line2d_24">
    <path d="M 571.168693 263.48625 
L 571.168693 41.72625 
" clip-path="url(#p6317714736)" style="fill: none; stroke-dasharray: 0.74,0.32; stroke-dashoffset: 0; stroke: #a9a9a9; stroke-opacity: 0.5; stroke-width: 0.2"/>
   </g>
   <g id="line2d_25">
    <path d="M 591.459602 263.48625 
L 591.459602 41.72625 
" clip-path="url(#p6317714736)" style="fill: none; stroke-dasharray: 0.74,0.32; stroke-dashoffset: 0; stroke: #a9a9a9; stroke-opacity: 0.5; stroke-width: 0.2"/>
   </g>
   <g id="line2d_26">
    <path d="M 611.750511 263.48625 
L 611.750511 41.72625 
" clip-path="url(#p6317714736)" style="fill: none; stroke-dasharray: 0.74,0.32; stroke-dashoffset: 0; stroke: #a9a9a9; stroke-opacity: 0.5; stroke-width: 0.2"/>
   </g>
   <g id="line2d_27">
    <path d="M 632.04142 263.48625 
L 632.04142 41.72625 
" clip-path="url(#p6317714736)" style="fill: none; stroke-dasharray: 0.74,0.32; stroke-dashoffset: 0; stroke: #a9a9a9; stroke-opacity: 0.5; stroke-width: 0.2"/>
   </g>
   <g id="line2d_28">
    <path d="M 652.33233 263.48625 
L 652.33233 41.72625 
" clip-path="url(#p6317714736)" style="fill: none; stroke-dasharray: 0.74,0.32; stroke-dashoffset: 0; stroke: #a9a9a9; stroke-opacity: 0.5; stroke-width: 0.2"/>
   </g>
   <g id="line2d_29">
    <path d="M 672.623239 263.48625 
L 672.623239 41.72625 
" clip-path="url(#p6317714736)" style="fill: none; stroke-dasharray: 0.74,0.32; stroke-dashoffset: 0; stroke: #a9a9a9; stroke-opacity: 0.5; stroke-width: 0.2"/>
   </g>
   <g id="line2d_30">
    <path d="M 692.914148 263.48625 
L 692.914148 41.72625 
" clip-path="url(#p6317714736)" style="fill: none; stroke-dasharray: 0.74,0.32; stroke-dashoffset: 0; stroke: #a9a9a9; stroke-opacity: 0.5; stroke-width: 0.2"/>
   </g>
   <g id="line2d_31">
    <path d="M 713.205057 263.48625 
L 713.205057 41.72625 
" clip-path="url(#p6317714736)" style="fill: none; stroke-dasharray: 0.74,0.32; stroke-dashoffset: 0; stroke: #a9a9a9; stroke-opacity: 0.5; stroke-width: 0.2"/>
   </g>
   <g id="line2d_32">
    <path d="M 733.495966 263.48625 
L 733.495966 41.72625 
" clip-path="url(#p6317714736)" style="fill: none; stroke-dasharray: 0.74,0.32; stroke-dashoffset: 0; stroke: #a9a9a9; stroke-opacity: 0.5; stroke-width: 0.2"/>
   </g>
   <g id="line2d_33">
    <path d="M 84.186875 241.31025 
L 753.786875 241.31025 
" clip-path="url(#p6317714736)" style="fill: none; stroke-dasharray: 0.74,0.32; stroke-dashoffset: 0; stroke: #a9a9a9; stroke-opacity: 0.5; stroke-width: 0.2"/>
   </g>
   <g id="line2d_34">
    <path d="M 84.186875 219.13425 
L 753.786875 219.13425 
" clip-path="url(#p6317714736)" style="fill: none; stroke-dasharray: 0.74,0.32; stroke-dashoffset: 0; stroke: #a9a9a9; stroke-opacity: 0.5; stroke-width: 0.2"/>
   </g>
   <g id="line2d_35">
    <path d="M 84.186875 196.95825 
L 753.786875 196.95825 
" clip-path="url(#p6317714736)" style="fill: none; stroke-dasharray: 0.74,0.32; stroke-dashoffset: 0; stroke: #a9a9a9; stroke-opacity: 0.5; stroke-width: 0.2"/>
   </g>
   <g id="line2d_36">
    <path d="M 84.186875 174.78225 
L 753.786875 174.78225 
" clip-path="url(#p6317714736)" style="fill: none; stroke-dasharray: 0.74,0.32; stroke-dashoffset: 0; stroke: #a9a9a9; stroke-opacity: 0.5; stroke-width: 0.2"/>
   </g>
   <g id="line2d_37">
    <path d="M 84.186875 152.60625 
L 753.786875 152.60625 
" clip-path="url(#p6317714736)" style="fill: none; stroke-dasharray: 0.74,0.32; stroke-dashoffset: 0; stroke: #a9a9a9; stroke-opacity: 0.5; stroke-width: 0.2"/>
   </g>
   <g id="line2d_38">
    <path d="M 84.186875 130.43025 
L 753.786875 130.43025 
" clip-path="url(#p6317714736)" style="fill: none; stroke-dasharray: 0.74,0.32; stroke-dashoffset: 0; stroke: #a9a9a9; stroke-opacity: 0.5; stroke-width: 0.2"/>
   </g>
   <g id="line2d_39">
    <path d="M 84.186875 108.25425 
L 753.786875 108.25425 
" clip-path="url(#p6317714736)" style="fill: none; stroke-dasharray: 0.74,0.32; stroke-dashoffset: 0; stroke: #a9a9a9; stroke-opacity: 0.5; stroke-width: 0.2"/>
   </g>
   <g id="line2d_40">
    <path d="M 84.186875 86.07825 
L 753.786875 86.07825 
" clip-path="url(#p6317714736)" style="fill: none; stroke-dasharray: 0.74,0.32; stroke-dashoffset: 0; stroke: #a9a9a9; stroke-opacity: 0.5; stroke-width: 0.2"/>
   </g>
   <g id="line2d_41">
    <path d="M 84.186875 63.90225 
L 753.786875 63.90225 
" clip-path="url(#p6317714736)" style="fill: none; stroke-dasharray: 0.74,0.32; stroke-dashoffset: 0; stroke: #a9a9a9; stroke-opacity: 0.5; stroke-width: 0.2"/>
   </g>
   <g id="matplotlib.axis_1">
    <g id="xtick_1">
     <g id="line2d_42">
      <defs>
       <path id="m87f826963a" d="M 0 0 
L 0 5 
" style="stroke: #000000"/>
      </defs>
      <g>
       <use xlink:href="#m87f826963a" x="98.136875" y="263.48625" style="stroke: #000000"/>
      </g>
     </g>
     <g id="text_1">
      <!-- 1:00 -->
      <g transform="translate(101.239063 295.339375) rotate(-90) scale(0.12 -0.12)">
       <defs>
        <path id="ArialMT-31" d="M 2384 0 
L 1822 0 
L 1822 3584 
Q 1619 3391 1289 3197 
Q 959 3003 697 2906 
L 697 3450 
Q 1169 3672 1522 3987 
Q 1875 4303 2022 4600 
L 2384 4600 
L 2384 0 
z
" transform="scale(0.015625)"/>
        <path id="ArialMT-3a" d="M 578 2678 
L 578 3319 
L 1219 3319 
L 1219 2678 
L 578 2678 
z
M 578 0 
L 578 641 
L 1219 641 
L 1219 0 
L 578 0 
z
" transform="scale(0.015625)"/>
        <path id="ArialMT-30" d="M 266 2259 
Q 266 3072 433 3567 
Q 600 4063 929 4331 
Q 1259 4600 1759 4600 
Q 2128 4600 2406 4451 
Q 2684 4303 2865 4023 
Q 3047 3744 3150 3342 
Q 3253 2941 3253 2259 
Q 3253 1453 3087 958 
Q 2922 463 2592 192 
Q 2263 -78 1759 -78 
Q 1097 -78 719 397 
Q 266 969 266 2259 
z
M 844 2259 
Q 844 1131 1108 757 
Q 1372 384 1759 384 
Q 2147 384 2411 759 
Q 2675 1134 2675 2259 
Q 2675 3391 2411 3762 
Q 2147 4134 1753 4134 
Q 1366 4134 1134 3806 
Q 844 3388 844 2259 
z
" transform="scale(0.015625)"/>
       </defs>
       <use xlink:href="#ArialMT-31"/>
       <use xlink:href="#ArialMT-3a" transform="translate(55.615234 0)"/>
       <use xlink:href="#ArialMT-30" transform="translate(83.398438 0)"/>
       <use xlink:href="#ArialMT-30" transform="translate(139.013672 0)"/>
      </g>
     </g>
    </g>
    <g id="xtick_2">
     <g id="line2d_43">
      <g>
       <use xlink:href="#m87f826963a" x="126.036875" y="263.48625" style="stroke: #000000"/>
      </g>
     </g>
     <g id="text_2">
      <!-- 2:00 -->
      <g transform="translate(129.139063 295.339375) rotate(-90) scale(0.12 -0.12)">
       <defs>
        <path id="ArialMT-32" d="M 3222 541 
L 3222 0 
L 194 0 
Q 188 203 259 391 
Q 375 700 629 1000 
Q 884 1300 1366 1694 
Q 2113 2306 2375 2664 
Q 2638 3022 2638 3341 
Q 2638 3675 2398 3904 
Q 2159 4134 1775 4134 
Q 1369 4134 1125 3890 
Q 881 3647 878 3216 
L 300 3275 
Q 359 3922 746 4261 
Q 1134 4600 1788 4600 
Q 2447 4600 2831 4234 
Q 3216 3869 3216 3328 
Q 3216 3053 3103 2787 
Q 2991 2522 2730 2228 
Q 2469 1934 1863 1422 
Q 1356 997 1212 845 
Q 1069 694 975 541 
L 3222 541 
z
" transform="scale(0.015625)"/>
       </defs>
       <use xlink:href="#ArialMT-32"/>
       <use xlink:href="#ArialMT-3a" transform="translate(55.615234 0)"/>
       <use xlink:href="#ArialMT-30" transform="translate(83.398438 0)"/>
       <use xlink:href="#ArialMT-30" transform="translate(139.013672 0)"/>
      </g>
     </g>
    </g>
    <g id="xtick_3">
     <g id="line2d_44">
      <g>
       <use xlink:href="#m87f826963a" x="153.936875" y="263.48625" style="stroke: #000000"/>
      </g>
     </g>
     <g id="text_3">
      <!-- 3:00 -->
      <g transform="translate(157.039062 295.339375) rotate(-90) scale(0.12 -0.12)">
       <defs>
        <path id="ArialMT-33" d="M 269 1209 
L 831 1284 
Q 928 806 1161 595 
Q 1394 384 1728 384 
Q 2125 384 2398 659 
Q 2672 934 2672 1341 
Q 2672 1728 2419 1979 
Q 2166 2231 1775 2231 
Q 1616 2231 1378 2169 
L 1441 2663 
Q 1497 2656 1531 2656 
Q 1891 2656 2178 2843 
Q 2466 3031 2466 3422 
Q 2466 3731 2256 3934 
Q 2047 4138 1716 4138 
Q 1388 4138 1169 3931 
Q 950 3725 888 3313 
L 325 3413 
Q 428 3978 793 4289 
Q 1159 4600 1703 4600 
Q 2078 4600 2393 4439 
Q 2709 4278 2876 4000 
Q 3044 3722 3044 3409 
Q 3044 3113 2884 2869 
Q 2725 2625 2413 2481 
Q 2819 2388 3044 2092 
Q 3269 1797 3269 1353 
Q 3269 753 2831 336 
Q 2394 -81 1725 -81 
Q 1122 -81 723 278 
Q 325 638 269 1209 
z
" transform="scale(0.015625)"/>
       </defs>
       <use xlink:href="#ArialMT-33"/>
       <use xlink:href="#ArialMT-3a" transform="translate(55.615234 0)"/>
       <use xlink:href="#ArialMT-30" transform="translate(83.398438 0)"/>
       <use xlink:href="#ArialMT-30" transform="translate(139.013672 0)"/>
      </g>
     </g>
    </g>
    <g id="xtick_4">
     <g id="line2d_45">
      <g>
       <use xlink:href="#m87f826963a" x="181.836875" y="263.48625" style="stroke: #000000"/>
      </g>
     </g>
     <g id="text_4">
      <!-- 4:00 -->
      <g transform="translate(184.939062 295.339375) rotate(-90) scale(0.12 -0.12)">
       <defs>
        <path id="ArialMT-34" d="M 2069 0 
L 2069 1097 
L 81 1097 
L 81 1613 
L 2172 4581 
L 2631 4581 
L 2631 1613 
L 3250 1613 
L 3250 1097 
L 2631 1097 
L 2631 0 
L 2069 0 
z
M 2069 1613 
L 2069 3678 
L 634 1613 
L 2069 1613 
z
" transform="scale(0.015625)"/>
       </defs>
       <use xlink:href="#ArialMT-34"/>
       <use xlink:href="#ArialMT-3a" transform="translate(55.615234 0)"/>
       <use xlink:href="#ArialMT-30" transform="translate(83.398438 0)"/>
       <use xlink:href="#ArialMT-30" transform="translate(139.013672 0)"/>
      </g>
     </g>
    </g>
    <g id="xtick_5">
     <g id="line2d_46">
      <g>
       <use xlink:href="#m87f826963a" x="209.736875" y="263.48625" style="stroke: #000000"/>
      </g>
     </g>
     <g id="text_5">
      <!-- 5:00 -->
      <g transform="translate(212.839063 295.339375) rotate(-90) scale(0.12 -0.12)">
       <defs>
        <path id="ArialMT-35" d="M 266 1200 
L 856 1250 
Q 922 819 1161 601 
Q 1400 384 1738 384 
Q 2144 384 2425 690 
Q 2706 997 2706 1503 
Q 2706 1984 2436 2262 
Q 2166 2541 1728 2541 
Q 1456 2541 1237 2417 
Q 1019 2294 894 2097 
L 366 2166 
L 809 4519 
L 3088 4519 
L 3088 3981 
L 1259 3981 
L 1013 2750 
Q 1425 3038 1878 3038 
Q 2478 3038 2890 2622 
Q 3303 2206 3303 1553 
Q 3303 931 2941 478 
Q 2500 -78 1738 -78 
Q 1113 -78 717 272 
Q 322 622 266 1200 
z
" transform="scale(0.015625)"/>
       </defs>
       <use xlink:href="#ArialMT-35"/>
       <use xlink:href="#ArialMT-3a" transform="translate(55.615234 0)"/>
       <use xlink:href="#ArialMT-30" transform="translate(83.398438 0)"/>
       <use xlink:href="#ArialMT-30" transform="translate(139.013672 0)"/>
      </g>
     </g>
    </g>
    <g id="xtick_6">
     <g id="line2d_47">
      <g>
       <use xlink:href="#m87f826963a" x="237.636875" y="263.48625" style="stroke: #000000"/>
      </g>
     </g>
     <g id="text_6">
      <!-- 6:00 -->
      <g transform="translate(240.739062 295.339375) rotate(-90) scale(0.12 -0.12)">
       <defs>
        <path id="ArialMT-36" d="M 3184 3459 
L 2625 3416 
Q 2550 3747 2413 3897 
Q 2184 4138 1850 4138 
Q 1581 4138 1378 3988 
Q 1113 3794 959 3422 
Q 806 3050 800 2363 
Q 1003 2672 1297 2822 
Q 1591 2972 1913 2972 
Q 2475 2972 2870 2558 
Q 3266 2144 3266 1488 
Q 3266 1056 3080 686 
Q 2894 316 2569 119 
Q 2244 -78 1831 -78 
Q 1128 -78 684 439 
Q 241 956 241 2144 
Q 241 3472 731 4075 
Q 1159 4600 1884 4600 
Q 2425 4600 2770 4297 
Q 3116 3994 3184 3459 
z
M 888 1484 
Q 888 1194 1011 928 
Q 1134 663 1356 523 
Q 1578 384 1822 384 
Q 2178 384 2434 671 
Q 2691 959 2691 1453 
Q 2691 1928 2437 2201 
Q 2184 2475 1800 2475 
Q 1419 2475 1153 2201 
Q 888 1928 888 1484 
z
" transform="scale(0.015625)"/>
       </defs>
       <use xlink:href="#ArialMT-36"/>
       <use xlink:href="#ArialMT-3a" transform="translate(55.615234 0)"/>
       <use xlink:href="#ArialMT-30" transform="translate(83.398438 0)"/>
       <use xlink:href="#ArialMT-30" transform="translate(139.013672 0)"/>
      </g>
     </g>
    </g>
    <g id="xtick_7">
     <g id="line2d_48">
      <g>
       <use xlink:href="#m87f826963a" x="265.536875" y="263.48625" style="stroke: #000000"/>
      </g>
     </g>
     <g id="text_7">
      <!-- 7:00 -->
      <g transform="translate(268.639063 295.339375) rotate(-90) scale(0.12 -0.12)">
       <defs>
        <path id="ArialMT-37" d="M 303 3981 
L 303 4522 
L 3269 4522 
L 3269 4084 
Q 2831 3619 2401 2847 
Q 1972 2075 1738 1259 
Q 1569 684 1522 0 
L 944 0 
Q 953 541 1156 1306 
Q 1359 2072 1739 2783 
Q 2119 3494 2547 3981 
L 303 3981 
z
" transform="scale(0.015625)"/>
       </defs>
       <use xlink:href="#ArialMT-37"/>
       <use xlink:href="#ArialMT-3a" transform="translate(55.615234 0)"/>
       <use xlink:href="#ArialMT-30" transform="translate(83.398438 0)"/>
       <use xlink:href="#ArialMT-30" transform="translate(139.013672 0)"/>
      </g>
     </g>
    </g>
    <g id="xtick_8">
     <g id="line2d_49">
      <g>
       <use xlink:href="#m87f826963a" x="293.436875" y="263.48625" style="stroke: #000000"/>
      </g>
     </g>
     <g id="text_8">
      <!-- 8:00 -->
      <g transform="translate(296.539062 295.339375) rotate(-90) scale(0.12 -0.12)">
       <defs>
        <path id="ArialMT-38" d="M 1131 2484 
Q 781 2613 612 2850 
Q 444 3088 444 3419 
Q 444 3919 803 4259 
Q 1163 4600 1759 4600 
Q 2359 4600 2725 4251 
Q 3091 3903 3091 3403 
Q 3091 3084 2923 2848 
Q 2756 2613 2416 2484 
Q 2838 2347 3058 2040 
Q 3278 1734 3278 1309 
Q 3278 722 2862 322 
Q 2447 -78 1769 -78 
Q 1091 -78 675 323 
Q 259 725 259 1325 
Q 259 1772 486 2073 
Q 713 2375 1131 2484 
z
M 1019 3438 
Q 1019 3113 1228 2906 
Q 1438 2700 1772 2700 
Q 2097 2700 2305 2904 
Q 2513 3109 2513 3406 
Q 2513 3716 2298 3927 
Q 2084 4138 1766 4138 
Q 1444 4138 1231 3931 
Q 1019 3725 1019 3438 
z
M 838 1322 
Q 838 1081 952 856 
Q 1066 631 1291 507 
Q 1516 384 1775 384 
Q 2178 384 2440 643 
Q 2703 903 2703 1303 
Q 2703 1709 2433 1975 
Q 2163 2241 1756 2241 
Q 1359 2241 1098 1978 
Q 838 1716 838 1322 
z
" transform="scale(0.015625)"/>
       </defs>
       <use xlink:href="#ArialMT-38"/>
       <use xlink:href="#ArialMT-3a" transform="translate(55.615234 0)"/>
       <use xlink:href="#ArialMT-30" transform="translate(83.398438 0)"/>
       <use xlink:href="#ArialMT-30" transform="translate(139.013672 0)"/>
      </g>
     </g>
    </g>
    <g id="xtick_9">
     <g id="line2d_50">
      <g>
       <use xlink:href="#m87f826963a" x="321.336875" y="263.48625" style="stroke: #000000"/>
      </g>
     </g>
     <g id="text_9">
      <!-- 9:00 -->
      <g transform="translate(324.439062 295.339375) rotate(-90) scale(0.12 -0.12)">
       <defs>
        <path id="ArialMT-39" d="M 350 1059 
L 891 1109 
Q 959 728 1153 556 
Q 1347 384 1650 384 
Q 1909 384 2104 503 
Q 2300 622 2425 820 
Q 2550 1019 2634 1356 
Q 2719 1694 2719 2044 
Q 2719 2081 2716 2156 
Q 2547 1888 2255 1720 
Q 1963 1553 1622 1553 
Q 1053 1553 659 1965 
Q 266 2378 266 3053 
Q 266 3750 677 4175 
Q 1088 4600 1706 4600 
Q 2153 4600 2523 4359 
Q 2894 4119 3086 3673 
Q 3278 3228 3278 2384 
Q 3278 1506 3087 986 
Q 2897 466 2520 194 
Q 2144 -78 1638 -78 
Q 1100 -78 759 220 
Q 419 519 350 1059 
z
M 2653 3081 
Q 2653 3566 2395 3850 
Q 2138 4134 1775 4134 
Q 1400 4134 1122 3828 
Q 844 3522 844 3034 
Q 844 2597 1108 2323 
Q 1372 2050 1759 2050 
Q 2150 2050 2401 2323 
Q 2653 2597 2653 3081 
z
" transform="scale(0.015625)"/>
       </defs>
       <use xlink:href="#ArialMT-39"/>
       <use xlink:href="#ArialMT-3a" transform="translate(55.615234 0)"/>
       <use xlink:href="#ArialMT-30" transform="translate(83.398438 0)"/>
       <use xlink:href="#ArialMT-30" transform="translate(139.013672 0)"/>
      </g>
     </g>
    </g>
    <g id="xtick_10">
     <g id="line2d_51">
      <g>
       <use xlink:href="#m87f826963a" x="349.236875" y="263.48625" style="stroke: #000000"/>
      </g>
     </g>
     <g id="text_10">
      <!-- 10:00 -->
      <g transform="translate(352.339063 302.0125) rotate(-90) scale(0.12 -0.12)">
       <use xlink:href="#ArialMT-31"/>
       <use xlink:href="#ArialMT-30" transform="translate(55.615234 0)"/>
       <use xlink:href="#ArialMT-3a" transform="translate(111.230469 0)"/>
       <use xlink:href="#ArialMT-30" transform="translate(139.013672 0)"/>
       <use xlink:href="#ArialMT-30" transform="translate(194.628906 0)"/>
      </g>
     </g>
    </g>
    <g id="xtick_11">
     <g id="line2d_52">
      <g>
       <use xlink:href="#m87f826963a" x="377.136875" y="263.48625" style="stroke: #000000"/>
      </g>
     </g>
     <g id="text_11">
      <!-- 11:00 -->
      <g transform="translate(380.239063 301.1275) rotate(-90) scale(0.12 -0.12)">
       <use xlink:href="#ArialMT-31"/>
       <use xlink:href="#ArialMT-31" transform="translate(48.240234 0)"/>
       <use xlink:href="#ArialMT-3a" transform="translate(103.855469 0)"/>
       <use xlink:href="#ArialMT-30" transform="translate(131.638672 0)"/>
       <use xlink:href="#ArialMT-30" transform="translate(187.253906 0)"/>
      </g>
     </g>
    </g>
    <g id="xtick_12">
     <g id="line2d_53">
      <g>
       <use xlink:href="#m87f826963a" x="405.036875" y="263.48625" style="stroke: #000000"/>
      </g>
     </g>
     <g id="text_12">
      <!-- 12:00 -->
      <g transform="translate(408.139063 302.0125) rotate(-90) scale(0.12 -0.12)">
       <use xlink:href="#ArialMT-31"/>
       <use xlink:href="#ArialMT-32" transform="translate(55.615234 0)"/>
       <use xlink:href="#ArialMT-3a" transform="translate(111.230469 0)"/>
       <use xlink:href="#ArialMT-30" transform="translate(139.013672 0)"/>
       <use xlink:href="#ArialMT-30" transform="translate(194.628906 0)"/>
      </g>
     </g>
    </g>
    <g id="xtick_13">
     <g id="line2d_54">
      <g>
       <use xlink:href="#m87f826963a" x="432.936875" y="263.48625" style="stroke: #000000"/>
      </g>
     </g>
     <g id="text_13">
      <!-- 13:00 -->
      <g transform="translate(436.039062 302.0125) rotate(-90) scale(0.12 -0.12)">
       <use xlink:href="#ArialMT-31"/>
       <use xlink:href="#ArialMT-33" transform="translate(55.615234 0)"/>
       <use xlink:href="#ArialMT-3a" transform="translate(111.230469 0)"/>
       <use xlink:href="#ArialMT-30" transform="translate(139.013672 0)"/>
       <use xlink:href="#ArialMT-30" transform="translate(194.628906 0)"/>
      </g>
     </g>
    </g>
    <g id="xtick_14">
     <g id="line2d_55">
      <g>
       <use xlink:href="#m87f826963a" x="460.836875" y="263.48625" style="stroke: #000000"/>
      </g>
     </g>
     <g id="text_14">
      <!-- 14:00 -->
      <g transform="translate(463.939062 302.0125) rotate(-90) scale(0.12 -0.12)">
       <use xlink:href="#ArialMT-31"/>
       <use xlink:href="#ArialMT-34" transform="translate(55.615234 0)"/>
       <use xlink:href="#ArialMT-3a" transform="translate(111.230469 0)"/>
       <use xlink:href="#ArialMT-30" transform="translate(139.013672 0)"/>
       <use xlink:href="#ArialMT-30" transform="translate(194.628906 0)"/>
      </g>
     </g>
    </g>
    <g id="xtick_15">
     <g id="line2d_56">
      <g>
       <use xlink:href="#m87f826963a" x="488.736875" y="263.48625" style="stroke: #000000"/>
      </g>
     </g>
     <g id="text_15">
      <!-- 15:00 -->
      <g transform="translate(491.839062 302.0125) rotate(-90) scale(0.12 -0.12)">
       <use xlink:href="#ArialMT-31"/>
       <use xlink:href="#ArialMT-35" transform="translate(55.615234 0)"/>
       <use xlink:href="#ArialMT-3a" transform="translate(111.230469 0)"/>
       <use xlink:href="#ArialMT-30" transform="translate(139.013672 0)"/>
       <use xlink:href="#ArialMT-30" transform="translate(194.628906 0)"/>
      </g>
     </g>
    </g>
    <g id="xtick_16">
     <g id="line2d_57">
      <g>
       <use xlink:href="#m87f826963a" x="516.636875" y="263.48625" style="stroke: #000000"/>
      </g>
     </g>
     <g id="text_16">
      <!-- 16:00 -->
      <g transform="translate(519.739063 302.0125) rotate(-90) scale(0.12 -0.12)">
       <use xlink:href="#ArialMT-31"/>
       <use xlink:href="#ArialMT-36" transform="translate(55.615234 0)"/>
       <use xlink:href="#ArialMT-3a" transform="translate(111.230469 0)"/>
       <use xlink:href="#ArialMT-30" transform="translate(139.013672 0)"/>
       <use xlink:href="#ArialMT-30" transform="translate(194.628906 0)"/>
      </g>
     </g>
    </g>
    <g id="xtick_17">
     <g id="line2d_58">
      <g>
       <use xlink:href="#m87f826963a" x="544.536875" y="263.48625" style="stroke: #000000"/>
      </g>
     </g>
     <g id="text_17">
      <!-- 17:00 -->
      <g transform="translate(547.639063 302.0125) rotate(-90) scale(0.12 -0.12)">
       <use xlink:href="#ArialMT-31"/>
       <use xlink:href="#ArialMT-37" transform="translate(55.615234 0)"/>
       <use xlink:href="#ArialMT-3a" transform="translate(111.230469 0)"/>
       <use xlink:href="#ArialMT-30" transform="translate(139.013672 0)"/>
       <use xlink:href="#ArialMT-30" transform="translate(194.628906 0)"/>
      </g>
     </g>
    </g>
    <g id="xtick_18">
     <g id="line2d_59">
      <g>
       <use xlink:href="#m87f826963a" x="572.436875" y="263.48625" style="stroke: #000000"/>
      </g>
     </g>
     <g id="text_18">
      <!-- 18:00 -->
      <g transform="translate(575.539062 302.0125) rotate(-90) scale(0.12 -0.12)">
       <use xlink:href="#ArialMT-31"/>
       <use xlink:href="#ArialMT-38" transform="translate(55.615234 0)"/>
       <use xlink:href="#ArialMT-3a" transform="translate(111.230469 0)"/>
       <use xlink:href="#ArialMT-30" transform="translate(139.013672 0)"/>
       <use xlink:href="#ArialMT-30" transform="translate(194.628906 0)"/>
      </g>
     </g>
    </g>
    <g id="xtick_19">
     <g id="line2d_60">
      <g>
       <use xlink:href="#m87f826963a" x="600.336875" y="263.48625" style="stroke: #000000"/>
      </g>
     </g>
     <g id="text_19">
      <!-- 19:00 -->
      <g transform="translate(603.439062 302.0125) rotate(-90) scale(0.12 -0.12)">
       <use xlink:href="#ArialMT-31"/>
       <use xlink:href="#ArialMT-39" transform="translate(55.615234 0)"/>
       <use xlink:href="#ArialMT-3a" transform="translate(111.230469 0)"/>
       <use xlink:href="#ArialMT-30" transform="translate(139.013672 0)"/>
       <use xlink:href="#ArialMT-30" transform="translate(194.628906 0)"/>
      </g>
     </g>
    </g>
    <g id="xtick_20">
     <g id="line2d_61">
      <g>
       <use xlink:href="#m87f826963a" x="628.236875" y="263.48625" style="stroke: #000000"/>
      </g>
     </g>
     <g id="text_20">
      <!-- 20:00 -->
      <g transform="translate(631.339063 302.0125) rotate(-90) scale(0.12 -0.12)">
       <use xlink:href="#ArialMT-32"/>
       <use xlink:href="#ArialMT-30" transform="translate(55.615234 0)"/>
       <use xlink:href="#ArialMT-3a" transform="translate(111.230469 0)"/>
       <use xlink:href="#ArialMT-30" transform="translate(139.013672 0)"/>
       <use xlink:href="#ArialMT-30" transform="translate(194.628906 0)"/>
      </g>
     </g>
    </g>
    <g id="xtick_21">
     <g id="line2d_62">
      <g>
       <use xlink:href="#m87f826963a" x="656.136875" y="263.48625" style="stroke: #000000"/>
      </g>
     </g>
     <g id="text_21">
      <!-- 21:00 -->
      <g transform="translate(659.239063 302.0125) rotate(-90) scale(0.12 -0.12)">
       <use xlink:href="#ArialMT-32"/>
       <use xlink:href="#ArialMT-31" transform="translate(55.615234 0)"/>
       <use xlink:href="#ArialMT-3a" transform="translate(111.230469 0)"/>
       <use xlink:href="#ArialMT-30" transform="translate(139.013672 0)"/>
       <use xlink:href="#ArialMT-30" transform="translate(194.628906 0)"/>
      </g>
     </g>
    </g>
    <g id="xtick_22">
     <g id="line2d_63">
      <g>
       <use xlink:href="#m87f826963a" x="684.036875" y="263.48625" style="stroke: #000000"/>
      </g>
     </g>
     <g id="text_22">
      <!-- 22:00 -->
      <g transform="translate(687.139063 302.0125) rotate(-90) scale(0.12 -0.12)">
       <use xlink:href="#ArialMT-32"/>
       <use xlink:href="#ArialMT-32" transform="translate(55.615234 0)"/>
       <use xlink:href="#ArialMT-3a" transform="translate(111.230469 0)"/>
       <use xlink:href="#ArialMT-30" transform="translate(139.013672 0)"/>
       <use xlink:href="#ArialMT-30" transform="translate(194.628906 0)"/>
      </g>
     </g>
    </g>
    <g id="xtick_23">
     <g id="line2d_64">
      <g>
       <use xlink:href="#m87f826963a" x="711.936875" y="263.48625" style="stroke: #000000"/>
      </g>
     </g>
     <g id="text_23">
      <!-- 23:00 -->
      <g transform="translate(715.039062 302.0125) rotate(-90) scale(0.12 -0.12)">
       <use xlink:href="#ArialMT-32"/>
       <use xlink:href="#ArialMT-33" transform="translate(55.615234 0)"/>
       <use xlink:href="#ArialMT-3a" transform="translate(111.230469 0)"/>
       <use xlink:href="#ArialMT-30" transform="translate(139.013672 0)"/>
       <use xlink:href="#ArialMT-30" transform="translate(194.628906 0)"/>
      </g>
     </g>
    </g>
    <g id="xtick_24">
     <g id="line2d_65">
      <g>
       <use xlink:href="#m87f826963a" x="739.836875" y="263.48625" style="stroke: #000000"/>
      </g>
     </g>
     <g id="text_24">
      <!-- 24:00 -->
      <g transform="translate(742.939062 302.0125) rotate(-90) scale(0.12 -0.12)">
       <use xlink:href="#ArialMT-32"/>
       <use xlink:href="#ArialMT-34" transform="translate(55.615234 0)"/>
       <use xlink:href="#ArialMT-3a" transform="translate(111.230469 0)"/>
       <use xlink:href="#ArialMT-30" transform="translate(139.013672 0)"/>
       <use xlink:href="#ArialMT-30" transform="translate(194.628906 0)"/>
      </g>
     </g>
    </g>
   </g>
   <g id="matplotlib.axis_2">
    <g id="ytick_1">
     <g id="line2d_66">
      <defs>
       <path id="m8ebc965389" d="M 0 0 
L -5 0 
" style="stroke: #000000; stroke-opacity: 0; stroke-width: 1.5"/>
      </defs>
      <g>
       <use xlink:href="#m8ebc965389" x="84.186875" y="252.92625" style="fill-opacity: 0; stroke: #000000; stroke-opacity: 0; stroke-width: 1.5"/>
      </g>
     </g>
     <g id="text_25">
      <!-- 0 -->
      <g transform="translate(66.789375 258.6525) scale(0.16 -0.16)">
       <use xlink:href="#ArialMT-30"/>
      </g>
     </g>
    </g>
    <g id="ytick_2">
     <g id="line2d_67">
      <g>
       <use xlink:href="#m8ebc965389" x="84.186875" y="200.12625" style="fill-opacity: 0; stroke: #000000; stroke-opacity: 0; stroke-width: 1.5"/>
      </g>
     </g>
     <g id="text_26">
      <!-- 5 -->
      <g transform="translate(66.789375 205.8525) scale(0.16 -0.16)">
       <use xlink:href="#ArialMT-35"/>
      </g>
     </g>
    </g>
    <g id="ytick_3">
     <g id="line2d_68">
      <g>
       <use xlink:href="#m8ebc965389" x="84.186875" y="147.32625" style="fill-opacity: 0; stroke: #000000; stroke-opacity: 0; stroke-width: 1.5"/>
      </g>
     </g>
     <g id="text_27">
      <!-- 10 -->
      <g transform="translate(57.891875 153.0525) scale(0.16 -0.16)">
       <use xlink:href="#ArialMT-31"/>
       <use xlink:href="#ArialMT-30" transform="translate(55.615234 0)"/>
      </g>
     </g>
    </g>
    <g id="ytick_4">
     <g id="line2d_69">
      <g>
       <use xlink:href="#m8ebc965389" x="84.186875" y="94.52625" style="fill-opacity: 0; stroke: #000000; stroke-opacity: 0; stroke-width: 1.5"/>
      </g>
     </g>
     <g id="text_28">
      <!-- 15 -->
      <g transform="translate(57.891875 100.2525) scale(0.16 -0.16)">
       <use xlink:href="#ArialMT-31"/>
       <use xlink:href="#ArialMT-35" transform="translate(55.615234 0)"/>
      </g>
     </g>
    </g>
    <g id="ytick_5">
     <g id="line2d_70">
      <g>
       <use xlink:href="#m8ebc965389" x="84.186875" y="41.72625" style="fill-opacity: 0; stroke: #000000; stroke-opacity: 0; stroke-width: 1.5"/>
      </g>
     </g>
     <g id="text_29">
      <!-- 20 -->
      <g transform="translate(57.891875 47.4525) scale(0.16 -0.16)">
       <use xlink:href="#ArialMT-32"/>
       <use xlink:href="#ArialMT-30" transform="translate(55.615234 0)"/>
      </g>
     </g>
    </g>
    <g id="text_30">
     <!-- Diesel (Gallon) -->
     <g transform="translate(49.103437 212.122969) rotate(-90) scale(0.18 -0.18)">
      <defs>
       <path id="ArialMT-44" d="M 494 0 
L 494 4581 
L 2072 4581 
Q 2606 4581 2888 4516 
Q 3281 4425 3559 4188 
Q 3922 3881 4101 3404 
Q 4281 2928 4281 2316 
Q 4281 1794 4159 1391 
Q 4038 988 3847 723 
Q 3656 459 3429 307 
Q 3203 156 2883 78 
Q 2563 0 2147 0 
L 494 0 
z
M 1100 541 
L 2078 541 
Q 2531 541 2789 625 
Q 3047 709 3200 863 
Q 3416 1078 3536 1442 
Q 3656 1806 3656 2325 
Q 3656 3044 3420 3430 
Q 3184 3816 2847 3947 
Q 2603 4041 2063 4041 
L 1100 4041 
L 1100 541 
z
" transform="scale(0.015625)"/>
       <path id="ArialMT-69" d="M 425 3934 
L 425 4581 
L 988 4581 
L 988 3934 
L 425 3934 
z
M 425 0 
L 425 3319 
L 988 3319 
L 988 0 
L 425 0 
z
" transform="scale(0.015625)"/>
       <path id="ArialMT-65" d="M 2694 1069 
L 3275 997 
Q 3138 488 2766 206 
Q 2394 -75 1816 -75 
Q 1088 -75 661 373 
Q 234 822 234 1631 
Q 234 2469 665 2931 
Q 1097 3394 1784 3394 
Q 2450 3394 2872 2941 
Q 3294 2488 3294 1666 
Q 3294 1616 3291 1516 
L 816 1516 
Q 847 969 1125 678 
Q 1403 388 1819 388 
Q 2128 388 2347 550 
Q 2566 713 2694 1069 
z
M 847 1978 
L 2700 1978 
Q 2663 2397 2488 2606 
Q 2219 2931 1791 2931 
Q 1403 2931 1139 2672 
Q 875 2413 847 1978 
z
" transform="scale(0.015625)"/>
       <path id="ArialMT-73" d="M 197 991 
L 753 1078 
Q 800 744 1014 566 
Q 1228 388 1613 388 
Q 2000 388 2187 545 
Q 2375 703 2375 916 
Q 2375 1106 2209 1216 
Q 2094 1291 1634 1406 
Q 1016 1563 777 1677 
Q 538 1791 414 1992 
Q 291 2194 291 2438 
Q 291 2659 392 2848 
Q 494 3038 669 3163 
Q 800 3259 1026 3326 
Q 1253 3394 1513 3394 
Q 1903 3394 2198 3281 
Q 2494 3169 2634 2976 
Q 2775 2784 2828 2463 
L 2278 2388 
Q 2241 2644 2061 2787 
Q 1881 2931 1553 2931 
Q 1166 2931 1000 2803 
Q 834 2675 834 2503 
Q 834 2394 903 2306 
Q 972 2216 1119 2156 
Q 1203 2125 1616 2013 
Q 2213 1853 2448 1751 
Q 2684 1650 2818 1456 
Q 2953 1263 2953 975 
Q 2953 694 2789 445 
Q 2625 197 2315 61 
Q 2006 -75 1616 -75 
Q 969 -75 630 194 
Q 291 463 197 991 
z
" transform="scale(0.015625)"/>
       <path id="ArialMT-6c" d="M 409 0 
L 409 4581 
L 972 4581 
L 972 0 
L 409 0 
z
" transform="scale(0.015625)"/>
       <path id="ArialMT-20" transform="scale(0.015625)"/>
       <path id="ArialMT-28" d="M 1497 -1347 
Q 1031 -759 709 28 
Q 388 816 388 1659 
Q 388 2403 628 3084 
Q 909 3875 1497 4659 
L 1900 4659 
Q 1522 4009 1400 3731 
Q 1209 3300 1100 2831 
Q 966 2247 966 1656 
Q 966 153 1900 -1347 
L 1497 -1347 
z
" transform="scale(0.015625)"/>
       <path id="ArialMT-47" d="M 2638 1797 
L 2638 2334 
L 4578 2338 
L 4578 638 
Q 4131 281 3656 101 
Q 3181 -78 2681 -78 
Q 2006 -78 1454 211 
Q 903 500 622 1047 
Q 341 1594 341 2269 
Q 341 2938 620 3517 
Q 900 4097 1425 4378 
Q 1950 4659 2634 4659 
Q 3131 4659 3532 4498 
Q 3934 4338 4162 4050 
Q 4391 3763 4509 3300 
L 3963 3150 
Q 3859 3500 3706 3700 
Q 3553 3900 3268 4020 
Q 2984 4141 2638 4141 
Q 2222 4141 1919 4014 
Q 1616 3888 1430 3681 
Q 1244 3475 1141 3228 
Q 966 2803 966 2306 
Q 966 1694 1177 1281 
Q 1388 869 1791 669 
Q 2194 469 2647 469 
Q 3041 469 3416 620 
Q 3791 772 3984 944 
L 3984 1797 
L 2638 1797 
z
" transform="scale(0.015625)"/>
       <path id="ArialMT-61" d="M 2588 409 
Q 2275 144 1986 34 
Q 1697 -75 1366 -75 
Q 819 -75 525 192 
Q 231 459 231 875 
Q 231 1119 342 1320 
Q 453 1522 633 1644 
Q 813 1766 1038 1828 
Q 1203 1872 1538 1913 
Q 2219 1994 2541 2106 
Q 2544 2222 2544 2253 
Q 2544 2597 2384 2738 
Q 2169 2928 1744 2928 
Q 1347 2928 1158 2789 
Q 969 2650 878 2297 
L 328 2372 
Q 403 2725 575 2942 
Q 747 3159 1072 3276 
Q 1397 3394 1825 3394 
Q 2250 3394 2515 3294 
Q 2781 3194 2906 3042 
Q 3031 2891 3081 2659 
Q 3109 2516 3109 2141 
L 3109 1391 
Q 3109 606 3145 398 
Q 3181 191 3288 0 
L 2700 0 
Q 2613 175 2588 409 
z
M 2541 1666 
Q 2234 1541 1622 1453 
Q 1275 1403 1131 1340 
Q 988 1278 909 1158 
Q 831 1038 831 891 
Q 831 666 1001 516 
Q 1172 366 1500 366 
Q 1825 366 2078 508 
Q 2331 650 2450 897 
Q 2541 1088 2541 1459 
L 2541 1666 
z
" transform="scale(0.015625)"/>
       <path id="ArialMT-6f" d="M 213 1659 
Q 213 2581 725 3025 
Q 1153 3394 1769 3394 
Q 2453 3394 2887 2945 
Q 3322 2497 3322 1706 
Q 3322 1066 3130 698 
Q 2938 331 2570 128 
Q 2203 -75 1769 -75 
Q 1072 -75 642 372 
Q 213 819 213 1659 
z
M 791 1659 
Q 791 1022 1069 705 
Q 1347 388 1769 388 
Q 2188 388 2466 706 
Q 2744 1025 2744 1678 
Q 2744 2294 2464 2611 
Q 2184 2928 1769 2928 
Q 1347 2928 1069 2612 
Q 791 2297 791 1659 
z
" transform="scale(0.015625)"/>
       <path id="ArialMT-6e" d="M 422 0 
L 422 3319 
L 928 3319 
L 928 2847 
Q 1294 3394 1984 3394 
Q 2284 3394 2536 3286 
Q 2788 3178 2913 3003 
Q 3038 2828 3088 2588 
Q 3119 2431 3119 2041 
L 3119 0 
L 2556 0 
L 2556 2019 
Q 2556 2363 2490 2533 
Q 2425 2703 2258 2804 
Q 2091 2906 1866 2906 
Q 1506 2906 1245 2678 
Q 984 2450 984 1813 
L 984 0 
L 422 0 
z
" transform="scale(0.015625)"/>
       <path id="ArialMT-29" d="M 791 -1347 
L 388 -1347 
Q 1322 153 1322 1656 
Q 1322 2244 1188 2822 
Q 1081 3291 891 3722 
Q 769 4003 388 4659 
L 791 4659 
Q 1378 3875 1659 3084 
Q 1900 2403 1900 1659 
Q 1900 816 1576 28 
Q 1253 -759 791 -1347 
z
" transform="scale(0.015625)"/>
      </defs>
      <use xlink:href="#ArialMT-44"/>
      <use xlink:href="#ArialMT-69" transform="translate(72.216797 0)"/>
      <use xlink:href="#ArialMT-65" transform="translate(94.433594 0)"/>
      <use xlink:href="#ArialMT-73" transform="translate(150.048828 0)"/>
      <use xlink:href="#ArialMT-65" transform="translate(200.048828 0)"/>
      <use xlink:href="#ArialMT-6c" transform="translate(255.664062 0)"/>
      <use xlink:href="#ArialMT-20" transform="translate(277.880859 0)"/>
      <use xlink:href="#ArialMT-28" transform="translate(305.664062 0)"/>
      <use xlink:href="#ArialMT-47" transform="translate(338.964844 0)"/>
      <use xlink:href="#ArialMT-61" transform="translate(416.748047 0)"/>
      <use xlink:href="#ArialMT-6c" transform="translate(472.363281 0)"/>
      <use xlink:href="#ArialMT-6c" transform="translate(494.580078 0)"/>
      <use xlink:href="#ArialMT-6f" transform="translate(516.796875 0)"/>
      <use xlink:href="#ArialMT-6e" transform="translate(572.412109 0)"/>
      <use xlink:href="#ArialMT-29" transform="translate(628.027344 0)"/>
     </g>
    </g>
   </g>
   <g id="line2d_71">
    <path d="M 98.136875 184.94576 
L 126.036875 208.020148 
L 153.936875 215.919652 
L 181.836875 213.144638 
L 209.736875 186.835317 
L 237.636875 126.452742 
L 265.536875 121.860757 
L 293.436875 113.059787 
L 321.336875 111.238063 
L 349.236875 113.093952 
L 377.136875 111.120931 
L 405.036875 108.650072 
L 432.936875 106.200408 
L 460.836875 105.794382 
L 488.736875 108.542237 
L 516.636875 108.721006 
L 544.536875 105.875499 
L 572.436875 107.566236 
L 600.336875 110.720167 
L 628.236875 118.275775 
L 656.136875 121.69714 
L 684.036875 121.238835 
L 711.936875 122.854321 
L 739.836875 148.945794 
" clip-path="url(#p6317714736)" style="fill: none; stroke: #9edae5; stroke-opacity: 0.8; stroke-width: 1.5; stroke-linecap: round"/>
   </g>
   <g id="line2d_72">
    <path d="M 98.136875 246.343942 
L 126.036875 248.483524 
L 153.936875 249.401963 
L 181.836875 249.762836 
L 209.736875 247.432692 
L 237.636875 239.871129 
L 265.536875 225.639514 
L 293.436875 208.729202 
L 321.336875 204.311509 
L 349.236875 203.252819 
L 377.136875 202.19308 
L 405.036875 198.669018 
L 432.936875 186.937373 
L 460.836875 181.755804 
L 488.736875 173.661769 
L 516.636875 170.810474 
L 544.536875 170.061104 
L 572.436875 171.862042 
L 600.336875 202.845267 
L 628.236875 212.70223 
L 656.136875 221.193293 
L 684.036875 228.391352 
L 711.936875 234.835713 
L 739.836875 242.830939 
" clip-path="url(#p6317714736)" style="fill: none; stroke: #f7b6d2; stroke-opacity: 0.8; stroke-width: 1.5; stroke-linecap: round"/>
   </g>
   <g id="line2d_73">
    <path d="M 98.136875 245.59171 
L 126.036875 247.687415 
L 153.936875 248.385208 
L 181.836875 248.147339 
L 209.736875 245.356388 
L 237.636875 236.278739 
L 265.536875 223.540686 
L 293.436875 207.144853 
L 321.336875 201.461077 
L 349.236875 199.605451 
L 377.136875 198.039499 
L 405.036875 185.940387 
L 432.936875 177.280472 
L 460.836875 174.575157 
L 488.736875 170.605052 
L 516.636875 169.988315 
L 544.536875 169.1794 
L 572.436875 171.066111 
L 600.336875 202.970654 
L 628.236875 212.001425 
L 656.136875 220.078859 
L 684.036875 226.648527 
L 711.936875 233.211734 
L 739.836875 243.125493 
" clip-path="url(#p6317714736)" style="fill: none; stroke: #bcbd22; stroke-opacity: 0.8; stroke-width: 1.5; stroke-linecap: round"/>
   </g>
   <g id="line2d_74">
    <path d="M 98.136875 209.05066 
L 126.036875 224.590524 
L 153.936875 229.7549 
L 181.836875 226.902346 
L 209.736875 205.373527 
L 237.636875 156.381205 
L 265.536875 120.782798 
L 293.436875 121.316659 
L 321.336875 117.820338 
L 349.236875 120.704342 
L 377.136875 121.67636 
L 405.036875 121.113035 
L 432.936875 120.011688 
L 460.836875 119.413424 
L 488.736875 120.264935 
L 516.636875 121.164616 
L 544.536875 121.856042 
L 572.436875 121.680972 
L 600.336875 125.740597 
L 628.236875 130.72165 
L 656.136875 112.446063 
L 684.036875 127.674968 
L 711.936875 153.745153 
L 739.836875 183.697524 
" clip-path="url(#p6317714736)" style="fill: none; stroke: #9467bd; stroke-opacity: 0.8; stroke-width: 1.5; stroke-linecap: round"/>
   </g>
   <g id="line2d_75">
    <path d="M 98.136875 229.514967 
L 126.036875 237.894961 
L 153.936875 241.060462 
L 181.836875 241.164076 
L 209.736875 231.830236 
L 237.636875 207.191316 
L 265.536875 187.501981 
L 293.436875 173.343204 
L 321.336875 173.292383 
L 349.236875 174.508272 
L 377.136875 173.324803 
L 405.036875 172.166123 
L 432.936875 171.298633 
L 460.836875 171.066315 
L 488.736875 170.461805 
L 516.636875 167.873019 
L 544.536875 167.026776 
L 572.436875 169.391256 
L 600.336875 175.68406 
L 628.236875 179.959788 
L 656.136875 177.206339 
L 684.036875 186.372158 
L 711.936875 200.551205 
L 739.836875 216.353372 
" clip-path="url(#p6317714736)" style="fill: none; stroke: #c5b0d5; stroke-opacity: 0.8; stroke-width: 1.5; stroke-linecap: round"/>
   </g>
   <g id="line2d_76">
    <path d="M 98.136875 244.567145 
L 126.036875 247.781386 
L 153.936875 249.035958 
L 181.836875 249.860707 
L 209.736875 246.929618 
L 237.636875 237.505907 
L 265.536875 221.031924 
L 293.436875 203.59536 
L 321.336875 198.098314 
L 349.236875 197.419487 
L 377.136875 180.992815 
L 405.036875 172.88772 
L 432.936875 167.922322 
L 460.836875 167.954626 
L 488.736875 166.248897 
L 516.636875 165.625069 
L 544.536875 164.704496 
L 572.436875 164.09092 
L 600.336875 176.187951 
L 628.236875 203.282038 
L 656.136875 213.748887 
L 684.036875 222.483346 
L 711.936875 229.497225 
L 739.836875 239.049338 
" clip-path="url(#p6317714736)" style="fill: none; stroke: #8c564b; stroke-opacity: 0.8; stroke-width: 1.5; stroke-linecap: round"/>
   </g>
   <g id="line2d_77">
    <path d="M 98.136875 243.83266 
L 126.036875 247.705455 
L 153.936875 249.051462 
L 181.836875 250.004946 
L 209.736875 247.355694 
L 237.636875 238.690763 
L 265.536875 223.365524 
L 293.436875 205.920811 
L 321.336875 200.938208 
L 349.236875 199.712555 
L 377.136875 193.288187 
L 405.036875 185.083149 
L 432.936875 170.74769 
L 460.836875 168.336457 
L 488.736875 166.706457 
L 516.636875 168.617908 
L 544.536875 166.576437 
L 572.436875 166.12351 
L 600.336875 177.436352 
L 628.236875 203.535599 
L 656.136875 213.997107 
L 684.036875 221.309635 
L 711.936875 228.880268 
L 739.836875 237.759746 
" clip-path="url(#p6317714736)" style="fill: none; stroke: #7f7f7f; stroke-opacity: 0.8; stroke-width: 1.5; stroke-linecap: round"/>
   </g>
   <g id="line2d_78">
    <path d="M 98.136875 227.801989 
L 126.036875 236.720694 
L 153.936875 240.115794 
L 181.836875 240.941634 
L 209.736875 232.817962 
L 237.636875 211.021128 
L 265.536875 182.397793 
L 293.436875 158.844918 
L 321.336875 157.708692 
L 349.236875 164.950279 
L 377.136875 164.323453 
L 405.036875 160.156262 
L 432.936875 154.277588 
L 460.836875 151.381095 
L 488.736875 146.261544 
L 516.636875 141.525966 
L 544.536875 129.899126 
L 572.436875 139.083448 
L 600.336875 158.619978 
L 628.236875 155.412955 
L 656.136875 164.613595 
L 684.036875 176.948194 
L 711.936875 192.458565 
L 739.836875 212.393322 
" clip-path="url(#p6317714736)" style="fill: none; stroke: #9edae5; stroke-opacity: 0.8; stroke-width: 1.5; stroke-linecap: round"/>
   </g>
   <g id="line2d_79">
    <path d="M 98.136875 233.581901 
L 126.036875 240.618021 
L 153.936875 243.187819 
L 181.836875 243.772872 
L 209.736875 236.596383 
L 237.636875 217.279246 
L 265.536875 189.274639 
L 293.436875 169.117347 
L 321.336875 164.715644 
L 349.236875 164.468516 
L 377.136875 163.996999 
L 405.036875 162.819808 
L 432.936875 162.409041 
L 460.836875 162.374294 
L 488.736875 162.454513 
L 516.636875 163.461411 
L 544.536875 162.841078 
L 572.436875 161.279663 
L 600.336875 162.043511 
L 628.236875 168.631275 
L 656.136875 175.864188 
L 684.036875 186.48809 
L 711.936875 201.248104 
L 739.836875 221.626175 
" clip-path="url(#p6317714736)" style="fill: none; stroke: #c7c7c7; stroke-opacity: 0.8; stroke-width: 1.5; stroke-linecap: round"/>
   </g>
   <g id="line2d_80">
    <path d="M 98.136875 236.042903 
L 126.036875 242.213931 
L 153.936875 244.930682 
L 181.836875 247.175491 
L 209.736875 241.731184 
L 237.636875 227.531562 
L 265.536875 209.626795 
L 293.436875 192.827795 
L 321.336875 184.358828 
L 349.236875 183.091749 
L 377.136875 181.346145 
L 405.036875 176.846021 
L 432.936875 172.672688 
L 460.836875 170.417203 
L 488.736875 161.948843 
L 516.636875 151.145858 
L 544.536875 144.151277 
L 572.436875 143.904587 
L 600.336875 166.739246 
L 628.236875 184.928177 
L 656.136875 194.925006 
L 684.036875 203.653366 
L 711.936875 212.169389 
L 739.836875 226.678358 
" clip-path="url(#p6317714736)" style="fill: none; stroke: #c49c94; stroke-opacity: 0.8; stroke-width: 1.5; stroke-linecap: round"/>
   </g>
   <g id="line2d_81">
    <path d="M 98.136875 235.826775 
L 126.036875 241.960298 
L 153.936875 244.40684 
L 181.836875 246.057446 
L 209.736875 240.862192 
L 237.636875 226.107653 
L 265.536875 206.913306 
L 293.436875 189.307236 
L 321.336875 179.443502 
L 349.236875 177.302595 
L 377.136875 170.749609 
L 405.036875 151.992991 
L 432.936875 143.456439 
L 460.836875 140.06124 
L 488.736875 134.822881 
L 516.636875 134.193817 
L 544.536875 135.899707 
L 572.436875 139.001851 
L 600.336875 154.99875 
L 628.236875 179.66198 
L 656.136875 193.758017 
L 684.036875 202.464494 
L 711.936875 211.597221 
L 739.836875 226.496475 
" clip-path="url(#p6317714736)" style="fill: none; stroke: #1f77b4; stroke-opacity: 0.8; stroke-width: 1.5; stroke-linecap: round"/>
   </g>
   <g id="line2d_82">
    <path d="M 98.136875 244.850279 
L 126.036875 247.782235 
L 153.936875 249.164269 
L 181.836875 249.796136 
L 209.736875 246.485948 
L 237.636875 237.78539 
L 265.536875 223.755039 
L 293.436875 206.678621 
L 321.336875 200.718835 
L 349.236875 198.702703 
L 377.136875 196.861267 
L 405.036875 190.568278 
L 432.936875 177.660704 
L 460.836875 170.602906 
L 488.736875 163.383272 
L 516.636875 159.106661 
L 544.536875 155.684076 
L 572.436875 158.292061 
L 600.336875 185.547844 
L 628.236875 204.161502 
L 656.136875 215.214388 
L 684.036875 223.03173 
L 711.936875 230.007189 
L 739.836875 239.753659 
" clip-path="url(#p6317714736)" style="fill: none; stroke: #aec7e8; stroke-opacity: 0.8; stroke-width: 1.5; stroke-linecap: round"/>
   </g>
   <g id="line2d_83">
    <path d="M 98.136875 246.119081 
L 126.036875 248.618835 
L 153.936875 249.807372 
L 181.836875 250.493776 
L 209.736875 248.179465 
L 237.636875 239.112845 
L 265.536875 224.769209 
L 293.436875 202.767009 
L 321.336875 195.008052 
L 349.236875 192.684086 
L 377.136875 193.545691 
L 405.036875 191.277079 
L 432.936875 189.843576 
L 460.836875 191.598409 
L 488.736875 187.886051 
L 516.636875 183.380831 
L 544.536875 182.098803 
L 572.436875 182.688499 
L 600.336875 190.049271 
L 628.236875 199.047037 
L 656.136875 215.350403 
L 684.036875 225.419084 
L 711.936875 233.390872 
L 739.836875 240.745426 
" clip-path="url(#p6317714736)" style="fill: none; stroke: #1f77b4; stroke-opacity: 0.8; stroke-width: 1.5; stroke-linecap: round"/>
   </g>
   <g id="line2d_84">
    <path d="M 98.136875 241.416553 
L 126.036875 245.299259 
L 153.936875 247.233759 
L 181.836875 248.563826 
L 209.736875 245.101708 
L 237.636875 233.540542 
L 265.536875 215.555947 
L 293.436875 189.189795 
L 321.336875 179.965148 
L 349.236875 178.966596 
L 377.136875 180.131294 
L 405.036875 175.376497 
L 432.936875 170.106343 
L 460.836875 169.758565 
L 488.736875 146.904271 
L 516.636875 135.16698 
L 544.536875 125.250103 
L 572.436875 123.460139 
L 600.336875 161.853821 
L 628.236875 179.524016 
L 656.136875 198.351807 
L 684.036875 213.047957 
L 711.936875 222.89686 
L 739.836875 233.535121 
" clip-path="url(#p6317714736)" style="fill: none; stroke: #e377c2; stroke-opacity: 0.8; stroke-width: 1.5; stroke-linecap: round"/>
   </g>
   <g id="line2d_85">
    <path d="M 98.136875 245.166571 
L 126.036875 247.315515 
L 153.936875 247.936113 
L 181.836875 248.386685 
L 209.736875 246.196953 
L 237.636875 238.164916 
L 265.536875 225.24258 
L 293.436875 206.939436 
L 321.336875 199.842387 
L 349.236875 197.821583 
L 377.136875 198.110522 
L 405.036875 195.718151 
L 432.936875 193.784016 
L 460.836875 193.536095 
L 488.736875 189.430901 
L 516.636875 183.737926 
L 544.536875 170.59166 
L 572.436875 169.221079 
L 600.336875 197.974101 
L 628.236875 205.299772 
L 656.136875 214.195917 
L 684.036875 222.170203 
L 711.936875 229.942263 
L 739.836875 241.677826 
" clip-path="url(#p6317714736)" style="fill: none; stroke: #ff7f0e; stroke-opacity: 0.8; stroke-width: 1.5; stroke-linecap: round"/>
   </g>
   <g id="line2d_86">
    <path d="M 98.136875 247.157665 
L 126.036875 249.40006 
L 153.936875 250.382921 
L 181.836875 250.930362 
L 209.736875 248.745928 
L 237.636875 240.589365 
L 265.536875 225.678066 
L 293.436875 206.581194 
L 321.336875 201.121177 
L 349.236875 199.646983 
L 377.136875 199.009212 
L 405.036875 198.410897 
L 432.936875 196.847552 
L 460.836875 196.454154 
L 488.736875 192.656128 
L 516.636875 188.908123 
L 544.536875 174.586562 
L 572.436875 172.519404 
L 600.336875 198.159385 
L 628.236875 207.517895 
L 656.136875 219.205443 
L 684.036875 227.636119 
L 711.936875 234.767907 
L 739.836875 242.414283 
" clip-path="url(#p6317714736)" style="fill: none; stroke: #98df8a; stroke-opacity: 0.8; stroke-width: 1.5; stroke-linecap: round"/>
   </g>
   <g id="line2d_87">
    <path d="M 98.136875 240.901147 
L 126.036875 244.924892 
L 153.936875 247.134951 
L 181.836875 248.40903 
L 209.736875 244.826115 
L 237.636875 232.441577 
L 265.536875 212.101115 
L 293.436875 185.010848 
L 321.336875 173.470359 
L 349.236875 170.68858 
L 377.136875 173.953707 
L 405.036875 169.648923 
L 432.936875 167.264388 
L 460.836875 171.116874 
L 488.736875 161.592538 
L 516.636875 156.074522 
L 544.536875 141.050071 
L 572.436875 130.682914 
L 600.336875 170.159783 
L 628.236875 173.646486 
L 656.136875 195.861541 
L 684.036875 211.23095 
L 711.936875 221.529001 
L 739.836875 232.55528 
" clip-path="url(#p6317714736)" style="fill: none; stroke: #d62728; stroke-opacity: 0.8; stroke-width: 1.5; stroke-linecap: round"/>
   </g>
   <g id="line2d_88">
    <path d="M 98.136875 183.05314 
L 126.036875 206.37007 
L 153.936875 214.436621 
L 181.836875 215.309651 
L 209.736875 191.446702 
L 237.636875 146.562385 
L 265.536875 96.739384 
L 293.436875 74.959508 
L 321.336875 71.092639 
L 349.236875 69.878715 
L 377.136875 68.665675 
L 405.036875 68.37714 
L 432.936875 67.43198 
L 460.836875 68.461285 
L 488.736875 67.641988 
L 516.636875 66.896821 
L 544.536875 69.9333 
L 572.436875 71.953319 
L 600.336875 67.305585 
L 628.236875 66.671447 
L 656.136875 80.119466 
L 684.036875 94.002207 
L 711.936875 120.557215 
L 739.836875 157.961149 
" clip-path="url(#p6317714736)" style="fill: none; stroke: #ffbb78; stroke-opacity: 0.8; stroke-width: 1.5; stroke-linecap: round"/>
   </g>
   <g id="line2d_89">
    <path d="M 98.136875 183.297302 
L 126.036875 208.363813 
L 153.936875 215.855807 
L 181.836875 216.817844 
L 209.736875 191.288442 
L 237.636875 141.089864 
L 265.536875 90.044315 
L 293.436875 80.497434 
L 321.336875 76.510327 
L 349.236875 75.549817 
L 377.136875 74.813418 
L 405.036875 76.283378 
L 432.936875 76.376914 
L 460.836875 77.409242 
L 488.736875 78.527575 
L 516.636875 79.562606 
L 544.536875 80.273886 
L 572.436875 81.811687 
L 600.336875 80.386229 
L 628.236875 98.400503 
L 656.136875 78.87735 
L 684.036875 89.544102 
L 711.936875 114.329691 
L 739.836875 151.233877 
" clip-path="url(#p6317714736)" style="fill: none; stroke: #2ca02c; stroke-opacity: 0.8; stroke-width: 1.5; stroke-linecap: round"/>
   </g>
   <g id="line2d_90">
    <path d="M 98.136875 212.701137 
L 126.036875 226.302805 
L 153.936875 231.327757 
L 181.836875 230.409368 
L 209.736875 212.819624 
L 237.636875 173.61529 
L 265.536875 143.317644 
L 293.436875 127.24623 
L 321.336875 124.959728 
L 349.236875 125.191215 
L 377.136875 125.601128 
L 405.036875 124.484797 
L 432.936875 123.739811 
L 460.836875 124.765167 
L 488.736875 124.428692 
L 516.636875 126.492945 
L 544.536875 126.765072 
L 572.436875 126.0982 
L 600.336875 129.477244 
L 628.236875 132.713014 
L 656.136875 135.061456 
L 684.036875 148.94554 
L 711.936875 168.213121 
L 739.836875 195.016336 
" clip-path="url(#p6317714736)" style="fill: none; stroke: #dbdb8d; stroke-opacity: 0.8; stroke-width: 1.5; stroke-linecap: round"/>
   </g>
   <g id="line2d_91">
    <path d="M 98.136875 233.665898 
L 126.036875 240.639352 
L 153.936875 242.626565 
L 181.836875 242.051137 
L 209.736875 232.3119 
L 237.636875 210.021675 
L 265.536875 184.584941 
L 293.436875 160.971387 
L 321.336875 163.959492 
L 349.236875 168.985405 
L 377.136875 168.424161 
L 405.036875 165.865524 
L 432.936875 162.814351 
L 460.836875 161.201572 
L 488.736875 157.656787 
L 516.636875 153.962786 
L 544.536875 152.970105 
L 572.436875 160.277495 
L 600.336875 172.339486 
L 628.236875 165.206028 
L 656.136875 181.221628 
L 684.036875 193.455799 
L 711.936875 207.537904 
L 739.836875 223.917878 
" clip-path="url(#p6317714736)" style="fill: none; stroke: #d62728; stroke-opacity: 0.8; stroke-width: 1.5; stroke-linecap: round"/>
   </g>
   <g id="line2d_92">
    <path d="M 98.136875 233.797752 
L 126.036875 240.44299 
L 153.936875 242.34262 
L 181.836875 241.302242 
L 209.736875 230.634748 
L 237.636875 202.241628 
L 265.536875 177.004794 
L 293.436875 166.73806 
L 321.336875 170.684263 
L 349.236875 169.966091 
L 377.136875 169.341791 
L 405.036875 167.733427 
L 432.936875 165.588453 
L 460.836875 164.955274 
L 488.736875 162.834682 
L 516.636875 162.243811 
L 544.536875 161.506255 
L 572.436875 166.328852 
L 600.336875 174.544991 
L 628.236875 161.445077 
L 656.136875 176.219606 
L 684.036875 188.571716 
L 711.936875 203.703196 
L 739.836875 223.458349 
" clip-path="url(#p6317714736)" style="fill: none; stroke: #ff9896; stroke-opacity: 0.8; stroke-width: 1.5; stroke-linecap: round"/>
   </g>
   <g id="line2d_93">
    <path d="M 98.136875 236.32749 
L 126.036875 242.500236 
L 153.936875 244.945924 
L 181.836875 246.495306 
L 209.736875 240.656961 
L 237.636875 222.385532 
L 265.536875 198.756932 
L 293.436875 167.254642 
L 321.336875 162.68924 
L 349.236875 161.511711 
L 377.136875 161.44774 
L 405.036875 156.377314 
L 432.936875 148.116224 
L 460.836875 146.702973 
L 488.736875 134.566841 
L 516.636875 122.645016 
L 544.536875 107.796324 
L 572.436875 125.46282 
L 600.336875 156.782701 
L 628.236875 167.376791 
L 656.136875 185.146321 
L 684.036875 201.367901 
L 711.936875 212.906436 
L 739.836875 225.73399 
" clip-path="url(#p6317714736)" style="fill: none; stroke: #17becf; stroke-opacity: 0.8; stroke-width: 1.5; stroke-linecap: round"/>
   </g>
   <g id="line2d_94">
    <path d="M 98.136875 238.574368 
L 126.036875 243.938277 
L 153.936875 246.036403 
L 181.836875 247.130108 
L 209.736875 242.25701 
L 237.636875 225.898508 
L 265.536875 201.768917 
L 293.436875 172.308738 
L 321.336875 168.717612 
L 349.236875 168.368338 
L 377.136875 167.170211 
L 405.036875 162.247825 
L 432.936875 156.664292 
L 460.836875 154.430454 
L 488.736875 139.293629 
L 516.636875 118.496028 
L 544.536875 106.044826 
L 572.436875 117.063577 
L 600.336875 166.199999 
L 628.236875 175.60941 
L 656.136875 192.813369 
L 684.036875 207.16423 
L 711.936875 219.1843 
L 739.836875 229.908907 
" clip-path="url(#p6317714736)" style="fill: none; stroke: #f7b6d2; stroke-opacity: 0.8; stroke-width: 1.5; stroke-linecap: round"/>
   </g>
   <g id="patch_3">
    <path d="M 84.186875 263.48625 
L 84.186875 41.72625 
" style="fill: none; stroke: #000000; stroke-linejoin: miter; stroke-linecap: square"/>
   </g>
   <g id="patch_4">
    <path d="M 753.786875 263.48625 
L 753.786875 41.72625 
" style="fill: none; stroke: #000000; stroke-linejoin: miter; stroke-linecap: square"/>
   </g>
   <g id="patch_5">
    <path d="M 84.186875 263.48625 
L 753.786875 263.48625 
" style="fill: none; stroke: #000000; stroke-linejoin: miter; stroke-linecap: square"/>
   </g>
   <g id="patch_6">
    <path d="M 84.186875 41.72625 
L 753.786875 41.72625 
" style="fill: none; stroke: #000000; stroke-linejoin: miter; stroke-linecap: square"/>
   </g>
  </g>
 </g>
 <defs>
  <clipPath id="p6317714736">
   <rect x="84.186875" y="41.72625" width="669.6" height="221.76"/>
  </clipPath>
 </defs>
</svg>
