<?xml version="1.0" encoding="utf-8" standalone="no"?>
<!DOCTYPE svg PUBLIC "-//W3C//DTD SVG 1.1//EN"
  "http://www.w3.org/Graphics/SVG/1.1/DTD/svg11.dtd">
<svg xmlns:xlink="http://www.w3.org/1999/xlink" width="789.786875pt" height="338.0125pt" viewBox="0 0 789.786875 338.0125" xmlns="http://www.w3.org/2000/svg" version="1.1">
 <metadata>
  <rdf:RDF xmlns:dc="http://purl.org/dc/elements/1.1/" xmlns:cc="http://creativecommons.org/ns#" xmlns:rdf="http://www.w3.org/1999/02/22-rdf-syntax-ns#">
   <cc:Work>
    <dc:type rdf:resource="http://purl.org/dc/dcmitype/StillImage"/>
    <dc:date>2025-10-27T21:43:27.527114</dc:date>
    <dc:format>image/svg+xml</dc:format>
    <dc:creator>
     <cc:Agent>
      <dc:title>Matplotlib v3.10.7, https://matplotlib.org/</dc:title>
     </cc:Agent>
    </dc:creator>
   </cc:Work>
  </rdf:RDF>
 </metadata>
 <defs>
  <style type="text/css">*{stroke-linejoin: round; stroke-linecap: butt}</style>
 </defs>
 <g id="figure_1">
  <g id="patch_1">
   <path d="M 0 338.0125 
L 789.786875 338.0125 
L 789.786875 0 
L 0 0 
L 0 338.0125 
z
" style="fill: none"/>
  </g>
  <g id="axes_1">
   <g id="patch_2">
    <path d="M 84.186875 263.48625 
L 753.786875 263.48625 
L 753.786875 41.72625 
L 84.186875 41.72625 
L 84.186875 263.48625 
z
" style="fill: none"/>
   </g>
   <g id="line2d_1">
    <path d="M 104.477784 263.48625 
L 104.477784 41.72625 
" clip-path="url(#p98f93fb975)" style="fill: none; stroke-dasharray: 0.74,0.32; stroke-dashoffset: 0; stroke: #a9a9a9; stroke-opacity: 0.5; stroke-width: 0.2"/>
   </g>
   <g id="line2d_2">
    <path d="M 124.768693 263.48625 
L 124.768693 41.72625 
" clip-path="url(#p98f93fb975)" style="fill: none; stroke-dasharray: 0.74,0.32; stroke-dashoffset: 0; stroke: #a9a9a9; stroke-opacity: 0.5; stroke-width: 0.2"/>
   </g>
   <g id="line2d_3">
    <path d="M 145.059602 263.48625 
L 145.059602 41.72625 
" clip-path="url(#p98f93fb975)" style="fill: none; stroke-dasharray: 0.74,0.32; stroke-dashoffset: 0; stroke: #a9a9a9; stroke-opacity: 0.5; stroke-width: 0.2"/>
   </g>
   <g id="line2d_4">
    <path d="M 165.350511 263.48625 
L 165.350511 41.72625 
" clip-path="url(#p98f93fb975)" style="fill: none; stroke-dasharray: 0.74,0.32; stroke-dashoffset: 0; stroke: #a9a9a9; stroke-opacity: 0.5; stroke-width: 0.2"/>
   </g>
   <g id="line2d_5">
    <path d="M 185.64142 263.48625 
L 185.64142 41.72625 
" clip-path="url(#p98f93fb975)" style="fill: none; stroke-dasharray: 0.74,0.32; stroke-dashoffset: 0; stroke: #a9a9a9; stroke-opacity: 0.5; stroke-width: 0.2"/>
   </g>
   <g id="line2d_6">
    <path d="M 205.93233 263.48625 
L 205.93233 41.72625 
" clip-path="url(#p98f93fb975)" style="fill: none; stroke-dasharray: 0.74,0.32; stroke-dashoffset: 0; stroke: #a9a9a9; stroke-opacity: 0.5; stroke-width: 0.2"/>
   </g>
   <g id="line2d_7">
    <path d="M 226.223239 263.48625 
L 226.223239 41.72625 
" clip-path="url(#p98f93fb975)" style="fill: none; stroke-dasharray: 0.74,0.32; stroke-dashoffset: 0; stroke: #a9a9a9; stroke-opacity: 0.5; stroke-width: 0.2"/>
   </g>
   <g id="line2d_8">
    <path d="M 246.514148 263.48625 
L 246.514148 41.72625 
" clip-path="url(#p98f93fb975)" style="fill: none; stroke-dasharray: 0.74,0.32; stroke-dashoffset: 0; stroke: #a9a9a9; stroke-opacity: 0.5; stroke-width: 0.2"/>
   </g>
   <g id="line2d_9">
    <path d="M 266.805057 263.48625 
L 266.805057 41.72625 
" clip-path="url(#p98f93fb975)" style="fill: none; stroke-dasharray: 0.74,0.32; stroke-dashoffset: 0; stroke: #a9a9a9; stroke-opacity: 0.5; stroke-width: 0.2"/>
   </g>
   <g id="line2d_10">
    <path d="M 287.095966 263.48625 
L 287.095966 41.72625 
" clip-path="url(#p98f93fb975)" style="fill: none; stroke-dasharray: 0.74,0.32; stroke-dashoffset: 0; stroke: #a9a9a9; stroke-opacity: 0.5; stroke-width: 0.2"/>
   </g>
   <g id="line2d_11">
    <path d="M 307.386875 263.48625 
L 307.386875 41.72625 
" clip-path="url(#p98f93fb975)" style="fill: none; stroke-dasharray: 0.74,0.32; stroke-dashoffset: 0; stroke: #a9a9a9; stroke-opacity: 0.5; stroke-width: 0.2"/>
   </g>
   <g id="line2d_12">
    <path d="M 327.677784 263.48625 
L 327.677784 41.72625 
" clip-path="url(#p98f93fb975)" style="fill: none; stroke-dasharray: 0.74,0.32; stroke-dashoffset: 0; stroke: #a9a9a9; stroke-opacity: 0.5; stroke-width: 0.2"/>
   </g>
   <g id="line2d_13">
    <path d="M 347.968693 263.48625 
L 347.968693 41.72625 
" clip-path="url(#p98f93fb975)" style="fill: none; stroke-dasharray: 0.74,0.32; stroke-dashoffset: 0; stroke: #a9a9a9; stroke-opacity: 0.5; stroke-width: 0.2"/>
   </g>
   <g id="line2d_14">
    <path d="M 368.259602 263.48625 
L 368.259602 41.72625 
" clip-path="url(#p98f93fb975)" style="fill: none; stroke-dasharray: 0.74,0.32; stroke-dashoffset: 0; stroke: #a9a9a9; stroke-opacity: 0.5; stroke-width: 0.2"/>
   </g>
   <g id="line2d_15">
    <path d="M 388.550511 263.48625 
L 388.550511 41.72625 
" clip-path="url(#p98f93fb975)" style="fill: none; stroke-dasharray: 0.74,0.32; stroke-dashoffset: 0; stroke: #a9a9a9; stroke-opacity: 0.5; stroke-width: 0.2"/>
   </g>
   <g id="line2d_16">
    <path d="M 408.84142 263.48625 
L 408.84142 41.72625 
" clip-path="url(#p98f93fb975)" style="fill: none; stroke-dasharray: 0.74,0.32; stroke-dashoffset: 0; stroke: #a9a9a9; stroke-opacity: 0.5; stroke-width: 0.2"/>
   </g>
   <g id="line2d_17">
    <path d="M 429.13233 263.48625 
L 429.13233 41.72625 
" clip-path="url(#p98f93fb975)" style="fill: none; stroke-dasharray: 0.74,0.32; stroke-dashoffset: 0; stroke: #a9a9a9; stroke-opacity: 0.5; stroke-width: 0.2"/>
   </g>
   <g id="line2d_18">
    <path d="M 449.423239 263.48625 
L 449.423239 41.72625 
" clip-path="url(#p98f93fb975)" style="fill: none; stroke-dasharray: 0.74,0.32; stroke-dashoffset: 0; stroke: #a9a9a9; stroke-opacity: 0.5; stroke-width: 0.2"/>
   </g>
   <g id="line2d_19">
    <path d="M 469.714148 263.48625 
L 469.714148 41.72625 
" clip-path="url(#p98f93fb975)" style="fill: none; stroke-dasharray: 0.74,0.32; stroke-dashoffset: 0; stroke: #a9a9a9; stroke-opacity: 0.5; stroke-width: 0.2"/>
   </g>
   <g id="line2d_20">
    <path d="M 490.005057 263.48625 
L 490.005057 41.72625 
" clip-path="url(#p98f93fb975)" style="fill: none; stroke-dasharray: 0.74,0.32; stroke-dashoffset: 0; stroke: #a9a9a9; stroke-opacity: 0.5; stroke-width: 0.2"/>
   </g>
   <g id="line2d_21">
    <path d="M 510.295966 263.48625 
L 510.295966 41.72625 
" clip-path="url(#p98f93fb975)" style="fill: none; stroke-dasharray: 0.74,0.32; stroke-dashoffset: 0; stroke: #a9a9a9; stroke-opacity: 0.5; stroke-width: 0.2"/>
   </g>
   <g id="line2d_22">
    <path d="M 530.586875 263.48625 
L 530.586875 41.72625 
" clip-path="url(#p98f93fb975)" style="fill: none; stroke-dasharray: 0.74,0.32; stroke-dashoffset: 0; stroke: #a9a9a9; stroke-opacity: 0.5; stroke-width: 0.2"/>
   </g>
   <g id="line2d_23">
    <path d="M 550.877784 263.48625 
L 550.877784 41.72625 
" clip-path="url(#p98f93fb975)" style="fill: none; stroke-dasharray: 0.74,0.32; stroke-dashoffset: 0; stroke: #a9a9a9; stroke-opacity: 0.5; stroke-width: 0.2"/>
   </g>
   <g id="line2d_24">
    <path d="M 571.168693 263.48625 
L 571.168693 41.72625 
" clip-path="url(#p98f93fb975)" style="fill: none; stroke-dasharray: 0.74,0.32; stroke-dashoffset: 0; stroke: #a9a9a9; stroke-opacity: 0.5; stroke-width: 0.2"/>
   </g>
   <g id="line2d_25">
    <path d="M 591.459602 263.48625 
L 591.459602 41.72625 
" clip-path="url(#p98f93fb975)" style="fill: none; stroke-dasharray: 0.74,0.32; stroke-dashoffset: 0; stroke: #a9a9a9; stroke-opacity: 0.5; stroke-width: 0.2"/>
   </g>
   <g id="line2d_26">
    <path d="M 611.750511 263.48625 
L 611.750511 41.72625 
" clip-path="url(#p98f93fb975)" style="fill: none; stroke-dasharray: 0.74,0.32; stroke-dashoffset: 0; stroke: #a9a9a9; stroke-opacity: 0.5; stroke-width: 0.2"/>
   </g>
   <g id="line2d_27">
    <path d="M 632.04142 263.48625 
L 632.04142 41.72625 
" clip-path="url(#p98f93fb975)" style="fill: none; stroke-dasharray: 0.74,0.32; stroke-dashoffset: 0; stroke: #a9a9a9; stroke-opacity: 0.5; stroke-width: 0.2"/>
   </g>
   <g id="line2d_28">
    <path d="M 652.33233 263.48625 
L 652.33233 41.72625 
" clip-path="url(#p98f93fb975)" style="fill: none; stroke-dasharray: 0.74,0.32; stroke-dashoffset: 0; stroke: #a9a9a9; stroke-opacity: 0.5; stroke-width: 0.2"/>
   </g>
   <g id="line2d_29">
    <path d="M 672.623239 263.48625 
L 672.623239 41.72625 
" clip-path="url(#p98f93fb975)" style="fill: none; stroke-dasharray: 0.74,0.32; stroke-dashoffset: 0; stroke: #a9a9a9; stroke-opacity: 0.5; stroke-width: 0.2"/>
   </g>
   <g id="line2d_30">
    <path d="M 692.914148 263.48625 
L 692.914148 41.72625 
" clip-path="url(#p98f93fb975)" style="fill: none; stroke-dasharray: 0.74,0.32; stroke-dashoffset: 0; stroke: #a9a9a9; stroke-opacity: 0.5; stroke-width: 0.2"/>
   </g>
   <g id="line2d_31">
    <path d="M 713.205057 263.48625 
L 713.205057 41.72625 
" clip-path="url(#p98f93fb975)" style="fill: none; stroke-dasharray: 0.74,0.32; stroke-dashoffset: 0; stroke: #a9a9a9; stroke-opacity: 0.5; stroke-width: 0.2"/>
   </g>
   <g id="line2d_32">
    <path d="M 733.495966 263.48625 
L 733.495966 41.72625 
" clip-path="url(#p98f93fb975)" style="fill: none; stroke-dasharray: 0.74,0.32; stroke-dashoffset: 0; stroke: #a9a9a9; stroke-opacity: 0.5; stroke-width: 0.2"/>
   </g>
   <g id="line2d_33">
    <path d="M 84.186875 241.31025 
L 753.786875 241.31025 
" clip-path="url(#p98f93fb975)" style="fill: none; stroke-dasharray: 0.74,0.32; stroke-dashoffset: 0; stroke: #a9a9a9; stroke-opacity: 0.5; stroke-width: 0.2"/>
   </g>
   <g id="line2d_34">
    <path d="M 84.186875 219.13425 
L 753.786875 219.13425 
" clip-path="url(#p98f93fb975)" style="fill: none; stroke-dasharray: 0.74,0.32; stroke-dashoffset: 0; stroke: #a9a9a9; stroke-opacity: 0.5; stroke-width: 0.2"/>
   </g>
   <g id="line2d_35">
    <path d="M 84.186875 196.95825 
L 753.786875 196.95825 
" clip-path="url(#p98f93fb975)" style="fill: none; stroke-dasharray: 0.74,0.32; stroke-dashoffset: 0; stroke: #a9a9a9; stroke-opacity: 0.5; stroke-width: 0.2"/>
   </g>
   <g id="line2d_36">
    <path d="M 84.186875 174.78225 
L 753.786875 174.78225 
" clip-path="url(#p98f93fb975)" style="fill: none; stroke-dasharray: 0.74,0.32; stroke-dashoffset: 0; stroke: #a9a9a9; stroke-opacity: 0.5; stroke-width: 0.2"/>
   </g>
   <g id="line2d_37">
    <path d="M 84.186875 152.60625 
L 753.786875 152.60625 
" clip-path="url(#p98f93fb975)" style="fill: none; stroke-dasharray: 0.74,0.32; stroke-dashoffset: 0; stroke: #a9a9a9; stroke-opacity: 0.5; stroke-width: 0.2"/>
   </g>
   <g id="line2d_38">
    <path d="M 84.186875 130.43025 
L 753.786875 130.43025 
" clip-path="url(#p98f93fb975)" style="fill: none; stroke-dasharray: 0.74,0.32; stroke-dashoffset: 0; stroke: #a9a9a9; stroke-opacity: 0.5; stroke-width: 0.2"/>
   </g>
   <g id="line2d_39">
    <path d="M 84.186875 108.25425 
L 753.786875 108.25425 
" clip-path="url(#p98f93fb975)" style="fill: none; stroke-dasharray: 0.74,0.32; stroke-dashoffset: 0; stroke: #a9a9a9; stroke-opacity: 0.5; stroke-width: 0.2"/>
   </g>
   <g id="line2d_40">
    <path d="M 84.186875 86.07825 
L 753.786875 86.07825 
" clip-path="url(#p98f93fb975)" style="fill: none; stroke-dasharray: 0.74,0.32; stroke-dashoffset: 0; stroke: #a9a9a9; stroke-opacity: 0.5; stroke-width: 0.2"/>
   </g>
   <g id="line2d_41">
    <path d="M 84.186875 63.90225 
L 753.786875 63.90225 
" clip-path="url(#p98f93fb975)" style="fill: none; stroke-dasharray: 0.74,0.32; stroke-dashoffset: 0; stroke: #a9a9a9; stroke-opacity: 0.5; stroke-width: 0.2"/>
   </g>
   <g id="matplotlib.axis_1">
    <g id="xtick_1">
     <g id="line2d_42">
      <defs>
       <path id="maae597b34c" d="M 0 0 
L 0 5 
" style="stroke: #000000"/>
      </defs>
      <g>
       <use xlink:href="#maae597b34c" x="98.136875" y="263.48625" style="stroke: #000000"/>
      </g>
     </g>
     <g id="text_1">
      <!-- 1:00 -->
      <g transform="translate(101.239063 295.339375) rotate(-90) scale(0.12 -0.12)">
       <defs>
        <path id="ArialMT-31" d="M 2384 0 
L 1822 0 
L 1822 3584 
Q 1619 3391 1289 3197 
Q 959 3003 697 2906 
L 697 3450 
Q 1169 3672 1522 3987 
Q 1875 4303 2022 4600 
L 2384 4600 
L 2384 0 
z
" transform="scale(0.015625)"/>
        <path id="ArialMT-3a" d="M 578 2678 
L 578 3319 
L 1219 3319 
L 1219 2678 
L 578 2678 
z
M 578 0 
L 578 641 
L 1219 641 
L 1219 0 
L 578 0 
z
" transform="scale(0.015625)"/>
        <path id="ArialMT-30" d="M 266 2259 
Q 266 3072 433 3567 
Q 600 4063 929 4331 
Q 1259 4600 1759 4600 
Q 2128 4600 2406 4451 
Q 2684 4303 2865 4023 
Q 3047 3744 3150 3342 
Q 3253 2941 3253 2259 
Q 3253 1453 3087 958 
Q 2922 463 2592 192 
Q 2263 -78 1759 -78 
Q 1097 -78 719 397 
Q 266 969 266 2259 
z
M 844 2259 
Q 844 1131 1108 757 
Q 1372 384 1759 384 
Q 2147 384 2411 759 
Q 2675 1134 2675 2259 
Q 2675 3391 2411 3762 
Q 2147 4134 1753 4134 
Q 1366 4134 1134 3806 
Q 844 3388 844 2259 
z
" transform="scale(0.015625)"/>
       </defs>
       <use xlink:href="#ArialMT-31"/>
       <use xlink:href="#ArialMT-3a" transform="translate(55.615234 0)"/>
       <use xlink:href="#ArialMT-30" transform="translate(83.398438 0)"/>
       <use xlink:href="#ArialMT-30" transform="translate(139.013672 0)"/>
      </g>
     </g>
    </g>
    <g id="xtick_2">
     <g id="line2d_43">
      <g>
       <use xlink:href="#maae597b34c" x="126.036875" y="263.48625" style="stroke: #000000"/>
      </g>
     </g>
     <g id="text_2">
      <!-- 2:00 -->
      <g transform="translate(129.139063 295.339375) rotate(-90) scale(0.12 -0.12)">
       <defs>
        <path id="ArialMT-32" d="M 3222 541 
L 3222 0 
L 194 0 
Q 188 203 259 391 
Q 375 700 629 1000 
Q 884 1300 1366 1694 
Q 2113 2306 2375 2664 
Q 2638 3022 2638 3341 
Q 2638 3675 2398 3904 
Q 2159 4134 1775 4134 
Q 1369 4134 1125 3890 
Q 881 3647 878 3216 
L 300 3275 
Q 359 3922 746 4261 
Q 1134 4600 1788 4600 
Q 2447 4600 2831 4234 
Q 3216 3869 3216 3328 
Q 3216 3053 3103 2787 
Q 2991 2522 2730 2228 
Q 2469 1934 1863 1422 
Q 1356 997 1212 845 
Q 1069 694 975 541 
L 3222 541 
z
" transform="scale(0.015625)"/>
       </defs>
       <use xlink:href="#ArialMT-32"/>
       <use xlink:href="#ArialMT-3a" transform="translate(55.615234 0)"/>
       <use xlink:href="#ArialMT-30" transform="translate(83.398438 0)"/>
       <use xlink:href="#ArialMT-30" transform="translate(139.013672 0)"/>
      </g>
     </g>
    </g>
    <g id="xtick_3">
     <g id="line2d_44">
      <g>
       <use xlink:href="#maae597b34c" x="153.936875" y="263.48625" style="stroke: #000000"/>
      </g>
     </g>
     <g id="text_3">
      <!-- 3:00 -->
      <g transform="translate(157.039062 295.339375) rotate(-90) scale(0.12 -0.12)">
       <defs>
        <path id="ArialMT-33" d="M 269 1209 
L 831 1284 
Q 928 806 1161 595 
Q 1394 384 1728 384 
Q 2125 384 2398 659 
Q 2672 934 2672 1341 
Q 2672 1728 2419 1979 
Q 2166 2231 1775 2231 
Q 1616 2231 1378 2169 
L 1441 2663 
Q 1497 2656 1531 2656 
Q 1891 2656 2178 2843 
Q 2466 3031 2466 3422 
Q 2466 3731 2256 3934 
Q 2047 4138 1716 4138 
Q 1388 4138 1169 3931 
Q 950 3725 888 3313 
L 325 3413 
Q 428 3978 793 4289 
Q 1159 4600 1703 4600 
Q 2078 4600 2393 4439 
Q 2709 4278 2876 4000 
Q 3044 3722 3044 3409 
Q 3044 3113 2884 2869 
Q 2725 2625 2413 2481 
Q 2819 2388 3044 2092 
Q 3269 1797 3269 1353 
Q 3269 753 2831 336 
Q 2394 -81 1725 -81 
Q 1122 -81 723 278 
Q 325 638 269 1209 
z
" transform="scale(0.015625)"/>
       </defs>
       <use xlink:href="#ArialMT-33"/>
       <use xlink:href="#ArialMT-3a" transform="translate(55.615234 0)"/>
       <use xlink:href="#ArialMT-30" transform="translate(83.398438 0)"/>
       <use xlink:href="#ArialMT-30" transform="translate(139.013672 0)"/>
      </g>
     </g>
    </g>
    <g id="xtick_4">
     <g id="line2d_45">
      <g>
       <use xlink:href="#maae597b34c" x="181.836875" y="263.48625" style="stroke: #000000"/>
      </g>
     </g>
     <g id="text_4">
      <!-- 4:00 -->
      <g transform="translate(184.939062 295.339375) rotate(-90) scale(0.12 -0.12)">
       <defs>
        <path id="ArialMT-34" d="M 2069 0 
L 2069 1097 
L 81 1097 
L 81 1613 
L 2172 4581 
L 2631 4581 
L 2631 1613 
L 3250 1613 
L 3250 1097 
L 2631 1097 
L 2631 0 
L 2069 0 
z
M 2069 1613 
L 2069 3678 
L 634 1613 
L 2069 1613 
z
" transform="scale(0.015625)"/>
       </defs>
       <use xlink:href="#ArialMT-34"/>
       <use xlink:href="#ArialMT-3a" transform="translate(55.615234 0)"/>
       <use xlink:href="#ArialMT-30" transform="translate(83.398438 0)"/>
       <use xlink:href="#ArialMT-30" transform="translate(139.013672 0)"/>
      </g>
     </g>
    </g>
    <g id="xtick_5">
     <g id="line2d_46">
      <g>
       <use xlink:href="#maae597b34c" x="209.736875" y="263.48625" style="stroke: #000000"/>
      </g>
     </g>
     <g id="text_5">
      <!-- 5:00 -->
      <g transform="translate(212.839063 295.339375) rotate(-90) scale(0.12 -0.12)">
       <defs>
        <path id="ArialMT-35" d="M 266 1200 
L 856 1250 
Q 922 819 1161 601 
Q 1400 384 1738 384 
Q 2144 384 2425 690 
Q 2706 997 2706 1503 
Q 2706 1984 2436 2262 
Q 2166 2541 1728 2541 
Q 1456 2541 1237 2417 
Q 1019 2294 894 2097 
L 366 2166 
L 809 4519 
L 3088 4519 
L 3088 3981 
L 1259 3981 
L 1013 2750 
Q 1425 3038 1878 3038 
Q 2478 3038 2890 2622 
Q 3303 2206 3303 1553 
Q 3303 931 2941 478 
Q 2500 -78 1738 -78 
Q 1113 -78 717 272 
Q 322 622 266 1200 
z
" transform="scale(0.015625)"/>
       </defs>
       <use xlink:href="#ArialMT-35"/>
       <use xlink:href="#ArialMT-3a" transform="translate(55.615234 0)"/>
       <use xlink:href="#ArialMT-30" transform="translate(83.398438 0)"/>
       <use xlink:href="#ArialMT-30" transform="translate(139.013672 0)"/>
      </g>
     </g>
    </g>
    <g id="xtick_6">
     <g id="line2d_47">
      <g>
       <use xlink:href="#maae597b34c" x="237.636875" y="263.48625" style="stroke: #000000"/>
      </g>
     </g>
     <g id="text_6">
      <!-- 6:00 -->
      <g transform="translate(240.739062 295.339375) rotate(-90) scale(0.12 -0.12)">
       <defs>
        <path id="ArialMT-36" d="M 3184 3459 
L 2625 3416 
Q 2550 3747 2413 3897 
Q 2184 4138 1850 4138 
Q 1581 4138 1378 3988 
Q 1113 3794 959 3422 
Q 806 3050 800 2363 
Q 1003 2672 1297 2822 
Q 1591 2972 1913 2972 
Q 2475 2972 2870 2558 
Q 3266 2144 3266 1488 
Q 3266 1056 3080 686 
Q 2894 316 2569 119 
Q 2244 -78 1831 -78 
Q 1128 -78 684 439 
Q 241 956 241 2144 
Q 241 3472 731 4075 
Q 1159 4600 1884 4600 
Q 2425 4600 2770 4297 
Q 3116 3994 3184 3459 
z
M 888 1484 
Q 888 1194 1011 928 
Q 1134 663 1356 523 
Q 1578 384 1822 384 
Q 2178 384 2434 671 
Q 2691 959 2691 1453 
Q 2691 1928 2437 2201 
Q 2184 2475 1800 2475 
Q 1419 2475 1153 2201 
Q 888 1928 888 1484 
z
" transform="scale(0.015625)"/>
       </defs>
       <use xlink:href="#ArialMT-36"/>
       <use xlink:href="#ArialMT-3a" transform="translate(55.615234 0)"/>
       <use xlink:href="#ArialMT-30" transform="translate(83.398438 0)"/>
       <use xlink:href="#ArialMT-30" transform="translate(139.013672 0)"/>
      </g>
     </g>
    </g>
    <g id="xtick_7">
     <g id="line2d_48">
      <g>
       <use xlink:href="#maae597b34c" x="265.536875" y="263.48625" style="stroke: #000000"/>
      </g>
     </g>
     <g id="text_7">
      <!-- 7:00 -->
      <g transform="translate(268.639063 295.339375) rotate(-90) scale(0.12 -0.12)">
       <defs>
        <path id="ArialMT-37" d="M 303 3981 
L 303 4522 
L 3269 4522 
L 3269 4084 
Q 2831 3619 2401 2847 
Q 1972 2075 1738 1259 
Q 1569 684 1522 0 
L 944 0 
Q 953 541 1156 1306 
Q 1359 2072 1739 2783 
Q 2119 3494 2547 3981 
L 303 3981 
z
" transform="scale(0.015625)"/>
       </defs>
       <use xlink:href="#ArialMT-37"/>
       <use xlink:href="#ArialMT-3a" transform="translate(55.615234 0)"/>
       <use xlink:href="#ArialMT-30" transform="translate(83.398438 0)"/>
       <use xlink:href="#ArialMT-30" transform="translate(139.013672 0)"/>
      </g>
     </g>
    </g>
    <g id="xtick_8">
     <g id="line2d_49">
      <g>
       <use xlink:href="#maae597b34c" x="293.436875" y="263.48625" style="stroke: #000000"/>
      </g>
     </g>
     <g id="text_8">
      <!-- 8:00 -->
      <g transform="translate(296.539062 295.339375) rotate(-90) scale(0.12 -0.12)">
       <defs>
        <path id="ArialMT-38" d="M 1131 2484 
Q 781 2613 612 2850 
Q 444 3088 444 3419 
Q 444 3919 803 4259 
Q 1163 4600 1759 4600 
Q 2359 4600 2725 4251 
Q 3091 3903 3091 3403 
Q 3091 3084 2923 2848 
Q 2756 2613 2416 2484 
Q 2838 2347 3058 2040 
Q 3278 1734 3278 1309 
Q 3278 722 2862 322 
Q 2447 -78 1769 -78 
Q 1091 -78 675 323 
Q 259 725 259 1325 
Q 259 1772 486 2073 
Q 713 2375 1131 2484 
z
M 1019 3438 
Q 1019 3113 1228 2906 
Q 1438 2700 1772 2700 
Q 2097 2700 2305 2904 
Q 2513 3109 2513 3406 
Q 2513 3716 2298 3927 
Q 2084 4138 1766 4138 
Q 1444 4138 1231 3931 
Q 1019 3725 1019 3438 
z
M 838 1322 
Q 838 1081 952 856 
Q 1066 631 1291 507 
Q 1516 384 1775 384 
Q 2178 384 2440 643 
Q 2703 903 2703 1303 
Q 2703 1709 2433 1975 
Q 2163 2241 1756 2241 
Q 1359 2241 1098 1978 
Q 838 1716 838 1322 
z
" transform="scale(0.015625)"/>
       </defs>
       <use xlink:href="#ArialMT-38"/>
       <use xlink:href="#ArialMT-3a" transform="translate(55.615234 0)"/>
       <use xlink:href="#ArialMT-30" transform="translate(83.398438 0)"/>
       <use xlink:href="#ArialMT-30" transform="translate(139.013672 0)"/>
      </g>
     </g>
    </g>
    <g id="xtick_9">
     <g id="line2d_50">
      <g>
       <use xlink:href="#maae597b34c" x="321.336875" y="263.48625" style="stroke: #000000"/>
      </g>
     </g>
     <g id="text_9">
      <!-- 9:00 -->
      <g transform="translate(324.439062 295.339375) rotate(-90) scale(0.12 -0.12)">
       <defs>
        <path id="ArialMT-39" d="M 350 1059 
L 891 1109 
Q 959 728 1153 556 
Q 1347 384 1650 384 
Q 1909 384 2104 503 
Q 2300 622 2425 820 
Q 2550 1019 2634 1356 
Q 2719 1694 2719 2044 
Q 2719 2081 2716 2156 
Q 2547 1888 2255 1720 
Q 1963 1553 1622 1553 
Q 1053 1553 659 1965 
Q 266 2378 266 3053 
Q 266 3750 677 4175 
Q 1088 4600 1706 4600 
Q 2153 4600 2523 4359 
Q 2894 4119 3086 3673 
Q 3278 3228 3278 2384 
Q 3278 1506 3087 986 
Q 2897 466 2520 194 
Q 2144 -78 1638 -78 
Q 1100 -78 759 220 
Q 419 519 350 1059 
z
M 2653 3081 
Q 2653 3566 2395 3850 
Q 2138 4134 1775 4134 
Q 1400 4134 1122 3828 
Q 844 3522 844 3034 
Q 844 2597 1108 2323 
Q 1372 2050 1759 2050 
Q 2150 2050 2401 2323 
Q 2653 2597 2653 3081 
z
" transform="scale(0.015625)"/>
       </defs>
       <use xlink:href="#ArialMT-39"/>
       <use xlink:href="#ArialMT-3a" transform="translate(55.615234 0)"/>
       <use xlink:href="#ArialMT-30" transform="translate(83.398438 0)"/>
       <use xlink:href="#ArialMT-30" transform="translate(139.013672 0)"/>
      </g>
     </g>
    </g>
    <g id="xtick_10">
     <g id="line2d_51">
      <g>
       <use xlink:href="#maae597b34c" x="349.236875" y="263.48625" style="stroke: #000000"/>
      </g>
     </g>
     <g id="text_10">
      <!-- 10:00 -->
      <g transform="translate(352.339063 302.0125) rotate(-90) scale(0.12 -0.12)">
       <use xlink:href="#ArialMT-31"/>
       <use xlink:href="#ArialMT-30" transform="translate(55.615234 0)"/>
       <use xlink:href="#ArialMT-3a" transform="translate(111.230469 0)"/>
       <use xlink:href="#ArialMT-30" transform="translate(139.013672 0)"/>
       <use xlink:href="#ArialMT-30" transform="translate(194.628906 0)"/>
      </g>
     </g>
    </g>
    <g id="xtick_11">
     <g id="line2d_52">
      <g>
       <use xlink:href="#maae597b34c" x="377.136875" y="263.48625" style="stroke: #000000"/>
      </g>
     </g>
     <g id="text_11">
      <!-- 11:00 -->
      <g transform="translate(380.239063 301.1275) rotate(-90) scale(0.12 -0.12)">
       <use xlink:href="#ArialMT-31"/>
       <use xlink:href="#ArialMT-31" transform="translate(48.240234 0)"/>
       <use xlink:href="#ArialMT-3a" transform="translate(103.855469 0)"/>
       <use xlink:href="#ArialMT-30" transform="translate(131.638672 0)"/>
       <use xlink:href="#ArialMT-30" transform="translate(187.253906 0)"/>
      </g>
     </g>
    </g>
    <g id="xtick_12">
     <g id="line2d_53">
      <g>
       <use xlink:href="#maae597b34c" x="405.036875" y="263.48625" style="stroke: #000000"/>
      </g>
     </g>
     <g id="text_12">
      <!-- 12:00 -->
      <g transform="translate(408.139063 302.0125) rotate(-90) scale(0.12 -0.12)">
       <use xlink:href="#ArialMT-31"/>
       <use xlink:href="#ArialMT-32" transform="translate(55.615234 0)"/>
       <use xlink:href="#ArialMT-3a" transform="translate(111.230469 0)"/>
       <use xlink:href="#ArialMT-30" transform="translate(139.013672 0)"/>
       <use xlink:href="#ArialMT-30" transform="translate(194.628906 0)"/>
      </g>
     </g>
    </g>
    <g id="xtick_13">
     <g id="line2d_54">
      <g>
       <use xlink:href="#maae597b34c" x="432.936875" y="263.48625" style="stroke: #000000"/>
      </g>
     </g>
     <g id="text_13">
      <!-- 13:00 -->
      <g transform="translate(436.039062 302.0125) rotate(-90) scale(0.12 -0.12)">
       <use xlink:href="#ArialMT-31"/>
       <use xlink:href="#ArialMT-33" transform="translate(55.615234 0)"/>
       <use xlink:href="#ArialMT-3a" transform="translate(111.230469 0)"/>
       <use xlink:href="#ArialMT-30" transform="translate(139.013672 0)"/>
       <use xlink:href="#ArialMT-30" transform="translate(194.628906 0)"/>
      </g>
     </g>
    </g>
    <g id="xtick_14">
     <g id="line2d_55">
      <g>
       <use xlink:href="#maae597b34c" x="460.836875" y="263.48625" style="stroke: #000000"/>
      </g>
     </g>
     <g id="text_14">
      <!-- 14:00 -->
      <g transform="translate(463.939062 302.0125) rotate(-90) scale(0.12 -0.12)">
       <use xlink:href="#ArialMT-31"/>
       <use xlink:href="#ArialMT-34" transform="translate(55.615234 0)"/>
       <use xlink:href="#ArialMT-3a" transform="translate(111.230469 0)"/>
       <use xlink:href="#ArialMT-30" transform="translate(139.013672 0)"/>
       <use xlink:href="#ArialMT-30" transform="translate(194.628906 0)"/>
      </g>
     </g>
    </g>
    <g id="xtick_15">
     <g id="line2d_56">
      <g>
       <use xlink:href="#maae597b34c" x="488.736875" y="263.48625" style="stroke: #000000"/>
      </g>
     </g>
     <g id="text_15">
      <!-- 15:00 -->
      <g transform="translate(491.839062 302.0125) rotate(-90) scale(0.12 -0.12)">
       <use xlink:href="#ArialMT-31"/>
       <use xlink:href="#ArialMT-35" transform="translate(55.615234 0)"/>
       <use xlink:href="#ArialMT-3a" transform="translate(111.230469 0)"/>
       <use xlink:href="#ArialMT-30" transform="translate(139.013672 0)"/>
       <use xlink:href="#ArialMT-30" transform="translate(194.628906 0)"/>
      </g>
     </g>
    </g>
    <g id="xtick_16">
     <g id="line2d_57">
      <g>
       <use xlink:href="#maae597b34c" x="516.636875" y="263.48625" style="stroke: #000000"/>
      </g>
     </g>
     <g id="text_16">
      <!-- 16:00 -->
      <g transform="translate(519.739063 302.0125) rotate(-90) scale(0.12 -0.12)">
       <use xlink:href="#ArialMT-31"/>
       <use xlink:href="#ArialMT-36" transform="translate(55.615234 0)"/>
       <use xlink:href="#ArialMT-3a" transform="translate(111.230469 0)"/>
       <use xlink:href="#ArialMT-30" transform="translate(139.013672 0)"/>
       <use xlink:href="#ArialMT-30" transform="translate(194.628906 0)"/>
      </g>
     </g>
    </g>
    <g id="xtick_17">
     <g id="line2d_58">
      <g>
       <use xlink:href="#maae597b34c" x="544.536875" y="263.48625" style="stroke: #000000"/>
      </g>
     </g>
     <g id="text_17">
      <!-- 17:00 -->
      <g transform="translate(547.639063 302.0125) rotate(-90) scale(0.12 -0.12)">
       <use xlink:href="#ArialMT-31"/>
       <use xlink:href="#ArialMT-37" transform="translate(55.615234 0)"/>
       <use xlink:href="#ArialMT-3a" transform="translate(111.230469 0)"/>
       <use xlink:href="#ArialMT-30" transform="translate(139.013672 0)"/>
       <use xlink:href="#ArialMT-30" transform="translate(194.628906 0)"/>
      </g>
     </g>
    </g>
    <g id="xtick_18">
     <g id="line2d_59">
      <g>
       <use xlink:href="#maae597b34c" x="572.436875" y="263.48625" style="stroke: #000000"/>
      </g>
     </g>
     <g id="text_18">
      <!-- 18:00 -->
      <g transform="translate(575.539062 302.0125) rotate(-90) scale(0.12 -0.12)">
       <use xlink:href="#ArialMT-31"/>
       <use xlink:href="#ArialMT-38" transform="translate(55.615234 0)"/>
       <use xlink:href="#ArialMT-3a" transform="translate(111.230469 0)"/>
       <use xlink:href="#ArialMT-30" transform="translate(139.013672 0)"/>
       <use xlink:href="#ArialMT-30" transform="translate(194.628906 0)"/>
      </g>
     </g>
    </g>
    <g id="xtick_19">
     <g id="line2d_60">
      <g>
       <use xlink:href="#maae597b34c" x="600.336875" y="263.48625" style="stroke: #000000"/>
      </g>
     </g>
     <g id="text_19">
      <!-- 19:00 -->
      <g transform="translate(603.439062 302.0125) rotate(-90) scale(0.12 -0.12)">
       <use xlink:href="#ArialMT-31"/>
       <use xlink:href="#ArialMT-39" transform="translate(55.615234 0)"/>
       <use xlink:href="#ArialMT-3a" transform="translate(111.230469 0)"/>
       <use xlink:href="#ArialMT-30" transform="translate(139.013672 0)"/>
       <use xlink:href="#ArialMT-30" transform="translate(194.628906 0)"/>
      </g>
     </g>
    </g>
    <g id="xtick_20">
     <g id="line2d_61">
      <g>
       <use xlink:href="#maae597b34c" x="628.236875" y="263.48625" style="stroke: #000000"/>
      </g>
     </g>
     <g id="text_20">
      <!-- 20:00 -->
      <g transform="translate(631.339063 302.0125) rotate(-90) scale(0.12 -0.12)">
       <use xlink:href="#ArialMT-32"/>
       <use xlink:href="#ArialMT-30" transform="translate(55.615234 0)"/>
       <use xlink:href="#ArialMT-3a" transform="translate(111.230469 0)"/>
       <use xlink:href="#ArialMT-30" transform="translate(139.013672 0)"/>
       <use xlink:href="#ArialMT-30" transform="translate(194.628906 0)"/>
      </g>
     </g>
    </g>
    <g id="xtick_21">
     <g id="line2d_62">
      <g>
       <use xlink:href="#maae597b34c" x="656.136875" y="263.48625" style="stroke: #000000"/>
      </g>
     </g>
     <g id="text_21">
      <!-- 21:00 -->
      <g transform="translate(659.239063 302.0125) rotate(-90) scale(0.12 -0.12)">
       <use xlink:href="#ArialMT-32"/>
       <use xlink:href="#ArialMT-31" transform="translate(55.615234 0)"/>
       <use xlink:href="#ArialMT-3a" transform="translate(111.230469 0)"/>
       <use xlink:href="#ArialMT-30" transform="translate(139.013672 0)"/>
       <use xlink:href="#ArialMT-30" transform="translate(194.628906 0)"/>
      </g>
     </g>
    </g>
    <g id="xtick_22">
     <g id="line2d_63">
      <g>
       <use xlink:href="#maae597b34c" x="684.036875" y="263.48625" style="stroke: #000000"/>
      </g>
     </g>
     <g id="text_22">
      <!-- 22:00 -->
      <g transform="translate(687.139063 302.0125) rotate(-90) scale(0.12 -0.12)">
       <use xlink:href="#ArialMT-32"/>
       <use xlink:href="#ArialMT-32" transform="translate(55.615234 0)"/>
       <use xlink:href="#ArialMT-3a" transform="translate(111.230469 0)"/>
       <use xlink:href="#ArialMT-30" transform="translate(139.013672 0)"/>
       <use xlink:href="#ArialMT-30" transform="translate(194.628906 0)"/>
      </g>
     </g>
    </g>
    <g id="xtick_23">
     <g id="line2d_64">
      <g>
       <use xlink:href="#maae597b34c" x="711.936875" y="263.48625" style="stroke: #000000"/>
      </g>
     </g>
     <g id="text_23">
      <!-- 23:00 -->
      <g transform="translate(715.039062 302.0125) rotate(-90) scale(0.12 -0.12)">
       <use xlink:href="#ArialMT-32"/>
       <use xlink:href="#ArialMT-33" transform="translate(55.615234 0)"/>
       <use xlink:href="#ArialMT-3a" transform="translate(111.230469 0)"/>
       <use xlink:href="#ArialMT-30" transform="translate(139.013672 0)"/>
       <use xlink:href="#ArialMT-30" transform="translate(194.628906 0)"/>
      </g>
     </g>
    </g>
    <g id="xtick_24">
     <g id="line2d_65">
      <g>
       <use xlink:href="#maae597b34c" x="739.836875" y="263.48625" style="stroke: #000000"/>
      </g>
     </g>
     <g id="text_24">
      <!-- 24:00 -->
      <g transform="translate(742.939062 302.0125) rotate(-90) scale(0.12 -0.12)">
       <use xlink:href="#ArialMT-32"/>
       <use xlink:href="#ArialMT-34" transform="translate(55.615234 0)"/>
       <use xlink:href="#ArialMT-3a" transform="translate(111.230469 0)"/>
       <use xlink:href="#ArialMT-30" transform="translate(139.013672 0)"/>
       <use xlink:href="#ArialMT-30" transform="translate(194.628906 0)"/>
      </g>
     </g>
    </g>
   </g>
   <g id="matplotlib.axis_2">
    <g id="ytick_1">
     <g id="line2d_66">
      <defs>
       <path id="m49449555c8" d="M 0 0 
L -5 0 
" style="stroke: #000000; stroke-opacity: 0; stroke-width: 1.5"/>
      </defs>
      <g>
       <use xlink:href="#m49449555c8" x="84.186875" y="256.332702" style="fill-opacity: 0; stroke: #000000; stroke-opacity: 0; stroke-width: 1.5"/>
      </g>
     </g>
     <g id="text_25">
      <!-- 0 -->
      <g transform="translate(66.789375 262.058952) scale(0.16 -0.16)">
       <use xlink:href="#ArialMT-30"/>
      </g>
     </g>
    </g>
    <g id="ytick_2">
     <g id="line2d_67">
      <g>
       <use xlink:href="#m49449555c8" x="84.186875" y="202.681089" style="fill-opacity: 0; stroke: #000000; stroke-opacity: 0; stroke-width: 1.5"/>
      </g>
     </g>
     <g id="text_26">
      <!-- 3 -->
      <g transform="translate(66.789375 208.407339) scale(0.16 -0.16)">
       <use xlink:href="#ArialMT-33"/>
      </g>
     </g>
    </g>
    <g id="ytick_3">
     <g id="line2d_68">
      <g>
       <use xlink:href="#m49449555c8" x="84.186875" y="149.029476" style="fill-opacity: 0; stroke: #000000; stroke-opacity: 0; stroke-width: 1.5"/>
      </g>
     </g>
     <g id="text_27">
      <!-- 6 -->
      <g transform="translate(66.789375 154.755726) scale(0.16 -0.16)">
       <use xlink:href="#ArialMT-36"/>
      </g>
     </g>
    </g>
    <g id="ytick_4">
     <g id="line2d_69">
      <g>
       <use xlink:href="#m49449555c8" x="84.186875" y="95.377863" style="fill-opacity: 0; stroke: #000000; stroke-opacity: 0; stroke-width: 1.5"/>
      </g>
     </g>
     <g id="text_28">
      <!-- 9 -->
      <g transform="translate(66.789375 101.104113) scale(0.16 -0.16)">
       <use xlink:href="#ArialMT-39"/>
      </g>
     </g>
    </g>
    <g id="ytick_5">
     <g id="line2d_70">
      <g>
       <use xlink:href="#m49449555c8" x="84.186875" y="41.72625" style="fill-opacity: 0; stroke: #000000; stroke-opacity: 0; stroke-width: 1.5"/>
      </g>
     </g>
     <g id="text_29">
      <!-- 12 -->
      <g transform="translate(57.891875 47.4525) scale(0.16 -0.16)">
       <use xlink:href="#ArialMT-31"/>
       <use xlink:href="#ArialMT-32" transform="translate(55.615234 0)"/>
      </g>
     </g>
    </g>
    <g id="text_30">
     <!-- Diesel (Gallon) -->
     <g transform="translate(49.103437 212.122969) rotate(-90) scale(0.18 -0.18)">
      <defs>
       <path id="ArialMT-44" d="M 494 0 
L 494 4581 
L 2072 4581 
Q 2606 4581 2888 4516 
Q 3281 4425 3559 4188 
Q 3922 3881 4101 3404 
Q 4281 2928 4281 2316 
Q 4281 1794 4159 1391 
Q 4038 988 3847 723 
Q 3656 459 3429 307 
Q 3203 156 2883 78 
Q 2563 0 2147 0 
L 494 0 
z
M 1100 541 
L 2078 541 
Q 2531 541 2789 625 
Q 3047 709 3200 863 
Q 3416 1078 3536 1442 
Q 3656 1806 3656 2325 
Q 3656 3044 3420 3430 
Q 3184 3816 2847 3947 
Q 2603 4041 2063 4041 
L 1100 4041 
L 1100 541 
z
" transform="scale(0.015625)"/>
       <path id="ArialMT-69" d="M 425 3934 
L 425 4581 
L 988 4581 
L 988 3934 
L 425 3934 
z
M 425 0 
L 425 3319 
L 988 3319 
L 988 0 
L 425 0 
z
" transform="scale(0.015625)"/>
       <path id="ArialMT-65" d="M 2694 1069 
L 3275 997 
Q 3138 488 2766 206 
Q 2394 -75 1816 -75 
Q 1088 -75 661 373 
Q 234 822 234 1631 
Q 234 2469 665 2931 
Q 1097 3394 1784 3394 
Q 2450 3394 2872 2941 
Q 3294 2488 3294 1666 
Q 3294 1616 3291 1516 
L 816 1516 
Q 847 969 1125 678 
Q 1403 388 1819 388 
Q 2128 388 2347 550 
Q 2566 713 2694 1069 
z
M 847 1978 
L 2700 1978 
Q 2663 2397 2488 2606 
Q 2219 2931 1791 2931 
Q 1403 2931 1139 2672 
Q 875 2413 847 1978 
z
" transform="scale(0.015625)"/>
       <path id="ArialMT-73" d="M 197 991 
L 753 1078 
Q 800 744 1014 566 
Q 1228 388 1613 388 
Q 2000 388 2187 545 
Q 2375 703 2375 916 
Q 2375 1106 2209 1216 
Q 2094 1291 1634 1406 
Q 1016 1563 777 1677 
Q 538 1791 414 1992 
Q 291 2194 291 2438 
Q 291 2659 392 2848 
Q 494 3038 669 3163 
Q 800 3259 1026 3326 
Q 1253 3394 1513 3394 
Q 1903 3394 2198 3281 
Q 2494 3169 2634 2976 
Q 2775 2784 2828 2463 
L 2278 2388 
Q 2241 2644 2061 2787 
Q 1881 2931 1553 2931 
Q 1166 2931 1000 2803 
Q 834 2675 834 2503 
Q 834 2394 903 2306 
Q 972 2216 1119 2156 
Q 1203 2125 1616 2013 
Q 2213 1853 2448 1751 
Q 2684 1650 2818 1456 
Q 2953 1263 2953 975 
Q 2953 694 2789 445 
Q 2625 197 2315 61 
Q 2006 -75 1616 -75 
Q 969 -75 630 194 
Q 291 463 197 991 
z
" transform="scale(0.015625)"/>
       <path id="ArialMT-6c" d="M 409 0 
L 409 4581 
L 972 4581 
L 972 0 
L 409 0 
z
" transform="scale(0.015625)"/>
       <path id="ArialMT-20" transform="scale(0.015625)"/>
       <path id="ArialMT-28" d="M 1497 -1347 
Q 1031 -759 709 28 
Q 388 816 388 1659 
Q 388 2403 628 3084 
Q 909 3875 1497 4659 
L 1900 4659 
Q 1522 4009 1400 3731 
Q 1209 3300 1100 2831 
Q 966 2247 966 1656 
Q 966 153 1900 -1347 
L 1497 -1347 
z
" transform="scale(0.015625)"/>
       <path id="ArialMT-47" d="M 2638 1797 
L 2638 2334 
L 4578 2338 
L 4578 638 
Q 4131 281 3656 101 
Q 3181 -78 2681 -78 
Q 2006 -78 1454 211 
Q 903 500 622 1047 
Q 341 1594 341 2269 
Q 341 2938 620 3517 
Q 900 4097 1425 4378 
Q 1950 4659 2634 4659 
Q 3131 4659 3532 4498 
Q 3934 4338 4162 4050 
Q 4391 3763 4509 3300 
L 3963 3150 
Q 3859 3500 3706 3700 
Q 3553 3900 3268 4020 
Q 2984 4141 2638 4141 
Q 2222 4141 1919 4014 
Q 1616 3888 1430 3681 
Q 1244 3475 1141 3228 
Q 966 2803 966 2306 
Q 966 1694 1177 1281 
Q 1388 869 1791 669 
Q 2194 469 2647 469 
Q 3041 469 3416 620 
Q 3791 772 3984 944 
L 3984 1797 
L 2638 1797 
z
" transform="scale(0.015625)"/>
       <path id="ArialMT-61" d="M 2588 409 
Q 2275 144 1986 34 
Q 1697 -75 1366 -75 
Q 819 -75 525 192 
Q 231 459 231 875 
Q 231 1119 342 1320 
Q 453 1522 633 1644 
Q 813 1766 1038 1828 
Q 1203 1872 1538 1913 
Q 2219 1994 2541 2106 
Q 2544 2222 2544 2253 
Q 2544 2597 2384 2738 
Q 2169 2928 1744 2928 
Q 1347 2928 1158 2789 
Q 969 2650 878 2297 
L 328 2372 
Q 403 2725 575 2942 
Q 747 3159 1072 3276 
Q 1397 3394 1825 3394 
Q 2250 3394 2515 3294 
Q 2781 3194 2906 3042 
Q 3031 2891 3081 2659 
Q 3109 2516 3109 2141 
L 3109 1391 
Q 3109 606 3145 398 
Q 3181 191 3288 0 
L 2700 0 
Q 2613 175 2588 409 
z
M 2541 1666 
Q 2234 1541 1622 1453 
Q 1275 1403 1131 1340 
Q 988 1278 909 1158 
Q 831 1038 831 891 
Q 831 666 1001 516 
Q 1172 366 1500 366 
Q 1825 366 2078 508 
Q 2331 650 2450 897 
Q 2541 1088 2541 1459 
L 2541 1666 
z
" transform="scale(0.015625)"/>
       <path id="ArialMT-6f" d="M 213 1659 
Q 213 2581 725 3025 
Q 1153 3394 1769 3394 
Q 2453 3394 2887 2945 
Q 3322 2497 3322 1706 
Q 3322 1066 3130 698 
Q 2938 331 2570 128 
Q 2203 -75 1769 -75 
Q 1072 -75 642 372 
Q 213 819 213 1659 
z
M 791 1659 
Q 791 1022 1069 705 
Q 1347 388 1769 388 
Q 2188 388 2466 706 
Q 2744 1025 2744 1678 
Q 2744 2294 2464 2611 
Q 2184 2928 1769 2928 
Q 1347 2928 1069 2612 
Q 791 2297 791 1659 
z
" transform="scale(0.015625)"/>
       <path id="ArialMT-6e" d="M 422 0 
L 422 3319 
L 928 3319 
L 928 2847 
Q 1294 3394 1984 3394 
Q 2284 3394 2536 3286 
Q 2788 3178 2913 3003 
Q 3038 2828 3088 2588 
Q 3119 2431 3119 2041 
L 3119 0 
L 2556 0 
L 2556 2019 
Q 2556 2363 2490 2533 
Q 2425 2703 2258 2804 
Q 2091 2906 1866 2906 
Q 1506 2906 1245 2678 
Q 984 2450 984 1813 
L 984 0 
L 422 0 
z
" transform="scale(0.015625)"/>
       <path id="ArialMT-29" d="M 791 -1347 
L 388 -1347 
Q 1322 153 1322 1656 
Q 1322 2244 1188 2822 
Q 1081 3291 891 3722 
Q 769 4003 388 4659 
L 791 4659 
Q 1378 3875 1659 3084 
Q 1900 2403 1900 1659 
Q 1900 816 1576 28 
Q 1253 -759 791 -1347 
z
" transform="scale(0.015625)"/>
      </defs>
      <use xlink:href="#ArialMT-44"/>
      <use xlink:href="#ArialMT-69" transform="translate(72.216797 0)"/>
      <use xlink:href="#ArialMT-65" transform="translate(94.433594 0)"/>
      <use xlink:href="#ArialMT-73" transform="translate(150.048828 0)"/>
      <use xlink:href="#ArialMT-65" transform="translate(200.048828 0)"/>
      <use xlink:href="#ArialMT-6c" transform="translate(255.664062 0)"/>
      <use xlink:href="#ArialMT-20" transform="translate(277.880859 0)"/>
      <use xlink:href="#ArialMT-28" transform="translate(305.664062 0)"/>
      <use xlink:href="#ArialMT-47" transform="translate(338.964844 0)"/>
      <use xlink:href="#ArialMT-61" transform="translate(416.748047 0)"/>
      <use xlink:href="#ArialMT-6c" transform="translate(472.363281 0)"/>
      <use xlink:href="#ArialMT-6c" transform="translate(494.580078 0)"/>
      <use xlink:href="#ArialMT-6f" transform="translate(516.796875 0)"/>
      <use xlink:href="#ArialMT-6e" transform="translate(572.412109 0)"/>
      <use xlink:href="#ArialMT-29" transform="translate(628.027344 0)"/>
     </g>
    </g>
   </g>
   <g id="line2d_71">
    <path d="M 98.136875 227.579605 
L 126.036875 237.189354 
L 153.936875 240.282157 
L 181.836875 237.576458 
L 209.736875 229.495968 
L 237.636875 208.510591 
L 265.536875 174.585099 
L 293.436875 140.39832 
L 321.336875 126.864286 
L 349.236875 124.338229 
L 377.136875 117.079493 
L 405.036875 92.020997 
L 432.936875 80.880688 
L 460.836875 73.439236 
L 488.736875 66.591241 
L 516.636875 64.295664 
L 544.536875 62.431698 
L 572.436875 73.902647 
L 600.336875 108.341635 
L 628.236875 142.169665 
L 656.136875 160.829434 
L 684.036875 178.504176 
L 711.936875 190.885538 
L 739.836875 206.680328 
" clip-path="url(#p98f93fb975)" style="fill: none; stroke: #d62728; stroke-opacity: 0.8; stroke-width: 1.5; stroke-linecap: round"/>
   </g>
   <g id="line2d_72">
    <path d="M 98.136875 241.164375 
L 126.036875 247.370371 
L 153.936875 248.847622 
L 181.836875 247.942781 
L 209.736875 243.452451 
L 237.636875 233.65177 
L 265.536875 208.947506 
L 293.436875 187.326405 
L 321.336875 176.807979 
L 349.236875 170.472449 
L 377.136875 164.74574 
L 405.036875 144.965804 
L 432.936875 127.845207 
L 460.836875 117.891898 
L 488.736875 107.972314 
L 516.636875 101.840676 
L 544.536875 112.401702 
L 572.436875 128.294661 
L 600.336875 163.593044 
L 628.236875 178.896942 
L 656.136875 192.045772 
L 684.036875 206.021622 
L 711.936875 214.877243 
L 739.836875 225.807671 
" clip-path="url(#p98f93fb975)" style="fill: none; stroke: #9467bd; stroke-opacity: 0.8; stroke-width: 1.5; stroke-linecap: round"/>
   </g>
   <g id="line2d_73">
    <path d="M 98.136875 238.284994 
L 126.036875 245.62594 
L 153.936875 246.842516 
L 181.836875 246.199256 
L 209.736875 242.512448 
L 237.636875 227.13448 
L 265.536875 201.876633 
L 293.436875 173.400375 
L 321.336875 154.635332 
L 349.236875 146.089174 
L 377.136875 138.166979 
L 405.036875 114.734717 
L 432.936875 109.8928 
L 460.836875 97.724824 
L 488.736875 84.736258 
L 516.636875 74.340395 
L 544.536875 68.175637 
L 572.436875 86.657316 
L 600.336875 131.831486 
L 628.236875 153.172355 
L 656.136875 172.489986 
L 684.036875 191.289583 
L 711.936875 207.032463 
L 739.836875 220.333242 
" clip-path="url(#p98f93fb975)" style="fill: none; stroke: #9467bd; stroke-opacity: 0.8; stroke-width: 1.5; stroke-linecap: round"/>
   </g>
   <g id="line2d_74">
    <path d="M 98.136875 245.56572 
L 126.036875 249.131692 
L 153.936875 249.362045 
L 181.836875 247.813988 
L 209.736875 242.957458 
L 237.636875 237.678967 
L 265.536875 219.339201 
L 293.436875 202.131462 
L 321.336875 191.749269 
L 349.236875 187.748031 
L 377.136875 181.690239 
L 405.036875 167.913959 
L 432.936875 164.034081 
L 460.836875 161.134335 
L 488.736875 161.3853 
L 516.636875 161.982513 
L 544.536875 162.705712 
L 572.436875 174.67769 
L 600.336875 191.028909 
L 628.236875 201.768952 
L 656.136875 211.329664 
L 684.036875 220.437939 
L 711.936875 230.502956 
L 739.836875 237.56295 
" clip-path="url(#p98f93fb975)" style="fill: none; stroke: #c5b0d5; stroke-opacity: 0.8; stroke-width: 1.5; stroke-linecap: round"/>
   </g>
   <g id="line2d_75">
    <path d="M 98.136875 244.446428 
L 126.036875 248.440441 
L 153.936875 248.875514 
L 181.836875 247.824977 
L 209.736875 242.359337 
L 237.636875 235.819313 
L 265.536875 216.414794 
L 293.436875 200.292816 
L 321.336875 187.036213 
L 349.236875 183.23854 
L 377.136875 174.941552 
L 405.036875 162.624444 
L 432.936875 157.234822 
L 460.836875 153.528321 
L 488.736875 153.447433 
L 516.636875 154.571506 
L 544.536875 155.189875 
L 572.436875 166.908531 
L 600.336875 186.71745 
L 628.236875 198.234443 
L 656.136875 209.254002 
L 684.036875 218.092993 
L 711.936875 227.868671 
L 739.836875 235.547457 
" clip-path="url(#p98f93fb975)" style="fill: none; stroke: #8c564b; stroke-opacity: 0.8; stroke-width: 1.5; stroke-linecap: round"/>
   </g>
   <g id="line2d_76">
    <path d="M 98.136875 242.530113 
L 126.036875 247.25164 
L 153.936875 248.119066 
L 181.836875 247.476516 
L 209.736875 241.706242 
L 237.636875 231.45367 
L 265.536875 210.161985 
L 293.436875 191.184594 
L 321.336875 177.87978 
L 349.236875 173.348281 
L 377.136875 166.576858 
L 405.036875 148.052812 
L 432.936875 143.368776 
L 460.836875 136.459174 
L 488.736875 135.95159 
L 516.636875 135.791431 
L 544.536875 132.929766 
L 572.436875 146.600161 
L 600.336875 173.927075 
L 628.236875 187.511651 
L 656.136875 199.753472 
L 684.036875 211.023879 
L 711.936875 221.756588 
L 739.836875 231.729418 
" clip-path="url(#p98f93fb975)" style="fill: none; stroke: #c49c94; stroke-opacity: 0.8; stroke-width: 1.5; stroke-linecap: round"/>
   </g>
   <g id="line2d_77">
    <path d="M 98.136875 237.065057 
L 126.036875 244.305156 
L 153.936875 245.985507 
L 181.836875 243.915831 
L 209.736875 239.507425 
L 237.636875 223.167621 
L 265.536875 192.605392 
L 293.436875 163.50715 
L 321.336875 146.641918 
L 349.236875 138.349236 
L 377.136875 130.106849 
L 405.036875 103.36757 
L 432.936875 86.336685 
L 460.836875 74.480016 
L 488.736875 66.414929 
L 516.636875 65.102161 
L 544.536875 64.196579 
L 572.436875 81.366519 
L 600.336875 131.299921 
L 628.236875 155.480872 
L 656.136875 173.20814 
L 684.036875 192.882799 
L 711.936875 203.804048 
L 739.836875 218.215312 
" clip-path="url(#p98f93fb975)" style="fill: none; stroke: #c49c94; stroke-opacity: 0.8; stroke-width: 1.5; stroke-linecap: round"/>
   </g>
   <g id="line2d_78">
    <path d="M 98.136875 235.236786 
L 126.036875 242.69733 
L 153.936875 243.208906 
L 181.836875 241.879812 
L 209.736875 237.323196 
L 237.636875 222.877453 
L 265.536875 193.967804 
L 293.436875 163.958223 
L 321.336875 139.711771 
L 349.236875 132.30404 
L 377.136875 124.161297 
L 405.036875 99.489121 
L 432.936875 88.021181 
L 460.836875 82.066996 
L 488.736875 74.291503 
L 516.636875 69.515131 
L 544.536875 68.930982 
L 572.436875 92.013586 
L 600.336875 122.830584 
L 628.236875 146.804213 
L 656.136875 166.871554 
L 684.036875 186.847598 
L 711.936875 202.400371 
L 739.836875 216.031979 
" clip-path="url(#p98f93fb975)" style="fill: none; stroke: #2ca02c; stroke-opacity: 0.8; stroke-width: 1.5; stroke-linecap: round"/>
   </g>
   <g id="line2d_79">
    <path d="M 98.136875 239.280656 
L 126.036875 244.001763 
L 153.936875 244.765358 
L 181.836875 242.908892 
L 209.736875 238.359517 
L 237.636875 230.71812 
L 265.536875 212.261701 
L 293.436875 188.387041 
L 321.336875 174.24754 
L 349.236875 166.326638 
L 377.136875 157.731131 
L 405.036875 140.577016 
L 432.936875 130.950033 
L 460.836875 128.514066 
L 488.736875 124.859313 
L 516.636875 127.607603 
L 544.536875 131.244427 
L 572.436875 147.150391 
L 600.336875 161.112626 
L 628.236875 177.305165 
L 656.136875 190.864064 
L 684.036875 205.459303 
L 711.936875 217.875823 
L 739.836875 228.426705 
" clip-path="url(#p98f93fb975)" style="fill: none; stroke: #ff7f0e; stroke-opacity: 0.8; stroke-width: 1.5; stroke-linecap: round"/>
   </g>
   <g id="line2d_80">
    <path d="M 98.136875 238.485412 
L 126.036875 243.757408 
L 153.936875 244.9869 
L 181.836875 244.244031 
L 209.736875 238.991395 
L 237.636875 227.501736 
L 265.536875 206.69525 
L 293.436875 182.872237 
L 321.336875 167.776368 
L 349.236875 160.048576 
L 377.136875 152.69416 
L 405.036875 135.084657 
L 432.936875 125.171119 
L 460.836875 120.460805 
L 488.736875 118.78206 
L 516.636875 120.613598 
L 544.536875 121.342762 
L 572.436875 134.251823 
L 600.336875 154.08431 
L 628.236875 171.138298 
L 656.136875 185.924313 
L 684.036875 201.22846 
L 711.936875 213.895159 
L 739.836875 226.160443 
" clip-path="url(#p98f93fb975)" style="fill: none; stroke: #98df8a; stroke-opacity: 0.8; stroke-width: 1.5; stroke-linecap: round"/>
   </g>
   <g id="line2d_81">
    <path d="M 98.136875 233.348747 
L 126.036875 242.797487 
L 153.936875 244.267141 
L 181.836875 243.386341 
L 209.736875 238.369772 
L 237.636875 219.498917 
L 265.536875 183.060198 
L 293.436875 148.317611 
L 321.336875 136.839596 
L 349.236875 131.815764 
L 377.136875 124.637422 
L 405.036875 96.663632 
L 432.936875 92.064536 
L 460.836875 87.133897 
L 488.736875 71.510447 
L 516.636875 63.943746 
L 544.536875 60.1175 
L 572.436875 78.771425 
L 600.336875 124.55386 
L 628.236875 151.270444 
L 656.136875 169.349089 
L 684.036875 188.307567 
L 711.936875 197.405543 
L 739.836875 212.88922 
" clip-path="url(#p98f93fb975)" style="fill: none; stroke: #e377c2; stroke-opacity: 0.8; stroke-width: 1.5; stroke-linecap: round"/>
   </g>
   <g id="line2d_82">
    <path d="M 98.136875 232.783102 
L 126.036875 240.377816 
L 153.936875 242.101694 
L 181.836875 240.720414 
L 209.736875 236.827369 
L 237.636875 218.712814 
L 265.536875 184.860045 
L 293.436875 153.01663 
L 321.336875 139.287163 
L 349.236875 134.756882 
L 377.136875 126.397814 
L 405.036875 95.654166 
L 432.936875 82.870067 
L 460.836875 69.770605 
L 488.736875 63.46018 
L 516.636875 60.653191 
L 544.536875 70.554257 
L 572.436875 87.69628 
L 600.336875 120.579926 
L 628.236875 146.348407 
L 656.136875 165.333598 
L 684.036875 182.679353 
L 711.936875 197.675031 
L 739.836875 213.35288 
" clip-path="url(#p98f93fb975)" style="fill: none; stroke: #1f77b4; stroke-opacity: 0.8; stroke-width: 1.5; stroke-linecap: round"/>
   </g>
   <g id="line2d_83">
    <path d="M 98.136875 233.105097 
L 126.036875 240.600135 
L 153.936875 242.302502 
L 181.836875 240.767558 
L 209.736875 236.636466 
L 237.636875 221.217489 
L 265.536875 190.211757 
L 293.436875 160.313515 
L 321.336875 149.351392 
L 349.236875 142.778879 
L 377.136875 132.656931 
L 405.036875 102.35755 
L 432.936875 85.581058 
L 460.836875 76.333795 
L 488.736875 70.940617 
L 516.636875 65.296475 
L 544.536875 65.378204 
L 572.436875 96.153567 
L 600.336875 132.437855 
L 628.236875 152.252448 
L 656.136875 169.316354 
L 684.036875 185.827708 
L 711.936875 200.452667 
L 739.836875 214.437441 
" clip-path="url(#p98f93fb975)" style="fill: none; stroke: #f7b6d2; stroke-opacity: 0.8; stroke-width: 1.5; stroke-linecap: round"/>
   </g>
   <g id="line2d_84">
    <path d="M 98.136875 231.314665 
L 126.036875 239.001913 
L 153.936875 241.089842 
L 181.836875 240.176905 
L 209.736875 235.971492 
L 237.636875 219.962355 
L 265.536875 190.747338 
L 293.436875 160.148216 
L 321.336875 148.442256 
L 349.236875 141.685468 
L 377.136875 130.972138 
L 405.036875 100.847297 
L 432.936875 86.527705 
L 460.836875 74.543695 
L 488.736875 66.770286 
L 516.636875 61.434303 
L 544.536875 59.050661 
L 572.436875 82.083114 
L 600.336875 124.163112 
L 628.236875 147.259184 
L 656.136875 164.496778 
L 684.036875 182.833512 
L 711.936875 196.35501 
L 739.836875 211.859592 
" clip-path="url(#p98f93fb975)" style="fill: none; stroke: #ff9896; stroke-opacity: 0.8; stroke-width: 1.5; stroke-linecap: round"/>
   </g>
   <g id="line2d_85">
    <path d="M 98.136875 228.03617 
L 126.036875 236.921657 
L 153.936875 240.815472 
L 181.836875 237.787159 
L 209.736875 228.51722 
L 237.636875 201.12282 
L 265.536875 158.399309 
L 293.436875 119.727398 
L 321.336875 100.448025 
L 349.236875 92.752545 
L 377.136875 85.743249 
L 405.036875 68.780828 
L 432.936875 67.163889 
L 460.836875 64.143801 
L 488.736875 62.688823 
L 516.636875 62.628401 
L 544.536875 61.710067 
L 572.436875 75.842385 
L 600.336875 101.081585 
L 628.236875 135.630365 
L 656.136875 155.999645 
L 684.036875 173.38453 
L 711.936875 188.548503 
L 739.836875 204.287436 
" clip-path="url(#p98f93fb975)" style="fill: none; stroke: #ff7f0e; stroke-opacity: 0.8; stroke-width: 1.5; stroke-linecap: round"/>
   </g>
   <g id="line2d_86">
    <path d="M 98.136875 231.921072 
L 126.036875 239.563627 
L 153.936875 241.56913 
L 181.836875 241.017197 
L 209.736875 236.832153 
L 237.636875 220.573836 
L 265.536875 193.738924 
L 293.436875 158.513917 
L 321.336875 145.834985 
L 349.236875 136.624923 
L 377.136875 122.772737 
L 405.036875 98.425319 
L 432.936875 90.538617 
L 460.836875 83.295327 
L 488.736875 76.435562 
L 516.636875 69.755981 
L 544.536875 68.773489 
L 572.436875 83.521728 
L 600.336875 117.382081 
L 628.236875 147.589163 
L 656.136875 164.610495 
L 684.036875 182.706566 
L 711.936875 192.748855 
L 739.836875 210.657835 
" clip-path="url(#p98f93fb975)" style="fill: none; stroke: #f7b6d2; stroke-opacity: 0.8; stroke-width: 1.5; stroke-linecap: round"/>
   </g>
   <g id="line2d_87">
    <path d="M 98.136875 231.96036 
L 126.036875 239.48555 
L 153.936875 241.728334 
L 181.836875 241.106003 
L 209.736875 236.065653 
L 237.636875 220.246005 
L 265.536875 192.292924 
L 293.436875 163.769269 
L 321.336875 146.654478 
L 349.236875 133.640364 
L 377.136875 122.738826 
L 405.036875 100.888651 
L 432.936875 93.595361 
L 460.836875 87.556085 
L 488.736875 84.736255 
L 516.636875 81.37496 
L 544.536875 85.459561 
L 572.436875 98.393063 
L 600.336875 120.84847 
L 628.236875 151.194331 
L 656.136875 169.177713 
L 684.036875 187.518332 
L 711.936875 200.578188 
L 739.836875 213.94072 
" clip-path="url(#p98f93fb975)" style="fill: none; stroke: #7f7f7f; stroke-opacity: 0.8; stroke-width: 1.5; stroke-linecap: round"/>
   </g>
   <g id="line2d_88">
    <path d="M 98.136875 224.597693 
L 126.036875 234.690103 
L 153.936875 237.495781 
L 181.836875 235.368965 
L 209.736875 227.340497 
L 237.636875 200.848284 
L 265.536875 156.363689 
L 293.436875 117.315397 
L 321.336875 99.475834 
L 349.236875 90.582068 
L 377.136875 80.570913 
L 405.036875 65.258465 
L 432.936875 61.599984 
L 460.836875 57.217845 
L 488.736875 56.510273 
L 516.636875 59.358312 
L 544.536875 63.186994 
L 572.436875 79.404239 
L 600.336875 99.858454 
L 628.236875 130.148781 
L 656.136875 153.181579 
L 684.036875 167.812761 
L 711.936875 181.619202 
L 739.836875 200.205345 
" clip-path="url(#p98f93fb975)" style="fill: none; stroke: #c7c7c7; stroke-opacity: 0.8; stroke-width: 1.5; stroke-linecap: round"/>
   </g>
   <g id="line2d_89">
    <path d="M 98.136875 235.606996 
L 126.036875 241.691999 
L 153.936875 243.498581 
L 181.836875 242.680097 
L 209.736875 239.134651 
L 237.636875 225.002144 
L 265.536875 203.121619 
L 293.436875 175.225374 
L 321.336875 164.984763 
L 349.236875 157.362534 
L 377.136875 146.181213 
L 405.036875 121.50104 
L 432.936875 107.986651 
L 460.836875 94.688494 
L 488.736875 89.81665 
L 516.636875 87.040259 
L 544.536875 86.428332 
L 572.436875 103.878665 
L 600.336875 126.350762 
L 628.236875 160.861123 
L 656.136875 179.31202 
L 684.036875 195.102601 
L 711.936875 207.030628 
L 739.836875 221.29782 
" clip-path="url(#p98f93fb975)" style="fill: none; stroke: #aec7e8; stroke-opacity: 0.8; stroke-width: 1.5; stroke-linecap: round"/>
   </g>
   <g id="line2d_90">
    <path d="M 98.136875 232.575154 
L 126.036875 240.399562 
L 153.936875 242.41476 
L 181.836875 242.354025 
L 209.736875 238.838434 
L 237.636875 224.011378 
L 265.536875 200.541494 
L 293.436875 166.365055 
L 321.336875 153.085849 
L 349.236875 143.866108 
L 377.136875 128.097443 
L 405.036875 99.724918 
L 432.936875 88.330589 
L 460.836875 78.864746 
L 488.736875 73.639733 
L 516.636875 69.614469 
L 544.536875 72.458737 
L 572.436875 88.485095 
L 600.336875 116.106149 
L 628.236875 150.526732 
L 656.136875 169.932329 
L 684.036875 187.956298 
L 711.936875 201.434653 
L 739.836875 215.618342 
" clip-path="url(#p98f93fb975)" style="fill: none; stroke: #d62728; stroke-opacity: 0.8; stroke-width: 1.5; stroke-linecap: round"/>
   </g>
   <g id="line2d_91">
    <path d="M 98.136875 233.202021 
L 126.036875 239.705352 
L 153.936875 240.854813 
L 181.836875 242.004465 
L 209.736875 237.100962 
L 237.636875 222.938013 
L 265.536875 197.885309 
L 293.436875 163.196911 
L 321.336875 151.581794 
L 349.236875 145.365294 
L 377.136875 131.464325 
L 405.036875 110.255979 
L 432.936875 101.414005 
L 460.836875 95.276923 
L 488.736875 93.789297 
L 516.636875 95.586696 
L 544.536875 98.316533 
L 572.436875 111.665904 
L 600.336875 135.524987 
L 628.236875 162.517746 
L 656.136875 179.594785 
L 684.036875 194.75233 
L 711.936875 205.515581 
L 739.836875 217.815773 
" clip-path="url(#p98f93fb975)" style="fill: none; stroke: #9edae5; stroke-opacity: 0.8; stroke-width: 1.5; stroke-linecap: round"/>
   </g>
   <g id="line2d_92">
    <path d="M 98.136875 234.960588 
L 126.036875 242.317993 
L 153.936875 243.675687 
L 181.836875 243.349791 
L 209.736875 239.007097 
L 237.636875 222.763299 
L 265.536875 188.445549 
L 293.436875 160.238669 
L 321.336875 147.112983 
L 349.236875 140.684678 
L 377.136875 121.673349 
L 405.036875 108.268808 
L 432.936875 99.077949 
L 460.836875 87.159066 
L 488.736875 82.444745 
L 516.636875 77.976715 
L 544.536875 83.075587 
L 572.436875 98.430371 
L 600.336875 135.135803 
L 628.236875 160.903135 
L 656.136875 176.002841 
L 684.036875 189.547232 
L 711.936875 203.834181 
L 739.836875 218.050843 
" clip-path="url(#p98f93fb975)" style="fill: none; stroke: #bcbd22; stroke-opacity: 0.8; stroke-width: 1.5; stroke-linecap: round"/>
   </g>
   <g id="line2d_93">
    <path d="M 98.136875 233.476837 
L 126.036875 240.595859 
L 153.936875 242.309 
L 181.836875 241.554814 
L 209.736875 237.640011 
L 237.636875 218.867844 
L 265.536875 184.775759 
L 293.436875 153.920678 
L 321.336875 139.280376 
L 349.236875 133.355008 
L 377.136875 124.730474 
L 405.036875 98.632022 
L 432.936875 93.198789 
L 460.836875 82.38598 
L 488.736875 77.979916 
L 516.636875 76.028619 
L 544.536875 84.629103 
L 572.436875 108.460832 
L 600.336875 131.268963 
L 628.236875 156.008788 
L 656.136875 173.081682 
L 684.036875 187.697795 
L 711.936875 201.498164 
L 739.836875 216.659411 
" clip-path="url(#p98f93fb975)" style="fill: none; stroke: #1f77b4; stroke-opacity: 0.8; stroke-width: 1.5; stroke-linecap: round"/>
   </g>
   <g id="line2d_94">
    <path d="M 98.136875 228.728773 
L 126.036875 237.622824 
L 153.936875 240.147266 
L 181.836875 239.395945 
L 209.736875 235.61231 
L 237.636875 218.064538 
L 265.536875 188.80236 
L 293.436875 155.4056 
L 321.336875 144.278488 
L 349.236875 138.185012 
L 377.136875 125.995354 
L 405.036875 99.768329 
L 432.936875 91.604904 
L 460.836875 82.522976 
L 488.736875 77.310016 
L 516.636875 69.698046 
L 544.536875 67.780996 
L 572.436875 85.509938 
L 600.336875 118.429689 
L 628.236875 150.911607 
L 656.136875 165.709467 
L 684.036875 181.147753 
L 711.936875 194.374763 
L 739.836875 208.530035 
" clip-path="url(#p98f93fb975)" style="fill: none; stroke: #dbdb8d; stroke-opacity: 0.8; stroke-width: 1.5; stroke-linecap: round"/>
   </g>
   <g id="line2d_95">
    <path d="M 98.136875 234.806895 
L 126.036875 242.967806 
L 153.936875 245.021457 
L 181.836875 244.263317 
L 209.736875 240.140104 
L 237.636875 229.57753 
L 265.536875 204.61944 
L 293.436875 176.096651 
L 321.336875 163.551865 
L 349.236875 149.142043 
L 377.136875 132.311395 
L 405.036875 111.654406 
L 432.936875 108.5134 
L 460.836875 104.414526 
L 488.736875 101.731166 
L 516.636875 98.259904 
L 544.536875 99.312909 
L 572.436875 110.050851 
L 600.336875 128.459623 
L 628.236875 168.930867 
L 656.136875 181.906133 
L 684.036875 193.542672 
L 711.936875 204.686441 
L 739.836875 217.239342 
" clip-path="url(#p98f93fb975)" style="fill: none; stroke: #2ca02c; stroke-opacity: 0.8; stroke-width: 1.5; stroke-linecap: round"/>
   </g>
   <g id="line2d_96">
    <path d="M 98.136875 224.64893 
L 126.036875 234.62126 
L 153.936875 237.574828 
L 181.836875 237.262527 
L 209.736875 231.806553 
L 237.636875 213.879387 
L 265.536875 181.197286 
L 293.436875 144.454078 
L 321.336875 133.07708 
L 349.236875 124.780388 
L 377.136875 99.891065 
L 405.036875 81.781949 
L 432.936875 75.728412 
L 460.836875 67.617323 
L 488.736875 62.330876 
L 516.636875 55.694872 
L 544.536875 52.169574 
L 572.436875 67.303114 
L 600.336875 94.323432 
L 628.236875 142.010117 
L 656.136875 157.760886 
L 684.036875 173.609104 
L 711.936875 184.516342 
L 739.836875 202.132335 
" clip-path="url(#p98f93fb975)" style="fill: none; stroke: #c7c7c7; stroke-opacity: 0.8; stroke-width: 1.5; stroke-linecap: round"/>
   </g>
   <g id="line2d_97">
    <path d="M 98.136875 232.327363 
L 126.036875 237.845887 
L 153.936875 238.949821 
L 181.836875 237.837945 
L 209.736875 232.949223 
L 237.636875 220.401241 
L 265.536875 190.895077 
L 293.436875 157.000721 
L 321.336875 146.546355 
L 349.236875 141.881433 
L 377.136875 121.814008 
L 405.036875 106.804147 
L 432.936875 99.050932 
L 460.836875 87.573694 
L 488.736875 84.95329 
L 516.636875 85.331681 
L 544.536875 95.051015 
L 572.436875 109.909085 
L 600.336875 138.825844 
L 628.236875 163.591442 
L 656.136875 177.704821 
L 684.036875 190.138045 
L 711.936875 200.288864 
L 739.836875 216.339264 
" clip-path="url(#p98f93fb975)" style="fill: none; stroke: #ffbb78; stroke-opacity: 0.8; stroke-width: 1.5; stroke-linecap: round"/>
   </g>
   <g id="line2d_98">
    <path d="M 98.136875 233.686612 
L 126.036875 240.727918 
L 153.936875 242.712447 
L 181.836875 242.241073 
L 209.736875 238.79491 
L 237.636875 224.495851 
L 265.536875 200.665782 
L 293.436875 172.699501 
L 321.336875 160.191026 
L 349.236875 151.545353 
L 377.136875 138.705986 
L 405.036875 112.570384 
L 432.936875 95.031424 
L 460.836875 82.516563 
L 488.736875 76.300804 
L 516.636875 72.526657 
L 544.536875 70.137533 
L 572.436875 84.448483 
L 600.336875 103.290877 
L 628.236875 151.155315 
L 656.136875 171.419755 
L 684.036875 189.577925 
L 711.936875 201.523296 
L 739.836875 215.855261 
" clip-path="url(#p98f93fb975)" style="fill: none; stroke: #dbdb8d; stroke-opacity: 0.8; stroke-width: 1.5; stroke-linecap: round"/>
   </g>
   <g id="line2d_99">
    <path d="M 98.136875 237.262661 
L 126.036875 243.139329 
L 153.936875 243.65948 
L 181.836875 242.318467 
L 209.736875 237.926522 
L 237.636875 224.874864 
L 265.536875 194.584496 
L 293.436875 164.605248 
L 321.336875 150.83532 
L 349.236875 144.275927 
L 377.136875 131.921757 
L 405.036875 112.631497 
L 432.936875 111.71045 
L 460.836875 105.477903 
L 488.736875 101.575458 
L 516.636875 100.98675 
L 544.536875 105.527371 
L 572.436875 122.874779 
L 600.336875 145.833438 
L 628.236875 163.624884 
L 656.136875 180.383166 
L 684.036875 193.232358 
L 711.936875 207.128445 
L 739.836875 221.45309 
" clip-path="url(#p98f93fb975)" style="fill: none; stroke: #17becf; stroke-opacity: 0.8; stroke-width: 1.5; stroke-linecap: round"/>
   </g>
   <g id="line2d_100">
    <path d="M 98.136875 236.393024 
L 126.036875 241.080402 
L 153.936875 242.024611 
L 181.836875 240.814534 
L 209.736875 236.972724 
L 237.636875 226.931285 
L 265.536875 202.098901 
L 293.436875 173.740748 
L 321.336875 161.553699 
L 349.236875 157.467491 
L 377.136875 137.88689 
L 405.036875 122.714847 
L 432.936875 113.17008 
L 460.836875 103.173333 
L 488.736875 101.105597 
L 516.636875 101.260631 
L 544.536875 109.512281 
L 572.436875 123.183146 
L 600.336875 157.944562 
L 628.236875 175.896564 
L 656.136875 189.308607 
L 684.036875 201.067667 
L 711.936875 211.389909 
L 739.836875 223.684902 
" clip-path="url(#p98f93fb975)" style="fill: none; stroke: #9edae5; stroke-opacity: 0.8; stroke-width: 1.5; stroke-linecap: round"/>
   </g>
   <g id="patch_3">
    <path d="M 84.186875 263.48625 
L 84.186875 41.72625 
" style="fill: none; stroke: #000000; stroke-linejoin: miter; stroke-linecap: square"/>
   </g>
   <g id="patch_4">
    <path d="M 753.786875 263.48625 
L 753.786875 41.72625 
" style="fill: none; stroke: #000000; stroke-linejoin: miter; stroke-linecap: square"/>
   </g>
   <g id="patch_5">
    <path d="M 84.186875 263.48625 
L 753.786875 263.48625 
" style="fill: none; stroke: #000000; stroke-linejoin: miter; stroke-linecap: square"/>
   </g>
   <g id="patch_6">
    <path d="M 84.186875 41.72625 
L 753.786875 41.72625 
" style="fill: none; stroke: #000000; stroke-linejoin: miter; stroke-linecap: square"/>
   </g>
  </g>
 </g>
 <defs>
  <clipPath id="p98f93fb975">
   <rect x="84.186875" y="41.72625" width="669.6" height="221.76"/>
  </clipPath>
 </defs>
</svg>
