<?xml version="1.0" encoding="utf-8" standalone="no"?>
<!DOCTYPE svg PUBLIC "-//W3C//DTD SVG 1.1//EN"
  "http://www.w3.org/Graphics/SVG/1.1/DTD/svg11.dtd">
<svg xmlns:xlink="http://www.w3.org/1999/xlink" width="803.129375pt" height="338.0125pt" viewBox="0 0 803.129375 338.0125" xmlns="http://www.w3.org/2000/svg" version="1.1">
 <metadata>
  <rdf:RDF xmlns:dc="http://purl.org/dc/elements/1.1/" xmlns:cc="http://creativecommons.org/ns#" xmlns:rdf="http://www.w3.org/1999/02/22-rdf-syntax-ns#">
   <cc:Work>
    <dc:type rdf:resource="http://purl.org/dc/dcmitype/StillImage"/>
    <dc:date>2025-10-28T00:01:49.525365</dc:date>
    <dc:format>image/svg+xml</dc:format>
    <dc:creator>
     <cc:Agent>
      <dc:title>Matplotlib v3.10.7, https://matplotlib.org/</dc:title>
     </cc:Agent>
    </dc:creator>
   </cc:Work>
  </rdf:RDF>
 </metadata>
 <defs>
  <style type="text/css">*{stroke-linejoin: round; stroke-linecap: butt}</style>
 </defs>
 <g id="figure_1">
  <g id="patch_1">
   <path d="M 0 338.0125 
L 803.129375 338.0125 
L 803.129375 0 
L 0 0 
L 0 338.0125 
z
" style="fill: none"/>
  </g>
  <g id="axes_1">
   <g id="patch_2">
    <path d="M 97.529375 263.48625 
L 767.129375 263.48625 
L 767.129375 41.72625 
L 97.529375 41.72625 
L 97.529375 263.48625 
z
" style="fill: none"/>
   </g>
   <g id="line2d_1">
    <path d="M 117.820284 263.48625 
L 117.820284 41.72625 
" clip-path="url(#pc809611175)" style="fill: none; stroke-dasharray: 0.74,0.32; stroke-dashoffset: 0; stroke: #a9a9a9; stroke-opacity: 0.5; stroke-width: 0.2"/>
   </g>
   <g id="line2d_2">
    <path d="M 138.111193 263.48625 
L 138.111193 41.72625 
" clip-path="url(#pc809611175)" style="fill: none; stroke-dasharray: 0.74,0.32; stroke-dashoffset: 0; stroke: #a9a9a9; stroke-opacity: 0.5; stroke-width: 0.2"/>
   </g>
   <g id="line2d_3">
    <path d="M 158.402102 263.48625 
L 158.402102 41.72625 
" clip-path="url(#pc809611175)" style="fill: none; stroke-dasharray: 0.74,0.32; stroke-dashoffset: 0; stroke: #a9a9a9; stroke-opacity: 0.5; stroke-width: 0.2"/>
   </g>
   <g id="line2d_4">
    <path d="M 178.693011 263.48625 
L 178.693011 41.72625 
" clip-path="url(#pc809611175)" style="fill: none; stroke-dasharray: 0.74,0.32; stroke-dashoffset: 0; stroke: #a9a9a9; stroke-opacity: 0.5; stroke-width: 0.2"/>
   </g>
   <g id="line2d_5">
    <path d="M 198.98392 263.48625 
L 198.98392 41.72625 
" clip-path="url(#pc809611175)" style="fill: none; stroke-dasharray: 0.74,0.32; stroke-dashoffset: 0; stroke: #a9a9a9; stroke-opacity: 0.5; stroke-width: 0.2"/>
   </g>
   <g id="line2d_6">
    <path d="M 219.27483 263.48625 
L 219.27483 41.72625 
" clip-path="url(#pc809611175)" style="fill: none; stroke-dasharray: 0.74,0.32; stroke-dashoffset: 0; stroke: #a9a9a9; stroke-opacity: 0.5; stroke-width: 0.2"/>
   </g>
   <g id="line2d_7">
    <path d="M 239.565739 263.48625 
L 239.565739 41.72625 
" clip-path="url(#pc809611175)" style="fill: none; stroke-dasharray: 0.74,0.32; stroke-dashoffset: 0; stroke: #a9a9a9; stroke-opacity: 0.5; stroke-width: 0.2"/>
   </g>
   <g id="line2d_8">
    <path d="M 259.856648 263.48625 
L 259.856648 41.72625 
" clip-path="url(#pc809611175)" style="fill: none; stroke-dasharray: 0.74,0.32; stroke-dashoffset: 0; stroke: #a9a9a9; stroke-opacity: 0.5; stroke-width: 0.2"/>
   </g>
   <g id="line2d_9">
    <path d="M 280.147557 263.48625 
L 280.147557 41.72625 
" clip-path="url(#pc809611175)" style="fill: none; stroke-dasharray: 0.74,0.32; stroke-dashoffset: 0; stroke: #a9a9a9; stroke-opacity: 0.5; stroke-width: 0.2"/>
   </g>
   <g id="line2d_10">
    <path d="M 300.438466 263.48625 
L 300.438466 41.72625 
" clip-path="url(#pc809611175)" style="fill: none; stroke-dasharray: 0.74,0.32; stroke-dashoffset: 0; stroke: #a9a9a9; stroke-opacity: 0.5; stroke-width: 0.2"/>
   </g>
   <g id="line2d_11">
    <path d="M 320.729375 263.48625 
L 320.729375 41.72625 
" clip-path="url(#pc809611175)" style="fill: none; stroke-dasharray: 0.74,0.32; stroke-dashoffset: 0; stroke: #a9a9a9; stroke-opacity: 0.5; stroke-width: 0.2"/>
   </g>
   <g id="line2d_12">
    <path d="M 341.020284 263.48625 
L 341.020284 41.72625 
" clip-path="url(#pc809611175)" style="fill: none; stroke-dasharray: 0.74,0.32; stroke-dashoffset: 0; stroke: #a9a9a9; stroke-opacity: 0.5; stroke-width: 0.2"/>
   </g>
   <g id="line2d_13">
    <path d="M 361.311193 263.48625 
L 361.311193 41.72625 
" clip-path="url(#pc809611175)" style="fill: none; stroke-dasharray: 0.74,0.32; stroke-dashoffset: 0; stroke: #a9a9a9; stroke-opacity: 0.5; stroke-width: 0.2"/>
   </g>
   <g id="line2d_14">
    <path d="M 381.602102 263.48625 
L 381.602102 41.72625 
" clip-path="url(#pc809611175)" style="fill: none; stroke-dasharray: 0.74,0.32; stroke-dashoffset: 0; stroke: #a9a9a9; stroke-opacity: 0.5; stroke-width: 0.2"/>
   </g>
   <g id="line2d_15">
    <path d="M 401.893011 263.48625 
L 401.893011 41.72625 
" clip-path="url(#pc809611175)" style="fill: none; stroke-dasharray: 0.74,0.32; stroke-dashoffset: 0; stroke: #a9a9a9; stroke-opacity: 0.5; stroke-width: 0.2"/>
   </g>
   <g id="line2d_16">
    <path d="M 422.18392 263.48625 
L 422.18392 41.72625 
" clip-path="url(#pc809611175)" style="fill: none; stroke-dasharray: 0.74,0.32; stroke-dashoffset: 0; stroke: #a9a9a9; stroke-opacity: 0.5; stroke-width: 0.2"/>
   </g>
   <g id="line2d_17">
    <path d="M 442.47483 263.48625 
L 442.47483 41.72625 
" clip-path="url(#pc809611175)" style="fill: none; stroke-dasharray: 0.74,0.32; stroke-dashoffset: 0; stroke: #a9a9a9; stroke-opacity: 0.5; stroke-width: 0.2"/>
   </g>
   <g id="line2d_18">
    <path d="M 462.765739 263.48625 
L 462.765739 41.72625 
" clip-path="url(#pc809611175)" style="fill: none; stroke-dasharray: 0.74,0.32; stroke-dashoffset: 0; stroke: #a9a9a9; stroke-opacity: 0.5; stroke-width: 0.2"/>
   </g>
   <g id="line2d_19">
    <path d="M 483.056648 263.48625 
L 483.056648 41.72625 
" clip-path="url(#pc809611175)" style="fill: none; stroke-dasharray: 0.74,0.32; stroke-dashoffset: 0; stroke: #a9a9a9; stroke-opacity: 0.5; stroke-width: 0.2"/>
   </g>
   <g id="line2d_20">
    <path d="M 503.347557 263.48625 
L 503.347557 41.72625 
" clip-path="url(#pc809611175)" style="fill: none; stroke-dasharray: 0.74,0.32; stroke-dashoffset: 0; stroke: #a9a9a9; stroke-opacity: 0.5; stroke-width: 0.2"/>
   </g>
   <g id="line2d_21">
    <path d="M 523.638466 263.48625 
L 523.638466 41.72625 
" clip-path="url(#pc809611175)" style="fill: none; stroke-dasharray: 0.74,0.32; stroke-dashoffset: 0; stroke: #a9a9a9; stroke-opacity: 0.5; stroke-width: 0.2"/>
   </g>
   <g id="line2d_22">
    <path d="M 543.929375 263.48625 
L 543.929375 41.72625 
" clip-path="url(#pc809611175)" style="fill: none; stroke-dasharray: 0.74,0.32; stroke-dashoffset: 0; stroke: #a9a9a9; stroke-opacity: 0.5; stroke-width: 0.2"/>
   </g>
   <g id="line2d_23">
    <path d="M 564.220284 263.48625 
L 564.220284 41.72625 
" clip-path="url(#pc809611175)" style="fill: none; stroke-dasharray: 0.74,0.32; stroke-dashoffset: 0; stroke: #a9a9a9; stroke-opacity: 0.5; stroke-width: 0.2"/>
   </g>
   <g id="line2d_24">
    <path d="M 584.511193 263.48625 
L 584.511193 41.72625 
" clip-path="url(#pc809611175)" style="fill: none; stroke-dasharray: 0.74,0.32; stroke-dashoffset: 0; stroke: #a9a9a9; stroke-opacity: 0.5; stroke-width: 0.2"/>
   </g>
   <g id="line2d_25">
    <path d="M 604.802102 263.48625 
L 604.802102 41.72625 
" clip-path="url(#pc809611175)" style="fill: none; stroke-dasharray: 0.74,0.32; stroke-dashoffset: 0; stroke: #a9a9a9; stroke-opacity: 0.5; stroke-width: 0.2"/>
   </g>
   <g id="line2d_26">
    <path d="M 625.093011 263.48625 
L 625.093011 41.72625 
" clip-path="url(#pc809611175)" style="fill: none; stroke-dasharray: 0.74,0.32; stroke-dashoffset: 0; stroke: #a9a9a9; stroke-opacity: 0.5; stroke-width: 0.2"/>
   </g>
   <g id="line2d_27">
    <path d="M 645.38392 263.48625 
L 645.38392 41.72625 
" clip-path="url(#pc809611175)" style="fill: none; stroke-dasharray: 0.74,0.32; stroke-dashoffset: 0; stroke: #a9a9a9; stroke-opacity: 0.5; stroke-width: 0.2"/>
   </g>
   <g id="line2d_28">
    <path d="M 665.67483 263.48625 
L 665.67483 41.72625 
" clip-path="url(#pc809611175)" style="fill: none; stroke-dasharray: 0.74,0.32; stroke-dashoffset: 0; stroke: #a9a9a9; stroke-opacity: 0.5; stroke-width: 0.2"/>
   </g>
   <g id="line2d_29">
    <path d="M 685.965739 263.48625 
L 685.965739 41.72625 
" clip-path="url(#pc809611175)" style="fill: none; stroke-dasharray: 0.74,0.32; stroke-dashoffset: 0; stroke: #a9a9a9; stroke-opacity: 0.5; stroke-width: 0.2"/>
   </g>
   <g id="line2d_30">
    <path d="M 706.256648 263.48625 
L 706.256648 41.72625 
" clip-path="url(#pc809611175)" style="fill: none; stroke-dasharray: 0.74,0.32; stroke-dashoffset: 0; stroke: #a9a9a9; stroke-opacity: 0.5; stroke-width: 0.2"/>
   </g>
   <g id="line2d_31">
    <path d="M 726.547557 263.48625 
L 726.547557 41.72625 
" clip-path="url(#pc809611175)" style="fill: none; stroke-dasharray: 0.74,0.32; stroke-dashoffset: 0; stroke: #a9a9a9; stroke-opacity: 0.5; stroke-width: 0.2"/>
   </g>
   <g id="line2d_32">
    <path d="M 746.838466 263.48625 
L 746.838466 41.72625 
" clip-path="url(#pc809611175)" style="fill: none; stroke-dasharray: 0.74,0.32; stroke-dashoffset: 0; stroke: #a9a9a9; stroke-opacity: 0.5; stroke-width: 0.2"/>
   </g>
   <g id="line2d_33">
    <path d="M 97.529375 241.31025 
L 767.129375 241.31025 
" clip-path="url(#pc809611175)" style="fill: none; stroke-dasharray: 0.74,0.32; stroke-dashoffset: 0; stroke: #a9a9a9; stroke-opacity: 0.5; stroke-width: 0.2"/>
   </g>
   <g id="line2d_34">
    <path d="M 97.529375 219.13425 
L 767.129375 219.13425 
" clip-path="url(#pc809611175)" style="fill: none; stroke-dasharray: 0.74,0.32; stroke-dashoffset: 0; stroke: #a9a9a9; stroke-opacity: 0.5; stroke-width: 0.2"/>
   </g>
   <g id="line2d_35">
    <path d="M 97.529375 196.95825 
L 767.129375 196.95825 
" clip-path="url(#pc809611175)" style="fill: none; stroke-dasharray: 0.74,0.32; stroke-dashoffset: 0; stroke: #a9a9a9; stroke-opacity: 0.5; stroke-width: 0.2"/>
   </g>
   <g id="line2d_36">
    <path d="M 97.529375 174.78225 
L 767.129375 174.78225 
" clip-path="url(#pc809611175)" style="fill: none; stroke-dasharray: 0.74,0.32; stroke-dashoffset: 0; stroke: #a9a9a9; stroke-opacity: 0.5; stroke-width: 0.2"/>
   </g>
   <g id="line2d_37">
    <path d="M 97.529375 152.60625 
L 767.129375 152.60625 
" clip-path="url(#pc809611175)" style="fill: none; stroke-dasharray: 0.74,0.32; stroke-dashoffset: 0; stroke: #a9a9a9; stroke-opacity: 0.5; stroke-width: 0.2"/>
   </g>
   <g id="line2d_38">
    <path d="M 97.529375 130.43025 
L 767.129375 130.43025 
" clip-path="url(#pc809611175)" style="fill: none; stroke-dasharray: 0.74,0.32; stroke-dashoffset: 0; stroke: #a9a9a9; stroke-opacity: 0.5; stroke-width: 0.2"/>
   </g>
   <g id="line2d_39">
    <path d="M 97.529375 108.25425 
L 767.129375 108.25425 
" clip-path="url(#pc809611175)" style="fill: none; stroke-dasharray: 0.74,0.32; stroke-dashoffset: 0; stroke: #a9a9a9; stroke-opacity: 0.5; stroke-width: 0.2"/>
   </g>
   <g id="line2d_40">
    <path d="M 97.529375 86.07825 
L 767.129375 86.07825 
" clip-path="url(#pc809611175)" style="fill: none; stroke-dasharray: 0.74,0.32; stroke-dashoffset: 0; stroke: #a9a9a9; stroke-opacity: 0.5; stroke-width: 0.2"/>
   </g>
   <g id="line2d_41">
    <path d="M 97.529375 63.90225 
L 767.129375 63.90225 
" clip-path="url(#pc809611175)" style="fill: none; stroke-dasharray: 0.74,0.32; stroke-dashoffset: 0; stroke: #a9a9a9; stroke-opacity: 0.5; stroke-width: 0.2"/>
   </g>
   <g id="matplotlib.axis_1">
    <g id="xtick_1">
     <g id="line2d_42">
      <defs>
       <path id="mc0e476f6c0" d="M 0 0 
L 0 5 
" style="stroke: #000000"/>
      </defs>
      <g>
       <use xlink:href="#mc0e476f6c0" x="111.479375" y="263.48625" style="stroke: #000000"/>
      </g>
     </g>
     <g id="text_1">
      <!-- 1:00 -->
      <g transform="translate(114.581563 295.339375) rotate(-90) scale(0.12 -0.12)">
       <defs>
        <path id="ArialMT-31" d="M 2384 0 
L 1822 0 
L 1822 3584 
Q 1619 3391 1289 3197 
Q 959 3003 697 2906 
L 697 3450 
Q 1169 3672 1522 3987 
Q 1875 4303 2022 4600 
L 2384 4600 
L 2384 0 
z
" transform="scale(0.015625)"/>
        <path id="ArialMT-3a" d="M 578 2678 
L 578 3319 
L 1219 3319 
L 1219 2678 
L 578 2678 
z
M 578 0 
L 578 641 
L 1219 641 
L 1219 0 
L 578 0 
z
" transform="scale(0.015625)"/>
        <path id="ArialMT-30" d="M 266 2259 
Q 266 3072 433 3567 
Q 600 4063 929 4331 
Q 1259 4600 1759 4600 
Q 2128 4600 2406 4451 
Q 2684 4303 2865 4023 
Q 3047 3744 3150 3342 
Q 3253 2941 3253 2259 
Q 3253 1453 3087 958 
Q 2922 463 2592 192 
Q 2263 -78 1759 -78 
Q 1097 -78 719 397 
Q 266 969 266 2259 
z
M 844 2259 
Q 844 1131 1108 757 
Q 1372 384 1759 384 
Q 2147 384 2411 759 
Q 2675 1134 2675 2259 
Q 2675 3391 2411 3762 
Q 2147 4134 1753 4134 
Q 1366 4134 1134 3806 
Q 844 3388 844 2259 
z
" transform="scale(0.015625)"/>
       </defs>
       <use xlink:href="#ArialMT-31"/>
       <use xlink:href="#ArialMT-3a" transform="translate(55.615234 0)"/>
       <use xlink:href="#ArialMT-30" transform="translate(83.398438 0)"/>
       <use xlink:href="#ArialMT-30" transform="translate(139.013672 0)"/>
      </g>
     </g>
    </g>
    <g id="xtick_2">
     <g id="line2d_43">
      <g>
       <use xlink:href="#mc0e476f6c0" x="139.379375" y="263.48625" style="stroke: #000000"/>
      </g>
     </g>
     <g id="text_2">
      <!-- 2:00 -->
      <g transform="translate(142.481562 295.339375) rotate(-90) scale(0.12 -0.12)">
       <defs>
        <path id="ArialMT-32" d="M 3222 541 
L 3222 0 
L 194 0 
Q 188 203 259 391 
Q 375 700 629 1000 
Q 884 1300 1366 1694 
Q 2113 2306 2375 2664 
Q 2638 3022 2638 3341 
Q 2638 3675 2398 3904 
Q 2159 4134 1775 4134 
Q 1369 4134 1125 3890 
Q 881 3647 878 3216 
L 300 3275 
Q 359 3922 746 4261 
Q 1134 4600 1788 4600 
Q 2447 4600 2831 4234 
Q 3216 3869 3216 3328 
Q 3216 3053 3103 2787 
Q 2991 2522 2730 2228 
Q 2469 1934 1863 1422 
Q 1356 997 1212 845 
Q 1069 694 975 541 
L 3222 541 
z
" transform="scale(0.015625)"/>
       </defs>
       <use xlink:href="#ArialMT-32"/>
       <use xlink:href="#ArialMT-3a" transform="translate(55.615234 0)"/>
       <use xlink:href="#ArialMT-30" transform="translate(83.398438 0)"/>
       <use xlink:href="#ArialMT-30" transform="translate(139.013672 0)"/>
      </g>
     </g>
    </g>
    <g id="xtick_3">
     <g id="line2d_44">
      <g>
       <use xlink:href="#mc0e476f6c0" x="167.279375" y="263.48625" style="stroke: #000000"/>
      </g>
     </g>
     <g id="text_3">
      <!-- 3:00 -->
      <g transform="translate(170.381563 295.339375) rotate(-90) scale(0.12 -0.12)">
       <defs>
        <path id="ArialMT-33" d="M 269 1209 
L 831 1284 
Q 928 806 1161 595 
Q 1394 384 1728 384 
Q 2125 384 2398 659 
Q 2672 934 2672 1341 
Q 2672 1728 2419 1979 
Q 2166 2231 1775 2231 
Q 1616 2231 1378 2169 
L 1441 2663 
Q 1497 2656 1531 2656 
Q 1891 2656 2178 2843 
Q 2466 3031 2466 3422 
Q 2466 3731 2256 3934 
Q 2047 4138 1716 4138 
Q 1388 4138 1169 3931 
Q 950 3725 888 3313 
L 325 3413 
Q 428 3978 793 4289 
Q 1159 4600 1703 4600 
Q 2078 4600 2393 4439 
Q 2709 4278 2876 4000 
Q 3044 3722 3044 3409 
Q 3044 3113 2884 2869 
Q 2725 2625 2413 2481 
Q 2819 2388 3044 2092 
Q 3269 1797 3269 1353 
Q 3269 753 2831 336 
Q 2394 -81 1725 -81 
Q 1122 -81 723 278 
Q 325 638 269 1209 
z
" transform="scale(0.015625)"/>
       </defs>
       <use xlink:href="#ArialMT-33"/>
       <use xlink:href="#ArialMT-3a" transform="translate(55.615234 0)"/>
       <use xlink:href="#ArialMT-30" transform="translate(83.398438 0)"/>
       <use xlink:href="#ArialMT-30" transform="translate(139.013672 0)"/>
      </g>
     </g>
    </g>
    <g id="xtick_4">
     <g id="line2d_45">
      <g>
       <use xlink:href="#mc0e476f6c0" x="195.179375" y="263.48625" style="stroke: #000000"/>
      </g>
     </g>
     <g id="text_4">
      <!-- 4:00 -->
      <g transform="translate(198.281563 295.339375) rotate(-90) scale(0.12 -0.12)">
       <defs>
        <path id="ArialMT-34" d="M 2069 0 
L 2069 1097 
L 81 1097 
L 81 1613 
L 2172 4581 
L 2631 4581 
L 2631 1613 
L 3250 1613 
L 3250 1097 
L 2631 1097 
L 2631 0 
L 2069 0 
z
M 2069 1613 
L 2069 3678 
L 634 1613 
L 2069 1613 
z
" transform="scale(0.015625)"/>
       </defs>
       <use xlink:href="#ArialMT-34"/>
       <use xlink:href="#ArialMT-3a" transform="translate(55.615234 0)"/>
       <use xlink:href="#ArialMT-30" transform="translate(83.398438 0)"/>
       <use xlink:href="#ArialMT-30" transform="translate(139.013672 0)"/>
      </g>
     </g>
    </g>
    <g id="xtick_5">
     <g id="line2d_46">
      <g>
       <use xlink:href="#mc0e476f6c0" x="223.079375" y="263.48625" style="stroke: #000000"/>
      </g>
     </g>
     <g id="text_5">
      <!-- 5:00 -->
      <g transform="translate(226.181562 295.339375) rotate(-90) scale(0.12 -0.12)">
       <defs>
        <path id="ArialMT-35" d="M 266 1200 
L 856 1250 
Q 922 819 1161 601 
Q 1400 384 1738 384 
Q 2144 384 2425 690 
Q 2706 997 2706 1503 
Q 2706 1984 2436 2262 
Q 2166 2541 1728 2541 
Q 1456 2541 1237 2417 
Q 1019 2294 894 2097 
L 366 2166 
L 809 4519 
L 3088 4519 
L 3088 3981 
L 1259 3981 
L 1013 2750 
Q 1425 3038 1878 3038 
Q 2478 3038 2890 2622 
Q 3303 2206 3303 1553 
Q 3303 931 2941 478 
Q 2500 -78 1738 -78 
Q 1113 -78 717 272 
Q 322 622 266 1200 
z
" transform="scale(0.015625)"/>
       </defs>
       <use xlink:href="#ArialMT-35"/>
       <use xlink:href="#ArialMT-3a" transform="translate(55.615234 0)"/>
       <use xlink:href="#ArialMT-30" transform="translate(83.398438 0)"/>
       <use xlink:href="#ArialMT-30" transform="translate(139.013672 0)"/>
      </g>
     </g>
    </g>
    <g id="xtick_6">
     <g id="line2d_47">
      <g>
       <use xlink:href="#mc0e476f6c0" x="250.979375" y="263.48625" style="stroke: #000000"/>
      </g>
     </g>
     <g id="text_6">
      <!-- 6:00 -->
      <g transform="translate(254.081563 295.339375) rotate(-90) scale(0.12 -0.12)">
       <defs>
        <path id="ArialMT-36" d="M 3184 3459 
L 2625 3416 
Q 2550 3747 2413 3897 
Q 2184 4138 1850 4138 
Q 1581 4138 1378 3988 
Q 1113 3794 959 3422 
Q 806 3050 800 2363 
Q 1003 2672 1297 2822 
Q 1591 2972 1913 2972 
Q 2475 2972 2870 2558 
Q 3266 2144 3266 1488 
Q 3266 1056 3080 686 
Q 2894 316 2569 119 
Q 2244 -78 1831 -78 
Q 1128 -78 684 439 
Q 241 956 241 2144 
Q 241 3472 731 4075 
Q 1159 4600 1884 4600 
Q 2425 4600 2770 4297 
Q 3116 3994 3184 3459 
z
M 888 1484 
Q 888 1194 1011 928 
Q 1134 663 1356 523 
Q 1578 384 1822 384 
Q 2178 384 2434 671 
Q 2691 959 2691 1453 
Q 2691 1928 2437 2201 
Q 2184 2475 1800 2475 
Q 1419 2475 1153 2201 
Q 888 1928 888 1484 
z
" transform="scale(0.015625)"/>
       </defs>
       <use xlink:href="#ArialMT-36"/>
       <use xlink:href="#ArialMT-3a" transform="translate(55.615234 0)"/>
       <use xlink:href="#ArialMT-30" transform="translate(83.398438 0)"/>
       <use xlink:href="#ArialMT-30" transform="translate(139.013672 0)"/>
      </g>
     </g>
    </g>
    <g id="xtick_7">
     <g id="line2d_48">
      <g>
       <use xlink:href="#mc0e476f6c0" x="278.879375" y="263.48625" style="stroke: #000000"/>
      </g>
     </g>
     <g id="text_7">
      <!-- 7:00 -->
      <g transform="translate(281.981562 295.339375) rotate(-90) scale(0.12 -0.12)">
       <defs>
        <path id="ArialMT-37" d="M 303 3981 
L 303 4522 
L 3269 4522 
L 3269 4084 
Q 2831 3619 2401 2847 
Q 1972 2075 1738 1259 
Q 1569 684 1522 0 
L 944 0 
Q 953 541 1156 1306 
Q 1359 2072 1739 2783 
Q 2119 3494 2547 3981 
L 303 3981 
z
" transform="scale(0.015625)"/>
       </defs>
       <use xlink:href="#ArialMT-37"/>
       <use xlink:href="#ArialMT-3a" transform="translate(55.615234 0)"/>
       <use xlink:href="#ArialMT-30" transform="translate(83.398438 0)"/>
       <use xlink:href="#ArialMT-30" transform="translate(139.013672 0)"/>
      </g>
     </g>
    </g>
    <g id="xtick_8">
     <g id="line2d_49">
      <g>
       <use xlink:href="#mc0e476f6c0" x="306.779375" y="263.48625" style="stroke: #000000"/>
      </g>
     </g>
     <g id="text_8">
      <!-- 8:00 -->
      <g transform="translate(309.881562 295.339375) rotate(-90) scale(0.12 -0.12)">
       <defs>
        <path id="ArialMT-38" d="M 1131 2484 
Q 781 2613 612 2850 
Q 444 3088 444 3419 
Q 444 3919 803 4259 
Q 1163 4600 1759 4600 
Q 2359 4600 2725 4251 
Q 3091 3903 3091 3403 
Q 3091 3084 2923 2848 
Q 2756 2613 2416 2484 
Q 2838 2347 3058 2040 
Q 3278 1734 3278 1309 
Q 3278 722 2862 322 
Q 2447 -78 1769 -78 
Q 1091 -78 675 323 
Q 259 725 259 1325 
Q 259 1772 486 2073 
Q 713 2375 1131 2484 
z
M 1019 3438 
Q 1019 3113 1228 2906 
Q 1438 2700 1772 2700 
Q 2097 2700 2305 2904 
Q 2513 3109 2513 3406 
Q 2513 3716 2298 3927 
Q 2084 4138 1766 4138 
Q 1444 4138 1231 3931 
Q 1019 3725 1019 3438 
z
M 838 1322 
Q 838 1081 952 856 
Q 1066 631 1291 507 
Q 1516 384 1775 384 
Q 2178 384 2440 643 
Q 2703 903 2703 1303 
Q 2703 1709 2433 1975 
Q 2163 2241 1756 2241 
Q 1359 2241 1098 1978 
Q 838 1716 838 1322 
z
" transform="scale(0.015625)"/>
       </defs>
       <use xlink:href="#ArialMT-38"/>
       <use xlink:href="#ArialMT-3a" transform="translate(55.615234 0)"/>
       <use xlink:href="#ArialMT-30" transform="translate(83.398438 0)"/>
       <use xlink:href="#ArialMT-30" transform="translate(139.013672 0)"/>
      </g>
     </g>
    </g>
    <g id="xtick_9">
     <g id="line2d_50">
      <g>
       <use xlink:href="#mc0e476f6c0" x="334.679375" y="263.48625" style="stroke: #000000"/>
      </g>
     </g>
     <g id="text_9">
      <!-- 9:00 -->
      <g transform="translate(337.781563 295.339375) rotate(-90) scale(0.12 -0.12)">
       <defs>
        <path id="ArialMT-39" d="M 350 1059 
L 891 1109 
Q 959 728 1153 556 
Q 1347 384 1650 384 
Q 1909 384 2104 503 
Q 2300 622 2425 820 
Q 2550 1019 2634 1356 
Q 2719 1694 2719 2044 
Q 2719 2081 2716 2156 
Q 2547 1888 2255 1720 
Q 1963 1553 1622 1553 
Q 1053 1553 659 1965 
Q 266 2378 266 3053 
Q 266 3750 677 4175 
Q 1088 4600 1706 4600 
Q 2153 4600 2523 4359 
Q 2894 4119 3086 3673 
Q 3278 3228 3278 2384 
Q 3278 1506 3087 986 
Q 2897 466 2520 194 
Q 2144 -78 1638 -78 
Q 1100 -78 759 220 
Q 419 519 350 1059 
z
M 2653 3081 
Q 2653 3566 2395 3850 
Q 2138 4134 1775 4134 
Q 1400 4134 1122 3828 
Q 844 3522 844 3034 
Q 844 2597 1108 2323 
Q 1372 2050 1759 2050 
Q 2150 2050 2401 2323 
Q 2653 2597 2653 3081 
z
" transform="scale(0.015625)"/>
       </defs>
       <use xlink:href="#ArialMT-39"/>
       <use xlink:href="#ArialMT-3a" transform="translate(55.615234 0)"/>
       <use xlink:href="#ArialMT-30" transform="translate(83.398438 0)"/>
       <use xlink:href="#ArialMT-30" transform="translate(139.013672 0)"/>
      </g>
     </g>
    </g>
    <g id="xtick_10">
     <g id="line2d_51">
      <g>
       <use xlink:href="#mc0e476f6c0" x="362.579375" y="263.48625" style="stroke: #000000"/>
      </g>
     </g>
     <g id="text_10">
      <!-- 10:00 -->
      <g transform="translate(365.681562 302.0125) rotate(-90) scale(0.12 -0.12)">
       <use xlink:href="#ArialMT-31"/>
       <use xlink:href="#ArialMT-30" transform="translate(55.615234 0)"/>
       <use xlink:href="#ArialMT-3a" transform="translate(111.230469 0)"/>
       <use xlink:href="#ArialMT-30" transform="translate(139.013672 0)"/>
       <use xlink:href="#ArialMT-30" transform="translate(194.628906 0)"/>
      </g>
     </g>
    </g>
    <g id="xtick_11">
     <g id="line2d_52">
      <g>
       <use xlink:href="#mc0e476f6c0" x="390.479375" y="263.48625" style="stroke: #000000"/>
      </g>
     </g>
     <g id="text_11">
      <!-- 11:00 -->
      <g transform="translate(393.581562 301.1275) rotate(-90) scale(0.12 -0.12)">
       <use xlink:href="#ArialMT-31"/>
       <use xlink:href="#ArialMT-31" transform="translate(48.240234 0)"/>
       <use xlink:href="#ArialMT-3a" transform="translate(103.855469 0)"/>
       <use xlink:href="#ArialMT-30" transform="translate(131.638672 0)"/>
       <use xlink:href="#ArialMT-30" transform="translate(187.253906 0)"/>
      </g>
     </g>
    </g>
    <g id="xtick_12">
     <g id="line2d_53">
      <g>
       <use xlink:href="#mc0e476f6c0" x="418.379375" y="263.48625" style="stroke: #000000"/>
      </g>
     </g>
     <g id="text_12">
      <!-- 12:00 -->
      <g transform="translate(421.481562 302.0125) rotate(-90) scale(0.12 -0.12)">
       <use xlink:href="#ArialMT-31"/>
       <use xlink:href="#ArialMT-32" transform="translate(55.615234 0)"/>
       <use xlink:href="#ArialMT-3a" transform="translate(111.230469 0)"/>
       <use xlink:href="#ArialMT-30" transform="translate(139.013672 0)"/>
       <use xlink:href="#ArialMT-30" transform="translate(194.628906 0)"/>
      </g>
     </g>
    </g>
    <g id="xtick_13">
     <g id="line2d_54">
      <g>
       <use xlink:href="#mc0e476f6c0" x="446.279375" y="263.48625" style="stroke: #000000"/>
      </g>
     </g>
     <g id="text_13">
      <!-- 13:00 -->
      <g transform="translate(449.381562 302.0125) rotate(-90) scale(0.12 -0.12)">
       <use xlink:href="#ArialMT-31"/>
       <use xlink:href="#ArialMT-33" transform="translate(55.615234 0)"/>
       <use xlink:href="#ArialMT-3a" transform="translate(111.230469 0)"/>
       <use xlink:href="#ArialMT-30" transform="translate(139.013672 0)"/>
       <use xlink:href="#ArialMT-30" transform="translate(194.628906 0)"/>
      </g>
     </g>
    </g>
    <g id="xtick_14">
     <g id="line2d_55">
      <g>
       <use xlink:href="#mc0e476f6c0" x="474.179375" y="263.48625" style="stroke: #000000"/>
      </g>
     </g>
     <g id="text_14">
      <!-- 14:00 -->
      <g transform="translate(477.281562 302.0125) rotate(-90) scale(0.12 -0.12)">
       <use xlink:href="#ArialMT-31"/>
       <use xlink:href="#ArialMT-34" transform="translate(55.615234 0)"/>
       <use xlink:href="#ArialMT-3a" transform="translate(111.230469 0)"/>
       <use xlink:href="#ArialMT-30" transform="translate(139.013672 0)"/>
       <use xlink:href="#ArialMT-30" transform="translate(194.628906 0)"/>
      </g>
     </g>
    </g>
    <g id="xtick_15">
     <g id="line2d_56">
      <g>
       <use xlink:href="#mc0e476f6c0" x="502.079375" y="263.48625" style="stroke: #000000"/>
      </g>
     </g>
     <g id="text_15">
      <!-- 15:00 -->
      <g transform="translate(505.181562 302.0125) rotate(-90) scale(0.12 -0.12)">
       <use xlink:href="#ArialMT-31"/>
       <use xlink:href="#ArialMT-35" transform="translate(55.615234 0)"/>
       <use xlink:href="#ArialMT-3a" transform="translate(111.230469 0)"/>
       <use xlink:href="#ArialMT-30" transform="translate(139.013672 0)"/>
       <use xlink:href="#ArialMT-30" transform="translate(194.628906 0)"/>
      </g>
     </g>
    </g>
    <g id="xtick_16">
     <g id="line2d_57">
      <g>
       <use xlink:href="#mc0e476f6c0" x="529.979375" y="263.48625" style="stroke: #000000"/>
      </g>
     </g>
     <g id="text_16">
      <!-- 16:00 -->
      <g transform="translate(533.081563 302.0125) rotate(-90) scale(0.12 -0.12)">
       <use xlink:href="#ArialMT-31"/>
       <use xlink:href="#ArialMT-36" transform="translate(55.615234 0)"/>
       <use xlink:href="#ArialMT-3a" transform="translate(111.230469 0)"/>
       <use xlink:href="#ArialMT-30" transform="translate(139.013672 0)"/>
       <use xlink:href="#ArialMT-30" transform="translate(194.628906 0)"/>
      </g>
     </g>
    </g>
    <g id="xtick_17">
     <g id="line2d_58">
      <g>
       <use xlink:href="#mc0e476f6c0" x="557.879375" y="263.48625" style="stroke: #000000"/>
      </g>
     </g>
     <g id="text_17">
      <!-- 17:00 -->
      <g transform="translate(560.981562 302.0125) rotate(-90) scale(0.12 -0.12)">
       <use xlink:href="#ArialMT-31"/>
       <use xlink:href="#ArialMT-37" transform="translate(55.615234 0)"/>
       <use xlink:href="#ArialMT-3a" transform="translate(111.230469 0)"/>
       <use xlink:href="#ArialMT-30" transform="translate(139.013672 0)"/>
       <use xlink:href="#ArialMT-30" transform="translate(194.628906 0)"/>
      </g>
     </g>
    </g>
    <g id="xtick_18">
     <g id="line2d_59">
      <g>
       <use xlink:href="#mc0e476f6c0" x="585.779375" y="263.48625" style="stroke: #000000"/>
      </g>
     </g>
     <g id="text_18">
      <!-- 18:00 -->
      <g transform="translate(588.881562 302.0125) rotate(-90) scale(0.12 -0.12)">
       <use xlink:href="#ArialMT-31"/>
       <use xlink:href="#ArialMT-38" transform="translate(55.615234 0)"/>
       <use xlink:href="#ArialMT-3a" transform="translate(111.230469 0)"/>
       <use xlink:href="#ArialMT-30" transform="translate(139.013672 0)"/>
       <use xlink:href="#ArialMT-30" transform="translate(194.628906 0)"/>
      </g>
     </g>
    </g>
    <g id="xtick_19">
     <g id="line2d_60">
      <g>
       <use xlink:href="#mc0e476f6c0" x="613.679375" y="263.48625" style="stroke: #000000"/>
      </g>
     </g>
     <g id="text_19">
      <!-- 19:00 -->
      <g transform="translate(616.781562 302.0125) rotate(-90) scale(0.12 -0.12)">
       <use xlink:href="#ArialMT-31"/>
       <use xlink:href="#ArialMT-39" transform="translate(55.615234 0)"/>
       <use xlink:href="#ArialMT-3a" transform="translate(111.230469 0)"/>
       <use xlink:href="#ArialMT-30" transform="translate(139.013672 0)"/>
       <use xlink:href="#ArialMT-30" transform="translate(194.628906 0)"/>
      </g>
     </g>
    </g>
    <g id="xtick_20">
     <g id="line2d_61">
      <g>
       <use xlink:href="#mc0e476f6c0" x="641.579375" y="263.48625" style="stroke: #000000"/>
      </g>
     </g>
     <g id="text_20">
      <!-- 20:00 -->
      <g transform="translate(644.681562 302.0125) rotate(-90) scale(0.12 -0.12)">
       <use xlink:href="#ArialMT-32"/>
       <use xlink:href="#ArialMT-30" transform="translate(55.615234 0)"/>
       <use xlink:href="#ArialMT-3a" transform="translate(111.230469 0)"/>
       <use xlink:href="#ArialMT-30" transform="translate(139.013672 0)"/>
       <use xlink:href="#ArialMT-30" transform="translate(194.628906 0)"/>
      </g>
     </g>
    </g>
    <g id="xtick_21">
     <g id="line2d_62">
      <g>
       <use xlink:href="#mc0e476f6c0" x="669.479375" y="263.48625" style="stroke: #000000"/>
      </g>
     </g>
     <g id="text_21">
      <!-- 21:00 -->
      <g transform="translate(672.581562 302.0125) rotate(-90) scale(0.12 -0.12)">
       <use xlink:href="#ArialMT-32"/>
       <use xlink:href="#ArialMT-31" transform="translate(55.615234 0)"/>
       <use xlink:href="#ArialMT-3a" transform="translate(111.230469 0)"/>
       <use xlink:href="#ArialMT-30" transform="translate(139.013672 0)"/>
       <use xlink:href="#ArialMT-30" transform="translate(194.628906 0)"/>
      </g>
     </g>
    </g>
    <g id="xtick_22">
     <g id="line2d_63">
      <g>
       <use xlink:href="#mc0e476f6c0" x="697.379375" y="263.48625" style="stroke: #000000"/>
      </g>
     </g>
     <g id="text_22">
      <!-- 22:00 -->
      <g transform="translate(700.481562 302.0125) rotate(-90) scale(0.12 -0.12)">
       <use xlink:href="#ArialMT-32"/>
       <use xlink:href="#ArialMT-32" transform="translate(55.615234 0)"/>
       <use xlink:href="#ArialMT-3a" transform="translate(111.230469 0)"/>
       <use xlink:href="#ArialMT-30" transform="translate(139.013672 0)"/>
       <use xlink:href="#ArialMT-30" transform="translate(194.628906 0)"/>
      </g>
     </g>
    </g>
    <g id="xtick_23">
     <g id="line2d_64">
      <g>
       <use xlink:href="#mc0e476f6c0" x="725.279375" y="263.48625" style="stroke: #000000"/>
      </g>
     </g>
     <g id="text_23">
      <!-- 23:00 -->
      <g transform="translate(728.381562 302.0125) rotate(-90) scale(0.12 -0.12)">
       <use xlink:href="#ArialMT-32"/>
       <use xlink:href="#ArialMT-33" transform="translate(55.615234 0)"/>
       <use xlink:href="#ArialMT-3a" transform="translate(111.230469 0)"/>
       <use xlink:href="#ArialMT-30" transform="translate(139.013672 0)"/>
       <use xlink:href="#ArialMT-30" transform="translate(194.628906 0)"/>
      </g>
     </g>
    </g>
    <g id="xtick_24">
     <g id="line2d_65">
      <g>
       <use xlink:href="#mc0e476f6c0" x="753.179375" y="263.48625" style="stroke: #000000"/>
      </g>
     </g>
     <g id="text_24">
      <!-- 24:00 -->
      <g transform="translate(756.281562 302.0125) rotate(-90) scale(0.12 -0.12)">
       <use xlink:href="#ArialMT-32"/>
       <use xlink:href="#ArialMT-34" transform="translate(55.615234 0)"/>
       <use xlink:href="#ArialMT-3a" transform="translate(111.230469 0)"/>
       <use xlink:href="#ArialMT-30" transform="translate(139.013672 0)"/>
       <use xlink:href="#ArialMT-30" transform="translate(194.628906 0)"/>
      </g>
     </g>
    </g>
   </g>
   <g id="matplotlib.axis_2">
    <g id="ytick_1">
     <g id="line2d_66">
      <defs>
       <path id="m0180944e98" d="M 0 0 
L -5 0 
" style="stroke: #000000; stroke-opacity: 0; stroke-width: 1.5"/>
      </defs>
      <g>
       <use xlink:href="#m0180944e98" x="97.529375" y="249.62625" style="fill-opacity: 0; stroke: #000000; stroke-opacity: 0; stroke-width: 1.5"/>
      </g>
     </g>
     <g id="text_25">
      <!-- 0.00 -->
      <g transform="translate(57.891875 255.3525) scale(0.16 -0.16)">
       <defs>
        <path id="ArialMT-2e" d="M 581 0 
L 581 641 
L 1222 641 
L 1222 0 
L 581 0 
z
" transform="scale(0.015625)"/>
       </defs>
       <use xlink:href="#ArialMT-30"/>
       <use xlink:href="#ArialMT-2e" transform="translate(55.615234 0)"/>
       <use xlink:href="#ArialMT-30" transform="translate(83.398438 0)"/>
       <use xlink:href="#ArialMT-30" transform="translate(139.013672 0)"/>
      </g>
     </g>
    </g>
    <g id="ytick_2">
     <g id="line2d_67">
      <g>
       <use xlink:href="#m0180944e98" x="97.529375" y="180.32625" style="fill-opacity: 0; stroke: #000000; stroke-opacity: 0; stroke-width: 1.5"/>
      </g>
     </g>
     <g id="text_26">
      <!-- 0.02 -->
      <g transform="translate(57.891875 186.0525) scale(0.16 -0.16)">
       <use xlink:href="#ArialMT-30"/>
       <use xlink:href="#ArialMT-2e" transform="translate(55.615234 0)"/>
       <use xlink:href="#ArialMT-30" transform="translate(83.398438 0)"/>
       <use xlink:href="#ArialMT-32" transform="translate(139.013672 0)"/>
      </g>
     </g>
    </g>
    <g id="ytick_3">
     <g id="line2d_68">
      <g>
       <use xlink:href="#m0180944e98" x="97.529375" y="111.02625" style="fill-opacity: 0; stroke: #000000; stroke-opacity: 0; stroke-width: 1.5"/>
      </g>
     </g>
     <g id="text_27">
      <!-- 0.04 -->
      <g transform="translate(57.891875 116.7525) scale(0.16 -0.16)">
       <use xlink:href="#ArialMT-30"/>
       <use xlink:href="#ArialMT-2e" transform="translate(55.615234 0)"/>
       <use xlink:href="#ArialMT-30" transform="translate(83.398438 0)"/>
       <use xlink:href="#ArialMT-34" transform="translate(139.013672 0)"/>
      </g>
     </g>
    </g>
    <g id="ytick_4">
     <g id="line2d_69">
      <g>
       <use xlink:href="#m0180944e98" x="97.529375" y="41.72625" style="fill-opacity: 0; stroke: #000000; stroke-opacity: 0; stroke-width: 1.5"/>
      </g>
     </g>
     <g id="text_28">
      <!-- 0.06 -->
      <g transform="translate(57.891875 47.4525) scale(0.16 -0.16)">
       <use xlink:href="#ArialMT-30"/>
       <use xlink:href="#ArialMT-2e" transform="translate(55.615234 0)"/>
       <use xlink:href="#ArialMT-30" transform="translate(83.398438 0)"/>
       <use xlink:href="#ArialMT-36" transform="translate(139.013672 0)"/>
      </g>
     </g>
    </g>
    <g id="text_29">
     <!-- Electricity (MWh) -->
     <g transform="translate(49.103438 220.60125) rotate(-90) scale(0.18 -0.18)">
      <defs>
       <path id="ArialMT-45" d="M 506 0 
L 506 4581 
L 3819 4581 
L 3819 4041 
L 1113 4041 
L 1113 2638 
L 3647 2638 
L 3647 2100 
L 1113 2100 
L 1113 541 
L 3925 541 
L 3925 0 
L 506 0 
z
" transform="scale(0.015625)"/>
       <path id="ArialMT-6c" d="M 409 0 
L 409 4581 
L 972 4581 
L 972 0 
L 409 0 
z
" transform="scale(0.015625)"/>
       <path id="ArialMT-65" d="M 2694 1069 
L 3275 997 
Q 3138 488 2766 206 
Q 2394 -75 1816 -75 
Q 1088 -75 661 373 
Q 234 822 234 1631 
Q 234 2469 665 2931 
Q 1097 3394 1784 3394 
Q 2450 3394 2872 2941 
Q 3294 2488 3294 1666 
Q 3294 1616 3291 1516 
L 816 1516 
Q 847 969 1125 678 
Q 1403 388 1819 388 
Q 2128 388 2347 550 
Q 2566 713 2694 1069 
z
M 847 1978 
L 2700 1978 
Q 2663 2397 2488 2606 
Q 2219 2931 1791 2931 
Q 1403 2931 1139 2672 
Q 875 2413 847 1978 
z
" transform="scale(0.015625)"/>
       <path id="ArialMT-63" d="M 2588 1216 
L 3141 1144 
Q 3050 572 2676 248 
Q 2303 -75 1759 -75 
Q 1078 -75 664 370 
Q 250 816 250 1647 
Q 250 2184 428 2587 
Q 606 2991 970 3192 
Q 1334 3394 1763 3394 
Q 2303 3394 2647 3120 
Q 2991 2847 3088 2344 
L 2541 2259 
Q 2463 2594 2264 2762 
Q 2066 2931 1784 2931 
Q 1359 2931 1093 2626 
Q 828 2322 828 1663 
Q 828 994 1084 691 
Q 1341 388 1753 388 
Q 2084 388 2306 591 
Q 2528 794 2588 1216 
z
" transform="scale(0.015625)"/>
       <path id="ArialMT-74" d="M 1650 503 
L 1731 6 
Q 1494 -44 1306 -44 
Q 1000 -44 831 53 
Q 663 150 594 308 
Q 525 466 525 972 
L 525 2881 
L 113 2881 
L 113 3319 
L 525 3319 
L 525 4141 
L 1084 4478 
L 1084 3319 
L 1650 3319 
L 1650 2881 
L 1084 2881 
L 1084 941 
Q 1084 700 1114 631 
Q 1144 563 1211 522 
Q 1278 481 1403 481 
Q 1497 481 1650 503 
z
" transform="scale(0.015625)"/>
       <path id="ArialMT-72" d="M 416 0 
L 416 3319 
L 922 3319 
L 922 2816 
Q 1116 3169 1280 3281 
Q 1444 3394 1641 3394 
Q 1925 3394 2219 3213 
L 2025 2691 
Q 1819 2813 1613 2813 
Q 1428 2813 1281 2702 
Q 1134 2591 1072 2394 
Q 978 2094 978 1738 
L 978 0 
L 416 0 
z
" transform="scale(0.015625)"/>
       <path id="ArialMT-69" d="M 425 3934 
L 425 4581 
L 988 4581 
L 988 3934 
L 425 3934 
z
M 425 0 
L 425 3319 
L 988 3319 
L 988 0 
L 425 0 
z
" transform="scale(0.015625)"/>
       <path id="ArialMT-79" d="M 397 -1278 
L 334 -750 
Q 519 -800 656 -800 
Q 844 -800 956 -737 
Q 1069 -675 1141 -563 
Q 1194 -478 1313 -144 
Q 1328 -97 1363 -6 
L 103 3319 
L 709 3319 
L 1400 1397 
Q 1534 1031 1641 628 
Q 1738 1016 1872 1384 
L 2581 3319 
L 3144 3319 
L 1881 -56 
Q 1678 -603 1566 -809 
Q 1416 -1088 1222 -1217 
Q 1028 -1347 759 -1347 
Q 597 -1347 397 -1278 
z
" transform="scale(0.015625)"/>
       <path id="ArialMT-20" transform="scale(0.015625)"/>
       <path id="ArialMT-28" d="M 1497 -1347 
Q 1031 -759 709 28 
Q 388 816 388 1659 
Q 388 2403 628 3084 
Q 909 3875 1497 4659 
L 1900 4659 
Q 1522 4009 1400 3731 
Q 1209 3300 1100 2831 
Q 966 2247 966 1656 
Q 966 153 1900 -1347 
L 1497 -1347 
z
" transform="scale(0.015625)"/>
       <path id="ArialMT-4d" d="M 475 0 
L 475 4581 
L 1388 4581 
L 2472 1338 
Q 2622 884 2691 659 
Q 2769 909 2934 1394 
L 4031 4581 
L 4847 4581 
L 4847 0 
L 4263 0 
L 4263 3834 
L 2931 0 
L 2384 0 
L 1059 3900 
L 1059 0 
L 475 0 
z
" transform="scale(0.015625)"/>
       <path id="ArialMT-57" d="M 1294 0 
L 78 4581 
L 700 4581 
L 1397 1578 
Q 1509 1106 1591 641 
Q 1766 1375 1797 1488 
L 2669 4581 
L 3400 4581 
L 4056 2263 
Q 4303 1400 4413 641 
Q 4500 1075 4641 1638 
L 5359 4581 
L 5969 4581 
L 4713 0 
L 4128 0 
L 3163 3491 
Q 3041 3928 3019 4028 
Q 2947 3713 2884 3491 
L 1913 0 
L 1294 0 
z
" transform="scale(0.015625)"/>
       <path id="ArialMT-68" d="M 422 0 
L 422 4581 
L 984 4581 
L 984 2938 
Q 1378 3394 1978 3394 
Q 2347 3394 2619 3248 
Q 2891 3103 3008 2847 
Q 3125 2591 3125 2103 
L 3125 0 
L 2563 0 
L 2563 2103 
Q 2563 2525 2380 2717 
Q 2197 2909 1863 2909 
Q 1613 2909 1392 2779 
Q 1172 2650 1078 2428 
Q 984 2206 984 1816 
L 984 0 
L 422 0 
z
" transform="scale(0.015625)"/>
       <path id="ArialMT-29" d="M 791 -1347 
L 388 -1347 
Q 1322 153 1322 1656 
Q 1322 2244 1188 2822 
Q 1081 3291 891 3722 
Q 769 4003 388 4659 
L 791 4659 
Q 1378 3875 1659 3084 
Q 1900 2403 1900 1659 
Q 1900 816 1576 28 
Q 1253 -759 791 -1347 
z
" transform="scale(0.015625)"/>
      </defs>
      <use xlink:href="#ArialMT-45"/>
      <use xlink:href="#ArialMT-6c" transform="translate(66.699219 0)"/>
      <use xlink:href="#ArialMT-65" transform="translate(88.916016 0)"/>
      <use xlink:href="#ArialMT-63" transform="translate(144.53125 0)"/>
      <use xlink:href="#ArialMT-74" transform="translate(194.53125 0)"/>
      <use xlink:href="#ArialMT-72" transform="translate(222.314453 0)"/>
      <use xlink:href="#ArialMT-69" transform="translate(255.615234 0)"/>
      <use xlink:href="#ArialMT-63" transform="translate(277.832031 0)"/>
      <use xlink:href="#ArialMT-69" transform="translate(327.832031 0)"/>
      <use xlink:href="#ArialMT-74" transform="translate(350.048828 0)"/>
      <use xlink:href="#ArialMT-79" transform="translate(377.832031 0)"/>
      <use xlink:href="#ArialMT-20" transform="translate(427.832031 0)"/>
      <use xlink:href="#ArialMT-28" transform="translate(455.615234 0)"/>
      <use xlink:href="#ArialMT-4d" transform="translate(488.916016 0)"/>
      <use xlink:href="#ArialMT-57" transform="translate(572.216797 0)"/>
      <use xlink:href="#ArialMT-68" transform="translate(666.601562 0)"/>
      <use xlink:href="#ArialMT-29" transform="translate(722.216797 0)"/>
     </g>
    </g>
   </g>
   <g id="line2d_70">
    <path d="M 111.479375 244.811205 
L 139.379375 247.07672 
L 167.279375 247.595263 
L 195.179375 247.465293 
L 223.079375 244.479973 
L 250.979375 227.879398 
L 278.879375 212.411802 
L 306.779375 191.869672 
L 334.679375 185.43307 
L 362.579375 183.632645 
L 390.479375 183.607638 
L 418.379375 184.332364 
L 446.279375 185.23609 
L 474.179375 185.762802 
L 502.079375 186.560723 
L 529.979375 187.295316 
L 557.879375 187.727614 
L 585.779375 187.0791 
L 613.679375 185.961386 
L 641.579375 192.616519 
L 669.479375 205.979836 
L 697.379375 220.833273 
L 725.279375 237.397278 
L 753.179375 242.066125 
" clip-path="url(#pc809611175)" style="fill: none; stroke: #1f77b4; stroke-opacity: 0.8; stroke-width: 1.5; stroke-linecap: round"/>
   </g>
   <g id="line2d_71">
    <path d="M 111.479375 245.732006 
L 139.379375 247.369504 
L 167.279375 247.728994 
L 195.179375 247.652524 
L 223.079375 245.561896 
L 250.979375 233.672514 
L 278.879375 221.662414 
L 306.779375 207.249807 
L 334.679375 203.03006 
L 362.579375 201.329496 
L 390.479375 202.617613 
L 418.379375 202.977668 
L 446.279375 203.907577 
L 474.179375 204.476885 
L 502.079375 205.188479 
L 529.979375 205.871727 
L 557.879375 206.013688 
L 585.779375 205.976862 
L 613.679375 202.391334 
L 641.579375 208.651928 
L 669.479375 218.512436 
L 697.379375 228.96908 
L 725.279375 240.360208 
L 753.179375 243.745836 
" clip-path="url(#pc809611175)" style="fill: none; stroke: #dbdb8d; stroke-opacity: 0.8; stroke-width: 1.5; stroke-linecap: round"/>
   </g>
   <g id="line2d_72">
    <path d="M 111.479375 201.140024 
L 139.379375 214.772481 
L 167.279375 217.490117 
L 195.179375 217.009845 
L 223.079375 206.05818 
L 250.979375 153.149966 
L 278.879375 111.411702 
L 306.779375 114.969264 
L 334.679375 114.041149 
L 362.579375 113.370195 
L 390.479375 112.920067 
L 418.379375 112.331117 
L 446.279375 113.532849 
L 474.179375 113.71704 
L 502.079375 114.791995 
L 529.979375 115.01096 
L 557.879375 115.625673 
L 585.779375 117.044177 
L 613.679375 119.198415 
L 641.579375 122.737171 
L 669.479375 108.192365 
L 697.379375 122.680435 
L 725.279375 159.518537 
L 753.179375 178.812481 
" clip-path="url(#pc809611175)" style="fill: none; stroke: #ffbb78; stroke-opacity: 0.8; stroke-width: 1.5; stroke-linecap: round"/>
   </g>
   <g id="line2d_73">
    <path d="M 111.479375 189.376272 
L 139.379375 206.574343 
L 167.279375 209.89356 
L 195.179375 208.254573 
L 223.079375 194.699834 
L 250.979375 122.573402 
L 278.879375 105.303848 
L 306.779375 118.114915 
L 334.679375 117.786543 
L 362.579375 118.216766 
L 390.479375 116.901635 
L 418.379375 115.996455 
L 446.279375 116.62897 
L 474.179375 117.081614 
L 502.079375 118.32353 
L 529.979375 119.677884 
L 557.879375 120.157529 
L 585.779375 120.430467 
L 613.679375 122.616039 
L 641.579375 126.643278 
L 669.479375 130.379286 
L 697.379375 96.49516 
L 725.279375 135.982379 
L 753.179375 160.424123 
" clip-path="url(#pc809611175)" style="fill: none; stroke: #2ca02c; stroke-opacity: 0.8; stroke-width: 1.5; stroke-linecap: round"/>
   </g>
   <g id="line2d_74">
    <path d="M 111.479375 247.71937 
L 139.379375 248.812477 
L 167.279375 249.071929 
L 195.179375 249.030661 
L 223.079375 247.566244 
L 250.979375 231.79961 
L 278.879375 218.075295 
L 306.779375 201.536256 
L 334.679375 195.987764 
L 362.579375 194.19625 
L 390.479375 194.946796 
L 418.379375 195.950576 
L 446.279375 196.82201 
L 474.179375 197.799353 
L 502.079375 199.581333 
L 529.979375 200.710177 
L 557.879375 201.003085 
L 585.779375 199.403161 
L 613.679375 196.445945 
L 641.579375 202.989282 
L 669.479375 215.159228 
L 697.379375 227.462968 
L 725.279375 242.995229 
L 753.179375 246.115357 
" clip-path="url(#pc809611175)" style="fill: none; stroke: #ff7f0e; stroke-opacity: 0.8; stroke-width: 1.5; stroke-linecap: round"/>
   </g>
   <g id="line2d_75">
    <path d="M 111.479375 209.192001 
L 139.379375 222.175254 
L 167.279375 224.732734 
L 195.179375 223.658193 
L 223.079375 211.273725 
L 250.979375 148.129294 
L 278.879375 100.280219 
L 306.779375 107.562827 
L 334.679375 107.721986 
L 362.579375 106.038826 
L 390.479375 104.359546 
L 418.379375 103.103642 
L 446.279375 103.598702 
L 474.179375 104.602439 
L 502.079375 105.978959 
L 529.979375 107.394247 
L 557.879375 107.509865 
L 585.779375 108.627801 
L 613.679375 110.365475 
L 641.579375 115.604328 
L 669.479375 94.866702 
L 697.379375 117.311794 
L 725.279375 163.522881 
L 753.179375 186.435707 
" clip-path="url(#pc809611175)" style="fill: none; stroke: #98df8a; stroke-opacity: 0.8; stroke-width: 1.5; stroke-linecap: round"/>
   </g>
   <g id="line2d_76">
    <path d="M 111.479375 247.239058 
L 139.379375 248.73267 
L 167.279375 249.054796 
L 195.179375 249.033589 
L 223.079375 246.985532 
L 250.979375 231.316121 
L 278.879375 216.714847 
L 306.779375 197.394996 
L 334.679375 189.531035 
L 362.579375 186.183305 
L 390.479375 186.197269 
L 418.379375 187.331791 
L 446.279375 188.193619 
L 474.179375 188.638006 
L 502.079375 189.996441 
L 529.979375 191.374441 
L 557.879375 191.06583 
L 585.779375 190.246118 
L 613.679375 183.350876 
L 641.579375 199.507617 
L 669.479375 212.91177 
L 697.379375 226.317342 
L 725.279375 241.895053 
L 753.179375 245.344767 
" clip-path="url(#pc809611175)" style="fill: none; stroke: #17becf; stroke-opacity: 0.8; stroke-width: 1.5; stroke-linecap: round"/>
   </g>
   <g id="line2d_77">
    <path d="M 111.479375 208.697695 
L 139.379375 222.974437 
L 167.279375 225.551394 
L 195.179375 222.514885 
L 223.079375 205.341941 
L 250.979375 122.980658 
L 278.879375 79.160444 
L 306.779375 91.697983 
L 334.679375 93.031591 
L 362.579375 92.171388 
L 390.479375 90.668821 
L 418.379375 89.566267 
L 446.279375 89.411491 
L 474.179375 89.077147 
L 502.079375 90.642256 
L 529.979375 93.020147 
L 557.879375 94.994101 
L 585.779375 96.31232 
L 613.679375 97.580997 
L 641.579375 101.325847 
L 669.479375 80.151191 
L 697.379375 94.445148 
L 725.279375 152.896433 
L 753.179375 180.527553 
" clip-path="url(#pc809611175)" style="fill: none; stroke: #d62728; stroke-opacity: 0.8; stroke-width: 1.5; stroke-linecap: round"/>
   </g>
   <g id="line2d_78">
    <path d="M 111.479375 232.918362 
L 139.379375 239.792585 
L 167.279375 241.080005 
L 195.179375 240.155824 
L 223.079375 232.530676 
L 250.979375 188.841895 
L 278.879375 152.236998 
L 306.779375 153.083244 
L 334.679375 152.530087 
L 362.579375 152.694388 
L 390.479375 152.124627 
L 418.379375 152.207771 
L 446.279375 153.124 
L 474.179375 153.358445 
L 502.079375 154.515428 
L 529.979375 156.109835 
L 557.879375 156.302685 
L 585.779375 156.368652 
L 613.679375 156.139856 
L 641.579375 158.356555 
L 669.479375 145.51969 
L 697.379375 170.466234 
L 725.279375 208.566579 
L 753.179375 222.051132 
" clip-path="url(#pc809611175)" style="fill: none; stroke: #9edae5; stroke-opacity: 0.8; stroke-width: 1.5; stroke-linecap: round"/>
   </g>
   <g id="line2d_79">
    <path d="M 111.479375 219.794207 
L 139.379375 230.261285 
L 167.279375 231.959163 
L 195.179375 228.856442 
L 223.079375 212.197316 
L 250.979375 149.526411 
L 278.879375 99.42606 
L 306.779375 79.62322 
L 334.679375 122.075628 
L 362.579375 126.577938 
L 390.479375 124.415826 
L 418.379375 123.110474 
L 446.279375 123.432553 
L 474.179375 123.97605 
L 502.079375 125.318821 
L 529.979375 126.882994 
L 557.879375 128.223336 
L 585.779375 129.079407 
L 613.679375 131.07741 
L 641.579375 71.557865 
L 669.479375 94.063058 
L 697.379375 131.484638 
L 725.279375 178.205093 
L 753.179375 200.151191 
" clip-path="url(#pc809611175)" style="fill: none; stroke: #9edae5; stroke-opacity: 0.8; stroke-width: 1.5; stroke-linecap: round"/>
   </g>
   <g id="line2d_80">
    <path d="M 111.479375 247.62981 
L 139.379375 248.956002 
L 167.279375 249.175373 
L 195.179375 249.250708 
L 223.079375 247.207849 
L 250.979375 231.167324 
L 278.879375 216.516082 
L 306.779375 197.476237 
L 334.679375 191.354196 
L 362.579375 186.348861 
L 390.479375 181.15967 
L 418.379375 185.724294 
L 446.279375 186.297499 
L 474.179375 187.081268 
L 502.079375 188.997924 
L 529.979375 190.768574 
L 557.879375 191.000117 
L 585.779375 190.1439 
L 613.679375 181.015345 
L 641.579375 198.415876 
L 669.479375 212.269396 
L 697.379375 225.74349 
L 725.279375 242.412117 
L 753.179375 245.865486 
" clip-path="url(#pc809611175)" style="fill: none; stroke: #f7b6d2; stroke-opacity: 0.8; stroke-width: 1.5; stroke-linecap: round"/>
   </g>
   <g id="line2d_81">
    <path d="M 111.479375 242.01502 
L 139.379375 245.406943 
L 167.279375 246.076139 
L 195.179375 245.972265 
L 223.079375 241.684271 
L 250.979375 211.723719 
L 278.879375 181.63646 
L 306.779375 147.871757 
L 334.679375 139.991667 
L 362.579375 135.171799 
L 390.479375 138.525766 
L 418.379375 139.685595 
L 446.279375 141.389221 
L 474.179375 142.253326 
L 502.079375 144.270859 
L 529.979375 145.808095 
L 557.879375 145.340868 
L 585.779375 144.896295 
L 613.679375 144.396086 
L 641.579375 151.763353 
L 669.479375 174.713356 
L 697.379375 200.231632 
L 725.279375 229.023203 
L 753.179375 237.457247 
" clip-path="url(#pc809611175)" style="fill: none; stroke: #7f7f7f; stroke-opacity: 0.8; stroke-width: 1.5; stroke-linecap: round"/>
   </g>
   <g id="line2d_82">
    <path d="M 111.479375 245.371386 
L 139.379375 247.821811 
L 167.279375 248.352589 
L 195.179375 248.374302 
L 223.079375 244.701879 
L 250.979375 220.326564 
L 278.879375 197.880004 
L 306.779375 166.887812 
L 334.679375 158.612944 
L 362.579375 153.447386 
L 390.479375 153.862261 
L 418.379375 154.302999 
L 446.279375 155.613334 
L 474.179375 156.639651 
L 502.079375 158.879157 
L 529.979375 160.516297 
L 557.879375 160.363227 
L 585.779375 160.043167 
L 613.679375 158.776879 
L 641.579375 169.173354 
L 669.479375 190.034222 
L 697.379375 212.326493 
L 725.279375 236.497994 
L 753.179375 242.290219 
" clip-path="url(#pc809611175)" style="fill: none; stroke: #1f77b4; stroke-opacity: 0.8; stroke-width: 1.5; stroke-linecap: round"/>
   </g>
   <g id="line2d_83">
    <path d="M 111.479375 245.193453 
L 139.379375 248.028696 
L 167.279375 248.655169 
L 195.179375 248.53543 
L 223.079375 244.272773 
L 250.979375 216.183184 
L 278.879375 189.777735 
L 306.779375 156.974254 
L 334.679375 147.943176 
L 362.579375 142.297099 
L 390.479375 143.906835 
L 418.379375 144.549892 
L 446.279375 144.804982 
L 474.179375 147.619804 
L 502.079375 149.481648 
L 529.979375 150.331677 
L 557.879375 149.646281 
L 585.779375 147.567503 
L 613.679375 147.462868 
L 641.579375 159.917375 
L 669.479375 184.016839 
L 697.379375 208.585256 
L 725.279375 235.265733 
L 753.179375 241.683023 
" clip-path="url(#pc809611175)" style="fill: none; stroke: #bcbd22; stroke-opacity: 0.8; stroke-width: 1.5; stroke-linecap: round"/>
   </g>
   <g id="line2d_84">
    <path d="M 111.479375 246.530214 
L 139.379375 248.460064 
L 167.279375 248.894337 
L 195.179375 248.869548 
L 223.079375 245.969279 
L 250.979375 223.772923 
L 278.879375 205.286088 
L 306.779375 178.535452 
L 334.679375 171.795879 
L 362.579375 164.700439 
L 390.479375 158.675509 
L 418.379375 158.624991 
L 446.279375 158.735791 
L 474.179375 161.394048 
L 502.079375 163.586791 
L 529.979375 165.894768 
L 557.879375 167.291205 
L 585.779375 165.546424 
L 613.679375 168.552769 
L 641.579375 179.410951 
L 669.479375 198.707986 
L 697.379375 218.212359 
L 725.279375 239.26603 
L 753.179375 244.18081 
" clip-path="url(#pc809611175)" style="fill: none; stroke: #8c564b; stroke-opacity: 0.8; stroke-width: 1.5; stroke-linecap: round"/>
   </g>
   <g id="line2d_85">
    <path d="M 111.479375 245.832809 
L 139.379375 248.031533 
L 167.279375 248.530749 
L 195.179375 248.4025 
L 223.079375 244.757245 
L 250.979375 219.627652 
L 278.879375 194.384436 
L 306.779375 164.831119 
L 334.679375 156.355388 
L 362.579375 150.404262 
L 390.479375 145.436427 
L 418.379375 144.767869 
L 446.279375 144.924009 
L 474.179375 145.274921 
L 502.079375 146.673163 
L 529.979375 147.843568 
L 557.879375 147.056354 
L 585.779375 146.359425 
L 613.679375 144.488368 
L 641.579375 170.816269 
L 669.479375 192.257022 
L 697.379375 213.925781 
L 725.279375 237.851469 
L 753.179375 243.003448 
" clip-path="url(#pc809611175)" style="fill: none; stroke: #c7c7c7; stroke-opacity: 0.8; stroke-width: 1.5; stroke-linecap: round"/>
   </g>
   <g id="line2d_86">
    <path d="M 111.479375 241.516517 
L 139.379375 245.190257 
L 167.279375 246.006912 
L 195.179375 245.80643 
L 223.079375 240.699853 
L 250.979375 209.58669 
L 278.879375 179.927858 
L 306.779375 145.165373 
L 334.679375 136.379282 
L 362.579375 131.550391 
L 390.479375 137.027504 
L 418.379375 137.553017 
L 446.279375 137.934573 
L 474.179375 139.343157 
L 502.079375 140.463508 
L 529.979375 141.300668 
L 557.879375 141.780234 
L 585.779375 141.437468 
L 613.679375 141.256884 
L 641.579375 147.308146 
L 669.479375 172.308285 
L 697.379375 198.81836 
L 725.279375 228.99891 
L 753.179375 236.885145 
" clip-path="url(#pc809611175)" style="fill: none; stroke: #9467bd; stroke-opacity: 0.8; stroke-width: 1.5; stroke-linecap: round"/>
   </g>
   <g id="line2d_87">
    <path d="M 111.479375 246.340107 
L 139.379375 248.440197 
L 167.279375 248.953478 
L 195.179375 248.91474 
L 223.079375 245.642426 
L 250.979375 221.472815 
L 278.879375 200.255396 
L 306.779375 172.368426 
L 334.679375 164.381541 
L 362.579375 157.890997 
L 390.479375 159.145881 
L 418.379375 159.57383 
L 446.279375 159.281631 
L 474.179375 161.897253 
L 502.079375 165.153895 
L 529.979375 167.350528 
L 557.879375 168.403808 
L 585.779375 166.62809 
L 613.679375 165.396205 
L 641.579375 173.733579 
L 669.479375 194.524834 
L 697.379375 215.28725 
L 725.279375 239.416678 
L 753.179375 243.957952 
" clip-path="url(#pc809611175)" style="fill: none; stroke: #e377c2; stroke-opacity: 0.8; stroke-width: 1.5; stroke-linecap: round"/>
   </g>
   <g id="line2d_88">
    <path d="M 111.479375 246.820974 
L 139.379375 248.706906 
L 167.279375 249.17326 
L 195.179375 249.140046 
L 223.079375 246.144464 
L 250.979375 224.116719 
L 278.879375 204.00253 
L 306.779375 176.003703 
L 334.679375 167.884557 
L 362.579375 160.278144 
L 390.479375 152.141013 
L 418.379375 154.035335 
L 446.279375 154.417238 
L 474.179375 157.47404 
L 502.079375 159.831004 
L 529.979375 161.227724 
L 557.879375 158.096668 
L 585.779375 156.550418 
L 613.679375 151.805485 
L 641.579375 178.154282 
L 669.479375 198.960884 
L 697.379375 218.570099 
L 725.279375 240.01789 
L 753.179375 244.477306 
" clip-path="url(#pc809611175)" style="fill: none; stroke: #c49c94; stroke-opacity: 0.8; stroke-width: 1.5; stroke-linecap: round"/>
   </g>
   <g id="line2d_89">
    <path d="M 111.479375 245.340819 
L 139.379375 248.04803 
L 167.279375 248.733303 
L 195.179375 248.687255 
L 223.079375 244.407179 
L 250.979375 217.521585 
L 278.879375 192.845517 
L 306.779375 159.901562 
L 334.679375 149.93958 
L 362.579375 141.587462 
L 390.479375 131.309066 
L 418.379375 133.292258 
L 446.279375 131.218132 
L 474.179375 132.670701 
L 502.079375 135.621453 
L 529.979375 139.343066 
L 557.879375 139.822594 
L 585.779375 138.422285 
L 613.679375 130.500745 
L 641.579375 161.924573 
L 669.479375 185.950637 
L 697.379375 210.727941 
L 725.279375 235.471814 
L 753.179375 241.994344 
" clip-path="url(#pc809611175)" style="fill: none; stroke: #c5b0d5; stroke-opacity: 0.8; stroke-width: 1.5; stroke-linecap: round"/>
   </g>
   <g id="line2d_90">
    <path d="M 111.479375 245.452901 
L 139.379375 248.377926 
L 167.279375 249.022314 
L 195.179375 248.912895 
L 223.079375 244.328901 
L 250.979375 213.966163 
L 278.879375 189.681277 
L 306.779375 156.196038 
L 334.679375 147.438075 
L 362.579375 138.9964 
L 390.479375 130.054528 
L 418.379375 129.236377 
L 446.279375 127.793004 
L 474.179375 130.853552 
L 502.079375 132.673909 
L 529.979375 134.356151 
L 557.879375 135.043098 
L 585.779375 133.560628 
L 613.679375 129.279264 
L 641.579375 158.830997 
L 669.479375 182.285865 
L 697.379375 207.163372 
L 725.279375 236.111831 
L 753.179375 242.193458 
" clip-path="url(#pc809611175)" style="fill: none; stroke: #ff9896; stroke-opacity: 0.8; stroke-width: 1.5; stroke-linecap: round"/>
   </g>
   <g id="line2d_91">
    <path d="M 111.479375 238.980637 
L 139.379375 244.192198 
L 167.279375 245.466403 
L 195.179375 245.067535 
L 223.079375 237.63887 
L 250.979375 199.793428 
L 278.879375 165.331768 
L 306.779375 121.959058 
L 334.679375 110.624283 
L 362.579375 103.527038 
L 390.479375 104.490268 
L 418.379375 108.661432 
L 446.279375 110.062073 
L 474.179375 113.12213 
L 502.079375 116.02221 
L 529.979375 118.762724 
L 557.879375 120.539073 
L 585.779375 119.731858 
L 613.679375 117.998939 
L 641.579375 121.197864 
L 669.479375 152.873396 
L 697.379375 185.704601 
L 725.279375 222.456096 
L 753.179375 232.818512 
" clip-path="url(#pc809611175)" style="fill: none; stroke: #aec7e8; stroke-opacity: 0.8; stroke-width: 1.5; stroke-linecap: round"/>
   </g>
   <g id="line2d_92">
    <path d="M 111.479375 245.366359 
L 139.379375 248.181462 
L 167.279375 248.873128 
L 195.179375 248.882395 
L 223.079375 244.660022 
L 250.979375 216.04045 
L 278.879375 193.088325 
L 306.779375 162.279323 
L 334.679375 151.692932 
L 362.579375 143.608271 
L 390.479375 135.033912 
L 418.379375 134.466183 
L 446.279375 135.008019 
L 474.179375 136.661854 
L 502.079375 137.35238 
L 529.979375 138.478501 
L 557.879375 139.109581 
L 585.779375 138.922072 
L 613.679375 134.29031 
L 641.579375 161.946198 
L 669.479375 184.382114 
L 697.379375 207.36138 
L 725.279375 237.071221 
L 753.179375 242.489781 
" clip-path="url(#pc809611175)" style="fill: none; stroke: #8c564b; stroke-opacity: 0.8; stroke-width: 1.5; stroke-linecap: round"/>
   </g>
   <g id="patch_3">
    <path d="M 97.529375 263.48625 
L 97.529375 41.72625 
" style="fill: none; stroke: #000000; stroke-linejoin: miter; stroke-linecap: square"/>
   </g>
   <g id="patch_4">
    <path d="M 767.129375 263.48625 
L 767.129375 41.72625 
" style="fill: none; stroke: #000000; stroke-linejoin: miter; stroke-linecap: square"/>
   </g>
   <g id="patch_5">
    <path d="M 97.529375 263.48625 
L 767.129375 263.48625 
" style="fill: none; stroke: #000000; stroke-linejoin: miter; stroke-linecap: square"/>
   </g>
   <g id="patch_6">
    <path d="M 97.529375 41.72625 
L 767.129375 41.72625 
" style="fill: none; stroke: #000000; stroke-linejoin: miter; stroke-linecap: square"/>
   </g>
  </g>
 </g>
 <defs>
  <clipPath id="pc809611175">
   <rect x="97.529375" y="41.72625" width="669.6" height="221.76"/>
  </clipPath>
 </defs>
</svg>
