<?xml version="1.0" encoding="utf-8" standalone="no"?>
<!DOCTYPE svg PUBLIC "-//W3C//DTD SVG 1.1//EN"
  "http://www.w3.org/Graphics/SVG/1.1/DTD/svg11.dtd">
<svg xmlns:xlink="http://www.w3.org/1999/xlink" width="803.129375pt" height="338.0125pt" viewBox="0 0 803.129375 338.0125" xmlns="http://www.w3.org/2000/svg" version="1.1">
 <metadata>
  <rdf:RDF xmlns:dc="http://purl.org/dc/elements/1.1/" xmlns:cc="http://creativecommons.org/ns#" xmlns:rdf="http://www.w3.org/1999/02/22-rdf-syntax-ns#">
   <cc:Work>
    <dc:type rdf:resource="http://purl.org/dc/dcmitype/StillImage"/>
    <dc:date>2025-10-27T21:40:53.666005</dc:date>
    <dc:format>image/svg+xml</dc:format>
    <dc:creator>
     <cc:Agent>
      <dc:title>Matplotlib v3.10.7, https://matplotlib.org/</dc:title>
     </cc:Agent>
    </dc:creator>
   </cc:Work>
  </rdf:RDF>
 </metadata>
 <defs>
  <style type="text/css">*{stroke-linejoin: round; stroke-linecap: butt}</style>
 </defs>
 <g id="figure_1">
  <g id="patch_1">
   <path d="M 0 338.0125 
L 803.129375 338.0125 
L 803.129375 0 
L 0 0 
L 0 338.0125 
z
" style="fill: none"/>
  </g>
  <g id="axes_1">
   <g id="patch_2">
    <path d="M 97.529375 263.48625 
L 767.129375 263.48625 
L 767.129375 41.72625 
L 97.529375 41.72625 
L 97.529375 263.48625 
z
" style="fill: none"/>
   </g>
   <g id="line2d_1">
    <path d="M 117.820284 263.48625 
L 117.820284 41.72625 
" clip-path="url(#pff84283ad4)" style="fill: none; stroke-dasharray: 0.74,0.32; stroke-dashoffset: 0; stroke: #a9a9a9; stroke-opacity: 0.5; stroke-width: 0.2"/>
   </g>
   <g id="line2d_2">
    <path d="M 138.111193 263.48625 
L 138.111193 41.72625 
" clip-path="url(#pff84283ad4)" style="fill: none; stroke-dasharray: 0.74,0.32; stroke-dashoffset: 0; stroke: #a9a9a9; stroke-opacity: 0.5; stroke-width: 0.2"/>
   </g>
   <g id="line2d_3">
    <path d="M 158.402102 263.48625 
L 158.402102 41.72625 
" clip-path="url(#pff84283ad4)" style="fill: none; stroke-dasharray: 0.74,0.32; stroke-dashoffset: 0; stroke: #a9a9a9; stroke-opacity: 0.5; stroke-width: 0.2"/>
   </g>
   <g id="line2d_4">
    <path d="M 178.693011 263.48625 
L 178.693011 41.72625 
" clip-path="url(#pff84283ad4)" style="fill: none; stroke-dasharray: 0.74,0.32; stroke-dashoffset: 0; stroke: #a9a9a9; stroke-opacity: 0.5; stroke-width: 0.2"/>
   </g>
   <g id="line2d_5">
    <path d="M 198.98392 263.48625 
L 198.98392 41.72625 
" clip-path="url(#pff84283ad4)" style="fill: none; stroke-dasharray: 0.74,0.32; stroke-dashoffset: 0; stroke: #a9a9a9; stroke-opacity: 0.5; stroke-width: 0.2"/>
   </g>
   <g id="line2d_6">
    <path d="M 219.27483 263.48625 
L 219.27483 41.72625 
" clip-path="url(#pff84283ad4)" style="fill: none; stroke-dasharray: 0.74,0.32; stroke-dashoffset: 0; stroke: #a9a9a9; stroke-opacity: 0.5; stroke-width: 0.2"/>
   </g>
   <g id="line2d_7">
    <path d="M 239.565739 263.48625 
L 239.565739 41.72625 
" clip-path="url(#pff84283ad4)" style="fill: none; stroke-dasharray: 0.74,0.32; stroke-dashoffset: 0; stroke: #a9a9a9; stroke-opacity: 0.5; stroke-width: 0.2"/>
   </g>
   <g id="line2d_8">
    <path d="M 259.856648 263.48625 
L 259.856648 41.72625 
" clip-path="url(#pff84283ad4)" style="fill: none; stroke-dasharray: 0.74,0.32; stroke-dashoffset: 0; stroke: #a9a9a9; stroke-opacity: 0.5; stroke-width: 0.2"/>
   </g>
   <g id="line2d_9">
    <path d="M 280.147557 263.48625 
L 280.147557 41.72625 
" clip-path="url(#pff84283ad4)" style="fill: none; stroke-dasharray: 0.74,0.32; stroke-dashoffset: 0; stroke: #a9a9a9; stroke-opacity: 0.5; stroke-width: 0.2"/>
   </g>
   <g id="line2d_10">
    <path d="M 300.438466 263.48625 
L 300.438466 41.72625 
" clip-path="url(#pff84283ad4)" style="fill: none; stroke-dasharray: 0.74,0.32; stroke-dashoffset: 0; stroke: #a9a9a9; stroke-opacity: 0.5; stroke-width: 0.2"/>
   </g>
   <g id="line2d_11">
    <path d="M 320.729375 263.48625 
L 320.729375 41.72625 
" clip-path="url(#pff84283ad4)" style="fill: none; stroke-dasharray: 0.74,0.32; stroke-dashoffset: 0; stroke: #a9a9a9; stroke-opacity: 0.5; stroke-width: 0.2"/>
   </g>
   <g id="line2d_12">
    <path d="M 341.020284 263.48625 
L 341.020284 41.72625 
" clip-path="url(#pff84283ad4)" style="fill: none; stroke-dasharray: 0.74,0.32; stroke-dashoffset: 0; stroke: #a9a9a9; stroke-opacity: 0.5; stroke-width: 0.2"/>
   </g>
   <g id="line2d_13">
    <path d="M 361.311193 263.48625 
L 361.311193 41.72625 
" clip-path="url(#pff84283ad4)" style="fill: none; stroke-dasharray: 0.74,0.32; stroke-dashoffset: 0; stroke: #a9a9a9; stroke-opacity: 0.5; stroke-width: 0.2"/>
   </g>
   <g id="line2d_14">
    <path d="M 381.602102 263.48625 
L 381.602102 41.72625 
" clip-path="url(#pff84283ad4)" style="fill: none; stroke-dasharray: 0.74,0.32; stroke-dashoffset: 0; stroke: #a9a9a9; stroke-opacity: 0.5; stroke-width: 0.2"/>
   </g>
   <g id="line2d_15">
    <path d="M 401.893011 263.48625 
L 401.893011 41.72625 
" clip-path="url(#pff84283ad4)" style="fill: none; stroke-dasharray: 0.74,0.32; stroke-dashoffset: 0; stroke: #a9a9a9; stroke-opacity: 0.5; stroke-width: 0.2"/>
   </g>
   <g id="line2d_16">
    <path d="M 422.18392 263.48625 
L 422.18392 41.72625 
" clip-path="url(#pff84283ad4)" style="fill: none; stroke-dasharray: 0.74,0.32; stroke-dashoffset: 0; stroke: #a9a9a9; stroke-opacity: 0.5; stroke-width: 0.2"/>
   </g>
   <g id="line2d_17">
    <path d="M 442.47483 263.48625 
L 442.47483 41.72625 
" clip-path="url(#pff84283ad4)" style="fill: none; stroke-dasharray: 0.74,0.32; stroke-dashoffset: 0; stroke: #a9a9a9; stroke-opacity: 0.5; stroke-width: 0.2"/>
   </g>
   <g id="line2d_18">
    <path d="M 462.765739 263.48625 
L 462.765739 41.72625 
" clip-path="url(#pff84283ad4)" style="fill: none; stroke-dasharray: 0.74,0.32; stroke-dashoffset: 0; stroke: #a9a9a9; stroke-opacity: 0.5; stroke-width: 0.2"/>
   </g>
   <g id="line2d_19">
    <path d="M 483.056648 263.48625 
L 483.056648 41.72625 
" clip-path="url(#pff84283ad4)" style="fill: none; stroke-dasharray: 0.74,0.32; stroke-dashoffset: 0; stroke: #a9a9a9; stroke-opacity: 0.5; stroke-width: 0.2"/>
   </g>
   <g id="line2d_20">
    <path d="M 503.347557 263.48625 
L 503.347557 41.72625 
" clip-path="url(#pff84283ad4)" style="fill: none; stroke-dasharray: 0.74,0.32; stroke-dashoffset: 0; stroke: #a9a9a9; stroke-opacity: 0.5; stroke-width: 0.2"/>
   </g>
   <g id="line2d_21">
    <path d="M 523.638466 263.48625 
L 523.638466 41.72625 
" clip-path="url(#pff84283ad4)" style="fill: none; stroke-dasharray: 0.74,0.32; stroke-dashoffset: 0; stroke: #a9a9a9; stroke-opacity: 0.5; stroke-width: 0.2"/>
   </g>
   <g id="line2d_22">
    <path d="M 543.929375 263.48625 
L 543.929375 41.72625 
" clip-path="url(#pff84283ad4)" style="fill: none; stroke-dasharray: 0.74,0.32; stroke-dashoffset: 0; stroke: #a9a9a9; stroke-opacity: 0.5; stroke-width: 0.2"/>
   </g>
   <g id="line2d_23">
    <path d="M 564.220284 263.48625 
L 564.220284 41.72625 
" clip-path="url(#pff84283ad4)" style="fill: none; stroke-dasharray: 0.74,0.32; stroke-dashoffset: 0; stroke: #a9a9a9; stroke-opacity: 0.5; stroke-width: 0.2"/>
   </g>
   <g id="line2d_24">
    <path d="M 584.511193 263.48625 
L 584.511193 41.72625 
" clip-path="url(#pff84283ad4)" style="fill: none; stroke-dasharray: 0.74,0.32; stroke-dashoffset: 0; stroke: #a9a9a9; stroke-opacity: 0.5; stroke-width: 0.2"/>
   </g>
   <g id="line2d_25">
    <path d="M 604.802102 263.48625 
L 604.802102 41.72625 
" clip-path="url(#pff84283ad4)" style="fill: none; stroke-dasharray: 0.74,0.32; stroke-dashoffset: 0; stroke: #a9a9a9; stroke-opacity: 0.5; stroke-width: 0.2"/>
   </g>
   <g id="line2d_26">
    <path d="M 625.093011 263.48625 
L 625.093011 41.72625 
" clip-path="url(#pff84283ad4)" style="fill: none; stroke-dasharray: 0.74,0.32; stroke-dashoffset: 0; stroke: #a9a9a9; stroke-opacity: 0.5; stroke-width: 0.2"/>
   </g>
   <g id="line2d_27">
    <path d="M 645.38392 263.48625 
L 645.38392 41.72625 
" clip-path="url(#pff84283ad4)" style="fill: none; stroke-dasharray: 0.74,0.32; stroke-dashoffset: 0; stroke: #a9a9a9; stroke-opacity: 0.5; stroke-width: 0.2"/>
   </g>
   <g id="line2d_28">
    <path d="M 665.67483 263.48625 
L 665.67483 41.72625 
" clip-path="url(#pff84283ad4)" style="fill: none; stroke-dasharray: 0.74,0.32; stroke-dashoffset: 0; stroke: #a9a9a9; stroke-opacity: 0.5; stroke-width: 0.2"/>
   </g>
   <g id="line2d_29">
    <path d="M 685.965739 263.48625 
L 685.965739 41.72625 
" clip-path="url(#pff84283ad4)" style="fill: none; stroke-dasharray: 0.74,0.32; stroke-dashoffset: 0; stroke: #a9a9a9; stroke-opacity: 0.5; stroke-width: 0.2"/>
   </g>
   <g id="line2d_30">
    <path d="M 706.256648 263.48625 
L 706.256648 41.72625 
" clip-path="url(#pff84283ad4)" style="fill: none; stroke-dasharray: 0.74,0.32; stroke-dashoffset: 0; stroke: #a9a9a9; stroke-opacity: 0.5; stroke-width: 0.2"/>
   </g>
   <g id="line2d_31">
    <path d="M 726.547557 263.48625 
L 726.547557 41.72625 
" clip-path="url(#pff84283ad4)" style="fill: none; stroke-dasharray: 0.74,0.32; stroke-dashoffset: 0; stroke: #a9a9a9; stroke-opacity: 0.5; stroke-width: 0.2"/>
   </g>
   <g id="line2d_32">
    <path d="M 746.838466 263.48625 
L 746.838466 41.72625 
" clip-path="url(#pff84283ad4)" style="fill: none; stroke-dasharray: 0.74,0.32; stroke-dashoffset: 0; stroke: #a9a9a9; stroke-opacity: 0.5; stroke-width: 0.2"/>
   </g>
   <g id="line2d_33">
    <path d="M 97.529375 241.31025 
L 767.129375 241.31025 
" clip-path="url(#pff84283ad4)" style="fill: none; stroke-dasharray: 0.74,0.32; stroke-dashoffset: 0; stroke: #a9a9a9; stroke-opacity: 0.5; stroke-width: 0.2"/>
   </g>
   <g id="line2d_34">
    <path d="M 97.529375 219.13425 
L 767.129375 219.13425 
" clip-path="url(#pff84283ad4)" style="fill: none; stroke-dasharray: 0.74,0.32; stroke-dashoffset: 0; stroke: #a9a9a9; stroke-opacity: 0.5; stroke-width: 0.2"/>
   </g>
   <g id="line2d_35">
    <path d="M 97.529375 196.95825 
L 767.129375 196.95825 
" clip-path="url(#pff84283ad4)" style="fill: none; stroke-dasharray: 0.74,0.32; stroke-dashoffset: 0; stroke: #a9a9a9; stroke-opacity: 0.5; stroke-width: 0.2"/>
   </g>
   <g id="line2d_36">
    <path d="M 97.529375 174.78225 
L 767.129375 174.78225 
" clip-path="url(#pff84283ad4)" style="fill: none; stroke-dasharray: 0.74,0.32; stroke-dashoffset: 0; stroke: #a9a9a9; stroke-opacity: 0.5; stroke-width: 0.2"/>
   </g>
   <g id="line2d_37">
    <path d="M 97.529375 152.60625 
L 767.129375 152.60625 
" clip-path="url(#pff84283ad4)" style="fill: none; stroke-dasharray: 0.74,0.32; stroke-dashoffset: 0; stroke: #a9a9a9; stroke-opacity: 0.5; stroke-width: 0.2"/>
   </g>
   <g id="line2d_38">
    <path d="M 97.529375 130.43025 
L 767.129375 130.43025 
" clip-path="url(#pff84283ad4)" style="fill: none; stroke-dasharray: 0.74,0.32; stroke-dashoffset: 0; stroke: #a9a9a9; stroke-opacity: 0.5; stroke-width: 0.2"/>
   </g>
   <g id="line2d_39">
    <path d="M 97.529375 108.25425 
L 767.129375 108.25425 
" clip-path="url(#pff84283ad4)" style="fill: none; stroke-dasharray: 0.74,0.32; stroke-dashoffset: 0; stroke: #a9a9a9; stroke-opacity: 0.5; stroke-width: 0.2"/>
   </g>
   <g id="line2d_40">
    <path d="M 97.529375 86.07825 
L 767.129375 86.07825 
" clip-path="url(#pff84283ad4)" style="fill: none; stroke-dasharray: 0.74,0.32; stroke-dashoffset: 0; stroke: #a9a9a9; stroke-opacity: 0.5; stroke-width: 0.2"/>
   </g>
   <g id="line2d_41">
    <path d="M 97.529375 63.90225 
L 767.129375 63.90225 
" clip-path="url(#pff84283ad4)" style="fill: none; stroke-dasharray: 0.74,0.32; stroke-dashoffset: 0; stroke: #a9a9a9; stroke-opacity: 0.5; stroke-width: 0.2"/>
   </g>
   <g id="matplotlib.axis_1">
    <g id="xtick_1">
     <g id="line2d_42">
      <defs>
       <path id="m245ba59369" d="M 0 0 
L 0 5 
" style="stroke: #000000"/>
      </defs>
      <g>
       <use xlink:href="#m245ba59369" x="111.479375" y="263.48625" style="stroke: #000000"/>
      </g>
     </g>
     <g id="text_1">
      <!-- 1:00 -->
      <g transform="translate(114.581563 295.339375) rotate(-90) scale(0.12 -0.12)">
       <defs>
        <path id="ArialMT-31" d="M 2384 0 
L 1822 0 
L 1822 3584 
Q 1619 3391 1289 3197 
Q 959 3003 697 2906 
L 697 3450 
Q 1169 3672 1522 3987 
Q 1875 4303 2022 4600 
L 2384 4600 
L 2384 0 
z
" transform="scale(0.015625)"/>
        <path id="ArialMT-3a" d="M 578 2678 
L 578 3319 
L 1219 3319 
L 1219 2678 
L 578 2678 
z
M 578 0 
L 578 641 
L 1219 641 
L 1219 0 
L 578 0 
z
" transform="scale(0.015625)"/>
        <path id="ArialMT-30" d="M 266 2259 
Q 266 3072 433 3567 
Q 600 4063 929 4331 
Q 1259 4600 1759 4600 
Q 2128 4600 2406 4451 
Q 2684 4303 2865 4023 
Q 3047 3744 3150 3342 
Q 3253 2941 3253 2259 
Q 3253 1453 3087 958 
Q 2922 463 2592 192 
Q 2263 -78 1759 -78 
Q 1097 -78 719 397 
Q 266 969 266 2259 
z
M 844 2259 
Q 844 1131 1108 757 
Q 1372 384 1759 384 
Q 2147 384 2411 759 
Q 2675 1134 2675 2259 
Q 2675 3391 2411 3762 
Q 2147 4134 1753 4134 
Q 1366 4134 1134 3806 
Q 844 3388 844 2259 
z
" transform="scale(0.015625)"/>
       </defs>
       <use xlink:href="#ArialMT-31"/>
       <use xlink:href="#ArialMT-3a" transform="translate(55.615234 0)"/>
       <use xlink:href="#ArialMT-30" transform="translate(83.398438 0)"/>
       <use xlink:href="#ArialMT-30" transform="translate(139.013672 0)"/>
      </g>
     </g>
    </g>
    <g id="xtick_2">
     <g id="line2d_43">
      <g>
       <use xlink:href="#m245ba59369" x="139.379375" y="263.48625" style="stroke: #000000"/>
      </g>
     </g>
     <g id="text_2">
      <!-- 2:00 -->
      <g transform="translate(142.481562 295.339375) rotate(-90) scale(0.12 -0.12)">
       <defs>
        <path id="ArialMT-32" d="M 3222 541 
L 3222 0 
L 194 0 
Q 188 203 259 391 
Q 375 700 629 1000 
Q 884 1300 1366 1694 
Q 2113 2306 2375 2664 
Q 2638 3022 2638 3341 
Q 2638 3675 2398 3904 
Q 2159 4134 1775 4134 
Q 1369 4134 1125 3890 
Q 881 3647 878 3216 
L 300 3275 
Q 359 3922 746 4261 
Q 1134 4600 1788 4600 
Q 2447 4600 2831 4234 
Q 3216 3869 3216 3328 
Q 3216 3053 3103 2787 
Q 2991 2522 2730 2228 
Q 2469 1934 1863 1422 
Q 1356 997 1212 845 
Q 1069 694 975 541 
L 3222 541 
z
" transform="scale(0.015625)"/>
       </defs>
       <use xlink:href="#ArialMT-32"/>
       <use xlink:href="#ArialMT-3a" transform="translate(55.615234 0)"/>
       <use xlink:href="#ArialMT-30" transform="translate(83.398438 0)"/>
       <use xlink:href="#ArialMT-30" transform="translate(139.013672 0)"/>
      </g>
     </g>
    </g>
    <g id="xtick_3">
     <g id="line2d_44">
      <g>
       <use xlink:href="#m245ba59369" x="167.279375" y="263.48625" style="stroke: #000000"/>
      </g>
     </g>
     <g id="text_3">
      <!-- 3:00 -->
      <g transform="translate(170.381563 295.339375) rotate(-90) scale(0.12 -0.12)">
       <defs>
        <path id="ArialMT-33" d="M 269 1209 
L 831 1284 
Q 928 806 1161 595 
Q 1394 384 1728 384 
Q 2125 384 2398 659 
Q 2672 934 2672 1341 
Q 2672 1728 2419 1979 
Q 2166 2231 1775 2231 
Q 1616 2231 1378 2169 
L 1441 2663 
Q 1497 2656 1531 2656 
Q 1891 2656 2178 2843 
Q 2466 3031 2466 3422 
Q 2466 3731 2256 3934 
Q 2047 4138 1716 4138 
Q 1388 4138 1169 3931 
Q 950 3725 888 3313 
L 325 3413 
Q 428 3978 793 4289 
Q 1159 4600 1703 4600 
Q 2078 4600 2393 4439 
Q 2709 4278 2876 4000 
Q 3044 3722 3044 3409 
Q 3044 3113 2884 2869 
Q 2725 2625 2413 2481 
Q 2819 2388 3044 2092 
Q 3269 1797 3269 1353 
Q 3269 753 2831 336 
Q 2394 -81 1725 -81 
Q 1122 -81 723 278 
Q 325 638 269 1209 
z
" transform="scale(0.015625)"/>
       </defs>
       <use xlink:href="#ArialMT-33"/>
       <use xlink:href="#ArialMT-3a" transform="translate(55.615234 0)"/>
       <use xlink:href="#ArialMT-30" transform="translate(83.398438 0)"/>
       <use xlink:href="#ArialMT-30" transform="translate(139.013672 0)"/>
      </g>
     </g>
    </g>
    <g id="xtick_4">
     <g id="line2d_45">
      <g>
       <use xlink:href="#m245ba59369" x="195.179375" y="263.48625" style="stroke: #000000"/>
      </g>
     </g>
     <g id="text_4">
      <!-- 4:00 -->
      <g transform="translate(198.281563 295.339375) rotate(-90) scale(0.12 -0.12)">
       <defs>
        <path id="ArialMT-34" d="M 2069 0 
L 2069 1097 
L 81 1097 
L 81 1613 
L 2172 4581 
L 2631 4581 
L 2631 1613 
L 3250 1613 
L 3250 1097 
L 2631 1097 
L 2631 0 
L 2069 0 
z
M 2069 1613 
L 2069 3678 
L 634 1613 
L 2069 1613 
z
" transform="scale(0.015625)"/>
       </defs>
       <use xlink:href="#ArialMT-34"/>
       <use xlink:href="#ArialMT-3a" transform="translate(55.615234 0)"/>
       <use xlink:href="#ArialMT-30" transform="translate(83.398438 0)"/>
       <use xlink:href="#ArialMT-30" transform="translate(139.013672 0)"/>
      </g>
     </g>
    </g>
    <g id="xtick_5">
     <g id="line2d_46">
      <g>
       <use xlink:href="#m245ba59369" x="223.079375" y="263.48625" style="stroke: #000000"/>
      </g>
     </g>
     <g id="text_5">
      <!-- 5:00 -->
      <g transform="translate(226.181562 295.339375) rotate(-90) scale(0.12 -0.12)">
       <defs>
        <path id="ArialMT-35" d="M 266 1200 
L 856 1250 
Q 922 819 1161 601 
Q 1400 384 1738 384 
Q 2144 384 2425 690 
Q 2706 997 2706 1503 
Q 2706 1984 2436 2262 
Q 2166 2541 1728 2541 
Q 1456 2541 1237 2417 
Q 1019 2294 894 2097 
L 366 2166 
L 809 4519 
L 3088 4519 
L 3088 3981 
L 1259 3981 
L 1013 2750 
Q 1425 3038 1878 3038 
Q 2478 3038 2890 2622 
Q 3303 2206 3303 1553 
Q 3303 931 2941 478 
Q 2500 -78 1738 -78 
Q 1113 -78 717 272 
Q 322 622 266 1200 
z
" transform="scale(0.015625)"/>
       </defs>
       <use xlink:href="#ArialMT-35"/>
       <use xlink:href="#ArialMT-3a" transform="translate(55.615234 0)"/>
       <use xlink:href="#ArialMT-30" transform="translate(83.398438 0)"/>
       <use xlink:href="#ArialMT-30" transform="translate(139.013672 0)"/>
      </g>
     </g>
    </g>
    <g id="xtick_6">
     <g id="line2d_47">
      <g>
       <use xlink:href="#m245ba59369" x="250.979375" y="263.48625" style="stroke: #000000"/>
      </g>
     </g>
     <g id="text_6">
      <!-- 6:00 -->
      <g transform="translate(254.081563 295.339375) rotate(-90) scale(0.12 -0.12)">
       <defs>
        <path id="ArialMT-36" d="M 3184 3459 
L 2625 3416 
Q 2550 3747 2413 3897 
Q 2184 4138 1850 4138 
Q 1581 4138 1378 3988 
Q 1113 3794 959 3422 
Q 806 3050 800 2363 
Q 1003 2672 1297 2822 
Q 1591 2972 1913 2972 
Q 2475 2972 2870 2558 
Q 3266 2144 3266 1488 
Q 3266 1056 3080 686 
Q 2894 316 2569 119 
Q 2244 -78 1831 -78 
Q 1128 -78 684 439 
Q 241 956 241 2144 
Q 241 3472 731 4075 
Q 1159 4600 1884 4600 
Q 2425 4600 2770 4297 
Q 3116 3994 3184 3459 
z
M 888 1484 
Q 888 1194 1011 928 
Q 1134 663 1356 523 
Q 1578 384 1822 384 
Q 2178 384 2434 671 
Q 2691 959 2691 1453 
Q 2691 1928 2437 2201 
Q 2184 2475 1800 2475 
Q 1419 2475 1153 2201 
Q 888 1928 888 1484 
z
" transform="scale(0.015625)"/>
       </defs>
       <use xlink:href="#ArialMT-36"/>
       <use xlink:href="#ArialMT-3a" transform="translate(55.615234 0)"/>
       <use xlink:href="#ArialMT-30" transform="translate(83.398438 0)"/>
       <use xlink:href="#ArialMT-30" transform="translate(139.013672 0)"/>
      </g>
     </g>
    </g>
    <g id="xtick_7">
     <g id="line2d_48">
      <g>
       <use xlink:href="#m245ba59369" x="278.879375" y="263.48625" style="stroke: #000000"/>
      </g>
     </g>
     <g id="text_7">
      <!-- 7:00 -->
      <g transform="translate(281.981562 295.339375) rotate(-90) scale(0.12 -0.12)">
       <defs>
        <path id="ArialMT-37" d="M 303 3981 
L 303 4522 
L 3269 4522 
L 3269 4084 
Q 2831 3619 2401 2847 
Q 1972 2075 1738 1259 
Q 1569 684 1522 0 
L 944 0 
Q 953 541 1156 1306 
Q 1359 2072 1739 2783 
Q 2119 3494 2547 3981 
L 303 3981 
z
" transform="scale(0.015625)"/>
       </defs>
       <use xlink:href="#ArialMT-37"/>
       <use xlink:href="#ArialMT-3a" transform="translate(55.615234 0)"/>
       <use xlink:href="#ArialMT-30" transform="translate(83.398438 0)"/>
       <use xlink:href="#ArialMT-30" transform="translate(139.013672 0)"/>
      </g>
     </g>
    </g>
    <g id="xtick_8">
     <g id="line2d_49">
      <g>
       <use xlink:href="#m245ba59369" x="306.779375" y="263.48625" style="stroke: #000000"/>
      </g>
     </g>
     <g id="text_8">
      <!-- 8:00 -->
      <g transform="translate(309.881562 295.339375) rotate(-90) scale(0.12 -0.12)">
       <defs>
        <path id="ArialMT-38" d="M 1131 2484 
Q 781 2613 612 2850 
Q 444 3088 444 3419 
Q 444 3919 803 4259 
Q 1163 4600 1759 4600 
Q 2359 4600 2725 4251 
Q 3091 3903 3091 3403 
Q 3091 3084 2923 2848 
Q 2756 2613 2416 2484 
Q 2838 2347 3058 2040 
Q 3278 1734 3278 1309 
Q 3278 722 2862 322 
Q 2447 -78 1769 -78 
Q 1091 -78 675 323 
Q 259 725 259 1325 
Q 259 1772 486 2073 
Q 713 2375 1131 2484 
z
M 1019 3438 
Q 1019 3113 1228 2906 
Q 1438 2700 1772 2700 
Q 2097 2700 2305 2904 
Q 2513 3109 2513 3406 
Q 2513 3716 2298 3927 
Q 2084 4138 1766 4138 
Q 1444 4138 1231 3931 
Q 1019 3725 1019 3438 
z
M 838 1322 
Q 838 1081 952 856 
Q 1066 631 1291 507 
Q 1516 384 1775 384 
Q 2178 384 2440 643 
Q 2703 903 2703 1303 
Q 2703 1709 2433 1975 
Q 2163 2241 1756 2241 
Q 1359 2241 1098 1978 
Q 838 1716 838 1322 
z
" transform="scale(0.015625)"/>
       </defs>
       <use xlink:href="#ArialMT-38"/>
       <use xlink:href="#ArialMT-3a" transform="translate(55.615234 0)"/>
       <use xlink:href="#ArialMT-30" transform="translate(83.398438 0)"/>
       <use xlink:href="#ArialMT-30" transform="translate(139.013672 0)"/>
      </g>
     </g>
    </g>
    <g id="xtick_9">
     <g id="line2d_50">
      <g>
       <use xlink:href="#m245ba59369" x="334.679375" y="263.48625" style="stroke: #000000"/>
      </g>
     </g>
     <g id="text_9">
      <!-- 9:00 -->
      <g transform="translate(337.781563 295.339375) rotate(-90) scale(0.12 -0.12)">
       <defs>
        <path id="ArialMT-39" d="M 350 1059 
L 891 1109 
Q 959 728 1153 556 
Q 1347 384 1650 384 
Q 1909 384 2104 503 
Q 2300 622 2425 820 
Q 2550 1019 2634 1356 
Q 2719 1694 2719 2044 
Q 2719 2081 2716 2156 
Q 2547 1888 2255 1720 
Q 1963 1553 1622 1553 
Q 1053 1553 659 1965 
Q 266 2378 266 3053 
Q 266 3750 677 4175 
Q 1088 4600 1706 4600 
Q 2153 4600 2523 4359 
Q 2894 4119 3086 3673 
Q 3278 3228 3278 2384 
Q 3278 1506 3087 986 
Q 2897 466 2520 194 
Q 2144 -78 1638 -78 
Q 1100 -78 759 220 
Q 419 519 350 1059 
z
M 2653 3081 
Q 2653 3566 2395 3850 
Q 2138 4134 1775 4134 
Q 1400 4134 1122 3828 
Q 844 3522 844 3034 
Q 844 2597 1108 2323 
Q 1372 2050 1759 2050 
Q 2150 2050 2401 2323 
Q 2653 2597 2653 3081 
z
" transform="scale(0.015625)"/>
       </defs>
       <use xlink:href="#ArialMT-39"/>
       <use xlink:href="#ArialMT-3a" transform="translate(55.615234 0)"/>
       <use xlink:href="#ArialMT-30" transform="translate(83.398438 0)"/>
       <use xlink:href="#ArialMT-30" transform="translate(139.013672 0)"/>
      </g>
     </g>
    </g>
    <g id="xtick_10">
     <g id="line2d_51">
      <g>
       <use xlink:href="#m245ba59369" x="362.579375" y="263.48625" style="stroke: #000000"/>
      </g>
     </g>
     <g id="text_10">
      <!-- 10:00 -->
      <g transform="translate(365.681562 302.0125) rotate(-90) scale(0.12 -0.12)">
       <use xlink:href="#ArialMT-31"/>
       <use xlink:href="#ArialMT-30" transform="translate(55.615234 0)"/>
       <use xlink:href="#ArialMT-3a" transform="translate(111.230469 0)"/>
       <use xlink:href="#ArialMT-30" transform="translate(139.013672 0)"/>
       <use xlink:href="#ArialMT-30" transform="translate(194.628906 0)"/>
      </g>
     </g>
    </g>
    <g id="xtick_11">
     <g id="line2d_52">
      <g>
       <use xlink:href="#m245ba59369" x="390.479375" y="263.48625" style="stroke: #000000"/>
      </g>
     </g>
     <g id="text_11">
      <!-- 11:00 -->
      <g transform="translate(393.581562 301.1275) rotate(-90) scale(0.12 -0.12)">
       <use xlink:href="#ArialMT-31"/>
       <use xlink:href="#ArialMT-31" transform="translate(48.240234 0)"/>
       <use xlink:href="#ArialMT-3a" transform="translate(103.855469 0)"/>
       <use xlink:href="#ArialMT-30" transform="translate(131.638672 0)"/>
       <use xlink:href="#ArialMT-30" transform="translate(187.253906 0)"/>
      </g>
     </g>
    </g>
    <g id="xtick_12">
     <g id="line2d_53">
      <g>
       <use xlink:href="#m245ba59369" x="418.379375" y="263.48625" style="stroke: #000000"/>
      </g>
     </g>
     <g id="text_12">
      <!-- 12:00 -->
      <g transform="translate(421.481562 302.0125) rotate(-90) scale(0.12 -0.12)">
       <use xlink:href="#ArialMT-31"/>
       <use xlink:href="#ArialMT-32" transform="translate(55.615234 0)"/>
       <use xlink:href="#ArialMT-3a" transform="translate(111.230469 0)"/>
       <use xlink:href="#ArialMT-30" transform="translate(139.013672 0)"/>
       <use xlink:href="#ArialMT-30" transform="translate(194.628906 0)"/>
      </g>
     </g>
    </g>
    <g id="xtick_13">
     <g id="line2d_54">
      <g>
       <use xlink:href="#m245ba59369" x="446.279375" y="263.48625" style="stroke: #000000"/>
      </g>
     </g>
     <g id="text_13">
      <!-- 13:00 -->
      <g transform="translate(449.381562 302.0125) rotate(-90) scale(0.12 -0.12)">
       <use xlink:href="#ArialMT-31"/>
       <use xlink:href="#ArialMT-33" transform="translate(55.615234 0)"/>
       <use xlink:href="#ArialMT-3a" transform="translate(111.230469 0)"/>
       <use xlink:href="#ArialMT-30" transform="translate(139.013672 0)"/>
       <use xlink:href="#ArialMT-30" transform="translate(194.628906 0)"/>
      </g>
     </g>
    </g>
    <g id="xtick_14">
     <g id="line2d_55">
      <g>
       <use xlink:href="#m245ba59369" x="474.179375" y="263.48625" style="stroke: #000000"/>
      </g>
     </g>
     <g id="text_14">
      <!-- 14:00 -->
      <g transform="translate(477.281562 302.0125) rotate(-90) scale(0.12 -0.12)">
       <use xlink:href="#ArialMT-31"/>
       <use xlink:href="#ArialMT-34" transform="translate(55.615234 0)"/>
       <use xlink:href="#ArialMT-3a" transform="translate(111.230469 0)"/>
       <use xlink:href="#ArialMT-30" transform="translate(139.013672 0)"/>
       <use xlink:href="#ArialMT-30" transform="translate(194.628906 0)"/>
      </g>
     </g>
    </g>
    <g id="xtick_15">
     <g id="line2d_56">
      <g>
       <use xlink:href="#m245ba59369" x="502.079375" y="263.48625" style="stroke: #000000"/>
      </g>
     </g>
     <g id="text_15">
      <!-- 15:00 -->
      <g transform="translate(505.181562 302.0125) rotate(-90) scale(0.12 -0.12)">
       <use xlink:href="#ArialMT-31"/>
       <use xlink:href="#ArialMT-35" transform="translate(55.615234 0)"/>
       <use xlink:href="#ArialMT-3a" transform="translate(111.230469 0)"/>
       <use xlink:href="#ArialMT-30" transform="translate(139.013672 0)"/>
       <use xlink:href="#ArialMT-30" transform="translate(194.628906 0)"/>
      </g>
     </g>
    </g>
    <g id="xtick_16">
     <g id="line2d_57">
      <g>
       <use xlink:href="#m245ba59369" x="529.979375" y="263.48625" style="stroke: #000000"/>
      </g>
     </g>
     <g id="text_16">
      <!-- 16:00 -->
      <g transform="translate(533.081563 302.0125) rotate(-90) scale(0.12 -0.12)">
       <use xlink:href="#ArialMT-31"/>
       <use xlink:href="#ArialMT-36" transform="translate(55.615234 0)"/>
       <use xlink:href="#ArialMT-3a" transform="translate(111.230469 0)"/>
       <use xlink:href="#ArialMT-30" transform="translate(139.013672 0)"/>
       <use xlink:href="#ArialMT-30" transform="translate(194.628906 0)"/>
      </g>
     </g>
    </g>
    <g id="xtick_17">
     <g id="line2d_58">
      <g>
       <use xlink:href="#m245ba59369" x="557.879375" y="263.48625" style="stroke: #000000"/>
      </g>
     </g>
     <g id="text_17">
      <!-- 17:00 -->
      <g transform="translate(560.981562 302.0125) rotate(-90) scale(0.12 -0.12)">
       <use xlink:href="#ArialMT-31"/>
       <use xlink:href="#ArialMT-37" transform="translate(55.615234 0)"/>
       <use xlink:href="#ArialMT-3a" transform="translate(111.230469 0)"/>
       <use xlink:href="#ArialMT-30" transform="translate(139.013672 0)"/>
       <use xlink:href="#ArialMT-30" transform="translate(194.628906 0)"/>
      </g>
     </g>
    </g>
    <g id="xtick_18">
     <g id="line2d_59">
      <g>
       <use xlink:href="#m245ba59369" x="585.779375" y="263.48625" style="stroke: #000000"/>
      </g>
     </g>
     <g id="text_18">
      <!-- 18:00 -->
      <g transform="translate(588.881562 302.0125) rotate(-90) scale(0.12 -0.12)">
       <use xlink:href="#ArialMT-31"/>
       <use xlink:href="#ArialMT-38" transform="translate(55.615234 0)"/>
       <use xlink:href="#ArialMT-3a" transform="translate(111.230469 0)"/>
       <use xlink:href="#ArialMT-30" transform="translate(139.013672 0)"/>
       <use xlink:href="#ArialMT-30" transform="translate(194.628906 0)"/>
      </g>
     </g>
    </g>
    <g id="xtick_19">
     <g id="line2d_60">
      <g>
       <use xlink:href="#m245ba59369" x="613.679375" y="263.48625" style="stroke: #000000"/>
      </g>
     </g>
     <g id="text_19">
      <!-- 19:00 -->
      <g transform="translate(616.781562 302.0125) rotate(-90) scale(0.12 -0.12)">
       <use xlink:href="#ArialMT-31"/>
       <use xlink:href="#ArialMT-39" transform="translate(55.615234 0)"/>
       <use xlink:href="#ArialMT-3a" transform="translate(111.230469 0)"/>
       <use xlink:href="#ArialMT-30" transform="translate(139.013672 0)"/>
       <use xlink:href="#ArialMT-30" transform="translate(194.628906 0)"/>
      </g>
     </g>
    </g>
    <g id="xtick_20">
     <g id="line2d_61">
      <g>
       <use xlink:href="#m245ba59369" x="641.579375" y="263.48625" style="stroke: #000000"/>
      </g>
     </g>
     <g id="text_20">
      <!-- 20:00 -->
      <g transform="translate(644.681562 302.0125) rotate(-90) scale(0.12 -0.12)">
       <use xlink:href="#ArialMT-32"/>
       <use xlink:href="#ArialMT-30" transform="translate(55.615234 0)"/>
       <use xlink:href="#ArialMT-3a" transform="translate(111.230469 0)"/>
       <use xlink:href="#ArialMT-30" transform="translate(139.013672 0)"/>
       <use xlink:href="#ArialMT-30" transform="translate(194.628906 0)"/>
      </g>
     </g>
    </g>
    <g id="xtick_21">
     <g id="line2d_62">
      <g>
       <use xlink:href="#m245ba59369" x="669.479375" y="263.48625" style="stroke: #000000"/>
      </g>
     </g>
     <g id="text_21">
      <!-- 21:00 -->
      <g transform="translate(672.581562 302.0125) rotate(-90) scale(0.12 -0.12)">
       <use xlink:href="#ArialMT-32"/>
       <use xlink:href="#ArialMT-31" transform="translate(55.615234 0)"/>
       <use xlink:href="#ArialMT-3a" transform="translate(111.230469 0)"/>
       <use xlink:href="#ArialMT-30" transform="translate(139.013672 0)"/>
       <use xlink:href="#ArialMT-30" transform="translate(194.628906 0)"/>
      </g>
     </g>
    </g>
    <g id="xtick_22">
     <g id="line2d_63">
      <g>
       <use xlink:href="#m245ba59369" x="697.379375" y="263.48625" style="stroke: #000000"/>
      </g>
     </g>
     <g id="text_22">
      <!-- 22:00 -->
      <g transform="translate(700.481562 302.0125) rotate(-90) scale(0.12 -0.12)">
       <use xlink:href="#ArialMT-32"/>
       <use xlink:href="#ArialMT-32" transform="translate(55.615234 0)"/>
       <use xlink:href="#ArialMT-3a" transform="translate(111.230469 0)"/>
       <use xlink:href="#ArialMT-30" transform="translate(139.013672 0)"/>
       <use xlink:href="#ArialMT-30" transform="translate(194.628906 0)"/>
      </g>
     </g>
    </g>
    <g id="xtick_23">
     <g id="line2d_64">
      <g>
       <use xlink:href="#m245ba59369" x="725.279375" y="263.48625" style="stroke: #000000"/>
      </g>
     </g>
     <g id="text_23">
      <!-- 23:00 -->
      <g transform="translate(728.381562 302.0125) rotate(-90) scale(0.12 -0.12)">
       <use xlink:href="#ArialMT-32"/>
       <use xlink:href="#ArialMT-33" transform="translate(55.615234 0)"/>
       <use xlink:href="#ArialMT-3a" transform="translate(111.230469 0)"/>
       <use xlink:href="#ArialMT-30" transform="translate(139.013672 0)"/>
       <use xlink:href="#ArialMT-30" transform="translate(194.628906 0)"/>
      </g>
     </g>
    </g>
    <g id="xtick_24">
     <g id="line2d_65">
      <g>
       <use xlink:href="#m245ba59369" x="753.179375" y="263.48625" style="stroke: #000000"/>
      </g>
     </g>
     <g id="text_24">
      <!-- 24:00 -->
      <g transform="translate(756.281562 302.0125) rotate(-90) scale(0.12 -0.12)">
       <use xlink:href="#ArialMT-32"/>
       <use xlink:href="#ArialMT-34" transform="translate(55.615234 0)"/>
       <use xlink:href="#ArialMT-3a" transform="translate(111.230469 0)"/>
       <use xlink:href="#ArialMT-30" transform="translate(139.013672 0)"/>
       <use xlink:href="#ArialMT-30" transform="translate(194.628906 0)"/>
      </g>
     </g>
    </g>
   </g>
   <g id="matplotlib.axis_2">
    <g id="ytick_1">
     <g id="line2d_66">
      <defs>
       <path id="ma551a3c3f9" d="M 0 0 
L -5 0 
" style="stroke: #000000; stroke-opacity: 0; stroke-width: 1.5"/>
      </defs>
      <g>
       <use xlink:href="#ma551a3c3f9" x="97.529375" y="258.07747" style="fill-opacity: 0; stroke: #000000; stroke-opacity: 0; stroke-width: 1.5"/>
      </g>
     </g>
     <g id="text_25">
      <!-- 0.00 -->
      <g transform="translate(57.891875 263.80372) scale(0.16 -0.16)">
       <defs>
        <path id="ArialMT-2e" d="M 581 0 
L 581 641 
L 1222 641 
L 1222 0 
L 581 0 
z
" transform="scale(0.015625)"/>
       </defs>
       <use xlink:href="#ArialMT-30"/>
       <use xlink:href="#ArialMT-2e" transform="translate(55.615234 0)"/>
       <use xlink:href="#ArialMT-30" transform="translate(83.398438 0)"/>
       <use xlink:href="#ArialMT-30" transform="translate(139.013672 0)"/>
      </g>
     </g>
    </g>
    <g id="ytick_2">
     <g id="line2d_67">
      <g>
       <use xlink:href="#ma551a3c3f9" x="97.529375" y="203.989665" style="fill-opacity: 0; stroke: #000000; stroke-opacity: 0; stroke-width: 1.5"/>
      </g>
     </g>
     <g id="text_26">
      <!-- 0.02 -->
      <g transform="translate(57.891875 209.715915) scale(0.16 -0.16)">
       <use xlink:href="#ArialMT-30"/>
       <use xlink:href="#ArialMT-2e" transform="translate(55.615234 0)"/>
       <use xlink:href="#ArialMT-30" transform="translate(83.398438 0)"/>
       <use xlink:href="#ArialMT-32" transform="translate(139.013672 0)"/>
      </g>
     </g>
    </g>
    <g id="ytick_3">
     <g id="line2d_68">
      <g>
       <use xlink:href="#ma551a3c3f9" x="97.529375" y="149.90186" style="fill-opacity: 0; stroke: #000000; stroke-opacity: 0; stroke-width: 1.5"/>
      </g>
     </g>
     <g id="text_27">
      <!-- 0.04 -->
      <g transform="translate(57.891875 155.62811) scale(0.16 -0.16)">
       <use xlink:href="#ArialMT-30"/>
       <use xlink:href="#ArialMT-2e" transform="translate(55.615234 0)"/>
       <use xlink:href="#ArialMT-30" transform="translate(83.398438 0)"/>
       <use xlink:href="#ArialMT-34" transform="translate(139.013672 0)"/>
      </g>
     </g>
    </g>
    <g id="ytick_4">
     <g id="line2d_69">
      <g>
       <use xlink:href="#ma551a3c3f9" x="97.529375" y="95.814055" style="fill-opacity: 0; stroke: #000000; stroke-opacity: 0; stroke-width: 1.5"/>
      </g>
     </g>
     <g id="text_28">
      <!-- 0.06 -->
      <g transform="translate(57.891875 101.540305) scale(0.16 -0.16)">
       <use xlink:href="#ArialMT-30"/>
       <use xlink:href="#ArialMT-2e" transform="translate(55.615234 0)"/>
       <use xlink:href="#ArialMT-30" transform="translate(83.398438 0)"/>
       <use xlink:href="#ArialMT-36" transform="translate(139.013672 0)"/>
      </g>
     </g>
    </g>
    <g id="ytick_5">
     <g id="line2d_70">
      <g>
       <use xlink:href="#ma551a3c3f9" x="97.529375" y="41.72625" style="fill-opacity: 0; stroke: #000000; stroke-opacity: 0; stroke-width: 1.5"/>
      </g>
     </g>
     <g id="text_29">
      <!-- 0.08 -->
      <g transform="translate(57.891875 47.4525) scale(0.16 -0.16)">
       <use xlink:href="#ArialMT-30"/>
       <use xlink:href="#ArialMT-2e" transform="translate(55.615234 0)"/>
       <use xlink:href="#ArialMT-30" transform="translate(83.398438 0)"/>
       <use xlink:href="#ArialMT-38" transform="translate(139.013672 0)"/>
      </g>
     </g>
    </g>
    <g id="text_30">
     <!-- Electricity (MWh) -->
     <g transform="translate(49.103438 220.60125) rotate(-90) scale(0.18 -0.18)">
      <defs>
       <path id="ArialMT-45" d="M 506 0 
L 506 4581 
L 3819 4581 
L 3819 4041 
L 1113 4041 
L 1113 2638 
L 3647 2638 
L 3647 2100 
L 1113 2100 
L 1113 541 
L 3925 541 
L 3925 0 
L 506 0 
z
" transform="scale(0.015625)"/>
       <path id="ArialMT-6c" d="M 409 0 
L 409 4581 
L 972 4581 
L 972 0 
L 409 0 
z
" transform="scale(0.015625)"/>
       <path id="ArialMT-65" d="M 2694 1069 
L 3275 997 
Q 3138 488 2766 206 
Q 2394 -75 1816 -75 
Q 1088 -75 661 373 
Q 234 822 234 1631 
Q 234 2469 665 2931 
Q 1097 3394 1784 3394 
Q 2450 3394 2872 2941 
Q 3294 2488 3294 1666 
Q 3294 1616 3291 1516 
L 816 1516 
Q 847 969 1125 678 
Q 1403 388 1819 388 
Q 2128 388 2347 550 
Q 2566 713 2694 1069 
z
M 847 1978 
L 2700 1978 
Q 2663 2397 2488 2606 
Q 2219 2931 1791 2931 
Q 1403 2931 1139 2672 
Q 875 2413 847 1978 
z
" transform="scale(0.015625)"/>
       <path id="ArialMT-63" d="M 2588 1216 
L 3141 1144 
Q 3050 572 2676 248 
Q 2303 -75 1759 -75 
Q 1078 -75 664 370 
Q 250 816 250 1647 
Q 250 2184 428 2587 
Q 606 2991 970 3192 
Q 1334 3394 1763 3394 
Q 2303 3394 2647 3120 
Q 2991 2847 3088 2344 
L 2541 2259 
Q 2463 2594 2264 2762 
Q 2066 2931 1784 2931 
Q 1359 2931 1093 2626 
Q 828 2322 828 1663 
Q 828 994 1084 691 
Q 1341 388 1753 388 
Q 2084 388 2306 591 
Q 2528 794 2588 1216 
z
" transform="scale(0.015625)"/>
       <path id="ArialMT-74" d="M 1650 503 
L 1731 6 
Q 1494 -44 1306 -44 
Q 1000 -44 831 53 
Q 663 150 594 308 
Q 525 466 525 972 
L 525 2881 
L 113 2881 
L 113 3319 
L 525 3319 
L 525 4141 
L 1084 4478 
L 1084 3319 
L 1650 3319 
L 1650 2881 
L 1084 2881 
L 1084 941 
Q 1084 700 1114 631 
Q 1144 563 1211 522 
Q 1278 481 1403 481 
Q 1497 481 1650 503 
z
" transform="scale(0.015625)"/>
       <path id="ArialMT-72" d="M 416 0 
L 416 3319 
L 922 3319 
L 922 2816 
Q 1116 3169 1280 3281 
Q 1444 3394 1641 3394 
Q 1925 3394 2219 3213 
L 2025 2691 
Q 1819 2813 1613 2813 
Q 1428 2813 1281 2702 
Q 1134 2591 1072 2394 
Q 978 2094 978 1738 
L 978 0 
L 416 0 
z
" transform="scale(0.015625)"/>
       <path id="ArialMT-69" d="M 425 3934 
L 425 4581 
L 988 4581 
L 988 3934 
L 425 3934 
z
M 425 0 
L 425 3319 
L 988 3319 
L 988 0 
L 425 0 
z
" transform="scale(0.015625)"/>
       <path id="ArialMT-79" d="M 397 -1278 
L 334 -750 
Q 519 -800 656 -800 
Q 844 -800 956 -737 
Q 1069 -675 1141 -563 
Q 1194 -478 1313 -144 
Q 1328 -97 1363 -6 
L 103 3319 
L 709 3319 
L 1400 1397 
Q 1534 1031 1641 628 
Q 1738 1016 1872 1384 
L 2581 3319 
L 3144 3319 
L 1881 -56 
Q 1678 -603 1566 -809 
Q 1416 -1088 1222 -1217 
Q 1028 -1347 759 -1347 
Q 597 -1347 397 -1278 
z
" transform="scale(0.015625)"/>
       <path id="ArialMT-20" transform="scale(0.015625)"/>
       <path id="ArialMT-28" d="M 1497 -1347 
Q 1031 -759 709 28 
Q 388 816 388 1659 
Q 388 2403 628 3084 
Q 909 3875 1497 4659 
L 1900 4659 
Q 1522 4009 1400 3731 
Q 1209 3300 1100 2831 
Q 966 2247 966 1656 
Q 966 153 1900 -1347 
L 1497 -1347 
z
" transform="scale(0.015625)"/>
       <path id="ArialMT-4d" d="M 475 0 
L 475 4581 
L 1388 4581 
L 2472 1338 
Q 2622 884 2691 659 
Q 2769 909 2934 1394 
L 4031 4581 
L 4847 4581 
L 4847 0 
L 4263 0 
L 4263 3834 
L 2931 0 
L 2384 0 
L 1059 3900 
L 1059 0 
L 475 0 
z
" transform="scale(0.015625)"/>
       <path id="ArialMT-57" d="M 1294 0 
L 78 4581 
L 700 4581 
L 1397 1578 
Q 1509 1106 1591 641 
Q 1766 1375 1797 1488 
L 2669 4581 
L 3400 4581 
L 4056 2263 
Q 4303 1400 4413 641 
Q 4500 1075 4641 1638 
L 5359 4581 
L 5969 4581 
L 4713 0 
L 4128 0 
L 3163 3491 
Q 3041 3928 3019 4028 
Q 2947 3713 2884 3491 
L 1913 0 
L 1294 0 
z
" transform="scale(0.015625)"/>
       <path id="ArialMT-68" d="M 422 0 
L 422 4581 
L 984 4581 
L 984 2938 
Q 1378 3394 1978 3394 
Q 2347 3394 2619 3248 
Q 2891 3103 3008 2847 
Q 3125 2591 3125 2103 
L 3125 0 
L 2563 0 
L 2563 2103 
Q 2563 2525 2380 2717 
Q 2197 2909 1863 2909 
Q 1613 2909 1392 2779 
Q 1172 2650 1078 2428 
Q 984 2206 984 1816 
L 984 0 
L 422 0 
z
" transform="scale(0.015625)"/>
       <path id="ArialMT-29" d="M 791 -1347 
L 388 -1347 
Q 1322 153 1322 1656 
Q 1322 2244 1188 2822 
Q 1081 3291 891 3722 
Q 769 4003 388 4659 
L 791 4659 
Q 1378 3875 1659 3084 
Q 1900 2403 1900 1659 
Q 1900 816 1576 28 
Q 1253 -759 791 -1347 
z
" transform="scale(0.015625)"/>
      </defs>
      <use xlink:href="#ArialMT-45"/>
      <use xlink:href="#ArialMT-6c" transform="translate(66.699219 0)"/>
      <use xlink:href="#ArialMT-65" transform="translate(88.916016 0)"/>
      <use xlink:href="#ArialMT-63" transform="translate(144.53125 0)"/>
      <use xlink:href="#ArialMT-74" transform="translate(194.53125 0)"/>
      <use xlink:href="#ArialMT-72" transform="translate(222.314453 0)"/>
      <use xlink:href="#ArialMT-69" transform="translate(255.615234 0)"/>
      <use xlink:href="#ArialMT-63" transform="translate(277.832031 0)"/>
      <use xlink:href="#ArialMT-69" transform="translate(327.832031 0)"/>
      <use xlink:href="#ArialMT-74" transform="translate(350.048828 0)"/>
      <use xlink:href="#ArialMT-79" transform="translate(377.832031 0)"/>
      <use xlink:href="#ArialMT-20" transform="translate(427.832031 0)"/>
      <use xlink:href="#ArialMT-28" transform="translate(455.615234 0)"/>
      <use xlink:href="#ArialMT-4d" transform="translate(488.916016 0)"/>
      <use xlink:href="#ArialMT-57" transform="translate(572.216797 0)"/>
      <use xlink:href="#ArialMT-68" transform="translate(666.601562 0)"/>
      <use xlink:href="#ArialMT-29" transform="translate(722.216797 0)"/>
     </g>
    </g>
   </g>
   <g id="line2d_71">
    <path d="M 111.479375 225.388697 
L 139.379375 235.907005 
L 167.279375 239.181942 
L 195.179375 236.239519 
L 223.079375 227.41379 
L 250.979375 204.587706 
L 278.879375 167.107309 
L 306.779375 135.923983 
L 334.679375 128.965126 
L 362.579375 127.439519 
L 390.479375 125.074805 
L 418.379375 117.810135 
L 446.279375 113.31948 
L 474.179375 108.620045 
L 502.079375 104.299687 
L 529.979375 103.383591 
L 557.879375 103.534999 
L 585.779375 111.81026 
L 613.679375 125.714098 
L 641.579375 137.128998 
L 669.479375 152.658323 
L 697.379375 170.491126 
L 725.279375 184.263415 
L 753.179375 202.124329 
" clip-path="url(#pff84283ad4)" style="fill: none; stroke: #d62728; stroke-opacity: 0.8; stroke-width: 1.5; stroke-linecap: round"/>
   </g>
   <g id="line2d_72">
    <path d="M 111.479375 234.167917 
L 139.379375 243.16132 
L 167.279375 245.263548 
L 195.179375 243.832406 
L 223.079375 237.222539 
L 250.979375 222.429076 
L 278.879375 185.45638 
L 306.779375 153.280296 
L 334.679375 140.52194 
L 362.579375 135.137178 
L 390.479375 131.405271 
L 418.379375 128.008902 
L 446.279375 131.221532 
L 474.179375 131.980862 
L 502.079375 131.35821 
L 529.979375 128.167855 
L 557.879375 131.545065 
L 585.779375 136.71619 
L 613.679375 132.526399 
L 641.579375 144.727369 
L 669.479375 161.8322 
L 697.379375 181.543812 
L 725.279375 195.0173 
L 753.179375 211.689098 
" clip-path="url(#pff84283ad4)" style="fill: none; stroke: #9467bd; stroke-opacity: 0.8; stroke-width: 1.5; stroke-linecap: round"/>
   </g>
   <g id="line2d_73">
    <path d="M 111.479375 230.587104 
L 139.379375 240.985977 
L 167.279375 242.747781 
L 195.179375 241.653744 
L 223.079375 236.090973 
L 250.979375 214.263906 
L 278.879375 176.621097 
L 306.779375 135.161406 
L 334.679375 111.484587 
L 362.579375 102.613326 
L 390.479375 95.352641 
L 418.379375 93.672218 
L 446.279375 90.331781 
L 474.179375 88.467251 
L 502.079375 89.261799 
L 529.979375 95.481985 
L 557.879375 97.717756 
L 585.779375 103.80548 
L 613.679375 93.940086 
L 641.579375 112.241242 
L 669.479375 137.128742 
L 697.379375 163.031109 
L 725.279375 185.230706 
L 753.179375 204.888119 
" clip-path="url(#pff84283ad4)" style="fill: none; stroke: #9467bd; stroke-opacity: 0.8; stroke-width: 1.5; stroke-linecap: round"/>
   </g>
   <g id="line2d_74">
    <path d="M 111.479375 245.894241 
L 139.379375 249.563167 
L 167.279375 249.922654 
L 195.179375 248.48713 
L 223.079375 243.975832 
L 250.979375 237.95759 
L 278.879375 219.052777 
L 306.779375 201.076357 
L 334.679375 192.223346 
L 362.579375 189.297363 
L 390.479375 184.853911 
L 418.379375 175.254627 
L 446.279375 172.261417 
L 474.179375 170.267291 
L 502.079375 170.710478 
L 529.979375 171.104882 
L 557.879375 171.975985 
L 585.779375 180.569422 
L 613.679375 191.383993 
L 641.579375 201.131322 
L 669.479375 210.569464 
L 697.379375 219.706888 
L 725.279375 229.435577 
L 753.179375 237.249767 
" clip-path="url(#pff84283ad4)" style="fill: none; stroke: #c5b0d5; stroke-opacity: 0.8; stroke-width: 1.5; stroke-linecap: round"/>
   </g>
   <g id="line2d_75">
    <path d="M 111.479375 244.457568 
L 139.379375 248.640476 
L 167.279375 249.181021 
L 195.179375 248.084985 
L 223.079375 242.864294 
L 250.979375 235.562012 
L 278.879375 215.024658 
L 306.779375 197.4441 
L 334.679375 186.929101 
L 362.579375 184.338037 
L 390.479375 179.565024 
L 418.379375 171.333974 
L 446.279375 167.22789 
L 474.179375 164.374979 
L 502.079375 164.610209 
L 529.979375 165.818769 
L 557.879375 166.860782 
L 585.779375 175.259542 
L 613.679375 186.318649 
L 641.579375 196.275386 
L 669.479375 206.946596 
L 697.379375 216.173835 
L 725.279375 226.065463 
L 753.179375 234.707854 
" clip-path="url(#pff84283ad4)" style="fill: none; stroke: #8c564b; stroke-opacity: 0.8; stroke-width: 1.5; stroke-linecap: round"/>
   </g>
   <g id="line2d_76">
    <path d="M 111.479375 241.889821 
L 139.379375 246.994861 
L 167.279375 247.949729 
L 195.179375 247.139028 
L 223.079375 241.281951 
L 250.979375 230.233143 
L 278.879375 206.624279 
L 306.779375 185.308769 
L 334.679375 173.690466 
L 362.579375 170.450534 
L 390.479375 166.025658 
L 418.379375 159.522846 
L 446.279375 157.064466 
L 474.179375 151.992964 
L 502.079375 151.956575 
L 529.979375 152.525795 
L 557.879375 151.557095 
L 585.779375 159.705168 
L 613.679375 170.840132 
L 641.579375 182.734646 
L 669.479375 195.191845 
L 697.379375 207.16682 
L 725.279375 218.593293 
L 753.179375 229.820555 
" clip-path="url(#pff84283ad4)" style="fill: none; stroke: #c49c94; stroke-opacity: 0.8; stroke-width: 1.5; stroke-linecap: round"/>
   </g>
   <g id="line2d_77">
    <path d="M 111.479375 232.278384 
L 139.379375 241.346444 
L 167.279375 243.419498 
L 195.179375 240.855656 
L 223.079375 235.113651 
L 250.979375 214.785807 
L 278.879375 175.714457 
L 306.779375 139.845403 
L 334.679375 124.008625 
L 362.579375 118.917433 
L 390.479375 115.039658 
L 418.379375 110.687889 
L 446.279375 109.427654 
L 474.179375 106.978424 
L 502.079375 102.998019 
L 529.979375 103.688577 
L 557.879375 104.315381 
L 585.779375 114.781902 
L 613.679375 116.64222 
L 641.579375 132.882281 
L 669.479375 152.36664 
L 697.379375 175.783106 
L 725.279375 189.982501 
L 753.179375 208.589894 
" clip-path="url(#pff84283ad4)" style="fill: none; stroke: #c49c94; stroke-opacity: 0.8; stroke-width: 1.5; stroke-linecap: round"/>
   </g>
   <g id="line2d_78">
    <path d="M 111.479375 233.191105 
L 139.379375 241.486373 
L 167.279375 242.188343 
L 195.179375 240.630201 
L 223.079375 235.35455 
L 250.979375 219.095991 
L 278.879375 185.699269 
L 306.779375 151.737836 
L 334.679375 129.857425 
L 362.579375 124.649901 
L 390.479375 119.461651 
L 418.379375 114.146481 
L 446.279375 112.679656 
L 474.179375 108.77699 
L 502.079375 106.136907 
L 529.979375 104.585832 
L 557.879375 105.130911 
L 585.779375 114.631918 
L 613.679375 120.191455 
L 641.579375 137.280315 
L 669.479375 157.279657 
L 697.379375 178.600248 
L 725.279375 195.830111 
L 753.179375 211.720673 
" clip-path="url(#pff84283ad4)" style="fill: none; stroke: #2ca02c; stroke-opacity: 0.8; stroke-width: 1.5; stroke-linecap: round"/>
   </g>
   <g id="line2d_79">
    <path d="M 111.479375 240.301475 
L 139.379375 245.054576 
L 167.279375 245.861027 
L 195.179375 244.119236 
L 223.079375 239.675313 
L 250.979375 231.494632 
L 278.879375 211.712261 
L 306.779375 187.643424 
L 334.679375 175.371653 
L 362.579375 169.464111 
L 390.479375 163.029708 
L 418.379375 153.275348 
L 446.279375 147.892997 
L 474.179375 145.647755 
L 502.079375 143.18644 
L 529.979375 145.119451 
L 557.879375 148.100308 
L 585.779375 157.178858 
L 613.679375 166.213231 
L 641.579375 179.628853 
L 669.479375 192.303409 
L 697.379375 206.072851 
L 725.279375 218.050288 
L 753.179375 228.996558 
" clip-path="url(#pff84283ad4)" style="fill: none; stroke: #ff7f0e; stroke-opacity: 0.8; stroke-width: 1.5; stroke-linecap: round"/>
   </g>
   <g id="line2d_80">
    <path d="M 111.479375 238.526474 
L 139.379375 244.05059 
L 167.279375 245.308096 
L 195.179375 244.415059 
L 223.079375 239.083605 
L 250.979375 227.089341 
L 278.879375 204.096307 
L 306.779375 178.618745 
L 334.679375 164.976296 
L 362.579375 159.090668 
L 390.479375 153.439351 
L 418.379375 144.737092 
L 446.279375 142.505317 
L 474.179375 138.972895 
L 502.079375 138.037918 
L 529.979375 139.238724 
L 557.879375 139.724717 
L 585.779375 145.661751 
L 613.679375 155.439126 
L 641.579375 169.626732 
L 669.479375 183.978145 
L 697.379375 199.213796 
L 725.279375 212.165554 
L 753.179375 225.259691 
" clip-path="url(#pff84283ad4)" style="fill: none; stroke: #98df8a; stroke-opacity: 0.8; stroke-width: 1.5; stroke-linecap: round"/>
   </g>
   <g id="line2d_81">
    <path d="M 111.479375 232.194337 
L 139.379375 242.073994 
L 167.279375 243.65765 
L 195.179375 242.569028 
L 223.079375 237.030072 
L 250.979375 217.167532 
L 278.879375 177.96969 
L 306.779375 142.54662 
L 334.679375 132.639324 
L 362.579375 129.274985 
L 390.479375 124.666296 
L 418.379375 118.858163 
L 446.279375 115.688266 
L 474.179375 113.299244 
L 502.079375 105.112214 
L 529.979375 100.476229 
L 557.879375 99.050126 
L 585.779375 112.571943 
L 613.679375 126.077989 
L 641.579375 145.101335 
L 669.479375 162.931831 
L 697.379375 182.570381 
L 725.279375 193.191851 
L 753.179375 210.278702 
" clip-path="url(#pff84283ad4)" style="fill: none; stroke: #e377c2; stroke-opacity: 0.8; stroke-width: 1.5; stroke-linecap: round"/>
   </g>
   <g id="line2d_82">
    <path d="M 111.479375 227.238799 
L 139.379375 236.775204 
L 167.279375 238.912718 
L 195.179375 237.094041 
L 223.079375 231.868631 
L 250.979375 209.420981 
L 278.879375 166.549172 
L 306.779375 128.466463 
L 334.679375 115.814229 
L 362.579375 112.523251 
L 390.479375 107.461821 
L 418.379375 105.002953 
L 446.279375 102.647068 
L 474.179375 100.305987 
L 502.079375 97.969774 
L 529.979375 96.572537 
L 557.879375 98.213625 
L 585.779375 104.87916 
L 613.679375 107.147554 
L 641.579375 123.229189 
L 669.479375 143.263067 
L 697.379375 163.958526 
L 725.279375 182.601891 
L 753.179375 202.725628 
" clip-path="url(#pff84283ad4)" style="fill: none; stroke: #1f77b4; stroke-opacity: 0.8; stroke-width: 1.5; stroke-linecap: round"/>
   </g>
   <g id="line2d_83">
    <path d="M 111.479375 226.869564 
L 139.379375 236.521136 
L 167.279375 238.685767 
L 195.179375 236.6485 
L 223.079375 231.027767 
L 250.979375 211.107817 
L 278.879375 170.423688 
L 306.779375 133.186615 
L 334.679375 121.810048 
L 362.579375 116.796386 
L 390.479375 110.607221 
L 418.379375 108.256744 
L 446.279375 108.057129 
L 474.179375 105.870963 
L 502.079375 103.547087 
L 529.979375 100.76946 
L 557.879375 101.681318 
L 585.779375 109.570816 
L 613.679375 111.962586 
L 641.579375 126.499344 
L 669.479375 145.187061 
L 697.379375 165.360369 
L 725.279375 183.981769 
L 753.179375 202.648494 
" clip-path="url(#pff84283ad4)" style="fill: none; stroke: #f7b6d2; stroke-opacity: 0.8; stroke-width: 1.5; stroke-linecap: round"/>
   </g>
   <g id="line2d_84">
    <path d="M 111.479375 222.640503 
L 139.379375 233.169763 
L 167.279375 235.949826 
L 195.179375 234.536771 
L 223.079375 228.458378 
L 250.979375 206.492712 
L 278.879375 165.227789 
L 306.779375 124.186716 
L 334.679375 110.806752 
L 362.579375 104.913994 
L 390.479375 97.546793 
L 418.379375 95.740654 
L 446.279375 95.43222 
L 474.179375 95.219234 
L 502.079375 94.593156 
L 529.979375 94.812358 
L 557.879375 95.329516 
L 585.779375 100.465592 
L 613.679375 97.198639 
L 641.579375 112.312203 
L 669.479375 132.133745 
L 697.379375 155.640146 
L 725.279375 174.160711 
L 753.179375 195.860182 
" clip-path="url(#pff84283ad4)" style="fill: none; stroke: #ff9896; stroke-opacity: 0.8; stroke-width: 1.5; stroke-linecap: round"/>
   </g>
   <g id="line2d_85">
    <path d="M 111.479375 229.437042 
L 139.379375 238.084677 
L 167.279375 241.635187 
L 195.179375 238.77039 
L 223.079375 229.977015 
L 250.979375 204.374449 
L 278.879375 163.952371 
L 306.779375 135.036933 
L 334.679375 128.671956 
L 362.579375 123.082793 
L 390.479375 117.050017 
L 418.379375 104.777331 
L 446.279375 104.065678 
L 474.179375 101.764377 
L 502.079375 100.952072 
L 529.979375 101.040343 
L 557.879375 100.616789 
L 585.779375 110.759292 
L 613.679375 126.899078 
L 641.579375 143.134616 
L 669.479375 159.471157 
L 697.379375 175.594682 
L 725.279375 190.378275 
L 753.179375 206.359462 
" clip-path="url(#pff84283ad4)" style="fill: none; stroke: #ff7f0e; stroke-opacity: 0.8; stroke-width: 1.5; stroke-linecap: round"/>
   </g>
   <g id="line2d_86">
    <path d="M 111.479375 227.2654 
L 139.379375 236.53891 
L 167.279375 238.905859 
L 195.179375 238.028587 
L 223.079375 232.64558 
L 250.979375 212.928299 
L 278.879375 178.795916 
L 306.779375 138.561771 
L 334.679375 127.058112 
L 362.579375 121.467345 
L 390.479375 116.36918 
L 418.379375 111.387588 
L 446.279375 108.728935 
L 474.179375 107.385855 
L 502.079375 105.390709 
L 529.979375 102.468393 
L 557.879375 102.808392 
L 585.779375 112.703871 
L 613.679375 117.498446 
L 641.579375 130.592425 
L 669.479375 147.045707 
L 697.379375 167.208686 
L 725.279375 179.916428 
L 753.179375 201.629203 
" clip-path="url(#pff84283ad4)" style="fill: none; stroke: #f7b6d2; stroke-opacity: 0.8; stroke-width: 1.5; stroke-linecap: round"/>
   </g>
   <g id="line2d_87">
    <path d="M 111.479375 231.46466 
L 139.379375 239.346793 
L 167.279375 241.595161 
L 195.179375 240.757137 
L 223.079375 235.317286 
L 250.979375 218.73137 
L 278.879375 188.186563 
L 306.779375 158.711931 
L 334.679375 145.293217 
L 362.579375 138.914649 
L 390.479375 134.736959 
L 418.379375 124.763993 
L 446.279375 120.032437 
L 474.179375 115.541568 
L 502.079375 113.868598 
L 529.979375 112.136473 
L 557.879375 114.81986 
L 585.779375 124.691772 
L 613.679375 135.766188 
L 641.579375 150.231307 
L 669.479375 165.866984 
L 697.379375 183.784237 
L 725.279375 197.578154 
L 753.179375 212.311168 
" clip-path="url(#pff84283ad4)" style="fill: none; stroke: #7f7f7f; stroke-opacity: 0.8; stroke-width: 1.5; stroke-linecap: round"/>
   </g>
   <g id="line2d_88">
    <path d="M 111.479375 223.539731 
L 139.379375 234.130423 
L 167.279375 236.99545 
L 195.179375 234.709433 
L 223.079375 226.256065 
L 250.979375 199.161468 
L 278.879375 154.821136 
L 306.779375 129.308077 
L 334.679375 124.446424 
L 362.579375 118.732261 
L 390.479375 112.844871 
L 418.379375 101.202895 
L 446.279375 99.103279 
L 474.179375 95.938702 
L 502.079375 95.303542 
L 529.979375 96.626519 
L 557.879375 99.09716 
L 585.779375 110.687404 
L 613.679375 120.118127 
L 641.579375 133.575669 
L 669.479375 149.647397 
L 697.379375 163.732631 
L 725.279375 178.041773 
L 753.179375 197.801917 
" clip-path="url(#pff84283ad4)" style="fill: none; stroke: #c7c7c7; stroke-opacity: 0.8; stroke-width: 1.5; stroke-linecap: round"/>
   </g>
   <g id="line2d_89">
    <path d="M 111.479375 226.003504 
L 139.379375 235.107206 
L 167.279375 237.692508 
L 195.179375 236.313107 
L 223.079375 230.711889 
L 250.979375 209.827006 
L 278.879375 175.359068 
L 306.779375 135.26509 
L 334.679375 123.131524 
L 362.579375 117.108895 
L 390.479375 112.578585 
L 418.379375 107.610808 
L 446.279375 106.875616 
L 474.179375 105.737056 
L 502.079375 106.180406 
L 529.979375 107.602082 
L 557.879375 109.227657 
L 585.779375 115.162986 
L 613.679375 118.965418 
L 641.579375 122.588794 
L 669.479375 143.265773 
L 697.379375 165.060046 
L 725.279375 182.72331 
L 753.179375 204.200064 
" clip-path="url(#pff84283ad4)" style="fill: none; stroke: #aec7e8; stroke-opacity: 0.8; stroke-width: 1.5; stroke-linecap: round"/>
   </g>
   <g id="line2d_90">
    <path d="M 111.479375 227.902005 
L 139.379375 237.37455 
L 167.279375 239.751213 
L 195.179375 239.389004 
L 223.079375 234.703936 
L 250.979375 216.489886 
L 278.879375 185.748738 
L 306.779375 145.838304 
L 334.679375 133.258191 
L 362.579375 127.15453 
L 390.479375 120.924231 
L 418.379375 114.018769 
L 446.279375 110.795516 
L 474.179375 106.840013 
L 502.079375 104.388497 
L 529.979375 101.992717 
L 557.879375 103.882088 
L 585.779375 113.14692 
L 613.679375 122.37215 
L 641.579375 133.997551 
L 669.479375 152.304066 
L 697.379375 172.55479 
L 725.279375 188.914259 
L 753.179375 206.810173 
" clip-path="url(#pff84283ad4)" style="fill: none; stroke: #d62728; stroke-opacity: 0.8; stroke-width: 1.5; stroke-linecap: round"/>
   </g>
   <g id="line2d_91">
    <path d="M 111.479375 231.059298 
L 139.379375 238.431068 
L 167.279375 239.762688 
L 195.179375 240.58011 
L 223.079375 234.945021 
L 250.979375 218.963944 
L 278.879375 189.47214 
L 306.779375 155.299186 
L 334.679375 147.448404 
L 362.579375 144.819625 
L 390.479375 141.54601 
L 418.379375 130.865059 
L 446.279375 124.862089 
L 474.179375 120.300044 
L 502.079375 119.646476 
L 529.979375 120.55682 
L 557.879375 122.865936 
L 585.779375 133.017114 
L 613.679375 143.347309 
L 641.579375 155.157548 
L 669.479375 170.423906 
L 697.379375 186.35224 
L 725.279375 198.7372 
L 753.179375 213.296734 
" clip-path="url(#pff84283ad4)" style="fill: none; stroke: #9edae5; stroke-opacity: 0.8; stroke-width: 1.5; stroke-linecap: round"/>
   </g>
   <g id="line2d_92">
    <path d="M 111.479375 228.627873 
L 139.379375 238.201562 
L 167.279375 239.989457 
L 195.179375 239.306335 
L 223.079375 233.376578 
L 250.979375 212.349297 
L 278.879375 167.728958 
L 306.779375 133.844118 
L 334.679375 124.141583 
L 362.579375 121.56407 
L 390.479375 122.366329 
L 418.379375 113.964192 
L 446.279375 115.300393 
L 474.179375 112.348494 
L 502.079375 110.459687 
L 529.979375 107.830562 
L 557.879375 111.221362 
L 585.779375 120.46942 
L 613.679375 121.105125 
L 641.579375 134.677772 
L 669.479375 151.477473 
L 697.379375 168.622399 
L 725.279375 187.019246 
L 753.179375 206.174822 
" clip-path="url(#pff84283ad4)" style="fill: none; stroke: #bcbd22; stroke-opacity: 0.8; stroke-width: 1.5; stroke-linecap: round"/>
   </g>
   <g id="line2d_93">
    <path d="M 111.479375 229.555393 
L 139.379375 238.057895 
L 167.279375 240.059092 
L 195.179375 238.980132 
L 223.079375 233.988496 
L 250.979375 212.181537 
L 278.879375 171.541383 
L 306.779375 136.927286 
L 334.679375 124.842425 
L 362.579375 121.349922 
L 390.479375 117.172958 
L 418.379375 112.653181 
L 446.279375 110.698816 
L 474.179375 108.349126 
L 502.079375 106.777897 
L 529.979375 105.981694 
L 557.879375 109.782697 
L 585.779375 115.503056 
L 613.679375 120.596531 
L 641.579375 138.974463 
L 669.479375 157.110379 
L 697.379375 174.156422 
L 725.279375 190.576912 
L 753.179375 209.105566 
" clip-path="url(#pff84283ad4)" style="fill: none; stroke: #1f77b4; stroke-opacity: 0.8; stroke-width: 1.5; stroke-linecap: round"/>
   </g>
   <g id="line2d_94">
    <path d="M 111.479375 220.567731 
L 139.379375 232.183429 
L 167.279375 235.380955 
L 195.179375 234.181978 
L 223.079375 228.74542 
L 250.979375 205.659463 
L 278.879375 165.682713 
L 306.779375 125.360011 
L 334.679375 115.465484 
L 362.579375 112.053992 
L 390.479375 107.884113 
L 418.379375 102.757432 
L 446.279375 102.746946 
L 474.179375 101.337633 
L 502.079375 100.811022 
L 529.979375 99.181038 
L 557.879375 99.619698 
L 585.779375 108.897283 
L 613.679375 109.622684 
L 641.579375 122.255521 
L 669.479375 138.062861 
L 697.379375 156.975216 
L 725.279375 174.345564 
L 753.179375 193.769217 
" clip-path="url(#pff84283ad4)" style="fill: none; stroke: #dbdb8d; stroke-opacity: 0.8; stroke-width: 1.5; stroke-linecap: round"/>
   </g>
   <g id="line2d_95">
    <path d="M 111.479375 229.033007 
L 139.379375 239.286281 
L 167.279375 241.807088 
L 195.179375 240.650711 
L 223.079375 235.081359 
L 250.979375 220.787211 
L 278.879375 187.180905 
L 306.779375 153.771665 
L 334.679375 145.0887 
L 362.579375 143.415821 
L 390.479375 140.669958 
L 418.379375 131.077036 
L 446.279375 128.953044 
L 474.179375 125.692274 
L 502.079375 124.221222 
L 529.979375 122.296921 
L 557.879375 122.930955 
L 585.779375 131.672828 
L 613.679375 144.643477 
L 641.579375 149.879928 
L 669.479375 161.674173 
L 697.379375 175.434903 
L 725.279375 189.627619 
L 753.179375 206.38506 
" clip-path="url(#pff84283ad4)" style="fill: none; stroke: #2ca02c; stroke-opacity: 0.8; stroke-width: 1.5; stroke-linecap: round"/>
   </g>
   <g id="line2d_96">
    <path d="M 111.479375 216.307131 
L 139.379375 229.010755 
L 167.279375 232.659475 
L 195.179375 231.974811 
L 223.079375 224.672871 
L 250.979375 201.465641 
L 278.879375 158.486883 
L 306.779375 118.825896 
L 334.679375 111.437372 
L 362.579375 109.00349 
L 390.479375 109.559505 
L 418.379375 99.66739 
L 446.279375 98.502774 
L 474.179375 96.951692 
L 502.079375 94.829249 
L 529.979375 91.046375 
L 557.879375 89.616289 
L 585.779375 101.203489 
L 613.679375 111.507605 
L 641.579375 117.836171 
L 669.479375 132.119064 
L 697.379375 150.238606 
L 725.279375 164.480054 
L 753.179375 187.271203 
" clip-path="url(#pff84283ad4)" style="fill: none; stroke: #c7c7c7; stroke-opacity: 0.8; stroke-width: 1.5; stroke-linecap: round"/>
   </g>
   <g id="line2d_97">
    <path d="M 111.479375 222.404017 
L 139.379375 230.625961 
L 167.279375 232.27433 
L 195.179375 230.541277 
L 223.079375 223.344128 
L 250.979375 204.90071 
L 278.879375 162.406345 
L 306.779375 123.805973 
L 334.679375 118.325301 
L 362.579375 117.274701 
L 390.479375 117.911867 
L 418.379375 109.447891 
L 446.279375 110.163944 
L 474.179375 109.655636 
L 502.079375 109.648463 
L 529.979375 110.120294 
L 557.879375 112.136972 
L 585.779375 117.566129 
L 613.679375 117.810163 
L 641.579375 128.271363 
L 669.479375 144.418663 
L 697.379375 161.202692 
L 725.279375 175.96002 
L 753.179375 198.957062 
" clip-path="url(#pff84283ad4)" style="fill: none; stroke: #ffbb78; stroke-opacity: 0.8; stroke-width: 1.5; stroke-linecap: round"/>
   </g>
   <g id="line2d_98">
    <path d="M 111.479375 224.130921 
L 139.379375 234.253175 
L 167.279375 237.000735 
L 195.179375 236.06833 
L 223.079375 230.673235 
L 250.979375 209.996073 
L 278.879375 173.572558 
L 306.779375 133.655022 
L 334.679375 119.044665 
L 362.579375 112.195424 
L 390.479375 107.0148 
L 418.379375 101.890573 
L 446.279375 100.1527 
L 474.179375 98.817608 
L 502.079375 98.747786 
L 529.979375 99.374623 
L 557.879375 99.475079 
L 585.779375 107.117988 
L 613.679375 114.464827 
L 641.579375 115.44246 
L 669.479375 136.090426 
L 697.379375 159.890569 
L 725.279375 177.200674 
L 753.179375 198.334356 
" clip-path="url(#pff84283ad4)" style="fill: none; stroke: #dbdb8d; stroke-opacity: 0.8; stroke-width: 1.5; stroke-linecap: round"/>
   </g>
   <g id="line2d_99">
    <path d="M 111.479375 236.289962 
L 139.379375 242.640673 
L 167.279375 243.334798 
L 195.179375 241.850153 
L 223.079375 237.019641 
L 250.979375 223.028664 
L 278.879375 190.560654 
L 306.779375 160.216133 
L 334.679375 149.510205 
L 362.579375 145.754502 
L 390.479375 140.169062 
L 418.379375 130.759385 
L 446.279375 129.99468 
L 474.179375 125.217505 
L 502.079375 122.889027 
L 529.979375 122.908299 
L 557.879375 126.168458 
L 585.779375 136.972348 
L 613.679375 146.5093 
L 641.579375 159.878072 
L 669.479375 175.627203 
L 697.379375 189.144128 
L 725.279375 203.645187 
L 753.179375 219.214826 
" clip-path="url(#pff84283ad4)" style="fill: none; stroke: #17becf; stroke-opacity: 0.8; stroke-width: 1.5; stroke-linecap: round"/>
   </g>
   <g id="line2d_100">
    <path d="M 111.479375 227.787441 
L 139.379375 234.903362 
L 167.279375 236.337857 
L 195.179375 234.499545 
L 223.079375 228.666935 
L 250.979375 213.46355 
L 278.879375 176.548165 
L 306.779375 140.251161 
L 334.679375 131.797661 
L 362.579375 130.51271 
L 390.479375 132.087487 
L 418.379375 124.224675 
L 446.279375 125.189421 
L 474.179375 122.404581 
L 502.079375 121.69203 
L 529.979375 121.89867 
L 557.879375 126.731629 
L 585.779375 134.043625 
L 613.679375 130.71137 
L 641.579375 142.29396 
L 669.479375 158.611684 
L 697.379375 175.032433 
L 725.279375 190.155562 
L 753.179375 208.562441 
" clip-path="url(#pff84283ad4)" style="fill: none; stroke: #9edae5; stroke-opacity: 0.8; stroke-width: 1.5; stroke-linecap: round"/>
   </g>
   <g id="patch_3">
    <path d="M 97.529375 263.48625 
L 97.529375 41.72625 
" style="fill: none; stroke: #000000; stroke-linejoin: miter; stroke-linecap: square"/>
   </g>
   <g id="patch_4">
    <path d="M 767.129375 263.48625 
L 767.129375 41.72625 
" style="fill: none; stroke: #000000; stroke-linejoin: miter; stroke-linecap: square"/>
   </g>
   <g id="patch_5">
    <path d="M 97.529375 263.48625 
L 767.129375 263.48625 
" style="fill: none; stroke: #000000; stroke-linejoin: miter; stroke-linecap: square"/>
   </g>
   <g id="patch_6">
    <path d="M 97.529375 41.72625 
L 767.129375 41.72625 
" style="fill: none; stroke: #000000; stroke-linejoin: miter; stroke-linecap: square"/>
   </g>
  </g>
 </g>
 <defs>
  <clipPath id="pff84283ad4">
   <rect x="97.529375" y="41.72625" width="669.6" height="221.76"/>
  </clipPath>
 </defs>
</svg>
