<?xml version="1.0" encoding="utf-8" standalone="no"?>
<!DOCTYPE svg PUBLIC "-//W3C//DTD SVG 1.1//EN"
  "http://www.w3.org/Graphics/SVG/1.1/DTD/svg11.dtd">
<svg xmlns:xlink="http://www.w3.org/1999/xlink" width="789.786875pt" height="338.0125pt" viewBox="0 0 789.786875 338.0125" xmlns="http://www.w3.org/2000/svg" version="1.1">
 <metadata>
  <rdf:RDF xmlns:dc="http://purl.org/dc/elements/1.1/" xmlns:cc="http://creativecommons.org/ns#" xmlns:rdf="http://www.w3.org/1999/02/22-rdf-syntax-ns#">
   <cc:Work>
    <dc:type rdf:resource="http://purl.org/dc/dcmitype/StillImage"/>
    <dc:date>2025-10-27T21:11:56.398640</dc:date>
    <dc:format>image/svg+xml</dc:format>
    <dc:creator>
     <cc:Agent>
      <dc:title>Matplotlib v3.10.7, https://matplotlib.org/</dc:title>
     </cc:Agent>
    </dc:creator>
   </cc:Work>
  </rdf:RDF>
 </metadata>
 <defs>
  <style type="text/css">*{stroke-linejoin: round; stroke-linecap: butt}</style>
 </defs>
 <g id="figure_1">
  <g id="patch_1">
   <path d="M 0 338.0125 
L 789.786875 338.0125 
L 789.786875 0 
L 0 0 
L 0 338.0125 
z
" style="fill: none"/>
  </g>
  <g id="axes_1">
   <g id="patch_2">
    <path d="M 84.186875 263.48625 
L 753.786875 263.48625 
L 753.786875 41.72625 
L 84.186875 41.72625 
L 84.186875 263.48625 
z
" style="fill: none"/>
   </g>
   <g id="line2d_1">
    <path d="M 104.477784 263.48625 
L 104.477784 41.72625 
" clip-path="url(#p02479f1c14)" style="fill: none; stroke-dasharray: 0.74,0.32; stroke-dashoffset: 0; stroke: #a9a9a9; stroke-opacity: 0.5; stroke-width: 0.2"/>
   </g>
   <g id="line2d_2">
    <path d="M 124.768693 263.48625 
L 124.768693 41.72625 
" clip-path="url(#p02479f1c14)" style="fill: none; stroke-dasharray: 0.74,0.32; stroke-dashoffset: 0; stroke: #a9a9a9; stroke-opacity: 0.5; stroke-width: 0.2"/>
   </g>
   <g id="line2d_3">
    <path d="M 145.059602 263.48625 
L 145.059602 41.72625 
" clip-path="url(#p02479f1c14)" style="fill: none; stroke-dasharray: 0.74,0.32; stroke-dashoffset: 0; stroke: #a9a9a9; stroke-opacity: 0.5; stroke-width: 0.2"/>
   </g>
   <g id="line2d_4">
    <path d="M 165.350511 263.48625 
L 165.350511 41.72625 
" clip-path="url(#p02479f1c14)" style="fill: none; stroke-dasharray: 0.74,0.32; stroke-dashoffset: 0; stroke: #a9a9a9; stroke-opacity: 0.5; stroke-width: 0.2"/>
   </g>
   <g id="line2d_5">
    <path d="M 185.64142 263.48625 
L 185.64142 41.72625 
" clip-path="url(#p02479f1c14)" style="fill: none; stroke-dasharray: 0.74,0.32; stroke-dashoffset: 0; stroke: #a9a9a9; stroke-opacity: 0.5; stroke-width: 0.2"/>
   </g>
   <g id="line2d_6">
    <path d="M 205.93233 263.48625 
L 205.93233 41.72625 
" clip-path="url(#p02479f1c14)" style="fill: none; stroke-dasharray: 0.74,0.32; stroke-dashoffset: 0; stroke: #a9a9a9; stroke-opacity: 0.5; stroke-width: 0.2"/>
   </g>
   <g id="line2d_7">
    <path d="M 226.223239 263.48625 
L 226.223239 41.72625 
" clip-path="url(#p02479f1c14)" style="fill: none; stroke-dasharray: 0.74,0.32; stroke-dashoffset: 0; stroke: #a9a9a9; stroke-opacity: 0.5; stroke-width: 0.2"/>
   </g>
   <g id="line2d_8">
    <path d="M 246.514148 263.48625 
L 246.514148 41.72625 
" clip-path="url(#p02479f1c14)" style="fill: none; stroke-dasharray: 0.74,0.32; stroke-dashoffset: 0; stroke: #a9a9a9; stroke-opacity: 0.5; stroke-width: 0.2"/>
   </g>
   <g id="line2d_9">
    <path d="M 266.805057 263.48625 
L 266.805057 41.72625 
" clip-path="url(#p02479f1c14)" style="fill: none; stroke-dasharray: 0.74,0.32; stroke-dashoffset: 0; stroke: #a9a9a9; stroke-opacity: 0.5; stroke-width: 0.2"/>
   </g>
   <g id="line2d_10">
    <path d="M 287.095966 263.48625 
L 287.095966 41.72625 
" clip-path="url(#p02479f1c14)" style="fill: none; stroke-dasharray: 0.74,0.32; stroke-dashoffset: 0; stroke: #a9a9a9; stroke-opacity: 0.5; stroke-width: 0.2"/>
   </g>
   <g id="line2d_11">
    <path d="M 307.386875 263.48625 
L 307.386875 41.72625 
" clip-path="url(#p02479f1c14)" style="fill: none; stroke-dasharray: 0.74,0.32; stroke-dashoffset: 0; stroke: #a9a9a9; stroke-opacity: 0.5; stroke-width: 0.2"/>
   </g>
   <g id="line2d_12">
    <path d="M 327.677784 263.48625 
L 327.677784 41.72625 
" clip-path="url(#p02479f1c14)" style="fill: none; stroke-dasharray: 0.74,0.32; stroke-dashoffset: 0; stroke: #a9a9a9; stroke-opacity: 0.5; stroke-width: 0.2"/>
   </g>
   <g id="line2d_13">
    <path d="M 347.968693 263.48625 
L 347.968693 41.72625 
" clip-path="url(#p02479f1c14)" style="fill: none; stroke-dasharray: 0.74,0.32; stroke-dashoffset: 0; stroke: #a9a9a9; stroke-opacity: 0.5; stroke-width: 0.2"/>
   </g>
   <g id="line2d_14">
    <path d="M 368.259602 263.48625 
L 368.259602 41.72625 
" clip-path="url(#p02479f1c14)" style="fill: none; stroke-dasharray: 0.74,0.32; stroke-dashoffset: 0; stroke: #a9a9a9; stroke-opacity: 0.5; stroke-width: 0.2"/>
   </g>
   <g id="line2d_15">
    <path d="M 388.550511 263.48625 
L 388.550511 41.72625 
" clip-path="url(#p02479f1c14)" style="fill: none; stroke-dasharray: 0.74,0.32; stroke-dashoffset: 0; stroke: #a9a9a9; stroke-opacity: 0.5; stroke-width: 0.2"/>
   </g>
   <g id="line2d_16">
    <path d="M 408.84142 263.48625 
L 408.84142 41.72625 
" clip-path="url(#p02479f1c14)" style="fill: none; stroke-dasharray: 0.74,0.32; stroke-dashoffset: 0; stroke: #a9a9a9; stroke-opacity: 0.5; stroke-width: 0.2"/>
   </g>
   <g id="line2d_17">
    <path d="M 429.13233 263.48625 
L 429.13233 41.72625 
" clip-path="url(#p02479f1c14)" style="fill: none; stroke-dasharray: 0.74,0.32; stroke-dashoffset: 0; stroke: #a9a9a9; stroke-opacity: 0.5; stroke-width: 0.2"/>
   </g>
   <g id="line2d_18">
    <path d="M 449.423239 263.48625 
L 449.423239 41.72625 
" clip-path="url(#p02479f1c14)" style="fill: none; stroke-dasharray: 0.74,0.32; stroke-dashoffset: 0; stroke: #a9a9a9; stroke-opacity: 0.5; stroke-width: 0.2"/>
   </g>
   <g id="line2d_19">
    <path d="M 469.714148 263.48625 
L 469.714148 41.72625 
" clip-path="url(#p02479f1c14)" style="fill: none; stroke-dasharray: 0.74,0.32; stroke-dashoffset: 0; stroke: #a9a9a9; stroke-opacity: 0.5; stroke-width: 0.2"/>
   </g>
   <g id="line2d_20">
    <path d="M 490.005057 263.48625 
L 490.005057 41.72625 
" clip-path="url(#p02479f1c14)" style="fill: none; stroke-dasharray: 0.74,0.32; stroke-dashoffset: 0; stroke: #a9a9a9; stroke-opacity: 0.5; stroke-width: 0.2"/>
   </g>
   <g id="line2d_21">
    <path d="M 510.295966 263.48625 
L 510.295966 41.72625 
" clip-path="url(#p02479f1c14)" style="fill: none; stroke-dasharray: 0.74,0.32; stroke-dashoffset: 0; stroke: #a9a9a9; stroke-opacity: 0.5; stroke-width: 0.2"/>
   </g>
   <g id="line2d_22">
    <path d="M 530.586875 263.48625 
L 530.586875 41.72625 
" clip-path="url(#p02479f1c14)" style="fill: none; stroke-dasharray: 0.74,0.32; stroke-dashoffset: 0; stroke: #a9a9a9; stroke-opacity: 0.5; stroke-width: 0.2"/>
   </g>
   <g id="line2d_23">
    <path d="M 550.877784 263.48625 
L 550.877784 41.72625 
" clip-path="url(#p02479f1c14)" style="fill: none; stroke-dasharray: 0.74,0.32; stroke-dashoffset: 0; stroke: #a9a9a9; stroke-opacity: 0.5; stroke-width: 0.2"/>
   </g>
   <g id="line2d_24">
    <path d="M 571.168693 263.48625 
L 571.168693 41.72625 
" clip-path="url(#p02479f1c14)" style="fill: none; stroke-dasharray: 0.74,0.32; stroke-dashoffset: 0; stroke: #a9a9a9; stroke-opacity: 0.5; stroke-width: 0.2"/>
   </g>
   <g id="line2d_25">
    <path d="M 591.459602 263.48625 
L 591.459602 41.72625 
" clip-path="url(#p02479f1c14)" style="fill: none; stroke-dasharray: 0.74,0.32; stroke-dashoffset: 0; stroke: #a9a9a9; stroke-opacity: 0.5; stroke-width: 0.2"/>
   </g>
   <g id="line2d_26">
    <path d="M 611.750511 263.48625 
L 611.750511 41.72625 
" clip-path="url(#p02479f1c14)" style="fill: none; stroke-dasharray: 0.74,0.32; stroke-dashoffset: 0; stroke: #a9a9a9; stroke-opacity: 0.5; stroke-width: 0.2"/>
   </g>
   <g id="line2d_27">
    <path d="M 632.04142 263.48625 
L 632.04142 41.72625 
" clip-path="url(#p02479f1c14)" style="fill: none; stroke-dasharray: 0.74,0.32; stroke-dashoffset: 0; stroke: #a9a9a9; stroke-opacity: 0.5; stroke-width: 0.2"/>
   </g>
   <g id="line2d_28">
    <path d="M 652.33233 263.48625 
L 652.33233 41.72625 
" clip-path="url(#p02479f1c14)" style="fill: none; stroke-dasharray: 0.74,0.32; stroke-dashoffset: 0; stroke: #a9a9a9; stroke-opacity: 0.5; stroke-width: 0.2"/>
   </g>
   <g id="line2d_29">
    <path d="M 672.623239 263.48625 
L 672.623239 41.72625 
" clip-path="url(#p02479f1c14)" style="fill: none; stroke-dasharray: 0.74,0.32; stroke-dashoffset: 0; stroke: #a9a9a9; stroke-opacity: 0.5; stroke-width: 0.2"/>
   </g>
   <g id="line2d_30">
    <path d="M 692.914148 263.48625 
L 692.914148 41.72625 
" clip-path="url(#p02479f1c14)" style="fill: none; stroke-dasharray: 0.74,0.32; stroke-dashoffset: 0; stroke: #a9a9a9; stroke-opacity: 0.5; stroke-width: 0.2"/>
   </g>
   <g id="line2d_31">
    <path d="M 713.205057 263.48625 
L 713.205057 41.72625 
" clip-path="url(#p02479f1c14)" style="fill: none; stroke-dasharray: 0.74,0.32; stroke-dashoffset: 0; stroke: #a9a9a9; stroke-opacity: 0.5; stroke-width: 0.2"/>
   </g>
   <g id="line2d_32">
    <path d="M 733.495966 263.48625 
L 733.495966 41.72625 
" clip-path="url(#p02479f1c14)" style="fill: none; stroke-dasharray: 0.74,0.32; stroke-dashoffset: 0; stroke: #a9a9a9; stroke-opacity: 0.5; stroke-width: 0.2"/>
   </g>
   <g id="line2d_33">
    <path d="M 84.186875 241.31025 
L 753.786875 241.31025 
" clip-path="url(#p02479f1c14)" style="fill: none; stroke-dasharray: 0.74,0.32; stroke-dashoffset: 0; stroke: #a9a9a9; stroke-opacity: 0.5; stroke-width: 0.2"/>
   </g>
   <g id="line2d_34">
    <path d="M 84.186875 219.13425 
L 753.786875 219.13425 
" clip-path="url(#p02479f1c14)" style="fill: none; stroke-dasharray: 0.74,0.32; stroke-dashoffset: 0; stroke: #a9a9a9; stroke-opacity: 0.5; stroke-width: 0.2"/>
   </g>
   <g id="line2d_35">
    <path d="M 84.186875 196.95825 
L 753.786875 196.95825 
" clip-path="url(#p02479f1c14)" style="fill: none; stroke-dasharray: 0.74,0.32; stroke-dashoffset: 0; stroke: #a9a9a9; stroke-opacity: 0.5; stroke-width: 0.2"/>
   </g>
   <g id="line2d_36">
    <path d="M 84.186875 174.78225 
L 753.786875 174.78225 
" clip-path="url(#p02479f1c14)" style="fill: none; stroke-dasharray: 0.74,0.32; stroke-dashoffset: 0; stroke: #a9a9a9; stroke-opacity: 0.5; stroke-width: 0.2"/>
   </g>
   <g id="line2d_37">
    <path d="M 84.186875 152.60625 
L 753.786875 152.60625 
" clip-path="url(#p02479f1c14)" style="fill: none; stroke-dasharray: 0.74,0.32; stroke-dashoffset: 0; stroke: #a9a9a9; stroke-opacity: 0.5; stroke-width: 0.2"/>
   </g>
   <g id="line2d_38">
    <path d="M 84.186875 130.43025 
L 753.786875 130.43025 
" clip-path="url(#p02479f1c14)" style="fill: none; stroke-dasharray: 0.74,0.32; stroke-dashoffset: 0; stroke: #a9a9a9; stroke-opacity: 0.5; stroke-width: 0.2"/>
   </g>
   <g id="line2d_39">
    <path d="M 84.186875 108.25425 
L 753.786875 108.25425 
" clip-path="url(#p02479f1c14)" style="fill: none; stroke-dasharray: 0.74,0.32; stroke-dashoffset: 0; stroke: #a9a9a9; stroke-opacity: 0.5; stroke-width: 0.2"/>
   </g>
   <g id="line2d_40">
    <path d="M 84.186875 86.07825 
L 753.786875 86.07825 
" clip-path="url(#p02479f1c14)" style="fill: none; stroke-dasharray: 0.74,0.32; stroke-dashoffset: 0; stroke: #a9a9a9; stroke-opacity: 0.5; stroke-width: 0.2"/>
   </g>
   <g id="line2d_41">
    <path d="M 84.186875 63.90225 
L 753.786875 63.90225 
" clip-path="url(#p02479f1c14)" style="fill: none; stroke-dasharray: 0.74,0.32; stroke-dashoffset: 0; stroke: #a9a9a9; stroke-opacity: 0.5; stroke-width: 0.2"/>
   </g>
   <g id="matplotlib.axis_1">
    <g id="xtick_1">
     <g id="line2d_42">
      <defs>
       <path id="m878c342929" d="M 0 0 
L 0 5 
" style="stroke: #000000"/>
      </defs>
      <g>
       <use xlink:href="#m878c342929" x="98.136875" y="263.48625" style="stroke: #000000"/>
      </g>
     </g>
     <g id="text_1">
      <!-- 1:00 -->
      <g transform="translate(101.239063 295.339375) rotate(-90) scale(0.12 -0.12)">
       <defs>
        <path id="ArialMT-31" d="M 2384 0 
L 1822 0 
L 1822 3584 
Q 1619 3391 1289 3197 
Q 959 3003 697 2906 
L 697 3450 
Q 1169 3672 1522 3987 
Q 1875 4303 2022 4600 
L 2384 4600 
L 2384 0 
z
" transform="scale(0.015625)"/>
        <path id="ArialMT-3a" d="M 578 2678 
L 578 3319 
L 1219 3319 
L 1219 2678 
L 578 2678 
z
M 578 0 
L 578 641 
L 1219 641 
L 1219 0 
L 578 0 
z
" transform="scale(0.015625)"/>
        <path id="ArialMT-30" d="M 266 2259 
Q 266 3072 433 3567 
Q 600 4063 929 4331 
Q 1259 4600 1759 4600 
Q 2128 4600 2406 4451 
Q 2684 4303 2865 4023 
Q 3047 3744 3150 3342 
Q 3253 2941 3253 2259 
Q 3253 1453 3087 958 
Q 2922 463 2592 192 
Q 2263 -78 1759 -78 
Q 1097 -78 719 397 
Q 266 969 266 2259 
z
M 844 2259 
Q 844 1131 1108 757 
Q 1372 384 1759 384 
Q 2147 384 2411 759 
Q 2675 1134 2675 2259 
Q 2675 3391 2411 3762 
Q 2147 4134 1753 4134 
Q 1366 4134 1134 3806 
Q 844 3388 844 2259 
z
" transform="scale(0.015625)"/>
       </defs>
       <use xlink:href="#ArialMT-31"/>
       <use xlink:href="#ArialMT-3a" transform="translate(55.615234 0)"/>
       <use xlink:href="#ArialMT-30" transform="translate(83.398438 0)"/>
       <use xlink:href="#ArialMT-30" transform="translate(139.013672 0)"/>
      </g>
     </g>
    </g>
    <g id="xtick_2">
     <g id="line2d_43">
      <g>
       <use xlink:href="#m878c342929" x="126.036875" y="263.48625" style="stroke: #000000"/>
      </g>
     </g>
     <g id="text_2">
      <!-- 2:00 -->
      <g transform="translate(129.139063 295.339375) rotate(-90) scale(0.12 -0.12)">
       <defs>
        <path id="ArialMT-32" d="M 3222 541 
L 3222 0 
L 194 0 
Q 188 203 259 391 
Q 375 700 629 1000 
Q 884 1300 1366 1694 
Q 2113 2306 2375 2664 
Q 2638 3022 2638 3341 
Q 2638 3675 2398 3904 
Q 2159 4134 1775 4134 
Q 1369 4134 1125 3890 
Q 881 3647 878 3216 
L 300 3275 
Q 359 3922 746 4261 
Q 1134 4600 1788 4600 
Q 2447 4600 2831 4234 
Q 3216 3869 3216 3328 
Q 3216 3053 3103 2787 
Q 2991 2522 2730 2228 
Q 2469 1934 1863 1422 
Q 1356 997 1212 845 
Q 1069 694 975 541 
L 3222 541 
z
" transform="scale(0.015625)"/>
       </defs>
       <use xlink:href="#ArialMT-32"/>
       <use xlink:href="#ArialMT-3a" transform="translate(55.615234 0)"/>
       <use xlink:href="#ArialMT-30" transform="translate(83.398438 0)"/>
       <use xlink:href="#ArialMT-30" transform="translate(139.013672 0)"/>
      </g>
     </g>
    </g>
    <g id="xtick_3">
     <g id="line2d_44">
      <g>
       <use xlink:href="#m878c342929" x="153.936875" y="263.48625" style="stroke: #000000"/>
      </g>
     </g>
     <g id="text_3">
      <!-- 3:00 -->
      <g transform="translate(157.039062 295.339375) rotate(-90) scale(0.12 -0.12)">
       <defs>
        <path id="ArialMT-33" d="M 269 1209 
L 831 1284 
Q 928 806 1161 595 
Q 1394 384 1728 384 
Q 2125 384 2398 659 
Q 2672 934 2672 1341 
Q 2672 1728 2419 1979 
Q 2166 2231 1775 2231 
Q 1616 2231 1378 2169 
L 1441 2663 
Q 1497 2656 1531 2656 
Q 1891 2656 2178 2843 
Q 2466 3031 2466 3422 
Q 2466 3731 2256 3934 
Q 2047 4138 1716 4138 
Q 1388 4138 1169 3931 
Q 950 3725 888 3313 
L 325 3413 
Q 428 3978 793 4289 
Q 1159 4600 1703 4600 
Q 2078 4600 2393 4439 
Q 2709 4278 2876 4000 
Q 3044 3722 3044 3409 
Q 3044 3113 2884 2869 
Q 2725 2625 2413 2481 
Q 2819 2388 3044 2092 
Q 3269 1797 3269 1353 
Q 3269 753 2831 336 
Q 2394 -81 1725 -81 
Q 1122 -81 723 278 
Q 325 638 269 1209 
z
" transform="scale(0.015625)"/>
       </defs>
       <use xlink:href="#ArialMT-33"/>
       <use xlink:href="#ArialMT-3a" transform="translate(55.615234 0)"/>
       <use xlink:href="#ArialMT-30" transform="translate(83.398438 0)"/>
       <use xlink:href="#ArialMT-30" transform="translate(139.013672 0)"/>
      </g>
     </g>
    </g>
    <g id="xtick_4">
     <g id="line2d_45">
      <g>
       <use xlink:href="#m878c342929" x="181.836875" y="263.48625" style="stroke: #000000"/>
      </g>
     </g>
     <g id="text_4">
      <!-- 4:00 -->
      <g transform="translate(184.939062 295.339375) rotate(-90) scale(0.12 -0.12)">
       <defs>
        <path id="ArialMT-34" d="M 2069 0 
L 2069 1097 
L 81 1097 
L 81 1613 
L 2172 4581 
L 2631 4581 
L 2631 1613 
L 3250 1613 
L 3250 1097 
L 2631 1097 
L 2631 0 
L 2069 0 
z
M 2069 1613 
L 2069 3678 
L 634 1613 
L 2069 1613 
z
" transform="scale(0.015625)"/>
       </defs>
       <use xlink:href="#ArialMT-34"/>
       <use xlink:href="#ArialMT-3a" transform="translate(55.615234 0)"/>
       <use xlink:href="#ArialMT-30" transform="translate(83.398438 0)"/>
       <use xlink:href="#ArialMT-30" transform="translate(139.013672 0)"/>
      </g>
     </g>
    </g>
    <g id="xtick_5">
     <g id="line2d_46">
      <g>
       <use xlink:href="#m878c342929" x="209.736875" y="263.48625" style="stroke: #000000"/>
      </g>
     </g>
     <g id="text_5">
      <!-- 5:00 -->
      <g transform="translate(212.839063 295.339375) rotate(-90) scale(0.12 -0.12)">
       <defs>
        <path id="ArialMT-35" d="M 266 1200 
L 856 1250 
Q 922 819 1161 601 
Q 1400 384 1738 384 
Q 2144 384 2425 690 
Q 2706 997 2706 1503 
Q 2706 1984 2436 2262 
Q 2166 2541 1728 2541 
Q 1456 2541 1237 2417 
Q 1019 2294 894 2097 
L 366 2166 
L 809 4519 
L 3088 4519 
L 3088 3981 
L 1259 3981 
L 1013 2750 
Q 1425 3038 1878 3038 
Q 2478 3038 2890 2622 
Q 3303 2206 3303 1553 
Q 3303 931 2941 478 
Q 2500 -78 1738 -78 
Q 1113 -78 717 272 
Q 322 622 266 1200 
z
" transform="scale(0.015625)"/>
       </defs>
       <use xlink:href="#ArialMT-35"/>
       <use xlink:href="#ArialMT-3a" transform="translate(55.615234 0)"/>
       <use xlink:href="#ArialMT-30" transform="translate(83.398438 0)"/>
       <use xlink:href="#ArialMT-30" transform="translate(139.013672 0)"/>
      </g>
     </g>
    </g>
    <g id="xtick_6">
     <g id="line2d_47">
      <g>
       <use xlink:href="#m878c342929" x="237.636875" y="263.48625" style="stroke: #000000"/>
      </g>
     </g>
     <g id="text_6">
      <!-- 6:00 -->
      <g transform="translate(240.739062 295.339375) rotate(-90) scale(0.12 -0.12)">
       <defs>
        <path id="ArialMT-36" d="M 3184 3459 
L 2625 3416 
Q 2550 3747 2413 3897 
Q 2184 4138 1850 4138 
Q 1581 4138 1378 3988 
Q 1113 3794 959 3422 
Q 806 3050 800 2363 
Q 1003 2672 1297 2822 
Q 1591 2972 1913 2972 
Q 2475 2972 2870 2558 
Q 3266 2144 3266 1488 
Q 3266 1056 3080 686 
Q 2894 316 2569 119 
Q 2244 -78 1831 -78 
Q 1128 -78 684 439 
Q 241 956 241 2144 
Q 241 3472 731 4075 
Q 1159 4600 1884 4600 
Q 2425 4600 2770 4297 
Q 3116 3994 3184 3459 
z
M 888 1484 
Q 888 1194 1011 928 
Q 1134 663 1356 523 
Q 1578 384 1822 384 
Q 2178 384 2434 671 
Q 2691 959 2691 1453 
Q 2691 1928 2437 2201 
Q 2184 2475 1800 2475 
Q 1419 2475 1153 2201 
Q 888 1928 888 1484 
z
" transform="scale(0.015625)"/>
       </defs>
       <use xlink:href="#ArialMT-36"/>
       <use xlink:href="#ArialMT-3a" transform="translate(55.615234 0)"/>
       <use xlink:href="#ArialMT-30" transform="translate(83.398438 0)"/>
       <use xlink:href="#ArialMT-30" transform="translate(139.013672 0)"/>
      </g>
     </g>
    </g>
    <g id="xtick_7">
     <g id="line2d_48">
      <g>
       <use xlink:href="#m878c342929" x="265.536875" y="263.48625" style="stroke: #000000"/>
      </g>
     </g>
     <g id="text_7">
      <!-- 7:00 -->
      <g transform="translate(268.639063 295.339375) rotate(-90) scale(0.12 -0.12)">
       <defs>
        <path id="ArialMT-37" d="M 303 3981 
L 303 4522 
L 3269 4522 
L 3269 4084 
Q 2831 3619 2401 2847 
Q 1972 2075 1738 1259 
Q 1569 684 1522 0 
L 944 0 
Q 953 541 1156 1306 
Q 1359 2072 1739 2783 
Q 2119 3494 2547 3981 
L 303 3981 
z
" transform="scale(0.015625)"/>
       </defs>
       <use xlink:href="#ArialMT-37"/>
       <use xlink:href="#ArialMT-3a" transform="translate(55.615234 0)"/>
       <use xlink:href="#ArialMT-30" transform="translate(83.398438 0)"/>
       <use xlink:href="#ArialMT-30" transform="translate(139.013672 0)"/>
      </g>
     </g>
    </g>
    <g id="xtick_8">
     <g id="line2d_49">
      <g>
       <use xlink:href="#m878c342929" x="293.436875" y="263.48625" style="stroke: #000000"/>
      </g>
     </g>
     <g id="text_8">
      <!-- 8:00 -->
      <g transform="translate(296.539062 295.339375) rotate(-90) scale(0.12 -0.12)">
       <defs>
        <path id="ArialMT-38" d="M 1131 2484 
Q 781 2613 612 2850 
Q 444 3088 444 3419 
Q 444 3919 803 4259 
Q 1163 4600 1759 4600 
Q 2359 4600 2725 4251 
Q 3091 3903 3091 3403 
Q 3091 3084 2923 2848 
Q 2756 2613 2416 2484 
Q 2838 2347 3058 2040 
Q 3278 1734 3278 1309 
Q 3278 722 2862 322 
Q 2447 -78 1769 -78 
Q 1091 -78 675 323 
Q 259 725 259 1325 
Q 259 1772 486 2073 
Q 713 2375 1131 2484 
z
M 1019 3438 
Q 1019 3113 1228 2906 
Q 1438 2700 1772 2700 
Q 2097 2700 2305 2904 
Q 2513 3109 2513 3406 
Q 2513 3716 2298 3927 
Q 2084 4138 1766 4138 
Q 1444 4138 1231 3931 
Q 1019 3725 1019 3438 
z
M 838 1322 
Q 838 1081 952 856 
Q 1066 631 1291 507 
Q 1516 384 1775 384 
Q 2178 384 2440 643 
Q 2703 903 2703 1303 
Q 2703 1709 2433 1975 
Q 2163 2241 1756 2241 
Q 1359 2241 1098 1978 
Q 838 1716 838 1322 
z
" transform="scale(0.015625)"/>
       </defs>
       <use xlink:href="#ArialMT-38"/>
       <use xlink:href="#ArialMT-3a" transform="translate(55.615234 0)"/>
       <use xlink:href="#ArialMT-30" transform="translate(83.398438 0)"/>
       <use xlink:href="#ArialMT-30" transform="translate(139.013672 0)"/>
      </g>
     </g>
    </g>
    <g id="xtick_9">
     <g id="line2d_50">
      <g>
       <use xlink:href="#m878c342929" x="321.336875" y="263.48625" style="stroke: #000000"/>
      </g>
     </g>
     <g id="text_9">
      <!-- 9:00 -->
      <g transform="translate(324.439062 295.339375) rotate(-90) scale(0.12 -0.12)">
       <defs>
        <path id="ArialMT-39" d="M 350 1059 
L 891 1109 
Q 959 728 1153 556 
Q 1347 384 1650 384 
Q 1909 384 2104 503 
Q 2300 622 2425 820 
Q 2550 1019 2634 1356 
Q 2719 1694 2719 2044 
Q 2719 2081 2716 2156 
Q 2547 1888 2255 1720 
Q 1963 1553 1622 1553 
Q 1053 1553 659 1965 
Q 266 2378 266 3053 
Q 266 3750 677 4175 
Q 1088 4600 1706 4600 
Q 2153 4600 2523 4359 
Q 2894 4119 3086 3673 
Q 3278 3228 3278 2384 
Q 3278 1506 3087 986 
Q 2897 466 2520 194 
Q 2144 -78 1638 -78 
Q 1100 -78 759 220 
Q 419 519 350 1059 
z
M 2653 3081 
Q 2653 3566 2395 3850 
Q 2138 4134 1775 4134 
Q 1400 4134 1122 3828 
Q 844 3522 844 3034 
Q 844 2597 1108 2323 
Q 1372 2050 1759 2050 
Q 2150 2050 2401 2323 
Q 2653 2597 2653 3081 
z
" transform="scale(0.015625)"/>
       </defs>
       <use xlink:href="#ArialMT-39"/>
       <use xlink:href="#ArialMT-3a" transform="translate(55.615234 0)"/>
       <use xlink:href="#ArialMT-30" transform="translate(83.398438 0)"/>
       <use xlink:href="#ArialMT-30" transform="translate(139.013672 0)"/>
      </g>
     </g>
    </g>
    <g id="xtick_10">
     <g id="line2d_51">
      <g>
       <use xlink:href="#m878c342929" x="349.236875" y="263.48625" style="stroke: #000000"/>
      </g>
     </g>
     <g id="text_10">
      <!-- 10:00 -->
      <g transform="translate(352.339063 302.0125) rotate(-90) scale(0.12 -0.12)">
       <use xlink:href="#ArialMT-31"/>
       <use xlink:href="#ArialMT-30" transform="translate(55.615234 0)"/>
       <use xlink:href="#ArialMT-3a" transform="translate(111.230469 0)"/>
       <use xlink:href="#ArialMT-30" transform="translate(139.013672 0)"/>
       <use xlink:href="#ArialMT-30" transform="translate(194.628906 0)"/>
      </g>
     </g>
    </g>
    <g id="xtick_11">
     <g id="line2d_52">
      <g>
       <use xlink:href="#m878c342929" x="377.136875" y="263.48625" style="stroke: #000000"/>
      </g>
     </g>
     <g id="text_11">
      <!-- 11:00 -->
      <g transform="translate(380.239063 301.1275) rotate(-90) scale(0.12 -0.12)">
       <use xlink:href="#ArialMT-31"/>
       <use xlink:href="#ArialMT-31" transform="translate(48.240234 0)"/>
       <use xlink:href="#ArialMT-3a" transform="translate(103.855469 0)"/>
       <use xlink:href="#ArialMT-30" transform="translate(131.638672 0)"/>
       <use xlink:href="#ArialMT-30" transform="translate(187.253906 0)"/>
      </g>
     </g>
    </g>
    <g id="xtick_12">
     <g id="line2d_53">
      <g>
       <use xlink:href="#m878c342929" x="405.036875" y="263.48625" style="stroke: #000000"/>
      </g>
     </g>
     <g id="text_12">
      <!-- 12:00 -->
      <g transform="translate(408.139063 302.0125) rotate(-90) scale(0.12 -0.12)">
       <use xlink:href="#ArialMT-31"/>
       <use xlink:href="#ArialMT-32" transform="translate(55.615234 0)"/>
       <use xlink:href="#ArialMT-3a" transform="translate(111.230469 0)"/>
       <use xlink:href="#ArialMT-30" transform="translate(139.013672 0)"/>
       <use xlink:href="#ArialMT-30" transform="translate(194.628906 0)"/>
      </g>
     </g>
    </g>
    <g id="xtick_13">
     <g id="line2d_54">
      <g>
       <use xlink:href="#m878c342929" x="432.936875" y="263.48625" style="stroke: #000000"/>
      </g>
     </g>
     <g id="text_13">
      <!-- 13:00 -->
      <g transform="translate(436.039062 302.0125) rotate(-90) scale(0.12 -0.12)">
       <use xlink:href="#ArialMT-31"/>
       <use xlink:href="#ArialMT-33" transform="translate(55.615234 0)"/>
       <use xlink:href="#ArialMT-3a" transform="translate(111.230469 0)"/>
       <use xlink:href="#ArialMT-30" transform="translate(139.013672 0)"/>
       <use xlink:href="#ArialMT-30" transform="translate(194.628906 0)"/>
      </g>
     </g>
    </g>
    <g id="xtick_14">
     <g id="line2d_55">
      <g>
       <use xlink:href="#m878c342929" x="460.836875" y="263.48625" style="stroke: #000000"/>
      </g>
     </g>
     <g id="text_14">
      <!-- 14:00 -->
      <g transform="translate(463.939062 302.0125) rotate(-90) scale(0.12 -0.12)">
       <use xlink:href="#ArialMT-31"/>
       <use xlink:href="#ArialMT-34" transform="translate(55.615234 0)"/>
       <use xlink:href="#ArialMT-3a" transform="translate(111.230469 0)"/>
       <use xlink:href="#ArialMT-30" transform="translate(139.013672 0)"/>
       <use xlink:href="#ArialMT-30" transform="translate(194.628906 0)"/>
      </g>
     </g>
    </g>
    <g id="xtick_15">
     <g id="line2d_56">
      <g>
       <use xlink:href="#m878c342929" x="488.736875" y="263.48625" style="stroke: #000000"/>
      </g>
     </g>
     <g id="text_15">
      <!-- 15:00 -->
      <g transform="translate(491.839062 302.0125) rotate(-90) scale(0.12 -0.12)">
       <use xlink:href="#ArialMT-31"/>
       <use xlink:href="#ArialMT-35" transform="translate(55.615234 0)"/>
       <use xlink:href="#ArialMT-3a" transform="translate(111.230469 0)"/>
       <use xlink:href="#ArialMT-30" transform="translate(139.013672 0)"/>
       <use xlink:href="#ArialMT-30" transform="translate(194.628906 0)"/>
      </g>
     </g>
    </g>
    <g id="xtick_16">
     <g id="line2d_57">
      <g>
       <use xlink:href="#m878c342929" x="516.636875" y="263.48625" style="stroke: #000000"/>
      </g>
     </g>
     <g id="text_16">
      <!-- 16:00 -->
      <g transform="translate(519.739063 302.0125) rotate(-90) scale(0.12 -0.12)">
       <use xlink:href="#ArialMT-31"/>
       <use xlink:href="#ArialMT-36" transform="translate(55.615234 0)"/>
       <use xlink:href="#ArialMT-3a" transform="translate(111.230469 0)"/>
       <use xlink:href="#ArialMT-30" transform="translate(139.013672 0)"/>
       <use xlink:href="#ArialMT-30" transform="translate(194.628906 0)"/>
      </g>
     </g>
    </g>
    <g id="xtick_17">
     <g id="line2d_58">
      <g>
       <use xlink:href="#m878c342929" x="544.536875" y="263.48625" style="stroke: #000000"/>
      </g>
     </g>
     <g id="text_17">
      <!-- 17:00 -->
      <g transform="translate(547.639063 302.0125) rotate(-90) scale(0.12 -0.12)">
       <use xlink:href="#ArialMT-31"/>
       <use xlink:href="#ArialMT-37" transform="translate(55.615234 0)"/>
       <use xlink:href="#ArialMT-3a" transform="translate(111.230469 0)"/>
       <use xlink:href="#ArialMT-30" transform="translate(139.013672 0)"/>
       <use xlink:href="#ArialMT-30" transform="translate(194.628906 0)"/>
      </g>
     </g>
    </g>
    <g id="xtick_18">
     <g id="line2d_59">
      <g>
       <use xlink:href="#m878c342929" x="572.436875" y="263.48625" style="stroke: #000000"/>
      </g>
     </g>
     <g id="text_18">
      <!-- 18:00 -->
      <g transform="translate(575.539062 302.0125) rotate(-90) scale(0.12 -0.12)">
       <use xlink:href="#ArialMT-31"/>
       <use xlink:href="#ArialMT-38" transform="translate(55.615234 0)"/>
       <use xlink:href="#ArialMT-3a" transform="translate(111.230469 0)"/>
       <use xlink:href="#ArialMT-30" transform="translate(139.013672 0)"/>
       <use xlink:href="#ArialMT-30" transform="translate(194.628906 0)"/>
      </g>
     </g>
    </g>
    <g id="xtick_19">
     <g id="line2d_60">
      <g>
       <use xlink:href="#m878c342929" x="600.336875" y="263.48625" style="stroke: #000000"/>
      </g>
     </g>
     <g id="text_19">
      <!-- 19:00 -->
      <g transform="translate(603.439062 302.0125) rotate(-90) scale(0.12 -0.12)">
       <use xlink:href="#ArialMT-31"/>
       <use xlink:href="#ArialMT-39" transform="translate(55.615234 0)"/>
       <use xlink:href="#ArialMT-3a" transform="translate(111.230469 0)"/>
       <use xlink:href="#ArialMT-30" transform="translate(139.013672 0)"/>
       <use xlink:href="#ArialMT-30" transform="translate(194.628906 0)"/>
      </g>
     </g>
    </g>
    <g id="xtick_20">
     <g id="line2d_61">
      <g>
       <use xlink:href="#m878c342929" x="628.236875" y="263.48625" style="stroke: #000000"/>
      </g>
     </g>
     <g id="text_20">
      <!-- 20:00 -->
      <g transform="translate(631.339063 302.0125) rotate(-90) scale(0.12 -0.12)">
       <use xlink:href="#ArialMT-32"/>
       <use xlink:href="#ArialMT-30" transform="translate(55.615234 0)"/>
       <use xlink:href="#ArialMT-3a" transform="translate(111.230469 0)"/>
       <use xlink:href="#ArialMT-30" transform="translate(139.013672 0)"/>
       <use xlink:href="#ArialMT-30" transform="translate(194.628906 0)"/>
      </g>
     </g>
    </g>
    <g id="xtick_21">
     <g id="line2d_62">
      <g>
       <use xlink:href="#m878c342929" x="656.136875" y="263.48625" style="stroke: #000000"/>
      </g>
     </g>
     <g id="text_21">
      <!-- 21:00 -->
      <g transform="translate(659.239063 302.0125) rotate(-90) scale(0.12 -0.12)">
       <use xlink:href="#ArialMT-32"/>
       <use xlink:href="#ArialMT-31" transform="translate(55.615234 0)"/>
       <use xlink:href="#ArialMT-3a" transform="translate(111.230469 0)"/>
       <use xlink:href="#ArialMT-30" transform="translate(139.013672 0)"/>
       <use xlink:href="#ArialMT-30" transform="translate(194.628906 0)"/>
      </g>
     </g>
    </g>
    <g id="xtick_22">
     <g id="line2d_63">
      <g>
       <use xlink:href="#m878c342929" x="684.036875" y="263.48625" style="stroke: #000000"/>
      </g>
     </g>
     <g id="text_22">
      <!-- 22:00 -->
      <g transform="translate(687.139063 302.0125) rotate(-90) scale(0.12 -0.12)">
       <use xlink:href="#ArialMT-32"/>
       <use xlink:href="#ArialMT-32" transform="translate(55.615234 0)"/>
       <use xlink:href="#ArialMT-3a" transform="translate(111.230469 0)"/>
       <use xlink:href="#ArialMT-30" transform="translate(139.013672 0)"/>
       <use xlink:href="#ArialMT-30" transform="translate(194.628906 0)"/>
      </g>
     </g>
    </g>
    <g id="xtick_23">
     <g id="line2d_64">
      <g>
       <use xlink:href="#m878c342929" x="711.936875" y="263.48625" style="stroke: #000000"/>
      </g>
     </g>
     <g id="text_23">
      <!-- 23:00 -->
      <g transform="translate(715.039062 302.0125) rotate(-90) scale(0.12 -0.12)">
       <use xlink:href="#ArialMT-32"/>
       <use xlink:href="#ArialMT-33" transform="translate(55.615234 0)"/>
       <use xlink:href="#ArialMT-3a" transform="translate(111.230469 0)"/>
       <use xlink:href="#ArialMT-30" transform="translate(139.013672 0)"/>
       <use xlink:href="#ArialMT-30" transform="translate(194.628906 0)"/>
      </g>
     </g>
    </g>
    <g id="xtick_24">
     <g id="line2d_65">
      <g>
       <use xlink:href="#m878c342929" x="739.836875" y="263.48625" style="stroke: #000000"/>
      </g>
     </g>
     <g id="text_24">
      <!-- 24:00 -->
      <g transform="translate(742.939062 302.0125) rotate(-90) scale(0.12 -0.12)">
       <use xlink:href="#ArialMT-32"/>
       <use xlink:href="#ArialMT-34" transform="translate(55.615234 0)"/>
       <use xlink:href="#ArialMT-3a" transform="translate(111.230469 0)"/>
       <use xlink:href="#ArialMT-30" transform="translate(139.013672 0)"/>
       <use xlink:href="#ArialMT-30" transform="translate(194.628906 0)"/>
      </g>
     </g>
    </g>
   </g>
   <g id="matplotlib.axis_2">
    <g id="ytick_1">
     <g id="line2d_66">
      <defs>
       <path id="m9e7f946694" d="M 0 0 
L -5 0 
" style="stroke: #000000; stroke-opacity: 0; stroke-width: 1.5"/>
      </defs>
      <g>
       <use xlink:href="#m9e7f946694" x="84.186875" y="252.257896" style="fill-opacity: 0; stroke: #000000; stroke-opacity: 0; stroke-width: 1.5"/>
      </g>
     </g>
     <g id="text_25">
      <!-- 0 -->
      <g transform="translate(66.789375 257.984146) scale(0.16 -0.16)">
       <use xlink:href="#ArialMT-30"/>
      </g>
     </g>
    </g>
    <g id="ytick_2">
     <g id="line2d_67">
      <g>
       <use xlink:href="#m9e7f946694" x="84.186875" y="182.08068" style="fill-opacity: 0; stroke: #000000; stroke-opacity: 0; stroke-width: 1.5"/>
      </g>
     </g>
     <g id="text_26">
      <!-- 5 -->
      <g transform="translate(66.789375 187.80693) scale(0.16 -0.16)">
       <use xlink:href="#ArialMT-35"/>
      </g>
     </g>
    </g>
    <g id="ytick_3">
     <g id="line2d_68">
      <g>
       <use xlink:href="#m9e7f946694" x="84.186875" y="111.903465" style="fill-opacity: 0; stroke: #000000; stroke-opacity: 0; stroke-width: 1.5"/>
      </g>
     </g>
     <g id="text_27">
      <!-- 10 -->
      <g transform="translate(57.891875 117.629715) scale(0.16 -0.16)">
       <use xlink:href="#ArialMT-31"/>
       <use xlink:href="#ArialMT-30" transform="translate(55.615234 0)"/>
      </g>
     </g>
    </g>
    <g id="ytick_4">
     <g id="line2d_69">
      <g>
       <use xlink:href="#m9e7f946694" x="84.186875" y="41.72625" style="fill-opacity: 0; stroke: #000000; stroke-opacity: 0; stroke-width: 1.5"/>
      </g>
     </g>
     <g id="text_28">
      <!-- 15 -->
      <g transform="translate(57.891875 47.4525) scale(0.16 -0.16)">
       <use xlink:href="#ArialMT-31"/>
       <use xlink:href="#ArialMT-35" transform="translate(55.615234 0)"/>
      </g>
     </g>
    </g>
    <g id="text_29">
     <!-- Ethanol_E85 (Gallon) -->
     <g transform="translate(49.103437 238.654687) rotate(-90) scale(0.18 -0.18)">
      <defs>
       <path id="ArialMT-45" d="M 506 0 
L 506 4581 
L 3819 4581 
L 3819 4041 
L 1113 4041 
L 1113 2638 
L 3647 2638 
L 3647 2100 
L 1113 2100 
L 1113 541 
L 3925 541 
L 3925 0 
L 506 0 
z
" transform="scale(0.015625)"/>
       <path id="ArialMT-74" d="M 1650 503 
L 1731 6 
Q 1494 -44 1306 -44 
Q 1000 -44 831 53 
Q 663 150 594 308 
Q 525 466 525 972 
L 525 2881 
L 113 2881 
L 113 3319 
L 525 3319 
L 525 4141 
L 1084 4478 
L 1084 3319 
L 1650 3319 
L 1650 2881 
L 1084 2881 
L 1084 941 
Q 1084 700 1114 631 
Q 1144 563 1211 522 
Q 1278 481 1403 481 
Q 1497 481 1650 503 
z
" transform="scale(0.015625)"/>
       <path id="ArialMT-68" d="M 422 0 
L 422 4581 
L 984 4581 
L 984 2938 
Q 1378 3394 1978 3394 
Q 2347 3394 2619 3248 
Q 2891 3103 3008 2847 
Q 3125 2591 3125 2103 
L 3125 0 
L 2563 0 
L 2563 2103 
Q 2563 2525 2380 2717 
Q 2197 2909 1863 2909 
Q 1613 2909 1392 2779 
Q 1172 2650 1078 2428 
Q 984 2206 984 1816 
L 984 0 
L 422 0 
z
" transform="scale(0.015625)"/>
       <path id="ArialMT-61" d="M 2588 409 
Q 2275 144 1986 34 
Q 1697 -75 1366 -75 
Q 819 -75 525 192 
Q 231 459 231 875 
Q 231 1119 342 1320 
Q 453 1522 633 1644 
Q 813 1766 1038 1828 
Q 1203 1872 1538 1913 
Q 2219 1994 2541 2106 
Q 2544 2222 2544 2253 
Q 2544 2597 2384 2738 
Q 2169 2928 1744 2928 
Q 1347 2928 1158 2789 
Q 969 2650 878 2297 
L 328 2372 
Q 403 2725 575 2942 
Q 747 3159 1072 3276 
Q 1397 3394 1825 3394 
Q 2250 3394 2515 3294 
Q 2781 3194 2906 3042 
Q 3031 2891 3081 2659 
Q 3109 2516 3109 2141 
L 3109 1391 
Q 3109 606 3145 398 
Q 3181 191 3288 0 
L 2700 0 
Q 2613 175 2588 409 
z
M 2541 1666 
Q 2234 1541 1622 1453 
Q 1275 1403 1131 1340 
Q 988 1278 909 1158 
Q 831 1038 831 891 
Q 831 666 1001 516 
Q 1172 366 1500 366 
Q 1825 366 2078 508 
Q 2331 650 2450 897 
Q 2541 1088 2541 1459 
L 2541 1666 
z
" transform="scale(0.015625)"/>
       <path id="ArialMT-6e" d="M 422 0 
L 422 3319 
L 928 3319 
L 928 2847 
Q 1294 3394 1984 3394 
Q 2284 3394 2536 3286 
Q 2788 3178 2913 3003 
Q 3038 2828 3088 2588 
Q 3119 2431 3119 2041 
L 3119 0 
L 2556 0 
L 2556 2019 
Q 2556 2363 2490 2533 
Q 2425 2703 2258 2804 
Q 2091 2906 1866 2906 
Q 1506 2906 1245 2678 
Q 984 2450 984 1813 
L 984 0 
L 422 0 
z
" transform="scale(0.015625)"/>
       <path id="ArialMT-6f" d="M 213 1659 
Q 213 2581 725 3025 
Q 1153 3394 1769 3394 
Q 2453 3394 2887 2945 
Q 3322 2497 3322 1706 
Q 3322 1066 3130 698 
Q 2938 331 2570 128 
Q 2203 -75 1769 -75 
Q 1072 -75 642 372 
Q 213 819 213 1659 
z
M 791 1659 
Q 791 1022 1069 705 
Q 1347 388 1769 388 
Q 2188 388 2466 706 
Q 2744 1025 2744 1678 
Q 2744 2294 2464 2611 
Q 2184 2928 1769 2928 
Q 1347 2928 1069 2612 
Q 791 2297 791 1659 
z
" transform="scale(0.015625)"/>
       <path id="ArialMT-6c" d="M 409 0 
L 409 4581 
L 972 4581 
L 972 0 
L 409 0 
z
" transform="scale(0.015625)"/>
       <path id="ArialMT-5f" d="M -97 -1272 
L -97 -866 
L 3631 -866 
L 3631 -1272 
L -97 -1272 
z
" transform="scale(0.015625)"/>
       <path id="ArialMT-20" transform="scale(0.015625)"/>
       <path id="ArialMT-28" d="M 1497 -1347 
Q 1031 -759 709 28 
Q 388 816 388 1659 
Q 388 2403 628 3084 
Q 909 3875 1497 4659 
L 1900 4659 
Q 1522 4009 1400 3731 
Q 1209 3300 1100 2831 
Q 966 2247 966 1656 
Q 966 153 1900 -1347 
L 1497 -1347 
z
" transform="scale(0.015625)"/>
       <path id="ArialMT-47" d="M 2638 1797 
L 2638 2334 
L 4578 2338 
L 4578 638 
Q 4131 281 3656 101 
Q 3181 -78 2681 -78 
Q 2006 -78 1454 211 
Q 903 500 622 1047 
Q 341 1594 341 2269 
Q 341 2938 620 3517 
Q 900 4097 1425 4378 
Q 1950 4659 2634 4659 
Q 3131 4659 3532 4498 
Q 3934 4338 4162 4050 
Q 4391 3763 4509 3300 
L 3963 3150 
Q 3859 3500 3706 3700 
Q 3553 3900 3268 4020 
Q 2984 4141 2638 4141 
Q 2222 4141 1919 4014 
Q 1616 3888 1430 3681 
Q 1244 3475 1141 3228 
Q 966 2803 966 2306 
Q 966 1694 1177 1281 
Q 1388 869 1791 669 
Q 2194 469 2647 469 
Q 3041 469 3416 620 
Q 3791 772 3984 944 
L 3984 1797 
L 2638 1797 
z
" transform="scale(0.015625)"/>
       <path id="ArialMT-29" d="M 791 -1347 
L 388 -1347 
Q 1322 153 1322 1656 
Q 1322 2244 1188 2822 
Q 1081 3291 891 3722 
Q 769 4003 388 4659 
L 791 4659 
Q 1378 3875 1659 3084 
Q 1900 2403 1900 1659 
Q 1900 816 1576 28 
Q 1253 -759 791 -1347 
z
" transform="scale(0.015625)"/>
      </defs>
      <use xlink:href="#ArialMT-45"/>
      <use xlink:href="#ArialMT-74" transform="translate(66.699219 0)"/>
      <use xlink:href="#ArialMT-68" transform="translate(94.482422 0)"/>
      <use xlink:href="#ArialMT-61" transform="translate(150.097656 0)"/>
      <use xlink:href="#ArialMT-6e" transform="translate(205.712891 0)"/>
      <use xlink:href="#ArialMT-6f" transform="translate(261.328125 0)"/>
      <use xlink:href="#ArialMT-6c" transform="translate(316.943359 0)"/>
      <use xlink:href="#ArialMT-5f" transform="translate(339.160156 0)"/>
      <use xlink:href="#ArialMT-45" transform="translate(394.775391 0)"/>
      <use xlink:href="#ArialMT-38" transform="translate(461.474609 0)"/>
      <use xlink:href="#ArialMT-35" transform="translate(517.089844 0)"/>
      <use xlink:href="#ArialMT-20" transform="translate(572.705078 0)"/>
      <use xlink:href="#ArialMT-28" transform="translate(600.488281 0)"/>
      <use xlink:href="#ArialMT-47" transform="translate(633.789062 0)"/>
      <use xlink:href="#ArialMT-61" transform="translate(711.572266 0)"/>
      <use xlink:href="#ArialMT-6c" transform="translate(767.1875 0)"/>
      <use xlink:href="#ArialMT-6c" transform="translate(789.404297 0)"/>
      <use xlink:href="#ArialMT-6f" transform="translate(811.621094 0)"/>
      <use xlink:href="#ArialMT-6e" transform="translate(867.236328 0)"/>
      <use xlink:href="#ArialMT-29" transform="translate(922.851562 0)"/>
     </g>
    </g>
   </g>
   <g id="line2d_70">
    <path d="M 98.136875 185.264027 
L 126.036875 208.021422 
L 153.936875 215.800362 
L 181.836875 213.051617 
L 209.736875 187.099606 
L 237.636875 127.679068 
L 265.536875 124.109794 
L 293.436875 116.706996 
L 321.336875 114.861368 
L 349.236875 116.589593 
L 377.136875 114.533052 
L 405.036875 112.060988 
L 432.936875 109.441991 
L 460.836875 108.742892 
L 488.736875 111.139817 
L 516.636875 110.791795 
L 544.536875 108.511263 
L 572.436875 110.534261 
L 600.336875 113.917822 
L 628.236875 121.70557 
L 656.136875 123.908208 
L 684.036875 123.702147 
L 711.936875 124.587241 
L 739.836875 149.654235 
" clip-path="url(#p02479f1c14)" style="fill: none; stroke: #9edae5; stroke-opacity: 0.8; stroke-width: 1.5; stroke-linecap: round"/>
   </g>
   <g id="line2d_71">
    <path d="M 98.136875 245.809251 
L 126.036875 247.90182 
L 153.936875 248.801144 
L 181.836875 249.153129 
L 209.736875 246.869185 
L 237.636875 239.461064 
L 265.536875 225.499049 
L 293.436875 209.361367 
L 321.336875 206.145415 
L 349.236875 205.720666 
L 377.136875 205.75783 
L 405.036875 204.968057 
L 432.936875 203.727965 
L 460.836875 204.5273 
L 488.736875 204.307249 
L 516.636875 204.869428 
L 544.536875 205.55688 
L 572.436875 205.705283 
L 600.336875 205.971697 
L 628.236875 212.996926 
L 656.136875 221.159448 
L 684.036875 228.190653 
L 711.936875 234.507763 
L 739.836875 242.372887 
" clip-path="url(#p02479f1c14)" style="fill: none; stroke: #f7b6d2; stroke-opacity: 0.8; stroke-width: 1.5; stroke-linecap: round"/>
   </g>
   <g id="line2d_72">
    <path d="M 98.136875 245.222012 
L 126.036875 247.226025 
L 153.936875 247.891732 
L 181.836875 247.655646 
L 209.736875 244.975313 
L 237.636875 236.262581 
L 265.536875 224.067651 
L 293.436875 208.714566 
L 321.336875 203.894961 
L 349.236875 202.573763 
L 377.136875 201.666575 
L 405.036875 202.550912 
L 432.936875 201.142021 
L 460.836875 202.026891 
L 488.736875 202.979802 
L 516.636875 204.161744 
L 544.536875 204.224569 
L 572.436875 203.617209 
L 600.336875 205.159518 
L 628.236875 213.179509 
L 656.136875 220.780771 
L 684.036875 227.039323 
L 711.936875 233.326612 
L 739.836875 242.875788 
" clip-path="url(#p02479f1c14)" style="fill: none; stroke: #bcbd22; stroke-opacity: 0.8; stroke-width: 1.5; stroke-linecap: round"/>
   </g>
   <g id="line2d_73">
    <path d="M 98.136875 209.080879 
L 126.036875 224.369895 
L 153.936875 229.448675 
L 181.836875 226.623942 
L 209.736875 205.421029 
L 237.636875 157.277863 
L 265.536875 122.799606 
L 293.436875 124.143648 
L 321.336875 120.351583 
L 349.236875 122.940681 
L 377.136875 123.39419 
L 405.036875 122.267075 
L 432.936875 120.671223 
L 460.836875 120.015322 
L 488.736875 120.858526 
L 516.636875 121.868473 
L 544.536875 122.662675 
L 572.436875 122.378945 
L 600.336875 126.307684 
L 628.236875 132.175994 
L 656.136875 115.056516 
L 684.036875 129.375741 
L 711.936875 154.742611 
L 739.836875 184.146012 
" clip-path="url(#p02479f1c14)" style="fill: none; stroke: #9467bd; stroke-opacity: 0.8; stroke-width: 1.5; stroke-linecap: round"/>
   </g>
   <g id="line2d_74">
    <path d="M 98.136875 229.520318 
L 126.036875 237.657717 
L 153.936875 240.730982 
L 181.836875 240.824386 
L 209.736875 231.753163 
L 237.636875 207.827649 
L 265.536875 188.766532 
L 293.436875 174.560977 
L 321.336875 173.739558 
L 349.236875 174.806788 
L 377.136875 173.547685 
L 405.036875 172.529421 
L 432.936875 171.890591 
L 460.836875 172.230979 
L 488.736875 173.332667 
L 516.636875 172.701797 
L 544.536875 172.956678 
L 572.436875 173.532547 
L 600.336875 176.198674 
L 628.236875 180.101726 
L 656.136875 178.699283 
L 684.036875 187.623187 
L 711.936875 201.393719 
L 739.836875 216.740137 
" clip-path="url(#p02479f1c14)" style="fill: none; stroke: #c5b0d5; stroke-opacity: 0.8; stroke-width: 1.5; stroke-linecap: round"/>
   </g>
   <g id="line2d_75">
    <path d="M 98.136875 244.415256 
L 126.036875 247.431699 
L 153.936875 248.609129 
L 181.836875 249.384672 
L 209.736875 246.633667 
L 237.636875 237.795296 
L 265.536875 222.380376 
L 293.436875 207.201382 
L 321.336875 204.543145 
L 349.236875 204.446215 
L 377.136875 205.846167 
L 405.036875 204.800076 
L 432.936875 203.614557 
L 460.836875 204.411171 
L 488.736875 203.297279 
L 516.636875 202.165364 
L 544.536875 202.320255 
L 572.436875 202.471464 
L 600.336875 206.07768 
L 628.236875 206.974082 
L 656.136875 215.682284 
L 684.036875 223.711546 
L 711.936875 230.256463 
L 739.836875 239.235419 
" clip-path="url(#p02479f1c14)" style="fill: none; stroke: #8c564b; stroke-opacity: 0.8; stroke-width: 1.5; stroke-linecap: round"/>
   </g>
   <g id="line2d_76">
    <path d="M 98.136875 243.629235 
L 126.036875 247.307948 
L 153.936875 248.585367 
L 181.836875 249.492371 
L 209.736875 246.982042 
L 237.636875 238.775725 
L 265.536875 224.274039 
L 293.436875 208.508279 
L 321.336875 205.075142 
L 349.236875 204.49728 
L 377.136875 204.682129 
L 405.036875 202.15481 
L 432.936875 201.220503 
L 460.836875 203.351041 
L 488.736875 203.916041 
L 516.636875 204.456649 
L 544.536875 202.653303 
L 572.436875 203.564005 
L 600.336875 206.056573 
L 628.236875 206.746511 
L 656.136875 215.512395 
L 684.036875 222.29393 
L 711.936875 229.433741 
L 739.836875 237.863695 
" clip-path="url(#p02479f1c14)" style="fill: none; stroke: #7f7f7f; stroke-opacity: 0.8; stroke-width: 1.5; stroke-linecap: round"/>
   </g>
   <g id="line2d_77">
    <path d="M 98.136875 227.832156 
L 126.036875 236.501058 
L 153.936875 239.800601 
L 181.836875 240.599033 
L 209.736875 232.70292 
L 237.636875 211.538432 
L 265.536875 183.734389 
L 293.436875 160.734996 
L 321.336875 158.574878 
L 349.236875 165.494813 
L 377.136875 165.933109 
L 405.036875 164.690736 
L 432.936875 162.424206 
L 460.836875 161.972459 
L 488.736875 161.694103 
L 516.636875 163.202486 
L 544.536875 163.870657 
L 572.436875 163.333872 
L 600.336875 168.298903 
L 628.236875 156.834962 
L 656.136875 166.327388 
L 684.036875 178.357368 
L 711.936875 193.45156 
L 739.836875 212.849693 
" clip-path="url(#p02479f1c14)" style="fill: none; stroke: #9edae5; stroke-opacity: 0.8; stroke-width: 1.5; stroke-linecap: round"/>
   </g>
   <g id="line2d_78">
    <path d="M 98.136875 233.535355 
L 126.036875 240.344117 
L 153.936875 242.829742 
L 181.836875 243.390565 
L 209.736875 236.441032 
L 237.636875 217.761691 
L 265.536875 190.685005 
L 293.436875 171.321332 
L 321.336875 166.788403 
L 349.236875 166.446395 
L 377.136875 165.86621 
L 405.036875 164.465591 
L 432.936875 163.730351 
L 460.836875 163.405274 
L 488.736875 163.10962 
L 516.636875 163.935762 
L 544.536875 163.365157 
L 572.436875 161.933184 
L 600.336875 163.842025 
L 628.236875 170.542668 
L 656.136875 177.711829 
L 684.036875 187.926678 
L 711.936875 202.203736 
L 739.836875 221.962356 
" clip-path="url(#p02479f1c14)" style="fill: none; stroke: #c7c7c7; stroke-opacity: 0.8; stroke-width: 1.5; stroke-linecap: round"/>
   </g>
   <g id="line2d_79">
    <path d="M 98.136875 235.539734 
L 126.036875 241.649663 
L 153.936875 244.341127 
L 181.836875 246.568959 
L 209.736875 241.179419 
L 237.636875 227.144994 
L 265.536875 209.471083 
L 293.436875 192.95463 
L 321.336875 185.170114 
L 349.236875 184.753093 
L 377.136875 186.235795 
L 405.036875 183.692537 
L 432.936875 182.956421 
L 460.836875 183.351503 
L 488.736875 182.688651 
L 516.636875 183.52368 
L 544.536875 184.199276 
L 572.436875 184.437997 
L 600.336875 187.695802 
L 628.236875 185.437672 
L 656.136875 194.899564 
L 684.036875 203.493566 
L 711.936875 211.8949 
L 739.836875 226.271153 
" clip-path="url(#p02479f1c14)" style="fill: none; stroke: #c49c94; stroke-opacity: 0.8; stroke-width: 1.5; stroke-linecap: round"/>
   </g>
   <g id="line2d_80">
    <path d="M 98.136875 235.733738 
L 126.036875 241.65844 
L 153.936875 244.02293 
L 181.836875 245.620238 
L 209.736875 240.60151 
L 237.636875 226.382615 
L 265.536875 208.071595 
L 293.436875 192.340738 
L 321.336875 186.316604 
L 349.236875 185.958626 
L 377.136875 186.602969 
L 405.036875 185.590167 
L 432.936875 183.940421 
L 460.836875 183.405644 
L 488.736875 183.47295 
L 516.636875 184.064974 
L 544.536875 182.512938 
L 572.436875 183.07208 
L 600.336875 185.275977 
L 628.236875 186.44164 
L 656.136875 195.990242 
L 684.036875 203.850393 
L 711.936875 212.436366 
L 739.836875 226.736319 
" clip-path="url(#p02479f1c14)" style="fill: none; stroke: #1f77b4; stroke-opacity: 0.8; stroke-width: 1.5; stroke-linecap: round"/>
   </g>
   <g id="line2d_81">
    <path d="M 98.136875 244.428351 
L 126.036875 247.269967 
L 153.936875 248.611947 
L 181.836875 249.22473 
L 209.736875 246.009616 
L 237.636875 237.580622 
L 265.536875 223.990556 
L 293.436875 207.706144 
L 321.336875 202.42259 
L 349.236875 200.84218 
L 377.136875 199.643828 
L 405.036875 199.611895 
L 432.936875 198.297971 
L 460.836875 198.086747 
L 488.736875 197.187778 
L 516.636875 196.887419 
L 544.536875 196.362773 
L 572.436875 196.524595 
L 600.336875 200.444936 
L 628.236875 205.37186 
L 656.136875 215.727936 
L 684.036875 223.252743 
L 711.936875 230.003304 
L 739.836875 239.48543 
" clip-path="url(#p02479f1c14)" style="fill: none; stroke: #aec7e8; stroke-opacity: 0.8; stroke-width: 1.5; stroke-linecap: round"/>
   </g>
   <g id="line2d_82">
    <path d="M 98.136875 245.680073 
L 126.036875 248.09493 
L 153.936875 249.246347 
L 181.836875 249.912161 
L 209.736875 247.675783 
L 237.636875 238.894839 
L 265.536875 224.990236 
L 293.436875 203.591218 
L 321.336875 195.895552 
L 349.236875 193.555927 
L 377.136875 194.47255 
L 405.036875 192.185609 
L 432.936875 190.15996 
L 460.836875 192.056579 
L 488.736875 190.43534 
L 516.636875 189.340686 
L 544.536875 188.716319 
L 572.436875 187.227976 
L 600.336875 190.327803 
L 628.236875 199.883967 
L 656.136875 215.807955 
L 684.036875 225.589169 
L 711.936875 233.327153 
L 739.836875 240.468335 
" clip-path="url(#p02479f1c14)" style="fill: none; stroke: #1f77b4; stroke-opacity: 0.8; stroke-width: 1.5; stroke-linecap: round"/>
   </g>
   <g id="line2d_83">
    <path d="M 98.136875 240.934509 
L 126.036875 244.750836 
L 153.936875 246.656111 
L 181.836875 247.968425 
L 209.736875 244.566146 
L 237.636875 233.204977 
L 265.536875 215.518463 
L 293.436875 189.481024 
L 321.336875 180.242345 
L 349.236875 179.232901 
L 377.136875 180.434951 
L 405.036875 175.775207 
L 432.936875 175.009453 
L 460.836875 178.539222 
L 488.736875 175.96623 
L 516.636875 174.67704 
L 544.536875 175.54356 
L 572.436875 177.486913 
L 600.336875 182.577958 
L 628.236875 179.735578 
L 656.136875 198.478763 
L 684.036875 212.9917 
L 711.936875 222.687778 
L 739.836875 233.17258 
" clip-path="url(#p02479f1c14)" style="fill: none; stroke: #e377c2; stroke-opacity: 0.8; stroke-width: 1.5; stroke-linecap: round"/>
   </g>
   <g id="line2d_84">
    <path d="M 98.136875 244.660337 
L 126.036875 246.754872 
L 153.936875 247.355996 
L 181.836875 247.79537 
L 209.736875 245.657031 
L 237.636875 237.802898 
L 265.536875 225.149177 
L 293.436875 207.149324 
L 321.336875 200.020063 
L 349.236875 197.99905 
L 377.136875 198.570958 
L 405.036875 197.337902 
L 432.936875 197.504563 
L 460.836875 199.179836 
L 488.736875 199.818917 
L 516.636875 199.707329 
L 544.536875 200.848585 
L 572.436875 201.73945 
L 600.336875 199.63078 
L 628.236875 205.474346 
L 656.136875 214.237245 
L 684.036875 222.062469 
L 711.936875 229.692616 
L 739.836875 241.259588 
" clip-path="url(#p02479f1c14)" style="fill: none; stroke: #ff7f0e; stroke-opacity: 0.8; stroke-width: 1.5; stroke-linecap: round"/>
   </g>
   <g id="line2d_85">
    <path d="M 98.136875 246.645506 
L 126.036875 248.828683 
L 153.936875 249.787358 
L 181.836875 250.32185 
L 209.736875 248.192642 
L 237.636875 240.229393 
L 265.536875 225.629956 
L 293.436875 206.877122 
L 321.336875 201.384151 
L 349.236875 199.866892 
L 377.136875 199.229126 
L 405.036875 198.6832 
L 432.936875 197.606507 
L 460.836875 198.921757 
L 488.736875 198.750479 
L 516.636875 197.670562 
L 544.536875 197.819392 
L 572.436875 199.727362 
L 600.336875 203.545038 
L 628.236875 207.787675 
L 656.136875 219.279532 
L 684.036875 227.531627 
L 711.936875 234.511039 
L 739.836875 242.008614 
" clip-path="url(#p02479f1c14)" style="fill: none; stroke: #98df8a; stroke-opacity: 0.8; stroke-width: 1.5; stroke-linecap: round"/>
   </g>
   <g id="line2d_86">
    <path d="M 98.136875 240.561844 
L 126.036875 244.471222 
L 153.936875 246.624874 
L 181.836875 247.86731 
L 209.736875 244.386991 
L 237.636875 232.35317 
L 265.536875 212.565119 
L 293.436875 186.14338 
L 321.336875 174.536957 
L 349.236875 171.798214 
L 377.136875 175.195234 
L 405.036875 170.837904 
L 432.936875 167.733095 
L 460.836875 172.88632 
L 488.736875 170.053214 
L 516.636875 169.298977 
L 544.536875 172.360037 
L 572.436875 173.247131 
L 600.336875 176.323561 
L 628.236875 174.777456 
L 656.136875 196.674485 
L 684.036875 211.669475 
L 711.936875 221.690473 
L 739.836875 232.434395 
" clip-path="url(#p02479f1c14)" style="fill: none; stroke: #d62728; stroke-opacity: 0.8; stroke-width: 1.5; stroke-linecap: round"/>
   </g>
   <g id="line2d_87">
    <path d="M 98.136875 183.318163 
L 126.036875 206.317674 
L 153.936875 214.271632 
L 181.836875 215.123007 
L 209.736875 191.578408 
L 237.636875 147.37608 
L 265.536875 98.590413 
L 293.436875 79.42949 
L 321.336875 76.05986 
L 349.236875 74.924785 
L 377.136875 73.550905 
L 405.036875 73.097249 
L 432.936875 72.081872 
L 460.836875 72.957275 
L 488.736875 72.077692 
L 516.636875 71.492832 
L 544.536875 74.716458 
L 572.436875 76.765692 
L 600.336875 72.471611 
L 628.236875 71.572677 
L 656.136875 83.015299 
L 684.036875 95.874154 
L 711.936875 121.786652 
L 739.836875 158.599636 
" clip-path="url(#p02479f1c14)" style="fill: none; stroke: #ffbb78; stroke-opacity: 0.8; stroke-width: 1.5; stroke-linecap: round"/>
   </g>
   <g id="line2d_88">
    <path d="M 98.136875 185.436232 
L 126.036875 209.505463 
L 153.936875 216.686978 
L 181.836875 217.598345 
L 209.736875 193.08715 
L 237.636875 144.770475 
L 265.536875 94.31693 
L 293.436875 82.87247 
L 321.336875 79.738192 
L 349.236875 79.682402 
L 377.136875 79.582863 
L 405.036875 81.183607 
L 432.936875 81.448464 
L 460.836875 82.297016 
L 488.736875 83.248355 
L 516.636875 84.330298 
L 544.536875 85.353161 
L 572.436875 86.739015 
L 600.336875 85.001107 
L 628.236875 102.500593 
L 656.136875 82.143033 
L 684.036875 93.718334 
L 711.936875 118.607429 
L 739.836875 154.578341 
" clip-path="url(#p02479f1c14)" style="fill: none; stroke: #2ca02c; stroke-opacity: 0.8; stroke-width: 1.5; stroke-linecap: round"/>
   </g>
   <g id="line2d_89">
    <path d="M 98.136875 213.18078 
L 126.036875 226.388247 
L 153.936875 231.266971 
L 181.836875 230.360735 
L 209.736875 213.260108 
L 237.636875 175.225705 
L 265.536875 145.995822 
L 293.436875 130.456394 
L 321.336875 127.874629 
L 349.236875 127.953792 
L 377.136875 128.295447 
L 405.036875 126.8106 
L 432.936875 125.66119 
L 460.836875 126.402467 
L 488.736875 125.501209 
L 516.636875 127.290711 
L 544.536875 127.578046 
L 572.436875 126.978684 
L 600.336875 131.020473 
L 628.236875 135.183763 
L 656.136875 138.041395 
L 684.036875 151.419368 
L 711.936875 170.033995 
L 739.836875 196.02989 
" clip-path="url(#p02479f1c14)" style="fill: none; stroke: #dbdb8d; stroke-opacity: 0.8; stroke-width: 1.5; stroke-linecap: round"/>
   </g>
   <g id="line2d_90">
    <path d="M 98.136875 233.60447 
L 126.036875 240.356708 
L 153.936875 242.275799 
L 181.836875 241.704975 
L 209.736875 232.251398 
L 237.636875 210.659464 
L 265.536875 186.056868 
L 293.436875 163.162125 
L 321.336875 165.149997 
L 349.236875 169.334537 
L 377.136875 168.880495 
L 405.036875 167.221368 
L 432.936875 166.208425 
L 460.836875 165.698073 
L 488.736875 165.735301 
L 516.636875 165.738595 
L 544.536875 165.95057 
L 572.436875 168.263391 
L 600.336875 173.401601 
L 628.236875 167.34382 
L 656.136875 182.853122 
L 684.036875 194.666726 
L 711.936875 208.296726 
L 739.836875 224.175771 
" clip-path="url(#p02479f1c14)" style="fill: none; stroke: #d62728; stroke-opacity: 0.8; stroke-width: 1.5; stroke-linecap: round"/>
   </g>
   <g id="line2d_91">
    <path d="M 98.136875 233.768671 
L 126.036875 240.188142 
L 153.936875 242.017732 
L 181.836875 240.993862 
L 209.736875 230.652373 
L 237.636875 203.159792 
L 265.536875 178.822404 
L 293.436875 168.245565 
L 321.336875 171.090723 
L 349.236875 170.317541 
L 377.136875 169.755078 
L 405.036875 168.443311 
L 432.936875 167.284604 
L 460.836875 167.37318 
L 488.736875 167.601177 
L 516.636875 168.650178 
L 544.536875 168.698426 
L 572.436875 170.674101 
L 600.336875 175.089103 
L 628.236875 163.874532 
L 656.136875 178.146132 
L 684.036875 190.027918 
L 711.936875 204.648549 
L 739.836875 223.783643 
" clip-path="url(#p02479f1c14)" style="fill: none; stroke: #ff9896; stroke-opacity: 0.8; stroke-width: 1.5; stroke-linecap: round"/>
   </g>
   <g id="line2d_92">
    <path d="M 98.136875 235.963401 
L 126.036875 242.0228 
L 153.936875 244.423745 
L 181.836875 245.946612 
L 209.736875 240.214014 
L 237.636875 222.280634 
L 265.536875 199.098496 
L 293.436875 167.832639 
L 321.336875 163.13991 
L 349.236875 161.913805 
L 377.136875 161.875207 
L 405.036875 157.314782 
L 432.936875 153.367837 
L 460.836875 154.190544 
L 488.736875 151.599117 
L 516.636875 152.344403 
L 544.536875 151.360155 
L 572.436875 153.919995 
L 600.336875 161.611904 
L 628.236875 167.947314 
L 656.136875 185.67255 
L 684.036875 201.640427 
L 711.936875 212.960718 
L 739.836875 225.559529 
" clip-path="url(#p02479f1c14)" style="fill: none; stroke: #17becf; stroke-opacity: 0.8; stroke-width: 1.5; stroke-linecap: round"/>
   </g>
   <g id="line2d_93">
    <path d="M 98.136875 238.137388 
L 126.036875 243.41483 
L 153.936875 245.479109 
L 181.836875 246.555165 
L 209.736875 241.760676 
L 237.636875 225.665121 
L 265.536875 201.91096 
L 293.436875 172.695364 
L 321.336875 169.093511 
L 349.236875 168.749208 
L 377.136875 167.626634 
L 405.036875 164.894108 
L 432.936875 165.798845 
L 460.836875 166.295243 
L 488.736875 165.122606 
L 516.636875 165.055421 
L 544.536875 163.523293 
L 572.436875 166.013746 
L 600.336875 174.13091 
L 628.236875 176.001923 
L 656.136875 193.07904 
L 684.036875 207.225475 
L 711.936875 219.05789 
L 739.836875 229.611282 
" clip-path="url(#p02479f1c14)" style="fill: none; stroke: #f7b6d2; stroke-opacity: 0.8; stroke-width: 1.5; stroke-linecap: round"/>
   </g>
   <g id="patch_3">
    <path d="M 84.186875 263.48625 
L 84.186875 41.72625 
" style="fill: none; stroke: #000000; stroke-linejoin: miter; stroke-linecap: square"/>
   </g>
   <g id="patch_4">
    <path d="M 753.786875 263.48625 
L 753.786875 41.72625 
" style="fill: none; stroke: #000000; stroke-linejoin: miter; stroke-linecap: square"/>
   </g>
   <g id="patch_5">
    <path d="M 84.186875 263.48625 
L 753.786875 263.48625 
" style="fill: none; stroke: #000000; stroke-linejoin: miter; stroke-linecap: square"/>
   </g>
   <g id="patch_6">
    <path d="M 84.186875 41.72625 
L 753.786875 41.72625 
" style="fill: none; stroke: #000000; stroke-linejoin: miter; stroke-linecap: square"/>
   </g>
  </g>
 </g>
 <defs>
  <clipPath id="p02479f1c14">
   <rect x="84.186875" y="41.72625" width="669.6" height="221.76"/>
  </clipPath>
 </defs>
</svg>
