<?xml version="1.0" encoding="utf-8" standalone="no"?>
<!DOCTYPE svg PUBLIC "-//W3C//DTD SVG 1.1//EN"
  "http://www.w3.org/Graphics/SVG/1.1/DTD/svg11.dtd">
<svg xmlns:xlink="http://www.w3.org/1999/xlink" width="789.786875pt" height="332.28625pt" viewBox="0 0 789.786875 332.28625" xmlns="http://www.w3.org/2000/svg" version="1.1">
 <metadata>
  <rdf:RDF xmlns:dc="http://purl.org/dc/elements/1.1/" xmlns:cc="http://creativecommons.org/ns#" xmlns:rdf="http://www.w3.org/1999/02/22-rdf-syntax-ns#">
   <cc:Work>
    <dc:type rdf:resource="http://purl.org/dc/dcmitype/StillImage"/>
    <dc:date>2025-10-28T00:06:44.639488</dc:date>
    <dc:format>image/svg+xml</dc:format>
    <dc:creator>
     <cc:Agent>
      <dc:title>Matplotlib v3.10.7, https://matplotlib.org/</dc:title>
     </cc:Agent>
    </dc:creator>
   </cc:Work>
  </rdf:RDF>
 </metadata>
 <defs>
  <style type="text/css">*{stroke-linejoin: round; stroke-linecap: butt}</style>
 </defs>
 <g id="figure_1">
  <g id="patch_1">
   <path d="M 0 332.28625 
L 789.786875 332.28625 
L 789.786875 0 
L 0 0 
L 0 332.28625 
z
" style="fill: none"/>
  </g>
  <g id="axes_1">
   <g id="patch_2">
    <path d="M 84.186875 257.76 
L 753.786875 257.76 
L 753.786875 36 
L 84.186875 36 
L 84.186875 257.76 
z
" style="fill: none"/>
   </g>
   <g id="line2d_1">
    <path d="M 104.477784 257.76 
L 104.477784 36 
" clip-path="url(#p295da75d60)" style="fill: none; stroke-dasharray: 0.74,0.32; stroke-dashoffset: 0; stroke: #a9a9a9; stroke-opacity: 0.5; stroke-width: 0.2"/>
   </g>
   <g id="line2d_2">
    <path d="M 124.768693 257.76 
L 124.768693 36 
" clip-path="url(#p295da75d60)" style="fill: none; stroke-dasharray: 0.74,0.32; stroke-dashoffset: 0; stroke: #a9a9a9; stroke-opacity: 0.5; stroke-width: 0.2"/>
   </g>
   <g id="line2d_3">
    <path d="M 145.059602 257.76 
L 145.059602 36 
" clip-path="url(#p295da75d60)" style="fill: none; stroke-dasharray: 0.74,0.32; stroke-dashoffset: 0; stroke: #a9a9a9; stroke-opacity: 0.5; stroke-width: 0.2"/>
   </g>
   <g id="line2d_4">
    <path d="M 165.350511 257.76 
L 165.350511 36 
" clip-path="url(#p295da75d60)" style="fill: none; stroke-dasharray: 0.74,0.32; stroke-dashoffset: 0; stroke: #a9a9a9; stroke-opacity: 0.5; stroke-width: 0.2"/>
   </g>
   <g id="line2d_5">
    <path d="M 185.64142 257.76 
L 185.64142 36 
" clip-path="url(#p295da75d60)" style="fill: none; stroke-dasharray: 0.74,0.32; stroke-dashoffset: 0; stroke: #a9a9a9; stroke-opacity: 0.5; stroke-width: 0.2"/>
   </g>
   <g id="line2d_6">
    <path d="M 205.93233 257.76 
L 205.93233 36 
" clip-path="url(#p295da75d60)" style="fill: none; stroke-dasharray: 0.74,0.32; stroke-dashoffset: 0; stroke: #a9a9a9; stroke-opacity: 0.5; stroke-width: 0.2"/>
   </g>
   <g id="line2d_7">
    <path d="M 226.223239 257.76 
L 226.223239 36 
" clip-path="url(#p295da75d60)" style="fill: none; stroke-dasharray: 0.74,0.32; stroke-dashoffset: 0; stroke: #a9a9a9; stroke-opacity: 0.5; stroke-width: 0.2"/>
   </g>
   <g id="line2d_8">
    <path d="M 246.514148 257.76 
L 246.514148 36 
" clip-path="url(#p295da75d60)" style="fill: none; stroke-dasharray: 0.74,0.32; stroke-dashoffset: 0; stroke: #a9a9a9; stroke-opacity: 0.5; stroke-width: 0.2"/>
   </g>
   <g id="line2d_9">
    <path d="M 266.805057 257.76 
L 266.805057 36 
" clip-path="url(#p295da75d60)" style="fill: none; stroke-dasharray: 0.74,0.32; stroke-dashoffset: 0; stroke: #a9a9a9; stroke-opacity: 0.5; stroke-width: 0.2"/>
   </g>
   <g id="line2d_10">
    <path d="M 287.095966 257.76 
L 287.095966 36 
" clip-path="url(#p295da75d60)" style="fill: none; stroke-dasharray: 0.74,0.32; stroke-dashoffset: 0; stroke: #a9a9a9; stroke-opacity: 0.5; stroke-width: 0.2"/>
   </g>
   <g id="line2d_11">
    <path d="M 307.386875 257.76 
L 307.386875 36 
" clip-path="url(#p295da75d60)" style="fill: none; stroke-dasharray: 0.74,0.32; stroke-dashoffset: 0; stroke: #a9a9a9; stroke-opacity: 0.5; stroke-width: 0.2"/>
   </g>
   <g id="line2d_12">
    <path d="M 327.677784 257.76 
L 327.677784 36 
" clip-path="url(#p295da75d60)" style="fill: none; stroke-dasharray: 0.74,0.32; stroke-dashoffset: 0; stroke: #a9a9a9; stroke-opacity: 0.5; stroke-width: 0.2"/>
   </g>
   <g id="line2d_13">
    <path d="M 347.968693 257.76 
L 347.968693 36 
" clip-path="url(#p295da75d60)" style="fill: none; stroke-dasharray: 0.74,0.32; stroke-dashoffset: 0; stroke: #a9a9a9; stroke-opacity: 0.5; stroke-width: 0.2"/>
   </g>
   <g id="line2d_14">
    <path d="M 368.259602 257.76 
L 368.259602 36 
" clip-path="url(#p295da75d60)" style="fill: none; stroke-dasharray: 0.74,0.32; stroke-dashoffset: 0; stroke: #a9a9a9; stroke-opacity: 0.5; stroke-width: 0.2"/>
   </g>
   <g id="line2d_15">
    <path d="M 388.550511 257.76 
L 388.550511 36 
" clip-path="url(#p295da75d60)" style="fill: none; stroke-dasharray: 0.74,0.32; stroke-dashoffset: 0; stroke: #a9a9a9; stroke-opacity: 0.5; stroke-width: 0.2"/>
   </g>
   <g id="line2d_16">
    <path d="M 408.84142 257.76 
L 408.84142 36 
" clip-path="url(#p295da75d60)" style="fill: none; stroke-dasharray: 0.74,0.32; stroke-dashoffset: 0; stroke: #a9a9a9; stroke-opacity: 0.5; stroke-width: 0.2"/>
   </g>
   <g id="line2d_17">
    <path d="M 429.13233 257.76 
L 429.13233 36 
" clip-path="url(#p295da75d60)" style="fill: none; stroke-dasharray: 0.74,0.32; stroke-dashoffset: 0; stroke: #a9a9a9; stroke-opacity: 0.5; stroke-width: 0.2"/>
   </g>
   <g id="line2d_18">
    <path d="M 449.423239 257.76 
L 449.423239 36 
" clip-path="url(#p295da75d60)" style="fill: none; stroke-dasharray: 0.74,0.32; stroke-dashoffset: 0; stroke: #a9a9a9; stroke-opacity: 0.5; stroke-width: 0.2"/>
   </g>
   <g id="line2d_19">
    <path d="M 469.714148 257.76 
L 469.714148 36 
" clip-path="url(#p295da75d60)" style="fill: none; stroke-dasharray: 0.74,0.32; stroke-dashoffset: 0; stroke: #a9a9a9; stroke-opacity: 0.5; stroke-width: 0.2"/>
   </g>
   <g id="line2d_20">
    <path d="M 490.005057 257.76 
L 490.005057 36 
" clip-path="url(#p295da75d60)" style="fill: none; stroke-dasharray: 0.74,0.32; stroke-dashoffset: 0; stroke: #a9a9a9; stroke-opacity: 0.5; stroke-width: 0.2"/>
   </g>
   <g id="line2d_21">
    <path d="M 510.295966 257.76 
L 510.295966 36 
" clip-path="url(#p295da75d60)" style="fill: none; stroke-dasharray: 0.74,0.32; stroke-dashoffset: 0; stroke: #a9a9a9; stroke-opacity: 0.5; stroke-width: 0.2"/>
   </g>
   <g id="line2d_22">
    <path d="M 530.586875 257.76 
L 530.586875 36 
" clip-path="url(#p295da75d60)" style="fill: none; stroke-dasharray: 0.74,0.32; stroke-dashoffset: 0; stroke: #a9a9a9; stroke-opacity: 0.5; stroke-width: 0.2"/>
   </g>
   <g id="line2d_23">
    <path d="M 550.877784 257.76 
L 550.877784 36 
" clip-path="url(#p295da75d60)" style="fill: none; stroke-dasharray: 0.74,0.32; stroke-dashoffset: 0; stroke: #a9a9a9; stroke-opacity: 0.5; stroke-width: 0.2"/>
   </g>
   <g id="line2d_24">
    <path d="M 571.168693 257.76 
L 571.168693 36 
" clip-path="url(#p295da75d60)" style="fill: none; stroke-dasharray: 0.74,0.32; stroke-dashoffset: 0; stroke: #a9a9a9; stroke-opacity: 0.5; stroke-width: 0.2"/>
   </g>
   <g id="line2d_25">
    <path d="M 591.459602 257.76 
L 591.459602 36 
" clip-path="url(#p295da75d60)" style="fill: none; stroke-dasharray: 0.74,0.32; stroke-dashoffset: 0; stroke: #a9a9a9; stroke-opacity: 0.5; stroke-width: 0.2"/>
   </g>
   <g id="line2d_26">
    <path d="M 611.750511 257.76 
L 611.750511 36 
" clip-path="url(#p295da75d60)" style="fill: none; stroke-dasharray: 0.74,0.32; stroke-dashoffset: 0; stroke: #a9a9a9; stroke-opacity: 0.5; stroke-width: 0.2"/>
   </g>
   <g id="line2d_27">
    <path d="M 632.04142 257.76 
L 632.04142 36 
" clip-path="url(#p295da75d60)" style="fill: none; stroke-dasharray: 0.74,0.32; stroke-dashoffset: 0; stroke: #a9a9a9; stroke-opacity: 0.5; stroke-width: 0.2"/>
   </g>
   <g id="line2d_28">
    <path d="M 652.33233 257.76 
L 652.33233 36 
" clip-path="url(#p295da75d60)" style="fill: none; stroke-dasharray: 0.74,0.32; stroke-dashoffset: 0; stroke: #a9a9a9; stroke-opacity: 0.5; stroke-width: 0.2"/>
   </g>
   <g id="line2d_29">
    <path d="M 672.623239 257.76 
L 672.623239 36 
" clip-path="url(#p295da75d60)" style="fill: none; stroke-dasharray: 0.74,0.32; stroke-dashoffset: 0; stroke: #a9a9a9; stroke-opacity: 0.5; stroke-width: 0.2"/>
   </g>
   <g id="line2d_30">
    <path d="M 692.914148 257.76 
L 692.914148 36 
" clip-path="url(#p295da75d60)" style="fill: none; stroke-dasharray: 0.74,0.32; stroke-dashoffset: 0; stroke: #a9a9a9; stroke-opacity: 0.5; stroke-width: 0.2"/>
   </g>
   <g id="line2d_31">
    <path d="M 713.205057 257.76 
L 713.205057 36 
" clip-path="url(#p295da75d60)" style="fill: none; stroke-dasharray: 0.74,0.32; stroke-dashoffset: 0; stroke: #a9a9a9; stroke-opacity: 0.5; stroke-width: 0.2"/>
   </g>
   <g id="line2d_32">
    <path d="M 733.495966 257.76 
L 733.495966 36 
" clip-path="url(#p295da75d60)" style="fill: none; stroke-dasharray: 0.74,0.32; stroke-dashoffset: 0; stroke: #a9a9a9; stroke-opacity: 0.5; stroke-width: 0.2"/>
   </g>
   <g id="line2d_33">
    <path d="M 84.186875 235.584 
L 753.786875 235.584 
" clip-path="url(#p295da75d60)" style="fill: none; stroke-dasharray: 0.74,0.32; stroke-dashoffset: 0; stroke: #a9a9a9; stroke-opacity: 0.5; stroke-width: 0.2"/>
   </g>
   <g id="line2d_34">
    <path d="M 84.186875 213.408 
L 753.786875 213.408 
" clip-path="url(#p295da75d60)" style="fill: none; stroke-dasharray: 0.74,0.32; stroke-dashoffset: 0; stroke: #a9a9a9; stroke-opacity: 0.5; stroke-width: 0.2"/>
   </g>
   <g id="line2d_35">
    <path d="M 84.186875 191.232 
L 753.786875 191.232 
" clip-path="url(#p295da75d60)" style="fill: none; stroke-dasharray: 0.74,0.32; stroke-dashoffset: 0; stroke: #a9a9a9; stroke-opacity: 0.5; stroke-width: 0.2"/>
   </g>
   <g id="line2d_36">
    <path d="M 84.186875 169.056 
L 753.786875 169.056 
" clip-path="url(#p295da75d60)" style="fill: none; stroke-dasharray: 0.74,0.32; stroke-dashoffset: 0; stroke: #a9a9a9; stroke-opacity: 0.5; stroke-width: 0.2"/>
   </g>
   <g id="line2d_37">
    <path d="M 84.186875 146.88 
L 753.786875 146.88 
" clip-path="url(#p295da75d60)" style="fill: none; stroke-dasharray: 0.74,0.32; stroke-dashoffset: 0; stroke: #a9a9a9; stroke-opacity: 0.5; stroke-width: 0.2"/>
   </g>
   <g id="line2d_38">
    <path d="M 84.186875 124.704 
L 753.786875 124.704 
" clip-path="url(#p295da75d60)" style="fill: none; stroke-dasharray: 0.74,0.32; stroke-dashoffset: 0; stroke: #a9a9a9; stroke-opacity: 0.5; stroke-width: 0.2"/>
   </g>
   <g id="line2d_39">
    <path d="M 84.186875 102.528 
L 753.786875 102.528 
" clip-path="url(#p295da75d60)" style="fill: none; stroke-dasharray: 0.74,0.32; stroke-dashoffset: 0; stroke: #a9a9a9; stroke-opacity: 0.5; stroke-width: 0.2"/>
   </g>
   <g id="line2d_40">
    <path d="M 84.186875 80.352 
L 753.786875 80.352 
" clip-path="url(#p295da75d60)" style="fill: none; stroke-dasharray: 0.74,0.32; stroke-dashoffset: 0; stroke: #a9a9a9; stroke-opacity: 0.5; stroke-width: 0.2"/>
   </g>
   <g id="line2d_41">
    <path d="M 84.186875 58.176 
L 753.786875 58.176 
" clip-path="url(#p295da75d60)" style="fill: none; stroke-dasharray: 0.74,0.32; stroke-dashoffset: 0; stroke: #a9a9a9; stroke-opacity: 0.5; stroke-width: 0.2"/>
   </g>
   <g id="matplotlib.axis_1">
    <g id="xtick_1">
     <g id="line2d_42">
      <defs>
       <path id="m8cd7b8eb23" d="M 0 0 
L 0 5 
" style="stroke: #000000"/>
      </defs>
      <g>
       <use xlink:href="#m8cd7b8eb23" x="98.136875" y="257.76" style="stroke: #000000"/>
      </g>
     </g>
     <g id="text_1">
      <!-- 1:00 -->
      <g transform="translate(101.239063 289.613125) rotate(-90) scale(0.12 -0.12)">
       <defs>
        <path id="ArialMT-31" d="M 2384 0 
L 1822 0 
L 1822 3584 
Q 1619 3391 1289 3197 
Q 959 3003 697 2906 
L 697 3450 
Q 1169 3672 1522 3987 
Q 1875 4303 2022 4600 
L 2384 4600 
L 2384 0 
z
" transform="scale(0.015625)"/>
        <path id="ArialMT-3a" d="M 578 2678 
L 578 3319 
L 1219 3319 
L 1219 2678 
L 578 2678 
z
M 578 0 
L 578 641 
L 1219 641 
L 1219 0 
L 578 0 
z
" transform="scale(0.015625)"/>
        <path id="ArialMT-30" d="M 266 2259 
Q 266 3072 433 3567 
Q 600 4063 929 4331 
Q 1259 4600 1759 4600 
Q 2128 4600 2406 4451 
Q 2684 4303 2865 4023 
Q 3047 3744 3150 3342 
Q 3253 2941 3253 2259 
Q 3253 1453 3087 958 
Q 2922 463 2592 192 
Q 2263 -78 1759 -78 
Q 1097 -78 719 397 
Q 266 969 266 2259 
z
M 844 2259 
Q 844 1131 1108 757 
Q 1372 384 1759 384 
Q 2147 384 2411 759 
Q 2675 1134 2675 2259 
Q 2675 3391 2411 3762 
Q 2147 4134 1753 4134 
Q 1366 4134 1134 3806 
Q 844 3388 844 2259 
z
" transform="scale(0.015625)"/>
       </defs>
       <use xlink:href="#ArialMT-31"/>
       <use xlink:href="#ArialMT-3a" transform="translate(55.615234 0)"/>
       <use xlink:href="#ArialMT-30" transform="translate(83.398438 0)"/>
       <use xlink:href="#ArialMT-30" transform="translate(139.013672 0)"/>
      </g>
     </g>
    </g>
    <g id="xtick_2">
     <g id="line2d_43">
      <g>
       <use xlink:href="#m8cd7b8eb23" x="126.036875" y="257.76" style="stroke: #000000"/>
      </g>
     </g>
     <g id="text_2">
      <!-- 2:00 -->
      <g transform="translate(129.139063 289.613125) rotate(-90) scale(0.12 -0.12)">
       <defs>
        <path id="ArialMT-32" d="M 3222 541 
L 3222 0 
L 194 0 
Q 188 203 259 391 
Q 375 700 629 1000 
Q 884 1300 1366 1694 
Q 2113 2306 2375 2664 
Q 2638 3022 2638 3341 
Q 2638 3675 2398 3904 
Q 2159 4134 1775 4134 
Q 1369 4134 1125 3890 
Q 881 3647 878 3216 
L 300 3275 
Q 359 3922 746 4261 
Q 1134 4600 1788 4600 
Q 2447 4600 2831 4234 
Q 3216 3869 3216 3328 
Q 3216 3053 3103 2787 
Q 2991 2522 2730 2228 
Q 2469 1934 1863 1422 
Q 1356 997 1212 845 
Q 1069 694 975 541 
L 3222 541 
z
" transform="scale(0.015625)"/>
       </defs>
       <use xlink:href="#ArialMT-32"/>
       <use xlink:href="#ArialMT-3a" transform="translate(55.615234 0)"/>
       <use xlink:href="#ArialMT-30" transform="translate(83.398438 0)"/>
       <use xlink:href="#ArialMT-30" transform="translate(139.013672 0)"/>
      </g>
     </g>
    </g>
    <g id="xtick_3">
     <g id="line2d_44">
      <g>
       <use xlink:href="#m8cd7b8eb23" x="153.936875" y="257.76" style="stroke: #000000"/>
      </g>
     </g>
     <g id="text_3">
      <!-- 3:00 -->
      <g transform="translate(157.039062 289.613125) rotate(-90) scale(0.12 -0.12)">
       <defs>
        <path id="ArialMT-33" d="M 269 1209 
L 831 1284 
Q 928 806 1161 595 
Q 1394 384 1728 384 
Q 2125 384 2398 659 
Q 2672 934 2672 1341 
Q 2672 1728 2419 1979 
Q 2166 2231 1775 2231 
Q 1616 2231 1378 2169 
L 1441 2663 
Q 1497 2656 1531 2656 
Q 1891 2656 2178 2843 
Q 2466 3031 2466 3422 
Q 2466 3731 2256 3934 
Q 2047 4138 1716 4138 
Q 1388 4138 1169 3931 
Q 950 3725 888 3313 
L 325 3413 
Q 428 3978 793 4289 
Q 1159 4600 1703 4600 
Q 2078 4600 2393 4439 
Q 2709 4278 2876 4000 
Q 3044 3722 3044 3409 
Q 3044 3113 2884 2869 
Q 2725 2625 2413 2481 
Q 2819 2388 3044 2092 
Q 3269 1797 3269 1353 
Q 3269 753 2831 336 
Q 2394 -81 1725 -81 
Q 1122 -81 723 278 
Q 325 638 269 1209 
z
" transform="scale(0.015625)"/>
       </defs>
       <use xlink:href="#ArialMT-33"/>
       <use xlink:href="#ArialMT-3a" transform="translate(55.615234 0)"/>
       <use xlink:href="#ArialMT-30" transform="translate(83.398438 0)"/>
       <use xlink:href="#ArialMT-30" transform="translate(139.013672 0)"/>
      </g>
     </g>
    </g>
    <g id="xtick_4">
     <g id="line2d_45">
      <g>
       <use xlink:href="#m8cd7b8eb23" x="181.836875" y="257.76" style="stroke: #000000"/>
      </g>
     </g>
     <g id="text_4">
      <!-- 4:00 -->
      <g transform="translate(184.939062 289.613125) rotate(-90) scale(0.12 -0.12)">
       <defs>
        <path id="ArialMT-34" d="M 2069 0 
L 2069 1097 
L 81 1097 
L 81 1613 
L 2172 4581 
L 2631 4581 
L 2631 1613 
L 3250 1613 
L 3250 1097 
L 2631 1097 
L 2631 0 
L 2069 0 
z
M 2069 1613 
L 2069 3678 
L 634 1613 
L 2069 1613 
z
" transform="scale(0.015625)"/>
       </defs>
       <use xlink:href="#ArialMT-34"/>
       <use xlink:href="#ArialMT-3a" transform="translate(55.615234 0)"/>
       <use xlink:href="#ArialMT-30" transform="translate(83.398438 0)"/>
       <use xlink:href="#ArialMT-30" transform="translate(139.013672 0)"/>
      </g>
     </g>
    </g>
    <g id="xtick_5">
     <g id="line2d_46">
      <g>
       <use xlink:href="#m8cd7b8eb23" x="209.736875" y="257.76" style="stroke: #000000"/>
      </g>
     </g>
     <g id="text_5">
      <!-- 5:00 -->
      <g transform="translate(212.839063 289.613125) rotate(-90) scale(0.12 -0.12)">
       <defs>
        <path id="ArialMT-35" d="M 266 1200 
L 856 1250 
Q 922 819 1161 601 
Q 1400 384 1738 384 
Q 2144 384 2425 690 
Q 2706 997 2706 1503 
Q 2706 1984 2436 2262 
Q 2166 2541 1728 2541 
Q 1456 2541 1237 2417 
Q 1019 2294 894 2097 
L 366 2166 
L 809 4519 
L 3088 4519 
L 3088 3981 
L 1259 3981 
L 1013 2750 
Q 1425 3038 1878 3038 
Q 2478 3038 2890 2622 
Q 3303 2206 3303 1553 
Q 3303 931 2941 478 
Q 2500 -78 1738 -78 
Q 1113 -78 717 272 
Q 322 622 266 1200 
z
" transform="scale(0.015625)"/>
       </defs>
       <use xlink:href="#ArialMT-35"/>
       <use xlink:href="#ArialMT-3a" transform="translate(55.615234 0)"/>
       <use xlink:href="#ArialMT-30" transform="translate(83.398438 0)"/>
       <use xlink:href="#ArialMT-30" transform="translate(139.013672 0)"/>
      </g>
     </g>
    </g>
    <g id="xtick_6">
     <g id="line2d_47">
      <g>
       <use xlink:href="#m8cd7b8eb23" x="237.636875" y="257.76" style="stroke: #000000"/>
      </g>
     </g>
     <g id="text_6">
      <!-- 6:00 -->
      <g transform="translate(240.739062 289.613125) rotate(-90) scale(0.12 -0.12)">
       <defs>
        <path id="ArialMT-36" d="M 3184 3459 
L 2625 3416 
Q 2550 3747 2413 3897 
Q 2184 4138 1850 4138 
Q 1581 4138 1378 3988 
Q 1113 3794 959 3422 
Q 806 3050 800 2363 
Q 1003 2672 1297 2822 
Q 1591 2972 1913 2972 
Q 2475 2972 2870 2558 
Q 3266 2144 3266 1488 
Q 3266 1056 3080 686 
Q 2894 316 2569 119 
Q 2244 -78 1831 -78 
Q 1128 -78 684 439 
Q 241 956 241 2144 
Q 241 3472 731 4075 
Q 1159 4600 1884 4600 
Q 2425 4600 2770 4297 
Q 3116 3994 3184 3459 
z
M 888 1484 
Q 888 1194 1011 928 
Q 1134 663 1356 523 
Q 1578 384 1822 384 
Q 2178 384 2434 671 
Q 2691 959 2691 1453 
Q 2691 1928 2437 2201 
Q 2184 2475 1800 2475 
Q 1419 2475 1153 2201 
Q 888 1928 888 1484 
z
" transform="scale(0.015625)"/>
       </defs>
       <use xlink:href="#ArialMT-36"/>
       <use xlink:href="#ArialMT-3a" transform="translate(55.615234 0)"/>
       <use xlink:href="#ArialMT-30" transform="translate(83.398438 0)"/>
       <use xlink:href="#ArialMT-30" transform="translate(139.013672 0)"/>
      </g>
     </g>
    </g>
    <g id="xtick_7">
     <g id="line2d_48">
      <g>
       <use xlink:href="#m8cd7b8eb23" x="265.536875" y="257.76" style="stroke: #000000"/>
      </g>
     </g>
     <g id="text_7">
      <!-- 7:00 -->
      <g transform="translate(268.639063 289.613125) rotate(-90) scale(0.12 -0.12)">
       <defs>
        <path id="ArialMT-37" d="M 303 3981 
L 303 4522 
L 3269 4522 
L 3269 4084 
Q 2831 3619 2401 2847 
Q 1972 2075 1738 1259 
Q 1569 684 1522 0 
L 944 0 
Q 953 541 1156 1306 
Q 1359 2072 1739 2783 
Q 2119 3494 2547 3981 
L 303 3981 
z
" transform="scale(0.015625)"/>
       </defs>
       <use xlink:href="#ArialMT-37"/>
       <use xlink:href="#ArialMT-3a" transform="translate(55.615234 0)"/>
       <use xlink:href="#ArialMT-30" transform="translate(83.398438 0)"/>
       <use xlink:href="#ArialMT-30" transform="translate(139.013672 0)"/>
      </g>
     </g>
    </g>
    <g id="xtick_8">
     <g id="line2d_49">
      <g>
       <use xlink:href="#m8cd7b8eb23" x="293.436875" y="257.76" style="stroke: #000000"/>
      </g>
     </g>
     <g id="text_8">
      <!-- 8:00 -->
      <g transform="translate(296.539062 289.613125) rotate(-90) scale(0.12 -0.12)">
       <defs>
        <path id="ArialMT-38" d="M 1131 2484 
Q 781 2613 612 2850 
Q 444 3088 444 3419 
Q 444 3919 803 4259 
Q 1163 4600 1759 4600 
Q 2359 4600 2725 4251 
Q 3091 3903 3091 3403 
Q 3091 3084 2923 2848 
Q 2756 2613 2416 2484 
Q 2838 2347 3058 2040 
Q 3278 1734 3278 1309 
Q 3278 722 2862 322 
Q 2447 -78 1769 -78 
Q 1091 -78 675 323 
Q 259 725 259 1325 
Q 259 1772 486 2073 
Q 713 2375 1131 2484 
z
M 1019 3438 
Q 1019 3113 1228 2906 
Q 1438 2700 1772 2700 
Q 2097 2700 2305 2904 
Q 2513 3109 2513 3406 
Q 2513 3716 2298 3927 
Q 2084 4138 1766 4138 
Q 1444 4138 1231 3931 
Q 1019 3725 1019 3438 
z
M 838 1322 
Q 838 1081 952 856 
Q 1066 631 1291 507 
Q 1516 384 1775 384 
Q 2178 384 2440 643 
Q 2703 903 2703 1303 
Q 2703 1709 2433 1975 
Q 2163 2241 1756 2241 
Q 1359 2241 1098 1978 
Q 838 1716 838 1322 
z
" transform="scale(0.015625)"/>
       </defs>
       <use xlink:href="#ArialMT-38"/>
       <use xlink:href="#ArialMT-3a" transform="translate(55.615234 0)"/>
       <use xlink:href="#ArialMT-30" transform="translate(83.398438 0)"/>
       <use xlink:href="#ArialMT-30" transform="translate(139.013672 0)"/>
      </g>
     </g>
    </g>
    <g id="xtick_9">
     <g id="line2d_50">
      <g>
       <use xlink:href="#m8cd7b8eb23" x="321.336875" y="257.76" style="stroke: #000000"/>
      </g>
     </g>
     <g id="text_9">
      <!-- 9:00 -->
      <g transform="translate(324.439062 289.613125) rotate(-90) scale(0.12 -0.12)">
       <defs>
        <path id="ArialMT-39" d="M 350 1059 
L 891 1109 
Q 959 728 1153 556 
Q 1347 384 1650 384 
Q 1909 384 2104 503 
Q 2300 622 2425 820 
Q 2550 1019 2634 1356 
Q 2719 1694 2719 2044 
Q 2719 2081 2716 2156 
Q 2547 1888 2255 1720 
Q 1963 1553 1622 1553 
Q 1053 1553 659 1965 
Q 266 2378 266 3053 
Q 266 3750 677 4175 
Q 1088 4600 1706 4600 
Q 2153 4600 2523 4359 
Q 2894 4119 3086 3673 
Q 3278 3228 3278 2384 
Q 3278 1506 3087 986 
Q 2897 466 2520 194 
Q 2144 -78 1638 -78 
Q 1100 -78 759 220 
Q 419 519 350 1059 
z
M 2653 3081 
Q 2653 3566 2395 3850 
Q 2138 4134 1775 4134 
Q 1400 4134 1122 3828 
Q 844 3522 844 3034 
Q 844 2597 1108 2323 
Q 1372 2050 1759 2050 
Q 2150 2050 2401 2323 
Q 2653 2597 2653 3081 
z
" transform="scale(0.015625)"/>
       </defs>
       <use xlink:href="#ArialMT-39"/>
       <use xlink:href="#ArialMT-3a" transform="translate(55.615234 0)"/>
       <use xlink:href="#ArialMT-30" transform="translate(83.398438 0)"/>
       <use xlink:href="#ArialMT-30" transform="translate(139.013672 0)"/>
      </g>
     </g>
    </g>
    <g id="xtick_10">
     <g id="line2d_51">
      <g>
       <use xlink:href="#m8cd7b8eb23" x="349.236875" y="257.76" style="stroke: #000000"/>
      </g>
     </g>
     <g id="text_10">
      <!-- 10:00 -->
      <g transform="translate(352.339063 296.28625) rotate(-90) scale(0.12 -0.12)">
       <use xlink:href="#ArialMT-31"/>
       <use xlink:href="#ArialMT-30" transform="translate(55.615234 0)"/>
       <use xlink:href="#ArialMT-3a" transform="translate(111.230469 0)"/>
       <use xlink:href="#ArialMT-30" transform="translate(139.013672 0)"/>
       <use xlink:href="#ArialMT-30" transform="translate(194.628906 0)"/>
      </g>
     </g>
    </g>
    <g id="xtick_11">
     <g id="line2d_52">
      <g>
       <use xlink:href="#m8cd7b8eb23" x="377.136875" y="257.76" style="stroke: #000000"/>
      </g>
     </g>
     <g id="text_11">
      <!-- 11:00 -->
      <g transform="translate(380.239063 295.40125) rotate(-90) scale(0.12 -0.12)">
       <use xlink:href="#ArialMT-31"/>
       <use xlink:href="#ArialMT-31" transform="translate(48.240234 0)"/>
       <use xlink:href="#ArialMT-3a" transform="translate(103.855469 0)"/>
       <use xlink:href="#ArialMT-30" transform="translate(131.638672 0)"/>
       <use xlink:href="#ArialMT-30" transform="translate(187.253906 0)"/>
      </g>
     </g>
    </g>
    <g id="xtick_12">
     <g id="line2d_53">
      <g>
       <use xlink:href="#m8cd7b8eb23" x="405.036875" y="257.76" style="stroke: #000000"/>
      </g>
     </g>
     <g id="text_12">
      <!-- 12:00 -->
      <g transform="translate(408.139063 296.28625) rotate(-90) scale(0.12 -0.12)">
       <use xlink:href="#ArialMT-31"/>
       <use xlink:href="#ArialMT-32" transform="translate(55.615234 0)"/>
       <use xlink:href="#ArialMT-3a" transform="translate(111.230469 0)"/>
       <use xlink:href="#ArialMT-30" transform="translate(139.013672 0)"/>
       <use xlink:href="#ArialMT-30" transform="translate(194.628906 0)"/>
      </g>
     </g>
    </g>
    <g id="xtick_13">
     <g id="line2d_54">
      <g>
       <use xlink:href="#m8cd7b8eb23" x="432.936875" y="257.76" style="stroke: #000000"/>
      </g>
     </g>
     <g id="text_13">
      <!-- 13:00 -->
      <g transform="translate(436.039062 296.28625) rotate(-90) scale(0.12 -0.12)">
       <use xlink:href="#ArialMT-31"/>
       <use xlink:href="#ArialMT-33" transform="translate(55.615234 0)"/>
       <use xlink:href="#ArialMT-3a" transform="translate(111.230469 0)"/>
       <use xlink:href="#ArialMT-30" transform="translate(139.013672 0)"/>
       <use xlink:href="#ArialMT-30" transform="translate(194.628906 0)"/>
      </g>
     </g>
    </g>
    <g id="xtick_14">
     <g id="line2d_55">
      <g>
       <use xlink:href="#m8cd7b8eb23" x="460.836875" y="257.76" style="stroke: #000000"/>
      </g>
     </g>
     <g id="text_14">
      <!-- 14:00 -->
      <g transform="translate(463.939062 296.28625) rotate(-90) scale(0.12 -0.12)">
       <use xlink:href="#ArialMT-31"/>
       <use xlink:href="#ArialMT-34" transform="translate(55.615234 0)"/>
       <use xlink:href="#ArialMT-3a" transform="translate(111.230469 0)"/>
       <use xlink:href="#ArialMT-30" transform="translate(139.013672 0)"/>
       <use xlink:href="#ArialMT-30" transform="translate(194.628906 0)"/>
      </g>
     </g>
    </g>
    <g id="xtick_15">
     <g id="line2d_56">
      <g>
       <use xlink:href="#m8cd7b8eb23" x="488.736875" y="257.76" style="stroke: #000000"/>
      </g>
     </g>
     <g id="text_15">
      <!-- 15:00 -->
      <g transform="translate(491.839062 296.28625) rotate(-90) scale(0.12 -0.12)">
       <use xlink:href="#ArialMT-31"/>
       <use xlink:href="#ArialMT-35" transform="translate(55.615234 0)"/>
       <use xlink:href="#ArialMT-3a" transform="translate(111.230469 0)"/>
       <use xlink:href="#ArialMT-30" transform="translate(139.013672 0)"/>
       <use xlink:href="#ArialMT-30" transform="translate(194.628906 0)"/>
      </g>
     </g>
    </g>
    <g id="xtick_16">
     <g id="line2d_57">
      <g>
       <use xlink:href="#m8cd7b8eb23" x="516.636875" y="257.76" style="stroke: #000000"/>
      </g>
     </g>
     <g id="text_16">
      <!-- 16:00 -->
      <g transform="translate(519.739063 296.28625) rotate(-90) scale(0.12 -0.12)">
       <use xlink:href="#ArialMT-31"/>
       <use xlink:href="#ArialMT-36" transform="translate(55.615234 0)"/>
       <use xlink:href="#ArialMT-3a" transform="translate(111.230469 0)"/>
       <use xlink:href="#ArialMT-30" transform="translate(139.013672 0)"/>
       <use xlink:href="#ArialMT-30" transform="translate(194.628906 0)"/>
      </g>
     </g>
    </g>
    <g id="xtick_17">
     <g id="line2d_58">
      <g>
       <use xlink:href="#m8cd7b8eb23" x="544.536875" y="257.76" style="stroke: #000000"/>
      </g>
     </g>
     <g id="text_17">
      <!-- 17:00 -->
      <g transform="translate(547.639063 296.28625) rotate(-90) scale(0.12 -0.12)">
       <use xlink:href="#ArialMT-31"/>
       <use xlink:href="#ArialMT-37" transform="translate(55.615234 0)"/>
       <use xlink:href="#ArialMT-3a" transform="translate(111.230469 0)"/>
       <use xlink:href="#ArialMT-30" transform="translate(139.013672 0)"/>
       <use xlink:href="#ArialMT-30" transform="translate(194.628906 0)"/>
      </g>
     </g>
    </g>
    <g id="xtick_18">
     <g id="line2d_59">
      <g>
       <use xlink:href="#m8cd7b8eb23" x="572.436875" y="257.76" style="stroke: #000000"/>
      </g>
     </g>
     <g id="text_18">
      <!-- 18:00 -->
      <g transform="translate(575.539062 296.28625) rotate(-90) scale(0.12 -0.12)">
       <use xlink:href="#ArialMT-31"/>
       <use xlink:href="#ArialMT-38" transform="translate(55.615234 0)"/>
       <use xlink:href="#ArialMT-3a" transform="translate(111.230469 0)"/>
       <use xlink:href="#ArialMT-30" transform="translate(139.013672 0)"/>
       <use xlink:href="#ArialMT-30" transform="translate(194.628906 0)"/>
      </g>
     </g>
    </g>
    <g id="xtick_19">
     <g id="line2d_60">
      <g>
       <use xlink:href="#m8cd7b8eb23" x="600.336875" y="257.76" style="stroke: #000000"/>
      </g>
     </g>
     <g id="text_19">
      <!-- 19:00 -->
      <g transform="translate(603.439062 296.28625) rotate(-90) scale(0.12 -0.12)">
       <use xlink:href="#ArialMT-31"/>
       <use xlink:href="#ArialMT-39" transform="translate(55.615234 0)"/>
       <use xlink:href="#ArialMT-3a" transform="translate(111.230469 0)"/>
       <use xlink:href="#ArialMT-30" transform="translate(139.013672 0)"/>
       <use xlink:href="#ArialMT-30" transform="translate(194.628906 0)"/>
      </g>
     </g>
    </g>
    <g id="xtick_20">
     <g id="line2d_61">
      <g>
       <use xlink:href="#m8cd7b8eb23" x="628.236875" y="257.76" style="stroke: #000000"/>
      </g>
     </g>
     <g id="text_20">
      <!-- 20:00 -->
      <g transform="translate(631.339063 296.28625) rotate(-90) scale(0.12 -0.12)">
       <use xlink:href="#ArialMT-32"/>
       <use xlink:href="#ArialMT-30" transform="translate(55.615234 0)"/>
       <use xlink:href="#ArialMT-3a" transform="translate(111.230469 0)"/>
       <use xlink:href="#ArialMT-30" transform="translate(139.013672 0)"/>
       <use xlink:href="#ArialMT-30" transform="translate(194.628906 0)"/>
      </g>
     </g>
    </g>
    <g id="xtick_21">
     <g id="line2d_62">
      <g>
       <use xlink:href="#m8cd7b8eb23" x="656.136875" y="257.76" style="stroke: #000000"/>
      </g>
     </g>
     <g id="text_21">
      <!-- 21:00 -->
      <g transform="translate(659.239063 296.28625) rotate(-90) scale(0.12 -0.12)">
       <use xlink:href="#ArialMT-32"/>
       <use xlink:href="#ArialMT-31" transform="translate(55.615234 0)"/>
       <use xlink:href="#ArialMT-3a" transform="translate(111.230469 0)"/>
       <use xlink:href="#ArialMT-30" transform="translate(139.013672 0)"/>
       <use xlink:href="#ArialMT-30" transform="translate(194.628906 0)"/>
      </g>
     </g>
    </g>
    <g id="xtick_22">
     <g id="line2d_63">
      <g>
       <use xlink:href="#m8cd7b8eb23" x="684.036875" y="257.76" style="stroke: #000000"/>
      </g>
     </g>
     <g id="text_22">
      <!-- 22:00 -->
      <g transform="translate(687.139063 296.28625) rotate(-90) scale(0.12 -0.12)">
       <use xlink:href="#ArialMT-32"/>
       <use xlink:href="#ArialMT-32" transform="translate(55.615234 0)"/>
       <use xlink:href="#ArialMT-3a" transform="translate(111.230469 0)"/>
       <use xlink:href="#ArialMT-30" transform="translate(139.013672 0)"/>
       <use xlink:href="#ArialMT-30" transform="translate(194.628906 0)"/>
      </g>
     </g>
    </g>
    <g id="xtick_23">
     <g id="line2d_64">
      <g>
       <use xlink:href="#m8cd7b8eb23" x="711.936875" y="257.76" style="stroke: #000000"/>
      </g>
     </g>
     <g id="text_23">
      <!-- 23:00 -->
      <g transform="translate(715.039062 296.28625) rotate(-90) scale(0.12 -0.12)">
       <use xlink:href="#ArialMT-32"/>
       <use xlink:href="#ArialMT-33" transform="translate(55.615234 0)"/>
       <use xlink:href="#ArialMT-3a" transform="translate(111.230469 0)"/>
       <use xlink:href="#ArialMT-30" transform="translate(139.013672 0)"/>
       <use xlink:href="#ArialMT-30" transform="translate(194.628906 0)"/>
      </g>
     </g>
    </g>
    <g id="xtick_24">
     <g id="line2d_65">
      <g>
       <use xlink:href="#m8cd7b8eb23" x="739.836875" y="257.76" style="stroke: #000000"/>
      </g>
     </g>
     <g id="text_24">
      <!-- 24:00 -->
      <g transform="translate(742.939062 296.28625) rotate(-90) scale(0.12 -0.12)">
       <use xlink:href="#ArialMT-32"/>
       <use xlink:href="#ArialMT-34" transform="translate(55.615234 0)"/>
       <use xlink:href="#ArialMT-3a" transform="translate(111.230469 0)"/>
       <use xlink:href="#ArialMT-30" transform="translate(139.013672 0)"/>
       <use xlink:href="#ArialMT-30" transform="translate(194.628906 0)"/>
      </g>
     </g>
    </g>
   </g>
   <g id="matplotlib.axis_2">
    <g id="ytick_1">
     <g id="line2d_66">
      <defs>
       <path id="m8a8975061f" d="M 0 0 
L -5 0 
" style="stroke: #000000; stroke-opacity: 0; stroke-width: 1.5"/>
      </defs>
      <g>
       <use xlink:href="#m8a8975061f" x="84.186875" y="245.44" style="fill-opacity: 0; stroke: #000000; stroke-opacity: 0; stroke-width: 1.5"/>
      </g>
     </g>
     <g id="text_25">
      <!-- 0 -->
      <g transform="translate(66.789375 251.16625) scale(0.16 -0.16)">
       <use xlink:href="#ArialMT-30"/>
      </g>
     </g>
    </g>
    <g id="ytick_2">
     <g id="line2d_67">
      <g>
       <use xlink:href="#m8a8975061f" x="84.186875" y="208.48" style="fill-opacity: 0; stroke: #000000; stroke-opacity: 0; stroke-width: 1.5"/>
      </g>
     </g>
     <g id="text_26">
      <!-- 3 -->
      <g transform="translate(66.789375 214.20625) scale(0.16 -0.16)">
       <use xlink:href="#ArialMT-33"/>
      </g>
     </g>
    </g>
    <g id="ytick_3">
     <g id="line2d_68">
      <g>
       <use xlink:href="#m8a8975061f" x="84.186875" y="171.52" style="fill-opacity: 0; stroke: #000000; stroke-opacity: 0; stroke-width: 1.5"/>
      </g>
     </g>
     <g id="text_27">
      <!-- 6 -->
      <g transform="translate(66.789375 177.24625) scale(0.16 -0.16)">
       <use xlink:href="#ArialMT-36"/>
      </g>
     </g>
    </g>
    <g id="ytick_4">
     <g id="line2d_69">
      <g>
       <use xlink:href="#m8a8975061f" x="84.186875" y="134.56" style="fill-opacity: 0; stroke: #000000; stroke-opacity: 0; stroke-width: 1.5"/>
      </g>
     </g>
     <g id="text_28">
      <!-- 9 -->
      <g transform="translate(66.789375 140.28625) scale(0.16 -0.16)">
       <use xlink:href="#ArialMT-39"/>
      </g>
     </g>
    </g>
    <g id="ytick_5">
     <g id="line2d_70">
      <g>
       <use xlink:href="#m8a8975061f" x="84.186875" y="97.6" style="fill-opacity: 0; stroke: #000000; stroke-opacity: 0; stroke-width: 1.5"/>
      </g>
     </g>
     <g id="text_29">
      <!-- 12 -->
      <g transform="translate(57.891875 103.32625) scale(0.16 -0.16)">
       <use xlink:href="#ArialMT-31"/>
       <use xlink:href="#ArialMT-32" transform="translate(55.615234 0)"/>
      </g>
     </g>
    </g>
    <g id="ytick_6">
     <g id="line2d_71">
      <g>
       <use xlink:href="#m8a8975061f" x="84.186875" y="60.64" style="fill-opacity: 0; stroke: #000000; stroke-opacity: 0; stroke-width: 1.5"/>
      </g>
     </g>
     <g id="text_30">
      <!-- 15 -->
      <g transform="translate(57.891875 66.36625) scale(0.16 -0.16)">
       <use xlink:href="#ArialMT-31"/>
       <use xlink:href="#ArialMT-35" transform="translate(55.615234 0)"/>
      </g>
     </g>
    </g>
    <g id="text_31">
     <!-- Ethanol_E85 (Gallon) -->
     <g transform="translate(49.103437 232.928437) rotate(-90) scale(0.18 -0.18)">
      <defs>
       <path id="ArialMT-45" d="M 506 0 
L 506 4581 
L 3819 4581 
L 3819 4041 
L 1113 4041 
L 1113 2638 
L 3647 2638 
L 3647 2100 
L 1113 2100 
L 1113 541 
L 3925 541 
L 3925 0 
L 506 0 
z
" transform="scale(0.015625)"/>
       <path id="ArialMT-74" d="M 1650 503 
L 1731 6 
Q 1494 -44 1306 -44 
Q 1000 -44 831 53 
Q 663 150 594 308 
Q 525 466 525 972 
L 525 2881 
L 113 2881 
L 113 3319 
L 525 3319 
L 525 4141 
L 1084 4478 
L 1084 3319 
L 1650 3319 
L 1650 2881 
L 1084 2881 
L 1084 941 
Q 1084 700 1114 631 
Q 1144 563 1211 522 
Q 1278 481 1403 481 
Q 1497 481 1650 503 
z
" transform="scale(0.015625)"/>
       <path id="ArialMT-68" d="M 422 0 
L 422 4581 
L 984 4581 
L 984 2938 
Q 1378 3394 1978 3394 
Q 2347 3394 2619 3248 
Q 2891 3103 3008 2847 
Q 3125 2591 3125 2103 
L 3125 0 
L 2563 0 
L 2563 2103 
Q 2563 2525 2380 2717 
Q 2197 2909 1863 2909 
Q 1613 2909 1392 2779 
Q 1172 2650 1078 2428 
Q 984 2206 984 1816 
L 984 0 
L 422 0 
z
" transform="scale(0.015625)"/>
       <path id="ArialMT-61" d="M 2588 409 
Q 2275 144 1986 34 
Q 1697 -75 1366 -75 
Q 819 -75 525 192 
Q 231 459 231 875 
Q 231 1119 342 1320 
Q 453 1522 633 1644 
Q 813 1766 1038 1828 
Q 1203 1872 1538 1913 
Q 2219 1994 2541 2106 
Q 2544 2222 2544 2253 
Q 2544 2597 2384 2738 
Q 2169 2928 1744 2928 
Q 1347 2928 1158 2789 
Q 969 2650 878 2297 
L 328 2372 
Q 403 2725 575 2942 
Q 747 3159 1072 3276 
Q 1397 3394 1825 3394 
Q 2250 3394 2515 3294 
Q 2781 3194 2906 3042 
Q 3031 2891 3081 2659 
Q 3109 2516 3109 2141 
L 3109 1391 
Q 3109 606 3145 398 
Q 3181 191 3288 0 
L 2700 0 
Q 2613 175 2588 409 
z
M 2541 1666 
Q 2234 1541 1622 1453 
Q 1275 1403 1131 1340 
Q 988 1278 909 1158 
Q 831 1038 831 891 
Q 831 666 1001 516 
Q 1172 366 1500 366 
Q 1825 366 2078 508 
Q 2331 650 2450 897 
Q 2541 1088 2541 1459 
L 2541 1666 
z
" transform="scale(0.015625)"/>
       <path id="ArialMT-6e" d="M 422 0 
L 422 3319 
L 928 3319 
L 928 2847 
Q 1294 3394 1984 3394 
Q 2284 3394 2536 3286 
Q 2788 3178 2913 3003 
Q 3038 2828 3088 2588 
Q 3119 2431 3119 2041 
L 3119 0 
L 2556 0 
L 2556 2019 
Q 2556 2363 2490 2533 
Q 2425 2703 2258 2804 
Q 2091 2906 1866 2906 
Q 1506 2906 1245 2678 
Q 984 2450 984 1813 
L 984 0 
L 422 0 
z
" transform="scale(0.015625)"/>
       <path id="ArialMT-6f" d="M 213 1659 
Q 213 2581 725 3025 
Q 1153 3394 1769 3394 
Q 2453 3394 2887 2945 
Q 3322 2497 3322 1706 
Q 3322 1066 3130 698 
Q 2938 331 2570 128 
Q 2203 -75 1769 -75 
Q 1072 -75 642 372 
Q 213 819 213 1659 
z
M 791 1659 
Q 791 1022 1069 705 
Q 1347 388 1769 388 
Q 2188 388 2466 706 
Q 2744 1025 2744 1678 
Q 2744 2294 2464 2611 
Q 2184 2928 1769 2928 
Q 1347 2928 1069 2612 
Q 791 2297 791 1659 
z
" transform="scale(0.015625)"/>
       <path id="ArialMT-6c" d="M 409 0 
L 409 4581 
L 972 4581 
L 972 0 
L 409 0 
z
" transform="scale(0.015625)"/>
       <path id="ArialMT-5f" d="M -97 -1272 
L -97 -866 
L 3631 -866 
L 3631 -1272 
L -97 -1272 
z
" transform="scale(0.015625)"/>
       <path id="ArialMT-20" transform="scale(0.015625)"/>
       <path id="ArialMT-28" d="M 1497 -1347 
Q 1031 -759 709 28 
Q 388 816 388 1659 
Q 388 2403 628 3084 
Q 909 3875 1497 4659 
L 1900 4659 
Q 1522 4009 1400 3731 
Q 1209 3300 1100 2831 
Q 966 2247 966 1656 
Q 966 153 1900 -1347 
L 1497 -1347 
z
" transform="scale(0.015625)"/>
       <path id="ArialMT-47" d="M 2638 1797 
L 2638 2334 
L 4578 2338 
L 4578 638 
Q 4131 281 3656 101 
Q 3181 -78 2681 -78 
Q 2006 -78 1454 211 
Q 903 500 622 1047 
Q 341 1594 341 2269 
Q 341 2938 620 3517 
Q 900 4097 1425 4378 
Q 1950 4659 2634 4659 
Q 3131 4659 3532 4498 
Q 3934 4338 4162 4050 
Q 4391 3763 4509 3300 
L 3963 3150 
Q 3859 3500 3706 3700 
Q 3553 3900 3268 4020 
Q 2984 4141 2638 4141 
Q 2222 4141 1919 4014 
Q 1616 3888 1430 3681 
Q 1244 3475 1141 3228 
Q 966 2803 966 2306 
Q 966 1694 1177 1281 
Q 1388 869 1791 669 
Q 2194 469 2647 469 
Q 3041 469 3416 620 
Q 3791 772 3984 944 
L 3984 1797 
L 2638 1797 
z
" transform="scale(0.015625)"/>
       <path id="ArialMT-29" d="M 791 -1347 
L 388 -1347 
Q 1322 153 1322 1656 
Q 1322 2244 1188 2822 
Q 1081 3291 891 3722 
Q 769 4003 388 4659 
L 791 4659 
Q 1378 3875 1659 3084 
Q 1900 2403 1900 1659 
Q 1900 816 1576 28 
Q 1253 -759 791 -1347 
z
" transform="scale(0.015625)"/>
      </defs>
      <use xlink:href="#ArialMT-45"/>
      <use xlink:href="#ArialMT-74" transform="translate(66.699219 0)"/>
      <use xlink:href="#ArialMT-68" transform="translate(94.482422 0)"/>
      <use xlink:href="#ArialMT-61" transform="translate(150.097656 0)"/>
      <use xlink:href="#ArialMT-6e" transform="translate(205.712891 0)"/>
      <use xlink:href="#ArialMT-6f" transform="translate(261.328125 0)"/>
      <use xlink:href="#ArialMT-6c" transform="translate(316.943359 0)"/>
      <use xlink:href="#ArialMT-5f" transform="translate(339.160156 0)"/>
      <use xlink:href="#ArialMT-45" transform="translate(394.775391 0)"/>
      <use xlink:href="#ArialMT-38" transform="translate(461.474609 0)"/>
      <use xlink:href="#ArialMT-35" transform="translate(517.089844 0)"/>
      <use xlink:href="#ArialMT-20" transform="translate(572.705078 0)"/>
      <use xlink:href="#ArialMT-28" transform="translate(600.488281 0)"/>
      <use xlink:href="#ArialMT-47" transform="translate(633.789062 0)"/>
      <use xlink:href="#ArialMT-61" transform="translate(711.572266 0)"/>
      <use xlink:href="#ArialMT-6c" transform="translate(767.1875 0)"/>
      <use xlink:href="#ArialMT-6c" transform="translate(789.404297 0)"/>
      <use xlink:href="#ArialMT-6f" transform="translate(811.621094 0)"/>
      <use xlink:href="#ArialMT-6e" transform="translate(867.236328 0)"/>
      <use xlink:href="#ArialMT-29" transform="translate(922.851562 0)"/>
     </g>
    </g>
   </g>
   <g id="line2d_72">
    <path d="M 98.136875 238.798832 
L 126.036875 241.567368 
L 153.936875 242.180274 
L 181.836875 241.946467 
L 209.736875 238.52348 
L 237.636875 221.740838 
L 265.536875 204.424085 
L 293.436875 180.775089 
L 321.336875 171.948719 
L 349.236875 168.554121 
L 377.136875 166.262531 
L 405.036875 163.529609 
L 432.936875 162.612477 
L 460.836875 162.350745 
L 488.736875 161.313741 
L 516.636875 159.866402 
L 544.536875 159.639461 
L 572.436875 161.493116 
L 600.336875 168.974636 
L 628.236875 182.410991 
L 656.136875 196.794458 
L 684.036875 213.083061 
L 711.936875 229.335041 
L 739.836875 235.209473 
" clip-path="url(#p295da75d60)" style="fill: none; stroke: #1f77b4; stroke-opacity: 0.8; stroke-width: 1.5; stroke-linecap: round"/>
   </g>
   <g id="line2d_73">
    <path d="M 98.136875 239.060612 
L 126.036875 241.366651 
L 153.936875 241.845836 
L 181.836875 241.686413 
L 209.736875 238.973204 
L 237.636875 225.233195 
L 265.536875 209.117891 
L 293.436875 190.232192 
L 321.336875 183.79583 
L 349.236875 181.425777 
L 377.136875 180.534227 
L 405.036875 177.44646 
L 432.936875 176.297201 
L 460.836875 176.033065 
L 488.736875 175.295145 
L 516.636875 174.136797 
L 544.536875 173.918089 
L 572.436875 175.017684 
L 600.336875 180.55519 
L 628.236875 193.55034 
L 656.136875 205.857582 
L 684.036875 218.819608 
L 711.936875 231.149513 
L 739.836875 236.065699 
" clip-path="url(#p295da75d60)" style="fill: none; stroke: #dbdb8d; stroke-opacity: 0.8; stroke-width: 1.5; stroke-linecap: round"/>
   </g>
   <g id="line2d_74">
    <path d="M 98.136875 187.369676 
L 126.036875 202.621767 
L 153.936875 205.563517 
L 181.836875 204.952468 
L 209.736875 194.079146 
L 237.636875 146.179601 
L 265.536875 101.120658 
L 293.436875 89.23634 
L 321.336875 83.862318 
L 349.236875 80.436298 
L 377.136875 77.524452 
L 405.036875 73.943701 
L 432.936875 73.151922 
L 460.836875 72.289587 
L 488.736875 71.642119 
L 516.636875 70.077806 
L 544.536875 70.41949 
L 572.436875 72.16692 
L 600.336875 80.498849 
L 628.236875 90.980906 
L 656.136875 90.652105 
L 684.036875 108.943574 
L 711.936875 139.52927 
L 739.836875 160.912487 
" clip-path="url(#p295da75d60)" style="fill: none; stroke: #ffbb78; stroke-opacity: 0.8; stroke-width: 1.5; stroke-linecap: round"/>
   </g>
   <g id="line2d_75">
    <path d="M 98.136875 183.200014 
L 126.036875 199.730726 
L 153.936875 202.788946 
L 181.836875 200.993779 
L 209.736875 189.616317 
L 237.636875 131.826424 
L 265.536875 96.550073 
L 293.436875 87.748339 
L 321.336875 83.318734 
L 349.236875 80.456839 
L 377.136875 76.234953 
L 405.036875 72.260629 
L 432.936875 71.482649 
L 460.836875 71.724097 
L 488.736875 71.275492 
L 516.636875 70.444041 
L 544.536875 70.199572 
L 572.436875 71.770428 
L 600.336875 80.142353 
L 628.236875 91.795562 
L 656.136875 102.670004 
L 684.036875 94.971764 
L 711.936875 129.759766 
L 739.836875 153.418102 
" clip-path="url(#p295da75d60)" style="fill: none; stroke: #2ca02c; stroke-opacity: 0.8; stroke-width: 1.5; stroke-linecap: round"/>
   </g>
   <g id="line2d_76">
    <path d="M 98.136875 243.158223 
L 126.036875 244.321715 
L 153.936875 244.588792 
L 181.836875 244.500141 
L 209.736875 243.116007 
L 237.636875 221.692774 
L 265.536875 202.257836 
L 293.436875 179.513672 
L 321.336875 170.480043 
L 349.236875 166.256392 
L 377.136875 163.078336 
L 405.036875 159.437657 
L 432.936875 158.620814 
L 460.836875 158.708261 
L 488.736875 158.317487 
L 516.636875 156.948829 
L 544.536875 157.616561 
L 572.436875 159.039307 
L 600.336875 166.513928 
L 628.236875 182.855727 
L 656.136875 199.602978 
L 684.036875 216.110453 
L 711.936875 236.631343 
L 739.836875 240.965405 
" clip-path="url(#p295da75d60)" style="fill: none; stroke: #ff7f0e; stroke-opacity: 0.8; stroke-width: 1.5; stroke-linecap: round"/>
   </g>
   <g id="line2d_77">
    <path d="M 98.136875 200.252246 
L 126.036875 213.655056 
L 153.936875 216.185603 
L 181.836875 214.890232 
L 209.736875 203.301401 
L 237.636875 148.746039 
L 265.536875 100.349332 
L 293.436875 89.830269 
L 321.336875 84.216566 
L 349.236875 81.174768 
L 377.136875 78.11249 
L 405.036875 74.311446 
L 432.936875 72.531443 
L 460.836875 72.432461 
L 488.736875 70.720975 
L 516.636875 69.454765 
L 544.536875 69.452787 
L 572.436875 71.225525 
L 600.336875 80.957481 
L 628.236875 92.117258 
L 656.136875 90.287817 
L 684.036875 114.901207 
L 711.936875 151.227474 
L 739.836875 175.032947 
" clip-path="url(#p295da75d60)" style="fill: none; stroke: #98df8a; stroke-opacity: 0.8; stroke-width: 1.5; stroke-linecap: round"/>
   </g>
   <g id="line2d_78">
    <path d="M 98.136875 242.787328 
L 126.036875 244.380161 
L 153.936875 244.685938 
L 181.836875 244.641337 
L 209.736875 242.61899 
L 237.636875 225.500667 
L 265.536875 207.887835 
L 293.436875 184.675145 
L 321.336875 173.688361 
L 349.236875 169.889345 
L 377.136875 166.718382 
L 405.036875 163.447192 
L 432.936875 162.190346 
L 460.836875 162.263375 
L 488.736875 161.036171 
L 516.636875 159.307818 
L 544.536875 159.578707 
L 572.436875 162.253726 
L 600.336875 168.392071 
L 628.236875 188.922124 
L 656.136875 204.517836 
L 684.036875 219.838147 
L 711.936875 236.29483 
L 739.836875 240.457444 
" clip-path="url(#p295da75d60)" style="fill: none; stroke: #17becf; stroke-opacity: 0.8; stroke-width: 1.5; stroke-linecap: round"/>
   </g>
   <g id="line2d_79">
    <path d="M 98.136875 202.922518 
L 126.036875 216.633977 
L 153.936875 218.951894 
L 181.836875 215.522767 
L 209.736875 199.734293 
L 237.636875 129.783176 
L 265.536875 81.152967 
L 293.436875 73.285689 
L 321.336875 69.137101 
L 349.236875 66.595976 
L 377.136875 63.834281 
L 405.036875 57.98053 
L 432.936875 56.034341 
L 460.836875 54.872601 
L 488.736875 53.10164 
L 516.636875 52.619709 
L 544.536875 53.892684 
L 572.436875 56.353105 
L 600.336875 65.771547 
L 628.236875 80.075395 
L 656.136875 80.292243 
L 684.036875 101.598759 
L 711.936875 146.557905 
L 739.836875 173.504388 
" clip-path="url(#p295da75d60)" style="fill: none; stroke: #d62728; stroke-opacity: 0.8; stroke-width: 1.5; stroke-linecap: round"/>
   </g>
   <g id="line2d_80">
    <path d="M 98.136875 226.049268 
L 126.036875 233.25668 
L 153.936875 234.486981 
L 181.836875 233.23688 
L 209.736875 226.040071 
L 237.636875 187.811603 
L 265.536875 151.738371 
L 293.436875 137.7106 
L 321.336875 133.718166 
L 349.236875 131.605863 
L 377.136875 129.327579 
L 405.036875 126.240568 
L 432.936875 124.932289 
L 460.836875 124.381441 
L 488.736875 123.018527 
L 516.636875 121.85289 
L 544.536875 121.146594 
L 572.436875 123.314243 
L 600.336875 132.234944 
L 628.236875 143.806258 
L 656.136875 145.949751 
L 684.036875 168.69404 
L 711.936875 199.245571 
L 739.836875 213.504211 
" clip-path="url(#p295da75d60)" style="fill: none; stroke: #9edae5; stroke-opacity: 0.8; stroke-width: 1.5; stroke-linecap: round"/>
   </g>
   <g id="line2d_81">
    <path d="M 98.136875 212.927583 
L 126.036875 223.230868 
L 153.936875 224.705419 
L 181.836875 220.948629 
L 209.736875 204.323714 
L 237.636875 151.708025 
L 265.536875 105.26355 
L 293.436875 80.627956 
L 321.336875 102.284658 
L 349.236875 103.781438 
L 377.136875 101.004467 
L 405.036875 96.669639 
L 432.936875 94.604846 
L 460.836875 93.095653 
L 488.736875 91.826103 
L 516.636875 90.651563 
L 544.536875 91.736615 
L 572.436875 94.591964 
L 600.336875 103.789085 
L 628.236875 82.537676 
L 656.136875 105.890008 
L 684.036875 136.365073 
L 711.936875 169.335292 
L 739.836875 191.535126 
" clip-path="url(#p295da75d60)" style="fill: none; stroke: #9edae5; stroke-opacity: 0.8; stroke-width: 1.5; stroke-linecap: round"/>
   </g>
   <g id="line2d_82">
    <path d="M 98.136875 243.768316 
L 126.036875 244.885921 
L 153.936875 244.959648 
L 181.836875 245.097219 
L 209.736875 243.319587 
L 237.636875 227.130601 
L 265.536875 210.76868 
L 293.436875 189.870658 
L 321.336875 183.348016 
L 349.236875 177.499546 
L 377.136875 170.536868 
L 405.036875 170.175686 
L 432.936875 169.194882 
L 460.836875 168.564582 
L 488.736875 166.710473 
L 516.636875 164.333177 
L 544.536875 164.810637 
L 572.436875 167.939315 
L 600.336875 171.302756 
L 628.236875 191.84524 
L 656.136875 207.033034 
L 684.036875 221.164748 
L 711.936875 238.003607 
L 739.836875 241.854278 
" clip-path="url(#p295da75d60)" style="fill: none; stroke: #f7b6d2; stroke-opacity: 0.8; stroke-width: 1.5; stroke-linecap: round"/>
   </g>
   <g id="line2d_83">
    <path d="M 98.136875 236.571279 
L 126.036875 239.910754 
L 153.936875 240.478578 
L 181.836875 240.312517 
L 209.736875 236.534188 
L 237.636875 209.534661 
L 265.536875 178.406294 
L 293.436875 145.039888 
L 321.336875 138.15579 
L 349.236875 132.580502 
L 377.136875 131.767108 
L 405.036875 128.418945 
L 432.936875 127.839995 
L 460.836875 126.440415 
L 488.736875 124.76147 
L 516.636875 122.360285 
L 544.536875 123.123343 
L 572.436875 126.045829 
L 600.336875 135.780747 
L 628.236875 152.151551 
L 656.136875 173.49211 
L 684.036875 197.623319 
L 711.936875 222.116747 
L 739.836875 231.478394 
" clip-path="url(#p295da75d60)" style="fill: none; stroke: #7f7f7f; stroke-opacity: 0.8; stroke-width: 1.5; stroke-linecap: round"/>
   </g>
   <g id="line2d_84">
    <path d="M 98.136875 241.302625 
L 126.036875 243.453666 
L 153.936875 243.867155 
L 181.836875 243.896255 
L 209.736875 240.674693 
L 237.636875 219.671257 
L 265.536875 198.134517 
L 293.436875 167.228246 
L 321.336875 159.630555 
L 349.236875 153.937266 
L 377.136875 150.093362 
L 405.036875 146.578785 
L 432.936875 145.562519 
L 460.836875 144.667974 
L 488.736875 143.600033 
L 516.636875 141.544073 
L 544.536875 141.604549 
L 572.436875 144.679095 
L 600.336875 153.682583 
L 628.236875 171.390269 
L 656.136875 191.028105 
L 684.036875 212.318945 
L 711.936875 232.297266 
L 739.836875 238.173227 
" clip-path="url(#p295da75d60)" style="fill: none; stroke: #1f77b4; stroke-opacity: 0.8; stroke-width: 1.5; stroke-linecap: round"/>
   </g>
   <g id="line2d_85">
    <path d="M 98.136875 241.442558 
L 126.036875 243.937437 
L 153.936875 244.441038 
L 181.836875 244.247962 
L 209.736875 240.490178 
L 237.636875 216.271838 
L 265.536875 190.796351 
L 293.436875 160.400163 
L 321.336875 152.819047 
L 349.236875 146.443464 
L 377.136875 143.779355 
L 405.036875 140.543871 
L 432.936875 140.047128 
L 460.836875 139.68127 
L 488.736875 136.22039 
L 516.636875 132.497443 
L 544.536875 132.459 
L 572.436875 135.871639 
L 600.336875 145.290917 
L 628.236875 165.403843 
L 656.136875 187.769692 
L 684.036875 210.36278 
L 711.936875 231.637523 
L 739.836875 237.936791 
" clip-path="url(#p295da75d60)" style="fill: none; stroke: #bcbd22; stroke-opacity: 0.8; stroke-width: 1.5; stroke-linecap: round"/>
   </g>
   <g id="line2d_86">
    <path d="M 98.136875 243.388714 
L 126.036875 244.558971 
L 153.936875 244.782862 
L 181.836875 244.737027 
L 209.736875 242.97268 
L 237.636875 226.963702 
L 265.536875 213.026223 
L 293.436875 191.067297 
L 321.336875 187.40631 
L 349.236875 181.035487 
L 377.136875 174.788555 
L 405.036875 171.883127 
L 432.936875 171.887362 
L 460.836875 170.319639 
L 488.736875 167.634451 
L 516.636875 164.573631 
L 544.536875 164.951438 
L 572.436875 167.442774 
L 600.336875 176.662649 
L 628.236875 192.741054 
L 656.136875 208.429054 
L 684.036875 223.976484 
L 711.936875 237.423209 
L 739.836875 241.590718 
" clip-path="url(#p295da75d60)" style="fill: none; stroke: #8c564b; stroke-opacity: 0.8; stroke-width: 1.5; stroke-linecap: round"/>
   </g>
   <g id="line2d_87">
    <path d="M 98.136875 242.461245 
L 126.036875 243.944173 
L 153.936875 244.243921 
L 181.836875 244.03532 
L 209.736875 241.2637 
L 237.636875 221.81203 
L 265.536875 198.171191 
L 293.436875 172.831783 
L 321.336875 166.298433 
L 349.236875 161.656145 
L 377.136875 156.562427 
L 405.036875 153.320485 
L 432.936875 152.045572 
L 460.836875 150.913496 
L 488.736875 148.285319 
L 516.636875 145.48967 
L 544.536875 145.998266 
L 572.436875 149.41281 
L 600.336875 158.635989 
L 628.236875 182.853678 
L 656.136875 200.954724 
L 684.036875 218.936386 
L 711.936875 235.724163 
L 739.836875 240.027919 
" clip-path="url(#p295da75d60)" style="fill: none; stroke: #c7c7c7; stroke-opacity: 0.8; stroke-width: 1.5; stroke-linecap: round"/>
   </g>
   <g id="line2d_88">
    <path d="M 98.136875 236.653575 
L 126.036875 239.952288 
L 153.936875 240.63495 
L 181.836875 240.329653 
L 209.736875 235.982232 
L 237.636875 211.701961 
L 265.536875 185.029679 
L 293.436875 154.634363 
L 321.336875 147.156833 
L 349.236875 142.178075 
L 377.136875 142.022519 
L 405.036875 138.866707 
L 432.936875 137.285844 
L 460.836875 135.594056 
L 488.736875 132.304354 
L 516.636875 128.939778 
L 544.536875 129.511052 
L 572.436875 132.500271 
L 600.336875 142.807501 
L 628.236875 158.782516 
L 656.136875 180.276319 
L 684.036875 202.329912 
L 711.936875 224.414039 
L 739.836875 231.977605 
" clip-path="url(#p295da75d60)" style="fill: none; stroke: #9467bd; stroke-opacity: 0.8; stroke-width: 1.5; stroke-linecap: round"/>
   </g>
   <g id="line2d_89">
    <path d="M 98.136875 243.047017 
L 126.036875 244.511581 
L 153.936875 244.867001 
L 181.836875 244.797263 
L 209.736875 242.400675 
L 237.636875 222.906858 
L 265.536875 204.275364 
L 293.436875 180.055598 
L 321.336875 174.059724 
L 349.236875 167.1556 
L 377.136875 164.16565 
L 405.036875 161.202174 
L 432.936875 161.155396 
L 460.836875 160.666415 
L 488.736875 158.821413 
L 516.636875 156.962462 
L 544.536875 157.119623 
L 572.436875 160.045824 
L 600.336875 167.343468 
L 628.236875 182.596192 
L 656.136875 200.993032 
L 684.036875 218.863625 
L 711.936875 237.530725 
L 739.836875 241.164696 
" clip-path="url(#p295da75d60)" style="fill: none; stroke: #e377c2; stroke-opacity: 0.8; stroke-width: 1.5; stroke-linecap: round"/>
   </g>
   <g id="line2d_90">
    <path d="M 98.136875 243.64237 
L 126.036875 244.884259 
L 153.936875 245.194405 
L 181.836875 245.132233 
L 209.736875 242.989047 
L 237.636875 225.565673 
L 265.536875 207.477804 
L 293.436875 181.546881 
L 321.336875 175.230005 
L 349.236875 168.113851 
L 377.136875 159.216496 
L 405.036875 156.477694 
L 432.936875 155.953342 
L 460.836875 155.954046 
L 488.736875 152.79255 
L 516.636875 149.976336 
L 544.536875 148.210354 
L 572.436875 151.801271 
L 600.336875 159.020169 
L 628.236875 185.393792 
L 656.136875 204.967785 
L 684.036875 222.187032 
L 711.936875 237.888891 
L 739.836875 241.673231 
" clip-path="url(#p295da75d60)" style="fill: none; stroke: #c49c94; stroke-opacity: 0.8; stroke-width: 1.5; stroke-linecap: round"/>
   </g>
   <g id="line2d_91">
    <path d="M 98.136875 242.056634 
L 126.036875 244.097861 
L 153.936875 244.630766 
L 181.836875 244.551754 
L 209.736875 241.14767 
L 237.636875 221.38938 
L 265.536875 200.68364 
L 293.436875 173.116915 
L 321.336875 165.736676 
L 349.236875 158.882113 
L 377.136875 148.505526 
L 405.036875 145.460777 
L 432.936875 143.239651 
L 460.836875 141.910653 
L 488.736875 139.623386 
L 516.636875 137.598284 
L 544.536875 137.78236 
L 572.436875 141.971252 
L 600.336875 147.621418 
L 628.236875 176.565785 
L 656.136875 196.675383 
L 684.036875 217.518365 
L 711.936875 233.090811 
L 739.836875 239.065857 
" clip-path="url(#p295da75d60)" style="fill: none; stroke: #c5b0d5; stroke-opacity: 0.8; stroke-width: 1.5; stroke-linecap: round"/>
   </g>
   <g id="line2d_92">
    <path d="M 98.136875 241.967061 
L 126.036875 244.530821 
L 153.936875 245.041285 
L 181.836875 244.858305 
L 209.736875 240.696559 
L 237.636875 213.62624 
L 265.536875 192.021407 
L 293.436875 161.565755 
L 321.336875 155.540761 
L 349.236875 148.045804 
L 377.136875 139.764905 
L 405.036875 135.995323 
L 432.936875 134.688104 
L 460.836875 134.075819 
L 488.736875 131.297156 
L 516.636875 128.245416 
L 544.536875 128.297472 
L 572.436875 131.699735 
L 600.336875 137.510116 
L 628.236875 166.089385 
L 656.136875 186.747434 
L 684.036875 209.283986 
L 711.936875 233.251564 
L 739.836875 238.912298 
" clip-path="url(#p295da75d60)" style="fill: none; stroke: #ff9896; stroke-opacity: 0.8; stroke-width: 1.5; stroke-linecap: round"/>
   </g>
   <g id="line2d_93">
    <path d="M 98.136875 235.489924 
L 126.036875 239.65253 
L 153.936875 240.667052 
L 181.836875 240.130562 
L 209.736875 234.400306 
L 237.636875 212.077722 
L 265.536875 188.536622 
L 293.436875 158.508983 
L 321.336875 151.291389 
L 349.236875 145.888429 
L 377.136875 141.959039 
L 405.036875 138.346153 
L 432.936875 137.011564 
L 460.836875 134.685696 
L 488.736875 130.43016 
L 516.636875 126.248457 
L 544.536875 125.860123 
L 572.436875 130.215006 
L 600.336875 141.235812 
L 628.236875 157.617404 
L 656.136875 180.26496 
L 684.036875 201.812822 
L 711.936875 221.674915 
L 739.836875 230.129163 
" clip-path="url(#p295da75d60)" style="fill: none; stroke: #aec7e8; stroke-opacity: 0.8; stroke-width: 1.5; stroke-linecap: round"/>
   </g>
   <g id="line2d_94">
    <path d="M 98.136875 241.40146 
L 126.036875 244.070286 
L 153.936875 244.726012 
L 181.836875 244.734797 
L 209.736875 240.731826 
L 237.636875 213.599355 
L 265.536875 191.839491 
L 293.436875 162.612024 
L 321.336875 152.519069 
L 349.236875 144.703804 
L 377.136875 135.862108 
L 405.036875 131.21288 
L 432.936875 129.679098 
L 460.836875 129.459821 
L 488.736875 127.786026 
L 516.636875 125.246566 
L 544.536875 125.187067 
L 572.436875 128.391424 
L 600.336875 134.956072 
L 628.236875 162.295576 
L 656.136875 183.58488 
L 684.036875 205.371212 
L 711.936875 233.537353 
L 739.836875 238.674354 
" clip-path="url(#p295da75d60)" style="fill: none; stroke: #8c564b; stroke-opacity: 0.8; stroke-width: 1.5; stroke-linecap: round"/>
   </g>
   <g id="patch_3">
    <path d="M 84.186875 257.76 
L 84.186875 36 
" style="fill: none; stroke: #000000; stroke-linejoin: miter; stroke-linecap: square"/>
   </g>
   <g id="patch_4">
    <path d="M 753.786875 257.76 
L 753.786875 36 
" style="fill: none; stroke: #000000; stroke-linejoin: miter; stroke-linecap: square"/>
   </g>
   <g id="patch_5">
    <path d="M 84.186875 257.76 
L 753.786875 257.76 
" style="fill: none; stroke: #000000; stroke-linejoin: miter; stroke-linecap: square"/>
   </g>
   <g id="patch_6">
    <path d="M 84.186875 36 
L 753.786875 36 
" style="fill: none; stroke: #000000; stroke-linejoin: miter; stroke-linecap: square"/>
   </g>
  </g>
 </g>
 <defs>
  <clipPath id="p295da75d60">
   <rect x="84.186875" y="36" width="669.6" height="221.76"/>
  </clipPath>
 </defs>
</svg>
