<?xml version="1.0" encoding="utf-8" standalone="no"?>
<!DOCTYPE svg PUBLIC "-//W3C//DTD SVG 1.1//EN"
  "http://www.w3.org/Graphics/SVG/1.1/DTD/svg11.dtd">
<svg xmlns:xlink="http://www.w3.org/1999/xlink" width="798.684375pt" height="338.0125pt" viewBox="0 0 798.684375 338.0125" xmlns="http://www.w3.org/2000/svg" version="1.1">
 <metadata>
  <rdf:RDF xmlns:dc="http://purl.org/dc/elements/1.1/" xmlns:cc="http://creativecommons.org/ns#" xmlns:rdf="http://www.w3.org/1999/02/22-rdf-syntax-ns#">
   <cc:Work>
    <dc:type rdf:resource="http://purl.org/dc/dcmitype/StillImage"/>
    <dc:date>2025-10-27T21:27:51.626500</dc:date>
    <dc:format>image/svg+xml</dc:format>
    <dc:creator>
     <cc:Agent>
      <dc:title>Matplotlib v3.10.7, https://matplotlib.org/</dc:title>
     </cc:Agent>
    </dc:creator>
   </cc:Work>
  </rdf:RDF>
 </metadata>
 <defs>
  <style type="text/css">*{stroke-linejoin: round; stroke-linecap: butt}</style>
 </defs>
 <g id="figure_1">
  <g id="patch_1">
   <path d="M 0 338.0125 
L 798.684375 338.0125 
L 798.684375 0 
L 0 0 
L 0 338.0125 
z
" style="fill: none"/>
  </g>
  <g id="axes_1">
   <g id="patch_2">
    <path d="M 93.084375 263.48625 
L 762.684375 263.48625 
L 762.684375 41.72625 
L 93.084375 41.72625 
L 93.084375 263.48625 
z
" style="fill: none"/>
   </g>
   <g id="line2d_1">
    <path d="M 113.375284 263.48625 
L 113.375284 41.72625 
" clip-path="url(#pf334904887)" style="fill: none; stroke-dasharray: 0.74,0.32; stroke-dashoffset: 0; stroke: #a9a9a9; stroke-opacity: 0.5; stroke-width: 0.2"/>
   </g>
   <g id="line2d_2">
    <path d="M 133.666193 263.48625 
L 133.666193 41.72625 
" clip-path="url(#pf334904887)" style="fill: none; stroke-dasharray: 0.74,0.32; stroke-dashoffset: 0; stroke: #a9a9a9; stroke-opacity: 0.5; stroke-width: 0.2"/>
   </g>
   <g id="line2d_3">
    <path d="M 153.957102 263.48625 
L 153.957102 41.72625 
" clip-path="url(#pf334904887)" style="fill: none; stroke-dasharray: 0.74,0.32; stroke-dashoffset: 0; stroke: #a9a9a9; stroke-opacity: 0.5; stroke-width: 0.2"/>
   </g>
   <g id="line2d_4">
    <path d="M 174.248011 263.48625 
L 174.248011 41.72625 
" clip-path="url(#pf334904887)" style="fill: none; stroke-dasharray: 0.74,0.32; stroke-dashoffset: 0; stroke: #a9a9a9; stroke-opacity: 0.5; stroke-width: 0.2"/>
   </g>
   <g id="line2d_5">
    <path d="M 194.53892 263.48625 
L 194.53892 41.72625 
" clip-path="url(#pf334904887)" style="fill: none; stroke-dasharray: 0.74,0.32; stroke-dashoffset: 0; stroke: #a9a9a9; stroke-opacity: 0.5; stroke-width: 0.2"/>
   </g>
   <g id="line2d_6">
    <path d="M 214.82983 263.48625 
L 214.82983 41.72625 
" clip-path="url(#pf334904887)" style="fill: none; stroke-dasharray: 0.74,0.32; stroke-dashoffset: 0; stroke: #a9a9a9; stroke-opacity: 0.5; stroke-width: 0.2"/>
   </g>
   <g id="line2d_7">
    <path d="M 235.120739 263.48625 
L 235.120739 41.72625 
" clip-path="url(#pf334904887)" style="fill: none; stroke-dasharray: 0.74,0.32; stroke-dashoffset: 0; stroke: #a9a9a9; stroke-opacity: 0.5; stroke-width: 0.2"/>
   </g>
   <g id="line2d_8">
    <path d="M 255.411648 263.48625 
L 255.411648 41.72625 
" clip-path="url(#pf334904887)" style="fill: none; stroke-dasharray: 0.74,0.32; stroke-dashoffset: 0; stroke: #a9a9a9; stroke-opacity: 0.5; stroke-width: 0.2"/>
   </g>
   <g id="line2d_9">
    <path d="M 275.702557 263.48625 
L 275.702557 41.72625 
" clip-path="url(#pf334904887)" style="fill: none; stroke-dasharray: 0.74,0.32; stroke-dashoffset: 0; stroke: #a9a9a9; stroke-opacity: 0.5; stroke-width: 0.2"/>
   </g>
   <g id="line2d_10">
    <path d="M 295.993466 263.48625 
L 295.993466 41.72625 
" clip-path="url(#pf334904887)" style="fill: none; stroke-dasharray: 0.74,0.32; stroke-dashoffset: 0; stroke: #a9a9a9; stroke-opacity: 0.5; stroke-width: 0.2"/>
   </g>
   <g id="line2d_11">
    <path d="M 316.284375 263.48625 
L 316.284375 41.72625 
" clip-path="url(#pf334904887)" style="fill: none; stroke-dasharray: 0.74,0.32; stroke-dashoffset: 0; stroke: #a9a9a9; stroke-opacity: 0.5; stroke-width: 0.2"/>
   </g>
   <g id="line2d_12">
    <path d="M 336.575284 263.48625 
L 336.575284 41.72625 
" clip-path="url(#pf334904887)" style="fill: none; stroke-dasharray: 0.74,0.32; stroke-dashoffset: 0; stroke: #a9a9a9; stroke-opacity: 0.5; stroke-width: 0.2"/>
   </g>
   <g id="line2d_13">
    <path d="M 356.866193 263.48625 
L 356.866193 41.72625 
" clip-path="url(#pf334904887)" style="fill: none; stroke-dasharray: 0.74,0.32; stroke-dashoffset: 0; stroke: #a9a9a9; stroke-opacity: 0.5; stroke-width: 0.2"/>
   </g>
   <g id="line2d_14">
    <path d="M 377.157102 263.48625 
L 377.157102 41.72625 
" clip-path="url(#pf334904887)" style="fill: none; stroke-dasharray: 0.74,0.32; stroke-dashoffset: 0; stroke: #a9a9a9; stroke-opacity: 0.5; stroke-width: 0.2"/>
   </g>
   <g id="line2d_15">
    <path d="M 397.448011 263.48625 
L 397.448011 41.72625 
" clip-path="url(#pf334904887)" style="fill: none; stroke-dasharray: 0.74,0.32; stroke-dashoffset: 0; stroke: #a9a9a9; stroke-opacity: 0.5; stroke-width: 0.2"/>
   </g>
   <g id="line2d_16">
    <path d="M 417.73892 263.48625 
L 417.73892 41.72625 
" clip-path="url(#pf334904887)" style="fill: none; stroke-dasharray: 0.74,0.32; stroke-dashoffset: 0; stroke: #a9a9a9; stroke-opacity: 0.5; stroke-width: 0.2"/>
   </g>
   <g id="line2d_17">
    <path d="M 438.02983 263.48625 
L 438.02983 41.72625 
" clip-path="url(#pf334904887)" style="fill: none; stroke-dasharray: 0.74,0.32; stroke-dashoffset: 0; stroke: #a9a9a9; stroke-opacity: 0.5; stroke-width: 0.2"/>
   </g>
   <g id="line2d_18">
    <path d="M 458.320739 263.48625 
L 458.320739 41.72625 
" clip-path="url(#pf334904887)" style="fill: none; stroke-dasharray: 0.74,0.32; stroke-dashoffset: 0; stroke: #a9a9a9; stroke-opacity: 0.5; stroke-width: 0.2"/>
   </g>
   <g id="line2d_19">
    <path d="M 478.611648 263.48625 
L 478.611648 41.72625 
" clip-path="url(#pf334904887)" style="fill: none; stroke-dasharray: 0.74,0.32; stroke-dashoffset: 0; stroke: #a9a9a9; stroke-opacity: 0.5; stroke-width: 0.2"/>
   </g>
   <g id="line2d_20">
    <path d="M 498.902557 263.48625 
L 498.902557 41.72625 
" clip-path="url(#pf334904887)" style="fill: none; stroke-dasharray: 0.74,0.32; stroke-dashoffset: 0; stroke: #a9a9a9; stroke-opacity: 0.5; stroke-width: 0.2"/>
   </g>
   <g id="line2d_21">
    <path d="M 519.193466 263.48625 
L 519.193466 41.72625 
" clip-path="url(#pf334904887)" style="fill: none; stroke-dasharray: 0.74,0.32; stroke-dashoffset: 0; stroke: #a9a9a9; stroke-opacity: 0.5; stroke-width: 0.2"/>
   </g>
   <g id="line2d_22">
    <path d="M 539.484375 263.48625 
L 539.484375 41.72625 
" clip-path="url(#pf334904887)" style="fill: none; stroke-dasharray: 0.74,0.32; stroke-dashoffset: 0; stroke: #a9a9a9; stroke-opacity: 0.5; stroke-width: 0.2"/>
   </g>
   <g id="line2d_23">
    <path d="M 559.775284 263.48625 
L 559.775284 41.72625 
" clip-path="url(#pf334904887)" style="fill: none; stroke-dasharray: 0.74,0.32; stroke-dashoffset: 0; stroke: #a9a9a9; stroke-opacity: 0.5; stroke-width: 0.2"/>
   </g>
   <g id="line2d_24">
    <path d="M 580.066193 263.48625 
L 580.066193 41.72625 
" clip-path="url(#pf334904887)" style="fill: none; stroke-dasharray: 0.74,0.32; stroke-dashoffset: 0; stroke: #a9a9a9; stroke-opacity: 0.5; stroke-width: 0.2"/>
   </g>
   <g id="line2d_25">
    <path d="M 600.357102 263.48625 
L 600.357102 41.72625 
" clip-path="url(#pf334904887)" style="fill: none; stroke-dasharray: 0.74,0.32; stroke-dashoffset: 0; stroke: #a9a9a9; stroke-opacity: 0.5; stroke-width: 0.2"/>
   </g>
   <g id="line2d_26">
    <path d="M 620.648011 263.48625 
L 620.648011 41.72625 
" clip-path="url(#pf334904887)" style="fill: none; stroke-dasharray: 0.74,0.32; stroke-dashoffset: 0; stroke: #a9a9a9; stroke-opacity: 0.5; stroke-width: 0.2"/>
   </g>
   <g id="line2d_27">
    <path d="M 640.93892 263.48625 
L 640.93892 41.72625 
" clip-path="url(#pf334904887)" style="fill: none; stroke-dasharray: 0.74,0.32; stroke-dashoffset: 0; stroke: #a9a9a9; stroke-opacity: 0.5; stroke-width: 0.2"/>
   </g>
   <g id="line2d_28">
    <path d="M 661.22983 263.48625 
L 661.22983 41.72625 
" clip-path="url(#pf334904887)" style="fill: none; stroke-dasharray: 0.74,0.32; stroke-dashoffset: 0; stroke: #a9a9a9; stroke-opacity: 0.5; stroke-width: 0.2"/>
   </g>
   <g id="line2d_29">
    <path d="M 681.520739 263.48625 
L 681.520739 41.72625 
" clip-path="url(#pf334904887)" style="fill: none; stroke-dasharray: 0.74,0.32; stroke-dashoffset: 0; stroke: #a9a9a9; stroke-opacity: 0.5; stroke-width: 0.2"/>
   </g>
   <g id="line2d_30">
    <path d="M 701.811648 263.48625 
L 701.811648 41.72625 
" clip-path="url(#pf334904887)" style="fill: none; stroke-dasharray: 0.74,0.32; stroke-dashoffset: 0; stroke: #a9a9a9; stroke-opacity: 0.5; stroke-width: 0.2"/>
   </g>
   <g id="line2d_31">
    <path d="M 722.102557 263.48625 
L 722.102557 41.72625 
" clip-path="url(#pf334904887)" style="fill: none; stroke-dasharray: 0.74,0.32; stroke-dashoffset: 0; stroke: #a9a9a9; stroke-opacity: 0.5; stroke-width: 0.2"/>
   </g>
   <g id="line2d_32">
    <path d="M 742.393466 263.48625 
L 742.393466 41.72625 
" clip-path="url(#pf334904887)" style="fill: none; stroke-dasharray: 0.74,0.32; stroke-dashoffset: 0; stroke: #a9a9a9; stroke-opacity: 0.5; stroke-width: 0.2"/>
   </g>
   <g id="line2d_33">
    <path d="M 93.084375 241.31025 
L 762.684375 241.31025 
" clip-path="url(#pf334904887)" style="fill: none; stroke-dasharray: 0.74,0.32; stroke-dashoffset: 0; stroke: #a9a9a9; stroke-opacity: 0.5; stroke-width: 0.2"/>
   </g>
   <g id="line2d_34">
    <path d="M 93.084375 219.13425 
L 762.684375 219.13425 
" clip-path="url(#pf334904887)" style="fill: none; stroke-dasharray: 0.74,0.32; stroke-dashoffset: 0; stroke: #a9a9a9; stroke-opacity: 0.5; stroke-width: 0.2"/>
   </g>
   <g id="line2d_35">
    <path d="M 93.084375 196.95825 
L 762.684375 196.95825 
" clip-path="url(#pf334904887)" style="fill: none; stroke-dasharray: 0.74,0.32; stroke-dashoffset: 0; stroke: #a9a9a9; stroke-opacity: 0.5; stroke-width: 0.2"/>
   </g>
   <g id="line2d_36">
    <path d="M 93.084375 174.78225 
L 762.684375 174.78225 
" clip-path="url(#pf334904887)" style="fill: none; stroke-dasharray: 0.74,0.32; stroke-dashoffset: 0; stroke: #a9a9a9; stroke-opacity: 0.5; stroke-width: 0.2"/>
   </g>
   <g id="line2d_37">
    <path d="M 93.084375 152.60625 
L 762.684375 152.60625 
" clip-path="url(#pf334904887)" style="fill: none; stroke-dasharray: 0.74,0.32; stroke-dashoffset: 0; stroke: #a9a9a9; stroke-opacity: 0.5; stroke-width: 0.2"/>
   </g>
   <g id="line2d_38">
    <path d="M 93.084375 130.43025 
L 762.684375 130.43025 
" clip-path="url(#pf334904887)" style="fill: none; stroke-dasharray: 0.74,0.32; stroke-dashoffset: 0; stroke: #a9a9a9; stroke-opacity: 0.5; stroke-width: 0.2"/>
   </g>
   <g id="line2d_39">
    <path d="M 93.084375 108.25425 
L 762.684375 108.25425 
" clip-path="url(#pf334904887)" style="fill: none; stroke-dasharray: 0.74,0.32; stroke-dashoffset: 0; stroke: #a9a9a9; stroke-opacity: 0.5; stroke-width: 0.2"/>
   </g>
   <g id="line2d_40">
    <path d="M 93.084375 86.07825 
L 762.684375 86.07825 
" clip-path="url(#pf334904887)" style="fill: none; stroke-dasharray: 0.74,0.32; stroke-dashoffset: 0; stroke: #a9a9a9; stroke-opacity: 0.5; stroke-width: 0.2"/>
   </g>
   <g id="line2d_41">
    <path d="M 93.084375 63.90225 
L 762.684375 63.90225 
" clip-path="url(#pf334904887)" style="fill: none; stroke-dasharray: 0.74,0.32; stroke-dashoffset: 0; stroke: #a9a9a9; stroke-opacity: 0.5; stroke-width: 0.2"/>
   </g>
   <g id="matplotlib.axis_1">
    <g id="xtick_1">
     <g id="line2d_42">
      <defs>
       <path id="m9f500fbbfe" d="M 0 0 
L 0 5 
" style="stroke: #000000"/>
      </defs>
      <g>
       <use xlink:href="#m9f500fbbfe" x="107.034375" y="263.48625" style="stroke: #000000"/>
      </g>
     </g>
     <g id="text_1">
      <!-- 1:00 -->
      <g transform="translate(110.136562 295.339375) rotate(-90) scale(0.12 -0.12)">
       <defs>
        <path id="ArialMT-31" d="M 2384 0 
L 1822 0 
L 1822 3584 
Q 1619 3391 1289 3197 
Q 959 3003 697 2906 
L 697 3450 
Q 1169 3672 1522 3987 
Q 1875 4303 2022 4600 
L 2384 4600 
L 2384 0 
z
" transform="scale(0.015625)"/>
        <path id="ArialMT-3a" d="M 578 2678 
L 578 3319 
L 1219 3319 
L 1219 2678 
L 578 2678 
z
M 578 0 
L 578 641 
L 1219 641 
L 1219 0 
L 578 0 
z
" transform="scale(0.015625)"/>
        <path id="ArialMT-30" d="M 266 2259 
Q 266 3072 433 3567 
Q 600 4063 929 4331 
Q 1259 4600 1759 4600 
Q 2128 4600 2406 4451 
Q 2684 4303 2865 4023 
Q 3047 3744 3150 3342 
Q 3253 2941 3253 2259 
Q 3253 1453 3087 958 
Q 2922 463 2592 192 
Q 2263 -78 1759 -78 
Q 1097 -78 719 397 
Q 266 969 266 2259 
z
M 844 2259 
Q 844 1131 1108 757 
Q 1372 384 1759 384 
Q 2147 384 2411 759 
Q 2675 1134 2675 2259 
Q 2675 3391 2411 3762 
Q 2147 4134 1753 4134 
Q 1366 4134 1134 3806 
Q 844 3388 844 2259 
z
" transform="scale(0.015625)"/>
       </defs>
       <use xlink:href="#ArialMT-31"/>
       <use xlink:href="#ArialMT-3a" transform="translate(55.615234 0)"/>
       <use xlink:href="#ArialMT-30" transform="translate(83.398438 0)"/>
       <use xlink:href="#ArialMT-30" transform="translate(139.013672 0)"/>
      </g>
     </g>
    </g>
    <g id="xtick_2">
     <g id="line2d_43">
      <g>
       <use xlink:href="#m9f500fbbfe" x="134.934375" y="263.48625" style="stroke: #000000"/>
      </g>
     </g>
     <g id="text_2">
      <!-- 2:00 -->
      <g transform="translate(138.036563 295.339375) rotate(-90) scale(0.12 -0.12)">
       <defs>
        <path id="ArialMT-32" d="M 3222 541 
L 3222 0 
L 194 0 
Q 188 203 259 391 
Q 375 700 629 1000 
Q 884 1300 1366 1694 
Q 2113 2306 2375 2664 
Q 2638 3022 2638 3341 
Q 2638 3675 2398 3904 
Q 2159 4134 1775 4134 
Q 1369 4134 1125 3890 
Q 881 3647 878 3216 
L 300 3275 
Q 359 3922 746 4261 
Q 1134 4600 1788 4600 
Q 2447 4600 2831 4234 
Q 3216 3869 3216 3328 
Q 3216 3053 3103 2787 
Q 2991 2522 2730 2228 
Q 2469 1934 1863 1422 
Q 1356 997 1212 845 
Q 1069 694 975 541 
L 3222 541 
z
" transform="scale(0.015625)"/>
       </defs>
       <use xlink:href="#ArialMT-32"/>
       <use xlink:href="#ArialMT-3a" transform="translate(55.615234 0)"/>
       <use xlink:href="#ArialMT-30" transform="translate(83.398438 0)"/>
       <use xlink:href="#ArialMT-30" transform="translate(139.013672 0)"/>
      </g>
     </g>
    </g>
    <g id="xtick_3">
     <g id="line2d_44">
      <g>
       <use xlink:href="#m9f500fbbfe" x="162.834375" y="263.48625" style="stroke: #000000"/>
      </g>
     </g>
     <g id="text_3">
      <!-- 3:00 -->
      <g transform="translate(165.936562 295.339375) rotate(-90) scale(0.12 -0.12)">
       <defs>
        <path id="ArialMT-33" d="M 269 1209 
L 831 1284 
Q 928 806 1161 595 
Q 1394 384 1728 384 
Q 2125 384 2398 659 
Q 2672 934 2672 1341 
Q 2672 1728 2419 1979 
Q 2166 2231 1775 2231 
Q 1616 2231 1378 2169 
L 1441 2663 
Q 1497 2656 1531 2656 
Q 1891 2656 2178 2843 
Q 2466 3031 2466 3422 
Q 2466 3731 2256 3934 
Q 2047 4138 1716 4138 
Q 1388 4138 1169 3931 
Q 950 3725 888 3313 
L 325 3413 
Q 428 3978 793 4289 
Q 1159 4600 1703 4600 
Q 2078 4600 2393 4439 
Q 2709 4278 2876 4000 
Q 3044 3722 3044 3409 
Q 3044 3113 2884 2869 
Q 2725 2625 2413 2481 
Q 2819 2388 3044 2092 
Q 3269 1797 3269 1353 
Q 3269 753 2831 336 
Q 2394 -81 1725 -81 
Q 1122 -81 723 278 
Q 325 638 269 1209 
z
" transform="scale(0.015625)"/>
       </defs>
       <use xlink:href="#ArialMT-33"/>
       <use xlink:href="#ArialMT-3a" transform="translate(55.615234 0)"/>
       <use xlink:href="#ArialMT-30" transform="translate(83.398438 0)"/>
       <use xlink:href="#ArialMT-30" transform="translate(139.013672 0)"/>
      </g>
     </g>
    </g>
    <g id="xtick_4">
     <g id="line2d_45">
      <g>
       <use xlink:href="#m9f500fbbfe" x="190.734375" y="263.48625" style="stroke: #000000"/>
      </g>
     </g>
     <g id="text_4">
      <!-- 4:00 -->
      <g transform="translate(193.836563 295.339375) rotate(-90) scale(0.12 -0.12)">
       <defs>
        <path id="ArialMT-34" d="M 2069 0 
L 2069 1097 
L 81 1097 
L 81 1613 
L 2172 4581 
L 2631 4581 
L 2631 1613 
L 3250 1613 
L 3250 1097 
L 2631 1097 
L 2631 0 
L 2069 0 
z
M 2069 1613 
L 2069 3678 
L 634 1613 
L 2069 1613 
z
" transform="scale(0.015625)"/>
       </defs>
       <use xlink:href="#ArialMT-34"/>
       <use xlink:href="#ArialMT-3a" transform="translate(55.615234 0)"/>
       <use xlink:href="#ArialMT-30" transform="translate(83.398438 0)"/>
       <use xlink:href="#ArialMT-30" transform="translate(139.013672 0)"/>
      </g>
     </g>
    </g>
    <g id="xtick_5">
     <g id="line2d_46">
      <g>
       <use xlink:href="#m9f500fbbfe" x="218.634375" y="263.48625" style="stroke: #000000"/>
      </g>
     </g>
     <g id="text_5">
      <!-- 5:00 -->
      <g transform="translate(221.736562 295.339375) rotate(-90) scale(0.12 -0.12)">
       <defs>
        <path id="ArialMT-35" d="M 266 1200 
L 856 1250 
Q 922 819 1161 601 
Q 1400 384 1738 384 
Q 2144 384 2425 690 
Q 2706 997 2706 1503 
Q 2706 1984 2436 2262 
Q 2166 2541 1728 2541 
Q 1456 2541 1237 2417 
Q 1019 2294 894 2097 
L 366 2166 
L 809 4519 
L 3088 4519 
L 3088 3981 
L 1259 3981 
L 1013 2750 
Q 1425 3038 1878 3038 
Q 2478 3038 2890 2622 
Q 3303 2206 3303 1553 
Q 3303 931 2941 478 
Q 2500 -78 1738 -78 
Q 1113 -78 717 272 
Q 322 622 266 1200 
z
" transform="scale(0.015625)"/>
       </defs>
       <use xlink:href="#ArialMT-35"/>
       <use xlink:href="#ArialMT-3a" transform="translate(55.615234 0)"/>
       <use xlink:href="#ArialMT-30" transform="translate(83.398438 0)"/>
       <use xlink:href="#ArialMT-30" transform="translate(139.013672 0)"/>
      </g>
     </g>
    </g>
    <g id="xtick_6">
     <g id="line2d_47">
      <g>
       <use xlink:href="#m9f500fbbfe" x="246.534375" y="263.48625" style="stroke: #000000"/>
      </g>
     </g>
     <g id="text_6">
      <!-- 6:00 -->
      <g transform="translate(249.636563 295.339375) rotate(-90) scale(0.12 -0.12)">
       <defs>
        <path id="ArialMT-36" d="M 3184 3459 
L 2625 3416 
Q 2550 3747 2413 3897 
Q 2184 4138 1850 4138 
Q 1581 4138 1378 3988 
Q 1113 3794 959 3422 
Q 806 3050 800 2363 
Q 1003 2672 1297 2822 
Q 1591 2972 1913 2972 
Q 2475 2972 2870 2558 
Q 3266 2144 3266 1488 
Q 3266 1056 3080 686 
Q 2894 316 2569 119 
Q 2244 -78 1831 -78 
Q 1128 -78 684 439 
Q 241 956 241 2144 
Q 241 3472 731 4075 
Q 1159 4600 1884 4600 
Q 2425 4600 2770 4297 
Q 3116 3994 3184 3459 
z
M 888 1484 
Q 888 1194 1011 928 
Q 1134 663 1356 523 
Q 1578 384 1822 384 
Q 2178 384 2434 671 
Q 2691 959 2691 1453 
Q 2691 1928 2437 2201 
Q 2184 2475 1800 2475 
Q 1419 2475 1153 2201 
Q 888 1928 888 1484 
z
" transform="scale(0.015625)"/>
       </defs>
       <use xlink:href="#ArialMT-36"/>
       <use xlink:href="#ArialMT-3a" transform="translate(55.615234 0)"/>
       <use xlink:href="#ArialMT-30" transform="translate(83.398438 0)"/>
       <use xlink:href="#ArialMT-30" transform="translate(139.013672 0)"/>
      </g>
     </g>
    </g>
    <g id="xtick_7">
     <g id="line2d_48">
      <g>
       <use xlink:href="#m9f500fbbfe" x="274.434375" y="263.48625" style="stroke: #000000"/>
      </g>
     </g>
     <g id="text_7">
      <!-- 7:00 -->
      <g transform="translate(277.536563 295.339375) rotate(-90) scale(0.12 -0.12)">
       <defs>
        <path id="ArialMT-37" d="M 303 3981 
L 303 4522 
L 3269 4522 
L 3269 4084 
Q 2831 3619 2401 2847 
Q 1972 2075 1738 1259 
Q 1569 684 1522 0 
L 944 0 
Q 953 541 1156 1306 
Q 1359 2072 1739 2783 
Q 2119 3494 2547 3981 
L 303 3981 
z
" transform="scale(0.015625)"/>
       </defs>
       <use xlink:href="#ArialMT-37"/>
       <use xlink:href="#ArialMT-3a" transform="translate(55.615234 0)"/>
       <use xlink:href="#ArialMT-30" transform="translate(83.398438 0)"/>
       <use xlink:href="#ArialMT-30" transform="translate(139.013672 0)"/>
      </g>
     </g>
    </g>
    <g id="xtick_8">
     <g id="line2d_49">
      <g>
       <use xlink:href="#m9f500fbbfe" x="302.334375" y="263.48625" style="stroke: #000000"/>
      </g>
     </g>
     <g id="text_8">
      <!-- 8:00 -->
      <g transform="translate(305.436562 295.339375) rotate(-90) scale(0.12 -0.12)">
       <defs>
        <path id="ArialMT-38" d="M 1131 2484 
Q 781 2613 612 2850 
Q 444 3088 444 3419 
Q 444 3919 803 4259 
Q 1163 4600 1759 4600 
Q 2359 4600 2725 4251 
Q 3091 3903 3091 3403 
Q 3091 3084 2923 2848 
Q 2756 2613 2416 2484 
Q 2838 2347 3058 2040 
Q 3278 1734 3278 1309 
Q 3278 722 2862 322 
Q 2447 -78 1769 -78 
Q 1091 -78 675 323 
Q 259 725 259 1325 
Q 259 1772 486 2073 
Q 713 2375 1131 2484 
z
M 1019 3438 
Q 1019 3113 1228 2906 
Q 1438 2700 1772 2700 
Q 2097 2700 2305 2904 
Q 2513 3109 2513 3406 
Q 2513 3716 2298 3927 
Q 2084 4138 1766 4138 
Q 1444 4138 1231 3931 
Q 1019 3725 1019 3438 
z
M 838 1322 
Q 838 1081 952 856 
Q 1066 631 1291 507 
Q 1516 384 1775 384 
Q 2178 384 2440 643 
Q 2703 903 2703 1303 
Q 2703 1709 2433 1975 
Q 2163 2241 1756 2241 
Q 1359 2241 1098 1978 
Q 838 1716 838 1322 
z
" transform="scale(0.015625)"/>
       </defs>
       <use xlink:href="#ArialMT-38"/>
       <use xlink:href="#ArialMT-3a" transform="translate(55.615234 0)"/>
       <use xlink:href="#ArialMT-30" transform="translate(83.398438 0)"/>
       <use xlink:href="#ArialMT-30" transform="translate(139.013672 0)"/>
      </g>
     </g>
    </g>
    <g id="xtick_9">
     <g id="line2d_50">
      <g>
       <use xlink:href="#m9f500fbbfe" x="330.234375" y="263.48625" style="stroke: #000000"/>
      </g>
     </g>
     <g id="text_9">
      <!-- 9:00 -->
      <g transform="translate(333.336563 295.339375) rotate(-90) scale(0.12 -0.12)">
       <defs>
        <path id="ArialMT-39" d="M 350 1059 
L 891 1109 
Q 959 728 1153 556 
Q 1347 384 1650 384 
Q 1909 384 2104 503 
Q 2300 622 2425 820 
Q 2550 1019 2634 1356 
Q 2719 1694 2719 2044 
Q 2719 2081 2716 2156 
Q 2547 1888 2255 1720 
Q 1963 1553 1622 1553 
Q 1053 1553 659 1965 
Q 266 2378 266 3053 
Q 266 3750 677 4175 
Q 1088 4600 1706 4600 
Q 2153 4600 2523 4359 
Q 2894 4119 3086 3673 
Q 3278 3228 3278 2384 
Q 3278 1506 3087 986 
Q 2897 466 2520 194 
Q 2144 -78 1638 -78 
Q 1100 -78 759 220 
Q 419 519 350 1059 
z
M 2653 3081 
Q 2653 3566 2395 3850 
Q 2138 4134 1775 4134 
Q 1400 4134 1122 3828 
Q 844 3522 844 3034 
Q 844 2597 1108 2323 
Q 1372 2050 1759 2050 
Q 2150 2050 2401 2323 
Q 2653 2597 2653 3081 
z
" transform="scale(0.015625)"/>
       </defs>
       <use xlink:href="#ArialMT-39"/>
       <use xlink:href="#ArialMT-3a" transform="translate(55.615234 0)"/>
       <use xlink:href="#ArialMT-30" transform="translate(83.398438 0)"/>
       <use xlink:href="#ArialMT-30" transform="translate(139.013672 0)"/>
      </g>
     </g>
    </g>
    <g id="xtick_10">
     <g id="line2d_51">
      <g>
       <use xlink:href="#m9f500fbbfe" x="358.134375" y="263.48625" style="stroke: #000000"/>
      </g>
     </g>
     <g id="text_10">
      <!-- 10:00 -->
      <g transform="translate(361.236562 302.0125) rotate(-90) scale(0.12 -0.12)">
       <use xlink:href="#ArialMT-31"/>
       <use xlink:href="#ArialMT-30" transform="translate(55.615234 0)"/>
       <use xlink:href="#ArialMT-3a" transform="translate(111.230469 0)"/>
       <use xlink:href="#ArialMT-30" transform="translate(139.013672 0)"/>
       <use xlink:href="#ArialMT-30" transform="translate(194.628906 0)"/>
      </g>
     </g>
    </g>
    <g id="xtick_11">
     <g id="line2d_52">
      <g>
       <use xlink:href="#m9f500fbbfe" x="386.034375" y="263.48625" style="stroke: #000000"/>
      </g>
     </g>
     <g id="text_11">
      <!-- 11:00 -->
      <g transform="translate(389.136563 301.1275) rotate(-90) scale(0.12 -0.12)">
       <use xlink:href="#ArialMT-31"/>
       <use xlink:href="#ArialMT-31" transform="translate(48.240234 0)"/>
       <use xlink:href="#ArialMT-3a" transform="translate(103.855469 0)"/>
       <use xlink:href="#ArialMT-30" transform="translate(131.638672 0)"/>
       <use xlink:href="#ArialMT-30" transform="translate(187.253906 0)"/>
      </g>
     </g>
    </g>
    <g id="xtick_12">
     <g id="line2d_53">
      <g>
       <use xlink:href="#m9f500fbbfe" x="413.934375" y="263.48625" style="stroke: #000000"/>
      </g>
     </g>
     <g id="text_12">
      <!-- 12:00 -->
      <g transform="translate(417.036563 302.0125) rotate(-90) scale(0.12 -0.12)">
       <use xlink:href="#ArialMT-31"/>
       <use xlink:href="#ArialMT-32" transform="translate(55.615234 0)"/>
       <use xlink:href="#ArialMT-3a" transform="translate(111.230469 0)"/>
       <use xlink:href="#ArialMT-30" transform="translate(139.013672 0)"/>
       <use xlink:href="#ArialMT-30" transform="translate(194.628906 0)"/>
      </g>
     </g>
    </g>
    <g id="xtick_13">
     <g id="line2d_54">
      <g>
       <use xlink:href="#m9f500fbbfe" x="441.834375" y="263.48625" style="stroke: #000000"/>
      </g>
     </g>
     <g id="text_13">
      <!-- 13:00 -->
      <g transform="translate(444.936562 302.0125) rotate(-90) scale(0.12 -0.12)">
       <use xlink:href="#ArialMT-31"/>
       <use xlink:href="#ArialMT-33" transform="translate(55.615234 0)"/>
       <use xlink:href="#ArialMT-3a" transform="translate(111.230469 0)"/>
       <use xlink:href="#ArialMT-30" transform="translate(139.013672 0)"/>
       <use xlink:href="#ArialMT-30" transform="translate(194.628906 0)"/>
      </g>
     </g>
    </g>
    <g id="xtick_14">
     <g id="line2d_55">
      <g>
       <use xlink:href="#m9f500fbbfe" x="469.734375" y="263.48625" style="stroke: #000000"/>
      </g>
     </g>
     <g id="text_14">
      <!-- 14:00 -->
      <g transform="translate(472.836563 302.0125) rotate(-90) scale(0.12 -0.12)">
       <use xlink:href="#ArialMT-31"/>
       <use xlink:href="#ArialMT-34" transform="translate(55.615234 0)"/>
       <use xlink:href="#ArialMT-3a" transform="translate(111.230469 0)"/>
       <use xlink:href="#ArialMT-30" transform="translate(139.013672 0)"/>
       <use xlink:href="#ArialMT-30" transform="translate(194.628906 0)"/>
      </g>
     </g>
    </g>
    <g id="xtick_15">
     <g id="line2d_56">
      <g>
       <use xlink:href="#m9f500fbbfe" x="497.634375" y="263.48625" style="stroke: #000000"/>
      </g>
     </g>
     <g id="text_15">
      <!-- 15:00 -->
      <g transform="translate(500.736562 302.0125) rotate(-90) scale(0.12 -0.12)">
       <use xlink:href="#ArialMT-31"/>
       <use xlink:href="#ArialMT-35" transform="translate(55.615234 0)"/>
       <use xlink:href="#ArialMT-3a" transform="translate(111.230469 0)"/>
       <use xlink:href="#ArialMT-30" transform="translate(139.013672 0)"/>
       <use xlink:href="#ArialMT-30" transform="translate(194.628906 0)"/>
      </g>
     </g>
    </g>
    <g id="xtick_16">
     <g id="line2d_57">
      <g>
       <use xlink:href="#m9f500fbbfe" x="525.534375" y="263.48625" style="stroke: #000000"/>
      </g>
     </g>
     <g id="text_16">
      <!-- 16:00 -->
      <g transform="translate(528.636562 302.0125) rotate(-90) scale(0.12 -0.12)">
       <use xlink:href="#ArialMT-31"/>
       <use xlink:href="#ArialMT-36" transform="translate(55.615234 0)"/>
       <use xlink:href="#ArialMT-3a" transform="translate(111.230469 0)"/>
       <use xlink:href="#ArialMT-30" transform="translate(139.013672 0)"/>
       <use xlink:href="#ArialMT-30" transform="translate(194.628906 0)"/>
      </g>
     </g>
    </g>
    <g id="xtick_17">
     <g id="line2d_58">
      <g>
       <use xlink:href="#m9f500fbbfe" x="553.434375" y="263.48625" style="stroke: #000000"/>
      </g>
     </g>
     <g id="text_17">
      <!-- 17:00 -->
      <g transform="translate(556.536562 302.0125) rotate(-90) scale(0.12 -0.12)">
       <use xlink:href="#ArialMT-31"/>
       <use xlink:href="#ArialMT-37" transform="translate(55.615234 0)"/>
       <use xlink:href="#ArialMT-3a" transform="translate(111.230469 0)"/>
       <use xlink:href="#ArialMT-30" transform="translate(139.013672 0)"/>
       <use xlink:href="#ArialMT-30" transform="translate(194.628906 0)"/>
      </g>
     </g>
    </g>
    <g id="xtick_18">
     <g id="line2d_59">
      <g>
       <use xlink:href="#m9f500fbbfe" x="581.334375" y="263.48625" style="stroke: #000000"/>
      </g>
     </g>
     <g id="text_18">
      <!-- 18:00 -->
      <g transform="translate(584.436562 302.0125) rotate(-90) scale(0.12 -0.12)">
       <use xlink:href="#ArialMT-31"/>
       <use xlink:href="#ArialMT-38" transform="translate(55.615234 0)"/>
       <use xlink:href="#ArialMT-3a" transform="translate(111.230469 0)"/>
       <use xlink:href="#ArialMT-30" transform="translate(139.013672 0)"/>
       <use xlink:href="#ArialMT-30" transform="translate(194.628906 0)"/>
      </g>
     </g>
    </g>
    <g id="xtick_19">
     <g id="line2d_60">
      <g>
       <use xlink:href="#m9f500fbbfe" x="609.234375" y="263.48625" style="stroke: #000000"/>
      </g>
     </g>
     <g id="text_19">
      <!-- 19:00 -->
      <g transform="translate(612.336563 302.0125) rotate(-90) scale(0.12 -0.12)">
       <use xlink:href="#ArialMT-31"/>
       <use xlink:href="#ArialMT-39" transform="translate(55.615234 0)"/>
       <use xlink:href="#ArialMT-3a" transform="translate(111.230469 0)"/>
       <use xlink:href="#ArialMT-30" transform="translate(139.013672 0)"/>
       <use xlink:href="#ArialMT-30" transform="translate(194.628906 0)"/>
      </g>
     </g>
    </g>
    <g id="xtick_20">
     <g id="line2d_61">
      <g>
       <use xlink:href="#m9f500fbbfe" x="637.134375" y="263.48625" style="stroke: #000000"/>
      </g>
     </g>
     <g id="text_20">
      <!-- 20:00 -->
      <g transform="translate(640.236562 302.0125) rotate(-90) scale(0.12 -0.12)">
       <use xlink:href="#ArialMT-32"/>
       <use xlink:href="#ArialMT-30" transform="translate(55.615234 0)"/>
       <use xlink:href="#ArialMT-3a" transform="translate(111.230469 0)"/>
       <use xlink:href="#ArialMT-30" transform="translate(139.013672 0)"/>
       <use xlink:href="#ArialMT-30" transform="translate(194.628906 0)"/>
      </g>
     </g>
    </g>
    <g id="xtick_21">
     <g id="line2d_62">
      <g>
       <use xlink:href="#m9f500fbbfe" x="665.034375" y="263.48625" style="stroke: #000000"/>
      </g>
     </g>
     <g id="text_21">
      <!-- 21:00 -->
      <g transform="translate(668.136562 302.0125) rotate(-90) scale(0.12 -0.12)">
       <use xlink:href="#ArialMT-32"/>
       <use xlink:href="#ArialMT-31" transform="translate(55.615234 0)"/>
       <use xlink:href="#ArialMT-3a" transform="translate(111.230469 0)"/>
       <use xlink:href="#ArialMT-30" transform="translate(139.013672 0)"/>
       <use xlink:href="#ArialMT-30" transform="translate(194.628906 0)"/>
      </g>
     </g>
    </g>
    <g id="xtick_22">
     <g id="line2d_63">
      <g>
       <use xlink:href="#m9f500fbbfe" x="692.934375" y="263.48625" style="stroke: #000000"/>
      </g>
     </g>
     <g id="text_22">
      <!-- 22:00 -->
      <g transform="translate(696.036562 302.0125) rotate(-90) scale(0.12 -0.12)">
       <use xlink:href="#ArialMT-32"/>
       <use xlink:href="#ArialMT-32" transform="translate(55.615234 0)"/>
       <use xlink:href="#ArialMT-3a" transform="translate(111.230469 0)"/>
       <use xlink:href="#ArialMT-30" transform="translate(139.013672 0)"/>
       <use xlink:href="#ArialMT-30" transform="translate(194.628906 0)"/>
      </g>
     </g>
    </g>
    <g id="xtick_23">
     <g id="line2d_64">
      <g>
       <use xlink:href="#m9f500fbbfe" x="720.834375" y="263.48625" style="stroke: #000000"/>
      </g>
     </g>
     <g id="text_23">
      <!-- 23:00 -->
      <g transform="translate(723.936562 302.0125) rotate(-90) scale(0.12 -0.12)">
       <use xlink:href="#ArialMT-32"/>
       <use xlink:href="#ArialMT-33" transform="translate(55.615234 0)"/>
       <use xlink:href="#ArialMT-3a" transform="translate(111.230469 0)"/>
       <use xlink:href="#ArialMT-30" transform="translate(139.013672 0)"/>
       <use xlink:href="#ArialMT-30" transform="translate(194.628906 0)"/>
      </g>
     </g>
    </g>
    <g id="xtick_24">
     <g id="line2d_65">
      <g>
       <use xlink:href="#m9f500fbbfe" x="748.734375" y="263.48625" style="stroke: #000000"/>
      </g>
     </g>
     <g id="text_24">
      <!-- 24:00 -->
      <g transform="translate(751.836562 302.0125) rotate(-90) scale(0.12 -0.12)">
       <use xlink:href="#ArialMT-32"/>
       <use xlink:href="#ArialMT-34" transform="translate(55.615234 0)"/>
       <use xlink:href="#ArialMT-3a" transform="translate(111.230469 0)"/>
       <use xlink:href="#ArialMT-30" transform="translate(139.013672 0)"/>
       <use xlink:href="#ArialMT-30" transform="translate(194.628906 0)"/>
      </g>
     </g>
    </g>
   </g>
   <g id="matplotlib.axis_2">
    <g id="ytick_1">
     <g id="line2d_66">
      <defs>
       <path id="m2416851407" d="M 0 0 
L -5 0 
" style="stroke: #000000; stroke-opacity: 0; stroke-width: 1.5"/>
      </defs>
      <g>
       <use xlink:href="#m2416851407" x="93.084375" y="251.499223" style="fill-opacity: 0; stroke: #000000; stroke-opacity: 0; stroke-width: 1.5"/>
      </g>
     </g>
     <g id="text_25">
      <!-- 0 -->
      <g transform="translate(75.686875 257.225473) scale(0.16 -0.16)">
       <use xlink:href="#ArialMT-30"/>
      </g>
     </g>
    </g>
    <g id="ytick_2">
     <g id="line2d_67">
      <g>
       <use xlink:href="#m2416851407" x="93.084375" y="209.544628" style="fill-opacity: 0; stroke: #000000; stroke-opacity: 0; stroke-width: 1.5"/>
      </g>
     </g>
     <g id="text_26">
      <!-- 70 -->
      <g transform="translate(66.789375 215.270878) scale(0.16 -0.16)">
       <use xlink:href="#ArialMT-37"/>
       <use xlink:href="#ArialMT-30" transform="translate(55.615234 0)"/>
      </g>
     </g>
    </g>
    <g id="ytick_3">
     <g id="line2d_68">
      <g>
       <use xlink:href="#m2416851407" x="93.084375" y="167.590034" style="fill-opacity: 0; stroke: #000000; stroke-opacity: 0; stroke-width: 1.5"/>
      </g>
     </g>
     <g id="text_27">
      <!-- 140 -->
      <g transform="translate(57.891875 173.316284) scale(0.16 -0.16)">
       <use xlink:href="#ArialMT-31"/>
       <use xlink:href="#ArialMT-34" transform="translate(55.615234 0)"/>
       <use xlink:href="#ArialMT-30" transform="translate(111.230469 0)"/>
      </g>
     </g>
    </g>
    <g id="ytick_4">
     <g id="line2d_69">
      <g>
       <use xlink:href="#m2416851407" x="93.084375" y="125.635439" style="fill-opacity: 0; stroke: #000000; stroke-opacity: 0; stroke-width: 1.5"/>
      </g>
     </g>
     <g id="text_28">
      <!-- 210 -->
      <g transform="translate(57.891875 131.361689) scale(0.16 -0.16)">
       <use xlink:href="#ArialMT-32"/>
       <use xlink:href="#ArialMT-31" transform="translate(55.615234 0)"/>
       <use xlink:href="#ArialMT-30" transform="translate(111.230469 0)"/>
      </g>
     </g>
    </g>
    <g id="ytick_5">
     <g id="line2d_70">
      <g>
       <use xlink:href="#m2416851407" x="93.084375" y="83.680845" style="fill-opacity: 0; stroke: #000000; stroke-opacity: 0; stroke-width: 1.5"/>
      </g>
     </g>
     <g id="text_29">
      <!-- 280 -->
      <g transform="translate(57.891875 89.407095) scale(0.16 -0.16)">
       <use xlink:href="#ArialMT-32"/>
       <use xlink:href="#ArialMT-38" transform="translate(55.615234 0)"/>
       <use xlink:href="#ArialMT-30" transform="translate(111.230469 0)"/>
      </g>
     </g>
    </g>
    <g id="ytick_6">
     <g id="line2d_71">
      <g>
       <use xlink:href="#m2416851407" x="93.084375" y="41.72625" style="fill-opacity: 0; stroke: #000000; stroke-opacity: 0; stroke-width: 1.5"/>
      </g>
     </g>
     <g id="text_30">
      <!-- 350 -->
      <g transform="translate(57.891875 47.4525) scale(0.16 -0.16)">
       <use xlink:href="#ArialMT-33"/>
       <use xlink:href="#ArialMT-35" transform="translate(55.615234 0)"/>
       <use xlink:href="#ArialMT-30" transform="translate(111.230469 0)"/>
      </g>
     </g>
    </g>
    <g id="text_31">
     <!-- Gasoline (Gallon) -->
     <g transform="translate(49.103437 222.633281) rotate(-90) scale(0.18 -0.18)">
      <defs>
       <path id="ArialMT-47" d="M 2638 1797 
L 2638 2334 
L 4578 2338 
L 4578 638 
Q 4131 281 3656 101 
Q 3181 -78 2681 -78 
Q 2006 -78 1454 211 
Q 903 500 622 1047 
Q 341 1594 341 2269 
Q 341 2938 620 3517 
Q 900 4097 1425 4378 
Q 1950 4659 2634 4659 
Q 3131 4659 3532 4498 
Q 3934 4338 4162 4050 
Q 4391 3763 4509 3300 
L 3963 3150 
Q 3859 3500 3706 3700 
Q 3553 3900 3268 4020 
Q 2984 4141 2638 4141 
Q 2222 4141 1919 4014 
Q 1616 3888 1430 3681 
Q 1244 3475 1141 3228 
Q 966 2803 966 2306 
Q 966 1694 1177 1281 
Q 1388 869 1791 669 
Q 2194 469 2647 469 
Q 3041 469 3416 620 
Q 3791 772 3984 944 
L 3984 1797 
L 2638 1797 
z
" transform="scale(0.015625)"/>
       <path id="ArialMT-61" d="M 2588 409 
Q 2275 144 1986 34 
Q 1697 -75 1366 -75 
Q 819 -75 525 192 
Q 231 459 231 875 
Q 231 1119 342 1320 
Q 453 1522 633 1644 
Q 813 1766 1038 1828 
Q 1203 1872 1538 1913 
Q 2219 1994 2541 2106 
Q 2544 2222 2544 2253 
Q 2544 2597 2384 2738 
Q 2169 2928 1744 2928 
Q 1347 2928 1158 2789 
Q 969 2650 878 2297 
L 328 2372 
Q 403 2725 575 2942 
Q 747 3159 1072 3276 
Q 1397 3394 1825 3394 
Q 2250 3394 2515 3294 
Q 2781 3194 2906 3042 
Q 3031 2891 3081 2659 
Q 3109 2516 3109 2141 
L 3109 1391 
Q 3109 606 3145 398 
Q 3181 191 3288 0 
L 2700 0 
Q 2613 175 2588 409 
z
M 2541 1666 
Q 2234 1541 1622 1453 
Q 1275 1403 1131 1340 
Q 988 1278 909 1158 
Q 831 1038 831 891 
Q 831 666 1001 516 
Q 1172 366 1500 366 
Q 1825 366 2078 508 
Q 2331 650 2450 897 
Q 2541 1088 2541 1459 
L 2541 1666 
z
" transform="scale(0.015625)"/>
       <path id="ArialMT-73" d="M 197 991 
L 753 1078 
Q 800 744 1014 566 
Q 1228 388 1613 388 
Q 2000 388 2187 545 
Q 2375 703 2375 916 
Q 2375 1106 2209 1216 
Q 2094 1291 1634 1406 
Q 1016 1563 777 1677 
Q 538 1791 414 1992 
Q 291 2194 291 2438 
Q 291 2659 392 2848 
Q 494 3038 669 3163 
Q 800 3259 1026 3326 
Q 1253 3394 1513 3394 
Q 1903 3394 2198 3281 
Q 2494 3169 2634 2976 
Q 2775 2784 2828 2463 
L 2278 2388 
Q 2241 2644 2061 2787 
Q 1881 2931 1553 2931 
Q 1166 2931 1000 2803 
Q 834 2675 834 2503 
Q 834 2394 903 2306 
Q 972 2216 1119 2156 
Q 1203 2125 1616 2013 
Q 2213 1853 2448 1751 
Q 2684 1650 2818 1456 
Q 2953 1263 2953 975 
Q 2953 694 2789 445 
Q 2625 197 2315 61 
Q 2006 -75 1616 -75 
Q 969 -75 630 194 
Q 291 463 197 991 
z
" transform="scale(0.015625)"/>
       <path id="ArialMT-6f" d="M 213 1659 
Q 213 2581 725 3025 
Q 1153 3394 1769 3394 
Q 2453 3394 2887 2945 
Q 3322 2497 3322 1706 
Q 3322 1066 3130 698 
Q 2938 331 2570 128 
Q 2203 -75 1769 -75 
Q 1072 -75 642 372 
Q 213 819 213 1659 
z
M 791 1659 
Q 791 1022 1069 705 
Q 1347 388 1769 388 
Q 2188 388 2466 706 
Q 2744 1025 2744 1678 
Q 2744 2294 2464 2611 
Q 2184 2928 1769 2928 
Q 1347 2928 1069 2612 
Q 791 2297 791 1659 
z
" transform="scale(0.015625)"/>
       <path id="ArialMT-6c" d="M 409 0 
L 409 4581 
L 972 4581 
L 972 0 
L 409 0 
z
" transform="scale(0.015625)"/>
       <path id="ArialMT-69" d="M 425 3934 
L 425 4581 
L 988 4581 
L 988 3934 
L 425 3934 
z
M 425 0 
L 425 3319 
L 988 3319 
L 988 0 
L 425 0 
z
" transform="scale(0.015625)"/>
       <path id="ArialMT-6e" d="M 422 0 
L 422 3319 
L 928 3319 
L 928 2847 
Q 1294 3394 1984 3394 
Q 2284 3394 2536 3286 
Q 2788 3178 2913 3003 
Q 3038 2828 3088 2588 
Q 3119 2431 3119 2041 
L 3119 0 
L 2556 0 
L 2556 2019 
Q 2556 2363 2490 2533 
Q 2425 2703 2258 2804 
Q 2091 2906 1866 2906 
Q 1506 2906 1245 2678 
Q 984 2450 984 1813 
L 984 0 
L 422 0 
z
" transform="scale(0.015625)"/>
       <path id="ArialMT-65" d="M 2694 1069 
L 3275 997 
Q 3138 488 2766 206 
Q 2394 -75 1816 -75 
Q 1088 -75 661 373 
Q 234 822 234 1631 
Q 234 2469 665 2931 
Q 1097 3394 1784 3394 
Q 2450 3394 2872 2941 
Q 3294 2488 3294 1666 
Q 3294 1616 3291 1516 
L 816 1516 
Q 847 969 1125 678 
Q 1403 388 1819 388 
Q 2128 388 2347 550 
Q 2566 713 2694 1069 
z
M 847 1978 
L 2700 1978 
Q 2663 2397 2488 2606 
Q 2219 2931 1791 2931 
Q 1403 2931 1139 2672 
Q 875 2413 847 1978 
z
" transform="scale(0.015625)"/>
       <path id="ArialMT-20" transform="scale(0.015625)"/>
       <path id="ArialMT-28" d="M 1497 -1347 
Q 1031 -759 709 28 
Q 388 816 388 1659 
Q 388 2403 628 3084 
Q 909 3875 1497 4659 
L 1900 4659 
Q 1522 4009 1400 3731 
Q 1209 3300 1100 2831 
Q 966 2247 966 1656 
Q 966 153 1900 -1347 
L 1497 -1347 
z
" transform="scale(0.015625)"/>
       <path id="ArialMT-29" d="M 791 -1347 
L 388 -1347 
Q 1322 153 1322 1656 
Q 1322 2244 1188 2822 
Q 1081 3291 891 3722 
Q 769 4003 388 4659 
L 791 4659 
Q 1378 3875 1659 3084 
Q 1900 2403 1900 1659 
Q 1900 816 1576 28 
Q 1253 -759 791 -1347 
z
" transform="scale(0.015625)"/>
      </defs>
      <use xlink:href="#ArialMT-47"/>
      <use xlink:href="#ArialMT-61" transform="translate(77.783203 0)"/>
      <use xlink:href="#ArialMT-73" transform="translate(133.398438 0)"/>
      <use xlink:href="#ArialMT-6f" transform="translate(183.398438 0)"/>
      <use xlink:href="#ArialMT-6c" transform="translate(239.013672 0)"/>
      <use xlink:href="#ArialMT-69" transform="translate(261.230469 0)"/>
      <use xlink:href="#ArialMT-6e" transform="translate(283.447266 0)"/>
      <use xlink:href="#ArialMT-65" transform="translate(339.0625 0)"/>
      <use xlink:href="#ArialMT-20" transform="translate(394.677734 0)"/>
      <use xlink:href="#ArialMT-28" transform="translate(422.460938 0)"/>
      <use xlink:href="#ArialMT-47" transform="translate(455.761719 0)"/>
      <use xlink:href="#ArialMT-61" transform="translate(533.544922 0)"/>
      <use xlink:href="#ArialMT-6c" transform="translate(589.160156 0)"/>
      <use xlink:href="#ArialMT-6c" transform="translate(611.376953 0)"/>
      <use xlink:href="#ArialMT-6f" transform="translate(633.59375 0)"/>
      <use xlink:href="#ArialMT-6e" transform="translate(689.208984 0)"/>
      <use xlink:href="#ArialMT-29" transform="translate(744.824219 0)"/>
     </g>
    </g>
   </g>
   <g id="line2d_72">
    <path d="M 107.034375 175.466556 
L 134.934375 200.133573 
L 162.834375 209.634461 
L 190.734375 210.690789 
L 218.634375 197.663168 
L 246.534375 151.030315 
L 274.434375 107.977752 
L 302.334375 107.729149 
L 330.234375 100.040273 
L 358.134375 97.158104 
L 386.034375 101.199482 
L 413.934375 101.460855 
L 441.834375 100.222218 
L 469.734375 101.432071 
L 497.634375 101.301575 
L 525.534375 101.721926 
L 553.434375 99.40103 
L 581.334375 99.253258 
L 609.234375 99.856739 
L 637.134375 102.911394 
L 665.034375 112.101982 
L 692.934375 106.948174 
L 720.834375 120.498422 
L 748.734375 143.704994 
" clip-path="url(#pf334904887)" style="fill: none; stroke: #9467bd; stroke-opacity: 0.8; stroke-width: 1.5; stroke-linecap: round"/>
   </g>
   <g id="line2d_73">
    <path d="M 107.034375 215.359876 
L 134.934375 226.954267 
L 162.834375 231.206167 
L 190.734375 232.088616 
L 218.634375 226.940465 
L 246.534375 208.461849 
L 274.434375 183.562848 
L 302.334375 176.583556 
L 330.234375 174.14969 
L 358.134375 173.308639 
L 386.034375 171.984312 
L 413.934375 171.425101 
L 441.834375 169.770578 
L 469.734375 170.739921 
L 497.634375 171.183691 
L 525.534375 171.803242 
L 553.434375 173.26781 
L 581.334375 173.145474 
L 609.234375 174.644756 
L 637.134375 178.014168 
L 665.034375 182.160628 
L 692.934375 181.628145 
L 720.834375 189.639441 
L 748.734375 201.563214 
" clip-path="url(#pf334904887)" style="fill: none; stroke: #8c564b; stroke-opacity: 0.8; stroke-width: 1.5; stroke-linecap: round"/>
   </g>
   <g id="line2d_74">
    <path d="M 107.034375 243.326214 
L 134.934375 247.301068 
L 162.834375 248.729232 
L 190.734375 248.445719 
L 218.634375 246.280633 
L 246.534375 239.428391 
L 274.434375 224.944827 
L 302.334375 211.921659 
L 330.234375 206.887278 
L 358.134375 206.297971 
L 386.034375 205.839293 
L 413.934375 204.607489 
L 441.834375 202.865979 
L 469.734375 203.684698 
L 497.634375 203.927203 
L 525.534375 203.206326 
L 553.434375 201.952275 
L 581.334375 201.035674 
L 609.234375 203.021636 
L 637.134375 206.395021 
L 665.034375 215.044166 
L 692.934375 223.680272 
L 720.834375 231.020668 
L 748.734375 237.490236 
" clip-path="url(#pf334904887)" style="fill: none; stroke: #ff9896; stroke-opacity: 0.8; stroke-width: 1.5; stroke-linecap: round"/>
   </g>
   <g id="line2d_75">
    <path d="M 107.034375 246.926053 
L 134.934375 248.953158 
L 162.834375 249.617571 
L 190.734375 249.482794 
L 218.634375 248.387501 
L 246.534375 243.775681 
L 274.434375 233.124648 
L 302.334375 222.597197 
L 330.234375 219.376777 
L 358.134375 218.966057 
L 386.034375 218.888574 
L 413.934375 217.945964 
L 441.834375 216.346717 
L 469.734375 217.252668 
L 497.634375 217.598048 
L 525.534375 217.699715 
L 553.434375 217.496768 
L 581.334375 216.833872 
L 609.234375 218.474646 
L 637.134375 220.243362 
L 665.034375 227.188044 
L 692.934375 233.77759 
L 720.834375 239.453972 
L 748.734375 243.590758 
" clip-path="url(#pf334904887)" style="fill: none; stroke: #d62728; stroke-opacity: 0.8; stroke-width: 1.5; stroke-linecap: round"/>
   </g>
   <g id="line2d_76">
    <path d="M 107.034375 222.418382 
L 134.934375 234.033693 
L 162.834375 238.226537 
L 190.734375 238.422189 
L 218.634375 232.526519 
L 246.534375 212.162748 
L 274.434375 186.781983 
L 302.334375 185.392043 
L 330.234375 181.041344 
L 358.134375 182.602402 
L 386.034375 181.305876 
L 413.934375 181.01491 
L 441.834375 179.191358 
L 469.734375 179.487489 
L 497.634375 179.290476 
L 525.534375 179.532308 
L 553.434375 179.636668 
L 581.334375 178.493004 
L 609.234375 179.276015 
L 637.134375 182.298005 
L 665.034375 183.556338 
L 692.934375 185.586214 
L 720.834375 195.731345 
L 748.734375 207.970566 
" clip-path="url(#pf334904887)" style="fill: none; stroke: #1f77b4; stroke-opacity: 0.8; stroke-width: 1.5; stroke-linecap: round"/>
   </g>
   <g id="line2d_77">
    <path d="M 107.034375 212.301815 
L 134.934375 226.338396 
L 162.834375 231.433681 
L 190.734375 231.797101 
L 218.634375 224.897063 
L 246.534375 200.263705 
L 274.434375 171.91815 
L 302.334375 167.674332 
L 330.234375 163.832857 
L 358.134375 162.996072 
L 386.034375 162.240398 
L 413.934375 161.636785 
L 441.834375 159.699085 
L 469.734375 160.213498 
L 497.634375 159.978711 
L 525.534375 160.346608 
L 553.434375 161.44353 
L 581.334375 160.274943 
L 609.234375 161.177132 
L 637.134375 164.205732 
L 665.034375 170.11023 
L 692.934375 170.35824 
L 720.834375 178.874406 
L 748.734375 193.205694 
" clip-path="url(#pf334904887)" style="fill: none; stroke: #aec7e8; stroke-opacity: 0.8; stroke-width: 1.5; stroke-linecap: round"/>
   </g>
   <g id="line2d_78">
    <path d="M 107.034375 246.347504 
L 134.934375 248.701278 
L 162.834375 249.457715 
L 190.734375 249.282903 
L 218.634375 248.02236 
L 246.534375 242.939989 
L 274.434375 231.521629 
L 302.334375 221.298411 
L 330.234375 218.875251 
L 358.134375 218.633513 
L 386.034375 218.386193 
L 413.934375 217.482516 
L 441.834375 215.571645 
L 469.734375 216.56389 
L 497.634375 216.600889 
L 525.534375 216.479799 
L 553.434375 216.770253 
L 581.334375 216.476735 
L 609.234375 218.185116 
L 637.134375 218.96676 
L 665.034375 225.529953 
L 692.934375 232.221443 
L 720.834375 238.192558 
L 748.734375 242.610014 
" clip-path="url(#pf334904887)" style="fill: none; stroke: #c49c94; stroke-opacity: 0.8; stroke-width: 1.5; stroke-linecap: round"/>
   </g>
   <g id="line2d_79">
    <path d="M 107.034375 243.64775 
L 134.934375 247.184991 
L 162.834375 248.305909 
L 190.734375 248.10371 
L 218.634375 246.44375 
L 246.534375 238.853841 
L 274.434375 222.529151 
L 302.334375 208.518407 
L 330.234375 203.581064 
L 358.134375 203.315409 
L 386.034375 203.466125 
L 413.934375 201.93108 
L 441.834375 199.453256 
L 469.734375 199.973261 
L 497.634375 199.930267 
L 525.534375 199.73875 
L 553.434375 199.202829 
L 581.334375 197.692078 
L 609.234375 200.352258 
L 637.134375 203.452897 
L 665.034375 212.015698 
L 692.934375 221.20418 
L 720.834375 230.613023 
L 748.734375 237.612569 
" clip-path="url(#pf334904887)" style="fill: none; stroke: #e377c2; stroke-opacity: 0.8; stroke-width: 1.5; stroke-linecap: round"/>
   </g>
   <g id="line2d_80">
    <path d="M 107.034375 210.725969 
L 134.934375 225.894641 
L 162.834375 231.375791 
L 190.734375 231.41239 
L 218.634375 223.342608 
L 246.534375 193.782666 
L 274.434375 156.578009 
L 302.334375 149.697364 
L 330.234375 148.287141 
L 358.134375 145.723357 
L 386.034375 143.75796 
L 413.934375 143.536356 
L 441.834375 141.442681 
L 469.734375 142.353381 
L 497.634375 141.986935 
L 525.534375 142.719283 
L 553.434375 143.798058 
L 581.334375 141.868183 
L 609.234375 142.788693 
L 637.134375 146.859941 
L 665.034375 149.332442 
L 692.934375 158.299081 
L 720.834375 172.444517 
L 748.734375 189.650101 
" clip-path="url(#pf334904887)" style="fill: none; stroke: #f7b6d2; stroke-opacity: 0.8; stroke-width: 1.5; stroke-linecap: round"/>
   </g>
   <g id="line2d_81">
    <path d="M 107.034375 234.881148 
L 134.934375 241.9324 
L 162.834375 244.262794 
L 190.734375 244.121231 
L 218.634375 240.269605 
L 246.534375 226.150479 
L 274.434375 206.108955 
L 302.334375 203.017638 
L 330.234375 198.938106 
L 358.134375 198.03752 
L 386.034375 196.724287 
L 413.934375 195.663168 
L 441.834375 193.427039 
L 469.734375 193.885617 
L 497.634375 193.577085 
L 525.534375 193.310165 
L 553.434375 193.098801 
L 581.334375 191.833803 
L 609.234375 193.561185 
L 637.134375 197.201494 
L 665.034375 202.198147 
L 692.934375 205.437904 
L 720.834375 214.832359 
L 748.734375 224.505123 
" clip-path="url(#pf334904887)" style="fill: none; stroke: #7f7f7f; stroke-opacity: 0.8; stroke-width: 1.5; stroke-linecap: round"/>
   </g>
   <g id="line2d_82">
    <path d="M 107.034375 241.218937 
L 134.934375 245.304769 
L 162.834375 246.672997 
L 190.734375 246.399261 
L 218.634375 244.574192 
L 246.534375 236.644132 
L 274.434375 221.177537 
L 302.334375 205.746096 
L 330.234375 198.279585 
L 358.134375 196.857408 
L 386.034375 196.338035 
L 413.934375 194.751384 
L 441.834375 191.959142 
L 469.734375 192.634944 
L 497.634375 192.822978 
L 525.534375 192.437807 
L 553.434375 191.618811 
L 581.334375 189.741632 
L 609.234375 192.853987 
L 637.134375 196.705986 
L 665.034375 205.945308 
L 692.934375 216.454646 
L 720.834375 227.13136 
L 748.734375 234.557604 
" clip-path="url(#pf334904887)" style="fill: none; stroke: #ff7f0e; stroke-opacity: 0.8; stroke-width: 1.5; stroke-linecap: round"/>
   </g>
   <g id="line2d_83">
    <path d="M 107.034375 246.758885 
L 134.934375 250.011975 
L 162.834375 250.797982 
L 190.734375 250.743522 
L 218.634375 249.668796 
L 246.534375 243.091026 
L 274.434375 229.772058 
L 302.334375 218.282385 
L 330.234375 212.802322 
L 358.134375 212.167552 
L 386.034375 210.523952 
L 413.934375 208.920386 
L 441.834375 206.446762 
L 469.734375 208.061447 
L 497.634375 208.537757 
L 525.534375 209.019431 
L 553.434375 208.351627 
L 581.334375 208.23874 
L 609.234375 210.076188 
L 637.134375 211.534795 
L 665.034375 220.211038 
L 692.934375 228.381269 
L 720.834375 236.488337 
L 748.734375 241.91142 
" clip-path="url(#pf334904887)" style="fill: none; stroke: #c7c7c7; stroke-opacity: 0.8; stroke-width: 1.5; stroke-linecap: round"/>
   </g>
   <g id="line2d_84">
    <path d="M 107.034375 243.266316 
L 134.934375 246.249696 
L 162.834375 247.425963 
L 190.734375 247.183564 
L 218.634375 245.678146 
L 246.534375 240.348174 
L 274.434375 229.562864 
L 302.334375 218.585271 
L 330.234375 213.300489 
L 358.134375 211.216509 
L 386.034375 209.84952 
L 413.934375 209.869182 
L 441.834375 205.704557 
L 469.734375 206.283556 
L 497.634375 206.231666 
L 525.534375 205.544684 
L 553.434375 205.179469 
L 581.334375 204.563056 
L 609.234375 207.058859 
L 637.134375 211.164117 
L 665.034375 218.871165 
L 692.934375 226.162243 
L 720.834375 233.284701 
L 748.734375 238.259471 
" clip-path="url(#pf334904887)" style="fill: none; stroke: #c5b0d5; stroke-opacity: 0.8; stroke-width: 1.5; stroke-linecap: round"/>
   </g>
   <g id="line2d_85">
    <path d="M 107.034375 218.371938 
L 134.934375 230.501063 
L 162.834375 234.712336 
L 190.734375 233.992689 
L 218.634375 227.236644 
L 246.534375 204.022228 
L 274.434375 165.669406 
L 302.334375 146.691171 
L 330.234375 144.55652 
L 358.134375 145.660819 
L 386.034375 143.465991 
L 413.934375 142.190342 
L 441.834375 139.456263 
L 469.734375 139.611984 
L 497.634375 138.542535 
L 525.534375 137.609031 
L 553.434375 138.237438 
L 581.334375 139.393745 
L 609.234375 140.377777 
L 637.134375 147.720647 
L 665.034375 148.010665 
L 692.934375 165.48566 
L 720.834375 184.358902 
L 748.734375 201.937928 
" clip-path="url(#pf334904887)" style="fill: none; stroke: #bcbd22; stroke-opacity: 0.8; stroke-width: 1.5; stroke-linecap: round"/>
   </g>
   <g id="line2d_86">
    <path d="M 107.034375 193.576576 
L 134.934375 214.83374 
L 162.834375 222.353806 
L 190.734375 220.872189 
L 218.634375 208.377178 
L 246.534375 171.189472 
L 274.434375 107.882323 
L 302.334375 80.431575 
L 330.234375 72.365017 
L 358.134375 69.851027 
L 386.034375 67.257757 
L 413.934375 94.285887 
L 441.834375 86.612934 
L 469.734375 83.382982 
L 497.634375 73.517286 
L 525.534375 66.111648 
L 553.434375 71.466633 
L 581.334375 83.230565 
L 609.234375 91.820359 
L 637.134375 66.969514 
L 665.034375 83.81153 
L 692.934375 111.54603 
L 720.834375 138.864435 
L 748.734375 166.020588 
" clip-path="url(#pf334904887)" style="fill: none; stroke: #dbdb8d; stroke-opacity: 0.8; stroke-width: 1.5; stroke-linecap: round"/>
   </g>
   <g id="line2d_87">
    <path d="M 107.034375 212.576546 
L 134.934375 227.060968 
L 162.834375 232.360423 
L 190.734375 232.023458 
L 218.634375 225.566558 
L 246.534375 202.122018 
L 274.434375 156.506272 
L 302.334375 137.816451 
L 330.234375 132.62043 
L 358.134375 132.556611 
L 386.034375 149.758586 
L 413.934375 143.208332 
L 441.834375 127.942463 
L 469.734375 126.545299 
L 497.634375 119.840785 
L 525.534375 114.639718 
L 553.434375 112.619525 
L 581.334375 117.542648 
L 609.234375 128.978766 
L 637.134375 148.403542 
L 665.034375 135.891042 
L 692.934375 152.739159 
L 720.834375 172.138053 
L 748.734375 192.377441 
" clip-path="url(#pf334904887)" style="fill: none; stroke: #17becf; stroke-opacity: 0.8; stroke-width: 1.5; stroke-linecap: round"/>
   </g>
   <g id="line2d_88">
    <path d="M 107.034375 233.266797 
L 134.934375 240.414604 
L 162.834375 242.803406 
L 190.734375 242.351052 
L 218.634375 238.44192 
L 246.534375 223.81138 
L 274.434375 199.89404 
L 302.334375 184.530441 
L 330.234375 182.501957 
L 358.134375 183.379841 
L 386.034375 181.746239 
L 413.934375 180.660126 
L 441.834375 177.954482 
L 469.734375 178.125131 
L 497.634375 177.514184 
L 525.534375 176.586724 
L 553.434375 175.968985 
L 581.334375 175.294203 
L 609.234375 177.867344 
L 637.134375 184.337969 
L 665.034375 186.56188 
L 692.934375 198.885203 
L 720.834375 212.082789 
L 748.734375 223.271341 
" clip-path="url(#pf334904887)" style="fill: none; stroke: #9edae5; stroke-opacity: 0.8; stroke-width: 1.5; stroke-linecap: round"/>
   </g>
   <g id="line2d_89">
    <path d="M 107.034375 244.955568 
L 134.934375 247.545555 
L 162.834375 248.546845 
L 190.734375 248.289365 
L 218.634375 246.570293 
L 246.534375 239.901875 
L 274.434375 224.823971 
L 302.334375 209.108582 
L 330.234375 206.055196 
L 358.134375 205.616854 
L 386.034375 204.855936 
L 413.934375 205.357562 
L 441.834375 200.921158 
L 469.734375 201.626383 
L 497.634375 201.514997 
L 525.534375 200.910477 
L 553.434375 201.055224 
L 581.334375 200.536764 
L 609.234375 203.568974 
L 637.134375 208.725217 
L 665.034375 218.475652 
L 692.934375 226.882665 
L 720.834375 234.935506 
L 748.734375 240.254411 
" clip-path="url(#pf334904887)" style="fill: none; stroke: #2ca02c; stroke-opacity: 0.8; stroke-width: 1.5; stroke-linecap: round"/>
   </g>
   <g id="line2d_90">
    <path d="M 107.034375 225.665827 
L 134.934375 235.438499 
L 162.834375 238.909652 
L 190.734375 238.876078 
L 218.634375 233.887012 
L 246.534375 215.452688 
L 274.434375 192.393358 
L 302.334375 189.385561 
L 330.234375 188.127854 
L 358.134375 187.051098 
L 386.034375 185.466422 
L 413.934375 184.621209 
L 441.834375 182.51769 
L 469.734375 183.207021 
L 497.634375 183.031131 
L 525.534375 183.18166 
L 553.434375 183.106437 
L 581.334375 181.901303 
L 609.234375 183.501616 
L 637.134375 187.125363 
L 665.034375 191.326708 
L 692.934375 191.775312 
L 720.834375 200.924434 
L 748.734375 212.123317 
" clip-path="url(#pf334904887)" style="fill: none; stroke: #98df8a; stroke-opacity: 0.8; stroke-width: 1.5; stroke-linecap: round"/>
   </g>
   <g id="line2d_91">
    <path d="M 107.034375 193.084767 
L 134.934375 214.236705 
L 162.834375 221.375785 
L 190.734375 220.844964 
L 218.634375 207.172556 
L 246.534375 163.471604 
L 274.434375 116.55104 
L 302.334375 107.821653 
L 330.234375 106.769248 
L 358.134375 112.140035 
L 386.034375 123.548362 
L 413.934375 117.959461 
L 441.834375 105.361398 
L 469.734375 104.657392 
L 497.634375 99.201627 
L 525.534375 94.126583 
L 553.434375 93.342542 
L 581.334375 95.385418 
L 609.234375 105.021573 
L 637.134375 124.990506 
L 665.034375 106.820919 
L 692.934375 120.423227 
L 720.834375 139.944278 
L 748.734375 164.183874 
" clip-path="url(#pf334904887)" style="fill: none; stroke: #ffbb78; stroke-opacity: 0.8; stroke-width: 1.5; stroke-linecap: round"/>
   </g>
   <g id="patch_3">
    <path d="M 93.084375 263.48625 
L 93.084375 41.72625 
" style="fill: none; stroke: #000000; stroke-linejoin: miter; stroke-linecap: square"/>
   </g>
   <g id="patch_4">
    <path d="M 762.684375 263.48625 
L 762.684375 41.72625 
" style="fill: none; stroke: #000000; stroke-linejoin: miter; stroke-linecap: square"/>
   </g>
   <g id="patch_5">
    <path d="M 93.084375 263.48625 
L 762.684375 263.48625 
" style="fill: none; stroke: #000000; stroke-linejoin: miter; stroke-linecap: square"/>
   </g>
   <g id="patch_6">
    <path d="M 93.084375 41.72625 
L 762.684375 41.72625 
" style="fill: none; stroke: #000000; stroke-linejoin: miter; stroke-linecap: square"/>
   </g>
  </g>
 </g>
 <defs>
  <clipPath id="pf334904887">
   <rect x="93.084375" y="41.72625" width="669.6" height="221.76"/>
  </clipPath>
 </defs>
</svg>
