<?xml version="1.0" encoding="utf-8" standalone="no"?>
<!DOCTYPE svg PUBLIC "-//W3C//DTD SVG 1.1//EN"
  "http://www.w3.org/Graphics/SVG/1.1/DTD/svg11.dtd">
<svg xmlns:xlink="http://www.w3.org/1999/xlink" width="798.684375pt" height="338.0125pt" viewBox="0 0 798.684375 338.0125" xmlns="http://www.w3.org/2000/svg" version="1.1">
 <metadata>
  <rdf:RDF xmlns:dc="http://purl.org/dc/elements/1.1/" xmlns:cc="http://creativecommons.org/ns#" xmlns:rdf="http://www.w3.org/1999/02/22-rdf-syntax-ns#">
   <cc:Work>
    <dc:type rdf:resource="http://purl.org/dc/dcmitype/StillImage"/>
    <dc:date>2025-10-27T21:41:53.763773</dc:date>
    <dc:format>image/svg+xml</dc:format>
    <dc:creator>
     <cc:Agent>
      <dc:title>Matplotlib v3.10.7, https://matplotlib.org/</dc:title>
     </cc:Agent>
    </dc:creator>
   </cc:Work>
  </rdf:RDF>
 </metadata>
 <defs>
  <style type="text/css">*{stroke-linejoin: round; stroke-linecap: butt}</style>
 </defs>
 <g id="figure_1">
  <g id="patch_1">
   <path d="M 0 338.0125 
L 798.684375 338.0125 
L 798.684375 0 
L 0 0 
L 0 338.0125 
z
" style="fill: none"/>
  </g>
  <g id="axes_1">
   <g id="patch_2">
    <path d="M 93.084375 263.48625 
L 762.684375 263.48625 
L 762.684375 41.72625 
L 93.084375 41.72625 
L 93.084375 263.48625 
z
" style="fill: none"/>
   </g>
   <g id="line2d_1">
    <path d="M 113.375284 263.48625 
L 113.375284 41.72625 
" clip-path="url(#p6bf6161fc3)" style="fill: none; stroke-dasharray: 0.74,0.32; stroke-dashoffset: 0; stroke: #a9a9a9; stroke-opacity: 0.5; stroke-width: 0.2"/>
   </g>
   <g id="line2d_2">
    <path d="M 133.666193 263.48625 
L 133.666193 41.72625 
" clip-path="url(#p6bf6161fc3)" style="fill: none; stroke-dasharray: 0.74,0.32; stroke-dashoffset: 0; stroke: #a9a9a9; stroke-opacity: 0.5; stroke-width: 0.2"/>
   </g>
   <g id="line2d_3">
    <path d="M 153.957102 263.48625 
L 153.957102 41.72625 
" clip-path="url(#p6bf6161fc3)" style="fill: none; stroke-dasharray: 0.74,0.32; stroke-dashoffset: 0; stroke: #a9a9a9; stroke-opacity: 0.5; stroke-width: 0.2"/>
   </g>
   <g id="line2d_4">
    <path d="M 174.248011 263.48625 
L 174.248011 41.72625 
" clip-path="url(#p6bf6161fc3)" style="fill: none; stroke-dasharray: 0.74,0.32; stroke-dashoffset: 0; stroke: #a9a9a9; stroke-opacity: 0.5; stroke-width: 0.2"/>
   </g>
   <g id="line2d_5">
    <path d="M 194.53892 263.48625 
L 194.53892 41.72625 
" clip-path="url(#p6bf6161fc3)" style="fill: none; stroke-dasharray: 0.74,0.32; stroke-dashoffset: 0; stroke: #a9a9a9; stroke-opacity: 0.5; stroke-width: 0.2"/>
   </g>
   <g id="line2d_6">
    <path d="M 214.82983 263.48625 
L 214.82983 41.72625 
" clip-path="url(#p6bf6161fc3)" style="fill: none; stroke-dasharray: 0.74,0.32; stroke-dashoffset: 0; stroke: #a9a9a9; stroke-opacity: 0.5; stroke-width: 0.2"/>
   </g>
   <g id="line2d_7">
    <path d="M 235.120739 263.48625 
L 235.120739 41.72625 
" clip-path="url(#p6bf6161fc3)" style="fill: none; stroke-dasharray: 0.74,0.32; stroke-dashoffset: 0; stroke: #a9a9a9; stroke-opacity: 0.5; stroke-width: 0.2"/>
   </g>
   <g id="line2d_8">
    <path d="M 255.411648 263.48625 
L 255.411648 41.72625 
" clip-path="url(#p6bf6161fc3)" style="fill: none; stroke-dasharray: 0.74,0.32; stroke-dashoffset: 0; stroke: #a9a9a9; stroke-opacity: 0.5; stroke-width: 0.2"/>
   </g>
   <g id="line2d_9">
    <path d="M 275.702557 263.48625 
L 275.702557 41.72625 
" clip-path="url(#p6bf6161fc3)" style="fill: none; stroke-dasharray: 0.74,0.32; stroke-dashoffset: 0; stroke: #a9a9a9; stroke-opacity: 0.5; stroke-width: 0.2"/>
   </g>
   <g id="line2d_10">
    <path d="M 295.993466 263.48625 
L 295.993466 41.72625 
" clip-path="url(#p6bf6161fc3)" style="fill: none; stroke-dasharray: 0.74,0.32; stroke-dashoffset: 0; stroke: #a9a9a9; stroke-opacity: 0.5; stroke-width: 0.2"/>
   </g>
   <g id="line2d_11">
    <path d="M 316.284375 263.48625 
L 316.284375 41.72625 
" clip-path="url(#p6bf6161fc3)" style="fill: none; stroke-dasharray: 0.74,0.32; stroke-dashoffset: 0; stroke: #a9a9a9; stroke-opacity: 0.5; stroke-width: 0.2"/>
   </g>
   <g id="line2d_12">
    <path d="M 336.575284 263.48625 
L 336.575284 41.72625 
" clip-path="url(#p6bf6161fc3)" style="fill: none; stroke-dasharray: 0.74,0.32; stroke-dashoffset: 0; stroke: #a9a9a9; stroke-opacity: 0.5; stroke-width: 0.2"/>
   </g>
   <g id="line2d_13">
    <path d="M 356.866193 263.48625 
L 356.866193 41.72625 
" clip-path="url(#p6bf6161fc3)" style="fill: none; stroke-dasharray: 0.74,0.32; stroke-dashoffset: 0; stroke: #a9a9a9; stroke-opacity: 0.5; stroke-width: 0.2"/>
   </g>
   <g id="line2d_14">
    <path d="M 377.157102 263.48625 
L 377.157102 41.72625 
" clip-path="url(#p6bf6161fc3)" style="fill: none; stroke-dasharray: 0.74,0.32; stroke-dashoffset: 0; stroke: #a9a9a9; stroke-opacity: 0.5; stroke-width: 0.2"/>
   </g>
   <g id="line2d_15">
    <path d="M 397.448011 263.48625 
L 397.448011 41.72625 
" clip-path="url(#p6bf6161fc3)" style="fill: none; stroke-dasharray: 0.74,0.32; stroke-dashoffset: 0; stroke: #a9a9a9; stroke-opacity: 0.5; stroke-width: 0.2"/>
   </g>
   <g id="line2d_16">
    <path d="M 417.73892 263.48625 
L 417.73892 41.72625 
" clip-path="url(#p6bf6161fc3)" style="fill: none; stroke-dasharray: 0.74,0.32; stroke-dashoffset: 0; stroke: #a9a9a9; stroke-opacity: 0.5; stroke-width: 0.2"/>
   </g>
   <g id="line2d_17">
    <path d="M 438.02983 263.48625 
L 438.02983 41.72625 
" clip-path="url(#p6bf6161fc3)" style="fill: none; stroke-dasharray: 0.74,0.32; stroke-dashoffset: 0; stroke: #a9a9a9; stroke-opacity: 0.5; stroke-width: 0.2"/>
   </g>
   <g id="line2d_18">
    <path d="M 458.320739 263.48625 
L 458.320739 41.72625 
" clip-path="url(#p6bf6161fc3)" style="fill: none; stroke-dasharray: 0.74,0.32; stroke-dashoffset: 0; stroke: #a9a9a9; stroke-opacity: 0.5; stroke-width: 0.2"/>
   </g>
   <g id="line2d_19">
    <path d="M 478.611648 263.48625 
L 478.611648 41.72625 
" clip-path="url(#p6bf6161fc3)" style="fill: none; stroke-dasharray: 0.74,0.32; stroke-dashoffset: 0; stroke: #a9a9a9; stroke-opacity: 0.5; stroke-width: 0.2"/>
   </g>
   <g id="line2d_20">
    <path d="M 498.902557 263.48625 
L 498.902557 41.72625 
" clip-path="url(#p6bf6161fc3)" style="fill: none; stroke-dasharray: 0.74,0.32; stroke-dashoffset: 0; stroke: #a9a9a9; stroke-opacity: 0.5; stroke-width: 0.2"/>
   </g>
   <g id="line2d_21">
    <path d="M 519.193466 263.48625 
L 519.193466 41.72625 
" clip-path="url(#p6bf6161fc3)" style="fill: none; stroke-dasharray: 0.74,0.32; stroke-dashoffset: 0; stroke: #a9a9a9; stroke-opacity: 0.5; stroke-width: 0.2"/>
   </g>
   <g id="line2d_22">
    <path d="M 539.484375 263.48625 
L 539.484375 41.72625 
" clip-path="url(#p6bf6161fc3)" style="fill: none; stroke-dasharray: 0.74,0.32; stroke-dashoffset: 0; stroke: #a9a9a9; stroke-opacity: 0.5; stroke-width: 0.2"/>
   </g>
   <g id="line2d_23">
    <path d="M 559.775284 263.48625 
L 559.775284 41.72625 
" clip-path="url(#p6bf6161fc3)" style="fill: none; stroke-dasharray: 0.74,0.32; stroke-dashoffset: 0; stroke: #a9a9a9; stroke-opacity: 0.5; stroke-width: 0.2"/>
   </g>
   <g id="line2d_24">
    <path d="M 580.066193 263.48625 
L 580.066193 41.72625 
" clip-path="url(#p6bf6161fc3)" style="fill: none; stroke-dasharray: 0.74,0.32; stroke-dashoffset: 0; stroke: #a9a9a9; stroke-opacity: 0.5; stroke-width: 0.2"/>
   </g>
   <g id="line2d_25">
    <path d="M 600.357102 263.48625 
L 600.357102 41.72625 
" clip-path="url(#p6bf6161fc3)" style="fill: none; stroke-dasharray: 0.74,0.32; stroke-dashoffset: 0; stroke: #a9a9a9; stroke-opacity: 0.5; stroke-width: 0.2"/>
   </g>
   <g id="line2d_26">
    <path d="M 620.648011 263.48625 
L 620.648011 41.72625 
" clip-path="url(#p6bf6161fc3)" style="fill: none; stroke-dasharray: 0.74,0.32; stroke-dashoffset: 0; stroke: #a9a9a9; stroke-opacity: 0.5; stroke-width: 0.2"/>
   </g>
   <g id="line2d_27">
    <path d="M 640.93892 263.48625 
L 640.93892 41.72625 
" clip-path="url(#p6bf6161fc3)" style="fill: none; stroke-dasharray: 0.74,0.32; stroke-dashoffset: 0; stroke: #a9a9a9; stroke-opacity: 0.5; stroke-width: 0.2"/>
   </g>
   <g id="line2d_28">
    <path d="M 661.22983 263.48625 
L 661.22983 41.72625 
" clip-path="url(#p6bf6161fc3)" style="fill: none; stroke-dasharray: 0.74,0.32; stroke-dashoffset: 0; stroke: #a9a9a9; stroke-opacity: 0.5; stroke-width: 0.2"/>
   </g>
   <g id="line2d_29">
    <path d="M 681.520739 263.48625 
L 681.520739 41.72625 
" clip-path="url(#p6bf6161fc3)" style="fill: none; stroke-dasharray: 0.74,0.32; stroke-dashoffset: 0; stroke: #a9a9a9; stroke-opacity: 0.5; stroke-width: 0.2"/>
   </g>
   <g id="line2d_30">
    <path d="M 701.811648 263.48625 
L 701.811648 41.72625 
" clip-path="url(#p6bf6161fc3)" style="fill: none; stroke-dasharray: 0.74,0.32; stroke-dashoffset: 0; stroke: #a9a9a9; stroke-opacity: 0.5; stroke-width: 0.2"/>
   </g>
   <g id="line2d_31">
    <path d="M 722.102557 263.48625 
L 722.102557 41.72625 
" clip-path="url(#p6bf6161fc3)" style="fill: none; stroke-dasharray: 0.74,0.32; stroke-dashoffset: 0; stroke: #a9a9a9; stroke-opacity: 0.5; stroke-width: 0.2"/>
   </g>
   <g id="line2d_32">
    <path d="M 742.393466 263.48625 
L 742.393466 41.72625 
" clip-path="url(#p6bf6161fc3)" style="fill: none; stroke-dasharray: 0.74,0.32; stroke-dashoffset: 0; stroke: #a9a9a9; stroke-opacity: 0.5; stroke-width: 0.2"/>
   </g>
   <g id="line2d_33">
    <path d="M 93.084375 241.31025 
L 762.684375 241.31025 
" clip-path="url(#p6bf6161fc3)" style="fill: none; stroke-dasharray: 0.74,0.32; stroke-dashoffset: 0; stroke: #a9a9a9; stroke-opacity: 0.5; stroke-width: 0.2"/>
   </g>
   <g id="line2d_34">
    <path d="M 93.084375 219.13425 
L 762.684375 219.13425 
" clip-path="url(#p6bf6161fc3)" style="fill: none; stroke-dasharray: 0.74,0.32; stroke-dashoffset: 0; stroke: #a9a9a9; stroke-opacity: 0.5; stroke-width: 0.2"/>
   </g>
   <g id="line2d_35">
    <path d="M 93.084375 196.95825 
L 762.684375 196.95825 
" clip-path="url(#p6bf6161fc3)" style="fill: none; stroke-dasharray: 0.74,0.32; stroke-dashoffset: 0; stroke: #a9a9a9; stroke-opacity: 0.5; stroke-width: 0.2"/>
   </g>
   <g id="line2d_36">
    <path d="M 93.084375 174.78225 
L 762.684375 174.78225 
" clip-path="url(#p6bf6161fc3)" style="fill: none; stroke-dasharray: 0.74,0.32; stroke-dashoffset: 0; stroke: #a9a9a9; stroke-opacity: 0.5; stroke-width: 0.2"/>
   </g>
   <g id="line2d_37">
    <path d="M 93.084375 152.60625 
L 762.684375 152.60625 
" clip-path="url(#p6bf6161fc3)" style="fill: none; stroke-dasharray: 0.74,0.32; stroke-dashoffset: 0; stroke: #a9a9a9; stroke-opacity: 0.5; stroke-width: 0.2"/>
   </g>
   <g id="line2d_38">
    <path d="M 93.084375 130.43025 
L 762.684375 130.43025 
" clip-path="url(#p6bf6161fc3)" style="fill: none; stroke-dasharray: 0.74,0.32; stroke-dashoffset: 0; stroke: #a9a9a9; stroke-opacity: 0.5; stroke-width: 0.2"/>
   </g>
   <g id="line2d_39">
    <path d="M 93.084375 108.25425 
L 762.684375 108.25425 
" clip-path="url(#p6bf6161fc3)" style="fill: none; stroke-dasharray: 0.74,0.32; stroke-dashoffset: 0; stroke: #a9a9a9; stroke-opacity: 0.5; stroke-width: 0.2"/>
   </g>
   <g id="line2d_40">
    <path d="M 93.084375 86.07825 
L 762.684375 86.07825 
" clip-path="url(#p6bf6161fc3)" style="fill: none; stroke-dasharray: 0.74,0.32; stroke-dashoffset: 0; stroke: #a9a9a9; stroke-opacity: 0.5; stroke-width: 0.2"/>
   </g>
   <g id="line2d_41">
    <path d="M 93.084375 63.90225 
L 762.684375 63.90225 
" clip-path="url(#p6bf6161fc3)" style="fill: none; stroke-dasharray: 0.74,0.32; stroke-dashoffset: 0; stroke: #a9a9a9; stroke-opacity: 0.5; stroke-width: 0.2"/>
   </g>
   <g id="matplotlib.axis_1">
    <g id="xtick_1">
     <g id="line2d_42">
      <defs>
       <path id="m5f85ab807f" d="M 0 0 
L 0 5 
" style="stroke: #000000"/>
      </defs>
      <g>
       <use xlink:href="#m5f85ab807f" x="107.034375" y="263.48625" style="stroke: #000000"/>
      </g>
     </g>
     <g id="text_1">
      <!-- 1:00 -->
      <g transform="translate(110.136562 295.339375) rotate(-90) scale(0.12 -0.12)">
       <defs>
        <path id="ArialMT-31" d="M 2384 0 
L 1822 0 
L 1822 3584 
Q 1619 3391 1289 3197 
Q 959 3003 697 2906 
L 697 3450 
Q 1169 3672 1522 3987 
Q 1875 4303 2022 4600 
L 2384 4600 
L 2384 0 
z
" transform="scale(0.015625)"/>
        <path id="ArialMT-3a" d="M 578 2678 
L 578 3319 
L 1219 3319 
L 1219 2678 
L 578 2678 
z
M 578 0 
L 578 641 
L 1219 641 
L 1219 0 
L 578 0 
z
" transform="scale(0.015625)"/>
        <path id="ArialMT-30" d="M 266 2259 
Q 266 3072 433 3567 
Q 600 4063 929 4331 
Q 1259 4600 1759 4600 
Q 2128 4600 2406 4451 
Q 2684 4303 2865 4023 
Q 3047 3744 3150 3342 
Q 3253 2941 3253 2259 
Q 3253 1453 3087 958 
Q 2922 463 2592 192 
Q 2263 -78 1759 -78 
Q 1097 -78 719 397 
Q 266 969 266 2259 
z
M 844 2259 
Q 844 1131 1108 757 
Q 1372 384 1759 384 
Q 2147 384 2411 759 
Q 2675 1134 2675 2259 
Q 2675 3391 2411 3762 
Q 2147 4134 1753 4134 
Q 1366 4134 1134 3806 
Q 844 3388 844 2259 
z
" transform="scale(0.015625)"/>
       </defs>
       <use xlink:href="#ArialMT-31"/>
       <use xlink:href="#ArialMT-3a" transform="translate(55.615234 0)"/>
       <use xlink:href="#ArialMT-30" transform="translate(83.398438 0)"/>
       <use xlink:href="#ArialMT-30" transform="translate(139.013672 0)"/>
      </g>
     </g>
    </g>
    <g id="xtick_2">
     <g id="line2d_43">
      <g>
       <use xlink:href="#m5f85ab807f" x="134.934375" y="263.48625" style="stroke: #000000"/>
      </g>
     </g>
     <g id="text_2">
      <!-- 2:00 -->
      <g transform="translate(138.036563 295.339375) rotate(-90) scale(0.12 -0.12)">
       <defs>
        <path id="ArialMT-32" d="M 3222 541 
L 3222 0 
L 194 0 
Q 188 203 259 391 
Q 375 700 629 1000 
Q 884 1300 1366 1694 
Q 2113 2306 2375 2664 
Q 2638 3022 2638 3341 
Q 2638 3675 2398 3904 
Q 2159 4134 1775 4134 
Q 1369 4134 1125 3890 
Q 881 3647 878 3216 
L 300 3275 
Q 359 3922 746 4261 
Q 1134 4600 1788 4600 
Q 2447 4600 2831 4234 
Q 3216 3869 3216 3328 
Q 3216 3053 3103 2787 
Q 2991 2522 2730 2228 
Q 2469 1934 1863 1422 
Q 1356 997 1212 845 
Q 1069 694 975 541 
L 3222 541 
z
" transform="scale(0.015625)"/>
       </defs>
       <use xlink:href="#ArialMT-32"/>
       <use xlink:href="#ArialMT-3a" transform="translate(55.615234 0)"/>
       <use xlink:href="#ArialMT-30" transform="translate(83.398438 0)"/>
       <use xlink:href="#ArialMT-30" transform="translate(139.013672 0)"/>
      </g>
     </g>
    </g>
    <g id="xtick_3">
     <g id="line2d_44">
      <g>
       <use xlink:href="#m5f85ab807f" x="162.834375" y="263.48625" style="stroke: #000000"/>
      </g>
     </g>
     <g id="text_3">
      <!-- 3:00 -->
      <g transform="translate(165.936562 295.339375) rotate(-90) scale(0.12 -0.12)">
       <defs>
        <path id="ArialMT-33" d="M 269 1209 
L 831 1284 
Q 928 806 1161 595 
Q 1394 384 1728 384 
Q 2125 384 2398 659 
Q 2672 934 2672 1341 
Q 2672 1728 2419 1979 
Q 2166 2231 1775 2231 
Q 1616 2231 1378 2169 
L 1441 2663 
Q 1497 2656 1531 2656 
Q 1891 2656 2178 2843 
Q 2466 3031 2466 3422 
Q 2466 3731 2256 3934 
Q 2047 4138 1716 4138 
Q 1388 4138 1169 3931 
Q 950 3725 888 3313 
L 325 3413 
Q 428 3978 793 4289 
Q 1159 4600 1703 4600 
Q 2078 4600 2393 4439 
Q 2709 4278 2876 4000 
Q 3044 3722 3044 3409 
Q 3044 3113 2884 2869 
Q 2725 2625 2413 2481 
Q 2819 2388 3044 2092 
Q 3269 1797 3269 1353 
Q 3269 753 2831 336 
Q 2394 -81 1725 -81 
Q 1122 -81 723 278 
Q 325 638 269 1209 
z
" transform="scale(0.015625)"/>
       </defs>
       <use xlink:href="#ArialMT-33"/>
       <use xlink:href="#ArialMT-3a" transform="translate(55.615234 0)"/>
       <use xlink:href="#ArialMT-30" transform="translate(83.398438 0)"/>
       <use xlink:href="#ArialMT-30" transform="translate(139.013672 0)"/>
      </g>
     </g>
    </g>
    <g id="xtick_4">
     <g id="line2d_45">
      <g>
       <use xlink:href="#m5f85ab807f" x="190.734375" y="263.48625" style="stroke: #000000"/>
      </g>
     </g>
     <g id="text_4">
      <!-- 4:00 -->
      <g transform="translate(193.836563 295.339375) rotate(-90) scale(0.12 -0.12)">
       <defs>
        <path id="ArialMT-34" d="M 2069 0 
L 2069 1097 
L 81 1097 
L 81 1613 
L 2172 4581 
L 2631 4581 
L 2631 1613 
L 3250 1613 
L 3250 1097 
L 2631 1097 
L 2631 0 
L 2069 0 
z
M 2069 1613 
L 2069 3678 
L 634 1613 
L 2069 1613 
z
" transform="scale(0.015625)"/>
       </defs>
       <use xlink:href="#ArialMT-34"/>
       <use xlink:href="#ArialMT-3a" transform="translate(55.615234 0)"/>
       <use xlink:href="#ArialMT-30" transform="translate(83.398438 0)"/>
       <use xlink:href="#ArialMT-30" transform="translate(139.013672 0)"/>
      </g>
     </g>
    </g>
    <g id="xtick_5">
     <g id="line2d_46">
      <g>
       <use xlink:href="#m5f85ab807f" x="218.634375" y="263.48625" style="stroke: #000000"/>
      </g>
     </g>
     <g id="text_5">
      <!-- 5:00 -->
      <g transform="translate(221.736562 295.339375) rotate(-90) scale(0.12 -0.12)">
       <defs>
        <path id="ArialMT-35" d="M 266 1200 
L 856 1250 
Q 922 819 1161 601 
Q 1400 384 1738 384 
Q 2144 384 2425 690 
Q 2706 997 2706 1503 
Q 2706 1984 2436 2262 
Q 2166 2541 1728 2541 
Q 1456 2541 1237 2417 
Q 1019 2294 894 2097 
L 366 2166 
L 809 4519 
L 3088 4519 
L 3088 3981 
L 1259 3981 
L 1013 2750 
Q 1425 3038 1878 3038 
Q 2478 3038 2890 2622 
Q 3303 2206 3303 1553 
Q 3303 931 2941 478 
Q 2500 -78 1738 -78 
Q 1113 -78 717 272 
Q 322 622 266 1200 
z
" transform="scale(0.015625)"/>
       </defs>
       <use xlink:href="#ArialMT-35"/>
       <use xlink:href="#ArialMT-3a" transform="translate(55.615234 0)"/>
       <use xlink:href="#ArialMT-30" transform="translate(83.398438 0)"/>
       <use xlink:href="#ArialMT-30" transform="translate(139.013672 0)"/>
      </g>
     </g>
    </g>
    <g id="xtick_6">
     <g id="line2d_47">
      <g>
       <use xlink:href="#m5f85ab807f" x="246.534375" y="263.48625" style="stroke: #000000"/>
      </g>
     </g>
     <g id="text_6">
      <!-- 6:00 -->
      <g transform="translate(249.636563 295.339375) rotate(-90) scale(0.12 -0.12)">
       <defs>
        <path id="ArialMT-36" d="M 3184 3459 
L 2625 3416 
Q 2550 3747 2413 3897 
Q 2184 4138 1850 4138 
Q 1581 4138 1378 3988 
Q 1113 3794 959 3422 
Q 806 3050 800 2363 
Q 1003 2672 1297 2822 
Q 1591 2972 1913 2972 
Q 2475 2972 2870 2558 
Q 3266 2144 3266 1488 
Q 3266 1056 3080 686 
Q 2894 316 2569 119 
Q 2244 -78 1831 -78 
Q 1128 -78 684 439 
Q 241 956 241 2144 
Q 241 3472 731 4075 
Q 1159 4600 1884 4600 
Q 2425 4600 2770 4297 
Q 3116 3994 3184 3459 
z
M 888 1484 
Q 888 1194 1011 928 
Q 1134 663 1356 523 
Q 1578 384 1822 384 
Q 2178 384 2434 671 
Q 2691 959 2691 1453 
Q 2691 1928 2437 2201 
Q 2184 2475 1800 2475 
Q 1419 2475 1153 2201 
Q 888 1928 888 1484 
z
" transform="scale(0.015625)"/>
       </defs>
       <use xlink:href="#ArialMT-36"/>
       <use xlink:href="#ArialMT-3a" transform="translate(55.615234 0)"/>
       <use xlink:href="#ArialMT-30" transform="translate(83.398438 0)"/>
       <use xlink:href="#ArialMT-30" transform="translate(139.013672 0)"/>
      </g>
     </g>
    </g>
    <g id="xtick_7">
     <g id="line2d_48">
      <g>
       <use xlink:href="#m5f85ab807f" x="274.434375" y="263.48625" style="stroke: #000000"/>
      </g>
     </g>
     <g id="text_7">
      <!-- 7:00 -->
      <g transform="translate(277.536563 295.339375) rotate(-90) scale(0.12 -0.12)">
       <defs>
        <path id="ArialMT-37" d="M 303 3981 
L 303 4522 
L 3269 4522 
L 3269 4084 
Q 2831 3619 2401 2847 
Q 1972 2075 1738 1259 
Q 1569 684 1522 0 
L 944 0 
Q 953 541 1156 1306 
Q 1359 2072 1739 2783 
Q 2119 3494 2547 3981 
L 303 3981 
z
" transform="scale(0.015625)"/>
       </defs>
       <use xlink:href="#ArialMT-37"/>
       <use xlink:href="#ArialMT-3a" transform="translate(55.615234 0)"/>
       <use xlink:href="#ArialMT-30" transform="translate(83.398438 0)"/>
       <use xlink:href="#ArialMT-30" transform="translate(139.013672 0)"/>
      </g>
     </g>
    </g>
    <g id="xtick_8">
     <g id="line2d_49">
      <g>
       <use xlink:href="#m5f85ab807f" x="302.334375" y="263.48625" style="stroke: #000000"/>
      </g>
     </g>
     <g id="text_8">
      <!-- 8:00 -->
      <g transform="translate(305.436562 295.339375) rotate(-90) scale(0.12 -0.12)">
       <defs>
        <path id="ArialMT-38" d="M 1131 2484 
Q 781 2613 612 2850 
Q 444 3088 444 3419 
Q 444 3919 803 4259 
Q 1163 4600 1759 4600 
Q 2359 4600 2725 4251 
Q 3091 3903 3091 3403 
Q 3091 3084 2923 2848 
Q 2756 2613 2416 2484 
Q 2838 2347 3058 2040 
Q 3278 1734 3278 1309 
Q 3278 722 2862 322 
Q 2447 -78 1769 -78 
Q 1091 -78 675 323 
Q 259 725 259 1325 
Q 259 1772 486 2073 
Q 713 2375 1131 2484 
z
M 1019 3438 
Q 1019 3113 1228 2906 
Q 1438 2700 1772 2700 
Q 2097 2700 2305 2904 
Q 2513 3109 2513 3406 
Q 2513 3716 2298 3927 
Q 2084 4138 1766 4138 
Q 1444 4138 1231 3931 
Q 1019 3725 1019 3438 
z
M 838 1322 
Q 838 1081 952 856 
Q 1066 631 1291 507 
Q 1516 384 1775 384 
Q 2178 384 2440 643 
Q 2703 903 2703 1303 
Q 2703 1709 2433 1975 
Q 2163 2241 1756 2241 
Q 1359 2241 1098 1978 
Q 838 1716 838 1322 
z
" transform="scale(0.015625)"/>
       </defs>
       <use xlink:href="#ArialMT-38"/>
       <use xlink:href="#ArialMT-3a" transform="translate(55.615234 0)"/>
       <use xlink:href="#ArialMT-30" transform="translate(83.398438 0)"/>
       <use xlink:href="#ArialMT-30" transform="translate(139.013672 0)"/>
      </g>
     </g>
    </g>
    <g id="xtick_9">
     <g id="line2d_50">
      <g>
       <use xlink:href="#m5f85ab807f" x="330.234375" y="263.48625" style="stroke: #000000"/>
      </g>
     </g>
     <g id="text_9">
      <!-- 9:00 -->
      <g transform="translate(333.336563 295.339375) rotate(-90) scale(0.12 -0.12)">
       <defs>
        <path id="ArialMT-39" d="M 350 1059 
L 891 1109 
Q 959 728 1153 556 
Q 1347 384 1650 384 
Q 1909 384 2104 503 
Q 2300 622 2425 820 
Q 2550 1019 2634 1356 
Q 2719 1694 2719 2044 
Q 2719 2081 2716 2156 
Q 2547 1888 2255 1720 
Q 1963 1553 1622 1553 
Q 1053 1553 659 1965 
Q 266 2378 266 3053 
Q 266 3750 677 4175 
Q 1088 4600 1706 4600 
Q 2153 4600 2523 4359 
Q 2894 4119 3086 3673 
Q 3278 3228 3278 2384 
Q 3278 1506 3087 986 
Q 2897 466 2520 194 
Q 2144 -78 1638 -78 
Q 1100 -78 759 220 
Q 419 519 350 1059 
z
M 2653 3081 
Q 2653 3566 2395 3850 
Q 2138 4134 1775 4134 
Q 1400 4134 1122 3828 
Q 844 3522 844 3034 
Q 844 2597 1108 2323 
Q 1372 2050 1759 2050 
Q 2150 2050 2401 2323 
Q 2653 2597 2653 3081 
z
" transform="scale(0.015625)"/>
       </defs>
       <use xlink:href="#ArialMT-39"/>
       <use xlink:href="#ArialMT-3a" transform="translate(55.615234 0)"/>
       <use xlink:href="#ArialMT-30" transform="translate(83.398438 0)"/>
       <use xlink:href="#ArialMT-30" transform="translate(139.013672 0)"/>
      </g>
     </g>
    </g>
    <g id="xtick_10">
     <g id="line2d_51">
      <g>
       <use xlink:href="#m5f85ab807f" x="358.134375" y="263.48625" style="stroke: #000000"/>
      </g>
     </g>
     <g id="text_10">
      <!-- 10:00 -->
      <g transform="translate(361.236562 302.0125) rotate(-90) scale(0.12 -0.12)">
       <use xlink:href="#ArialMT-31"/>
       <use xlink:href="#ArialMT-30" transform="translate(55.615234 0)"/>
       <use xlink:href="#ArialMT-3a" transform="translate(111.230469 0)"/>
       <use xlink:href="#ArialMT-30" transform="translate(139.013672 0)"/>
       <use xlink:href="#ArialMT-30" transform="translate(194.628906 0)"/>
      </g>
     </g>
    </g>
    <g id="xtick_11">
     <g id="line2d_52">
      <g>
       <use xlink:href="#m5f85ab807f" x="386.034375" y="263.48625" style="stroke: #000000"/>
      </g>
     </g>
     <g id="text_11">
      <!-- 11:00 -->
      <g transform="translate(389.136563 301.1275) rotate(-90) scale(0.12 -0.12)">
       <use xlink:href="#ArialMT-31"/>
       <use xlink:href="#ArialMT-31" transform="translate(48.240234 0)"/>
       <use xlink:href="#ArialMT-3a" transform="translate(103.855469 0)"/>
       <use xlink:href="#ArialMT-30" transform="translate(131.638672 0)"/>
       <use xlink:href="#ArialMT-30" transform="translate(187.253906 0)"/>
      </g>
     </g>
    </g>
    <g id="xtick_12">
     <g id="line2d_53">
      <g>
       <use xlink:href="#m5f85ab807f" x="413.934375" y="263.48625" style="stroke: #000000"/>
      </g>
     </g>
     <g id="text_12">
      <!-- 12:00 -->
      <g transform="translate(417.036563 302.0125) rotate(-90) scale(0.12 -0.12)">
       <use xlink:href="#ArialMT-31"/>
       <use xlink:href="#ArialMT-32" transform="translate(55.615234 0)"/>
       <use xlink:href="#ArialMT-3a" transform="translate(111.230469 0)"/>
       <use xlink:href="#ArialMT-30" transform="translate(139.013672 0)"/>
       <use xlink:href="#ArialMT-30" transform="translate(194.628906 0)"/>
      </g>
     </g>
    </g>
    <g id="xtick_13">
     <g id="line2d_54">
      <g>
       <use xlink:href="#m5f85ab807f" x="441.834375" y="263.48625" style="stroke: #000000"/>
      </g>
     </g>
     <g id="text_13">
      <!-- 13:00 -->
      <g transform="translate(444.936562 302.0125) rotate(-90) scale(0.12 -0.12)">
       <use xlink:href="#ArialMT-31"/>
       <use xlink:href="#ArialMT-33" transform="translate(55.615234 0)"/>
       <use xlink:href="#ArialMT-3a" transform="translate(111.230469 0)"/>
       <use xlink:href="#ArialMT-30" transform="translate(139.013672 0)"/>
       <use xlink:href="#ArialMT-30" transform="translate(194.628906 0)"/>
      </g>
     </g>
    </g>
    <g id="xtick_14">
     <g id="line2d_55">
      <g>
       <use xlink:href="#m5f85ab807f" x="469.734375" y="263.48625" style="stroke: #000000"/>
      </g>
     </g>
     <g id="text_14">
      <!-- 14:00 -->
      <g transform="translate(472.836563 302.0125) rotate(-90) scale(0.12 -0.12)">
       <use xlink:href="#ArialMT-31"/>
       <use xlink:href="#ArialMT-34" transform="translate(55.615234 0)"/>
       <use xlink:href="#ArialMT-3a" transform="translate(111.230469 0)"/>
       <use xlink:href="#ArialMT-30" transform="translate(139.013672 0)"/>
       <use xlink:href="#ArialMT-30" transform="translate(194.628906 0)"/>
      </g>
     </g>
    </g>
    <g id="xtick_15">
     <g id="line2d_56">
      <g>
       <use xlink:href="#m5f85ab807f" x="497.634375" y="263.48625" style="stroke: #000000"/>
      </g>
     </g>
     <g id="text_15">
      <!-- 15:00 -->
      <g transform="translate(500.736562 302.0125) rotate(-90) scale(0.12 -0.12)">
       <use xlink:href="#ArialMT-31"/>
       <use xlink:href="#ArialMT-35" transform="translate(55.615234 0)"/>
       <use xlink:href="#ArialMT-3a" transform="translate(111.230469 0)"/>
       <use xlink:href="#ArialMT-30" transform="translate(139.013672 0)"/>
       <use xlink:href="#ArialMT-30" transform="translate(194.628906 0)"/>
      </g>
     </g>
    </g>
    <g id="xtick_16">
     <g id="line2d_57">
      <g>
       <use xlink:href="#m5f85ab807f" x="525.534375" y="263.48625" style="stroke: #000000"/>
      </g>
     </g>
     <g id="text_16">
      <!-- 16:00 -->
      <g transform="translate(528.636562 302.0125) rotate(-90) scale(0.12 -0.12)">
       <use xlink:href="#ArialMT-31"/>
       <use xlink:href="#ArialMT-36" transform="translate(55.615234 0)"/>
       <use xlink:href="#ArialMT-3a" transform="translate(111.230469 0)"/>
       <use xlink:href="#ArialMT-30" transform="translate(139.013672 0)"/>
       <use xlink:href="#ArialMT-30" transform="translate(194.628906 0)"/>
      </g>
     </g>
    </g>
    <g id="xtick_17">
     <g id="line2d_58">
      <g>
       <use xlink:href="#m5f85ab807f" x="553.434375" y="263.48625" style="stroke: #000000"/>
      </g>
     </g>
     <g id="text_17">
      <!-- 17:00 -->
      <g transform="translate(556.536562 302.0125) rotate(-90) scale(0.12 -0.12)">
       <use xlink:href="#ArialMT-31"/>
       <use xlink:href="#ArialMT-37" transform="translate(55.615234 0)"/>
       <use xlink:href="#ArialMT-3a" transform="translate(111.230469 0)"/>
       <use xlink:href="#ArialMT-30" transform="translate(139.013672 0)"/>
       <use xlink:href="#ArialMT-30" transform="translate(194.628906 0)"/>
      </g>
     </g>
    </g>
    <g id="xtick_18">
     <g id="line2d_59">
      <g>
       <use xlink:href="#m5f85ab807f" x="581.334375" y="263.48625" style="stroke: #000000"/>
      </g>
     </g>
     <g id="text_18">
      <!-- 18:00 -->
      <g transform="translate(584.436562 302.0125) rotate(-90) scale(0.12 -0.12)">
       <use xlink:href="#ArialMT-31"/>
       <use xlink:href="#ArialMT-38" transform="translate(55.615234 0)"/>
       <use xlink:href="#ArialMT-3a" transform="translate(111.230469 0)"/>
       <use xlink:href="#ArialMT-30" transform="translate(139.013672 0)"/>
       <use xlink:href="#ArialMT-30" transform="translate(194.628906 0)"/>
      </g>
     </g>
    </g>
    <g id="xtick_19">
     <g id="line2d_60">
      <g>
       <use xlink:href="#m5f85ab807f" x="609.234375" y="263.48625" style="stroke: #000000"/>
      </g>
     </g>
     <g id="text_19">
      <!-- 19:00 -->
      <g transform="translate(612.336563 302.0125) rotate(-90) scale(0.12 -0.12)">
       <use xlink:href="#ArialMT-31"/>
       <use xlink:href="#ArialMT-39" transform="translate(55.615234 0)"/>
       <use xlink:href="#ArialMT-3a" transform="translate(111.230469 0)"/>
       <use xlink:href="#ArialMT-30" transform="translate(139.013672 0)"/>
       <use xlink:href="#ArialMT-30" transform="translate(194.628906 0)"/>
      </g>
     </g>
    </g>
    <g id="xtick_20">
     <g id="line2d_61">
      <g>
       <use xlink:href="#m5f85ab807f" x="637.134375" y="263.48625" style="stroke: #000000"/>
      </g>
     </g>
     <g id="text_20">
      <!-- 20:00 -->
      <g transform="translate(640.236562 302.0125) rotate(-90) scale(0.12 -0.12)">
       <use xlink:href="#ArialMT-32"/>
       <use xlink:href="#ArialMT-30" transform="translate(55.615234 0)"/>
       <use xlink:href="#ArialMT-3a" transform="translate(111.230469 0)"/>
       <use xlink:href="#ArialMT-30" transform="translate(139.013672 0)"/>
       <use xlink:href="#ArialMT-30" transform="translate(194.628906 0)"/>
      </g>
     </g>
    </g>
    <g id="xtick_21">
     <g id="line2d_62">
      <g>
       <use xlink:href="#m5f85ab807f" x="665.034375" y="263.48625" style="stroke: #000000"/>
      </g>
     </g>
     <g id="text_21">
      <!-- 21:00 -->
      <g transform="translate(668.136562 302.0125) rotate(-90) scale(0.12 -0.12)">
       <use xlink:href="#ArialMT-32"/>
       <use xlink:href="#ArialMT-31" transform="translate(55.615234 0)"/>
       <use xlink:href="#ArialMT-3a" transform="translate(111.230469 0)"/>
       <use xlink:href="#ArialMT-30" transform="translate(139.013672 0)"/>
       <use xlink:href="#ArialMT-30" transform="translate(194.628906 0)"/>
      </g>
     </g>
    </g>
    <g id="xtick_22">
     <g id="line2d_63">
      <g>
       <use xlink:href="#m5f85ab807f" x="692.934375" y="263.48625" style="stroke: #000000"/>
      </g>
     </g>
     <g id="text_22">
      <!-- 22:00 -->
      <g transform="translate(696.036562 302.0125) rotate(-90) scale(0.12 -0.12)">
       <use xlink:href="#ArialMT-32"/>
       <use xlink:href="#ArialMT-32" transform="translate(55.615234 0)"/>
       <use xlink:href="#ArialMT-3a" transform="translate(111.230469 0)"/>
       <use xlink:href="#ArialMT-30" transform="translate(139.013672 0)"/>
       <use xlink:href="#ArialMT-30" transform="translate(194.628906 0)"/>
      </g>
     </g>
    </g>
    <g id="xtick_23">
     <g id="line2d_64">
      <g>
       <use xlink:href="#m5f85ab807f" x="720.834375" y="263.48625" style="stroke: #000000"/>
      </g>
     </g>
     <g id="text_23">
      <!-- 23:00 -->
      <g transform="translate(723.936562 302.0125) rotate(-90) scale(0.12 -0.12)">
       <use xlink:href="#ArialMT-32"/>
       <use xlink:href="#ArialMT-33" transform="translate(55.615234 0)"/>
       <use xlink:href="#ArialMT-3a" transform="translate(111.230469 0)"/>
       <use xlink:href="#ArialMT-30" transform="translate(139.013672 0)"/>
       <use xlink:href="#ArialMT-30" transform="translate(194.628906 0)"/>
      </g>
     </g>
    </g>
    <g id="xtick_24">
     <g id="line2d_65">
      <g>
       <use xlink:href="#m5f85ab807f" x="748.734375" y="263.48625" style="stroke: #000000"/>
      </g>
     </g>
     <g id="text_24">
      <!-- 24:00 -->
      <g transform="translate(751.836562 302.0125) rotate(-90) scale(0.12 -0.12)">
       <use xlink:href="#ArialMT-32"/>
       <use xlink:href="#ArialMT-34" transform="translate(55.615234 0)"/>
       <use xlink:href="#ArialMT-3a" transform="translate(111.230469 0)"/>
       <use xlink:href="#ArialMT-30" transform="translate(139.013672 0)"/>
       <use xlink:href="#ArialMT-30" transform="translate(194.628906 0)"/>
      </g>
     </g>
    </g>
   </g>
   <g id="matplotlib.axis_2">
    <g id="ytick_1">
     <g id="line2d_66">
      <defs>
       <path id="mb288ac493e" d="M 0 0 
L -5 0 
" style="stroke: #000000; stroke-opacity: 0; stroke-width: 1.5"/>
      </defs>
      <g>
       <use xlink:href="#mb288ac493e" x="93.084375" y="254.957019" style="fill-opacity: 0; stroke: #000000; stroke-opacity: 0; stroke-width: 1.5"/>
      </g>
     </g>
     <g id="text_25">
      <!-- 0 -->
      <g transform="translate(75.686875 260.683269) scale(0.16 -0.16)">
       <use xlink:href="#ArialMT-30"/>
      </g>
     </g>
    </g>
    <g id="ytick_2">
     <g id="line2d_67">
      <g>
       <use xlink:href="#mb288ac493e" x="93.084375" y="212.310865" style="fill-opacity: 0; stroke: #000000; stroke-opacity: 0; stroke-width: 1.5"/>
      </g>
     </g>
     <g id="text_26">
      <!-- 50 -->
      <g transform="translate(66.789375 218.037115) scale(0.16 -0.16)">
       <use xlink:href="#ArialMT-35"/>
       <use xlink:href="#ArialMT-30" transform="translate(55.615234 0)"/>
      </g>
     </g>
    </g>
    <g id="ytick_3">
     <g id="line2d_68">
      <g>
       <use xlink:href="#mb288ac493e" x="93.084375" y="169.664712" style="fill-opacity: 0; stroke: #000000; stroke-opacity: 0; stroke-width: 1.5"/>
      </g>
     </g>
     <g id="text_27">
      <!-- 100 -->
      <g transform="translate(57.891875 175.390962) scale(0.16 -0.16)">
       <use xlink:href="#ArialMT-31"/>
       <use xlink:href="#ArialMT-30" transform="translate(55.615234 0)"/>
       <use xlink:href="#ArialMT-30" transform="translate(111.230469 0)"/>
      </g>
     </g>
    </g>
    <g id="ytick_4">
     <g id="line2d_69">
      <g>
       <use xlink:href="#mb288ac493e" x="93.084375" y="127.018558" style="fill-opacity: 0; stroke: #000000; stroke-opacity: 0; stroke-width: 1.5"/>
      </g>
     </g>
     <g id="text_28">
      <!-- 150 -->
      <g transform="translate(57.891875 132.744808) scale(0.16 -0.16)">
       <use xlink:href="#ArialMT-31"/>
       <use xlink:href="#ArialMT-35" transform="translate(55.615234 0)"/>
       <use xlink:href="#ArialMT-30" transform="translate(111.230469 0)"/>
      </g>
     </g>
    </g>
    <g id="ytick_5">
     <g id="line2d_70">
      <g>
       <use xlink:href="#mb288ac493e" x="93.084375" y="84.372404" style="fill-opacity: 0; stroke: #000000; stroke-opacity: 0; stroke-width: 1.5"/>
      </g>
     </g>
     <g id="text_29">
      <!-- 200 -->
      <g transform="translate(57.891875 90.098654) scale(0.16 -0.16)">
       <use xlink:href="#ArialMT-32"/>
       <use xlink:href="#ArialMT-30" transform="translate(55.615234 0)"/>
       <use xlink:href="#ArialMT-30" transform="translate(111.230469 0)"/>
      </g>
     </g>
    </g>
    <g id="ytick_6">
     <g id="line2d_71">
      <g>
       <use xlink:href="#mb288ac493e" x="93.084375" y="41.72625" style="fill-opacity: 0; stroke: #000000; stroke-opacity: 0; stroke-width: 1.5"/>
      </g>
     </g>
     <g id="text_30">
      <!-- 250 -->
      <g transform="translate(57.891875 47.4525) scale(0.16 -0.16)">
       <use xlink:href="#ArialMT-32"/>
       <use xlink:href="#ArialMT-35" transform="translate(55.615234 0)"/>
       <use xlink:href="#ArialMT-30" transform="translate(111.230469 0)"/>
      </g>
     </g>
    </g>
    <g id="text_31">
     <!-- Gasoline (Gallon) -->
     <g transform="translate(49.103437 222.633281) rotate(-90) scale(0.18 -0.18)">
      <defs>
       <path id="ArialMT-47" d="M 2638 1797 
L 2638 2334 
L 4578 2338 
L 4578 638 
Q 4131 281 3656 101 
Q 3181 -78 2681 -78 
Q 2006 -78 1454 211 
Q 903 500 622 1047 
Q 341 1594 341 2269 
Q 341 2938 620 3517 
Q 900 4097 1425 4378 
Q 1950 4659 2634 4659 
Q 3131 4659 3532 4498 
Q 3934 4338 4162 4050 
Q 4391 3763 4509 3300 
L 3963 3150 
Q 3859 3500 3706 3700 
Q 3553 3900 3268 4020 
Q 2984 4141 2638 4141 
Q 2222 4141 1919 4014 
Q 1616 3888 1430 3681 
Q 1244 3475 1141 3228 
Q 966 2803 966 2306 
Q 966 1694 1177 1281 
Q 1388 869 1791 669 
Q 2194 469 2647 469 
Q 3041 469 3416 620 
Q 3791 772 3984 944 
L 3984 1797 
L 2638 1797 
z
" transform="scale(0.015625)"/>
       <path id="ArialMT-61" d="M 2588 409 
Q 2275 144 1986 34 
Q 1697 -75 1366 -75 
Q 819 -75 525 192 
Q 231 459 231 875 
Q 231 1119 342 1320 
Q 453 1522 633 1644 
Q 813 1766 1038 1828 
Q 1203 1872 1538 1913 
Q 2219 1994 2541 2106 
Q 2544 2222 2544 2253 
Q 2544 2597 2384 2738 
Q 2169 2928 1744 2928 
Q 1347 2928 1158 2789 
Q 969 2650 878 2297 
L 328 2372 
Q 403 2725 575 2942 
Q 747 3159 1072 3276 
Q 1397 3394 1825 3394 
Q 2250 3394 2515 3294 
Q 2781 3194 2906 3042 
Q 3031 2891 3081 2659 
Q 3109 2516 3109 2141 
L 3109 1391 
Q 3109 606 3145 398 
Q 3181 191 3288 0 
L 2700 0 
Q 2613 175 2588 409 
z
M 2541 1666 
Q 2234 1541 1622 1453 
Q 1275 1403 1131 1340 
Q 988 1278 909 1158 
Q 831 1038 831 891 
Q 831 666 1001 516 
Q 1172 366 1500 366 
Q 1825 366 2078 508 
Q 2331 650 2450 897 
Q 2541 1088 2541 1459 
L 2541 1666 
z
" transform="scale(0.015625)"/>
       <path id="ArialMT-73" d="M 197 991 
L 753 1078 
Q 800 744 1014 566 
Q 1228 388 1613 388 
Q 2000 388 2187 545 
Q 2375 703 2375 916 
Q 2375 1106 2209 1216 
Q 2094 1291 1634 1406 
Q 1016 1563 777 1677 
Q 538 1791 414 1992 
Q 291 2194 291 2438 
Q 291 2659 392 2848 
Q 494 3038 669 3163 
Q 800 3259 1026 3326 
Q 1253 3394 1513 3394 
Q 1903 3394 2198 3281 
Q 2494 3169 2634 2976 
Q 2775 2784 2828 2463 
L 2278 2388 
Q 2241 2644 2061 2787 
Q 1881 2931 1553 2931 
Q 1166 2931 1000 2803 
Q 834 2675 834 2503 
Q 834 2394 903 2306 
Q 972 2216 1119 2156 
Q 1203 2125 1616 2013 
Q 2213 1853 2448 1751 
Q 2684 1650 2818 1456 
Q 2953 1263 2953 975 
Q 2953 694 2789 445 
Q 2625 197 2315 61 
Q 2006 -75 1616 -75 
Q 969 -75 630 194 
Q 291 463 197 991 
z
" transform="scale(0.015625)"/>
       <path id="ArialMT-6f" d="M 213 1659 
Q 213 2581 725 3025 
Q 1153 3394 1769 3394 
Q 2453 3394 2887 2945 
Q 3322 2497 3322 1706 
Q 3322 1066 3130 698 
Q 2938 331 2570 128 
Q 2203 -75 1769 -75 
Q 1072 -75 642 372 
Q 213 819 213 1659 
z
M 791 1659 
Q 791 1022 1069 705 
Q 1347 388 1769 388 
Q 2188 388 2466 706 
Q 2744 1025 2744 1678 
Q 2744 2294 2464 2611 
Q 2184 2928 1769 2928 
Q 1347 2928 1069 2612 
Q 791 2297 791 1659 
z
" transform="scale(0.015625)"/>
       <path id="ArialMT-6c" d="M 409 0 
L 409 4581 
L 972 4581 
L 972 0 
L 409 0 
z
" transform="scale(0.015625)"/>
       <path id="ArialMT-69" d="M 425 3934 
L 425 4581 
L 988 4581 
L 988 3934 
L 425 3934 
z
M 425 0 
L 425 3319 
L 988 3319 
L 988 0 
L 425 0 
z
" transform="scale(0.015625)"/>
       <path id="ArialMT-6e" d="M 422 0 
L 422 3319 
L 928 3319 
L 928 2847 
Q 1294 3394 1984 3394 
Q 2284 3394 2536 3286 
Q 2788 3178 2913 3003 
Q 3038 2828 3088 2588 
Q 3119 2431 3119 2041 
L 3119 0 
L 2556 0 
L 2556 2019 
Q 2556 2363 2490 2533 
Q 2425 2703 2258 2804 
Q 2091 2906 1866 2906 
Q 1506 2906 1245 2678 
Q 984 2450 984 1813 
L 984 0 
L 422 0 
z
" transform="scale(0.015625)"/>
       <path id="ArialMT-65" d="M 2694 1069 
L 3275 997 
Q 3138 488 2766 206 
Q 2394 -75 1816 -75 
Q 1088 -75 661 373 
Q 234 822 234 1631 
Q 234 2469 665 2931 
Q 1097 3394 1784 3394 
Q 2450 3394 2872 2941 
Q 3294 2488 3294 1666 
Q 3294 1616 3291 1516 
L 816 1516 
Q 847 969 1125 678 
Q 1403 388 1819 388 
Q 2128 388 2347 550 
Q 2566 713 2694 1069 
z
M 847 1978 
L 2700 1978 
Q 2663 2397 2488 2606 
Q 2219 2931 1791 2931 
Q 1403 2931 1139 2672 
Q 875 2413 847 1978 
z
" transform="scale(0.015625)"/>
       <path id="ArialMT-20" transform="scale(0.015625)"/>
       <path id="ArialMT-28" d="M 1497 -1347 
Q 1031 -759 709 28 
Q 388 816 388 1659 
Q 388 2403 628 3084 
Q 909 3875 1497 4659 
L 1900 4659 
Q 1522 4009 1400 3731 
Q 1209 3300 1100 2831 
Q 966 2247 966 1656 
Q 966 153 1900 -1347 
L 1497 -1347 
z
" transform="scale(0.015625)"/>
       <path id="ArialMT-29" d="M 791 -1347 
L 388 -1347 
Q 1322 153 1322 1656 
Q 1322 2244 1188 2822 
Q 1081 3291 891 3722 
Q 769 4003 388 4659 
L 791 4659 
Q 1378 3875 1659 3084 
Q 1900 2403 1900 1659 
Q 1900 816 1576 28 
Q 1253 -759 791 -1347 
z
" transform="scale(0.015625)"/>
      </defs>
      <use xlink:href="#ArialMT-47"/>
      <use xlink:href="#ArialMT-61" transform="translate(77.783203 0)"/>
      <use xlink:href="#ArialMT-73" transform="translate(133.398438 0)"/>
      <use xlink:href="#ArialMT-6f" transform="translate(183.398438 0)"/>
      <use xlink:href="#ArialMT-6c" transform="translate(239.013672 0)"/>
      <use xlink:href="#ArialMT-69" transform="translate(261.230469 0)"/>
      <use xlink:href="#ArialMT-6e" transform="translate(283.447266 0)"/>
      <use xlink:href="#ArialMT-65" transform="translate(339.0625 0)"/>
      <use xlink:href="#ArialMT-20" transform="translate(394.677734 0)"/>
      <use xlink:href="#ArialMT-28" transform="translate(422.460938 0)"/>
      <use xlink:href="#ArialMT-47" transform="translate(455.761719 0)"/>
      <use xlink:href="#ArialMT-61" transform="translate(533.544922 0)"/>
      <use xlink:href="#ArialMT-6c" transform="translate(589.160156 0)"/>
      <use xlink:href="#ArialMT-6c" transform="translate(611.376953 0)"/>
      <use xlink:href="#ArialMT-6f" transform="translate(633.59375 0)"/>
      <use xlink:href="#ArialMT-6e" transform="translate(689.208984 0)"/>
      <use xlink:href="#ArialMT-29" transform="translate(744.824219 0)"/>
     </g>
    </g>
   </g>
   <g id="line2d_72">
    <path d="M 107.034375 220.499695 
L 134.934375 232.000571 
L 162.834375 235.70273 
L 190.734375 232.462392 
L 218.634375 222.790946 
L 246.534375 197.768264 
L 274.434375 158.282581 
L 302.334375 124.436566 
L 330.234375 115.007671 
L 358.134375 113.250367 
L 386.034375 109.126798 
L 413.934375 90.363596 
L 441.834375 80.114991 
L 469.734375 73.042123 
L 497.634375 66.42122 
L 525.534375 64.429924 
L 553.434375 62.748472 
L 581.334375 73.942138 
L 609.234375 103.816866 
L 637.134375 125.790789 
L 665.034375 143.364291 
L 692.934375 162.669101 
L 720.834375 176.958198 
L 748.734375 195.578958 
" clip-path="url(#p6bf6161fc3)" style="fill: none; stroke: #d62728; stroke-opacity: 0.8; stroke-width: 1.5; stroke-linecap: round"/>
   </g>
   <g id="line2d_73">
    <path d="M 107.034375 232.984304 
L 134.934375 241.958354 
L 162.834375 244.094034 
L 190.734375 242.783048 
L 218.634375 236.287473 
L 246.534375 222.108354 
L 274.434375 186.512112 
L 302.334375 156.399758 
L 330.234375 143.387171 
L 358.134375 136.919151 
L 386.034375 132.525456 
L 413.934375 123.354162 
L 441.834375 119.71337 
L 469.734375 114.99455 
L 497.634375 106.879628 
L 525.534375 101.106882 
L 553.434375 110.514713 
L 581.334375 122.960753 
L 609.234375 131.906806 
L 637.134375 145.81595 
L 665.034375 162.762555 
L 692.934375 182.338027 
L 720.834375 195.029484 
L 748.734375 210.793403 
" clip-path="url(#p6bf6161fc3)" style="fill: none; stroke: #9467bd; stroke-opacity: 0.8; stroke-width: 1.5; stroke-linecap: round"/>
   </g>
   <g id="line2d_74">
    <path d="M 107.034375 228.955576 
L 134.934375 239.516109 
L 162.834375 241.267116 
L 190.734375 240.338045 
L 218.634375 235.027336 
L 246.534375 212.907971 
L 274.434375 176.59351 
L 302.334375 136.186961 
L 330.234375 111.050874 
L 358.134375 100.892603 
L 386.034375 92.955411 
L 413.934375 83.683076 
L 441.834375 79.521465 
L 469.734375 74.557392 
L 497.634375 70.492342 
L 525.534375 69.604385 
L 553.434375 66.109058 
L 581.334375 80.594289 
L 609.234375 88.241184 
L 637.134375 109.257786 
L 665.034375 134.94649 
L 692.934375 161.476616 
L 720.834375 184.013461 
L 748.734375 203.134366 
" clip-path="url(#p6bf6161fc3)" style="fill: none; stroke: #9467bd; stroke-opacity: 0.8; stroke-width: 1.5; stroke-linecap: round"/>
   </g>
   <g id="line2d_75">
    <path d="M 107.034375 243.967352 
L 134.934375 247.598003 
L 162.834375 247.835583 
L 190.734375 246.263313 
L 218.634375 241.330946 
L 246.534375 235.943199 
L 274.434375 217.295034 
L 302.334375 199.925608 
L 330.234375 189.682467 
L 358.134375 185.793629 
L 386.034375 179.934328 
L 413.934375 166.76817 
L 441.834375 163.076404 
L 469.734375 159.928436 
L 497.634375 159.517188 
L 525.534375 159.491464 
L 553.434375 159.222205 
L 581.334375 173.259531 
L 609.234375 188.9713 
L 637.134375 199.571883 
L 665.034375 209.176103 
L 692.934375 218.398435 
L 720.834375 228.61285 
L 748.734375 235.81055 
" clip-path="url(#p6bf6161fc3)" style="fill: none; stroke: #c5b0d5; stroke-opacity: 0.8; stroke-width: 1.5; stroke-linecap: round"/>
   </g>
   <g id="line2d_76">
    <path d="M 107.034375 242.511094 
L 134.934375 246.683685 
L 162.834375 247.140324 
L 190.734375 246.042799 
L 218.634375 240.345466 
L 246.534375 233.506459 
L 274.434375 213.317703 
L 302.334375 196.880035 
L 330.234375 184.280823 
L 358.134375 180.824206 
L 386.034375 173.160391 
L 413.934375 161.446574 
L 441.834375 156.188474 
L 469.734375 152.74723 
L 497.634375 152.65432 
L 525.534375 153.125789 
L 553.434375 152.703642 
L 581.334375 165.453352 
L 609.234375 183.969744 
L 637.134375 194.864744 
L 665.034375 205.936669 
L 692.934375 215.039322 
L 720.834375 225.18803 
L 748.734375 233.209135 
" clip-path="url(#p6bf6161fc3)" style="fill: none; stroke: #8c564b; stroke-opacity: 0.8; stroke-width: 1.5; stroke-linecap: round"/>
   </g>
   <g id="line2d_77">
    <path d="M 107.034375 239.828592 
L 134.934375 244.993469 
L 162.834375 245.942817 
L 190.734375 245.23717 
L 218.634375 238.934049 
L 246.534375 227.724272 
L 274.434375 204.501033 
L 302.334375 184.210558 
L 330.234375 171.047393 
L 358.134375 166.967547 
L 386.034375 161.465301 
L 413.934375 146.595909 
L 441.834375 142.27101 
L 469.734375 135.601852 
L 497.634375 135.304319 
L 525.534375 134.943712 
L 553.434375 131.139696 
L 581.334375 145.102435 
L 609.234375 167.471073 
L 637.134375 180.463403 
L 665.034375 193.275297 
L 692.934375 205.42625 
L 720.834375 217.10663 
L 748.734375 228.009142 
" clip-path="url(#p6bf6161fc3)" style="fill: none; stroke: #c49c94; stroke-opacity: 0.8; stroke-width: 1.5; stroke-linecap: round"/>
   </g>
   <g id="line2d_78">
    <path d="M 107.034375 229.945311 
L 134.934375 239.330484 
L 162.834375 241.508322 
L 190.734375 238.825691 
L 218.634375 233.106316 
L 246.534375 211.939376 
L 274.434375 172.514764 
L 302.334375 136.461776 
L 330.234375 118.427251 
L 358.134375 111.554211 
L 386.034375 106.581283 
L 413.934375 94.430956 
L 441.834375 83.981128 
L 469.734375 73.680468 
L 497.634375 66.23223 
L 525.534375 65.149891 
L 553.434375 63.142187 
L 581.334375 80.886247 
L 609.234375 107.279844 
L 637.134375 127.32635 
L 665.034375 148.073667 
L 692.934375 172.858521 
L 720.834375 186.90196 
L 748.734375 205.530454 
" clip-path="url(#p6bf6161fc3)" style="fill: none; stroke: #c49c94; stroke-opacity: 0.8; stroke-width: 1.5; stroke-linecap: round"/>
   </g>
   <g id="line2d_79">
    <path d="M 107.034375 230.027744 
L 134.934375 238.83238 
L 162.834375 239.439151 
L 190.734375 237.868679 
L 218.634375 232.486372 
L 246.534375 215.439571 
L 274.434375 181.394337 
L 302.334375 146.773652 
L 330.234375 121.382785 
L 358.134375 114.773412 
L 386.034375 108.525729 
L 413.934375 94.941179 
L 441.834375 86.2105 
L 469.734375 80.446773 
L 497.634375 73.335289 
L 525.534375 69.112019 
L 553.434375 68.664977 
L 581.334375 88.763025 
L 609.234375 107.660663 
L 637.134375 128.329092 
L 665.034375 150.068683 
L 692.934375 173.079596 
L 720.834375 191.308905 
L 748.734375 207.373924 
" clip-path="url(#p6bf6161fc3)" style="fill: none; stroke: #2ca02c; stroke-opacity: 0.8; stroke-width: 1.5; stroke-linecap: round"/>
   </g>
   <g id="line2d_80">
    <path d="M 107.034375 237.280322 
L 134.934375 242.170145 
L 162.834375 242.962018 
L 190.734375 241.042176 
L 218.634375 236.333725 
L 246.534375 228.410047 
L 274.434375 209.299372 
L 302.334375 184.827086 
L 330.234375 170.748114 
L 358.134375 163.148888 
L 386.034375 155.107767 
L 413.934375 139.05713 
L 441.834375 130.000584 
L 469.734375 127.584475 
L 497.634375 123.989962 
L 525.534375 126.695177 
L 553.434375 130.237065 
L 581.334375 145.233057 
L 609.234375 158.277653 
L 637.134375 173.78795 
L 665.034375 187.390046 
L 692.934375 202.315953 
L 720.834375 215.11335 
L 748.734375 226.033775 
" clip-path="url(#p6bf6161fc3)" style="fill: none; stroke: #ff7f0e; stroke-opacity: 0.8; stroke-width: 1.5; stroke-linecap: round"/>
   </g>
   <g id="line2d_81">
    <path d="M 107.034375 235.687411 
L 134.934375 241.373432 
L 162.834375 242.698872 
L 190.734375 241.894891 
L 218.634375 236.233731 
L 246.534375 223.847123 
L 274.434375 201.431392 
L 302.334375 176.070741 
L 330.234375 160.658914 
L 358.134375 153.242712 
L 386.034375 146.652429 
L 413.934375 132.494899 
L 441.834375 123.891117 
L 469.734375 119.276591 
L 497.634375 117.699628 
L 525.534375 119.453784 
L 553.434375 120.048252 
L 581.334375 131.744494 
L 609.234375 147.874309 
L 637.134375 164.053207 
L 665.034375 179.328163 
L 692.934375 195.588438 
L 720.834375 209.178852 
L 748.734375 222.391672 
" clip-path="url(#p6bf6161fc3)" style="fill: none; stroke: #98df8a; stroke-opacity: 0.8; stroke-width: 1.5; stroke-linecap: round"/>
   </g>
   <g id="line2d_82">
    <path d="M 107.034375 228.644487 
L 134.934375 239.44387 
L 162.834375 241.124933 
L 190.734375 240.114262 
L 218.634375 234.373409 
L 246.534375 212.81291 
L 274.434375 171.393829 
L 302.334375 133.980904 
L 330.234375 123.110193 
L 358.134375 118.874315 
L 386.034375 113.348604 
L 413.934375 94.84171 
L 441.834375 90.353369 
L 469.734375 85.789365 
L 497.634375 71.034064 
L 525.534375 63.719915 
L 553.434375 60.221932 
L 581.334375 78.366165 
L 609.234375 113.430329 
L 637.134375 136.863401 
L 665.034375 156.100841 
L 692.934375 177.285698 
L 720.834375 187.62068 
L 748.734375 205.269873 
" clip-path="url(#p6bf6161fc3)" style="fill: none; stroke: #e377c2; stroke-opacity: 0.8; stroke-width: 1.5; stroke-linecap: round"/>
   </g>
   <g id="line2d_83">
    <path d="M 107.034375 224.332448 
L 134.934375 234.199176 
L 162.834375 236.43879 
L 190.734375 234.642038 
L 218.634375 229.576583 
L 246.534375 206.071422 
L 274.434375 162.462859 
L 302.334375 123.719881 
L 330.234375 109.602064 
L 358.134375 105.601644 
L 386.034375 99.496418 
L 413.934375 87.533116 
L 441.834375 79.495857 
L 469.734375 68.437309 
L 497.634375 62.622923 
L 525.534375 60.003525 
L 553.434375 68.543667 
L 581.334375 82.335903 
L 609.234375 96.31251 
L 637.134375 116.523321 
L 665.034375 138.115816 
L 692.934375 159.687302 
L 720.834375 178.863326 
L 748.734375 199.12283 
" clip-path="url(#p6bf6161fc3)" style="fill: none; stroke: #1f77b4; stroke-opacity: 0.8; stroke-width: 1.5; stroke-linecap: round"/>
   </g>
   <g id="line2d_84">
    <path d="M 107.034375 224.221763 
L 134.934375 234.129356 
L 162.834375 236.379902 
L 190.734375 234.348911 
L 218.634375 228.880986 
L 246.534375 208.517737 
L 274.434375 167.870009 
L 302.334375 130.635711 
L 330.234375 118.582336 
L 358.134375 112.286882 
L 386.034375 104.453595 
L 413.934375 92.979243 
L 441.834375 83.34427 
L 469.734375 75.179495 
L 497.634375 70.196405 
L 525.534375 64.943243 
L 553.434375 65.136105 
L 581.334375 88.02824 
L 609.234375 104.422559 
L 637.134375 121.674242 
L 665.034375 141.406239 
L 692.934375 162.216006 
L 720.834375 181.209177 
L 748.734375 199.585251 
" clip-path="url(#p6bf6161fc3)" style="fill: none; stroke: #f7b6d2; stroke-opacity: 0.8; stroke-width: 1.5; stroke-linecap: round"/>
   </g>
   <g id="line2d_85">
    <path d="M 107.034375 220.130343 
L 134.934375 230.822124 
L 162.834375 233.725777 
L 190.734375 232.452134 
L 218.634375 226.595041 
L 246.534375 204.351064 
L 274.434375 164.039451 
L 302.334375 123.657463 
L 330.234375 109.789559 
L 358.134375 102.673258 
L 386.034375 93.336966 
L 413.934375 82.787931 
L 441.834375 77.080404 
L 469.734375 71.009254 
L 497.634375 64.790956 
L 525.534375 60.300554 
L 553.434375 58.323374 
L 581.334375 75.192186 
L 609.234375 89.211693 
L 637.134375 108.572527 
L 665.034375 129.174555 
L 692.934375 153.315078 
L 720.834375 171.73451 
L 748.734375 193.127515 
" clip-path="url(#p6bf6161fc3)" style="fill: none; stroke: #ff9896; stroke-opacity: 0.8; stroke-width: 1.5; stroke-linecap: round"/>
   </g>
   <g id="line2d_86">
    <path d="M 107.034375 224.547122 
L 134.934375 234.085778 
L 162.834375 238.261796 
L 190.734375 235.011569 
L 218.634375 225.065951 
L 246.534375 195.75458 
L 274.434375 151.087944 
L 302.334375 116.309362 
L 330.234375 99.68228 
L 358.134375 92.131742 
L 386.034375 85.188395 
L 413.934375 68.932893 
L 441.834375 66.971755 
L 469.734375 63.348176 
L 497.634375 61.389018 
L 525.534375 60.80443 
L 553.434375 61.373553 
L 581.334375 75.882507 
L 609.234375 99.834635 
L 637.134375 129.481736 
L 665.034375 148.627783 
L 692.934375 166.371623 
L 720.834375 182.329404 
L 748.734375 199.104623 
" clip-path="url(#p6bf6161fc3)" style="fill: none; stroke: #ff7f0e; stroke-opacity: 0.8; stroke-width: 1.5; stroke-linecap: round"/>
   </g>
   <g id="line2d_87">
    <path d="M 107.034375 224.115545 
L 134.934375 233.760892 
L 162.834375 236.291517 
L 190.734375 235.590207 
L 218.634375 230.300436 
L 246.534375 209.800251 
L 274.434375 176.173884 
L 302.334375 134.60508 
L 330.234375 122.033043 
L 358.134375 114.672298 
L 386.034375 106.654391 
L 413.934375 93.662858 
L 441.834375 87.608349 
L 469.734375 81.49551 
L 497.634375 75.273311 
L 525.534375 69.115975 
L 553.434375 68.284098 
L 581.334375 82.411318 
L 609.234375 104.472121 
L 637.134375 123.680835 
L 665.034375 141.306593 
L 692.934375 162.632281 
L 720.834375 174.986914 
L 748.734375 197.346404 
" clip-path="url(#p6bf6161fc3)" style="fill: none; stroke: #f7b6d2; stroke-opacity: 0.8; stroke-width: 1.5; stroke-linecap: round"/>
   </g>
   <g id="line2d_88">
    <path d="M 107.034375 227.728447 
L 134.934375 236.125632 
L 162.834375 238.627059 
L 190.734375 237.927991 
L 218.634375 232.298371 
L 246.534375 214.664112 
L 274.434375 183.724864 
L 302.334375 153.695796 
L 330.234375 137.760804 
L 358.134375 127.605783 
L 386.034375 119.795044 
L 413.934375 99.877088 
L 441.834375 92.935986 
L 469.734375 87.066604 
L 497.634375 84.447879 
L 525.534375 81.358756 
L 553.434375 84.994147 
L 581.334375 97.629487 
L 609.234375 118.092478 
L 637.134375 141.763421 
L 665.034375 159.119087 
L 692.934375 178.539046 
L 720.834375 192.840852 
L 748.734375 207.655524 
" clip-path="url(#p6bf6161fc3)" style="fill: none; stroke: #7f7f7f; stroke-opacity: 0.8; stroke-width: 1.5; stroke-linecap: round"/>
   </g>
   <g id="line2d_89">
    <path d="M 107.034375 218.516499 
L 134.934375 230.087532 
L 162.834375 233.30552 
L 190.734375 230.863561 
L 218.634375 221.656181 
L 246.534375 191.450253 
L 274.434375 143.18112 
L 302.334375 111.773398 
L 330.234375 97.99363 
L 358.134375 89.367804 
L 386.034375 80.051692 
L 413.934375 65.221419 
L 441.834375 61.886464 
L 469.734375 57.091522 
L 497.634375 56.696882 
L 525.534375 59.562584 
L 553.434375 62.939792 
L 581.334375 78.666798 
L 609.234375 97.443758 
L 637.134375 120.409002 
L 665.034375 140.007555 
L 692.934375 154.871494 
L 720.834375 169.848786 
L 748.734375 190.691682 
" clip-path="url(#p6bf6161fc3)" style="fill: none; stroke: #c7c7c7; stroke-opacity: 0.8; stroke-width: 1.5; stroke-linecap: round"/>
   </g>
   <g id="line2d_90">
    <path d="M 107.034375 224.664068 
L 134.934375 233.549717 
L 162.834375 236.186647 
L 190.734375 234.98781 
L 218.634375 229.803299 
L 246.534375 209.198093 
L 274.434375 177.491543 
L 302.334375 139.260065 
L 330.234375 127.125956 
L 358.134375 119.682817 
L 386.034375 112.369307 
L 413.934375 100.917055 
L 441.834375 95.627467 
L 469.734375 89.101834 
L 497.634375 86.513712 
L 525.534375 84.805929 
L 553.434375 84.520754 
L 581.334375 98.44352 
L 609.234375 109.355873 
L 637.134375 122.986158 
L 665.034375 144.506856 
L 692.934375 166.108812 
L 720.834375 183.136339 
L 748.734375 203.802174 
" clip-path="url(#p6bf6161fc3)" style="fill: none; stroke: #aec7e8; stroke-opacity: 0.8; stroke-width: 1.5; stroke-linecap: round"/>
   </g>
   <g id="line2d_91">
    <path d="M 107.034375 225.023258 
L 134.934375 234.869436 
L 162.834375 237.40518 
L 190.734375 237.322489 
L 218.634375 232.887529 
L 246.534375 214.237146 
L 274.434375 184.847749 
L 302.334375 144.107218 
L 330.234375 130.444894 
L 358.134375 122.60754 
L 386.034375 112.984671 
L 413.934375 96.310892 
L 441.834375 86.509662 
L 469.734375 77.787128 
L 497.634375 72.986074 
L 525.534375 69.114337 
L 553.434375 71.695469 
L 581.334375 86.847832 
L 609.234375 107.935012 
L 637.134375 128.174699 
L 665.034375 148.108318 
L 692.934375 169.401294 
L 720.834375 185.999273 
L 748.734375 203.717852 
" clip-path="url(#p6bf6161fc3)" style="fill: none; stroke: #d62728; stroke-opacity: 0.8; stroke-width: 1.5; stroke-linecap: round"/>
   </g>
   <g id="line2d_92">
    <path d="M 107.034375 227.961235 
L 134.934375 235.54218 
L 162.834375 236.883562 
L 190.734375 238.213822 
L 218.634375 232.493217 
L 246.534375 216.010836 
L 274.434375 187.171024 
L 302.334375 151.215948 
L 330.234375 141.965683 
L 358.134375 137.688307 
L 386.034375 128.845677 
L 413.934375 109.278185 
L 441.834375 100.722123 
L 469.734375 94.891796 
L 497.634375 93.606657 
L 525.534375 95.160795 
L 553.434375 97.671288 
L 581.334375 110.67641 
L 609.234375 131.44733 
L 637.134375 150.530764 
L 665.034375 167.103877 
L 692.934375 183.641991 
L 720.834375 195.871776 
L 748.734375 210.069179 
" clip-path="url(#p6bf6161fc3)" style="fill: none; stroke: #9edae5; stroke-opacity: 0.8; stroke-width: 1.5; stroke-linecap: round"/>
   </g>
   <g id="line2d_93">
    <path d="M 107.034375 226.69395 
L 134.934375 236.41047 
L 162.834375 238.204432 
L 190.734375 237.768523 
L 218.634375 232.026576 
L 246.534375 210.596294 
L 274.434375 165.821093 
L 302.334375 132.306904 
L 330.234375 120.965065 
L 358.134375 117.001512 
L 386.034375 111.850672 
L 413.934375 101.052872 
L 441.834375 96.530792 
L 469.734375 86.036042 
L 497.634375 81.810372 
L 525.534375 77.543724 
L 553.434375 82.303049 
L 581.334375 96.846348 
L 609.234375 114.731807 
L 637.134375 132.914015 
L 665.034375 150.181381 
L 692.934375 167.190452 
L 720.834375 185.711871 
L 748.734375 204.38533 
" clip-path="url(#p6bf6161fc3)" style="fill: none; stroke: #bcbd22; stroke-opacity: 0.8; stroke-width: 1.5; stroke-linecap: round"/>
   </g>
   <g id="line2d_94">
    <path d="M 107.034375 226.824633 
L 134.934375 235.577664 
L 162.834375 237.683691 
L 190.734375 236.752205 
L 218.634375 231.931046 
L 246.534375 208.889932 
L 274.434375 167.469628 
L 302.334375 132.633606 
L 330.234375 119.170566 
L 358.134375 114.615327 
L 386.034375 109.144449 
L 413.934375 95.206215 
L 441.834375 90.665608 
L 469.734375 81.197271 
L 497.634375 77.274903 
L 525.534375 75.487976 
L 553.434375 83.255665 
L 581.334375 101.147289 
L 609.234375 113.183545 
L 637.134375 134.73529 
L 665.034375 153.633597 
L 692.934375 170.923886 
L 720.834375 187.627248 
L 748.734375 206.169593 
" clip-path="url(#p6bf6161fc3)" style="fill: none; stroke: #1f77b4; stroke-opacity: 0.8; stroke-width: 1.5; stroke-linecap: round"/>
   </g>
   <g id="line2d_95">
    <path d="M 107.034375 217.79807 
L 134.934375 229.755257 
L 162.834375 233.149606 
L 190.734375 232.134181 
L 218.634375 227.034391 
L 246.534375 203.470099 
L 274.434375 164.605985 
L 302.334375 123.906291 
L 330.234375 113.094448 
L 358.134375 108.353528 
L 386.034375 101.871378 
L 413.934375 89.495172 
L 441.834375 85.899734 
L 469.734375 79.81775 
L 497.634375 75.383799 
L 525.534375 68.585981 
L 553.434375 66.99881 
L 581.334375 83.565979 
L 609.234375 99.567724 
L 637.134375 119.22405 
L 665.034375 135.54003 
L 692.934375 154.711131 
L 720.834375 171.931627 
L 748.734375 190.730956 
" clip-path="url(#p6bf6161fc3)" style="fill: none; stroke: #dbdb8d; stroke-opacity: 0.8; stroke-width: 1.5; stroke-linecap: round"/>
   </g>
   <g id="line2d_96">
    <path d="M 107.034375 227.035751 
L 134.934375 237.601429 
L 162.834375 240.260594 
L 190.734375 239.274113 
L 218.634375 233.925425 
L 246.534375 220.238969 
L 274.434375 188.198489 
L 302.334375 155.048359 
L 330.234375 144.999315 
L 358.134375 138.808349 
L 386.034375 129.455139 
L 413.934375 110.672764 
L 441.834375 107.762127 
L 469.734375 103.913773 
L 497.634375 101.440768 
L 525.534375 97.984937 
L 553.434375 98.853523 
L 581.334375 109.298257 
L 609.234375 127.005691 
L 637.134375 148.792064 
L 665.034375 160.988136 
L 692.934375 174.488134 
L 720.834375 188.32894 
L 748.734375 204.357956 
" clip-path="url(#p6bf6161fc3)" style="fill: none; stroke: #2ca02c; stroke-opacity: 0.8; stroke-width: 1.5; stroke-linecap: round"/>
   </g>
   <g id="line2d_97">
    <path d="M 107.034375 212.789188 
L 134.934375 226.040344 
L 162.834375 229.96687 
L 190.734375 229.545395 
L 218.634375 222.282084 
L 246.534375 198.498355 
L 274.434375 155.885234 
L 302.334375 114.450898 
L 330.234375 105.884324 
L 358.134375 101.633181 
L 386.034375 93.226632 
L 413.934375 78.473754 
L 441.834375 73.536377 
L 469.734375 66.457524 
L 497.634375 61.661791 
L 525.534375 55.32249 
L 553.434375 51.990155 
L 581.334375 66.819215 
L 609.234375 88.687479 
L 637.134375 112.337675 
L 665.034375 127.730889 
L 692.934375 146.387659 
L 720.834375 160.139806 
L 748.734375 183.02358 
" clip-path="url(#p6bf6161fc3)" style="fill: none; stroke: #c7c7c7; stroke-opacity: 0.8; stroke-width: 1.5; stroke-linecap: round"/>
   </g>
   <g id="line2d_98">
    <path d="M 107.034375 220.805679 
L 134.934375 228.650714 
L 162.834375 230.221529 
L 190.734375 228.63806 
L 218.634375 221.689286 
L 246.534375 203.917351 
L 274.434375 163.08025 
L 302.334375 123.843702 
L 330.234375 116.825273 
L 358.134375 114.573014 
L 386.034375 109.214393 
L 413.934375 97.945146 
L 441.834375 94.714462 
L 469.734375 86.013885 
L 497.634375 83.798605 
L 525.534375 84.225262 
L 553.434375 92.638346 
L 581.334375 104.136016 
L 609.234375 113.990386 
L 637.134375 129.851334 
L 665.034375 145.960303 
L 692.934375 162.024436 
L 720.834375 175.805302 
L 748.734375 198.184526 
" clip-path="url(#p6bf6161fc3)" style="fill: none; stroke: #ffbb78; stroke-opacity: 0.8; stroke-width: 1.5; stroke-linecap: round"/>
   </g>
   <g id="line2d_99">
    <path d="M 107.034375 222.795127 
L 134.934375 232.784037 
L 162.834375 235.59843 
L 190.734375 234.924316 
L 218.634375 230.025123 
L 246.534375 209.756274 
L 274.434375 176.149182 
L 302.334375 138.388026 
L 330.234375 123.441849 
L 358.134375 114.842107 
L 386.034375 106.328202 
L 413.934375 94.595408 
L 441.834375 86.407375 
L 469.734375 79.199785 
L 497.634375 74.270664 
L 525.534375 71.177877 
L 553.434375 69.06145 
L 581.334375 82.463151 
L 609.234375 97.588496 
L 637.134375 114.619362 
L 665.034375 136.816556 
L 692.934375 160.834951 
L 720.834375 177.393001 
L 748.734375 197.551724 
" clip-path="url(#p6bf6161fc3)" style="fill: none; stroke: #dbdb8d; stroke-opacity: 0.8; stroke-width: 1.5; stroke-linecap: round"/>
   </g>
   <g id="line2d_100">
    <path d="M 107.034375 234.039095 
L 134.934375 240.476593 
L 162.834375 241.049604 
L 190.734375 239.579485 
L 218.634375 234.766463 
L 246.534375 220.485946 
L 274.434375 187.593635 
L 302.334375 156.705038 
L 330.234375 144.21238 
L 358.134375 138.849327 
L 386.034375 129.275318 
L 413.934375 111.582636 
L 441.834375 110.778081 
L 469.734375 104.730333 
L 497.634375 101.161752 
L 525.534375 100.678683 
L 553.434375 104.875537 
L 581.334375 121.246663 
L 609.234375 140.075832 
L 637.134375 155.727339 
L 665.034375 172.543339 
L 692.934375 186.135649 
L 720.834375 201.130013 
L 748.734375 216.742878 
" clip-path="url(#p6bf6161fc3)" style="fill: none; stroke: #17becf; stroke-opacity: 0.8; stroke-width: 1.5; stroke-linecap: round"/>
   </g>
   <g id="line2d_101">
    <path d="M 107.034375 226.931968 
L 134.934375 233.516602 
L 162.834375 234.843801 
L 190.734375 233.14297 
L 218.634375 227.745893 
L 246.534375 213.670341 
L 274.434375 179.368422 
L 302.334375 144.372849 
L 330.234375 134.156061 
L 358.134375 131.878898 
L 386.034375 127.186592 
L 413.934375 116.145145 
L 441.834375 110.884067 
L 469.734375 102.031475 
L 497.634375 100.250428 
L 525.534375 100.420116 
L 553.434375 108.11458 
L 581.334375 120.875939 
L 609.234375 132.193263 
L 637.134375 146.55335 
L 665.034375 162.496101 
L 692.934375 177.956661 
L 720.834375 192.051 
L 748.734375 209.130228 
" clip-path="url(#p6bf6161fc3)" style="fill: none; stroke: #9edae5; stroke-opacity: 0.8; stroke-width: 1.5; stroke-linecap: round"/>
   </g>
   <g id="patch_3">
    <path d="M 93.084375 263.48625 
L 93.084375 41.72625 
" style="fill: none; stroke: #000000; stroke-linejoin: miter; stroke-linecap: square"/>
   </g>
   <g id="patch_4">
    <path d="M 762.684375 263.48625 
L 762.684375 41.72625 
" style="fill: none; stroke: #000000; stroke-linejoin: miter; stroke-linecap: square"/>
   </g>
   <g id="patch_5">
    <path d="M 93.084375 263.48625 
L 762.684375 263.48625 
" style="fill: none; stroke: #000000; stroke-linejoin: miter; stroke-linecap: square"/>
   </g>
   <g id="patch_6">
    <path d="M 93.084375 41.72625 
L 762.684375 41.72625 
" style="fill: none; stroke: #000000; stroke-linejoin: miter; stroke-linecap: square"/>
   </g>
  </g>
 </g>
 <defs>
  <clipPath id="p6bf6161fc3">
   <rect x="93.084375" y="41.72625" width="669.6" height="221.76"/>
  </clipPath>
 </defs>
</svg>
