<?xml version="1.0" encoding="utf-8" standalone="no"?>
<!DOCTYPE svg PUBLIC "-//W3C//DTD SVG 1.1//EN"
  "http://www.w3.org/Graphics/SVG/1.1/DTD/svg11.dtd">
<svg xmlns:xlink="http://www.w3.org/1999/xlink" width="798.684375pt" height="334.600808pt" viewBox="0 0 798.684375 334.600808" xmlns="http://www.w3.org/2000/svg" version="1.1">
 <metadata>
  <rdf:RDF xmlns:dc="http://purl.org/dc/elements/1.1/" xmlns:cc="http://creativecommons.org/ns#" xmlns:rdf="http://www.w3.org/1999/02/22-rdf-syntax-ns#">
   <cc:Work>
    <dc:type rdf:resource="http://purl.org/dc/dcmitype/StillImage"/>
    <dc:date>2025-10-28T00:03:19.774563</dc:date>
    <dc:format>image/svg+xml</dc:format>
    <dc:creator>
     <cc:Agent>
      <dc:title>Matplotlib v3.10.7, https://matplotlib.org/</dc:title>
     </cc:Agent>
    </dc:creator>
   </cc:Work>
  </rdf:RDF>
 </metadata>
 <defs>
  <style type="text/css">*{stroke-linejoin: round; stroke-linecap: butt}</style>
 </defs>
 <g id="figure_1">
  <g id="patch_1">
   <path d="M 0 334.600808 
L 798.684375 334.600808 
L 798.684375 0 
L 0 0 
L 0 334.600808 
z
" style="fill: none"/>
  </g>
  <g id="axes_1">
   <g id="patch_2">
    <path d="M 93.084375 260.074558 
L 762.684375 260.074558 
L 762.684375 38.314558 
L 93.084375 38.314558 
L 93.084375 260.074558 
z
" style="fill: none"/>
   </g>
   <g id="line2d_1">
    <path d="M 113.375284 260.074558 
L 113.375284 38.314558 
" clip-path="url(#p5b50e4b087)" style="fill: none; stroke-dasharray: 0.74,0.32; stroke-dashoffset: 0; stroke: #a9a9a9; stroke-opacity: 0.5; stroke-width: 0.2"/>
   </g>
   <g id="line2d_2">
    <path d="M 133.666193 260.074558 
L 133.666193 38.314558 
" clip-path="url(#p5b50e4b087)" style="fill: none; stroke-dasharray: 0.74,0.32; stroke-dashoffset: 0; stroke: #a9a9a9; stroke-opacity: 0.5; stroke-width: 0.2"/>
   </g>
   <g id="line2d_3">
    <path d="M 153.957102 260.074558 
L 153.957102 38.314558 
" clip-path="url(#p5b50e4b087)" style="fill: none; stroke-dasharray: 0.74,0.32; stroke-dashoffset: 0; stroke: #a9a9a9; stroke-opacity: 0.5; stroke-width: 0.2"/>
   </g>
   <g id="line2d_4">
    <path d="M 174.248011 260.074558 
L 174.248011 38.314558 
" clip-path="url(#p5b50e4b087)" style="fill: none; stroke-dasharray: 0.74,0.32; stroke-dashoffset: 0; stroke: #a9a9a9; stroke-opacity: 0.5; stroke-width: 0.2"/>
   </g>
   <g id="line2d_5">
    <path d="M 194.53892 260.074558 
L 194.53892 38.314558 
" clip-path="url(#p5b50e4b087)" style="fill: none; stroke-dasharray: 0.74,0.32; stroke-dashoffset: 0; stroke: #a9a9a9; stroke-opacity: 0.5; stroke-width: 0.2"/>
   </g>
   <g id="line2d_6">
    <path d="M 214.82983 260.074558 
L 214.82983 38.314558 
" clip-path="url(#p5b50e4b087)" style="fill: none; stroke-dasharray: 0.74,0.32; stroke-dashoffset: 0; stroke: #a9a9a9; stroke-opacity: 0.5; stroke-width: 0.2"/>
   </g>
   <g id="line2d_7">
    <path d="M 235.120739 260.074558 
L 235.120739 38.314558 
" clip-path="url(#p5b50e4b087)" style="fill: none; stroke-dasharray: 0.74,0.32; stroke-dashoffset: 0; stroke: #a9a9a9; stroke-opacity: 0.5; stroke-width: 0.2"/>
   </g>
   <g id="line2d_8">
    <path d="M 255.411648 260.074558 
L 255.411648 38.314558 
" clip-path="url(#p5b50e4b087)" style="fill: none; stroke-dasharray: 0.74,0.32; stroke-dashoffset: 0; stroke: #a9a9a9; stroke-opacity: 0.5; stroke-width: 0.2"/>
   </g>
   <g id="line2d_9">
    <path d="M 275.702557 260.074558 
L 275.702557 38.314558 
" clip-path="url(#p5b50e4b087)" style="fill: none; stroke-dasharray: 0.74,0.32; stroke-dashoffset: 0; stroke: #a9a9a9; stroke-opacity: 0.5; stroke-width: 0.2"/>
   </g>
   <g id="line2d_10">
    <path d="M 295.993466 260.074558 
L 295.993466 38.314558 
" clip-path="url(#p5b50e4b087)" style="fill: none; stroke-dasharray: 0.74,0.32; stroke-dashoffset: 0; stroke: #a9a9a9; stroke-opacity: 0.5; stroke-width: 0.2"/>
   </g>
   <g id="line2d_11">
    <path d="M 316.284375 260.074558 
L 316.284375 38.314558 
" clip-path="url(#p5b50e4b087)" style="fill: none; stroke-dasharray: 0.74,0.32; stroke-dashoffset: 0; stroke: #a9a9a9; stroke-opacity: 0.5; stroke-width: 0.2"/>
   </g>
   <g id="line2d_12">
    <path d="M 336.575284 260.074558 
L 336.575284 38.314558 
" clip-path="url(#p5b50e4b087)" style="fill: none; stroke-dasharray: 0.74,0.32; stroke-dashoffset: 0; stroke: #a9a9a9; stroke-opacity: 0.5; stroke-width: 0.2"/>
   </g>
   <g id="line2d_13">
    <path d="M 356.866193 260.074558 
L 356.866193 38.314558 
" clip-path="url(#p5b50e4b087)" style="fill: none; stroke-dasharray: 0.74,0.32; stroke-dashoffset: 0; stroke: #a9a9a9; stroke-opacity: 0.5; stroke-width: 0.2"/>
   </g>
   <g id="line2d_14">
    <path d="M 377.157102 260.074558 
L 377.157102 38.314558 
" clip-path="url(#p5b50e4b087)" style="fill: none; stroke-dasharray: 0.74,0.32; stroke-dashoffset: 0; stroke: #a9a9a9; stroke-opacity: 0.5; stroke-width: 0.2"/>
   </g>
   <g id="line2d_15">
    <path d="M 397.448011 260.074558 
L 397.448011 38.314558 
" clip-path="url(#p5b50e4b087)" style="fill: none; stroke-dasharray: 0.74,0.32; stroke-dashoffset: 0; stroke: #a9a9a9; stroke-opacity: 0.5; stroke-width: 0.2"/>
   </g>
   <g id="line2d_16">
    <path d="M 417.73892 260.074558 
L 417.73892 38.314558 
" clip-path="url(#p5b50e4b087)" style="fill: none; stroke-dasharray: 0.74,0.32; stroke-dashoffset: 0; stroke: #a9a9a9; stroke-opacity: 0.5; stroke-width: 0.2"/>
   </g>
   <g id="line2d_17">
    <path d="M 438.02983 260.074558 
L 438.02983 38.314558 
" clip-path="url(#p5b50e4b087)" style="fill: none; stroke-dasharray: 0.74,0.32; stroke-dashoffset: 0; stroke: #a9a9a9; stroke-opacity: 0.5; stroke-width: 0.2"/>
   </g>
   <g id="line2d_18">
    <path d="M 458.320739 260.074558 
L 458.320739 38.314558 
" clip-path="url(#p5b50e4b087)" style="fill: none; stroke-dasharray: 0.74,0.32; stroke-dashoffset: 0; stroke: #a9a9a9; stroke-opacity: 0.5; stroke-width: 0.2"/>
   </g>
   <g id="line2d_19">
    <path d="M 478.611648 260.074558 
L 478.611648 38.314558 
" clip-path="url(#p5b50e4b087)" style="fill: none; stroke-dasharray: 0.74,0.32; stroke-dashoffset: 0; stroke: #a9a9a9; stroke-opacity: 0.5; stroke-width: 0.2"/>
   </g>
   <g id="line2d_20">
    <path d="M 498.902557 260.074558 
L 498.902557 38.314558 
" clip-path="url(#p5b50e4b087)" style="fill: none; stroke-dasharray: 0.74,0.32; stroke-dashoffset: 0; stroke: #a9a9a9; stroke-opacity: 0.5; stroke-width: 0.2"/>
   </g>
   <g id="line2d_21">
    <path d="M 519.193466 260.074558 
L 519.193466 38.314558 
" clip-path="url(#p5b50e4b087)" style="fill: none; stroke-dasharray: 0.74,0.32; stroke-dashoffset: 0; stroke: #a9a9a9; stroke-opacity: 0.5; stroke-width: 0.2"/>
   </g>
   <g id="line2d_22">
    <path d="M 539.484375 260.074558 
L 539.484375 38.314558 
" clip-path="url(#p5b50e4b087)" style="fill: none; stroke-dasharray: 0.74,0.32; stroke-dashoffset: 0; stroke: #a9a9a9; stroke-opacity: 0.5; stroke-width: 0.2"/>
   </g>
   <g id="line2d_23">
    <path d="M 559.775284 260.074558 
L 559.775284 38.314558 
" clip-path="url(#p5b50e4b087)" style="fill: none; stroke-dasharray: 0.74,0.32; stroke-dashoffset: 0; stroke: #a9a9a9; stroke-opacity: 0.5; stroke-width: 0.2"/>
   </g>
   <g id="line2d_24">
    <path d="M 580.066193 260.074558 
L 580.066193 38.314558 
" clip-path="url(#p5b50e4b087)" style="fill: none; stroke-dasharray: 0.74,0.32; stroke-dashoffset: 0; stroke: #a9a9a9; stroke-opacity: 0.5; stroke-width: 0.2"/>
   </g>
   <g id="line2d_25">
    <path d="M 600.357102 260.074558 
L 600.357102 38.314558 
" clip-path="url(#p5b50e4b087)" style="fill: none; stroke-dasharray: 0.74,0.32; stroke-dashoffset: 0; stroke: #a9a9a9; stroke-opacity: 0.5; stroke-width: 0.2"/>
   </g>
   <g id="line2d_26">
    <path d="M 620.648011 260.074558 
L 620.648011 38.314558 
" clip-path="url(#p5b50e4b087)" style="fill: none; stroke-dasharray: 0.74,0.32; stroke-dashoffset: 0; stroke: #a9a9a9; stroke-opacity: 0.5; stroke-width: 0.2"/>
   </g>
   <g id="line2d_27">
    <path d="M 640.93892 260.074558 
L 640.93892 38.314558 
" clip-path="url(#p5b50e4b087)" style="fill: none; stroke-dasharray: 0.74,0.32; stroke-dashoffset: 0; stroke: #a9a9a9; stroke-opacity: 0.5; stroke-width: 0.2"/>
   </g>
   <g id="line2d_28">
    <path d="M 661.22983 260.074558 
L 661.22983 38.314558 
" clip-path="url(#p5b50e4b087)" style="fill: none; stroke-dasharray: 0.74,0.32; stroke-dashoffset: 0; stroke: #a9a9a9; stroke-opacity: 0.5; stroke-width: 0.2"/>
   </g>
   <g id="line2d_29">
    <path d="M 681.520739 260.074558 
L 681.520739 38.314558 
" clip-path="url(#p5b50e4b087)" style="fill: none; stroke-dasharray: 0.74,0.32; stroke-dashoffset: 0; stroke: #a9a9a9; stroke-opacity: 0.5; stroke-width: 0.2"/>
   </g>
   <g id="line2d_30">
    <path d="M 701.811648 260.074558 
L 701.811648 38.314558 
" clip-path="url(#p5b50e4b087)" style="fill: none; stroke-dasharray: 0.74,0.32; stroke-dashoffset: 0; stroke: #a9a9a9; stroke-opacity: 0.5; stroke-width: 0.2"/>
   </g>
   <g id="line2d_31">
    <path d="M 722.102557 260.074558 
L 722.102557 38.314558 
" clip-path="url(#p5b50e4b087)" style="fill: none; stroke-dasharray: 0.74,0.32; stroke-dashoffset: 0; stroke: #a9a9a9; stroke-opacity: 0.5; stroke-width: 0.2"/>
   </g>
   <g id="line2d_32">
    <path d="M 742.393466 260.074558 
L 742.393466 38.314558 
" clip-path="url(#p5b50e4b087)" style="fill: none; stroke-dasharray: 0.74,0.32; stroke-dashoffset: 0; stroke: #a9a9a9; stroke-opacity: 0.5; stroke-width: 0.2"/>
   </g>
   <g id="line2d_33">
    <path d="M 93.084375 237.898558 
L 762.684375 237.898558 
" clip-path="url(#p5b50e4b087)" style="fill: none; stroke-dasharray: 0.74,0.32; stroke-dashoffset: 0; stroke: #a9a9a9; stroke-opacity: 0.5; stroke-width: 0.2"/>
   </g>
   <g id="line2d_34">
    <path d="M 93.084375 215.722558 
L 762.684375 215.722558 
" clip-path="url(#p5b50e4b087)" style="fill: none; stroke-dasharray: 0.74,0.32; stroke-dashoffset: 0; stroke: #a9a9a9; stroke-opacity: 0.5; stroke-width: 0.2"/>
   </g>
   <g id="line2d_35">
    <path d="M 93.084375 193.546558 
L 762.684375 193.546558 
" clip-path="url(#p5b50e4b087)" style="fill: none; stroke-dasharray: 0.74,0.32; stroke-dashoffset: 0; stroke: #a9a9a9; stroke-opacity: 0.5; stroke-width: 0.2"/>
   </g>
   <g id="line2d_36">
    <path d="M 93.084375 171.370558 
L 762.684375 171.370558 
" clip-path="url(#p5b50e4b087)" style="fill: none; stroke-dasharray: 0.74,0.32; stroke-dashoffset: 0; stroke: #a9a9a9; stroke-opacity: 0.5; stroke-width: 0.2"/>
   </g>
   <g id="line2d_37">
    <path d="M 93.084375 149.194558 
L 762.684375 149.194558 
" clip-path="url(#p5b50e4b087)" style="fill: none; stroke-dasharray: 0.74,0.32; stroke-dashoffset: 0; stroke: #a9a9a9; stroke-opacity: 0.5; stroke-width: 0.2"/>
   </g>
   <g id="line2d_38">
    <path d="M 93.084375 127.018558 
L 762.684375 127.018558 
" clip-path="url(#p5b50e4b087)" style="fill: none; stroke-dasharray: 0.74,0.32; stroke-dashoffset: 0; stroke: #a9a9a9; stroke-opacity: 0.5; stroke-width: 0.2"/>
   </g>
   <g id="line2d_39">
    <path d="M 93.084375 104.842558 
L 762.684375 104.842558 
" clip-path="url(#p5b50e4b087)" style="fill: none; stroke-dasharray: 0.74,0.32; stroke-dashoffset: 0; stroke: #a9a9a9; stroke-opacity: 0.5; stroke-width: 0.2"/>
   </g>
   <g id="line2d_40">
    <path d="M 93.084375 82.666558 
L 762.684375 82.666558 
" clip-path="url(#p5b50e4b087)" style="fill: none; stroke-dasharray: 0.74,0.32; stroke-dashoffset: 0; stroke: #a9a9a9; stroke-opacity: 0.5; stroke-width: 0.2"/>
   </g>
   <g id="line2d_41">
    <path d="M 93.084375 60.490558 
L 762.684375 60.490558 
" clip-path="url(#p5b50e4b087)" style="fill: none; stroke-dasharray: 0.74,0.32; stroke-dashoffset: 0; stroke: #a9a9a9; stroke-opacity: 0.5; stroke-width: 0.2"/>
   </g>
   <g id="matplotlib.axis_1">
    <g id="xtick_1">
     <g id="line2d_42">
      <defs>
       <path id="m09ad508a5a" d="M 0 0 
L 0 5 
" style="stroke: #000000"/>
      </defs>
      <g>
       <use xlink:href="#m09ad508a5a" x="107.034375" y="260.074558" style="stroke: #000000"/>
      </g>
     </g>
     <g id="text_1">
      <!-- 1:00 -->
      <g transform="translate(110.136562 291.927683) rotate(-90) scale(0.12 -0.12)">
       <defs>
        <path id="ArialMT-31" d="M 2384 0 
L 1822 0 
L 1822 3584 
Q 1619 3391 1289 3197 
Q 959 3003 697 2906 
L 697 3450 
Q 1169 3672 1522 3987 
Q 1875 4303 2022 4600 
L 2384 4600 
L 2384 0 
z
" transform="scale(0.015625)"/>
        <path id="ArialMT-3a" d="M 578 2678 
L 578 3319 
L 1219 3319 
L 1219 2678 
L 578 2678 
z
M 578 0 
L 578 641 
L 1219 641 
L 1219 0 
L 578 0 
z
" transform="scale(0.015625)"/>
        <path id="ArialMT-30" d="M 266 2259 
Q 266 3072 433 3567 
Q 600 4063 929 4331 
Q 1259 4600 1759 4600 
Q 2128 4600 2406 4451 
Q 2684 4303 2865 4023 
Q 3047 3744 3150 3342 
Q 3253 2941 3253 2259 
Q 3253 1453 3087 958 
Q 2922 463 2592 192 
Q 2263 -78 1759 -78 
Q 1097 -78 719 397 
Q 266 969 266 2259 
z
M 844 2259 
Q 844 1131 1108 757 
Q 1372 384 1759 384 
Q 2147 384 2411 759 
Q 2675 1134 2675 2259 
Q 2675 3391 2411 3762 
Q 2147 4134 1753 4134 
Q 1366 4134 1134 3806 
Q 844 3388 844 2259 
z
" transform="scale(0.015625)"/>
       </defs>
       <use xlink:href="#ArialMT-31"/>
       <use xlink:href="#ArialMT-3a" transform="translate(55.615234 0)"/>
       <use xlink:href="#ArialMT-30" transform="translate(83.398438 0)"/>
       <use xlink:href="#ArialMT-30" transform="translate(139.013672 0)"/>
      </g>
     </g>
    </g>
    <g id="xtick_2">
     <g id="line2d_43">
      <g>
       <use xlink:href="#m09ad508a5a" x="134.934375" y="260.074558" style="stroke: #000000"/>
      </g>
     </g>
     <g id="text_2">
      <!-- 2:00 -->
      <g transform="translate(138.036563 291.927683) rotate(-90) scale(0.12 -0.12)">
       <defs>
        <path id="ArialMT-32" d="M 3222 541 
L 3222 0 
L 194 0 
Q 188 203 259 391 
Q 375 700 629 1000 
Q 884 1300 1366 1694 
Q 2113 2306 2375 2664 
Q 2638 3022 2638 3341 
Q 2638 3675 2398 3904 
Q 2159 4134 1775 4134 
Q 1369 4134 1125 3890 
Q 881 3647 878 3216 
L 300 3275 
Q 359 3922 746 4261 
Q 1134 4600 1788 4600 
Q 2447 4600 2831 4234 
Q 3216 3869 3216 3328 
Q 3216 3053 3103 2787 
Q 2991 2522 2730 2228 
Q 2469 1934 1863 1422 
Q 1356 997 1212 845 
Q 1069 694 975 541 
L 3222 541 
z
" transform="scale(0.015625)"/>
       </defs>
       <use xlink:href="#ArialMT-32"/>
       <use xlink:href="#ArialMT-3a" transform="translate(55.615234 0)"/>
       <use xlink:href="#ArialMT-30" transform="translate(83.398438 0)"/>
       <use xlink:href="#ArialMT-30" transform="translate(139.013672 0)"/>
      </g>
     </g>
    </g>
    <g id="xtick_3">
     <g id="line2d_44">
      <g>
       <use xlink:href="#m09ad508a5a" x="162.834375" y="260.074558" style="stroke: #000000"/>
      </g>
     </g>
     <g id="text_3">
      <!-- 3:00 -->
      <g transform="translate(165.936562 291.927683) rotate(-90) scale(0.12 -0.12)">
       <defs>
        <path id="ArialMT-33" d="M 269 1209 
L 831 1284 
Q 928 806 1161 595 
Q 1394 384 1728 384 
Q 2125 384 2398 659 
Q 2672 934 2672 1341 
Q 2672 1728 2419 1979 
Q 2166 2231 1775 2231 
Q 1616 2231 1378 2169 
L 1441 2663 
Q 1497 2656 1531 2656 
Q 1891 2656 2178 2843 
Q 2466 3031 2466 3422 
Q 2466 3731 2256 3934 
Q 2047 4138 1716 4138 
Q 1388 4138 1169 3931 
Q 950 3725 888 3313 
L 325 3413 
Q 428 3978 793 4289 
Q 1159 4600 1703 4600 
Q 2078 4600 2393 4439 
Q 2709 4278 2876 4000 
Q 3044 3722 3044 3409 
Q 3044 3113 2884 2869 
Q 2725 2625 2413 2481 
Q 2819 2388 3044 2092 
Q 3269 1797 3269 1353 
Q 3269 753 2831 336 
Q 2394 -81 1725 -81 
Q 1122 -81 723 278 
Q 325 638 269 1209 
z
" transform="scale(0.015625)"/>
       </defs>
       <use xlink:href="#ArialMT-33"/>
       <use xlink:href="#ArialMT-3a" transform="translate(55.615234 0)"/>
       <use xlink:href="#ArialMT-30" transform="translate(83.398438 0)"/>
       <use xlink:href="#ArialMT-30" transform="translate(139.013672 0)"/>
      </g>
     </g>
    </g>
    <g id="xtick_4">
     <g id="line2d_45">
      <g>
       <use xlink:href="#m09ad508a5a" x="190.734375" y="260.074558" style="stroke: #000000"/>
      </g>
     </g>
     <g id="text_4">
      <!-- 4:00 -->
      <g transform="translate(193.836563 291.927683) rotate(-90) scale(0.12 -0.12)">
       <defs>
        <path id="ArialMT-34" d="M 2069 0 
L 2069 1097 
L 81 1097 
L 81 1613 
L 2172 4581 
L 2631 4581 
L 2631 1613 
L 3250 1613 
L 3250 1097 
L 2631 1097 
L 2631 0 
L 2069 0 
z
M 2069 1613 
L 2069 3678 
L 634 1613 
L 2069 1613 
z
" transform="scale(0.015625)"/>
       </defs>
       <use xlink:href="#ArialMT-34"/>
       <use xlink:href="#ArialMT-3a" transform="translate(55.615234 0)"/>
       <use xlink:href="#ArialMT-30" transform="translate(83.398438 0)"/>
       <use xlink:href="#ArialMT-30" transform="translate(139.013672 0)"/>
      </g>
     </g>
    </g>
    <g id="xtick_5">
     <g id="line2d_46">
      <g>
       <use xlink:href="#m09ad508a5a" x="218.634375" y="260.074558" style="stroke: #000000"/>
      </g>
     </g>
     <g id="text_5">
      <!-- 5:00 -->
      <g transform="translate(221.736562 291.927683) rotate(-90) scale(0.12 -0.12)">
       <defs>
        <path id="ArialMT-35" d="M 266 1200 
L 856 1250 
Q 922 819 1161 601 
Q 1400 384 1738 384 
Q 2144 384 2425 690 
Q 2706 997 2706 1503 
Q 2706 1984 2436 2262 
Q 2166 2541 1728 2541 
Q 1456 2541 1237 2417 
Q 1019 2294 894 2097 
L 366 2166 
L 809 4519 
L 3088 4519 
L 3088 3981 
L 1259 3981 
L 1013 2750 
Q 1425 3038 1878 3038 
Q 2478 3038 2890 2622 
Q 3303 2206 3303 1553 
Q 3303 931 2941 478 
Q 2500 -78 1738 -78 
Q 1113 -78 717 272 
Q 322 622 266 1200 
z
" transform="scale(0.015625)"/>
       </defs>
       <use xlink:href="#ArialMT-35"/>
       <use xlink:href="#ArialMT-3a" transform="translate(55.615234 0)"/>
       <use xlink:href="#ArialMT-30" transform="translate(83.398438 0)"/>
       <use xlink:href="#ArialMT-30" transform="translate(139.013672 0)"/>
      </g>
     </g>
    </g>
    <g id="xtick_6">
     <g id="line2d_47">
      <g>
       <use xlink:href="#m09ad508a5a" x="246.534375" y="260.074558" style="stroke: #000000"/>
      </g>
     </g>
     <g id="text_6">
      <!-- 6:00 -->
      <g transform="translate(249.636563 291.927683) rotate(-90) scale(0.12 -0.12)">
       <defs>
        <path id="ArialMT-36" d="M 3184 3459 
L 2625 3416 
Q 2550 3747 2413 3897 
Q 2184 4138 1850 4138 
Q 1581 4138 1378 3988 
Q 1113 3794 959 3422 
Q 806 3050 800 2363 
Q 1003 2672 1297 2822 
Q 1591 2972 1913 2972 
Q 2475 2972 2870 2558 
Q 3266 2144 3266 1488 
Q 3266 1056 3080 686 
Q 2894 316 2569 119 
Q 2244 -78 1831 -78 
Q 1128 -78 684 439 
Q 241 956 241 2144 
Q 241 3472 731 4075 
Q 1159 4600 1884 4600 
Q 2425 4600 2770 4297 
Q 3116 3994 3184 3459 
z
M 888 1484 
Q 888 1194 1011 928 
Q 1134 663 1356 523 
Q 1578 384 1822 384 
Q 2178 384 2434 671 
Q 2691 959 2691 1453 
Q 2691 1928 2437 2201 
Q 2184 2475 1800 2475 
Q 1419 2475 1153 2201 
Q 888 1928 888 1484 
z
" transform="scale(0.015625)"/>
       </defs>
       <use xlink:href="#ArialMT-36"/>
       <use xlink:href="#ArialMT-3a" transform="translate(55.615234 0)"/>
       <use xlink:href="#ArialMT-30" transform="translate(83.398438 0)"/>
       <use xlink:href="#ArialMT-30" transform="translate(139.013672 0)"/>
      </g>
     </g>
    </g>
    <g id="xtick_7">
     <g id="line2d_48">
      <g>
       <use xlink:href="#m09ad508a5a" x="274.434375" y="260.074558" style="stroke: #000000"/>
      </g>
     </g>
     <g id="text_7">
      <!-- 7:00 -->
      <g transform="translate(277.536563 291.927683) rotate(-90) scale(0.12 -0.12)">
       <defs>
        <path id="ArialMT-37" d="M 303 3981 
L 303 4522 
L 3269 4522 
L 3269 4084 
Q 2831 3619 2401 2847 
Q 1972 2075 1738 1259 
Q 1569 684 1522 0 
L 944 0 
Q 953 541 1156 1306 
Q 1359 2072 1739 2783 
Q 2119 3494 2547 3981 
L 303 3981 
z
" transform="scale(0.015625)"/>
       </defs>
       <use xlink:href="#ArialMT-37"/>
       <use xlink:href="#ArialMT-3a" transform="translate(55.615234 0)"/>
       <use xlink:href="#ArialMT-30" transform="translate(83.398438 0)"/>
       <use xlink:href="#ArialMT-30" transform="translate(139.013672 0)"/>
      </g>
     </g>
    </g>
    <g id="xtick_8">
     <g id="line2d_49">
      <g>
       <use xlink:href="#m09ad508a5a" x="302.334375" y="260.074558" style="stroke: #000000"/>
      </g>
     </g>
     <g id="text_8">
      <!-- 8:00 -->
      <g transform="translate(305.436562 291.927683) rotate(-90) scale(0.12 -0.12)">
       <defs>
        <path id="ArialMT-38" d="M 1131 2484 
Q 781 2613 612 2850 
Q 444 3088 444 3419 
Q 444 3919 803 4259 
Q 1163 4600 1759 4600 
Q 2359 4600 2725 4251 
Q 3091 3903 3091 3403 
Q 3091 3084 2923 2848 
Q 2756 2613 2416 2484 
Q 2838 2347 3058 2040 
Q 3278 1734 3278 1309 
Q 3278 722 2862 322 
Q 2447 -78 1769 -78 
Q 1091 -78 675 323 
Q 259 725 259 1325 
Q 259 1772 486 2073 
Q 713 2375 1131 2484 
z
M 1019 3438 
Q 1019 3113 1228 2906 
Q 1438 2700 1772 2700 
Q 2097 2700 2305 2904 
Q 2513 3109 2513 3406 
Q 2513 3716 2298 3927 
Q 2084 4138 1766 4138 
Q 1444 4138 1231 3931 
Q 1019 3725 1019 3438 
z
M 838 1322 
Q 838 1081 952 856 
Q 1066 631 1291 507 
Q 1516 384 1775 384 
Q 2178 384 2440 643 
Q 2703 903 2703 1303 
Q 2703 1709 2433 1975 
Q 2163 2241 1756 2241 
Q 1359 2241 1098 1978 
Q 838 1716 838 1322 
z
" transform="scale(0.015625)"/>
       </defs>
       <use xlink:href="#ArialMT-38"/>
       <use xlink:href="#ArialMT-3a" transform="translate(55.615234 0)"/>
       <use xlink:href="#ArialMT-30" transform="translate(83.398438 0)"/>
       <use xlink:href="#ArialMT-30" transform="translate(139.013672 0)"/>
      </g>
     </g>
    </g>
    <g id="xtick_9">
     <g id="line2d_50">
      <g>
       <use xlink:href="#m09ad508a5a" x="330.234375" y="260.074558" style="stroke: #000000"/>
      </g>
     </g>
     <g id="text_9">
      <!-- 9:00 -->
      <g transform="translate(333.336563 291.927683) rotate(-90) scale(0.12 -0.12)">
       <defs>
        <path id="ArialMT-39" d="M 350 1059 
L 891 1109 
Q 959 728 1153 556 
Q 1347 384 1650 384 
Q 1909 384 2104 503 
Q 2300 622 2425 820 
Q 2550 1019 2634 1356 
Q 2719 1694 2719 2044 
Q 2719 2081 2716 2156 
Q 2547 1888 2255 1720 
Q 1963 1553 1622 1553 
Q 1053 1553 659 1965 
Q 266 2378 266 3053 
Q 266 3750 677 4175 
Q 1088 4600 1706 4600 
Q 2153 4600 2523 4359 
Q 2894 4119 3086 3673 
Q 3278 3228 3278 2384 
Q 3278 1506 3087 986 
Q 2897 466 2520 194 
Q 2144 -78 1638 -78 
Q 1100 -78 759 220 
Q 419 519 350 1059 
z
M 2653 3081 
Q 2653 3566 2395 3850 
Q 2138 4134 1775 4134 
Q 1400 4134 1122 3828 
Q 844 3522 844 3034 
Q 844 2597 1108 2323 
Q 1372 2050 1759 2050 
Q 2150 2050 2401 2323 
Q 2653 2597 2653 3081 
z
" transform="scale(0.015625)"/>
       </defs>
       <use xlink:href="#ArialMT-39"/>
       <use xlink:href="#ArialMT-3a" transform="translate(55.615234 0)"/>
       <use xlink:href="#ArialMT-30" transform="translate(83.398438 0)"/>
       <use xlink:href="#ArialMT-30" transform="translate(139.013672 0)"/>
      </g>
     </g>
    </g>
    <g id="xtick_10">
     <g id="line2d_51">
      <g>
       <use xlink:href="#m09ad508a5a" x="358.134375" y="260.074558" style="stroke: #000000"/>
      </g>
     </g>
     <g id="text_10">
      <!-- 10:00 -->
      <g transform="translate(361.236562 298.600808) rotate(-90) scale(0.12 -0.12)">
       <use xlink:href="#ArialMT-31"/>
       <use xlink:href="#ArialMT-30" transform="translate(55.615234 0)"/>
       <use xlink:href="#ArialMT-3a" transform="translate(111.230469 0)"/>
       <use xlink:href="#ArialMT-30" transform="translate(139.013672 0)"/>
       <use xlink:href="#ArialMT-30" transform="translate(194.628906 0)"/>
      </g>
     </g>
    </g>
    <g id="xtick_11">
     <g id="line2d_52">
      <g>
       <use xlink:href="#m09ad508a5a" x="386.034375" y="260.074558" style="stroke: #000000"/>
      </g>
     </g>
     <g id="text_11">
      <!-- 11:00 -->
      <g transform="translate(389.136563 297.715808) rotate(-90) scale(0.12 -0.12)">
       <use xlink:href="#ArialMT-31"/>
       <use xlink:href="#ArialMT-31" transform="translate(48.240234 0)"/>
       <use xlink:href="#ArialMT-3a" transform="translate(103.855469 0)"/>
       <use xlink:href="#ArialMT-30" transform="translate(131.638672 0)"/>
       <use xlink:href="#ArialMT-30" transform="translate(187.253906 0)"/>
      </g>
     </g>
    </g>
    <g id="xtick_12">
     <g id="line2d_53">
      <g>
       <use xlink:href="#m09ad508a5a" x="413.934375" y="260.074558" style="stroke: #000000"/>
      </g>
     </g>
     <g id="text_12">
      <!-- 12:00 -->
      <g transform="translate(417.036563 298.600808) rotate(-90) scale(0.12 -0.12)">
       <use xlink:href="#ArialMT-31"/>
       <use xlink:href="#ArialMT-32" transform="translate(55.615234 0)"/>
       <use xlink:href="#ArialMT-3a" transform="translate(111.230469 0)"/>
       <use xlink:href="#ArialMT-30" transform="translate(139.013672 0)"/>
       <use xlink:href="#ArialMT-30" transform="translate(194.628906 0)"/>
      </g>
     </g>
    </g>
    <g id="xtick_13">
     <g id="line2d_54">
      <g>
       <use xlink:href="#m09ad508a5a" x="441.834375" y="260.074558" style="stroke: #000000"/>
      </g>
     </g>
     <g id="text_13">
      <!-- 13:00 -->
      <g transform="translate(444.936562 298.600808) rotate(-90) scale(0.12 -0.12)">
       <use xlink:href="#ArialMT-31"/>
       <use xlink:href="#ArialMT-33" transform="translate(55.615234 0)"/>
       <use xlink:href="#ArialMT-3a" transform="translate(111.230469 0)"/>
       <use xlink:href="#ArialMT-30" transform="translate(139.013672 0)"/>
       <use xlink:href="#ArialMT-30" transform="translate(194.628906 0)"/>
      </g>
     </g>
    </g>
    <g id="xtick_14">
     <g id="line2d_55">
      <g>
       <use xlink:href="#m09ad508a5a" x="469.734375" y="260.074558" style="stroke: #000000"/>
      </g>
     </g>
     <g id="text_14">
      <!-- 14:00 -->
      <g transform="translate(472.836563 298.600808) rotate(-90) scale(0.12 -0.12)">
       <use xlink:href="#ArialMT-31"/>
       <use xlink:href="#ArialMT-34" transform="translate(55.615234 0)"/>
       <use xlink:href="#ArialMT-3a" transform="translate(111.230469 0)"/>
       <use xlink:href="#ArialMT-30" transform="translate(139.013672 0)"/>
       <use xlink:href="#ArialMT-30" transform="translate(194.628906 0)"/>
      </g>
     </g>
    </g>
    <g id="xtick_15">
     <g id="line2d_56">
      <g>
       <use xlink:href="#m09ad508a5a" x="497.634375" y="260.074558" style="stroke: #000000"/>
      </g>
     </g>
     <g id="text_15">
      <!-- 15:00 -->
      <g transform="translate(500.736562 298.600808) rotate(-90) scale(0.12 -0.12)">
       <use xlink:href="#ArialMT-31"/>
       <use xlink:href="#ArialMT-35" transform="translate(55.615234 0)"/>
       <use xlink:href="#ArialMT-3a" transform="translate(111.230469 0)"/>
       <use xlink:href="#ArialMT-30" transform="translate(139.013672 0)"/>
       <use xlink:href="#ArialMT-30" transform="translate(194.628906 0)"/>
      </g>
     </g>
    </g>
    <g id="xtick_16">
     <g id="line2d_57">
      <g>
       <use xlink:href="#m09ad508a5a" x="525.534375" y="260.074558" style="stroke: #000000"/>
      </g>
     </g>
     <g id="text_16">
      <!-- 16:00 -->
      <g transform="translate(528.636562 298.600808) rotate(-90) scale(0.12 -0.12)">
       <use xlink:href="#ArialMT-31"/>
       <use xlink:href="#ArialMT-36" transform="translate(55.615234 0)"/>
       <use xlink:href="#ArialMT-3a" transform="translate(111.230469 0)"/>
       <use xlink:href="#ArialMT-30" transform="translate(139.013672 0)"/>
       <use xlink:href="#ArialMT-30" transform="translate(194.628906 0)"/>
      </g>
     </g>
    </g>
    <g id="xtick_17">
     <g id="line2d_58">
      <g>
       <use xlink:href="#m09ad508a5a" x="553.434375" y="260.074558" style="stroke: #000000"/>
      </g>
     </g>
     <g id="text_17">
      <!-- 17:00 -->
      <g transform="translate(556.536562 298.600808) rotate(-90) scale(0.12 -0.12)">
       <use xlink:href="#ArialMT-31"/>
       <use xlink:href="#ArialMT-37" transform="translate(55.615234 0)"/>
       <use xlink:href="#ArialMT-3a" transform="translate(111.230469 0)"/>
       <use xlink:href="#ArialMT-30" transform="translate(139.013672 0)"/>
       <use xlink:href="#ArialMT-30" transform="translate(194.628906 0)"/>
      </g>
     </g>
    </g>
    <g id="xtick_18">
     <g id="line2d_59">
      <g>
       <use xlink:href="#m09ad508a5a" x="581.334375" y="260.074558" style="stroke: #000000"/>
      </g>
     </g>
     <g id="text_18">
      <!-- 18:00 -->
      <g transform="translate(584.436562 298.600808) rotate(-90) scale(0.12 -0.12)">
       <use xlink:href="#ArialMT-31"/>
       <use xlink:href="#ArialMT-38" transform="translate(55.615234 0)"/>
       <use xlink:href="#ArialMT-3a" transform="translate(111.230469 0)"/>
       <use xlink:href="#ArialMT-30" transform="translate(139.013672 0)"/>
       <use xlink:href="#ArialMT-30" transform="translate(194.628906 0)"/>
      </g>
     </g>
    </g>
    <g id="xtick_19">
     <g id="line2d_60">
      <g>
       <use xlink:href="#m09ad508a5a" x="609.234375" y="260.074558" style="stroke: #000000"/>
      </g>
     </g>
     <g id="text_19">
      <!-- 19:00 -->
      <g transform="translate(612.336563 298.600808) rotate(-90) scale(0.12 -0.12)">
       <use xlink:href="#ArialMT-31"/>
       <use xlink:href="#ArialMT-39" transform="translate(55.615234 0)"/>
       <use xlink:href="#ArialMT-3a" transform="translate(111.230469 0)"/>
       <use xlink:href="#ArialMT-30" transform="translate(139.013672 0)"/>
       <use xlink:href="#ArialMT-30" transform="translate(194.628906 0)"/>
      </g>
     </g>
    </g>
    <g id="xtick_20">
     <g id="line2d_61">
      <g>
       <use xlink:href="#m09ad508a5a" x="637.134375" y="260.074558" style="stroke: #000000"/>
      </g>
     </g>
     <g id="text_20">
      <!-- 20:00 -->
      <g transform="translate(640.236562 298.600808) rotate(-90) scale(0.12 -0.12)">
       <use xlink:href="#ArialMT-32"/>
       <use xlink:href="#ArialMT-30" transform="translate(55.615234 0)"/>
       <use xlink:href="#ArialMT-3a" transform="translate(111.230469 0)"/>
       <use xlink:href="#ArialMT-30" transform="translate(139.013672 0)"/>
       <use xlink:href="#ArialMT-30" transform="translate(194.628906 0)"/>
      </g>
     </g>
    </g>
    <g id="xtick_21">
     <g id="line2d_62">
      <g>
       <use xlink:href="#m09ad508a5a" x="665.034375" y="260.074558" style="stroke: #000000"/>
      </g>
     </g>
     <g id="text_21">
      <!-- 21:00 -->
      <g transform="translate(668.136562 298.600808) rotate(-90) scale(0.12 -0.12)">
       <use xlink:href="#ArialMT-32"/>
       <use xlink:href="#ArialMT-31" transform="translate(55.615234 0)"/>
       <use xlink:href="#ArialMT-3a" transform="translate(111.230469 0)"/>
       <use xlink:href="#ArialMT-30" transform="translate(139.013672 0)"/>
       <use xlink:href="#ArialMT-30" transform="translate(194.628906 0)"/>
      </g>
     </g>
    </g>
    <g id="xtick_22">
     <g id="line2d_63">
      <g>
       <use xlink:href="#m09ad508a5a" x="692.934375" y="260.074558" style="stroke: #000000"/>
      </g>
     </g>
     <g id="text_22">
      <!-- 22:00 -->
      <g transform="translate(696.036562 298.600808) rotate(-90) scale(0.12 -0.12)">
       <use xlink:href="#ArialMT-32"/>
       <use xlink:href="#ArialMT-32" transform="translate(55.615234 0)"/>
       <use xlink:href="#ArialMT-3a" transform="translate(111.230469 0)"/>
       <use xlink:href="#ArialMT-30" transform="translate(139.013672 0)"/>
       <use xlink:href="#ArialMT-30" transform="translate(194.628906 0)"/>
      </g>
     </g>
    </g>
    <g id="xtick_23">
     <g id="line2d_64">
      <g>
       <use xlink:href="#m09ad508a5a" x="720.834375" y="260.074558" style="stroke: #000000"/>
      </g>
     </g>
     <g id="text_23">
      <!-- 23:00 -->
      <g transform="translate(723.936562 298.600808) rotate(-90) scale(0.12 -0.12)">
       <use xlink:href="#ArialMT-32"/>
       <use xlink:href="#ArialMT-33" transform="translate(55.615234 0)"/>
       <use xlink:href="#ArialMT-3a" transform="translate(111.230469 0)"/>
       <use xlink:href="#ArialMT-30" transform="translate(139.013672 0)"/>
       <use xlink:href="#ArialMT-30" transform="translate(194.628906 0)"/>
      </g>
     </g>
    </g>
    <g id="xtick_24">
     <g id="line2d_65">
      <g>
       <use xlink:href="#m09ad508a5a" x="748.734375" y="260.074558" style="stroke: #000000"/>
      </g>
     </g>
     <g id="text_24">
      <!-- 24:00 -->
      <g transform="translate(751.836562 298.600808) rotate(-90) scale(0.12 -0.12)">
       <use xlink:href="#ArialMT-32"/>
       <use xlink:href="#ArialMT-34" transform="translate(55.615234 0)"/>
       <use xlink:href="#ArialMT-3a" transform="translate(111.230469 0)"/>
       <use xlink:href="#ArialMT-30" transform="translate(139.013672 0)"/>
       <use xlink:href="#ArialMT-30" transform="translate(194.628906 0)"/>
      </g>
     </g>
    </g>
   </g>
   <g id="matplotlib.axis_2">
    <g id="ytick_1">
     <g id="line2d_66">
      <defs>
       <path id="mbfcadaf7d1" d="M 0 0 
L -5 0 
" style="stroke: #000000; stroke-opacity: 0; stroke-width: 1.5"/>
      </defs>
      <g>
       <use xlink:href="#mbfcadaf7d1" x="93.084375" y="246.427788" style="fill-opacity: 0; stroke: #000000; stroke-opacity: 0; stroke-width: 1.5"/>
      </g>
     </g>
     <g id="text_25">
      <!-- 0 -->
      <g transform="translate(75.686875 252.154038) scale(0.16 -0.16)">
       <use xlink:href="#ArialMT-30"/>
      </g>
     </g>
    </g>
    <g id="ytick_2">
     <g id="line2d_67">
      <g>
       <use xlink:href="#mbfcadaf7d1" x="93.084375" y="212.310865" style="fill-opacity: 0; stroke: #000000; stroke-opacity: 0; stroke-width: 1.5"/>
      </g>
     </g>
     <g id="text_26">
      <!-- 50 -->
      <g transform="translate(66.789375 218.037115) scale(0.16 -0.16)">
       <use xlink:href="#ArialMT-35"/>
       <use xlink:href="#ArialMT-30" transform="translate(55.615234 0)"/>
      </g>
     </g>
    </g>
    <g id="ytick_3">
     <g id="line2d_68">
      <g>
       <use xlink:href="#mbfcadaf7d1" x="93.084375" y="178.193942" style="fill-opacity: 0; stroke: #000000; stroke-opacity: 0; stroke-width: 1.5"/>
      </g>
     </g>
     <g id="text_27">
      <!-- 100 -->
      <g transform="translate(57.891875 183.920192) scale(0.16 -0.16)">
       <use xlink:href="#ArialMT-31"/>
       <use xlink:href="#ArialMT-30" transform="translate(55.615234 0)"/>
       <use xlink:href="#ArialMT-30" transform="translate(111.230469 0)"/>
      </g>
     </g>
    </g>
    <g id="ytick_4">
     <g id="line2d_69">
      <g>
       <use xlink:href="#mbfcadaf7d1" x="93.084375" y="144.077019" style="fill-opacity: 0; stroke: #000000; stroke-opacity: 0; stroke-width: 1.5"/>
      </g>
     </g>
     <g id="text_28">
      <!-- 150 -->
      <g transform="translate(57.891875 149.803269) scale(0.16 -0.16)">
       <use xlink:href="#ArialMT-31"/>
       <use xlink:href="#ArialMT-35" transform="translate(55.615234 0)"/>
       <use xlink:href="#ArialMT-30" transform="translate(111.230469 0)"/>
      </g>
     </g>
    </g>
    <g id="ytick_5">
     <g id="line2d_70">
      <g>
       <use xlink:href="#mbfcadaf7d1" x="93.084375" y="109.960096" style="fill-opacity: 0; stroke: #000000; stroke-opacity: 0; stroke-width: 1.5"/>
      </g>
     </g>
     <g id="text_29">
      <!-- 200 -->
      <g transform="translate(57.891875 115.686346) scale(0.16 -0.16)">
       <use xlink:href="#ArialMT-32"/>
       <use xlink:href="#ArialMT-30" transform="translate(55.615234 0)"/>
       <use xlink:href="#ArialMT-30" transform="translate(111.230469 0)"/>
      </g>
     </g>
    </g>
    <g id="ytick_6">
     <g id="line2d_71">
      <g>
       <use xlink:href="#mbfcadaf7d1" x="93.084375" y="75.843173" style="fill-opacity: 0; stroke: #000000; stroke-opacity: 0; stroke-width: 1.5"/>
      </g>
     </g>
     <g id="text_30">
      <!-- 250 -->
      <g transform="translate(57.891875 81.569423) scale(0.16 -0.16)">
       <use xlink:href="#ArialMT-32"/>
       <use xlink:href="#ArialMT-35" transform="translate(55.615234 0)"/>
       <use xlink:href="#ArialMT-30" transform="translate(111.230469 0)"/>
      </g>
     </g>
    </g>
    <g id="ytick_7">
     <g id="line2d_72">
      <g>
       <use xlink:href="#mbfcadaf7d1" x="93.084375" y="41.72625" style="fill-opacity: 0; stroke: #000000; stroke-opacity: 0; stroke-width: 1.5"/>
      </g>
     </g>
     <g id="text_31">
      <!-- 300 -->
      <g transform="translate(57.891875 47.4525) scale(0.16 -0.16)">
       <use xlink:href="#ArialMT-33"/>
       <use xlink:href="#ArialMT-30" transform="translate(55.615234 0)"/>
       <use xlink:href="#ArialMT-30" transform="translate(111.230469 0)"/>
      </g>
     </g>
    </g>
    <g id="text_32">
     <!-- Gasoline (Gallon) -->
     <g transform="translate(49.103437 219.221589) rotate(-90) scale(0.18 -0.18)">
      <defs>
       <path id="ArialMT-47" d="M 2638 1797 
L 2638 2334 
L 4578 2338 
L 4578 638 
Q 4131 281 3656 101 
Q 3181 -78 2681 -78 
Q 2006 -78 1454 211 
Q 903 500 622 1047 
Q 341 1594 341 2269 
Q 341 2938 620 3517 
Q 900 4097 1425 4378 
Q 1950 4659 2634 4659 
Q 3131 4659 3532 4498 
Q 3934 4338 4162 4050 
Q 4391 3763 4509 3300 
L 3963 3150 
Q 3859 3500 3706 3700 
Q 3553 3900 3268 4020 
Q 2984 4141 2638 4141 
Q 2222 4141 1919 4014 
Q 1616 3888 1430 3681 
Q 1244 3475 1141 3228 
Q 966 2803 966 2306 
Q 966 1694 1177 1281 
Q 1388 869 1791 669 
Q 2194 469 2647 469 
Q 3041 469 3416 620 
Q 3791 772 3984 944 
L 3984 1797 
L 2638 1797 
z
" transform="scale(0.015625)"/>
       <path id="ArialMT-61" d="M 2588 409 
Q 2275 144 1986 34 
Q 1697 -75 1366 -75 
Q 819 -75 525 192 
Q 231 459 231 875 
Q 231 1119 342 1320 
Q 453 1522 633 1644 
Q 813 1766 1038 1828 
Q 1203 1872 1538 1913 
Q 2219 1994 2541 2106 
Q 2544 2222 2544 2253 
Q 2544 2597 2384 2738 
Q 2169 2928 1744 2928 
Q 1347 2928 1158 2789 
Q 969 2650 878 2297 
L 328 2372 
Q 403 2725 575 2942 
Q 747 3159 1072 3276 
Q 1397 3394 1825 3394 
Q 2250 3394 2515 3294 
Q 2781 3194 2906 3042 
Q 3031 2891 3081 2659 
Q 3109 2516 3109 2141 
L 3109 1391 
Q 3109 606 3145 398 
Q 3181 191 3288 0 
L 2700 0 
Q 2613 175 2588 409 
z
M 2541 1666 
Q 2234 1541 1622 1453 
Q 1275 1403 1131 1340 
Q 988 1278 909 1158 
Q 831 1038 831 891 
Q 831 666 1001 516 
Q 1172 366 1500 366 
Q 1825 366 2078 508 
Q 2331 650 2450 897 
Q 2541 1088 2541 1459 
L 2541 1666 
z
" transform="scale(0.015625)"/>
       <path id="ArialMT-73" d="M 197 991 
L 753 1078 
Q 800 744 1014 566 
Q 1228 388 1613 388 
Q 2000 388 2187 545 
Q 2375 703 2375 916 
Q 2375 1106 2209 1216 
Q 2094 1291 1634 1406 
Q 1016 1563 777 1677 
Q 538 1791 414 1992 
Q 291 2194 291 2438 
Q 291 2659 392 2848 
Q 494 3038 669 3163 
Q 800 3259 1026 3326 
Q 1253 3394 1513 3394 
Q 1903 3394 2198 3281 
Q 2494 3169 2634 2976 
Q 2775 2784 2828 2463 
L 2278 2388 
Q 2241 2644 2061 2787 
Q 1881 2931 1553 2931 
Q 1166 2931 1000 2803 
Q 834 2675 834 2503 
Q 834 2394 903 2306 
Q 972 2216 1119 2156 
Q 1203 2125 1616 2013 
Q 2213 1853 2448 1751 
Q 2684 1650 2818 1456 
Q 2953 1263 2953 975 
Q 2953 694 2789 445 
Q 2625 197 2315 61 
Q 2006 -75 1616 -75 
Q 969 -75 630 194 
Q 291 463 197 991 
z
" transform="scale(0.015625)"/>
       <path id="ArialMT-6f" d="M 213 1659 
Q 213 2581 725 3025 
Q 1153 3394 1769 3394 
Q 2453 3394 2887 2945 
Q 3322 2497 3322 1706 
Q 3322 1066 3130 698 
Q 2938 331 2570 128 
Q 2203 -75 1769 -75 
Q 1072 -75 642 372 
Q 213 819 213 1659 
z
M 791 1659 
Q 791 1022 1069 705 
Q 1347 388 1769 388 
Q 2188 388 2466 706 
Q 2744 1025 2744 1678 
Q 2744 2294 2464 2611 
Q 2184 2928 1769 2928 
Q 1347 2928 1069 2612 
Q 791 2297 791 1659 
z
" transform="scale(0.015625)"/>
       <path id="ArialMT-6c" d="M 409 0 
L 409 4581 
L 972 4581 
L 972 0 
L 409 0 
z
" transform="scale(0.015625)"/>
       <path id="ArialMT-69" d="M 425 3934 
L 425 4581 
L 988 4581 
L 988 3934 
L 425 3934 
z
M 425 0 
L 425 3319 
L 988 3319 
L 988 0 
L 425 0 
z
" transform="scale(0.015625)"/>
       <path id="ArialMT-6e" d="M 422 0 
L 422 3319 
L 928 3319 
L 928 2847 
Q 1294 3394 1984 3394 
Q 2284 3394 2536 3286 
Q 2788 3178 2913 3003 
Q 3038 2828 3088 2588 
Q 3119 2431 3119 2041 
L 3119 0 
L 2556 0 
L 2556 2019 
Q 2556 2363 2490 2533 
Q 2425 2703 2258 2804 
Q 2091 2906 1866 2906 
Q 1506 2906 1245 2678 
Q 984 2450 984 1813 
L 984 0 
L 422 0 
z
" transform="scale(0.015625)"/>
       <path id="ArialMT-65" d="M 2694 1069 
L 3275 997 
Q 3138 488 2766 206 
Q 2394 -75 1816 -75 
Q 1088 -75 661 373 
Q 234 822 234 1631 
Q 234 2469 665 2931 
Q 1097 3394 1784 3394 
Q 2450 3394 2872 2941 
Q 3294 2488 3294 1666 
Q 3294 1616 3291 1516 
L 816 1516 
Q 847 969 1125 678 
Q 1403 388 1819 388 
Q 2128 388 2347 550 
Q 2566 713 2694 1069 
z
M 847 1978 
L 2700 1978 
Q 2663 2397 2488 2606 
Q 2219 2931 1791 2931 
Q 1403 2931 1139 2672 
Q 875 2413 847 1978 
z
" transform="scale(0.015625)"/>
       <path id="ArialMT-20" transform="scale(0.015625)"/>
       <path id="ArialMT-28" d="M 1497 -1347 
Q 1031 -759 709 28 
Q 388 816 388 1659 
Q 388 2403 628 3084 
Q 909 3875 1497 4659 
L 1900 4659 
Q 1522 4009 1400 3731 
Q 1209 3300 1100 2831 
Q 966 2247 966 1656 
Q 966 153 1900 -1347 
L 1497 -1347 
z
" transform="scale(0.015625)"/>
       <path id="ArialMT-29" d="M 791 -1347 
L 388 -1347 
Q 1322 153 1322 1656 
Q 1322 2244 1188 2822 
Q 1081 3291 891 3722 
Q 769 4003 388 4659 
L 791 4659 
Q 1378 3875 1659 3084 
Q 1900 2403 1900 1659 
Q 1900 816 1576 28 
Q 1253 -759 791 -1347 
z
" transform="scale(0.015625)"/>
      </defs>
      <use xlink:href="#ArialMT-47"/>
      <use xlink:href="#ArialMT-61" transform="translate(77.783203 0)"/>
      <use xlink:href="#ArialMT-73" transform="translate(133.398438 0)"/>
      <use xlink:href="#ArialMT-6f" transform="translate(183.398438 0)"/>
      <use xlink:href="#ArialMT-6c" transform="translate(239.013672 0)"/>
      <use xlink:href="#ArialMT-69" transform="translate(261.230469 0)"/>
      <use xlink:href="#ArialMT-6e" transform="translate(283.447266 0)"/>
      <use xlink:href="#ArialMT-65" transform="translate(339.0625 0)"/>
      <use xlink:href="#ArialMT-20" transform="translate(394.677734 0)"/>
      <use xlink:href="#ArialMT-28" transform="translate(422.460938 0)"/>
      <use xlink:href="#ArialMT-47" transform="translate(455.761719 0)"/>
      <use xlink:href="#ArialMT-61" transform="translate(533.544922 0)"/>
      <use xlink:href="#ArialMT-6c" transform="translate(589.160156 0)"/>
      <use xlink:href="#ArialMT-6c" transform="translate(611.376953 0)"/>
      <use xlink:href="#ArialMT-6f" transform="translate(633.59375 0)"/>
      <use xlink:href="#ArialMT-6e" transform="translate(689.208984 0)"/>
      <use xlink:href="#ArialMT-29" transform="translate(744.824219 0)"/>
     </g>
    </g>
   </g>
   <g id="line2d_73">
    <path d="M 107.034375 239.755516 
L 134.934375 242.544484 
L 162.834375 243.162405 
L 190.734375 242.928649 
L 218.634375 239.475066 
L 246.534375 222.485324 
L 274.434375 205.001176 
L 302.334375 181.118729 
L 330.234375 172.183608 
L 358.134375 168.684408 
L 386.034375 166.399632 
L 413.934375 163.617652 
L 441.834375 162.472188 
L 469.734375 162.052833 
L 497.634375 160.877791 
L 525.534375 159.472364 
L 553.434375 159.258603 
L 581.334375 161.084765 
L 609.234375 169.147861 
L 637.134375 182.753674 
L 665.034375 197.307014 
L 692.934375 213.76418 
L 720.834375 230.231388 
L 748.734375 236.145219 
" clip-path="url(#p5b50e4b087)" style="fill: none; stroke: #1f77b4; stroke-opacity: 0.8; stroke-width: 1.5; stroke-linecap: round"/>
   </g>
   <g id="line2d_74">
    <path d="M 107.034375 239.994932 
L 134.934375 242.328098 
L 162.834375 242.813573 
L 190.734375 242.653522 
L 218.634375 239.902827 
L 246.534375 225.92844 
L 274.434375 209.600296 
L 302.334375 190.399254 
L 330.234375 183.789369 
L 358.134375 181.32013 
L 386.034375 180.471453 
L 413.934375 177.172539 
L 441.834375 176.124357 
L 469.734375 175.901612 
L 497.634375 175.207479 
L 525.534375 174.054582 
L 553.434375 173.830003 
L 581.334375 174.955191 
L 609.234375 180.480604 
L 637.134375 193.747731 
L 665.034375 206.270667 
L 692.934375 219.433683 
L 720.834375 231.999046 
L 748.734375 236.969551 
" clip-path="url(#p5b50e4b087)" style="fill: none; stroke: #dbdb8d; stroke-opacity: 0.8; stroke-width: 1.5; stroke-linecap: round"/>
   </g>
   <g id="line2d_75">
    <path d="M 107.034375 189.16059 
L 134.934375 204.222244 
L 162.834375 207.128739 
L 190.734375 206.526747 
L 218.634375 195.76456 
L 246.534375 148.222684 
L 274.434375 103.390351 
L 302.334375 90.448322 
L 330.234375 84.971962 
L 358.134375 81.248307 
L 386.034375 77.933452 
L 413.934375 74.009892 
L 441.834375 73.237555 
L 469.734375 72.361151 
L 497.634375 71.5311 
L 525.534375 69.781176 
L 553.434375 70.062426 
L 581.334375 71.98888 
L 609.234375 80.637439 
L 637.134375 92.112225 
L 665.034375 92.491376 
L 692.934375 111.327276 
L 720.834375 141.896746 
L 748.734375 163.048991 
" clip-path="url(#p5b50e4b087)" style="fill: none; stroke: #ffbb78; stroke-opacity: 0.8; stroke-width: 1.5; stroke-linecap: round"/>
   </g>
   <g id="line2d_76">
    <path d="M 107.034375 185.305255 
L 134.934375 201.565199 
L 162.834375 204.575089 
L 190.734375 202.813908 
L 218.634375 191.59289 
L 246.534375 134.436714 
L 274.434375 98.89077 
L 302.334375 88.938672 
L 330.234375 84.107553 
L 358.134375 80.860014 
L 386.034375 76.379442 
L 413.934375 72.35501 
L 441.834375 71.407384 
L 469.734375 71.59854 
L 497.634375 70.947348 
L 525.534375 70.033318 
L 553.434375 69.807561 
L 581.334375 71.422668 
L 609.234375 80.327646 
L 637.134375 92.605571 
L 665.034375 103.951651 
L 692.934375 97.87615 
L 720.834375 132.679182 
L 748.734375 156.019085 
" clip-path="url(#p5b50e4b087)" style="fill: none; stroke: #2ca02c; stroke-opacity: 0.8; stroke-width: 1.5; stroke-linecap: round"/>
   </g>
   <g id="line2d_77">
    <path d="M 107.034375 244.105879 
L 134.934375 245.293976 
L 162.834375 245.566994 
L 190.734375 245.477911 
L 218.634375 244.058875 
L 246.534375 222.332134 
L 274.434375 202.64014 
L 302.334375 179.54379 
L 330.234375 170.317117 
L 358.134375 166.062251 
L 386.034375 162.860217 
L 413.934375 159.064221 
L 441.834375 158.362281 
L 469.734375 158.499221 
L 497.634375 158.15796 
L 525.534375 156.722905 
L 553.434375 157.391822 
L 581.334375 158.872828 
L 609.234375 166.28996 
L 637.134375 182.91292 
L 665.034375 199.913874 
L 692.934375 216.662767 
L 720.834375 237.489287 
L 748.734375 241.882343 
" clip-path="url(#p5b50e4b087)" style="fill: none; stroke: #ff7f0e; stroke-opacity: 0.8; stroke-width: 1.5; stroke-linecap: round"/>
   </g>
   <g id="line2d_78">
    <path d="M 107.034375 201.906531 
L 134.934375 215.131523 
L 162.834375 217.630453 
L 190.734375 216.355851 
L 218.634375 204.898315 
L 246.534375 150.838332 
L 274.434375 102.803847 
L 302.334375 90.784642 
L 330.234375 85.329919 
L 358.134375 82.188308 
L 386.034375 78.923902 
L 413.934375 74.666309 
L 441.834375 72.673084 
L 469.734375 72.440042 
L 497.634375 70.652034 
L 525.534375 69.27496 
L 553.434375 69.235301 
L 581.334375 71.175955 
L 609.234375 81.386993 
L 637.134375 93.268275 
L 665.034375 92.615063 
L 692.934375 117.372906 
L 720.834375 153.545479 
L 748.734375 177.049682 
" clip-path="url(#p5b50e4b087)" style="fill: none; stroke: #98df8a; stroke-opacity: 0.8; stroke-width: 1.5; stroke-linecap: round"/>
   </g>
   <g id="line2d_79">
    <path d="M 107.034375 243.741426 
L 134.934375 245.356386 
L 162.834375 245.667526 
L 190.734375 245.622955 
L 218.634375 243.567733 
L 246.534375 226.223665 
L 274.434375 208.426526 
L 302.334375 184.969989 
L 330.234375 173.908396 
L 358.134375 170.0486 
L 386.034375 166.751554 
L 413.934375 163.019598 
L 441.834375 161.805916 
L 469.734375 161.887961 
L 497.634375 160.570766 
L 525.534375 158.733268 
L 553.434375 158.982354 
L 581.334375 161.801106 
L 609.234375 168.469265 
L 637.134375 189.216286 
L 665.034375 204.989466 
L 692.934375 220.492289 
L 720.834375 237.182186 
L 748.734375 241.38833 
" clip-path="url(#p5b50e4b087)" style="fill: none; stroke: #17becf; stroke-opacity: 0.8; stroke-width: 1.5; stroke-linecap: round"/>
   </g>
   <g id="line2d_80">
    <path d="M 107.034375 204.590383 
L 134.934375 218.102818 
L 162.834375 220.390078 
L 190.734375 217.020753 
L 218.634375 201.447649 
L 246.534375 132.299208 
L 274.434375 83.940212 
L 302.334375 74.39973 
L 330.234375 70.266977 
L 358.134375 67.698511 
L 386.034375 64.790538 
L 413.934375 58.436008 
L 441.834375 56.296181 
L 469.734375 55.021901 
L 497.634375 52.970602 
L 525.534375 52.462333 
L 553.434375 53.716696 
L 581.334375 56.245875 
L 609.234375 66.330362 
L 637.134375 81.082562 
L 665.034375 82.851652 
L 692.934375 104.447757 
L 720.834375 149.081455 
L 748.734375 175.641481 
" clip-path="url(#p5b50e4b087)" style="fill: none; stroke: #d62728; stroke-opacity: 0.8; stroke-width: 1.5; stroke-linecap: round"/>
   </g>
   <g id="line2d_81">
    <path d="M 107.034375 227.212685 
L 134.934375 234.369423 
L 162.834375 235.593565 
L 190.734375 234.35816 
L 218.634375 227.195225 
L 246.534375 189.067346 
L 274.434375 153.031698 
L 302.334375 138.211564 
L 330.234375 133.899873 
L 358.134375 131.740542 
L 386.034375 129.2491 
L 413.934375 126.002401 
L 441.834375 124.742305 
L 469.734375 124.236984 
L 497.634375 122.818665 
L 525.534375 121.444142 
L 553.434375 120.608083 
L 581.334375 123.095893 
L 609.234375 132.078422 
L 637.134375 144.206431 
L 665.034375 147.094021 
L 692.934375 170.048194 
L 720.834375 200.62092 
L 748.734375 214.779392 
" clip-path="url(#p5b50e4b087)" style="fill: none; stroke: #9edae5; stroke-opacity: 0.8; stroke-width: 1.5; stroke-linecap: round"/>
   </g>
   <g id="line2d_82">
    <path d="M 107.034375 214.369126 
L 134.934375 224.548485 
L 162.834375 226.00921 
L 190.734375 222.311717 
L 218.634375 205.890899 
L 246.534375 153.705349 
L 274.434375 107.619453 
L 302.334375 82.451773 
L 330.234375 102.826987 
L 358.134375 104.096145 
L 386.034375 101.077889 
L 413.934375 96.624171 
L 441.834375 94.466994 
L 469.734375 92.850375 
L 497.634375 91.384124 
L 525.534375 90.161582 
L 553.434375 91.259138 
L 581.334375 94.135378 
L 609.234375 103.834976 
L 637.134375 84.640224 
L 665.034375 108.123308 
L 692.934375 138.477214 
L 720.834375 171.34605 
L 748.734375 193.273415 
" clip-path="url(#p5b50e4b087)" style="fill: none; stroke: #9edae5; stroke-opacity: 0.8; stroke-width: 1.5; stroke-linecap: round"/>
   </g>
   <g id="line2d_83">
    <path d="M 107.034375 244.718965 
L 134.934375 245.861133 
L 162.834375 245.94059 
L 190.734375 246.078445 
L 218.634375 244.263817 
L 246.534375 227.817794 
L 274.434375 211.244654 
L 302.334375 190.065953 
L 330.234375 183.453142 
L 358.134375 177.54404 
L 386.034375 170.541883 
L 413.934375 169.817053 
L 441.834375 168.683212 
L 469.734375 168.090146 
L 497.634375 166.25479 
L 525.534375 163.677508 
L 553.434375 164.160832 
L 581.334375 167.477864 
L 609.234375 171.292564 
L 637.134375 192.040022 
L 665.034375 207.43264 
L 692.934375 221.772397 
L 720.834375 238.87813 
L 748.734375 242.778656 
" clip-path="url(#p5b50e4b087)" style="fill: none; stroke: #f7b6d2; stroke-opacity: 0.8; stroke-width: 1.5; stroke-linecap: round"/>
   </g>
   <g id="line2d_84">
    <path d="M 107.034375 237.57138 
L 134.934375 240.919235 
L 162.834375 241.490773 
L 190.734375 241.325899 
L 218.634375 237.526939 
L 246.534375 210.396719 
L 274.434375 179.226052 
L 302.334375 145.744589 
L 330.234375 138.782368 
L 358.134375 133.125239 
L 386.034375 131.855197 
L 413.934375 128.299999 
L 441.834375 127.61207 
L 469.734375 126.124083 
L 497.634375 124.317343 
L 525.534375 122.004064 
L 553.434375 122.716697 
L 581.334375 125.599216 
L 609.234375 135.796206 
L 637.134375 152.81016 
L 665.034375 174.250755 
L 692.934375 198.470215 
L 720.834375 223.122381 
L 748.734375 232.48094 
" clip-path="url(#p5b50e4b087)" style="fill: none; stroke: #7f7f7f; stroke-opacity: 0.8; stroke-width: 1.5; stroke-linecap: round"/>
   </g>
   <g id="line2d_85">
    <path d="M 107.034375 242.265718 
L 134.934375 244.435775 
L 162.834375 244.854467 
L 190.734375 244.883528 
L 218.634375 241.633424 
L 246.534375 220.432635 
L 274.434375 198.758732 
L 302.334375 167.648789 
L 330.234375 159.924042 
L 358.134375 154.105198 
L 386.034375 150.021827 
L 413.934375 146.357203 
L 441.834375 145.213045 
L 469.734375 144.293826 
L 497.634375 143.325258 
L 525.534375 141.199983 
L 553.434375 141.248692 
L 581.334375 144.408654 
L 609.234375 153.61644 
L 637.134375 171.801046 
L 665.034375 191.594773 
L 692.934375 213.024963 
L 720.834375 233.216663 
L 748.734375 239.121199 
" clip-path="url(#p5b50e4b087)" style="fill: none; stroke: #1f77b4; stroke-opacity: 0.8; stroke-width: 1.5; stroke-linecap: round"/>
   </g>
   <g id="line2d_86">
    <path d="M 107.034375 242.408749 
L 134.934375 244.918828 
L 162.834375 245.426854 
L 190.734375 245.235099 
L 218.634375 241.454616 
L 246.534375 217.074515 
L 274.434375 191.507491 
L 302.334375 160.962823 
L 330.234375 153.30826 
L 358.134375 146.856593 
L 386.034375 143.795851 
L 413.934375 140.360808 
L 441.834375 139.821306 
L 469.734375 139.331746 
L 497.634375 135.752859 
L 525.534375 132.125489 
L 553.434375 132.056876 
L 581.334375 135.387761 
L 609.234375 145.187544 
L 637.134375 165.931863 
L 665.034375 188.404185 
L 692.934375 211.107335 
L 720.834375 232.574419 
L 748.734375 238.893491 
" clip-path="url(#p5b50e4b087)" style="fill: none; stroke: #bcbd22; stroke-opacity: 0.8; stroke-width: 1.5; stroke-linecap: round"/>
   </g>
   <g id="line2d_87">
    <path d="M 107.034375 244.341402 
L 134.934375 245.535865 
L 162.834375 245.76605 
L 190.734375 245.720566 
L 218.634375 243.919962 
L 246.534375 227.687313 
L 274.434375 213.576387 
L 302.334375 191.399459 
L 330.234375 187.639914 
L 358.134375 181.204565 
L 386.034375 174.784702 
L 413.934375 171.626981 
L 441.834375 171.583147 
L 469.734375 169.987907 
L 497.634375 167.187217 
L 525.534375 164.190716 
L 553.434375 164.573526 
L 581.334375 167.007227 
L 609.234375 176.513687 
L 637.134375 193.061161 
L 665.034375 208.909606 
L 692.934375 224.622074 
L 720.834375 238.318298 
L 748.734375 242.521956 
" clip-path="url(#p5b50e4b087)" style="fill: none; stroke: #8c564b; stroke-opacity: 0.8; stroke-width: 1.5; stroke-linecap: round"/>
   </g>
   <g id="line2d_88">
    <path d="M 107.034375 243.418956 
L 134.934375 244.924702 
L 162.834375 245.230448 
L 190.734375 245.023216 
L 218.634375 242.220688 
L 246.534375 222.563545 
L 274.434375 198.806555 
L 302.334375 173.269263 
L 330.234375 166.648161 
L 358.134375 161.926582 
L 386.034375 156.662662 
L 413.934375 153.101809 
L 441.834375 151.701341 
L 469.734375 150.577633 
L 497.634375 147.856938 
L 525.534375 144.898188 
L 553.434375 145.390138 
L 581.334375 148.994022 
L 609.234375 158.774395 
L 637.134375 183.229137 
L 665.034375 201.474891 
L 692.934375 219.60727 
L 720.834375 236.62898 
L 748.734375 240.967876 
" clip-path="url(#p5b50e4b087)" style="fill: none; stroke: #c7c7c7; stroke-opacity: 0.8; stroke-width: 1.5; stroke-linecap: round"/>
   </g>
   <g id="line2d_89">
    <path d="M 107.034375 237.636304 
L 134.934375 240.952048 
L 162.834375 241.639591 
L 190.734375 241.336072 
L 218.634375 236.959834 
L 246.534375 212.456298 
L 274.434375 185.647485 
L 302.334375 155.101458 
L 330.234375 147.589077 
L 358.134375 142.573287 
L 386.034375 142.073196 
L 413.934375 138.568752 
L 441.834375 136.970628 
L 469.734375 135.223269 
L 497.634375 131.755888 
L 525.534375 128.324397 
L 553.434375 128.894346 
L 581.334375 131.931202 
L 609.234375 142.692798 
L 637.134375 159.200683 
L 665.034375 180.813509 
L 692.934375 203.027929 
L 720.834375 225.360363 
L 748.734375 232.95005 
" clip-path="url(#p5b50e4b087)" style="fill: none; stroke: #9467bd; stroke-opacity: 0.8; stroke-width: 1.5; stroke-linecap: round"/>
   </g>
   <g id="line2d_90">
    <path d="M 107.034375 243.994386 
L 134.934375 245.486028 
L 162.834375 245.848115 
L 190.734375 245.778701 
L 218.634375 243.342126 
L 246.534375 223.587502 
L 274.434375 204.756213 
L 302.334375 180.261499 
L 330.234375 174.157258 
L 358.134375 167.14907 
L 386.034375 163.982986 
L 413.934375 160.828381 
L 441.834375 160.696668 
L 469.734375 160.210762 
L 497.634375 158.445445 
L 525.534375 156.371633 
L 553.434375 156.386589 
L 581.334375 159.66106 
L 609.234375 167.100526 
L 637.134375 182.791765 
L 665.034375 201.386149 
L 692.934375 219.459296 
L 720.834375 238.402079 
L 748.734375 242.085608 
" clip-path="url(#p5b50e4b087)" style="fill: none; stroke: #e377c2; stroke-opacity: 0.8; stroke-width: 1.5; stroke-linecap: round"/>
   </g>
   <g id="line2d_91">
    <path d="M 107.034375 244.58497 
L 134.934375 245.856655 
L 162.834375 246.174116 
L 190.734375 246.112124 
L 218.634375 243.924591 
L 246.534375 226.204191 
L 274.434375 207.883164 
L 302.334375 181.640683 
L 330.234375 175.211877 
L 358.134375 168.008121 
L 386.034375 158.969293 
L 413.934375 156.108609 
L 441.834375 155.477574 
L 469.734375 155.442286 
L 497.634375 152.382362 
L 525.534375 149.465116 
L 553.434375 147.704091 
L 581.334375 151.304559 
L 609.234375 158.76043 
L 637.134375 185.479193 
L 665.034375 205.27934 
L 692.934375 222.733134 
L 720.834375 238.746265 
L 748.734375 242.586245 
" clip-path="url(#p5b50e4b087)" style="fill: none; stroke: #c49c94; stroke-opacity: 0.8; stroke-width: 1.5; stroke-linecap: round"/>
   </g>
   <g id="line2d_92">
    <path d="M 107.034375 243.012722 
L 134.934375 245.076125 
L 162.834375 245.614282 
L 190.734375 245.535883 
L 218.634375 242.100697 
L 246.534375 222.11068 
L 274.434375 201.249748 
L 302.334375 173.472599 
L 330.234375 166.005208 
L 358.134375 159.088095 
L 386.034375 148.64459 
L 413.934375 145.208335 
L 441.834375 142.885718 
L 469.734375 141.423369 
L 497.634375 139.118709 
L 525.534375 136.87008 
L 553.434375 137.039127 
L 581.334375 141.415371 
L 609.234375 147.748262 
L 637.134375 176.895585 
L 665.034375 197.15834 
L 692.934375 218.156014 
L 720.834375 234.000167 
L 748.734375 240.004994 
" clip-path="url(#p5b50e4b087)" style="fill: none; stroke: #c5b0d5; stroke-opacity: 0.8; stroke-width: 1.5; stroke-linecap: round"/>
   </g>
   <g id="line2d_93">
    <path d="M 107.034375 242.920165 
L 134.934375 245.505509 
L 162.834375 246.02187 
L 190.734375 245.839914 
L 218.634375 241.647369 
L 246.534375 214.362627 
L 274.434375 192.585277 
L 302.334375 161.903068 
L 330.234375 155.774684 
L 358.134375 148.204313 
L 386.034375 139.77252 
L 413.934375 135.64829 
L 441.834375 134.235876 
L 469.734375 133.610191 
L 497.634375 130.704477 
L 525.534375 127.464839 
L 553.434375 127.512697 
L 581.334375 131.085497 
L 609.234375 137.440647 
L 637.134375 166.400962 
L 665.034375 187.231293 
L 692.934375 209.936098 
L 720.834375 234.146845 
L 748.734375 239.845511 
" clip-path="url(#p5b50e4b087)" style="fill: none; stroke: #ff9896; stroke-opacity: 0.8; stroke-width: 1.5; stroke-linecap: round"/>
   </g>
   <g id="line2d_94">
    <path d="M 107.034375 236.536844 
L 134.934375 240.691049 
L 162.834375 241.703608 
L 190.734375 241.174095 
L 218.634375 235.449908 
L 246.534375 212.957774 
L 274.434375 189.349603 
L 302.334375 159.179833 
L 330.234375 151.847863 
L 358.134375 146.317248 
L 386.034375 142.008732 
L 413.934375 138.29822 
L 441.834375 136.948905 
L 469.734375 134.548037 
L 497.634375 129.956981 
L 525.534375 125.583319 
L 553.434375 125.196072 
L 581.334375 129.618007 
L 609.234375 141.331038 
L 637.134375 158.290995 
L 665.034375 181.041882 
L 692.934375 202.685329 
L 720.834375 222.766177 
L 748.734375 231.198741 
" clip-path="url(#p5b50e4b087)" style="fill: none; stroke: #aec7e8; stroke-opacity: 0.8; stroke-width: 1.5; stroke-linecap: round"/>
   </g>
   <g id="line2d_95">
    <path d="M 107.034375 242.341741 
L 134.934375 245.041962 
L 162.834375 245.705401 
L 190.734375 245.71429 
L 218.634375 241.664231 
L 246.534375 214.212594 
L 274.434375 192.196732 
L 302.334375 162.623933 
L 330.234375 152.408105 
L 358.134375 144.490248 
L 386.034375 135.507025 
L 413.934375 130.741544 
L 441.834375 129.084767 
L 469.734375 128.775149 
L 497.634375 127.068224 
L 525.534375 124.608047 
L 553.434375 124.544342 
L 581.334375 127.693591 
L 609.234375 134.595213 
L 637.134375 162.303719 
L 665.034375 183.844959 
L 692.934375 205.887663 
L 720.834375 234.385126 
L 748.734375 239.582556 
" clip-path="url(#p5b50e4b087)" style="fill: none; stroke: #8c564b; stroke-opacity: 0.8; stroke-width: 1.5; stroke-linecap: round"/>
   </g>
   <g id="patch_3">
    <path d="M 93.084375 260.074558 
L 93.084375 38.314558 
" style="fill: none; stroke: #000000; stroke-linejoin: miter; stroke-linecap: square"/>
   </g>
   <g id="patch_4">
    <path d="M 762.684375 260.074558 
L 762.684375 38.314558 
" style="fill: none; stroke: #000000; stroke-linejoin: miter; stroke-linecap: square"/>
   </g>
   <g id="patch_5">
    <path d="M 93.084375 260.074558 
L 762.684375 260.074558 
" style="fill: none; stroke: #000000; stroke-linejoin: miter; stroke-linecap: square"/>
   </g>
   <g id="patch_6">
    <path d="M 93.084375 38.314558 
L 762.684375 38.314558 
" style="fill: none; stroke: #000000; stroke-linejoin: miter; stroke-linecap: square"/>
   </g>
  </g>
 </g>
 <defs>
  <clipPath id="p5b50e4b087">
   <rect x="93.084375" y="38.314558" width="669.6" height="221.76"/>
  </clipPath>
 </defs>
</svg>
