<?xml version="1.0" encoding="utf-8" standalone="no"?>
<!DOCTYPE svg PUBLIC "-//W3C//DTD SVG 1.1//EN"
  "http://www.w3.org/Graphics/SVG/1.1/DTD/svg11.dtd">
<svg xmlns:xlink="http://www.w3.org/1999/xlink" width="781.0975pt" height="332.28625pt" viewBox="0 0 781.0975 332.28625" xmlns="http://www.w3.org/2000/svg" version="1.1">
 <metadata>
  <rdf:RDF xmlns:dc="http://purl.org/dc/elements/1.1/" xmlns:cc="http://creativecommons.org/ns#" xmlns:rdf="http://www.w3.org/1999/02/22-rdf-syntax-ns#">
   <cc:Work>
    <dc:type rdf:resource="http://purl.org/dc/dcmitype/StillImage"/>
    <dc:date>2025-10-27T23:57:25.179519</dc:date>
    <dc:format>image/svg+xml</dc:format>
    <dc:creator>
     <cc:Agent>
      <dc:title>Matplotlib v3.10.7, https://matplotlib.org/</dc:title>
     </cc:Agent>
    </dc:creator>
   </cc:Work>
  </rdf:RDF>
 </metadata>
 <defs>
  <style type="text/css">*{stroke-linejoin: round; stroke-linecap: butt}</style>
 </defs>
 <g id="figure_1">
  <g id="patch_1">
   <path d="M 0 332.28625 
L 781.0975 332.28625 
L 781.0975 0 
L 0 0 
L 0 332.28625 
z
" style="fill: none"/>
  </g>
  <g id="axes_1">
   <g id="patch_2">
    <path d="M 75.4975 257.76 
L 745.0975 257.76 
L 745.0975 36 
L 75.4975 36 
L 75.4975 257.76 
z
" style="fill: none"/>
   </g>
   <g id="line2d_1">
    <path d="M 95.788409 257.76 
L 95.788409 36 
" clip-path="url(#p1c03d34517)" style="fill: none; stroke-dasharray: 0.74,0.32; stroke-dashoffset: 0; stroke: #a9a9a9; stroke-opacity: 0.5; stroke-width: 0.2"/>
   </g>
   <g id="line2d_2">
    <path d="M 116.079318 257.76 
L 116.079318 36 
" clip-path="url(#p1c03d34517)" style="fill: none; stroke-dasharray: 0.74,0.32; stroke-dashoffset: 0; stroke: #a9a9a9; stroke-opacity: 0.5; stroke-width: 0.2"/>
   </g>
   <g id="line2d_3">
    <path d="M 136.370227 257.76 
L 136.370227 36 
" clip-path="url(#p1c03d34517)" style="fill: none; stroke-dasharray: 0.74,0.32; stroke-dashoffset: 0; stroke: #a9a9a9; stroke-opacity: 0.5; stroke-width: 0.2"/>
   </g>
   <g id="line2d_4">
    <path d="M 156.661136 257.76 
L 156.661136 36 
" clip-path="url(#p1c03d34517)" style="fill: none; stroke-dasharray: 0.74,0.32; stroke-dashoffset: 0; stroke: #a9a9a9; stroke-opacity: 0.5; stroke-width: 0.2"/>
   </g>
   <g id="line2d_5">
    <path d="M 176.952045 257.76 
L 176.952045 36 
" clip-path="url(#p1c03d34517)" style="fill: none; stroke-dasharray: 0.74,0.32; stroke-dashoffset: 0; stroke: #a9a9a9; stroke-opacity: 0.5; stroke-width: 0.2"/>
   </g>
   <g id="line2d_6">
    <path d="M 197.242955 257.76 
L 197.242955 36 
" clip-path="url(#p1c03d34517)" style="fill: none; stroke-dasharray: 0.74,0.32; stroke-dashoffset: 0; stroke: #a9a9a9; stroke-opacity: 0.5; stroke-width: 0.2"/>
   </g>
   <g id="line2d_7">
    <path d="M 217.533864 257.76 
L 217.533864 36 
" clip-path="url(#p1c03d34517)" style="fill: none; stroke-dasharray: 0.74,0.32; stroke-dashoffset: 0; stroke: #a9a9a9; stroke-opacity: 0.5; stroke-width: 0.2"/>
   </g>
   <g id="line2d_8">
    <path d="M 237.824773 257.76 
L 237.824773 36 
" clip-path="url(#p1c03d34517)" style="fill: none; stroke-dasharray: 0.74,0.32; stroke-dashoffset: 0; stroke: #a9a9a9; stroke-opacity: 0.5; stroke-width: 0.2"/>
   </g>
   <g id="line2d_9">
    <path d="M 258.115682 257.76 
L 258.115682 36 
" clip-path="url(#p1c03d34517)" style="fill: none; stroke-dasharray: 0.74,0.32; stroke-dashoffset: 0; stroke: #a9a9a9; stroke-opacity: 0.5; stroke-width: 0.2"/>
   </g>
   <g id="line2d_10">
    <path d="M 278.406591 257.76 
L 278.406591 36 
" clip-path="url(#p1c03d34517)" style="fill: none; stroke-dasharray: 0.74,0.32; stroke-dashoffset: 0; stroke: #a9a9a9; stroke-opacity: 0.5; stroke-width: 0.2"/>
   </g>
   <g id="line2d_11">
    <path d="M 298.6975 257.76 
L 298.6975 36 
" clip-path="url(#p1c03d34517)" style="fill: none; stroke-dasharray: 0.74,0.32; stroke-dashoffset: 0; stroke: #a9a9a9; stroke-opacity: 0.5; stroke-width: 0.2"/>
   </g>
   <g id="line2d_12">
    <path d="M 318.988409 257.76 
L 318.988409 36 
" clip-path="url(#p1c03d34517)" style="fill: none; stroke-dasharray: 0.74,0.32; stroke-dashoffset: 0; stroke: #a9a9a9; stroke-opacity: 0.5; stroke-width: 0.2"/>
   </g>
   <g id="line2d_13">
    <path d="M 339.279318 257.76 
L 339.279318 36 
" clip-path="url(#p1c03d34517)" style="fill: none; stroke-dasharray: 0.74,0.32; stroke-dashoffset: 0; stroke: #a9a9a9; stroke-opacity: 0.5; stroke-width: 0.2"/>
   </g>
   <g id="line2d_14">
    <path d="M 359.570227 257.76 
L 359.570227 36 
" clip-path="url(#p1c03d34517)" style="fill: none; stroke-dasharray: 0.74,0.32; stroke-dashoffset: 0; stroke: #a9a9a9; stroke-opacity: 0.5; stroke-width: 0.2"/>
   </g>
   <g id="line2d_15">
    <path d="M 379.861136 257.76 
L 379.861136 36 
" clip-path="url(#p1c03d34517)" style="fill: none; stroke-dasharray: 0.74,0.32; stroke-dashoffset: 0; stroke: #a9a9a9; stroke-opacity: 0.5; stroke-width: 0.2"/>
   </g>
   <g id="line2d_16">
    <path d="M 400.152045 257.76 
L 400.152045 36 
" clip-path="url(#p1c03d34517)" style="fill: none; stroke-dasharray: 0.74,0.32; stroke-dashoffset: 0; stroke: #a9a9a9; stroke-opacity: 0.5; stroke-width: 0.2"/>
   </g>
   <g id="line2d_17">
    <path d="M 420.442955 257.76 
L 420.442955 36 
" clip-path="url(#p1c03d34517)" style="fill: none; stroke-dasharray: 0.74,0.32; stroke-dashoffset: 0; stroke: #a9a9a9; stroke-opacity: 0.5; stroke-width: 0.2"/>
   </g>
   <g id="line2d_18">
    <path d="M 440.733864 257.76 
L 440.733864 36 
" clip-path="url(#p1c03d34517)" style="fill: none; stroke-dasharray: 0.74,0.32; stroke-dashoffset: 0; stroke: #a9a9a9; stroke-opacity: 0.5; stroke-width: 0.2"/>
   </g>
   <g id="line2d_19">
    <path d="M 461.024773 257.76 
L 461.024773 36 
" clip-path="url(#p1c03d34517)" style="fill: none; stroke-dasharray: 0.74,0.32; stroke-dashoffset: 0; stroke: #a9a9a9; stroke-opacity: 0.5; stroke-width: 0.2"/>
   </g>
   <g id="line2d_20">
    <path d="M 481.315682 257.76 
L 481.315682 36 
" clip-path="url(#p1c03d34517)" style="fill: none; stroke-dasharray: 0.74,0.32; stroke-dashoffset: 0; stroke: #a9a9a9; stroke-opacity: 0.5; stroke-width: 0.2"/>
   </g>
   <g id="line2d_21">
    <path d="M 501.606591 257.76 
L 501.606591 36 
" clip-path="url(#p1c03d34517)" style="fill: none; stroke-dasharray: 0.74,0.32; stroke-dashoffset: 0; stroke: #a9a9a9; stroke-opacity: 0.5; stroke-width: 0.2"/>
   </g>
   <g id="line2d_22">
    <path d="M 521.8975 257.76 
L 521.8975 36 
" clip-path="url(#p1c03d34517)" style="fill: none; stroke-dasharray: 0.74,0.32; stroke-dashoffset: 0; stroke: #a9a9a9; stroke-opacity: 0.5; stroke-width: 0.2"/>
   </g>
   <g id="line2d_23">
    <path d="M 542.188409 257.76 
L 542.188409 36 
" clip-path="url(#p1c03d34517)" style="fill: none; stroke-dasharray: 0.74,0.32; stroke-dashoffset: 0; stroke: #a9a9a9; stroke-opacity: 0.5; stroke-width: 0.2"/>
   </g>
   <g id="line2d_24">
    <path d="M 562.479318 257.76 
L 562.479318 36 
" clip-path="url(#p1c03d34517)" style="fill: none; stroke-dasharray: 0.74,0.32; stroke-dashoffset: 0; stroke: #a9a9a9; stroke-opacity: 0.5; stroke-width: 0.2"/>
   </g>
   <g id="line2d_25">
    <path d="M 582.770227 257.76 
L 582.770227 36 
" clip-path="url(#p1c03d34517)" style="fill: none; stroke-dasharray: 0.74,0.32; stroke-dashoffset: 0; stroke: #a9a9a9; stroke-opacity: 0.5; stroke-width: 0.2"/>
   </g>
   <g id="line2d_26">
    <path d="M 603.061136 257.76 
L 603.061136 36 
" clip-path="url(#p1c03d34517)" style="fill: none; stroke-dasharray: 0.74,0.32; stroke-dashoffset: 0; stroke: #a9a9a9; stroke-opacity: 0.5; stroke-width: 0.2"/>
   </g>
   <g id="line2d_27">
    <path d="M 623.352045 257.76 
L 623.352045 36 
" clip-path="url(#p1c03d34517)" style="fill: none; stroke-dasharray: 0.74,0.32; stroke-dashoffset: 0; stroke: #a9a9a9; stroke-opacity: 0.5; stroke-width: 0.2"/>
   </g>
   <g id="line2d_28">
    <path d="M 643.642955 257.76 
L 643.642955 36 
" clip-path="url(#p1c03d34517)" style="fill: none; stroke-dasharray: 0.74,0.32; stroke-dashoffset: 0; stroke: #a9a9a9; stroke-opacity: 0.5; stroke-width: 0.2"/>
   </g>
   <g id="line2d_29">
    <path d="M 663.933864 257.76 
L 663.933864 36 
" clip-path="url(#p1c03d34517)" style="fill: none; stroke-dasharray: 0.74,0.32; stroke-dashoffset: 0; stroke: #a9a9a9; stroke-opacity: 0.5; stroke-width: 0.2"/>
   </g>
   <g id="line2d_30">
    <path d="M 684.224773 257.76 
L 684.224773 36 
" clip-path="url(#p1c03d34517)" style="fill: none; stroke-dasharray: 0.74,0.32; stroke-dashoffset: 0; stroke: #a9a9a9; stroke-opacity: 0.5; stroke-width: 0.2"/>
   </g>
   <g id="line2d_31">
    <path d="M 704.515682 257.76 
L 704.515682 36 
" clip-path="url(#p1c03d34517)" style="fill: none; stroke-dasharray: 0.74,0.32; stroke-dashoffset: 0; stroke: #a9a9a9; stroke-opacity: 0.5; stroke-width: 0.2"/>
   </g>
   <g id="line2d_32">
    <path d="M 724.806591 257.76 
L 724.806591 36 
" clip-path="url(#p1c03d34517)" style="fill: none; stroke-dasharray: 0.74,0.32; stroke-dashoffset: 0; stroke: #a9a9a9; stroke-opacity: 0.5; stroke-width: 0.2"/>
   </g>
   <g id="line2d_33">
    <path d="M 75.4975 235.584 
L 745.0975 235.584 
" clip-path="url(#p1c03d34517)" style="fill: none; stroke-dasharray: 0.74,0.32; stroke-dashoffset: 0; stroke: #a9a9a9; stroke-opacity: 0.5; stroke-width: 0.2"/>
   </g>
   <g id="line2d_34">
    <path d="M 75.4975 213.408 
L 745.0975 213.408 
" clip-path="url(#p1c03d34517)" style="fill: none; stroke-dasharray: 0.74,0.32; stroke-dashoffset: 0; stroke: #a9a9a9; stroke-opacity: 0.5; stroke-width: 0.2"/>
   </g>
   <g id="line2d_35">
    <path d="M 75.4975 191.232 
L 745.0975 191.232 
" clip-path="url(#p1c03d34517)" style="fill: none; stroke-dasharray: 0.74,0.32; stroke-dashoffset: 0; stroke: #a9a9a9; stroke-opacity: 0.5; stroke-width: 0.2"/>
   </g>
   <g id="line2d_36">
    <path d="M 75.4975 169.056 
L 745.0975 169.056 
" clip-path="url(#p1c03d34517)" style="fill: none; stroke-dasharray: 0.74,0.32; stroke-dashoffset: 0; stroke: #a9a9a9; stroke-opacity: 0.5; stroke-width: 0.2"/>
   </g>
   <g id="line2d_37">
    <path d="M 75.4975 146.88 
L 745.0975 146.88 
" clip-path="url(#p1c03d34517)" style="fill: none; stroke-dasharray: 0.74,0.32; stroke-dashoffset: 0; stroke: #a9a9a9; stroke-opacity: 0.5; stroke-width: 0.2"/>
   </g>
   <g id="line2d_38">
    <path d="M 75.4975 124.704 
L 745.0975 124.704 
" clip-path="url(#p1c03d34517)" style="fill: none; stroke-dasharray: 0.74,0.32; stroke-dashoffset: 0; stroke: #a9a9a9; stroke-opacity: 0.5; stroke-width: 0.2"/>
   </g>
   <g id="line2d_39">
    <path d="M 75.4975 102.528 
L 745.0975 102.528 
" clip-path="url(#p1c03d34517)" style="fill: none; stroke-dasharray: 0.74,0.32; stroke-dashoffset: 0; stroke: #a9a9a9; stroke-opacity: 0.5; stroke-width: 0.2"/>
   </g>
   <g id="line2d_40">
    <path d="M 75.4975 80.352 
L 745.0975 80.352 
" clip-path="url(#p1c03d34517)" style="fill: none; stroke-dasharray: 0.74,0.32; stroke-dashoffset: 0; stroke: #a9a9a9; stroke-opacity: 0.5; stroke-width: 0.2"/>
   </g>
   <g id="line2d_41">
    <path d="M 75.4975 58.176 
L 745.0975 58.176 
" clip-path="url(#p1c03d34517)" style="fill: none; stroke-dasharray: 0.74,0.32; stroke-dashoffset: 0; stroke: #a9a9a9; stroke-opacity: 0.5; stroke-width: 0.2"/>
   </g>
   <g id="matplotlib.axis_1">
    <g id="xtick_1">
     <g id="line2d_42">
      <defs>
       <path id="m04dba25946" d="M 0 0 
L 0 5 
" style="stroke: #000000"/>
      </defs>
      <g>
       <use xlink:href="#m04dba25946" x="89.4475" y="257.76" style="stroke: #000000"/>
      </g>
     </g>
     <g id="text_1">
      <!-- 1:00 -->
      <g transform="translate(92.549688 289.613125) rotate(-90) scale(0.12 -0.12)">
       <defs>
        <path id="ArialMT-31" d="M 2384 0 
L 1822 0 
L 1822 3584 
Q 1619 3391 1289 3197 
Q 959 3003 697 2906 
L 697 3450 
Q 1169 3672 1522 3987 
Q 1875 4303 2022 4600 
L 2384 4600 
L 2384 0 
z
" transform="scale(0.015625)"/>
        <path id="ArialMT-3a" d="M 578 2678 
L 578 3319 
L 1219 3319 
L 1219 2678 
L 578 2678 
z
M 578 0 
L 578 641 
L 1219 641 
L 1219 0 
L 578 0 
z
" transform="scale(0.015625)"/>
        <path id="ArialMT-30" d="M 266 2259 
Q 266 3072 433 3567 
Q 600 4063 929 4331 
Q 1259 4600 1759 4600 
Q 2128 4600 2406 4451 
Q 2684 4303 2865 4023 
Q 3047 3744 3150 3342 
Q 3253 2941 3253 2259 
Q 3253 1453 3087 958 
Q 2922 463 2592 192 
Q 2263 -78 1759 -78 
Q 1097 -78 719 397 
Q 266 969 266 2259 
z
M 844 2259 
Q 844 1131 1108 757 
Q 1372 384 1759 384 
Q 2147 384 2411 759 
Q 2675 1134 2675 2259 
Q 2675 3391 2411 3762 
Q 2147 4134 1753 4134 
Q 1366 4134 1134 3806 
Q 844 3388 844 2259 
z
" transform="scale(0.015625)"/>
       </defs>
       <use xlink:href="#ArialMT-31"/>
       <use xlink:href="#ArialMT-3a" transform="translate(55.615234 0)"/>
       <use xlink:href="#ArialMT-30" transform="translate(83.398438 0)"/>
       <use xlink:href="#ArialMT-30" transform="translate(139.013672 0)"/>
      </g>
     </g>
    </g>
    <g id="xtick_2">
     <g id="line2d_43">
      <g>
       <use xlink:href="#m04dba25946" x="117.3475" y="257.76" style="stroke: #000000"/>
      </g>
     </g>
     <g id="text_2">
      <!-- 2:00 -->
      <g transform="translate(120.449688 289.613125) rotate(-90) scale(0.12 -0.12)">
       <defs>
        <path id="ArialMT-32" d="M 3222 541 
L 3222 0 
L 194 0 
Q 188 203 259 391 
Q 375 700 629 1000 
Q 884 1300 1366 1694 
Q 2113 2306 2375 2664 
Q 2638 3022 2638 3341 
Q 2638 3675 2398 3904 
Q 2159 4134 1775 4134 
Q 1369 4134 1125 3890 
Q 881 3647 878 3216 
L 300 3275 
Q 359 3922 746 4261 
Q 1134 4600 1788 4600 
Q 2447 4600 2831 4234 
Q 3216 3869 3216 3328 
Q 3216 3053 3103 2787 
Q 2991 2522 2730 2228 
Q 2469 1934 1863 1422 
Q 1356 997 1212 845 
Q 1069 694 975 541 
L 3222 541 
z
" transform="scale(0.015625)"/>
       </defs>
       <use xlink:href="#ArialMT-32"/>
       <use xlink:href="#ArialMT-3a" transform="translate(55.615234 0)"/>
       <use xlink:href="#ArialMT-30" transform="translate(83.398438 0)"/>
       <use xlink:href="#ArialMT-30" transform="translate(139.013672 0)"/>
      </g>
     </g>
    </g>
    <g id="xtick_3">
     <g id="line2d_44">
      <g>
       <use xlink:href="#m04dba25946" x="145.2475" y="257.76" style="stroke: #000000"/>
      </g>
     </g>
     <g id="text_3">
      <!-- 3:00 -->
      <g transform="translate(148.349688 289.613125) rotate(-90) scale(0.12 -0.12)">
       <defs>
        <path id="ArialMT-33" d="M 269 1209 
L 831 1284 
Q 928 806 1161 595 
Q 1394 384 1728 384 
Q 2125 384 2398 659 
Q 2672 934 2672 1341 
Q 2672 1728 2419 1979 
Q 2166 2231 1775 2231 
Q 1616 2231 1378 2169 
L 1441 2663 
Q 1497 2656 1531 2656 
Q 1891 2656 2178 2843 
Q 2466 3031 2466 3422 
Q 2466 3731 2256 3934 
Q 2047 4138 1716 4138 
Q 1388 4138 1169 3931 
Q 950 3725 888 3313 
L 325 3413 
Q 428 3978 793 4289 
Q 1159 4600 1703 4600 
Q 2078 4600 2393 4439 
Q 2709 4278 2876 4000 
Q 3044 3722 3044 3409 
Q 3044 3113 2884 2869 
Q 2725 2625 2413 2481 
Q 2819 2388 3044 2092 
Q 3269 1797 3269 1353 
Q 3269 753 2831 336 
Q 2394 -81 1725 -81 
Q 1122 -81 723 278 
Q 325 638 269 1209 
z
" transform="scale(0.015625)"/>
       </defs>
       <use xlink:href="#ArialMT-33"/>
       <use xlink:href="#ArialMT-3a" transform="translate(55.615234 0)"/>
       <use xlink:href="#ArialMT-30" transform="translate(83.398438 0)"/>
       <use xlink:href="#ArialMT-30" transform="translate(139.013672 0)"/>
      </g>
     </g>
    </g>
    <g id="xtick_4">
     <g id="line2d_45">
      <g>
       <use xlink:href="#m04dba25946" x="173.1475" y="257.76" style="stroke: #000000"/>
      </g>
     </g>
     <g id="text_4">
      <!-- 4:00 -->
      <g transform="translate(176.249688 289.613125) rotate(-90) scale(0.12 -0.12)">
       <defs>
        <path id="ArialMT-34" d="M 2069 0 
L 2069 1097 
L 81 1097 
L 81 1613 
L 2172 4581 
L 2631 4581 
L 2631 1613 
L 3250 1613 
L 3250 1097 
L 2631 1097 
L 2631 0 
L 2069 0 
z
M 2069 1613 
L 2069 3678 
L 634 1613 
L 2069 1613 
z
" transform="scale(0.015625)"/>
       </defs>
       <use xlink:href="#ArialMT-34"/>
       <use xlink:href="#ArialMT-3a" transform="translate(55.615234 0)"/>
       <use xlink:href="#ArialMT-30" transform="translate(83.398438 0)"/>
       <use xlink:href="#ArialMT-30" transform="translate(139.013672 0)"/>
      </g>
     </g>
    </g>
    <g id="xtick_5">
     <g id="line2d_46">
      <g>
       <use xlink:href="#m04dba25946" x="201.0475" y="257.76" style="stroke: #000000"/>
      </g>
     </g>
     <g id="text_5">
      <!-- 5:00 -->
      <g transform="translate(204.149688 289.613125) rotate(-90) scale(0.12 -0.12)">
       <defs>
        <path id="ArialMT-35" d="M 266 1200 
L 856 1250 
Q 922 819 1161 601 
Q 1400 384 1738 384 
Q 2144 384 2425 690 
Q 2706 997 2706 1503 
Q 2706 1984 2436 2262 
Q 2166 2541 1728 2541 
Q 1456 2541 1237 2417 
Q 1019 2294 894 2097 
L 366 2166 
L 809 4519 
L 3088 4519 
L 3088 3981 
L 1259 3981 
L 1013 2750 
Q 1425 3038 1878 3038 
Q 2478 3038 2890 2622 
Q 3303 2206 3303 1553 
Q 3303 931 2941 478 
Q 2500 -78 1738 -78 
Q 1113 -78 717 272 
Q 322 622 266 1200 
z
" transform="scale(0.015625)"/>
       </defs>
       <use xlink:href="#ArialMT-35"/>
       <use xlink:href="#ArialMT-3a" transform="translate(55.615234 0)"/>
       <use xlink:href="#ArialMT-30" transform="translate(83.398438 0)"/>
       <use xlink:href="#ArialMT-30" transform="translate(139.013672 0)"/>
      </g>
     </g>
    </g>
    <g id="xtick_6">
     <g id="line2d_47">
      <g>
       <use xlink:href="#m04dba25946" x="228.9475" y="257.76" style="stroke: #000000"/>
      </g>
     </g>
     <g id="text_6">
      <!-- 6:00 -->
      <g transform="translate(232.049688 289.613125) rotate(-90) scale(0.12 -0.12)">
       <defs>
        <path id="ArialMT-36" d="M 3184 3459 
L 2625 3416 
Q 2550 3747 2413 3897 
Q 2184 4138 1850 4138 
Q 1581 4138 1378 3988 
Q 1113 3794 959 3422 
Q 806 3050 800 2363 
Q 1003 2672 1297 2822 
Q 1591 2972 1913 2972 
Q 2475 2972 2870 2558 
Q 3266 2144 3266 1488 
Q 3266 1056 3080 686 
Q 2894 316 2569 119 
Q 2244 -78 1831 -78 
Q 1128 -78 684 439 
Q 241 956 241 2144 
Q 241 3472 731 4075 
Q 1159 4600 1884 4600 
Q 2425 4600 2770 4297 
Q 3116 3994 3184 3459 
z
M 888 1484 
Q 888 1194 1011 928 
Q 1134 663 1356 523 
Q 1578 384 1822 384 
Q 2178 384 2434 671 
Q 2691 959 2691 1453 
Q 2691 1928 2437 2201 
Q 2184 2475 1800 2475 
Q 1419 2475 1153 2201 
Q 888 1928 888 1484 
z
" transform="scale(0.015625)"/>
       </defs>
       <use xlink:href="#ArialMT-36"/>
       <use xlink:href="#ArialMT-3a" transform="translate(55.615234 0)"/>
       <use xlink:href="#ArialMT-30" transform="translate(83.398438 0)"/>
       <use xlink:href="#ArialMT-30" transform="translate(139.013672 0)"/>
      </g>
     </g>
    </g>
    <g id="xtick_7">
     <g id="line2d_48">
      <g>
       <use xlink:href="#m04dba25946" x="256.8475" y="257.76" style="stroke: #000000"/>
      </g>
     </g>
     <g id="text_7">
      <!-- 7:00 -->
      <g transform="translate(259.949688 289.613125) rotate(-90) scale(0.12 -0.12)">
       <defs>
        <path id="ArialMT-37" d="M 303 3981 
L 303 4522 
L 3269 4522 
L 3269 4084 
Q 2831 3619 2401 2847 
Q 1972 2075 1738 1259 
Q 1569 684 1522 0 
L 944 0 
Q 953 541 1156 1306 
Q 1359 2072 1739 2783 
Q 2119 3494 2547 3981 
L 303 3981 
z
" transform="scale(0.015625)"/>
       </defs>
       <use xlink:href="#ArialMT-37"/>
       <use xlink:href="#ArialMT-3a" transform="translate(55.615234 0)"/>
       <use xlink:href="#ArialMT-30" transform="translate(83.398438 0)"/>
       <use xlink:href="#ArialMT-30" transform="translate(139.013672 0)"/>
      </g>
     </g>
    </g>
    <g id="xtick_8">
     <g id="line2d_49">
      <g>
       <use xlink:href="#m04dba25946" x="284.7475" y="257.76" style="stroke: #000000"/>
      </g>
     </g>
     <g id="text_8">
      <!-- 8:00 -->
      <g transform="translate(287.849688 289.613125) rotate(-90) scale(0.12 -0.12)">
       <defs>
        <path id="ArialMT-38" d="M 1131 2484 
Q 781 2613 612 2850 
Q 444 3088 444 3419 
Q 444 3919 803 4259 
Q 1163 4600 1759 4600 
Q 2359 4600 2725 4251 
Q 3091 3903 3091 3403 
Q 3091 3084 2923 2848 
Q 2756 2613 2416 2484 
Q 2838 2347 3058 2040 
Q 3278 1734 3278 1309 
Q 3278 722 2862 322 
Q 2447 -78 1769 -78 
Q 1091 -78 675 323 
Q 259 725 259 1325 
Q 259 1772 486 2073 
Q 713 2375 1131 2484 
z
M 1019 3438 
Q 1019 3113 1228 2906 
Q 1438 2700 1772 2700 
Q 2097 2700 2305 2904 
Q 2513 3109 2513 3406 
Q 2513 3716 2298 3927 
Q 2084 4138 1766 4138 
Q 1444 4138 1231 3931 
Q 1019 3725 1019 3438 
z
M 838 1322 
Q 838 1081 952 856 
Q 1066 631 1291 507 
Q 1516 384 1775 384 
Q 2178 384 2440 643 
Q 2703 903 2703 1303 
Q 2703 1709 2433 1975 
Q 2163 2241 1756 2241 
Q 1359 2241 1098 1978 
Q 838 1716 838 1322 
z
" transform="scale(0.015625)"/>
       </defs>
       <use xlink:href="#ArialMT-38"/>
       <use xlink:href="#ArialMT-3a" transform="translate(55.615234 0)"/>
       <use xlink:href="#ArialMT-30" transform="translate(83.398438 0)"/>
       <use xlink:href="#ArialMT-30" transform="translate(139.013672 0)"/>
      </g>
     </g>
    </g>
    <g id="xtick_9">
     <g id="line2d_50">
      <g>
       <use xlink:href="#m04dba25946" x="312.6475" y="257.76" style="stroke: #000000"/>
      </g>
     </g>
     <g id="text_9">
      <!-- 9:00 -->
      <g transform="translate(315.749688 289.613125) rotate(-90) scale(0.12 -0.12)">
       <defs>
        <path id="ArialMT-39" d="M 350 1059 
L 891 1109 
Q 959 728 1153 556 
Q 1347 384 1650 384 
Q 1909 384 2104 503 
Q 2300 622 2425 820 
Q 2550 1019 2634 1356 
Q 2719 1694 2719 2044 
Q 2719 2081 2716 2156 
Q 2547 1888 2255 1720 
Q 1963 1553 1622 1553 
Q 1053 1553 659 1965 
Q 266 2378 266 3053 
Q 266 3750 677 4175 
Q 1088 4600 1706 4600 
Q 2153 4600 2523 4359 
Q 2894 4119 3086 3673 
Q 3278 3228 3278 2384 
Q 3278 1506 3087 986 
Q 2897 466 2520 194 
Q 2144 -78 1638 -78 
Q 1100 -78 759 220 
Q 419 519 350 1059 
z
M 2653 3081 
Q 2653 3566 2395 3850 
Q 2138 4134 1775 4134 
Q 1400 4134 1122 3828 
Q 844 3522 844 3034 
Q 844 2597 1108 2323 
Q 1372 2050 1759 2050 
Q 2150 2050 2401 2323 
Q 2653 2597 2653 3081 
z
" transform="scale(0.015625)"/>
       </defs>
       <use xlink:href="#ArialMT-39"/>
       <use xlink:href="#ArialMT-3a" transform="translate(55.615234 0)"/>
       <use xlink:href="#ArialMT-30" transform="translate(83.398438 0)"/>
       <use xlink:href="#ArialMT-30" transform="translate(139.013672 0)"/>
      </g>
     </g>
    </g>
    <g id="xtick_10">
     <g id="line2d_51">
      <g>
       <use xlink:href="#m04dba25946" x="340.5475" y="257.76" style="stroke: #000000"/>
      </g>
     </g>
     <g id="text_10">
      <!-- 10:00 -->
      <g transform="translate(343.649688 296.28625) rotate(-90) scale(0.12 -0.12)">
       <use xlink:href="#ArialMT-31"/>
       <use xlink:href="#ArialMT-30" transform="translate(55.615234 0)"/>
       <use xlink:href="#ArialMT-3a" transform="translate(111.230469 0)"/>
       <use xlink:href="#ArialMT-30" transform="translate(139.013672 0)"/>
       <use xlink:href="#ArialMT-30" transform="translate(194.628906 0)"/>
      </g>
     </g>
    </g>
    <g id="xtick_11">
     <g id="line2d_52">
      <g>
       <use xlink:href="#m04dba25946" x="368.4475" y="257.76" style="stroke: #000000"/>
      </g>
     </g>
     <g id="text_11">
      <!-- 11:00 -->
      <g transform="translate(371.549688 295.40125) rotate(-90) scale(0.12 -0.12)">
       <use xlink:href="#ArialMT-31"/>
       <use xlink:href="#ArialMT-31" transform="translate(48.240234 0)"/>
       <use xlink:href="#ArialMT-3a" transform="translate(103.855469 0)"/>
       <use xlink:href="#ArialMT-30" transform="translate(131.638672 0)"/>
       <use xlink:href="#ArialMT-30" transform="translate(187.253906 0)"/>
      </g>
     </g>
    </g>
    <g id="xtick_12">
     <g id="line2d_53">
      <g>
       <use xlink:href="#m04dba25946" x="396.3475" y="257.76" style="stroke: #000000"/>
      </g>
     </g>
     <g id="text_12">
      <!-- 12:00 -->
      <g transform="translate(399.449688 296.28625) rotate(-90) scale(0.12 -0.12)">
       <use xlink:href="#ArialMT-31"/>
       <use xlink:href="#ArialMT-32" transform="translate(55.615234 0)"/>
       <use xlink:href="#ArialMT-3a" transform="translate(111.230469 0)"/>
       <use xlink:href="#ArialMT-30" transform="translate(139.013672 0)"/>
       <use xlink:href="#ArialMT-30" transform="translate(194.628906 0)"/>
      </g>
     </g>
    </g>
    <g id="xtick_13">
     <g id="line2d_54">
      <g>
       <use xlink:href="#m04dba25946" x="424.2475" y="257.76" style="stroke: #000000"/>
      </g>
     </g>
     <g id="text_13">
      <!-- 13:00 -->
      <g transform="translate(427.349688 296.28625) rotate(-90) scale(0.12 -0.12)">
       <use xlink:href="#ArialMT-31"/>
       <use xlink:href="#ArialMT-33" transform="translate(55.615234 0)"/>
       <use xlink:href="#ArialMT-3a" transform="translate(111.230469 0)"/>
       <use xlink:href="#ArialMT-30" transform="translate(139.013672 0)"/>
       <use xlink:href="#ArialMT-30" transform="translate(194.628906 0)"/>
      </g>
     </g>
    </g>
    <g id="xtick_14">
     <g id="line2d_55">
      <g>
       <use xlink:href="#m04dba25946" x="452.1475" y="257.76" style="stroke: #000000"/>
      </g>
     </g>
     <g id="text_14">
      <!-- 14:00 -->
      <g transform="translate(455.249688 296.28625) rotate(-90) scale(0.12 -0.12)">
       <use xlink:href="#ArialMT-31"/>
       <use xlink:href="#ArialMT-34" transform="translate(55.615234 0)"/>
       <use xlink:href="#ArialMT-3a" transform="translate(111.230469 0)"/>
       <use xlink:href="#ArialMT-30" transform="translate(139.013672 0)"/>
       <use xlink:href="#ArialMT-30" transform="translate(194.628906 0)"/>
      </g>
     </g>
    </g>
    <g id="xtick_15">
     <g id="line2d_56">
      <g>
       <use xlink:href="#m04dba25946" x="480.0475" y="257.76" style="stroke: #000000"/>
      </g>
     </g>
     <g id="text_15">
      <!-- 15:00 -->
      <g transform="translate(483.149688 296.28625) rotate(-90) scale(0.12 -0.12)">
       <use xlink:href="#ArialMT-31"/>
       <use xlink:href="#ArialMT-35" transform="translate(55.615234 0)"/>
       <use xlink:href="#ArialMT-3a" transform="translate(111.230469 0)"/>
       <use xlink:href="#ArialMT-30" transform="translate(139.013672 0)"/>
       <use xlink:href="#ArialMT-30" transform="translate(194.628906 0)"/>
      </g>
     </g>
    </g>
    <g id="xtick_16">
     <g id="line2d_57">
      <g>
       <use xlink:href="#m04dba25946" x="507.9475" y="257.76" style="stroke: #000000"/>
      </g>
     </g>
     <g id="text_16">
      <!-- 16:00 -->
      <g transform="translate(511.049688 296.28625) rotate(-90) scale(0.12 -0.12)">
       <use xlink:href="#ArialMT-31"/>
       <use xlink:href="#ArialMT-36" transform="translate(55.615234 0)"/>
       <use xlink:href="#ArialMT-3a" transform="translate(111.230469 0)"/>
       <use xlink:href="#ArialMT-30" transform="translate(139.013672 0)"/>
       <use xlink:href="#ArialMT-30" transform="translate(194.628906 0)"/>
      </g>
     </g>
    </g>
    <g id="xtick_17">
     <g id="line2d_58">
      <g>
       <use xlink:href="#m04dba25946" x="535.8475" y="257.76" style="stroke: #000000"/>
      </g>
     </g>
     <g id="text_17">
      <!-- 17:00 -->
      <g transform="translate(538.949688 296.28625) rotate(-90) scale(0.12 -0.12)">
       <use xlink:href="#ArialMT-31"/>
       <use xlink:href="#ArialMT-37" transform="translate(55.615234 0)"/>
       <use xlink:href="#ArialMT-3a" transform="translate(111.230469 0)"/>
       <use xlink:href="#ArialMT-30" transform="translate(139.013672 0)"/>
       <use xlink:href="#ArialMT-30" transform="translate(194.628906 0)"/>
      </g>
     </g>
    </g>
    <g id="xtick_18">
     <g id="line2d_59">
      <g>
       <use xlink:href="#m04dba25946" x="563.7475" y="257.76" style="stroke: #000000"/>
      </g>
     </g>
     <g id="text_18">
      <!-- 18:00 -->
      <g transform="translate(566.849688 296.28625) rotate(-90) scale(0.12 -0.12)">
       <use xlink:href="#ArialMT-31"/>
       <use xlink:href="#ArialMT-38" transform="translate(55.615234 0)"/>
       <use xlink:href="#ArialMT-3a" transform="translate(111.230469 0)"/>
       <use xlink:href="#ArialMT-30" transform="translate(139.013672 0)"/>
       <use xlink:href="#ArialMT-30" transform="translate(194.628906 0)"/>
      </g>
     </g>
    </g>
    <g id="xtick_19">
     <g id="line2d_60">
      <g>
       <use xlink:href="#m04dba25946" x="591.6475" y="257.76" style="stroke: #000000"/>
      </g>
     </g>
     <g id="text_19">
      <!-- 19:00 -->
      <g transform="translate(594.749688 296.28625) rotate(-90) scale(0.12 -0.12)">
       <use xlink:href="#ArialMT-31"/>
       <use xlink:href="#ArialMT-39" transform="translate(55.615234 0)"/>
       <use xlink:href="#ArialMT-3a" transform="translate(111.230469 0)"/>
       <use xlink:href="#ArialMT-30" transform="translate(139.013672 0)"/>
       <use xlink:href="#ArialMT-30" transform="translate(194.628906 0)"/>
      </g>
     </g>
    </g>
    <g id="xtick_20">
     <g id="line2d_61">
      <g>
       <use xlink:href="#m04dba25946" x="619.5475" y="257.76" style="stroke: #000000"/>
      </g>
     </g>
     <g id="text_20">
      <!-- 20:00 -->
      <g transform="translate(622.649688 296.28625) rotate(-90) scale(0.12 -0.12)">
       <use xlink:href="#ArialMT-32"/>
       <use xlink:href="#ArialMT-30" transform="translate(55.615234 0)"/>
       <use xlink:href="#ArialMT-3a" transform="translate(111.230469 0)"/>
       <use xlink:href="#ArialMT-30" transform="translate(139.013672 0)"/>
       <use xlink:href="#ArialMT-30" transform="translate(194.628906 0)"/>
      </g>
     </g>
    </g>
    <g id="xtick_21">
     <g id="line2d_62">
      <g>
       <use xlink:href="#m04dba25946" x="647.4475" y="257.76" style="stroke: #000000"/>
      </g>
     </g>
     <g id="text_21">
      <!-- 21:00 -->
      <g transform="translate(650.549688 296.28625) rotate(-90) scale(0.12 -0.12)">
       <use xlink:href="#ArialMT-32"/>
       <use xlink:href="#ArialMT-31" transform="translate(55.615234 0)"/>
       <use xlink:href="#ArialMT-3a" transform="translate(111.230469 0)"/>
       <use xlink:href="#ArialMT-30" transform="translate(139.013672 0)"/>
       <use xlink:href="#ArialMT-30" transform="translate(194.628906 0)"/>
      </g>
     </g>
    </g>
    <g id="xtick_22">
     <g id="line2d_63">
      <g>
       <use xlink:href="#m04dba25946" x="675.3475" y="257.76" style="stroke: #000000"/>
      </g>
     </g>
     <g id="text_22">
      <!-- 22:00 -->
      <g transform="translate(678.449688 296.28625) rotate(-90) scale(0.12 -0.12)">
       <use xlink:href="#ArialMT-32"/>
       <use xlink:href="#ArialMT-32" transform="translate(55.615234 0)"/>
       <use xlink:href="#ArialMT-3a" transform="translate(111.230469 0)"/>
       <use xlink:href="#ArialMT-30" transform="translate(139.013672 0)"/>
       <use xlink:href="#ArialMT-30" transform="translate(194.628906 0)"/>
      </g>
     </g>
    </g>
    <g id="xtick_23">
     <g id="line2d_64">
      <g>
       <use xlink:href="#m04dba25946" x="703.2475" y="257.76" style="stroke: #000000"/>
      </g>
     </g>
     <g id="text_23">
      <!-- 23:00 -->
      <g transform="translate(706.349688 296.28625) rotate(-90) scale(0.12 -0.12)">
       <use xlink:href="#ArialMT-32"/>
       <use xlink:href="#ArialMT-33" transform="translate(55.615234 0)"/>
       <use xlink:href="#ArialMT-3a" transform="translate(111.230469 0)"/>
       <use xlink:href="#ArialMT-30" transform="translate(139.013672 0)"/>
       <use xlink:href="#ArialMT-30" transform="translate(194.628906 0)"/>
      </g>
     </g>
    </g>
    <g id="xtick_24">
     <g id="line2d_65">
      <g>
       <use xlink:href="#m04dba25946" x="731.1475" y="257.76" style="stroke: #000000"/>
      </g>
     </g>
     <g id="text_24">
      <!-- 24:00 -->
      <g transform="translate(734.249688 296.28625) rotate(-90) scale(0.12 -0.12)">
       <use xlink:href="#ArialMT-32"/>
       <use xlink:href="#ArialMT-34" transform="translate(55.615234 0)"/>
       <use xlink:href="#ArialMT-3a" transform="translate(111.230469 0)"/>
       <use xlink:href="#ArialMT-30" transform="translate(139.013672 0)"/>
       <use xlink:href="#ArialMT-30" transform="translate(194.628906 0)"/>
      </g>
     </g>
    </g>
   </g>
   <g id="matplotlib.axis_2">
    <g id="ytick_1">
     <g id="line2d_66">
      <defs>
       <path id="m45908662fa" d="M 0 0 
L -5 0 
" style="stroke: #000000; stroke-opacity: 0; stroke-width: 1.5"/>
      </defs>
      <g>
       <use xlink:href="#m45908662fa" x="75.4975" y="244.904348" style="fill-opacity: 0; stroke: #000000; stroke-opacity: 0; stroke-width: 1.5"/>
      </g>
     </g>
     <g id="text_25">
      <!-- 0 -->
      <g transform="translate(58.1 250.630598) scale(0.16 -0.16)">
       <use xlink:href="#ArialMT-30"/>
      </g>
     </g>
    </g>
    <g id="ytick_2">
     <g id="line2d_67">
      <g>
       <use xlink:href="#m45908662fa" x="75.4975" y="180.626087" style="fill-opacity: 0; stroke: #000000; stroke-opacity: 0; stroke-width: 1.5"/>
      </g>
     </g>
     <g id="text_26">
      <!-- 1 -->
      <g transform="translate(58.1 186.352337) scale(0.16 -0.16)">
       <use xlink:href="#ArialMT-31"/>
      </g>
     </g>
    </g>
    <g id="ytick_3">
     <g id="line2d_68">
      <g>
       <use xlink:href="#m45908662fa" x="75.4975" y="116.347826" style="fill-opacity: 0; stroke: #000000; stroke-opacity: 0; stroke-width: 1.5"/>
      </g>
     </g>
     <g id="text_27">
      <!-- 2 -->
      <g transform="translate(58.1 122.074076) scale(0.16 -0.16)">
       <use xlink:href="#ArialMT-32"/>
      </g>
     </g>
    </g>
    <g id="ytick_4">
     <g id="line2d_69">
      <g>
       <use xlink:href="#m45908662fa" x="75.4975" y="52.069565" style="fill-opacity: 0; stroke: #000000; stroke-opacity: 0; stroke-width: 1.5"/>
      </g>
     </g>
     <g id="text_28">
      <!-- 3 -->
      <g transform="translate(58.1 57.795815) scale(0.16 -0.16)">
       <use xlink:href="#ArialMT-33"/>
      </g>
     </g>
    </g>
    <g id="text_29">
     <!-- NO$_{\mathregular{x}}$ (kg) -->
     <g transform="translate(49.14 181.89) rotate(-90) scale(0.18 -0.18)">
      <defs>
       <path id="ArialMT-4e" d="M 488 0 
L 488 4581 
L 1109 4581 
L 3516 984 
L 3516 4581 
L 4097 4581 
L 4097 0 
L 3475 0 
L 1069 3600 
L 1069 0 
L 488 0 
z
" transform="scale(0.015625)"/>
       <path id="ArialMT-4f" d="M 309 2231 
Q 309 3372 921 4017 
Q 1534 4663 2503 4663 
Q 3138 4663 3647 4359 
Q 4156 4056 4423 3514 
Q 4691 2972 4691 2284 
Q 4691 1588 4409 1038 
Q 4128 488 3612 205 
Q 3097 -78 2500 -78 
Q 1853 -78 1343 234 
Q 834 547 571 1087 
Q 309 1628 309 2231 
z
M 934 2222 
Q 934 1394 1379 917 
Q 1825 441 2497 441 
Q 3181 441 3623 922 
Q 4066 1403 4066 2288 
Q 4066 2847 3877 3264 
Q 3688 3681 3323 3911 
Q 2959 4141 2506 4141 
Q 1863 4141 1398 3698 
Q 934 3256 934 2222 
z
" transform="scale(0.015625)"/>
       <path id="ArialMT-78" d="M 47 0 
L 1259 1725 
L 138 3319 
L 841 3319 
L 1350 2541 
Q 1494 2319 1581 2169 
Q 1719 2375 1834 2534 
L 2394 3319 
L 3066 3319 
L 1919 1756 
L 3153 0 
L 2463 0 
L 1781 1031 
L 1600 1309 
L 728 0 
L 47 0 
z
" transform="scale(0.015625)"/>
       <path id="ArialMT-20" transform="scale(0.015625)"/>
       <path id="ArialMT-28" d="M 1497 -1347 
Q 1031 -759 709 28 
Q 388 816 388 1659 
Q 388 2403 628 3084 
Q 909 3875 1497 4659 
L 1900 4659 
Q 1522 4009 1400 3731 
Q 1209 3300 1100 2831 
Q 966 2247 966 1656 
Q 966 153 1900 -1347 
L 1497 -1347 
z
" transform="scale(0.015625)"/>
       <path id="ArialMT-6b" d="M 425 0 
L 425 4581 
L 988 4581 
L 988 1969 
L 2319 3319 
L 3047 3319 
L 1778 2088 
L 3175 0 
L 2481 0 
L 1384 1697 
L 988 1316 
L 988 0 
L 425 0 
z
" transform="scale(0.015625)"/>
       <path id="ArialMT-67" d="M 319 -275 
L 866 -356 
Q 900 -609 1056 -725 
Q 1266 -881 1628 -881 
Q 2019 -881 2231 -725 
Q 2444 -569 2519 -288 
Q 2563 -116 2559 434 
Q 2191 0 1641 0 
Q 956 0 581 494 
Q 206 988 206 1678 
Q 206 2153 378 2554 
Q 550 2956 876 3175 
Q 1203 3394 1644 3394 
Q 2231 3394 2613 2919 
L 2613 3319 
L 3131 3319 
L 3131 450 
Q 3131 -325 2973 -648 
Q 2816 -972 2473 -1159 
Q 2131 -1347 1631 -1347 
Q 1038 -1347 672 -1080 
Q 306 -813 319 -275 
z
M 784 1719 
Q 784 1066 1043 766 
Q 1303 466 1694 466 
Q 2081 466 2343 764 
Q 2606 1063 2606 1700 
Q 2606 2309 2336 2618 
Q 2066 2928 1684 2928 
Q 1309 2928 1046 2623 
Q 784 2319 784 1719 
z
" transform="scale(0.015625)"/>
       <path id="ArialMT-29" d="M 791 -1347 
L 388 -1347 
Q 1322 153 1322 1656 
Q 1322 2244 1188 2822 
Q 1081 3291 891 3722 
Q 769 4003 388 4659 
L 791 4659 
Q 1378 3875 1659 3084 
Q 1900 2403 1900 1659 
Q 1900 816 1576 28 
Q 1253 -759 791 -1347 
z
" transform="scale(0.015625)"/>
      </defs>
      <use xlink:href="#ArialMT-4e" transform="translate(0 0.140625)"/>
      <use xlink:href="#ArialMT-4f" transform="translate(72.216797 0.140625)"/>
      <use xlink:href="#ArialMT-78" transform="translate(150.957031 -16.265625) scale(0.7)"/>
      <use xlink:href="#ArialMT-20" transform="translate(188.691406 0.140625)"/>
      <use xlink:href="#ArialMT-28" transform="translate(216.474609 0.140625)"/>
      <use xlink:href="#ArialMT-6b" transform="translate(249.775391 0.140625)"/>
      <use xlink:href="#ArialMT-67" transform="translate(299.775391 0.140625)"/>
      <use xlink:href="#ArialMT-29" transform="translate(355.390625 0.140625)"/>
     </g>
    </g>
   </g>
   <g id="line2d_70">
    <path d="M 89.4475 238.272748 
L 117.3475 241.036203 
L 145.2475 241.647912 
L 173.1475 241.414268 
L 201.0475 237.998362 
L 228.9475 221.259539 
L 256.8475 203.985797 
L 284.7475 180.484949 
L 312.6475 171.908947 
L 340.5475 168.89648 
L 368.4475 167.154926 
L 396.3475 164.972735 
L 424.2475 164.383222 
L 452.1475 164.409038 
L 480.0475 163.947168 
L 507.9475 163.257063 
L 535.8475 163.238142 
L 563.7475 164.271222 
L 591.6475 169.955006 
L 619.5475 182.099165 
L 647.4475 196.380155 
L 675.3475 212.618944 
L 703.2475 228.825043 
L 731.1475 234.689168 
" clip-path="url(#p1c03d34517)" style="fill: none; stroke: #1f77b4; stroke-opacity: 0.8; stroke-width: 1.5; stroke-linecap: round"/>
   </g>
   <g id="line2d_71">
    <path d="M 89.4475 238.699722 
L 117.3475 240.941373 
L 145.2475 241.407078 
L 173.1475 241.25191 
L 201.0475 238.61533 
L 228.9475 225.27066 
L 256.8475 209.61321 
L 284.7475 191.352576 
L 312.6475 185.311316 
L 340.5475 183.23253 
L 368.4475 183.232813 
L 396.3475 181.230147 
L 424.2475 180.660363 
L 452.1475 180.597131 
L 480.0475 180.082155 
L 507.9475 179.165363 
L 535.8475 178.984316 
L 563.7475 179.898864 
L 591.6475 183.239269 
L 619.5475 194.541633 
L 647.4475 206.451542 
L 675.3475 219.037721 
L 703.2475 231.008297 
L 731.1475 235.787699 
" clip-path="url(#p1c03d34517)" style="fill: none; stroke: #dbdb8d; stroke-opacity: 0.8; stroke-width: 1.5; stroke-linecap: round"/>
   </g>
   <g id="line2d_72">
    <path d="M 89.4475 182.124753 
L 117.3475 198.604877 
L 145.2475 201.784405 
L 173.1475 201.123767 
L 201.0475 189.375407 
L 228.9475 137.745739 
L 256.8475 89.897049 
L 284.7475 81.173845 
L 312.6475 77.591545 
L 340.5475 75.327984 
L 368.4475 73.724609 
L 396.3475 71.589486 
L 424.2475 71.84081 
L 452.1475 71.459074 
L 480.0475 71.505328 
L 507.9475 70.734019 
L 535.8475 71.208252 
L 563.7475 72.570824 
L 591.6475 78.251985 
L 619.5475 85.170174 
L 647.4475 79.554646 
L 675.3475 98.040329 
L 703.2475 130.579184 
L 731.1475 153.573463 
" clip-path="url(#p1c03d34517)" style="fill: none; stroke: #ffbb78; stroke-opacity: 0.8; stroke-width: 1.5; stroke-linecap: round"/>
   </g>
   <g id="line2d_73">
    <path d="M 89.4475 175.66078 
L 117.3475 194.030539 
L 145.2475 197.43187 
L 173.1475 195.434704 
L 201.0475 182.789309 
L 228.9475 119.015405 
L 256.8475 84.696176 
L 284.7475 81.145747 
L 312.6475 78.445649 
L 340.5475 77.044577 
L 368.4475 74.143205 
L 396.3475 71.600493 
L 424.2475 71.417908 
L 452.1475 71.976019 
L 480.0475 72.154337 
L 507.9475 72.243361 
L 535.8475 72.20245 
L 563.7475 73.123534 
L 591.6475 79.312074 
L 619.5475 87.21331 
L 647.4475 94.894092 
L 675.3475 80.837483 
L 703.2475 116.738747 
L 731.1475 142.684966 
" clip-path="url(#p1c03d34517)" style="fill: none; stroke: #2ca02c; stroke-opacity: 0.8; stroke-width: 1.5; stroke-linecap: round"/>
   </g>
   <g id="line2d_74">
    <path d="M 89.4475 242.693686 
L 117.3475 243.820277 
L 145.2475 244.078838 
L 173.1475 243.992774 
L 201.0475 242.653418 
L 228.9475 221.886529 
L 256.8475 203.047742 
L 284.7475 181.07767 
L 312.6475 172.540121 
L 340.5475 168.939873 
L 368.4475 167.013663 
L 396.3475 164.807274 
L 424.2475 164.443569 
L 452.1475 164.684362 
L 480.0475 164.540586 
L 507.9475 163.538953 
L 535.8475 164.18905 
L 563.7475 165.184575 
L 591.6475 170.316769 
L 619.5475 184.292461 
L 647.4475 200.481081 
L 675.3475 216.47676 
L 703.2475 236.366267 
L 731.1475 240.567968 
" clip-path="url(#p1c03d34517)" style="fill: none; stroke: #ff7f0e; stroke-opacity: 0.8; stroke-width: 1.5; stroke-linecap: round"/>
   </g>
   <g id="line2d_75">
    <path d="M 89.4475 195.689545 
L 117.3475 210.282716 
L 145.2475 213.038296 
L 173.1475 211.627273 
L 201.0475 199.010738 
L 228.9475 139.735795 
L 256.8475 87.986718 
L 284.7475 80.191662 
L 312.6475 76.614513 
L 340.5475 74.490928 
L 368.4475 72.480195 
L 396.3475 69.904549 
L 424.2475 69.044677 
L 452.1475 69.557603 
L 480.0475 69.068965 
L 507.9475 69.042011 
L 535.8475 69.13848 
L 563.7475 70.335842 
L 591.6475 76.658605 
L 619.5475 84.484302 
L 647.4475 78.059949 
L 675.3475 103.299405 
L 703.2475 142.399127 
L 731.1475 168.247371 
" clip-path="url(#p1c03d34517)" style="fill: none; stroke: #98df8a; stroke-opacity: 0.8; stroke-width: 1.5; stroke-linecap: round"/>
   </g>
   <g id="line2d_76">
    <path d="M 89.4475 242.302024 
L 117.3475 243.86433 
L 145.2475 244.164073 
L 173.1475 244.120226 
L 201.0475 242.137381 
L 228.9475 225.345264 
L 256.8475 208.060757 
L 284.7475 185.289207 
L 312.6475 174.54649 
L 340.5475 170.882399 
L 368.4475 168.208676 
L 396.3475 166.054632 
L 424.2475 165.432921 
L 452.1475 165.768754 
L 480.0475 165.356133 
L 507.9475 164.628452 
L 535.8475 164.831497 
L 563.7475 166.466689 
L 591.6475 169.482295 
L 619.5475 189.459579 
L 647.4475 204.758613 
L 675.3475 219.789756 
L 703.2475 235.930311 
L 731.1475 240.015369 
" clip-path="url(#p1c03d34517)" style="fill: none; stroke: #17becf; stroke-opacity: 0.8; stroke-width: 1.5; stroke-linecap: round"/>
   </g>
   <g id="line2d_77">
    <path d="M 89.4475 198.024382 
L 117.3475 213.139553 
L 145.2475 215.694839 
L 173.1475 211.913262 
L 201.0475 194.510501 
L 228.9475 117.656677 
L 256.8475 66.642363 
L 284.7475 62.14452 
L 312.6475 59.871946 
L 340.5475 58.472869 
L 368.4475 56.890439 
L 396.3475 52.677402 
L 424.2475 51.530488 
L 452.1475 50.784862 
L 480.0475 50.280822 
L 507.9475 51.453208 
L 535.8475 53.172754 
L 563.7475 54.824239 
L 591.6475 60.580865 
L 619.5475 70.353608 
L 647.4475 66.633334 
L 675.3475 87.18061 
L 703.2475 135.990531 
L 731.1475 165.611996 
" clip-path="url(#p1c03d34517)" style="fill: none; stroke: #d62728; stroke-opacity: 0.8; stroke-width: 1.5; stroke-linecap: round"/>
   </g>
   <g id="line2d_78">
    <path d="M 89.4475 224.131734 
L 117.3475 231.851108 
L 145.2475 233.168541 
L 173.1475 231.82895 
L 201.0475 224.122829 
L 228.9475 183.21116 
L 256.8475 144.788356 
L 284.7475 134.683602 
L 312.6475 132.088213 
L 340.5475 131.045535 
L 368.4475 129.541853 
L 396.3475 127.400634 
L 424.2475 126.516395 
L 452.1475 126.159383 
L 480.0475 125.183094 
L 507.9475 124.567864 
L 535.8475 124.011146 
L 563.7475 125.709457 
L 591.6475 132.92442 
L 619.5475 141.359245 
L 647.4475 138.750612 
L 675.3475 162.785002 
L 703.2475 195.426122 
L 731.1475 210.693738 
" clip-path="url(#p1c03d34517)" style="fill: none; stroke: #9edae5; stroke-opacity: 0.8; stroke-width: 1.5; stroke-linecap: round"/>
   </g>
   <g id="line2d_79">
    <path d="M 89.4475 209.54262 
L 117.3475 220.747224 
L 145.2475 222.3505 
L 173.1475 218.263439 
L 201.0475 200.185389 
L 228.9475 143.066133 
L 256.8475 93.082338 
L 284.7475 68.465241 
L 312.6475 97.055847 
L 340.5475 100.443914 
L 368.4475 98.472995 
L 396.3475 95.503205 
L 424.2475 94.196402 
L 452.1475 93.206007 
L 480.0475 92.649359 
L 507.9475 92.413715 
L 535.8475 93.623243 
L 563.7475 95.896158 
L 591.6475 102.828639 
L 619.5475 69.659076 
L 647.4475 93.755535 
L 675.3475 126.465448 
L 703.2475 162.164817 
L 731.1475 186.281725 
" clip-path="url(#p1c03d34517)" style="fill: none; stroke: #9edae5; stroke-opacity: 0.8; stroke-width: 1.5; stroke-linecap: round"/>
   </g>
   <g id="line2d_80">
    <path d="M 89.4475 243.263541 
L 117.3475 244.360547 
L 145.2475 244.432278 
L 173.1475 244.567738 
L 201.0475 242.82255 
L 228.9475 226.916701 
L 256.8475 210.833778 
L 284.7475 190.301704 
L 312.6475 183.907963 
L 340.5475 178.196214 
L 368.4475 171.482348 
L 396.3475 171.97289 
L 424.2475 171.476344 
L 452.1475 171.257069 
L 480.0475 170.361137 
L 507.9475 169.172016 
L 535.8475 169.671939 
L 563.7475 171.710699 
L 591.6475 172.215169 
L 619.5475 192.244192 
L 647.4475 207.166392 
L 675.3475 221.052883 
L 703.2475 237.597263 
L 731.1475 241.382338 
" clip-path="url(#p1c03d34517)" style="fill: none; stroke: #f7b6d2; stroke-opacity: 0.8; stroke-width: 1.5; stroke-linecap: round"/>
   </g>
   <g id="line2d_81">
    <path d="M 89.4475 235.638669 
L 117.3475 239.12594 
L 145.2475 239.718589 
L 173.1475 239.544962 
L 201.0475 235.60091 
L 228.9475 207.416739 
L 256.8475 174.931583 
L 284.7475 140.403929 
L 312.6475 133.502517 
L 340.5475 128.247381 
L 368.4475 129.128382 
L 396.3475 127.415756 
L 424.2475 127.580103 
L 452.1475 126.684051 
L 480.0475 125.781418 
L 507.9475 124.129266 
L 535.8475 124.803057 
L 563.7475 127.082925 
L 591.6475 134.065437 
L 619.5475 147.692354 
L 647.4475 169.817121 
L 675.3475 194.979991 
L 703.2475 220.539196 
L 731.1475 230.318392 
" clip-path="url(#p1c03d34517)" style="fill: none; stroke: #7f7f7f; stroke-opacity: 0.8; stroke-width: 1.5; stroke-linecap: round"/>
   </g>
   <g id="line2d_82">
    <path d="M 89.4475 240.652833 
L 117.3475 242.862343 
L 145.2475 243.286852 
L 173.1475 243.316785 
L 201.0475 240.007666 
L 228.9475 218.435121 
L 256.8475 196.307323 
L 284.7475 164.621379 
L 312.6475 156.938328 
L 340.5475 151.436157 
L 368.4475 148.914588 
L 396.3475 146.555816 
L 424.2475 146.074945 
L 452.1475 145.591775 
L 480.0475 145.042505 
L 507.9475 143.516458 
L 535.8475 143.589896 
L 563.7475 146.178584 
L 591.6475 153.187792 
L 619.5475 168.874544 
L 647.4475 189.0095 
L 675.3475 210.881816 
L 703.2475 231.397608 
L 731.1475 237.436594 
" clip-path="url(#p1c03d34517)" style="fill: none; stroke: #1f77b4; stroke-opacity: 0.8; stroke-width: 1.5; stroke-linecap: round"/>
   </g>
   <g id="line2d_83">
    <path d="M 89.4475 240.750541 
L 117.3475 243.342776 
L 145.2475 243.865843 
L 173.1475 243.66489 
L 201.0475 239.760443 
L 228.9475 214.599026 
L 256.8475 188.121476 
L 284.7475 156.582942 
L 312.6475 148.819548 
L 340.5475 142.64592 
L 368.4475 141.375309 
L 396.3475 139.53889 
L 424.2475 139.517448 
L 452.1475 139.826484 
L 480.0475 137.233281 
L 507.9475 134.18786 
L 535.8475 134.115601 
L 563.7475 136.651629 
L 591.6475 143.555453 
L 619.5475 161.764807 
L 647.4475 184.984951 
L 675.3475 208.462437 
L 703.2475 230.558731 
L 731.1475 237.10635 
" clip-path="url(#p1c03d34517)" style="fill: none; stroke: #bcbd22; stroke-opacity: 0.8; stroke-width: 1.5; stroke-linecap: round"/>
   </g>
   <g id="line2d_84">
    <path d="M 89.4475 242.792452 
L 117.3475 243.996699 
L 145.2475 244.226858 
L 173.1475 244.179509 
L 201.0475 242.363883 
L 228.9475 225.874823 
L 256.8475 211.516795 
L 284.7475 188.904939 
L 312.6475 185.156108 
L 340.5475 178.66295 
L 368.4475 172.540482 
L 396.3475 170.540816 
L 424.2475 170.897377 
L 452.1475 170.016797 
L 480.0475 168.017227 
L 507.9475 165.670936 
L 535.8475 166.155779 
L 563.7475 168.102381 
L 591.6475 175.91101 
L 619.5475 190.629031 
L 647.4475 206.783057 
L 675.3475 222.803157 
L 703.2475 236.644412 
L 731.1475 240.940016 
" clip-path="url(#p1c03d34517)" style="fill: none; stroke: #8c564b; stroke-opacity: 0.8; stroke-width: 1.5; stroke-linecap: round"/>
   </g>
   <g id="line2d_85">
    <path d="M 89.4475 241.821895 
L 117.3475 243.355363 
L 145.2475 243.665135 
L 173.1475 243.44879 
L 201.0475 240.58108 
L 228.9475 220.453562 
L 256.8475 195.975475 
L 284.7475 169.805873 
L 312.6475 163.131989 
L 340.5475 158.466366 
L 368.4475 153.671966 
L 396.3475 151.393876 
L 424.2475 150.633486 
L 452.1475 149.947145 
L 480.0475 148.096574 
L 507.9475 146.092645 
L 535.8475 146.502353 
L 563.7475 149.135823 
L 591.6475 155.535296 
L 619.5475 180.154303 
L 647.4475 198.874755 
L 675.3475 217.485017 
L 703.2475 234.848165 
L 731.1475 239.302906 
" clip-path="url(#p1c03d34517)" style="fill: none; stroke: #c7c7c7; stroke-opacity: 0.8; stroke-width: 1.5; stroke-linecap: round"/>
   </g>
   <g id="line2d_86">
    <path d="M 89.4475 235.622902 
L 117.3475 239.105579 
L 145.2475 239.826139 
L 173.1475 239.503373 
L 201.0475 234.914339 
L 228.9475 209.295327 
L 256.8475 181.161997 
L 284.7475 149.421273 
L 312.6475 141.88987 
L 340.5475 137.19235 
L 368.4475 139.012512 
L 396.3475 137.177033 
L 424.2475 136.300064 
L 452.1475 135.252492 
L 480.0475 132.721621 
L 507.9475 130.223887 
L 535.8475 130.841606 
L 563.7475 133.08487 
L 591.6475 140.653207 
L 619.5475 153.692337 
L 647.4475 176.163679 
L 675.3475 199.405548 
L 703.2475 222.697722 
L 731.1475 230.684412 
" clip-path="url(#p1c03d34517)" style="fill: none; stroke: #9467bd; stroke-opacity: 0.8; stroke-width: 1.5; stroke-linecap: round"/>
   </g>
   <g id="line2d_87">
    <path d="M 89.4475 242.457781 
L 117.3475 243.954805 
L 145.2475 244.318088 
L 173.1475 244.246574 
L 201.0475 241.796249 
L 228.9475 221.856127 
L 256.8475 202.791305 
L 284.7475 178.032327 
L 312.6475 171.948511 
L 340.5475 165.124057 
L 368.4475 163.395816 
L 396.3475 161.338266 
L 424.2475 161.473471 
L 452.1475 161.501745 
L 480.0475 160.201404 
L 507.9475 158.890547 
L 535.8475 159.230404 
L 563.7475 161.497429 
L 591.6475 167.301378 
L 619.5475 180.629062 
L 647.4475 199.440337 
L 675.3475 217.724761 
L 703.2475 236.815508 
L 731.1475 240.532546 
" clip-path="url(#p1c03d34517)" style="fill: none; stroke: #e377c2; stroke-opacity: 0.8; stroke-width: 1.5; stroke-linecap: round"/>
   </g>
   <g id="line2d_88">
    <path d="M 89.4475 243.085952 
L 117.3475 244.342394 
L 145.2475 244.656193 
L 173.1475 244.59305 
L 201.0475 242.423719 
L 228.9475 224.778555 
L 256.8475 206.449494 
L 284.7475 180.169984 
L 312.6475 173.775274 
L 340.5475 166.576949 
L 368.4475 157.798471 
L 396.3475 156.367713 
L 424.2475 156.187208 
L 452.1475 156.743731 
L 480.0475 154.187591 
L 507.9475 151.898113 
L 535.8475 150.01283 
L 563.7475 152.988991 
L 591.6475 157.653067 
L 619.5475 184.076314 
L 647.4475 203.914955 
L 675.3475 221.361975 
L 703.2475 237.257363 
L 731.1475 241.091168 
" clip-path="url(#p1c03d34517)" style="fill: none; stroke: #c49c94; stroke-opacity: 0.8; stroke-width: 1.5; stroke-linecap: round"/>
   </g>
   <g id="line2d_89">
    <path d="M 89.4475 241.390796 
L 117.3475 243.510148 
L 145.2475 244.063524 
L 173.1475 243.981286 
L 201.0475 240.446109 
L 228.9475 219.933944 
L 256.8475 198.426446 
L 284.7475 169.803027 
L 312.6475 162.158661 
L 340.5475 155.082762 
L 368.4475 144.575761 
L 396.3475 142.981056 
L 424.2475 141.001736 
L 452.1475 140.297348 
L 480.0475 139.186897 
L 507.9475 138.277793 
L 535.8475 138.573407 
L 563.7475 141.781716 
L 591.6475 143.72388 
L 619.5475 173.388483 
L 647.4475 194.270388 
L 675.3475 215.920474 
L 703.2475 232.07488 
L 731.1475 238.283423 
" clip-path="url(#p1c03d34517)" style="fill: none; stroke: #c5b0d5; stroke-opacity: 0.8; stroke-width: 1.5; stroke-linecap: round"/>
   </g>
   <g id="line2d_90">
    <path d="M 89.4475 241.333947 
L 117.3475 243.970225 
L 145.2475 244.494901 
L 173.1475 244.306381 
L 201.0475 240.026318 
L 228.9475 212.188398 
L 256.8475 189.971205 
L 284.7475 158.65668 
L 312.6475 152.478294 
L 340.5475 144.808553 
L 368.4475 136.478883 
L 396.3475 133.844636 
L 424.2475 132.827495 
L 452.1475 133.169702 
L 480.0475 131.292225 
L 507.9475 129.185891 
L 535.8475 129.402902 
L 563.7475 131.84536 
L 591.6475 134.362322 
L 619.5475 163.313839 
L 647.4475 184.553199 
L 675.3475 207.730085 
L 703.2475 232.369724 
L 731.1475 238.191953 
" clip-path="url(#p1c03d34517)" style="fill: none; stroke: #ff9896; stroke-opacity: 0.8; stroke-width: 1.5; stroke-linecap: round"/>
   </g>
   <g id="line2d_91">
    <path d="M 89.4475 234.229101 
L 117.3475 238.693334 
L 145.2475 239.781364 
L 173.1475 239.205347 
L 201.0475 233.06048 
L 228.9475 209.145058 
L 256.8475 183.919231 
L 284.7475 151.835578 
L 312.6475 144.207369 
L 340.5475 138.577295 
L 368.4475 134.938485 
L 396.3475 132.70955 
L 424.2475 132.173658 
L 452.1475 130.815363 
L 480.0475 127.790905 
L 507.9475 125.217122 
L 535.8475 125.278871 
L 563.7475 128.316976 
L 591.6475 136.043695 
L 619.5475 150.887784 
L 647.4475 175.062841 
L 675.3475 198.141366 
L 703.2475 219.411528 
L 731.1475 228.478638 
" clip-path="url(#p1c03d34517)" style="fill: none; stroke: #aec7e8; stroke-opacity: 0.8; stroke-width: 1.5; stroke-linecap: round"/>
   </g>
   <g id="line2d_92">
    <path d="M 89.4475 240.816767 
L 117.3475 243.518001 
L 145.2475 244.181689 
L 173.1475 244.190581 
L 201.0475 240.139002 
L 228.9475 212.677063 
L 256.8475 190.653086 
L 284.7475 161.077033 
L 312.6475 150.880282 
L 340.5475 143.020317 
L 368.4475 134.311399 
L 396.3475 130.954223 
L 424.2475 129.980405 
L 452.1475 130.186234 
L 480.0475 129.077593 
L 507.9475 127.127876 
L 535.8475 127.164986 
L 563.7475 129.815625 
L 591.6475 133.470934 
L 619.5475 160.75695 
L 647.4475 182.298502 
L 675.3475 204.349021 
L 703.2475 232.857164 
L 731.1475 238.056545 
" clip-path="url(#p1c03d34517)" style="fill: none; stroke: #8c564b; stroke-opacity: 0.8; stroke-width: 1.5; stroke-linecap: round"/>
   </g>
   <g id="patch_3">
    <path d="M 75.4975 257.76 
L 75.4975 36 
" style="fill: none; stroke: #000000; stroke-linejoin: miter; stroke-linecap: square"/>
   </g>
   <g id="patch_4">
    <path d="M 745.0975 257.76 
L 745.0975 36 
" style="fill: none; stroke: #000000; stroke-linejoin: miter; stroke-linecap: square"/>
   </g>
   <g id="patch_5">
    <path d="M 75.4975 257.76 
L 745.0975 257.76 
" style="fill: none; stroke: #000000; stroke-linejoin: miter; stroke-linecap: square"/>
   </g>
   <g id="patch_6">
    <path d="M 75.4975 36 
L 745.0975 36 
" style="fill: none; stroke: #000000; stroke-linejoin: miter; stroke-linecap: square"/>
   </g>
  </g>
 </g>
 <defs>
  <clipPath id="p1c03d34517">
   <rect x="75.4975" y="36" width="669.6" height="221.76"/>
  </clipPath>
 </defs>
</svg>
