<?xml version="1.0" encoding="utf-8" standalone="no"?>
<!DOCTYPE svg PUBLIC "-//W3C//DTD SVG 1.1//EN"
  "http://www.w3.org/Graphics/SVG/1.1/DTD/svg11.dtd">
<svg xmlns:xlink="http://www.w3.org/1999/xlink" width="781.0975pt" height="338.0125pt" viewBox="0 0 781.0975 338.0125" xmlns="http://www.w3.org/2000/svg" version="1.1">
 <metadata>
  <rdf:RDF xmlns:dc="http://purl.org/dc/elements/1.1/" xmlns:cc="http://creativecommons.org/ns#" xmlns:rdf="http://www.w3.org/1999/02/22-rdf-syntax-ns#">
   <cc:Work>
    <dc:type rdf:resource="http://purl.org/dc/dcmitype/StillImage"/>
    <dc:date>2025-10-27T21:33:03.939035</dc:date>
    <dc:format>image/svg+xml</dc:format>
    <dc:creator>
     <cc:Agent>
      <dc:title>Matplotlib v3.10.7, https://matplotlib.org/</dc:title>
     </cc:Agent>
    </dc:creator>
   </cc:Work>
  </rdf:RDF>
 </metadata>
 <defs>
  <style type="text/css">*{stroke-linejoin: round; stroke-linecap: butt}</style>
 </defs>
 <g id="figure_1">
  <g id="patch_1">
   <path d="M 0 338.0125 
L 781.0975 338.0125 
L 781.0975 0 
L 0 0 
L 0 338.0125 
z
" style="fill: none"/>
  </g>
  <g id="axes_1">
   <g id="patch_2">
    <path d="M 75.4975 263.48625 
L 745.0975 263.48625 
L 745.0975 41.72625 
L 75.4975 41.72625 
L 75.4975 263.48625 
z
" style="fill: none"/>
   </g>
   <g id="line2d_1">
    <path d="M 95.788409 263.48625 
L 95.788409 41.72625 
" clip-path="url(#pa3ccd29ddf)" style="fill: none; stroke-dasharray: 0.74,0.32; stroke-dashoffset: 0; stroke: #a9a9a9; stroke-opacity: 0.5; stroke-width: 0.2"/>
   </g>
   <g id="line2d_2">
    <path d="M 116.079318 263.48625 
L 116.079318 41.72625 
" clip-path="url(#pa3ccd29ddf)" style="fill: none; stroke-dasharray: 0.74,0.32; stroke-dashoffset: 0; stroke: #a9a9a9; stroke-opacity: 0.5; stroke-width: 0.2"/>
   </g>
   <g id="line2d_3">
    <path d="M 136.370227 263.48625 
L 136.370227 41.72625 
" clip-path="url(#pa3ccd29ddf)" style="fill: none; stroke-dasharray: 0.74,0.32; stroke-dashoffset: 0; stroke: #a9a9a9; stroke-opacity: 0.5; stroke-width: 0.2"/>
   </g>
   <g id="line2d_4">
    <path d="M 156.661136 263.48625 
L 156.661136 41.72625 
" clip-path="url(#pa3ccd29ddf)" style="fill: none; stroke-dasharray: 0.74,0.32; stroke-dashoffset: 0; stroke: #a9a9a9; stroke-opacity: 0.5; stroke-width: 0.2"/>
   </g>
   <g id="line2d_5">
    <path d="M 176.952045 263.48625 
L 176.952045 41.72625 
" clip-path="url(#pa3ccd29ddf)" style="fill: none; stroke-dasharray: 0.74,0.32; stroke-dashoffset: 0; stroke: #a9a9a9; stroke-opacity: 0.5; stroke-width: 0.2"/>
   </g>
   <g id="line2d_6">
    <path d="M 197.242955 263.48625 
L 197.242955 41.72625 
" clip-path="url(#pa3ccd29ddf)" style="fill: none; stroke-dasharray: 0.74,0.32; stroke-dashoffset: 0; stroke: #a9a9a9; stroke-opacity: 0.5; stroke-width: 0.2"/>
   </g>
   <g id="line2d_7">
    <path d="M 217.533864 263.48625 
L 217.533864 41.72625 
" clip-path="url(#pa3ccd29ddf)" style="fill: none; stroke-dasharray: 0.74,0.32; stroke-dashoffset: 0; stroke: #a9a9a9; stroke-opacity: 0.5; stroke-width: 0.2"/>
   </g>
   <g id="line2d_8">
    <path d="M 237.824773 263.48625 
L 237.824773 41.72625 
" clip-path="url(#pa3ccd29ddf)" style="fill: none; stroke-dasharray: 0.74,0.32; stroke-dashoffset: 0; stroke: #a9a9a9; stroke-opacity: 0.5; stroke-width: 0.2"/>
   </g>
   <g id="line2d_9">
    <path d="M 258.115682 263.48625 
L 258.115682 41.72625 
" clip-path="url(#pa3ccd29ddf)" style="fill: none; stroke-dasharray: 0.74,0.32; stroke-dashoffset: 0; stroke: #a9a9a9; stroke-opacity: 0.5; stroke-width: 0.2"/>
   </g>
   <g id="line2d_10">
    <path d="M 278.406591 263.48625 
L 278.406591 41.72625 
" clip-path="url(#pa3ccd29ddf)" style="fill: none; stroke-dasharray: 0.74,0.32; stroke-dashoffset: 0; stroke: #a9a9a9; stroke-opacity: 0.5; stroke-width: 0.2"/>
   </g>
   <g id="line2d_11">
    <path d="M 298.6975 263.48625 
L 298.6975 41.72625 
" clip-path="url(#pa3ccd29ddf)" style="fill: none; stroke-dasharray: 0.74,0.32; stroke-dashoffset: 0; stroke: #a9a9a9; stroke-opacity: 0.5; stroke-width: 0.2"/>
   </g>
   <g id="line2d_12">
    <path d="M 318.988409 263.48625 
L 318.988409 41.72625 
" clip-path="url(#pa3ccd29ddf)" style="fill: none; stroke-dasharray: 0.74,0.32; stroke-dashoffset: 0; stroke: #a9a9a9; stroke-opacity: 0.5; stroke-width: 0.2"/>
   </g>
   <g id="line2d_13">
    <path d="M 339.279318 263.48625 
L 339.279318 41.72625 
" clip-path="url(#pa3ccd29ddf)" style="fill: none; stroke-dasharray: 0.74,0.32; stroke-dashoffset: 0; stroke: #a9a9a9; stroke-opacity: 0.5; stroke-width: 0.2"/>
   </g>
   <g id="line2d_14">
    <path d="M 359.570227 263.48625 
L 359.570227 41.72625 
" clip-path="url(#pa3ccd29ddf)" style="fill: none; stroke-dasharray: 0.74,0.32; stroke-dashoffset: 0; stroke: #a9a9a9; stroke-opacity: 0.5; stroke-width: 0.2"/>
   </g>
   <g id="line2d_15">
    <path d="M 379.861136 263.48625 
L 379.861136 41.72625 
" clip-path="url(#pa3ccd29ddf)" style="fill: none; stroke-dasharray: 0.74,0.32; stroke-dashoffset: 0; stroke: #a9a9a9; stroke-opacity: 0.5; stroke-width: 0.2"/>
   </g>
   <g id="line2d_16">
    <path d="M 400.152045 263.48625 
L 400.152045 41.72625 
" clip-path="url(#pa3ccd29ddf)" style="fill: none; stroke-dasharray: 0.74,0.32; stroke-dashoffset: 0; stroke: #a9a9a9; stroke-opacity: 0.5; stroke-width: 0.2"/>
   </g>
   <g id="line2d_17">
    <path d="M 420.442955 263.48625 
L 420.442955 41.72625 
" clip-path="url(#pa3ccd29ddf)" style="fill: none; stroke-dasharray: 0.74,0.32; stroke-dashoffset: 0; stroke: #a9a9a9; stroke-opacity: 0.5; stroke-width: 0.2"/>
   </g>
   <g id="line2d_18">
    <path d="M 440.733864 263.48625 
L 440.733864 41.72625 
" clip-path="url(#pa3ccd29ddf)" style="fill: none; stroke-dasharray: 0.74,0.32; stroke-dashoffset: 0; stroke: #a9a9a9; stroke-opacity: 0.5; stroke-width: 0.2"/>
   </g>
   <g id="line2d_19">
    <path d="M 461.024773 263.48625 
L 461.024773 41.72625 
" clip-path="url(#pa3ccd29ddf)" style="fill: none; stroke-dasharray: 0.74,0.32; stroke-dashoffset: 0; stroke: #a9a9a9; stroke-opacity: 0.5; stroke-width: 0.2"/>
   </g>
   <g id="line2d_20">
    <path d="M 481.315682 263.48625 
L 481.315682 41.72625 
" clip-path="url(#pa3ccd29ddf)" style="fill: none; stroke-dasharray: 0.74,0.32; stroke-dashoffset: 0; stroke: #a9a9a9; stroke-opacity: 0.5; stroke-width: 0.2"/>
   </g>
   <g id="line2d_21">
    <path d="M 501.606591 263.48625 
L 501.606591 41.72625 
" clip-path="url(#pa3ccd29ddf)" style="fill: none; stroke-dasharray: 0.74,0.32; stroke-dashoffset: 0; stroke: #a9a9a9; stroke-opacity: 0.5; stroke-width: 0.2"/>
   </g>
   <g id="line2d_22">
    <path d="M 521.8975 263.48625 
L 521.8975 41.72625 
" clip-path="url(#pa3ccd29ddf)" style="fill: none; stroke-dasharray: 0.74,0.32; stroke-dashoffset: 0; stroke: #a9a9a9; stroke-opacity: 0.5; stroke-width: 0.2"/>
   </g>
   <g id="line2d_23">
    <path d="M 542.188409 263.48625 
L 542.188409 41.72625 
" clip-path="url(#pa3ccd29ddf)" style="fill: none; stroke-dasharray: 0.74,0.32; stroke-dashoffset: 0; stroke: #a9a9a9; stroke-opacity: 0.5; stroke-width: 0.2"/>
   </g>
   <g id="line2d_24">
    <path d="M 562.479318 263.48625 
L 562.479318 41.72625 
" clip-path="url(#pa3ccd29ddf)" style="fill: none; stroke-dasharray: 0.74,0.32; stroke-dashoffset: 0; stroke: #a9a9a9; stroke-opacity: 0.5; stroke-width: 0.2"/>
   </g>
   <g id="line2d_25">
    <path d="M 582.770227 263.48625 
L 582.770227 41.72625 
" clip-path="url(#pa3ccd29ddf)" style="fill: none; stroke-dasharray: 0.74,0.32; stroke-dashoffset: 0; stroke: #a9a9a9; stroke-opacity: 0.5; stroke-width: 0.2"/>
   </g>
   <g id="line2d_26">
    <path d="M 603.061136 263.48625 
L 603.061136 41.72625 
" clip-path="url(#pa3ccd29ddf)" style="fill: none; stroke-dasharray: 0.74,0.32; stroke-dashoffset: 0; stroke: #a9a9a9; stroke-opacity: 0.5; stroke-width: 0.2"/>
   </g>
   <g id="line2d_27">
    <path d="M 623.352045 263.48625 
L 623.352045 41.72625 
" clip-path="url(#pa3ccd29ddf)" style="fill: none; stroke-dasharray: 0.74,0.32; stroke-dashoffset: 0; stroke: #a9a9a9; stroke-opacity: 0.5; stroke-width: 0.2"/>
   </g>
   <g id="line2d_28">
    <path d="M 643.642955 263.48625 
L 643.642955 41.72625 
" clip-path="url(#pa3ccd29ddf)" style="fill: none; stroke-dasharray: 0.74,0.32; stroke-dashoffset: 0; stroke: #a9a9a9; stroke-opacity: 0.5; stroke-width: 0.2"/>
   </g>
   <g id="line2d_29">
    <path d="M 663.933864 263.48625 
L 663.933864 41.72625 
" clip-path="url(#pa3ccd29ddf)" style="fill: none; stroke-dasharray: 0.74,0.32; stroke-dashoffset: 0; stroke: #a9a9a9; stroke-opacity: 0.5; stroke-width: 0.2"/>
   </g>
   <g id="line2d_30">
    <path d="M 684.224773 263.48625 
L 684.224773 41.72625 
" clip-path="url(#pa3ccd29ddf)" style="fill: none; stroke-dasharray: 0.74,0.32; stroke-dashoffset: 0; stroke: #a9a9a9; stroke-opacity: 0.5; stroke-width: 0.2"/>
   </g>
   <g id="line2d_31">
    <path d="M 704.515682 263.48625 
L 704.515682 41.72625 
" clip-path="url(#pa3ccd29ddf)" style="fill: none; stroke-dasharray: 0.74,0.32; stroke-dashoffset: 0; stroke: #a9a9a9; stroke-opacity: 0.5; stroke-width: 0.2"/>
   </g>
   <g id="line2d_32">
    <path d="M 724.806591 263.48625 
L 724.806591 41.72625 
" clip-path="url(#pa3ccd29ddf)" style="fill: none; stroke-dasharray: 0.74,0.32; stroke-dashoffset: 0; stroke: #a9a9a9; stroke-opacity: 0.5; stroke-width: 0.2"/>
   </g>
   <g id="line2d_33">
    <path d="M 75.4975 241.31025 
L 745.0975 241.31025 
" clip-path="url(#pa3ccd29ddf)" style="fill: none; stroke-dasharray: 0.74,0.32; stroke-dashoffset: 0; stroke: #a9a9a9; stroke-opacity: 0.5; stroke-width: 0.2"/>
   </g>
   <g id="line2d_34">
    <path d="M 75.4975 219.13425 
L 745.0975 219.13425 
" clip-path="url(#pa3ccd29ddf)" style="fill: none; stroke-dasharray: 0.74,0.32; stroke-dashoffset: 0; stroke: #a9a9a9; stroke-opacity: 0.5; stroke-width: 0.2"/>
   </g>
   <g id="line2d_35">
    <path d="M 75.4975 196.95825 
L 745.0975 196.95825 
" clip-path="url(#pa3ccd29ddf)" style="fill: none; stroke-dasharray: 0.74,0.32; stroke-dashoffset: 0; stroke: #a9a9a9; stroke-opacity: 0.5; stroke-width: 0.2"/>
   </g>
   <g id="line2d_36">
    <path d="M 75.4975 174.78225 
L 745.0975 174.78225 
" clip-path="url(#pa3ccd29ddf)" style="fill: none; stroke-dasharray: 0.74,0.32; stroke-dashoffset: 0; stroke: #a9a9a9; stroke-opacity: 0.5; stroke-width: 0.2"/>
   </g>
   <g id="line2d_37">
    <path d="M 75.4975 152.60625 
L 745.0975 152.60625 
" clip-path="url(#pa3ccd29ddf)" style="fill: none; stroke-dasharray: 0.74,0.32; stroke-dashoffset: 0; stroke: #a9a9a9; stroke-opacity: 0.5; stroke-width: 0.2"/>
   </g>
   <g id="line2d_38">
    <path d="M 75.4975 130.43025 
L 745.0975 130.43025 
" clip-path="url(#pa3ccd29ddf)" style="fill: none; stroke-dasharray: 0.74,0.32; stroke-dashoffset: 0; stroke: #a9a9a9; stroke-opacity: 0.5; stroke-width: 0.2"/>
   </g>
   <g id="line2d_39">
    <path d="M 75.4975 108.25425 
L 745.0975 108.25425 
" clip-path="url(#pa3ccd29ddf)" style="fill: none; stroke-dasharray: 0.74,0.32; stroke-dashoffset: 0; stroke: #a9a9a9; stroke-opacity: 0.5; stroke-width: 0.2"/>
   </g>
   <g id="line2d_40">
    <path d="M 75.4975 86.07825 
L 745.0975 86.07825 
" clip-path="url(#pa3ccd29ddf)" style="fill: none; stroke-dasharray: 0.74,0.32; stroke-dashoffset: 0; stroke: #a9a9a9; stroke-opacity: 0.5; stroke-width: 0.2"/>
   </g>
   <g id="line2d_41">
    <path d="M 75.4975 63.90225 
L 745.0975 63.90225 
" clip-path="url(#pa3ccd29ddf)" style="fill: none; stroke-dasharray: 0.74,0.32; stroke-dashoffset: 0; stroke: #a9a9a9; stroke-opacity: 0.5; stroke-width: 0.2"/>
   </g>
   <g id="matplotlib.axis_1">
    <g id="xtick_1">
     <g id="line2d_42">
      <defs>
       <path id="m308c6f061f" d="M 0 0 
L 0 5 
" style="stroke: #000000"/>
      </defs>
      <g>
       <use xlink:href="#m308c6f061f" x="89.4475" y="263.48625" style="stroke: #000000"/>
      </g>
     </g>
     <g id="text_1">
      <!-- 1:00 -->
      <g transform="translate(92.549688 295.339375) rotate(-90) scale(0.12 -0.12)">
       <defs>
        <path id="ArialMT-31" d="M 2384 0 
L 1822 0 
L 1822 3584 
Q 1619 3391 1289 3197 
Q 959 3003 697 2906 
L 697 3450 
Q 1169 3672 1522 3987 
Q 1875 4303 2022 4600 
L 2384 4600 
L 2384 0 
z
" transform="scale(0.015625)"/>
        <path id="ArialMT-3a" d="M 578 2678 
L 578 3319 
L 1219 3319 
L 1219 2678 
L 578 2678 
z
M 578 0 
L 578 641 
L 1219 641 
L 1219 0 
L 578 0 
z
" transform="scale(0.015625)"/>
        <path id="ArialMT-30" d="M 266 2259 
Q 266 3072 433 3567 
Q 600 4063 929 4331 
Q 1259 4600 1759 4600 
Q 2128 4600 2406 4451 
Q 2684 4303 2865 4023 
Q 3047 3744 3150 3342 
Q 3253 2941 3253 2259 
Q 3253 1453 3087 958 
Q 2922 463 2592 192 
Q 2263 -78 1759 -78 
Q 1097 -78 719 397 
Q 266 969 266 2259 
z
M 844 2259 
Q 844 1131 1108 757 
Q 1372 384 1759 384 
Q 2147 384 2411 759 
Q 2675 1134 2675 2259 
Q 2675 3391 2411 3762 
Q 2147 4134 1753 4134 
Q 1366 4134 1134 3806 
Q 844 3388 844 2259 
z
" transform="scale(0.015625)"/>
       </defs>
       <use xlink:href="#ArialMT-31"/>
       <use xlink:href="#ArialMT-3a" transform="translate(55.615234 0)"/>
       <use xlink:href="#ArialMT-30" transform="translate(83.398438 0)"/>
       <use xlink:href="#ArialMT-30" transform="translate(139.013672 0)"/>
      </g>
     </g>
    </g>
    <g id="xtick_2">
     <g id="line2d_43">
      <g>
       <use xlink:href="#m308c6f061f" x="117.3475" y="263.48625" style="stroke: #000000"/>
      </g>
     </g>
     <g id="text_2">
      <!-- 2:00 -->
      <g transform="translate(120.449688 295.339375) rotate(-90) scale(0.12 -0.12)">
       <defs>
        <path id="ArialMT-32" d="M 3222 541 
L 3222 0 
L 194 0 
Q 188 203 259 391 
Q 375 700 629 1000 
Q 884 1300 1366 1694 
Q 2113 2306 2375 2664 
Q 2638 3022 2638 3341 
Q 2638 3675 2398 3904 
Q 2159 4134 1775 4134 
Q 1369 4134 1125 3890 
Q 881 3647 878 3216 
L 300 3275 
Q 359 3922 746 4261 
Q 1134 4600 1788 4600 
Q 2447 4600 2831 4234 
Q 3216 3869 3216 3328 
Q 3216 3053 3103 2787 
Q 2991 2522 2730 2228 
Q 2469 1934 1863 1422 
Q 1356 997 1212 845 
Q 1069 694 975 541 
L 3222 541 
z
" transform="scale(0.015625)"/>
       </defs>
       <use xlink:href="#ArialMT-32"/>
       <use xlink:href="#ArialMT-3a" transform="translate(55.615234 0)"/>
       <use xlink:href="#ArialMT-30" transform="translate(83.398438 0)"/>
       <use xlink:href="#ArialMT-30" transform="translate(139.013672 0)"/>
      </g>
     </g>
    </g>
    <g id="xtick_3">
     <g id="line2d_44">
      <g>
       <use xlink:href="#m308c6f061f" x="145.2475" y="263.48625" style="stroke: #000000"/>
      </g>
     </g>
     <g id="text_3">
      <!-- 3:00 -->
      <g transform="translate(148.349688 295.339375) rotate(-90) scale(0.12 -0.12)">
       <defs>
        <path id="ArialMT-33" d="M 269 1209 
L 831 1284 
Q 928 806 1161 595 
Q 1394 384 1728 384 
Q 2125 384 2398 659 
Q 2672 934 2672 1341 
Q 2672 1728 2419 1979 
Q 2166 2231 1775 2231 
Q 1616 2231 1378 2169 
L 1441 2663 
Q 1497 2656 1531 2656 
Q 1891 2656 2178 2843 
Q 2466 3031 2466 3422 
Q 2466 3731 2256 3934 
Q 2047 4138 1716 4138 
Q 1388 4138 1169 3931 
Q 950 3725 888 3313 
L 325 3413 
Q 428 3978 793 4289 
Q 1159 4600 1703 4600 
Q 2078 4600 2393 4439 
Q 2709 4278 2876 4000 
Q 3044 3722 3044 3409 
Q 3044 3113 2884 2869 
Q 2725 2625 2413 2481 
Q 2819 2388 3044 2092 
Q 3269 1797 3269 1353 
Q 3269 753 2831 336 
Q 2394 -81 1725 -81 
Q 1122 -81 723 278 
Q 325 638 269 1209 
z
" transform="scale(0.015625)"/>
       </defs>
       <use xlink:href="#ArialMT-33"/>
       <use xlink:href="#ArialMT-3a" transform="translate(55.615234 0)"/>
       <use xlink:href="#ArialMT-30" transform="translate(83.398438 0)"/>
       <use xlink:href="#ArialMT-30" transform="translate(139.013672 0)"/>
      </g>
     </g>
    </g>
    <g id="xtick_4">
     <g id="line2d_45">
      <g>
       <use xlink:href="#m308c6f061f" x="173.1475" y="263.48625" style="stroke: #000000"/>
      </g>
     </g>
     <g id="text_4">
      <!-- 4:00 -->
      <g transform="translate(176.249688 295.339375) rotate(-90) scale(0.12 -0.12)">
       <defs>
        <path id="ArialMT-34" d="M 2069 0 
L 2069 1097 
L 81 1097 
L 81 1613 
L 2172 4581 
L 2631 4581 
L 2631 1613 
L 3250 1613 
L 3250 1097 
L 2631 1097 
L 2631 0 
L 2069 0 
z
M 2069 1613 
L 2069 3678 
L 634 1613 
L 2069 1613 
z
" transform="scale(0.015625)"/>
       </defs>
       <use xlink:href="#ArialMT-34"/>
       <use xlink:href="#ArialMT-3a" transform="translate(55.615234 0)"/>
       <use xlink:href="#ArialMT-30" transform="translate(83.398438 0)"/>
       <use xlink:href="#ArialMT-30" transform="translate(139.013672 0)"/>
      </g>
     </g>
    </g>
    <g id="xtick_5">
     <g id="line2d_46">
      <g>
       <use xlink:href="#m308c6f061f" x="201.0475" y="263.48625" style="stroke: #000000"/>
      </g>
     </g>
     <g id="text_5">
      <!-- 5:00 -->
      <g transform="translate(204.149688 295.339375) rotate(-90) scale(0.12 -0.12)">
       <defs>
        <path id="ArialMT-35" d="M 266 1200 
L 856 1250 
Q 922 819 1161 601 
Q 1400 384 1738 384 
Q 2144 384 2425 690 
Q 2706 997 2706 1503 
Q 2706 1984 2436 2262 
Q 2166 2541 1728 2541 
Q 1456 2541 1237 2417 
Q 1019 2294 894 2097 
L 366 2166 
L 809 4519 
L 3088 4519 
L 3088 3981 
L 1259 3981 
L 1013 2750 
Q 1425 3038 1878 3038 
Q 2478 3038 2890 2622 
Q 3303 2206 3303 1553 
Q 3303 931 2941 478 
Q 2500 -78 1738 -78 
Q 1113 -78 717 272 
Q 322 622 266 1200 
z
" transform="scale(0.015625)"/>
       </defs>
       <use xlink:href="#ArialMT-35"/>
       <use xlink:href="#ArialMT-3a" transform="translate(55.615234 0)"/>
       <use xlink:href="#ArialMT-30" transform="translate(83.398438 0)"/>
       <use xlink:href="#ArialMT-30" transform="translate(139.013672 0)"/>
      </g>
     </g>
    </g>
    <g id="xtick_6">
     <g id="line2d_47">
      <g>
       <use xlink:href="#m308c6f061f" x="228.9475" y="263.48625" style="stroke: #000000"/>
      </g>
     </g>
     <g id="text_6">
      <!-- 6:00 -->
      <g transform="translate(232.049688 295.339375) rotate(-90) scale(0.12 -0.12)">
       <defs>
        <path id="ArialMT-36" d="M 3184 3459 
L 2625 3416 
Q 2550 3747 2413 3897 
Q 2184 4138 1850 4138 
Q 1581 4138 1378 3988 
Q 1113 3794 959 3422 
Q 806 3050 800 2363 
Q 1003 2672 1297 2822 
Q 1591 2972 1913 2972 
Q 2475 2972 2870 2558 
Q 3266 2144 3266 1488 
Q 3266 1056 3080 686 
Q 2894 316 2569 119 
Q 2244 -78 1831 -78 
Q 1128 -78 684 439 
Q 241 956 241 2144 
Q 241 3472 731 4075 
Q 1159 4600 1884 4600 
Q 2425 4600 2770 4297 
Q 3116 3994 3184 3459 
z
M 888 1484 
Q 888 1194 1011 928 
Q 1134 663 1356 523 
Q 1578 384 1822 384 
Q 2178 384 2434 671 
Q 2691 959 2691 1453 
Q 2691 1928 2437 2201 
Q 2184 2475 1800 2475 
Q 1419 2475 1153 2201 
Q 888 1928 888 1484 
z
" transform="scale(0.015625)"/>
       </defs>
       <use xlink:href="#ArialMT-36"/>
       <use xlink:href="#ArialMT-3a" transform="translate(55.615234 0)"/>
       <use xlink:href="#ArialMT-30" transform="translate(83.398438 0)"/>
       <use xlink:href="#ArialMT-30" transform="translate(139.013672 0)"/>
      </g>
     </g>
    </g>
    <g id="xtick_7">
     <g id="line2d_48">
      <g>
       <use xlink:href="#m308c6f061f" x="256.8475" y="263.48625" style="stroke: #000000"/>
      </g>
     </g>
     <g id="text_7">
      <!-- 7:00 -->
      <g transform="translate(259.949688 295.339375) rotate(-90) scale(0.12 -0.12)">
       <defs>
        <path id="ArialMT-37" d="M 303 3981 
L 303 4522 
L 3269 4522 
L 3269 4084 
Q 2831 3619 2401 2847 
Q 1972 2075 1738 1259 
Q 1569 684 1522 0 
L 944 0 
Q 953 541 1156 1306 
Q 1359 2072 1739 2783 
Q 2119 3494 2547 3981 
L 303 3981 
z
" transform="scale(0.015625)"/>
       </defs>
       <use xlink:href="#ArialMT-37"/>
       <use xlink:href="#ArialMT-3a" transform="translate(55.615234 0)"/>
       <use xlink:href="#ArialMT-30" transform="translate(83.398438 0)"/>
       <use xlink:href="#ArialMT-30" transform="translate(139.013672 0)"/>
      </g>
     </g>
    </g>
    <g id="xtick_8">
     <g id="line2d_49">
      <g>
       <use xlink:href="#m308c6f061f" x="284.7475" y="263.48625" style="stroke: #000000"/>
      </g>
     </g>
     <g id="text_8">
      <!-- 8:00 -->
      <g transform="translate(287.849688 295.339375) rotate(-90) scale(0.12 -0.12)">
       <defs>
        <path id="ArialMT-38" d="M 1131 2484 
Q 781 2613 612 2850 
Q 444 3088 444 3419 
Q 444 3919 803 4259 
Q 1163 4600 1759 4600 
Q 2359 4600 2725 4251 
Q 3091 3903 3091 3403 
Q 3091 3084 2923 2848 
Q 2756 2613 2416 2484 
Q 2838 2347 3058 2040 
Q 3278 1734 3278 1309 
Q 3278 722 2862 322 
Q 2447 -78 1769 -78 
Q 1091 -78 675 323 
Q 259 725 259 1325 
Q 259 1772 486 2073 
Q 713 2375 1131 2484 
z
M 1019 3438 
Q 1019 3113 1228 2906 
Q 1438 2700 1772 2700 
Q 2097 2700 2305 2904 
Q 2513 3109 2513 3406 
Q 2513 3716 2298 3927 
Q 2084 4138 1766 4138 
Q 1444 4138 1231 3931 
Q 1019 3725 1019 3438 
z
M 838 1322 
Q 838 1081 952 856 
Q 1066 631 1291 507 
Q 1516 384 1775 384 
Q 2178 384 2440 643 
Q 2703 903 2703 1303 
Q 2703 1709 2433 1975 
Q 2163 2241 1756 2241 
Q 1359 2241 1098 1978 
Q 838 1716 838 1322 
z
" transform="scale(0.015625)"/>
       </defs>
       <use xlink:href="#ArialMT-38"/>
       <use xlink:href="#ArialMT-3a" transform="translate(55.615234 0)"/>
       <use xlink:href="#ArialMT-30" transform="translate(83.398438 0)"/>
       <use xlink:href="#ArialMT-30" transform="translate(139.013672 0)"/>
      </g>
     </g>
    </g>
    <g id="xtick_9">
     <g id="line2d_50">
      <g>
       <use xlink:href="#m308c6f061f" x="312.6475" y="263.48625" style="stroke: #000000"/>
      </g>
     </g>
     <g id="text_9">
      <!-- 9:00 -->
      <g transform="translate(315.749688 295.339375) rotate(-90) scale(0.12 -0.12)">
       <defs>
        <path id="ArialMT-39" d="M 350 1059 
L 891 1109 
Q 959 728 1153 556 
Q 1347 384 1650 384 
Q 1909 384 2104 503 
Q 2300 622 2425 820 
Q 2550 1019 2634 1356 
Q 2719 1694 2719 2044 
Q 2719 2081 2716 2156 
Q 2547 1888 2255 1720 
Q 1963 1553 1622 1553 
Q 1053 1553 659 1965 
Q 266 2378 266 3053 
Q 266 3750 677 4175 
Q 1088 4600 1706 4600 
Q 2153 4600 2523 4359 
Q 2894 4119 3086 3673 
Q 3278 3228 3278 2384 
Q 3278 1506 3087 986 
Q 2897 466 2520 194 
Q 2144 -78 1638 -78 
Q 1100 -78 759 220 
Q 419 519 350 1059 
z
M 2653 3081 
Q 2653 3566 2395 3850 
Q 2138 4134 1775 4134 
Q 1400 4134 1122 3828 
Q 844 3522 844 3034 
Q 844 2597 1108 2323 
Q 1372 2050 1759 2050 
Q 2150 2050 2401 2323 
Q 2653 2597 2653 3081 
z
" transform="scale(0.015625)"/>
       </defs>
       <use xlink:href="#ArialMT-39"/>
       <use xlink:href="#ArialMT-3a" transform="translate(55.615234 0)"/>
       <use xlink:href="#ArialMT-30" transform="translate(83.398438 0)"/>
       <use xlink:href="#ArialMT-30" transform="translate(139.013672 0)"/>
      </g>
     </g>
    </g>
    <g id="xtick_10">
     <g id="line2d_51">
      <g>
       <use xlink:href="#m308c6f061f" x="340.5475" y="263.48625" style="stroke: #000000"/>
      </g>
     </g>
     <g id="text_10">
      <!-- 10:00 -->
      <g transform="translate(343.649688 302.0125) rotate(-90) scale(0.12 -0.12)">
       <use xlink:href="#ArialMT-31"/>
       <use xlink:href="#ArialMT-30" transform="translate(55.615234 0)"/>
       <use xlink:href="#ArialMT-3a" transform="translate(111.230469 0)"/>
       <use xlink:href="#ArialMT-30" transform="translate(139.013672 0)"/>
       <use xlink:href="#ArialMT-30" transform="translate(194.628906 0)"/>
      </g>
     </g>
    </g>
    <g id="xtick_11">
     <g id="line2d_52">
      <g>
       <use xlink:href="#m308c6f061f" x="368.4475" y="263.48625" style="stroke: #000000"/>
      </g>
     </g>
     <g id="text_11">
      <!-- 11:00 -->
      <g transform="translate(371.549688 301.1275) rotate(-90) scale(0.12 -0.12)">
       <use xlink:href="#ArialMT-31"/>
       <use xlink:href="#ArialMT-31" transform="translate(48.240234 0)"/>
       <use xlink:href="#ArialMT-3a" transform="translate(103.855469 0)"/>
       <use xlink:href="#ArialMT-30" transform="translate(131.638672 0)"/>
       <use xlink:href="#ArialMT-30" transform="translate(187.253906 0)"/>
      </g>
     </g>
    </g>
    <g id="xtick_12">
     <g id="line2d_53">
      <g>
       <use xlink:href="#m308c6f061f" x="396.3475" y="263.48625" style="stroke: #000000"/>
      </g>
     </g>
     <g id="text_12">
      <!-- 12:00 -->
      <g transform="translate(399.449688 302.0125) rotate(-90) scale(0.12 -0.12)">
       <use xlink:href="#ArialMT-31"/>
       <use xlink:href="#ArialMT-32" transform="translate(55.615234 0)"/>
       <use xlink:href="#ArialMT-3a" transform="translate(111.230469 0)"/>
       <use xlink:href="#ArialMT-30" transform="translate(139.013672 0)"/>
       <use xlink:href="#ArialMT-30" transform="translate(194.628906 0)"/>
      </g>
     </g>
    </g>
    <g id="xtick_13">
     <g id="line2d_54">
      <g>
       <use xlink:href="#m308c6f061f" x="424.2475" y="263.48625" style="stroke: #000000"/>
      </g>
     </g>
     <g id="text_13">
      <!-- 13:00 -->
      <g transform="translate(427.349688 302.0125) rotate(-90) scale(0.12 -0.12)">
       <use xlink:href="#ArialMT-31"/>
       <use xlink:href="#ArialMT-33" transform="translate(55.615234 0)"/>
       <use xlink:href="#ArialMT-3a" transform="translate(111.230469 0)"/>
       <use xlink:href="#ArialMT-30" transform="translate(139.013672 0)"/>
       <use xlink:href="#ArialMT-30" transform="translate(194.628906 0)"/>
      </g>
     </g>
    </g>
    <g id="xtick_14">
     <g id="line2d_55">
      <g>
       <use xlink:href="#m308c6f061f" x="452.1475" y="263.48625" style="stroke: #000000"/>
      </g>
     </g>
     <g id="text_14">
      <!-- 14:00 -->
      <g transform="translate(455.249688 302.0125) rotate(-90) scale(0.12 -0.12)">
       <use xlink:href="#ArialMT-31"/>
       <use xlink:href="#ArialMT-34" transform="translate(55.615234 0)"/>
       <use xlink:href="#ArialMT-3a" transform="translate(111.230469 0)"/>
       <use xlink:href="#ArialMT-30" transform="translate(139.013672 0)"/>
       <use xlink:href="#ArialMT-30" transform="translate(194.628906 0)"/>
      </g>
     </g>
    </g>
    <g id="xtick_15">
     <g id="line2d_56">
      <g>
       <use xlink:href="#m308c6f061f" x="480.0475" y="263.48625" style="stroke: #000000"/>
      </g>
     </g>
     <g id="text_15">
      <!-- 15:00 -->
      <g transform="translate(483.149688 302.0125) rotate(-90) scale(0.12 -0.12)">
       <use xlink:href="#ArialMT-31"/>
       <use xlink:href="#ArialMT-35" transform="translate(55.615234 0)"/>
       <use xlink:href="#ArialMT-3a" transform="translate(111.230469 0)"/>
       <use xlink:href="#ArialMT-30" transform="translate(139.013672 0)"/>
       <use xlink:href="#ArialMT-30" transform="translate(194.628906 0)"/>
      </g>
     </g>
    </g>
    <g id="xtick_16">
     <g id="line2d_57">
      <g>
       <use xlink:href="#m308c6f061f" x="507.9475" y="263.48625" style="stroke: #000000"/>
      </g>
     </g>
     <g id="text_16">
      <!-- 16:00 -->
      <g transform="translate(511.049688 302.0125) rotate(-90) scale(0.12 -0.12)">
       <use xlink:href="#ArialMT-31"/>
       <use xlink:href="#ArialMT-36" transform="translate(55.615234 0)"/>
       <use xlink:href="#ArialMT-3a" transform="translate(111.230469 0)"/>
       <use xlink:href="#ArialMT-30" transform="translate(139.013672 0)"/>
       <use xlink:href="#ArialMT-30" transform="translate(194.628906 0)"/>
      </g>
     </g>
    </g>
    <g id="xtick_17">
     <g id="line2d_58">
      <g>
       <use xlink:href="#m308c6f061f" x="535.8475" y="263.48625" style="stroke: #000000"/>
      </g>
     </g>
     <g id="text_17">
      <!-- 17:00 -->
      <g transform="translate(538.949688 302.0125) rotate(-90) scale(0.12 -0.12)">
       <use xlink:href="#ArialMT-31"/>
       <use xlink:href="#ArialMT-37" transform="translate(55.615234 0)"/>
       <use xlink:href="#ArialMT-3a" transform="translate(111.230469 0)"/>
       <use xlink:href="#ArialMT-30" transform="translate(139.013672 0)"/>
       <use xlink:href="#ArialMT-30" transform="translate(194.628906 0)"/>
      </g>
     </g>
    </g>
    <g id="xtick_18">
     <g id="line2d_59">
      <g>
       <use xlink:href="#m308c6f061f" x="563.7475" y="263.48625" style="stroke: #000000"/>
      </g>
     </g>
     <g id="text_18">
      <!-- 18:00 -->
      <g transform="translate(566.849688 302.0125) rotate(-90) scale(0.12 -0.12)">
       <use xlink:href="#ArialMT-31"/>
       <use xlink:href="#ArialMT-38" transform="translate(55.615234 0)"/>
       <use xlink:href="#ArialMT-3a" transform="translate(111.230469 0)"/>
       <use xlink:href="#ArialMT-30" transform="translate(139.013672 0)"/>
       <use xlink:href="#ArialMT-30" transform="translate(194.628906 0)"/>
      </g>
     </g>
    </g>
    <g id="xtick_19">
     <g id="line2d_60">
      <g>
       <use xlink:href="#m308c6f061f" x="591.6475" y="263.48625" style="stroke: #000000"/>
      </g>
     </g>
     <g id="text_19">
      <!-- 19:00 -->
      <g transform="translate(594.749688 302.0125) rotate(-90) scale(0.12 -0.12)">
       <use xlink:href="#ArialMT-31"/>
       <use xlink:href="#ArialMT-39" transform="translate(55.615234 0)"/>
       <use xlink:href="#ArialMT-3a" transform="translate(111.230469 0)"/>
       <use xlink:href="#ArialMT-30" transform="translate(139.013672 0)"/>
       <use xlink:href="#ArialMT-30" transform="translate(194.628906 0)"/>
      </g>
     </g>
    </g>
    <g id="xtick_20">
     <g id="line2d_61">
      <g>
       <use xlink:href="#m308c6f061f" x="619.5475" y="263.48625" style="stroke: #000000"/>
      </g>
     </g>
     <g id="text_20">
      <!-- 20:00 -->
      <g transform="translate(622.649688 302.0125) rotate(-90) scale(0.12 -0.12)">
       <use xlink:href="#ArialMT-32"/>
       <use xlink:href="#ArialMT-30" transform="translate(55.615234 0)"/>
       <use xlink:href="#ArialMT-3a" transform="translate(111.230469 0)"/>
       <use xlink:href="#ArialMT-30" transform="translate(139.013672 0)"/>
       <use xlink:href="#ArialMT-30" transform="translate(194.628906 0)"/>
      </g>
     </g>
    </g>
    <g id="xtick_21">
     <g id="line2d_62">
      <g>
       <use xlink:href="#m308c6f061f" x="647.4475" y="263.48625" style="stroke: #000000"/>
      </g>
     </g>
     <g id="text_21">
      <!-- 21:00 -->
      <g transform="translate(650.549688 302.0125) rotate(-90) scale(0.12 -0.12)">
       <use xlink:href="#ArialMT-32"/>
       <use xlink:href="#ArialMT-31" transform="translate(55.615234 0)"/>
       <use xlink:href="#ArialMT-3a" transform="translate(111.230469 0)"/>
       <use xlink:href="#ArialMT-30" transform="translate(139.013672 0)"/>
       <use xlink:href="#ArialMT-30" transform="translate(194.628906 0)"/>
      </g>
     </g>
    </g>
    <g id="xtick_22">
     <g id="line2d_63">
      <g>
       <use xlink:href="#m308c6f061f" x="675.3475" y="263.48625" style="stroke: #000000"/>
      </g>
     </g>
     <g id="text_22">
      <!-- 22:00 -->
      <g transform="translate(678.449688 302.0125) rotate(-90) scale(0.12 -0.12)">
       <use xlink:href="#ArialMT-32"/>
       <use xlink:href="#ArialMT-32" transform="translate(55.615234 0)"/>
       <use xlink:href="#ArialMT-3a" transform="translate(111.230469 0)"/>
       <use xlink:href="#ArialMT-30" transform="translate(139.013672 0)"/>
       <use xlink:href="#ArialMT-30" transform="translate(194.628906 0)"/>
      </g>
     </g>
    </g>
    <g id="xtick_23">
     <g id="line2d_64">
      <g>
       <use xlink:href="#m308c6f061f" x="703.2475" y="263.48625" style="stroke: #000000"/>
      </g>
     </g>
     <g id="text_23">
      <!-- 23:00 -->
      <g transform="translate(706.349688 302.0125) rotate(-90) scale(0.12 -0.12)">
       <use xlink:href="#ArialMT-32"/>
       <use xlink:href="#ArialMT-33" transform="translate(55.615234 0)"/>
       <use xlink:href="#ArialMT-3a" transform="translate(111.230469 0)"/>
       <use xlink:href="#ArialMT-30" transform="translate(139.013672 0)"/>
       <use xlink:href="#ArialMT-30" transform="translate(194.628906 0)"/>
      </g>
     </g>
    </g>
    <g id="xtick_24">
     <g id="line2d_65">
      <g>
       <use xlink:href="#m308c6f061f" x="731.1475" y="263.48625" style="stroke: #000000"/>
      </g>
     </g>
     <g id="text_24">
      <!-- 24:00 -->
      <g transform="translate(734.249688 302.0125) rotate(-90) scale(0.12 -0.12)">
       <use xlink:href="#ArialMT-32"/>
       <use xlink:href="#ArialMT-34" transform="translate(55.615234 0)"/>
       <use xlink:href="#ArialMT-3a" transform="translate(111.230469 0)"/>
       <use xlink:href="#ArialMT-30" transform="translate(139.013672 0)"/>
       <use xlink:href="#ArialMT-30" transform="translate(194.628906 0)"/>
      </g>
     </g>
    </g>
   </g>
   <g id="matplotlib.axis_2">
    <g id="ytick_1">
     <g id="line2d_66">
      <defs>
       <path id="m76f35da1d6" d="M 0 0 
L -5 0 
" style="stroke: #000000; stroke-opacity: 0; stroke-width: 1.5"/>
      </defs>
      <g>
       <use xlink:href="#m76f35da1d6" x="75.4975" y="250.933797" style="fill-opacity: 0; stroke: #000000; stroke-opacity: 0; stroke-width: 1.5"/>
      </g>
     </g>
     <g id="text_25">
      <!-- 0 -->
      <g transform="translate(58.1 256.660047) scale(0.16 -0.16)">
       <use xlink:href="#ArialMT-30"/>
      </g>
     </g>
    </g>
    <g id="ytick_2">
     <g id="line2d_67">
      <g>
       <use xlink:href="#m76f35da1d6" x="75.4975" y="209.092288" style="fill-opacity: 0; stroke: #000000; stroke-opacity: 0; stroke-width: 1.5"/>
      </g>
     </g>
     <g id="text_26">
      <!-- 1 -->
      <g transform="translate(58.1 214.818538) scale(0.16 -0.16)">
       <use xlink:href="#ArialMT-31"/>
      </g>
     </g>
    </g>
    <g id="ytick_3">
     <g id="line2d_68">
      <g>
       <use xlink:href="#m76f35da1d6" x="75.4975" y="167.250778" style="fill-opacity: 0; stroke: #000000; stroke-opacity: 0; stroke-width: 1.5"/>
      </g>
     </g>
     <g id="text_27">
      <!-- 2 -->
      <g transform="translate(58.1 172.977028) scale(0.16 -0.16)">
       <use xlink:href="#ArialMT-32"/>
      </g>
     </g>
    </g>
    <g id="ytick_4">
     <g id="line2d_69">
      <g>
       <use xlink:href="#m76f35da1d6" x="75.4975" y="125.409269" style="fill-opacity: 0; stroke: #000000; stroke-opacity: 0; stroke-width: 1.5"/>
      </g>
     </g>
     <g id="text_28">
      <!-- 3 -->
      <g transform="translate(58.1 131.135519) scale(0.16 -0.16)">
       <use xlink:href="#ArialMT-33"/>
      </g>
     </g>
    </g>
    <g id="ytick_5">
     <g id="line2d_70">
      <g>
       <use xlink:href="#m76f35da1d6" x="75.4975" y="83.567759" style="fill-opacity: 0; stroke: #000000; stroke-opacity: 0; stroke-width: 1.5"/>
      </g>
     </g>
     <g id="text_29">
      <!-- 4 -->
      <g transform="translate(58.1 89.294009) scale(0.16 -0.16)">
       <use xlink:href="#ArialMT-34"/>
      </g>
     </g>
    </g>
    <g id="ytick_6">
     <g id="line2d_71">
      <g>
       <use xlink:href="#m76f35da1d6" x="75.4975" y="41.72625" style="fill-opacity: 0; stroke: #000000; stroke-opacity: 0; stroke-width: 1.5"/>
      </g>
     </g>
     <g id="text_30">
      <!-- 5 -->
      <g transform="translate(58.1 47.4525) scale(0.16 -0.16)">
       <use xlink:href="#ArialMT-35"/>
      </g>
     </g>
    </g>
    <g id="text_31">
     <!-- NO$_{\mathregular{x}}$ (kg) -->
     <g transform="translate(49.14 187.61625) rotate(-90) scale(0.18 -0.18)">
      <defs>
       <path id="ArialMT-4e" d="M 488 0 
L 488 4581 
L 1109 4581 
L 3516 984 
L 3516 4581 
L 4097 4581 
L 4097 0 
L 3475 0 
L 1069 3600 
L 1069 0 
L 488 0 
z
" transform="scale(0.015625)"/>
       <path id="ArialMT-4f" d="M 309 2231 
Q 309 3372 921 4017 
Q 1534 4663 2503 4663 
Q 3138 4663 3647 4359 
Q 4156 4056 4423 3514 
Q 4691 2972 4691 2284 
Q 4691 1588 4409 1038 
Q 4128 488 3612 205 
Q 3097 -78 2500 -78 
Q 1853 -78 1343 234 
Q 834 547 571 1087 
Q 309 1628 309 2231 
z
M 934 2222 
Q 934 1394 1379 917 
Q 1825 441 2497 441 
Q 3181 441 3623 922 
Q 4066 1403 4066 2288 
Q 4066 2847 3877 3264 
Q 3688 3681 3323 3911 
Q 2959 4141 2506 4141 
Q 1863 4141 1398 3698 
Q 934 3256 934 2222 
z
" transform="scale(0.015625)"/>
       <path id="ArialMT-78" d="M 47 0 
L 1259 1725 
L 138 3319 
L 841 3319 
L 1350 2541 
Q 1494 2319 1581 2169 
Q 1719 2375 1834 2534 
L 2394 3319 
L 3066 3319 
L 1919 1756 
L 3153 0 
L 2463 0 
L 1781 1031 
L 1600 1309 
L 728 0 
L 47 0 
z
" transform="scale(0.015625)"/>
       <path id="ArialMT-20" transform="scale(0.015625)"/>
       <path id="ArialMT-28" d="M 1497 -1347 
Q 1031 -759 709 28 
Q 388 816 388 1659 
Q 388 2403 628 3084 
Q 909 3875 1497 4659 
L 1900 4659 
Q 1522 4009 1400 3731 
Q 1209 3300 1100 2831 
Q 966 2247 966 1656 
Q 966 153 1900 -1347 
L 1497 -1347 
z
" transform="scale(0.015625)"/>
       <path id="ArialMT-6b" d="M 425 0 
L 425 4581 
L 988 4581 
L 988 1969 
L 2319 3319 
L 3047 3319 
L 1778 2088 
L 3175 0 
L 2481 0 
L 1384 1697 
L 988 1316 
L 988 0 
L 425 0 
z
" transform="scale(0.015625)"/>
       <path id="ArialMT-67" d="M 319 -275 
L 866 -356 
Q 900 -609 1056 -725 
Q 1266 -881 1628 -881 
Q 2019 -881 2231 -725 
Q 2444 -569 2519 -288 
Q 2563 -116 2559 434 
Q 2191 0 1641 0 
Q 956 0 581 494 
Q 206 988 206 1678 
Q 206 2153 378 2554 
Q 550 2956 876 3175 
Q 1203 3394 1644 3394 
Q 2231 3394 2613 2919 
L 2613 3319 
L 3131 3319 
L 3131 450 
Q 3131 -325 2973 -648 
Q 2816 -972 2473 -1159 
Q 2131 -1347 1631 -1347 
Q 1038 -1347 672 -1080 
Q 306 -813 319 -275 
z
M 784 1719 
Q 784 1066 1043 766 
Q 1303 466 1694 466 
Q 2081 466 2343 764 
Q 2606 1063 2606 1700 
Q 2606 2309 2336 2618 
Q 2066 2928 1684 2928 
Q 1309 2928 1046 2623 
Q 784 2319 784 1719 
z
" transform="scale(0.015625)"/>
       <path id="ArialMT-29" d="M 791 -1347 
L 388 -1347 
Q 1322 153 1322 1656 
Q 1322 2244 1188 2822 
Q 1081 3291 891 3722 
Q 769 4003 388 4659 
L 791 4659 
Q 1378 3875 1659 3084 
Q 1900 2403 1900 1659 
Q 1900 816 1576 28 
Q 1253 -759 791 -1347 
z
" transform="scale(0.015625)"/>
      </defs>
      <use xlink:href="#ArialMT-4e" transform="translate(0 0.140625)"/>
      <use xlink:href="#ArialMT-4f" transform="translate(72.216797 0.140625)"/>
      <use xlink:href="#ArialMT-78" transform="translate(150.957031 -16.265625) scale(0.7)"/>
      <use xlink:href="#ArialMT-20" transform="translate(188.691406 0.140625)"/>
      <use xlink:href="#ArialMT-28" transform="translate(216.474609 0.140625)"/>
      <use xlink:href="#ArialMT-6b" transform="translate(249.775391 0.140625)"/>
      <use xlink:href="#ArialMT-67" transform="translate(299.775391 0.140625)"/>
      <use xlink:href="#ArialMT-29" transform="translate(355.390625 0.140625)"/>
     </g>
    </g>
   </g>
   <g id="line2d_72">
    <path d="M 89.4475 180.792165 
L 117.3475 203.520634 
L 145.2475 212.287269 
L 173.1475 213.273462 
L 201.0475 201.286411 
L 228.9475 158.379454 
L 256.8475 119.147321 
L 284.7475 119.362891 
L 312.6475 112.321142 
L 340.5475 109.619231 
L 368.4475 113.062792 
L 396.3475 113.522633 
L 424.2475 112.699614 
L 452.1475 113.893426 
L 480.0475 113.946734 
L 507.9475 114.458679 
L 535.8475 112.049077 
L 563.7475 111.758459 
L 591.6475 112.153918 
L 619.5475 114.625706 
L 647.4475 123.237423 
L 675.3475 118.185287 
L 703.2475 130.350343 
L 731.1475 151.579881 
" clip-path="url(#pa3ccd29ddf)" style="fill: none; stroke: #9467bd; stroke-opacity: 0.8; stroke-width: 1.5; stroke-linecap: round"/>
   </g>
   <g id="line2d_73">
    <path d="M 89.4475 217.922757 
L 117.3475 228.490318 
L 145.2475 232.372233 
L 173.1475 233.194216 
L 201.0475 228.534661 
L 228.9475 211.781413 
L 256.8475 189.169394 
L 284.7475 182.642676 
L 312.6475 180.647972 
L 340.5475 180.004998 
L 368.4475 178.997583 
L 396.3475 178.658336 
L 424.2475 177.512327 
L 452.1475 178.439114 
L 480.0475 179.019662 
L 507.9475 179.769612 
L 535.8475 181.254167 
L 563.7475 180.947145 
L 591.6475 182.022022 
L 619.5475 184.636806 
L 647.4475 187.978932 
L 675.3475 187.403714 
L 703.2475 194.597402 
L 731.1475 205.398051 
" clip-path="url(#pa3ccd29ddf)" style="fill: none; stroke: #8c564b; stroke-opacity: 0.8; stroke-width: 1.5; stroke-linecap: round"/>
   </g>
   <g id="line2d_74">
    <path d="M 89.4475 243.803914 
L 117.3475 247.307982 
L 145.2475 248.569492 
L 173.1475 248.314566 
L 201.0475 246.416647 
L 228.9475 240.415438 
L 256.8475 227.528373 
L 284.7475 215.833382 
L 312.6475 211.461335 
L 340.5475 211.007104 
L 368.4475 210.700106 
L 396.3475 209.787952 
L 424.2475 208.646483 
L 452.1475 209.482236 
L 480.0475 209.98 
L 507.9475 209.655655 
L 535.8475 208.711627 
L 563.7475 207.678835 
L 591.6475 208.852013 
L 619.5475 211.124227 
L 647.4475 218.653343 
L 675.3475 226.354093 
L 703.2475 232.903272 
L 731.1475 238.650516 
" clip-path="url(#pa3ccd29ddf)" style="fill: none; stroke: #ff9896; stroke-opacity: 0.8; stroke-width: 1.5; stroke-linecap: round"/>
   </g>
   <g id="line2d_75">
    <path d="M 89.4475 247.105522 
L 117.3475 248.823927 
L 145.2475 249.386337 
L 173.1475 249.268043 
L 201.0475 248.349694 
L 228.9475 244.422113 
L 256.8475 235.125424 
L 284.7475 225.790005 
L 312.6475 223.045281 
L 340.5475 222.77263 
L 368.4475 222.875947 
L 396.3475 222.394416 
L 424.2475 221.418732 
L 452.1475 222.295583 
L 480.0475 222.706086 
L 507.9475 222.885152 
L 535.8475 222.760002 
L 563.7475 222.164407 
L 591.6475 223.217433 
L 619.5475 223.829305 
L 647.4475 229.895543 
L 675.3475 235.686146 
L 703.2475 240.665246 
L 731.1475 244.252901 
" clip-path="url(#pa3ccd29ddf)" style="fill: none; stroke: #d62728; stroke-opacity: 0.8; stroke-width: 1.5; stroke-linecap: round"/>
   </g>
   <g id="line2d_76">
    <path d="M 89.4475 224.448988 
L 117.3475 235.046082 
L 145.2475 238.876639 
L 173.1475 239.063267 
L 201.0475 233.710341 
L 228.9475 215.19895 
L 256.8475 192.153467 
L 284.7475 191.042599 
L 312.6475 187.010914 
L 340.5475 188.356462 
L 368.4475 187.334199 
L 396.3475 187.205349 
L 424.2475 185.777765 
L 452.1475 186.070311 
L 480.0475 185.96982 
L 507.9475 186.314263 
L 535.8475 186.497907 
L 563.7475 185.337864 
L 591.6475 185.82825 
L 619.5475 188.238113 
L 647.4475 189.402853 
L 675.3475 191.008372 
L 703.2475 200.179657 
L 731.1475 211.299978 
" clip-path="url(#pa3ccd29ddf)" style="fill: none; stroke: #1f77b4; stroke-opacity: 0.8; stroke-width: 1.5; stroke-linecap: round"/>
   </g>
   <g id="line2d_77">
    <path d="M 89.4475 215.082505 
L 117.3475 227.915999 
L 145.2475 232.580785 
L 173.1475 232.922873 
L 201.0475 226.642037 
L 228.9475 204.189654 
L 256.8475 178.486219 
L 284.7475 174.617923 
L 312.6475 170.976848 
L 340.5475 170.241534 
L 368.4475 169.696857 
L 396.3475 169.271369 
L 424.2475 167.736184 
L 452.1475 168.240223 
L 480.0475 168.127671 
L 507.9475 168.56988 
L 535.8475 169.614199 
L 563.7475 168.415735 
L 591.6475 169.063831 
L 619.5475 171.477627 
L 647.4475 176.826848 
L 675.3475 176.978515 
L 703.2475 184.624215 
L 731.1475 197.64313 
" clip-path="url(#pa3ccd29ddf)" style="fill: none; stroke: #aec7e8; stroke-opacity: 0.8; stroke-width: 1.5; stroke-linecap: round"/>
   </g>
   <g id="line2d_78">
    <path d="M 89.4475 246.593519 
L 117.3475 248.604329 
L 145.2475 249.248951 
L 173.1475 249.094307 
L 201.0475 248.029161 
L 228.9475 243.679827 
L 256.8475 233.673232 
L 284.7475 224.579363 
L 312.6475 222.494095 
L 340.5475 222.316323 
L 368.4475 222.251856 
L 396.3475 221.692213 
L 424.2475 220.514714 
L 452.1475 221.461794 
L 480.0475 221.651577 
L 507.9475 221.701059 
L 535.8475 222.112314 
L 563.7475 221.789772 
L 591.6475 222.928123 
L 619.5475 222.640175 
L 647.4475 228.379499 
L 675.3475 234.27625 
L 703.2475 239.533453 
L 731.1475 243.378908 
" clip-path="url(#pa3ccd29ddf)" style="fill: none; stroke: #c49c94; stroke-opacity: 0.8; stroke-width: 1.5; stroke-linecap: round"/>
   </g>
   <g id="line2d_79">
    <path d="M 89.4475 244.082019 
L 117.3475 247.201052 
L 145.2475 248.186862 
L 173.1475 248.004268 
L 201.0475 246.56399 
L 228.9475 239.863965 
L 256.8475 225.189793 
L 284.7475 212.443826 
L 312.6475 208.078003 
L 340.5475 207.903519 
L 368.4475 208.237113 
L 396.3475 207.075849 
L 424.2475 205.241914 
L 452.1475 205.763221 
L 480.0475 205.855899 
L 507.9475 205.882436 
L 535.8475 205.712938 
L 563.7475 204.05956 
L 591.6475 206.049131 
L 619.5475 208.052095 
L 647.4475 215.657958 
L 675.3475 223.939706 
L 703.2475 232.443519 
L 731.1475 238.71768 
" clip-path="url(#pa3ccd29ddf)" style="fill: none; stroke: #e377c2; stroke-opacity: 0.8; stroke-width: 1.5; stroke-linecap: round"/>
   </g>
   <g id="line2d_80">
    <path d="M 89.4475 213.661492 
L 117.3475 227.531571 
L 145.2475 232.548922 
L 173.1475 232.587765 
L 201.0475 225.230224 
L 228.9475 198.233648 
L 256.8475 164.34194 
L 284.7475 158.185894 
L 312.6475 156.958821 
L 340.5475 154.599483 
L 368.4475 152.625733 
L 396.3475 152.402825 
L 424.2475 150.768903 
L 452.1475 151.648995 
L 480.0475 151.441695 
L 507.9475 152.310456 
L 535.8475 153.351121 
L 563.7475 151.37827 
L 591.6475 152.019582 
L 619.5475 155.436445 
L 647.4475 157.814246 
L 675.3475 165.871359 
L 703.2475 178.702681 
L 731.1475 194.396559 
" clip-path="url(#pa3ccd29ddf)" style="fill: none; stroke: #f7b6d2; stroke-opacity: 0.8; stroke-width: 1.5; stroke-linecap: round"/>
   </g>
   <g id="line2d_81">
    <path d="M 89.4475 236.060359 
L 117.3475 242.399514 
L 145.2475 244.493463 
L 173.1475 244.367023 
L 201.0475 240.920911 
L 228.9475 228.240121 
L 256.8475 210.085691 
L 284.7475 207.481653 
L 312.6475 203.88214 
L 340.5475 203.193731 
L 368.4475 202.249367 
L 396.3475 201.546188 
L 424.2475 199.840843 
L 452.1475 200.267757 
L 480.0475 200.063498 
L 507.9475 199.903318 
L 535.8475 199.778755 
L 563.7475 198.541996 
L 591.6475 199.888943 
L 619.5475 202.605251 
L 647.4475 206.707164 
L 675.3475 209.415966 
L 703.2475 217.980567 
L 731.1475 226.715631 
" clip-path="url(#pa3ccd29ddf)" style="fill: none; stroke: #7f7f7f; stroke-opacity: 0.8; stroke-width: 1.5; stroke-linecap: round"/>
   </g>
   <g id="line2d_82">
    <path d="M 89.4475 241.861426 
L 117.3475 245.480663 
L 145.2475 246.692459 
L 173.1475 246.443988 
L 201.0475 244.855559 
L 228.9475 237.85235 
L 256.8475 223.970395 
L 284.7475 209.896754 
L 312.6475 203.18067 
L 340.5475 201.974145 
L 368.4475 201.659035 
L 396.3475 200.450897 
L 424.2475 198.496738 
L 452.1475 199.169282 
L 480.0475 199.483007 
L 507.9475 199.293591 
L 535.8475 198.813162 
L 563.7475 196.818445 
L 591.6475 199.274805 
L 619.5475 201.89793 
L 647.4475 210.098273 
L 675.3475 219.590504 
L 703.2475 229.261921 
L 731.1475 235.926088 
" clip-path="url(#pa3ccd29ddf)" style="fill: none; stroke: #ff7f0e; stroke-opacity: 0.8; stroke-width: 1.5; stroke-linecap: round"/>
   </g>
   <g id="line2d_83">
    <path d="M 89.4475 246.963317 
L 117.3475 249.802782 
L 145.2475 250.476657 
L 173.1475 250.430184 
L 201.0475 249.532604 
L 228.9475 243.799859 
L 256.8475 231.968146 
L 284.7475 221.578098 
L 312.6475 216.656115 
L 340.5475 216.120724 
L 368.4475 214.74941 
L 396.3475 213.565006 
L 424.2475 211.635722 
L 452.1475 213.142779 
L 480.0475 213.678511 
L 507.9475 214.265506 
L 535.8475 213.978316 
L 563.7475 213.812648 
L 591.6475 215.004633 
L 619.5475 215.608955 
L 647.4475 223.354615 
L 675.3475 230.667386 
L 703.2475 237.926219 
L 731.1475 242.718769 
" clip-path="url(#pa3ccd29ddf)" style="fill: none; stroke: #c7c7c7; stroke-opacity: 0.8; stroke-width: 1.5; stroke-linecap: round"/>
   </g>
   <g id="line2d_84">
    <path d="M 89.4475 243.796444 
L 117.3475 246.382547 
L 145.2475 247.409567 
L 173.1475 247.192302 
L 201.0475 245.905085 
L 228.9475 241.323384 
L 256.8475 231.835371 
L 284.7475 221.973861 
L 312.6475 217.30023 
L 340.5475 215.517323 
L 368.4475 214.445103 
L 396.3475 214.705398 
L 424.2475 211.18498 
L 452.1475 211.763928 
L 480.0475 211.850708 
L 507.9475 211.433783 
L 535.8475 211.233673 
L 563.7475 210.480681 
L 591.6475 212.26762 
L 619.5475 215.5213 
L 647.4475 222.248995 
L 675.3475 228.715278 
L 703.2475 235.050121 
L 731.1475 239.419513 
" clip-path="url(#pa3ccd29ddf)" style="fill: none; stroke: #c5b0d5; stroke-opacity: 0.8; stroke-width: 1.5; stroke-linecap: round"/>
   </g>
   <g id="line2d_85">
    <path d="M 89.4475 220.735824 
L 117.3475 231.794072 
L 145.2475 235.636428 
L 173.1475 234.972246 
L 201.0475 228.832678 
L 228.9475 207.712244 
L 256.8475 172.652278 
L 284.7475 155.285899 
L 312.6475 153.541605 
L 340.5475 154.590689 
L 368.4475 152.729632 
L 396.3475 151.659231 
L 424.2475 148.984298 
L 452.1475 149.058939 
L 480.0475 148.003853 
L 507.9475 147.187239 
L 535.8475 147.811882 
L 563.7475 148.847327 
L 591.6475 149.926122 
L 619.5475 156.691569 
L 647.4475 156.520625 
L 675.3475 172.426292 
L 703.2475 189.696882 
L 731.1475 205.763854 
" clip-path="url(#pa3ccd29ddf)" style="fill: none; stroke: #bcbd22; stroke-opacity: 0.8; stroke-width: 1.5; stroke-linecap: round"/>
   </g>
   <g id="line2d_86">
    <path d="M 89.4475 197.613708 
L 117.3475 217.183984 
L 145.2475 224.11172 
L 173.1475 222.736789 
L 201.0475 211.246876 
L 228.9475 177.094407 
L 256.8475 118.760146 
L 284.7475 93.519641 
L 312.6475 86.23569 
L 340.5475 84.012188 
L 368.4475 81.957041 
L 396.3475 107.061675 
L 424.2475 100.117607 
L 452.1475 97.210663 
L 480.0475 88.330127 
L 507.9475 81.635274 
L 535.8475 86.49618 
L 563.7475 97.133683 
L 591.6475 104.835656 
L 619.5475 81.578914 
L 647.4475 96.662212 
L 675.3475 122.102461 
L 703.2475 147.260059 
L 731.1475 172.268351 
" clip-path="url(#pa3ccd29ddf)" style="fill: none; stroke: #dbdb8d; stroke-opacity: 0.8; stroke-width: 1.5; stroke-linecap: round"/>
   </g>
   <g id="line2d_87">
    <path d="M 89.4475 215.342807 
L 117.3475 228.592679 
L 145.2475 233.448366 
L 173.1475 233.14049 
L 201.0475 227.28173 
L 228.9475 205.952876 
L 256.8475 164.141012 
L 284.7475 147.03419 
L 312.6475 142.406952 
L 340.5475 142.55874 
L 368.4475 158.322124 
L 396.3475 152.241708 
L 424.2475 138.505773 
L 452.1475 137.249362 
L 480.0475 131.202632 
L 507.9475 126.460867 
L 535.8475 124.595489 
L 563.7475 129.121364 
L 591.6475 139.442012 
L 619.5475 157.17214 
L 647.4475 145.297829 
L 675.3475 160.590044 
L 703.2475 178.334225 
L 731.1475 196.870405 
" clip-path="url(#pa3ccd29ddf)" style="fill: none; stroke: #17becf; stroke-opacity: 0.8; stroke-width: 1.5; stroke-linecap: round"/>
   </g>
   <g id="line2d_88">
    <path d="M 89.4475 234.637762 
L 117.3475 241.044021 
L 145.2475 243.184539 
L 173.1475 242.770652 
L 201.0475 239.288672 
L 228.9475 226.185297 
L 256.8475 204.56649 
L 284.7475 190.519906 
L 312.6475 188.738125 
L 340.5475 189.577949 
L 368.4475 188.04933 
L 396.3475 186.920762 
L 424.2475 184.629452 
L 452.1475 184.809089 
L 480.0475 184.333695 
L 507.9475 183.59848 
L 535.8475 183.105437 
L 563.7475 182.324886 
L 591.6475 184.471557 
L 619.5475 190.402878 
L 647.4475 192.43692 
L 675.3475 203.578389 
L 703.2475 215.570748 
L 731.1475 225.676513 
" clip-path="url(#pa3ccd29ddf)" style="fill: none; stroke: #9edae5; stroke-opacity: 0.8; stroke-width: 1.5; stroke-linecap: round"/>
   </g>
   <g id="line2d_89">
    <path d="M 89.4475 245.348726 
L 117.3475 247.573794 
L 145.2475 248.442127 
L 173.1475 248.208928 
L 201.0475 246.72897 
L 228.9475 240.921828 
L 256.8475 227.432677 
L 284.7475 213.103381 
L 312.6475 210.411234 
L 340.5475 210.060344 
L 368.4475 209.466938 
L 396.3475 210.215397 
L 424.2475 206.445848 
L 452.1475 207.165242 
L 480.0475 207.178472 
L 507.9475 206.756123 
L 535.8475 207.012857 
L 563.7475 206.42879 
L 591.6475 208.822007 
L 619.5475 212.931757 
L 647.4475 221.723567 
L 675.3475 229.289374 
L 703.2475 236.535105 
L 731.1475 241.240728 
" clip-path="url(#pa3ccd29ddf)" style="fill: none; stroke: #2ca02c; stroke-opacity: 0.8; stroke-width: 1.5; stroke-linecap: round"/>
   </g>
   <g id="line2d_90">
    <path d="M 89.4475 227.614262 
L 117.3475 236.446122 
L 145.2475 239.586281 
L 173.1475 239.560471 
L 201.0475 235.080876 
L 228.9475 218.45624 
L 256.8475 197.688059 
L 284.7475 194.898796 
L 312.6475 194.064997 
L 340.5475 193.237191 
L 368.4475 192.067364 
L 396.3475 191.602078 
L 424.2475 190.118033 
L 452.1475 190.767248 
L 480.0475 190.697068 
L 507.9475 190.924973 
L 535.8475 190.925252 
L 563.7475 189.730637 
L 591.6475 190.959745 
L 619.5475 193.586063 
L 647.4475 196.84982 
L 675.3475 197.067872 
L 703.2475 205.258996 
L 731.1475 215.365038 
" clip-path="url(#pa3ccd29ddf)" style="fill: none; stroke: #98df8a; stroke-opacity: 0.8; stroke-width: 1.5; stroke-linecap: round"/>
   </g>
   <g id="line2d_91">
    <path d="M 89.4475 197.231624 
L 117.3475 216.673676 
L 145.2475 223.237254 
L 173.1475 222.749203 
L 201.0475 210.179775 
L 228.9475 170.038425 
L 256.8475 127.184562 
L 284.7475 119.374918 
L 312.6475 118.699614 
L 340.5475 123.76228 
L 368.4475 134.112098 
L 396.3475 129.021678 
L 424.2475 117.738586 
L 452.1475 117.104767 
L 480.0475 112.212463 
L 507.9475 107.628246 
L 535.8475 106.911188 
L 563.7475 108.767663 
L 591.6475 117.430169 
L 619.5475 135.444359 
L 647.4475 118.519562 
L 675.3475 130.691531 
L 703.2475 148.478496 
L 731.1475 170.689695 
" clip-path="url(#pa3ccd29ddf)" style="fill: none; stroke: #ffbb78; stroke-opacity: 0.8; stroke-width: 1.5; stroke-linecap: round"/>
   </g>
   <g id="patch_3">
    <path d="M 75.4975 263.48625 
L 75.4975 41.72625 
" style="fill: none; stroke: #000000; stroke-linejoin: miter; stroke-linecap: square"/>
   </g>
   <g id="patch_4">
    <path d="M 745.0975 263.48625 
L 745.0975 41.72625 
" style="fill: none; stroke: #000000; stroke-linejoin: miter; stroke-linecap: square"/>
   </g>
   <g id="patch_5">
    <path d="M 75.4975 263.48625 
L 745.0975 263.48625 
" style="fill: none; stroke: #000000; stroke-linejoin: miter; stroke-linecap: square"/>
   </g>
   <g id="patch_6">
    <path d="M 75.4975 41.72625 
L 745.0975 41.72625 
" style="fill: none; stroke: #000000; stroke-linejoin: miter; stroke-linecap: square"/>
   </g>
  </g>
 </g>
 <defs>
  <clipPath id="pa3ccd29ddf">
   <rect x="75.4975" y="41.72625" width="669.6" height="221.76"/>
  </clipPath>
 </defs>
</svg>
