<?xml version="1.0" encoding="utf-8" standalone="no"?>
<!DOCTYPE svg PUBLIC "-//W3C//DTD SVG 1.1//EN"
  "http://www.w3.org/Graphics/SVG/1.1/DTD/svg11.dtd">
<svg xmlns:xlink="http://www.w3.org/1999/xlink" width="803.3375pt" height="338.0125pt" viewBox="0 0 803.3375 338.0125" xmlns="http://www.w3.org/2000/svg" version="1.1">
 <metadata>
  <rdf:RDF xmlns:dc="http://purl.org/dc/elements/1.1/" xmlns:cc="http://creativecommons.org/ns#" xmlns:rdf="http://www.w3.org/1999/02/22-rdf-syntax-ns#">
   <cc:Work>
    <dc:type rdf:resource="http://purl.org/dc/dcmitype/StillImage"/>
    <dc:date>2025-10-27T21:36:53.963876</dc:date>
    <dc:format>image/svg+xml</dc:format>
    <dc:creator>
     <cc:Agent>
      <dc:title>Matplotlib v3.10.7, https://matplotlib.org/</dc:title>
     </cc:Agent>
    </dc:creator>
   </cc:Work>
  </rdf:RDF>
 </metadata>
 <defs>
  <style type="text/css">*{stroke-linejoin: round; stroke-linecap: butt}</style>
 </defs>
 <g id="figure_1">
  <g id="patch_1">
   <path d="M 0 338.0125 
L 803.3375 338.0125 
L 803.3375 0 
L 0 0 
L 0 338.0125 
z
" style="fill: none"/>
  </g>
  <g id="axes_1">
   <g id="patch_2">
    <path d="M 97.7375 263.48625 
L 767.3375 263.48625 
L 767.3375 41.72625 
L 97.7375 41.72625 
L 97.7375 263.48625 
z
" style="fill: none"/>
   </g>
   <g id="line2d_1">
    <path d="M 118.028409 263.48625 
L 118.028409 41.72625 
" clip-path="url(#p6cbc574bda)" style="fill: none; stroke-dasharray: 0.74,0.32; stroke-dashoffset: 0; stroke: #a9a9a9; stroke-opacity: 0.5; stroke-width: 0.2"/>
   </g>
   <g id="line2d_2">
    <path d="M 138.319318 263.48625 
L 138.319318 41.72625 
" clip-path="url(#p6cbc574bda)" style="fill: none; stroke-dasharray: 0.74,0.32; stroke-dashoffset: 0; stroke: #a9a9a9; stroke-opacity: 0.5; stroke-width: 0.2"/>
   </g>
   <g id="line2d_3">
    <path d="M 158.610227 263.48625 
L 158.610227 41.72625 
" clip-path="url(#p6cbc574bda)" style="fill: none; stroke-dasharray: 0.74,0.32; stroke-dashoffset: 0; stroke: #a9a9a9; stroke-opacity: 0.5; stroke-width: 0.2"/>
   </g>
   <g id="line2d_4">
    <path d="M 178.901136 263.48625 
L 178.901136 41.72625 
" clip-path="url(#p6cbc574bda)" style="fill: none; stroke-dasharray: 0.74,0.32; stroke-dashoffset: 0; stroke: #a9a9a9; stroke-opacity: 0.5; stroke-width: 0.2"/>
   </g>
   <g id="line2d_5">
    <path d="M 199.192045 263.48625 
L 199.192045 41.72625 
" clip-path="url(#p6cbc574bda)" style="fill: none; stroke-dasharray: 0.74,0.32; stroke-dashoffset: 0; stroke: #a9a9a9; stroke-opacity: 0.5; stroke-width: 0.2"/>
   </g>
   <g id="line2d_6">
    <path d="M 219.482955 263.48625 
L 219.482955 41.72625 
" clip-path="url(#p6cbc574bda)" style="fill: none; stroke-dasharray: 0.74,0.32; stroke-dashoffset: 0; stroke: #a9a9a9; stroke-opacity: 0.5; stroke-width: 0.2"/>
   </g>
   <g id="line2d_7">
    <path d="M 239.773864 263.48625 
L 239.773864 41.72625 
" clip-path="url(#p6cbc574bda)" style="fill: none; stroke-dasharray: 0.74,0.32; stroke-dashoffset: 0; stroke: #a9a9a9; stroke-opacity: 0.5; stroke-width: 0.2"/>
   </g>
   <g id="line2d_8">
    <path d="M 260.064773 263.48625 
L 260.064773 41.72625 
" clip-path="url(#p6cbc574bda)" style="fill: none; stroke-dasharray: 0.74,0.32; stroke-dashoffset: 0; stroke: #a9a9a9; stroke-opacity: 0.5; stroke-width: 0.2"/>
   </g>
   <g id="line2d_9">
    <path d="M 280.355682 263.48625 
L 280.355682 41.72625 
" clip-path="url(#p6cbc574bda)" style="fill: none; stroke-dasharray: 0.74,0.32; stroke-dashoffset: 0; stroke: #a9a9a9; stroke-opacity: 0.5; stroke-width: 0.2"/>
   </g>
   <g id="line2d_10">
    <path d="M 300.646591 263.48625 
L 300.646591 41.72625 
" clip-path="url(#p6cbc574bda)" style="fill: none; stroke-dasharray: 0.74,0.32; stroke-dashoffset: 0; stroke: #a9a9a9; stroke-opacity: 0.5; stroke-width: 0.2"/>
   </g>
   <g id="line2d_11">
    <path d="M 320.9375 263.48625 
L 320.9375 41.72625 
" clip-path="url(#p6cbc574bda)" style="fill: none; stroke-dasharray: 0.74,0.32; stroke-dashoffset: 0; stroke: #a9a9a9; stroke-opacity: 0.5; stroke-width: 0.2"/>
   </g>
   <g id="line2d_12">
    <path d="M 341.228409 263.48625 
L 341.228409 41.72625 
" clip-path="url(#p6cbc574bda)" style="fill: none; stroke-dasharray: 0.74,0.32; stroke-dashoffset: 0; stroke: #a9a9a9; stroke-opacity: 0.5; stroke-width: 0.2"/>
   </g>
   <g id="line2d_13">
    <path d="M 361.519318 263.48625 
L 361.519318 41.72625 
" clip-path="url(#p6cbc574bda)" style="fill: none; stroke-dasharray: 0.74,0.32; stroke-dashoffset: 0; stroke: #a9a9a9; stroke-opacity: 0.5; stroke-width: 0.2"/>
   </g>
   <g id="line2d_14">
    <path d="M 381.810227 263.48625 
L 381.810227 41.72625 
" clip-path="url(#p6cbc574bda)" style="fill: none; stroke-dasharray: 0.74,0.32; stroke-dashoffset: 0; stroke: #a9a9a9; stroke-opacity: 0.5; stroke-width: 0.2"/>
   </g>
   <g id="line2d_15">
    <path d="M 402.101136 263.48625 
L 402.101136 41.72625 
" clip-path="url(#p6cbc574bda)" style="fill: none; stroke-dasharray: 0.74,0.32; stroke-dashoffset: 0; stroke: #a9a9a9; stroke-opacity: 0.5; stroke-width: 0.2"/>
   </g>
   <g id="line2d_16">
    <path d="M 422.392045 263.48625 
L 422.392045 41.72625 
" clip-path="url(#p6cbc574bda)" style="fill: none; stroke-dasharray: 0.74,0.32; stroke-dashoffset: 0; stroke: #a9a9a9; stroke-opacity: 0.5; stroke-width: 0.2"/>
   </g>
   <g id="line2d_17">
    <path d="M 442.682955 263.48625 
L 442.682955 41.72625 
" clip-path="url(#p6cbc574bda)" style="fill: none; stroke-dasharray: 0.74,0.32; stroke-dashoffset: 0; stroke: #a9a9a9; stroke-opacity: 0.5; stroke-width: 0.2"/>
   </g>
   <g id="line2d_18">
    <path d="M 462.973864 263.48625 
L 462.973864 41.72625 
" clip-path="url(#p6cbc574bda)" style="fill: none; stroke-dasharray: 0.74,0.32; stroke-dashoffset: 0; stroke: #a9a9a9; stroke-opacity: 0.5; stroke-width: 0.2"/>
   </g>
   <g id="line2d_19">
    <path d="M 483.264773 263.48625 
L 483.264773 41.72625 
" clip-path="url(#p6cbc574bda)" style="fill: none; stroke-dasharray: 0.74,0.32; stroke-dashoffset: 0; stroke: #a9a9a9; stroke-opacity: 0.5; stroke-width: 0.2"/>
   </g>
   <g id="line2d_20">
    <path d="M 503.555682 263.48625 
L 503.555682 41.72625 
" clip-path="url(#p6cbc574bda)" style="fill: none; stroke-dasharray: 0.74,0.32; stroke-dashoffset: 0; stroke: #a9a9a9; stroke-opacity: 0.5; stroke-width: 0.2"/>
   </g>
   <g id="line2d_21">
    <path d="M 523.846591 263.48625 
L 523.846591 41.72625 
" clip-path="url(#p6cbc574bda)" style="fill: none; stroke-dasharray: 0.74,0.32; stroke-dashoffset: 0; stroke: #a9a9a9; stroke-opacity: 0.5; stroke-width: 0.2"/>
   </g>
   <g id="line2d_22">
    <path d="M 544.1375 263.48625 
L 544.1375 41.72625 
" clip-path="url(#p6cbc574bda)" style="fill: none; stroke-dasharray: 0.74,0.32; stroke-dashoffset: 0; stroke: #a9a9a9; stroke-opacity: 0.5; stroke-width: 0.2"/>
   </g>
   <g id="line2d_23">
    <path d="M 564.428409 263.48625 
L 564.428409 41.72625 
" clip-path="url(#p6cbc574bda)" style="fill: none; stroke-dasharray: 0.74,0.32; stroke-dashoffset: 0; stroke: #a9a9a9; stroke-opacity: 0.5; stroke-width: 0.2"/>
   </g>
   <g id="line2d_24">
    <path d="M 584.719318 263.48625 
L 584.719318 41.72625 
" clip-path="url(#p6cbc574bda)" style="fill: none; stroke-dasharray: 0.74,0.32; stroke-dashoffset: 0; stroke: #a9a9a9; stroke-opacity: 0.5; stroke-width: 0.2"/>
   </g>
   <g id="line2d_25">
    <path d="M 605.010227 263.48625 
L 605.010227 41.72625 
" clip-path="url(#p6cbc574bda)" style="fill: none; stroke-dasharray: 0.74,0.32; stroke-dashoffset: 0; stroke: #a9a9a9; stroke-opacity: 0.5; stroke-width: 0.2"/>
   </g>
   <g id="line2d_26">
    <path d="M 625.301136 263.48625 
L 625.301136 41.72625 
" clip-path="url(#p6cbc574bda)" style="fill: none; stroke-dasharray: 0.74,0.32; stroke-dashoffset: 0; stroke: #a9a9a9; stroke-opacity: 0.5; stroke-width: 0.2"/>
   </g>
   <g id="line2d_27">
    <path d="M 645.592045 263.48625 
L 645.592045 41.72625 
" clip-path="url(#p6cbc574bda)" style="fill: none; stroke-dasharray: 0.74,0.32; stroke-dashoffset: 0; stroke: #a9a9a9; stroke-opacity: 0.5; stroke-width: 0.2"/>
   </g>
   <g id="line2d_28">
    <path d="M 665.882955 263.48625 
L 665.882955 41.72625 
" clip-path="url(#p6cbc574bda)" style="fill: none; stroke-dasharray: 0.74,0.32; stroke-dashoffset: 0; stroke: #a9a9a9; stroke-opacity: 0.5; stroke-width: 0.2"/>
   </g>
   <g id="line2d_29">
    <path d="M 686.173864 263.48625 
L 686.173864 41.72625 
" clip-path="url(#p6cbc574bda)" style="fill: none; stroke-dasharray: 0.74,0.32; stroke-dashoffset: 0; stroke: #a9a9a9; stroke-opacity: 0.5; stroke-width: 0.2"/>
   </g>
   <g id="line2d_30">
    <path d="M 706.464773 263.48625 
L 706.464773 41.72625 
" clip-path="url(#p6cbc574bda)" style="fill: none; stroke-dasharray: 0.74,0.32; stroke-dashoffset: 0; stroke: #a9a9a9; stroke-opacity: 0.5; stroke-width: 0.2"/>
   </g>
   <g id="line2d_31">
    <path d="M 726.755682 263.48625 
L 726.755682 41.72625 
" clip-path="url(#p6cbc574bda)" style="fill: none; stroke-dasharray: 0.74,0.32; stroke-dashoffset: 0; stroke: #a9a9a9; stroke-opacity: 0.5; stroke-width: 0.2"/>
   </g>
   <g id="line2d_32">
    <path d="M 747.046591 263.48625 
L 747.046591 41.72625 
" clip-path="url(#p6cbc574bda)" style="fill: none; stroke-dasharray: 0.74,0.32; stroke-dashoffset: 0; stroke: #a9a9a9; stroke-opacity: 0.5; stroke-width: 0.2"/>
   </g>
   <g id="line2d_33">
    <path d="M 97.7375 241.31025 
L 767.3375 241.31025 
" clip-path="url(#p6cbc574bda)" style="fill: none; stroke-dasharray: 0.74,0.32; stroke-dashoffset: 0; stroke: #a9a9a9; stroke-opacity: 0.5; stroke-width: 0.2"/>
   </g>
   <g id="line2d_34">
    <path d="M 97.7375 219.13425 
L 767.3375 219.13425 
" clip-path="url(#p6cbc574bda)" style="fill: none; stroke-dasharray: 0.74,0.32; stroke-dashoffset: 0; stroke: #a9a9a9; stroke-opacity: 0.5; stroke-width: 0.2"/>
   </g>
   <g id="line2d_35">
    <path d="M 97.7375 196.95825 
L 767.3375 196.95825 
" clip-path="url(#p6cbc574bda)" style="fill: none; stroke-dasharray: 0.74,0.32; stroke-dashoffset: 0; stroke: #a9a9a9; stroke-opacity: 0.5; stroke-width: 0.2"/>
   </g>
   <g id="line2d_36">
    <path d="M 97.7375 174.78225 
L 767.3375 174.78225 
" clip-path="url(#p6cbc574bda)" style="fill: none; stroke-dasharray: 0.74,0.32; stroke-dashoffset: 0; stroke: #a9a9a9; stroke-opacity: 0.5; stroke-width: 0.2"/>
   </g>
   <g id="line2d_37">
    <path d="M 97.7375 152.60625 
L 767.3375 152.60625 
" clip-path="url(#p6cbc574bda)" style="fill: none; stroke-dasharray: 0.74,0.32; stroke-dashoffset: 0; stroke: #a9a9a9; stroke-opacity: 0.5; stroke-width: 0.2"/>
   </g>
   <g id="line2d_38">
    <path d="M 97.7375 130.43025 
L 767.3375 130.43025 
" clip-path="url(#p6cbc574bda)" style="fill: none; stroke-dasharray: 0.74,0.32; stroke-dashoffset: 0; stroke: #a9a9a9; stroke-opacity: 0.5; stroke-width: 0.2"/>
   </g>
   <g id="line2d_39">
    <path d="M 97.7375 108.25425 
L 767.3375 108.25425 
" clip-path="url(#p6cbc574bda)" style="fill: none; stroke-dasharray: 0.74,0.32; stroke-dashoffset: 0; stroke: #a9a9a9; stroke-opacity: 0.5; stroke-width: 0.2"/>
   </g>
   <g id="line2d_40">
    <path d="M 97.7375 86.07825 
L 767.3375 86.07825 
" clip-path="url(#p6cbc574bda)" style="fill: none; stroke-dasharray: 0.74,0.32; stroke-dashoffset: 0; stroke: #a9a9a9; stroke-opacity: 0.5; stroke-width: 0.2"/>
   </g>
   <g id="line2d_41">
    <path d="M 97.7375 63.90225 
L 767.3375 63.90225 
" clip-path="url(#p6cbc574bda)" style="fill: none; stroke-dasharray: 0.74,0.32; stroke-dashoffset: 0; stroke: #a9a9a9; stroke-opacity: 0.5; stroke-width: 0.2"/>
   </g>
   <g id="matplotlib.axis_1">
    <g id="xtick_1">
     <g id="line2d_42">
      <defs>
       <path id="mb995cb0f38" d="M 0 0 
L 0 5 
" style="stroke: #000000"/>
      </defs>
      <g>
       <use xlink:href="#mb995cb0f38" x="111.6875" y="263.48625" style="stroke: #000000"/>
      </g>
     </g>
     <g id="text_1">
      <!-- 1:00 -->
      <g transform="translate(114.789688 295.339375) rotate(-90) scale(0.12 -0.12)">
       <defs>
        <path id="ArialMT-31" d="M 2384 0 
L 1822 0 
L 1822 3584 
Q 1619 3391 1289 3197 
Q 959 3003 697 2906 
L 697 3450 
Q 1169 3672 1522 3987 
Q 1875 4303 2022 4600 
L 2384 4600 
L 2384 0 
z
" transform="scale(0.015625)"/>
        <path id="ArialMT-3a" d="M 578 2678 
L 578 3319 
L 1219 3319 
L 1219 2678 
L 578 2678 
z
M 578 0 
L 578 641 
L 1219 641 
L 1219 0 
L 578 0 
z
" transform="scale(0.015625)"/>
        <path id="ArialMT-30" d="M 266 2259 
Q 266 3072 433 3567 
Q 600 4063 929 4331 
Q 1259 4600 1759 4600 
Q 2128 4600 2406 4451 
Q 2684 4303 2865 4023 
Q 3047 3744 3150 3342 
Q 3253 2941 3253 2259 
Q 3253 1453 3087 958 
Q 2922 463 2592 192 
Q 2263 -78 1759 -78 
Q 1097 -78 719 397 
Q 266 969 266 2259 
z
M 844 2259 
Q 844 1131 1108 757 
Q 1372 384 1759 384 
Q 2147 384 2411 759 
Q 2675 1134 2675 2259 
Q 2675 3391 2411 3762 
Q 2147 4134 1753 4134 
Q 1366 4134 1134 3806 
Q 844 3388 844 2259 
z
" transform="scale(0.015625)"/>
       </defs>
       <use xlink:href="#ArialMT-31"/>
       <use xlink:href="#ArialMT-3a" transform="translate(55.615234 0)"/>
       <use xlink:href="#ArialMT-30" transform="translate(83.398438 0)"/>
       <use xlink:href="#ArialMT-30" transform="translate(139.013672 0)"/>
      </g>
     </g>
    </g>
    <g id="xtick_2">
     <g id="line2d_43">
      <g>
       <use xlink:href="#mb995cb0f38" x="139.5875" y="263.48625" style="stroke: #000000"/>
      </g>
     </g>
     <g id="text_2">
      <!-- 2:00 -->
      <g transform="translate(142.689688 295.339375) rotate(-90) scale(0.12 -0.12)">
       <defs>
        <path id="ArialMT-32" d="M 3222 541 
L 3222 0 
L 194 0 
Q 188 203 259 391 
Q 375 700 629 1000 
Q 884 1300 1366 1694 
Q 2113 2306 2375 2664 
Q 2638 3022 2638 3341 
Q 2638 3675 2398 3904 
Q 2159 4134 1775 4134 
Q 1369 4134 1125 3890 
Q 881 3647 878 3216 
L 300 3275 
Q 359 3922 746 4261 
Q 1134 4600 1788 4600 
Q 2447 4600 2831 4234 
Q 3216 3869 3216 3328 
Q 3216 3053 3103 2787 
Q 2991 2522 2730 2228 
Q 2469 1934 1863 1422 
Q 1356 997 1212 845 
Q 1069 694 975 541 
L 3222 541 
z
" transform="scale(0.015625)"/>
       </defs>
       <use xlink:href="#ArialMT-32"/>
       <use xlink:href="#ArialMT-3a" transform="translate(55.615234 0)"/>
       <use xlink:href="#ArialMT-30" transform="translate(83.398438 0)"/>
       <use xlink:href="#ArialMT-30" transform="translate(139.013672 0)"/>
      </g>
     </g>
    </g>
    <g id="xtick_3">
     <g id="line2d_44">
      <g>
       <use xlink:href="#mb995cb0f38" x="167.4875" y="263.48625" style="stroke: #000000"/>
      </g>
     </g>
     <g id="text_3">
      <!-- 3:00 -->
      <g transform="translate(170.589688 295.339375) rotate(-90) scale(0.12 -0.12)">
       <defs>
        <path id="ArialMT-33" d="M 269 1209 
L 831 1284 
Q 928 806 1161 595 
Q 1394 384 1728 384 
Q 2125 384 2398 659 
Q 2672 934 2672 1341 
Q 2672 1728 2419 1979 
Q 2166 2231 1775 2231 
Q 1616 2231 1378 2169 
L 1441 2663 
Q 1497 2656 1531 2656 
Q 1891 2656 2178 2843 
Q 2466 3031 2466 3422 
Q 2466 3731 2256 3934 
Q 2047 4138 1716 4138 
Q 1388 4138 1169 3931 
Q 950 3725 888 3313 
L 325 3413 
Q 428 3978 793 4289 
Q 1159 4600 1703 4600 
Q 2078 4600 2393 4439 
Q 2709 4278 2876 4000 
Q 3044 3722 3044 3409 
Q 3044 3113 2884 2869 
Q 2725 2625 2413 2481 
Q 2819 2388 3044 2092 
Q 3269 1797 3269 1353 
Q 3269 753 2831 336 
Q 2394 -81 1725 -81 
Q 1122 -81 723 278 
Q 325 638 269 1209 
z
" transform="scale(0.015625)"/>
       </defs>
       <use xlink:href="#ArialMT-33"/>
       <use xlink:href="#ArialMT-3a" transform="translate(55.615234 0)"/>
       <use xlink:href="#ArialMT-30" transform="translate(83.398438 0)"/>
       <use xlink:href="#ArialMT-30" transform="translate(139.013672 0)"/>
      </g>
     </g>
    </g>
    <g id="xtick_4">
     <g id="line2d_45">
      <g>
       <use xlink:href="#mb995cb0f38" x="195.3875" y="263.48625" style="stroke: #000000"/>
      </g>
     </g>
     <g id="text_4">
      <!-- 4:00 -->
      <g transform="translate(198.489688 295.339375) rotate(-90) scale(0.12 -0.12)">
       <defs>
        <path id="ArialMT-34" d="M 2069 0 
L 2069 1097 
L 81 1097 
L 81 1613 
L 2172 4581 
L 2631 4581 
L 2631 1613 
L 3250 1613 
L 3250 1097 
L 2631 1097 
L 2631 0 
L 2069 0 
z
M 2069 1613 
L 2069 3678 
L 634 1613 
L 2069 1613 
z
" transform="scale(0.015625)"/>
       </defs>
       <use xlink:href="#ArialMT-34"/>
       <use xlink:href="#ArialMT-3a" transform="translate(55.615234 0)"/>
       <use xlink:href="#ArialMT-30" transform="translate(83.398438 0)"/>
       <use xlink:href="#ArialMT-30" transform="translate(139.013672 0)"/>
      </g>
     </g>
    </g>
    <g id="xtick_5">
     <g id="line2d_46">
      <g>
       <use xlink:href="#mb995cb0f38" x="223.2875" y="263.48625" style="stroke: #000000"/>
      </g>
     </g>
     <g id="text_5">
      <!-- 5:00 -->
      <g transform="translate(226.389688 295.339375) rotate(-90) scale(0.12 -0.12)">
       <defs>
        <path id="ArialMT-35" d="M 266 1200 
L 856 1250 
Q 922 819 1161 601 
Q 1400 384 1738 384 
Q 2144 384 2425 690 
Q 2706 997 2706 1503 
Q 2706 1984 2436 2262 
Q 2166 2541 1728 2541 
Q 1456 2541 1237 2417 
Q 1019 2294 894 2097 
L 366 2166 
L 809 4519 
L 3088 4519 
L 3088 3981 
L 1259 3981 
L 1013 2750 
Q 1425 3038 1878 3038 
Q 2478 3038 2890 2622 
Q 3303 2206 3303 1553 
Q 3303 931 2941 478 
Q 2500 -78 1738 -78 
Q 1113 -78 717 272 
Q 322 622 266 1200 
z
" transform="scale(0.015625)"/>
       </defs>
       <use xlink:href="#ArialMT-35"/>
       <use xlink:href="#ArialMT-3a" transform="translate(55.615234 0)"/>
       <use xlink:href="#ArialMT-30" transform="translate(83.398438 0)"/>
       <use xlink:href="#ArialMT-30" transform="translate(139.013672 0)"/>
      </g>
     </g>
    </g>
    <g id="xtick_6">
     <g id="line2d_47">
      <g>
       <use xlink:href="#mb995cb0f38" x="251.1875" y="263.48625" style="stroke: #000000"/>
      </g>
     </g>
     <g id="text_6">
      <!-- 6:00 -->
      <g transform="translate(254.289688 295.339375) rotate(-90) scale(0.12 -0.12)">
       <defs>
        <path id="ArialMT-36" d="M 3184 3459 
L 2625 3416 
Q 2550 3747 2413 3897 
Q 2184 4138 1850 4138 
Q 1581 4138 1378 3988 
Q 1113 3794 959 3422 
Q 806 3050 800 2363 
Q 1003 2672 1297 2822 
Q 1591 2972 1913 2972 
Q 2475 2972 2870 2558 
Q 3266 2144 3266 1488 
Q 3266 1056 3080 686 
Q 2894 316 2569 119 
Q 2244 -78 1831 -78 
Q 1128 -78 684 439 
Q 241 956 241 2144 
Q 241 3472 731 4075 
Q 1159 4600 1884 4600 
Q 2425 4600 2770 4297 
Q 3116 3994 3184 3459 
z
M 888 1484 
Q 888 1194 1011 928 
Q 1134 663 1356 523 
Q 1578 384 1822 384 
Q 2178 384 2434 671 
Q 2691 959 2691 1453 
Q 2691 1928 2437 2201 
Q 2184 2475 1800 2475 
Q 1419 2475 1153 2201 
Q 888 1928 888 1484 
z
" transform="scale(0.015625)"/>
       </defs>
       <use xlink:href="#ArialMT-36"/>
       <use xlink:href="#ArialMT-3a" transform="translate(55.615234 0)"/>
       <use xlink:href="#ArialMT-30" transform="translate(83.398438 0)"/>
       <use xlink:href="#ArialMT-30" transform="translate(139.013672 0)"/>
      </g>
     </g>
    </g>
    <g id="xtick_7">
     <g id="line2d_48">
      <g>
       <use xlink:href="#mb995cb0f38" x="279.0875" y="263.48625" style="stroke: #000000"/>
      </g>
     </g>
     <g id="text_7">
      <!-- 7:00 -->
      <g transform="translate(282.189688 295.339375) rotate(-90) scale(0.12 -0.12)">
       <defs>
        <path id="ArialMT-37" d="M 303 3981 
L 303 4522 
L 3269 4522 
L 3269 4084 
Q 2831 3619 2401 2847 
Q 1972 2075 1738 1259 
Q 1569 684 1522 0 
L 944 0 
Q 953 541 1156 1306 
Q 1359 2072 1739 2783 
Q 2119 3494 2547 3981 
L 303 3981 
z
" transform="scale(0.015625)"/>
       </defs>
       <use xlink:href="#ArialMT-37"/>
       <use xlink:href="#ArialMT-3a" transform="translate(55.615234 0)"/>
       <use xlink:href="#ArialMT-30" transform="translate(83.398438 0)"/>
       <use xlink:href="#ArialMT-30" transform="translate(139.013672 0)"/>
      </g>
     </g>
    </g>
    <g id="xtick_8">
     <g id="line2d_49">
      <g>
       <use xlink:href="#mb995cb0f38" x="306.9875" y="263.48625" style="stroke: #000000"/>
      </g>
     </g>
     <g id="text_8">
      <!-- 8:00 -->
      <g transform="translate(310.089688 295.339375) rotate(-90) scale(0.12 -0.12)">
       <defs>
        <path id="ArialMT-38" d="M 1131 2484 
Q 781 2613 612 2850 
Q 444 3088 444 3419 
Q 444 3919 803 4259 
Q 1163 4600 1759 4600 
Q 2359 4600 2725 4251 
Q 3091 3903 3091 3403 
Q 3091 3084 2923 2848 
Q 2756 2613 2416 2484 
Q 2838 2347 3058 2040 
Q 3278 1734 3278 1309 
Q 3278 722 2862 322 
Q 2447 -78 1769 -78 
Q 1091 -78 675 323 
Q 259 725 259 1325 
Q 259 1772 486 2073 
Q 713 2375 1131 2484 
z
M 1019 3438 
Q 1019 3113 1228 2906 
Q 1438 2700 1772 2700 
Q 2097 2700 2305 2904 
Q 2513 3109 2513 3406 
Q 2513 3716 2298 3927 
Q 2084 4138 1766 4138 
Q 1444 4138 1231 3931 
Q 1019 3725 1019 3438 
z
M 838 1322 
Q 838 1081 952 856 
Q 1066 631 1291 507 
Q 1516 384 1775 384 
Q 2178 384 2440 643 
Q 2703 903 2703 1303 
Q 2703 1709 2433 1975 
Q 2163 2241 1756 2241 
Q 1359 2241 1098 1978 
Q 838 1716 838 1322 
z
" transform="scale(0.015625)"/>
       </defs>
       <use xlink:href="#ArialMT-38"/>
       <use xlink:href="#ArialMT-3a" transform="translate(55.615234 0)"/>
       <use xlink:href="#ArialMT-30" transform="translate(83.398438 0)"/>
       <use xlink:href="#ArialMT-30" transform="translate(139.013672 0)"/>
      </g>
     </g>
    </g>
    <g id="xtick_9">
     <g id="line2d_50">
      <g>
       <use xlink:href="#mb995cb0f38" x="334.8875" y="263.48625" style="stroke: #000000"/>
      </g>
     </g>
     <g id="text_9">
      <!-- 9:00 -->
      <g transform="translate(337.989688 295.339375) rotate(-90) scale(0.12 -0.12)">
       <defs>
        <path id="ArialMT-39" d="M 350 1059 
L 891 1109 
Q 959 728 1153 556 
Q 1347 384 1650 384 
Q 1909 384 2104 503 
Q 2300 622 2425 820 
Q 2550 1019 2634 1356 
Q 2719 1694 2719 2044 
Q 2719 2081 2716 2156 
Q 2547 1888 2255 1720 
Q 1963 1553 1622 1553 
Q 1053 1553 659 1965 
Q 266 2378 266 3053 
Q 266 3750 677 4175 
Q 1088 4600 1706 4600 
Q 2153 4600 2523 4359 
Q 2894 4119 3086 3673 
Q 3278 3228 3278 2384 
Q 3278 1506 3087 986 
Q 2897 466 2520 194 
Q 2144 -78 1638 -78 
Q 1100 -78 759 220 
Q 419 519 350 1059 
z
M 2653 3081 
Q 2653 3566 2395 3850 
Q 2138 4134 1775 4134 
Q 1400 4134 1122 3828 
Q 844 3522 844 3034 
Q 844 2597 1108 2323 
Q 1372 2050 1759 2050 
Q 2150 2050 2401 2323 
Q 2653 2597 2653 3081 
z
" transform="scale(0.015625)"/>
       </defs>
       <use xlink:href="#ArialMT-39"/>
       <use xlink:href="#ArialMT-3a" transform="translate(55.615234 0)"/>
       <use xlink:href="#ArialMT-30" transform="translate(83.398438 0)"/>
       <use xlink:href="#ArialMT-30" transform="translate(139.013672 0)"/>
      </g>
     </g>
    </g>
    <g id="xtick_10">
     <g id="line2d_51">
      <g>
       <use xlink:href="#mb995cb0f38" x="362.7875" y="263.48625" style="stroke: #000000"/>
      </g>
     </g>
     <g id="text_10">
      <!-- 10:00 -->
      <g transform="translate(365.889688 302.0125) rotate(-90) scale(0.12 -0.12)">
       <use xlink:href="#ArialMT-31"/>
       <use xlink:href="#ArialMT-30" transform="translate(55.615234 0)"/>
       <use xlink:href="#ArialMT-3a" transform="translate(111.230469 0)"/>
       <use xlink:href="#ArialMT-30" transform="translate(139.013672 0)"/>
       <use xlink:href="#ArialMT-30" transform="translate(194.628906 0)"/>
      </g>
     </g>
    </g>
    <g id="xtick_11">
     <g id="line2d_52">
      <g>
       <use xlink:href="#mb995cb0f38" x="390.6875" y="263.48625" style="stroke: #000000"/>
      </g>
     </g>
     <g id="text_11">
      <!-- 11:00 -->
      <g transform="translate(393.789688 301.1275) rotate(-90) scale(0.12 -0.12)">
       <use xlink:href="#ArialMT-31"/>
       <use xlink:href="#ArialMT-31" transform="translate(48.240234 0)"/>
       <use xlink:href="#ArialMT-3a" transform="translate(103.855469 0)"/>
       <use xlink:href="#ArialMT-30" transform="translate(131.638672 0)"/>
       <use xlink:href="#ArialMT-30" transform="translate(187.253906 0)"/>
      </g>
     </g>
    </g>
    <g id="xtick_12">
     <g id="line2d_53">
      <g>
       <use xlink:href="#mb995cb0f38" x="418.5875" y="263.48625" style="stroke: #000000"/>
      </g>
     </g>
     <g id="text_12">
      <!-- 12:00 -->
      <g transform="translate(421.689688 302.0125) rotate(-90) scale(0.12 -0.12)">
       <use xlink:href="#ArialMT-31"/>
       <use xlink:href="#ArialMT-32" transform="translate(55.615234 0)"/>
       <use xlink:href="#ArialMT-3a" transform="translate(111.230469 0)"/>
       <use xlink:href="#ArialMT-30" transform="translate(139.013672 0)"/>
       <use xlink:href="#ArialMT-30" transform="translate(194.628906 0)"/>
      </g>
     </g>
    </g>
    <g id="xtick_13">
     <g id="line2d_54">
      <g>
       <use xlink:href="#mb995cb0f38" x="446.4875" y="263.48625" style="stroke: #000000"/>
      </g>
     </g>
     <g id="text_13">
      <!-- 13:00 -->
      <g transform="translate(449.589688 302.0125) rotate(-90) scale(0.12 -0.12)">
       <use xlink:href="#ArialMT-31"/>
       <use xlink:href="#ArialMT-33" transform="translate(55.615234 0)"/>
       <use xlink:href="#ArialMT-3a" transform="translate(111.230469 0)"/>
       <use xlink:href="#ArialMT-30" transform="translate(139.013672 0)"/>
       <use xlink:href="#ArialMT-30" transform="translate(194.628906 0)"/>
      </g>
     </g>
    </g>
    <g id="xtick_14">
     <g id="line2d_55">
      <g>
       <use xlink:href="#mb995cb0f38" x="474.3875" y="263.48625" style="stroke: #000000"/>
      </g>
     </g>
     <g id="text_14">
      <!-- 14:00 -->
      <g transform="translate(477.489688 302.0125) rotate(-90) scale(0.12 -0.12)">
       <use xlink:href="#ArialMT-31"/>
       <use xlink:href="#ArialMT-34" transform="translate(55.615234 0)"/>
       <use xlink:href="#ArialMT-3a" transform="translate(111.230469 0)"/>
       <use xlink:href="#ArialMT-30" transform="translate(139.013672 0)"/>
       <use xlink:href="#ArialMT-30" transform="translate(194.628906 0)"/>
      </g>
     </g>
    </g>
    <g id="xtick_15">
     <g id="line2d_56">
      <g>
       <use xlink:href="#mb995cb0f38" x="502.2875" y="263.48625" style="stroke: #000000"/>
      </g>
     </g>
     <g id="text_15">
      <!-- 15:00 -->
      <g transform="translate(505.389688 302.0125) rotate(-90) scale(0.12 -0.12)">
       <use xlink:href="#ArialMT-31"/>
       <use xlink:href="#ArialMT-35" transform="translate(55.615234 0)"/>
       <use xlink:href="#ArialMT-3a" transform="translate(111.230469 0)"/>
       <use xlink:href="#ArialMT-30" transform="translate(139.013672 0)"/>
       <use xlink:href="#ArialMT-30" transform="translate(194.628906 0)"/>
      </g>
     </g>
    </g>
    <g id="xtick_16">
     <g id="line2d_57">
      <g>
       <use xlink:href="#mb995cb0f38" x="530.1875" y="263.48625" style="stroke: #000000"/>
      </g>
     </g>
     <g id="text_16">
      <!-- 16:00 -->
      <g transform="translate(533.289688 302.0125) rotate(-90) scale(0.12 -0.12)">
       <use xlink:href="#ArialMT-31"/>
       <use xlink:href="#ArialMT-36" transform="translate(55.615234 0)"/>
       <use xlink:href="#ArialMT-3a" transform="translate(111.230469 0)"/>
       <use xlink:href="#ArialMT-30" transform="translate(139.013672 0)"/>
       <use xlink:href="#ArialMT-30" transform="translate(194.628906 0)"/>
      </g>
     </g>
    </g>
    <g id="xtick_17">
     <g id="line2d_58">
      <g>
       <use xlink:href="#mb995cb0f38" x="558.0875" y="263.48625" style="stroke: #000000"/>
      </g>
     </g>
     <g id="text_17">
      <!-- 17:00 -->
      <g transform="translate(561.189688 302.0125) rotate(-90) scale(0.12 -0.12)">
       <use xlink:href="#ArialMT-31"/>
       <use xlink:href="#ArialMT-37" transform="translate(55.615234 0)"/>
       <use xlink:href="#ArialMT-3a" transform="translate(111.230469 0)"/>
       <use xlink:href="#ArialMT-30" transform="translate(139.013672 0)"/>
       <use xlink:href="#ArialMT-30" transform="translate(194.628906 0)"/>
      </g>
     </g>
    </g>
    <g id="xtick_18">
     <g id="line2d_59">
      <g>
       <use xlink:href="#mb995cb0f38" x="585.9875" y="263.48625" style="stroke: #000000"/>
      </g>
     </g>
     <g id="text_18">
      <!-- 18:00 -->
      <g transform="translate(589.089688 302.0125) rotate(-90) scale(0.12 -0.12)">
       <use xlink:href="#ArialMT-31"/>
       <use xlink:href="#ArialMT-38" transform="translate(55.615234 0)"/>
       <use xlink:href="#ArialMT-3a" transform="translate(111.230469 0)"/>
       <use xlink:href="#ArialMT-30" transform="translate(139.013672 0)"/>
       <use xlink:href="#ArialMT-30" transform="translate(194.628906 0)"/>
      </g>
     </g>
    </g>
    <g id="xtick_19">
     <g id="line2d_60">
      <g>
       <use xlink:href="#mb995cb0f38" x="613.8875" y="263.48625" style="stroke: #000000"/>
      </g>
     </g>
     <g id="text_19">
      <!-- 19:00 -->
      <g transform="translate(616.989688 302.0125) rotate(-90) scale(0.12 -0.12)">
       <use xlink:href="#ArialMT-31"/>
       <use xlink:href="#ArialMT-39" transform="translate(55.615234 0)"/>
       <use xlink:href="#ArialMT-3a" transform="translate(111.230469 0)"/>
       <use xlink:href="#ArialMT-30" transform="translate(139.013672 0)"/>
       <use xlink:href="#ArialMT-30" transform="translate(194.628906 0)"/>
      </g>
     </g>
    </g>
    <g id="xtick_20">
     <g id="line2d_61">
      <g>
       <use xlink:href="#mb995cb0f38" x="641.7875" y="263.48625" style="stroke: #000000"/>
      </g>
     </g>
     <g id="text_20">
      <!-- 20:00 -->
      <g transform="translate(644.889688 302.0125) rotate(-90) scale(0.12 -0.12)">
       <use xlink:href="#ArialMT-32"/>
       <use xlink:href="#ArialMT-30" transform="translate(55.615234 0)"/>
       <use xlink:href="#ArialMT-3a" transform="translate(111.230469 0)"/>
       <use xlink:href="#ArialMT-30" transform="translate(139.013672 0)"/>
       <use xlink:href="#ArialMT-30" transform="translate(194.628906 0)"/>
      </g>
     </g>
    </g>
    <g id="xtick_21">
     <g id="line2d_62">
      <g>
       <use xlink:href="#mb995cb0f38" x="669.6875" y="263.48625" style="stroke: #000000"/>
      </g>
     </g>
     <g id="text_21">
      <!-- 21:00 -->
      <g transform="translate(672.789688 302.0125) rotate(-90) scale(0.12 -0.12)">
       <use xlink:href="#ArialMT-32"/>
       <use xlink:href="#ArialMT-31" transform="translate(55.615234 0)"/>
       <use xlink:href="#ArialMT-3a" transform="translate(111.230469 0)"/>
       <use xlink:href="#ArialMT-30" transform="translate(139.013672 0)"/>
       <use xlink:href="#ArialMT-30" transform="translate(194.628906 0)"/>
      </g>
     </g>
    </g>
    <g id="xtick_22">
     <g id="line2d_63">
      <g>
       <use xlink:href="#mb995cb0f38" x="697.5875" y="263.48625" style="stroke: #000000"/>
      </g>
     </g>
     <g id="text_22">
      <!-- 22:00 -->
      <g transform="translate(700.689688 302.0125) rotate(-90) scale(0.12 -0.12)">
       <use xlink:href="#ArialMT-32"/>
       <use xlink:href="#ArialMT-32" transform="translate(55.615234 0)"/>
       <use xlink:href="#ArialMT-3a" transform="translate(111.230469 0)"/>
       <use xlink:href="#ArialMT-30" transform="translate(139.013672 0)"/>
       <use xlink:href="#ArialMT-30" transform="translate(194.628906 0)"/>
      </g>
     </g>
    </g>
    <g id="xtick_23">
     <g id="line2d_64">
      <g>
       <use xlink:href="#mb995cb0f38" x="725.4875" y="263.48625" style="stroke: #000000"/>
      </g>
     </g>
     <g id="text_23">
      <!-- 23:00 -->
      <g transform="translate(728.589688 302.0125) rotate(-90) scale(0.12 -0.12)">
       <use xlink:href="#ArialMT-32"/>
       <use xlink:href="#ArialMT-33" transform="translate(55.615234 0)"/>
       <use xlink:href="#ArialMT-3a" transform="translate(111.230469 0)"/>
       <use xlink:href="#ArialMT-30" transform="translate(139.013672 0)"/>
       <use xlink:href="#ArialMT-30" transform="translate(194.628906 0)"/>
      </g>
     </g>
    </g>
    <g id="xtick_24">
     <g id="line2d_65">
      <g>
       <use xlink:href="#mb995cb0f38" x="753.3875" y="263.48625" style="stroke: #000000"/>
      </g>
     </g>
     <g id="text_24">
      <!-- 24:00 -->
      <g transform="translate(756.489688 302.0125) rotate(-90) scale(0.12 -0.12)">
       <use xlink:href="#ArialMT-32"/>
       <use xlink:href="#ArialMT-34" transform="translate(55.615234 0)"/>
       <use xlink:href="#ArialMT-3a" transform="translate(111.230469 0)"/>
       <use xlink:href="#ArialMT-30" transform="translate(139.013672 0)"/>
       <use xlink:href="#ArialMT-30" transform="translate(194.628906 0)"/>
      </g>
     </g>
    </g>
   </g>
   <g id="matplotlib.axis_2">
    <g id="ytick_1">
     <g id="line2d_66">
      <defs>
       <path id="mdfbd555637" d="M 0 0 
L -5 0 
" style="stroke: #000000; stroke-opacity: 0; stroke-width: 1.5"/>
      </defs>
      <g>
       <use xlink:href="#mdfbd555637" x="97.7375" y="252.92625" style="fill-opacity: 0; stroke: #000000; stroke-opacity: 0; stroke-width: 1.5"/>
      </g>
     </g>
     <g id="text_25">
      <!-- 0.00 -->
      <g transform="translate(58.1 258.6525) scale(0.16 -0.16)">
       <defs>
        <path id="ArialMT-2e" d="M 581 0 
L 581 641 
L 1222 641 
L 1222 0 
L 581 0 
z
" transform="scale(0.015625)"/>
       </defs>
       <use xlink:href="#ArialMT-30"/>
       <use xlink:href="#ArialMT-2e" transform="translate(55.615234 0)"/>
       <use xlink:href="#ArialMT-30" transform="translate(83.398438 0)"/>
       <use xlink:href="#ArialMT-30" transform="translate(139.013672 0)"/>
      </g>
     </g>
    </g>
    <g id="ytick_2">
     <g id="line2d_67">
      <g>
       <use xlink:href="#mdfbd555637" x="97.7375" y="200.12625" style="fill-opacity: 0; stroke: #000000; stroke-opacity: 0; stroke-width: 1.5"/>
      </g>
     </g>
     <g id="text_26">
      <!-- 0.25 -->
      <g transform="translate(58.1 205.8525) scale(0.16 -0.16)">
       <use xlink:href="#ArialMT-30"/>
       <use xlink:href="#ArialMT-2e" transform="translate(55.615234 0)"/>
       <use xlink:href="#ArialMT-32" transform="translate(83.398438 0)"/>
       <use xlink:href="#ArialMT-35" transform="translate(139.013672 0)"/>
      </g>
     </g>
    </g>
    <g id="ytick_3">
     <g id="line2d_68">
      <g>
       <use xlink:href="#mdfbd555637" x="97.7375" y="147.32625" style="fill-opacity: 0; stroke: #000000; stroke-opacity: 0; stroke-width: 1.5"/>
      </g>
     </g>
     <g id="text_27">
      <!-- 0.50 -->
      <g transform="translate(58.1 153.0525) scale(0.16 -0.16)">
       <use xlink:href="#ArialMT-30"/>
       <use xlink:href="#ArialMT-2e" transform="translate(55.615234 0)"/>
       <use xlink:href="#ArialMT-35" transform="translate(83.398438 0)"/>
       <use xlink:href="#ArialMT-30" transform="translate(139.013672 0)"/>
      </g>
     </g>
    </g>
    <g id="ytick_4">
     <g id="line2d_69">
      <g>
       <use xlink:href="#mdfbd555637" x="97.7375" y="94.52625" style="fill-opacity: 0; stroke: #000000; stroke-opacity: 0; stroke-width: 1.5"/>
      </g>
     </g>
     <g id="text_28">
      <!-- 0.75 -->
      <g transform="translate(58.1 100.2525) scale(0.16 -0.16)">
       <use xlink:href="#ArialMT-30"/>
       <use xlink:href="#ArialMT-2e" transform="translate(55.615234 0)"/>
       <use xlink:href="#ArialMT-37" transform="translate(83.398438 0)"/>
       <use xlink:href="#ArialMT-35" transform="translate(139.013672 0)"/>
      </g>
     </g>
    </g>
    <g id="ytick_5">
     <g id="line2d_70">
      <g>
       <use xlink:href="#mdfbd555637" x="97.7375" y="41.72625" style="fill-opacity: 0; stroke: #000000; stroke-opacity: 0; stroke-width: 1.5"/>
      </g>
     </g>
     <g id="text_29">
      <!-- 1.00 -->
      <g transform="translate(58.1 47.4525) scale(0.16 -0.16)">
       <use xlink:href="#ArialMT-31"/>
       <use xlink:href="#ArialMT-2e" transform="translate(55.615234 0)"/>
       <use xlink:href="#ArialMT-30" transform="translate(83.398438 0)"/>
       <use xlink:href="#ArialMT-30" transform="translate(139.013672 0)"/>
      </g>
     </g>
    </g>
    <g id="text_30">
     <!-- NO$_{\mathregular{x}}$ (kg) -->
     <g transform="translate(49.14 187.61625) rotate(-90) scale(0.18 -0.18)">
      <defs>
       <path id="ArialMT-4e" d="M 488 0 
L 488 4581 
L 1109 4581 
L 3516 984 
L 3516 4581 
L 4097 4581 
L 4097 0 
L 3475 0 
L 1069 3600 
L 1069 0 
L 488 0 
z
" transform="scale(0.015625)"/>
       <path id="ArialMT-4f" d="M 309 2231 
Q 309 3372 921 4017 
Q 1534 4663 2503 4663 
Q 3138 4663 3647 4359 
Q 4156 4056 4423 3514 
Q 4691 2972 4691 2284 
Q 4691 1588 4409 1038 
Q 4128 488 3612 205 
Q 3097 -78 2500 -78 
Q 1853 -78 1343 234 
Q 834 547 571 1087 
Q 309 1628 309 2231 
z
M 934 2222 
Q 934 1394 1379 917 
Q 1825 441 2497 441 
Q 3181 441 3623 922 
Q 4066 1403 4066 2288 
Q 4066 2847 3877 3264 
Q 3688 3681 3323 3911 
Q 2959 4141 2506 4141 
Q 1863 4141 1398 3698 
Q 934 3256 934 2222 
z
" transform="scale(0.015625)"/>
       <path id="ArialMT-78" d="M 47 0 
L 1259 1725 
L 138 3319 
L 841 3319 
L 1350 2541 
Q 1494 2319 1581 2169 
Q 1719 2375 1834 2534 
L 2394 3319 
L 3066 3319 
L 1919 1756 
L 3153 0 
L 2463 0 
L 1781 1031 
L 1600 1309 
L 728 0 
L 47 0 
z
" transform="scale(0.015625)"/>
       <path id="ArialMT-20" transform="scale(0.015625)"/>
       <path id="ArialMT-28" d="M 1497 -1347 
Q 1031 -759 709 28 
Q 388 816 388 1659 
Q 388 2403 628 3084 
Q 909 3875 1497 4659 
L 1900 4659 
Q 1522 4009 1400 3731 
Q 1209 3300 1100 2831 
Q 966 2247 966 1656 
Q 966 153 1900 -1347 
L 1497 -1347 
z
" transform="scale(0.015625)"/>
       <path id="ArialMT-6b" d="M 425 0 
L 425 4581 
L 988 4581 
L 988 1969 
L 2319 3319 
L 3047 3319 
L 1778 2088 
L 3175 0 
L 2481 0 
L 1384 1697 
L 988 1316 
L 988 0 
L 425 0 
z
" transform="scale(0.015625)"/>
       <path id="ArialMT-67" d="M 319 -275 
L 866 -356 
Q 900 -609 1056 -725 
Q 1266 -881 1628 -881 
Q 2019 -881 2231 -725 
Q 2444 -569 2519 -288 
Q 2563 -116 2559 434 
Q 2191 0 1641 0 
Q 956 0 581 494 
Q 206 988 206 1678 
Q 206 2153 378 2554 
Q 550 2956 876 3175 
Q 1203 3394 1644 3394 
Q 2231 3394 2613 2919 
L 2613 3319 
L 3131 3319 
L 3131 450 
Q 3131 -325 2973 -648 
Q 2816 -972 2473 -1159 
Q 2131 -1347 1631 -1347 
Q 1038 -1347 672 -1080 
Q 306 -813 319 -275 
z
M 784 1719 
Q 784 1066 1043 766 
Q 1303 466 1694 466 
Q 2081 466 2343 764 
Q 2606 1063 2606 1700 
Q 2606 2309 2336 2618 
Q 2066 2928 1684 2928 
Q 1309 2928 1046 2623 
Q 784 2319 784 1719 
z
" transform="scale(0.015625)"/>
       <path id="ArialMT-29" d="M 791 -1347 
L 388 -1347 
Q 1322 153 1322 1656 
Q 1322 2244 1188 2822 
Q 1081 3291 891 3722 
Q 769 4003 388 4659 
L 791 4659 
Q 1378 3875 1659 3084 
Q 1900 2403 1900 1659 
Q 1900 816 1576 28 
Q 1253 -759 791 -1347 
z
" transform="scale(0.015625)"/>
      </defs>
      <use xlink:href="#ArialMT-4e" transform="translate(0 0.140625)"/>
      <use xlink:href="#ArialMT-4f" transform="translate(72.216797 0.140625)"/>
      <use xlink:href="#ArialMT-78" transform="translate(150.957031 -16.265625) scale(0.7)"/>
      <use xlink:href="#ArialMT-20" transform="translate(188.691406 0.140625)"/>
      <use xlink:href="#ArialMT-28" transform="translate(216.474609 0.140625)"/>
      <use xlink:href="#ArialMT-6b" transform="translate(249.775391 0.140625)"/>
      <use xlink:href="#ArialMT-67" transform="translate(299.775391 0.140625)"/>
      <use xlink:href="#ArialMT-29" transform="translate(355.390625 0.140625)"/>
     </g>
    </g>
   </g>
   <g id="line2d_71">
    <path d="M 111.6875 216.883295 
L 139.5875 228.924484 
L 167.4875 232.804201 
L 195.3875 229.410739 
L 223.2875 219.284226 
L 251.1875 193.093366 
L 279.0875 151.901968 
L 306.9875 117.276255 
L 334.8875 108.524383 
L 362.7875 106.710125 
L 390.6875 103.653368 
L 418.5875 93.352724 
L 446.4875 89.570447 
L 474.3875 86.82515 
L 502.2875 83.781022 
L 530.1875 83.659455 
L 558.0875 83.102469 
L 585.9875 91.932876 
L 613.8875 101.622582 
L 641.7875 118.59788 
L 669.6875 136.461898 
L 697.5875 156.486006 
L 725.4875 171.374933 
L 753.3875 190.816132 
" clip-path="url(#p6cbc574bda)" style="fill: none; stroke: #d62728; stroke-opacity: 0.8; stroke-width: 1.5; stroke-linecap: round"/>
   </g>
   <g id="line2d_72">
    <path d="M 111.6875 229.336282 
L 139.5875 238.993023 
L 167.4875 241.292296 
L 195.3875 239.884936 
L 223.2875 232.898064 
L 251.1875 217.657548 
L 279.0875 179.406154 
L 306.9875 147.207098 
L 334.8875 133.589341 
L 362.7875 127.095985 
L 390.6875 123.137058 
L 418.5875 115.626137 
L 446.4875 114.628861 
L 474.3875 113.909467 
L 502.2875 113.672944 
L 530.1875 111.352172 
L 558.0875 112.172622 
L 585.9875 118.854015 
L 613.8875 122.61496 
L 641.7875 136.033277 
L 669.6875 153.922482 
L 697.5875 174.91203 
L 725.4875 188.534026 
L 753.3875 205.466127 
" clip-path="url(#p6cbc574bda)" style="fill: none; stroke: #9467bd; stroke-opacity: 0.8; stroke-width: 1.5; stroke-linecap: round"/>
   </g>
   <g id="line2d_73">
    <path d="M 111.6875 225.000845 
L 139.5875 236.364843 
L 167.4875 238.248 
L 195.3875 237.253393 
L 223.2875 231.548207 
L 251.1875 207.747717 
L 279.0875 168.731054 
L 306.9875 125.372075 
L 334.8875 98.592467 
L 362.7875 88.029841 
L 390.6875 80.121119 
L 418.5875 73.666238 
L 446.4875 69.465027 
L 474.3875 65.21235 
L 502.2875 62.561511 
L 530.1875 66.646156 
L 558.0875 67.831179 
L 585.9875 75.879505 
L 613.8875 75.849617 
L 641.7875 96.639008 
L 669.6875 123.945615 
L 697.5875 152.436676 
L 725.4875 176.675426 
L 753.3875 197.223965 
" clip-path="url(#p6cbc574bda)" style="fill: none; stroke: #9467bd; stroke-opacity: 0.8; stroke-width: 1.5; stroke-linecap: round"/>
   </g>
   <g id="line2d_74">
    <path d="M 111.6875 241.945559 
L 139.5875 245.584496 
L 167.4875 245.818861 
L 195.3875 244.23812 
L 223.2875 239.279793 
L 251.1875 233.899056 
L 279.0875 215.240044 
L 306.9875 198.079361 
L 334.8875 188.405118 
L 362.7875 184.990597 
L 390.6875 180.447448 
L 418.5875 173.538111 
L 446.4875 171.566274 
L 474.3875 169.419299 
L 502.2875 168.85167 
L 530.1875 168.29681 
L 558.0875 166.894858 
L 585.9875 176.587838 
L 613.8875 187.760493 
L 641.7875 197.718015 
L 669.6875 207.166396 
L 697.5875 216.356268 
L 725.4875 226.591832 
L 753.3875 233.784303 
" clip-path="url(#p6cbc574bda)" style="fill: none; stroke: #c5b0d5; stroke-opacity: 0.8; stroke-width: 1.5; stroke-linecap: round"/>
   </g>
   <g id="line2d_75">
    <path d="M 111.6875 240.280751 
L 139.5875 244.532262 
L 167.4875 244.994974 
L 195.3875 243.876508 
L 223.2875 238.056274 
L 251.1875 231.103729 
L 279.0875 210.580372 
L 306.9875 194.073638 
L 334.8875 181.99198 
L 362.7875 178.955789 
L 390.6875 173.676157 
L 418.5875 167.085431 
L 446.4875 164.378782 
L 474.3875 162.693849 
L 502.2875 162.89382 
L 530.1875 163.345329 
L 558.0875 162.26357 
L 585.9875 170.447448 
L 613.8875 181.668092 
L 641.7875 192.053946 
L 669.6875 203.132784 
L 697.5875 212.345209 
L 725.4875 222.670933 
L 753.3875 230.818374 
" clip-path="url(#p6cbc574bda)" style="fill: none; stroke: #8c564b; stroke-opacity: 0.8; stroke-width: 1.5; stroke-linecap: round"/>
   </g>
   <g id="line2d_76">
    <path d="M 111.6875 237.33225 
L 139.5875 242.668968 
L 167.4875 243.64941 
L 195.3875 242.923742 
L 223.2875 236.399495 
L 251.1875 224.81662 
L 279.0875 200.855132 
L 306.9875 180.018851 
L 334.8875 166.702218 
L 362.7875 162.736618 
L 390.6875 157.7179 
L 418.5875 150.219013 
L 446.4875 148.690665 
L 474.3875 146.004255 
L 502.2875 147.016743 
L 530.1875 147.314526 
L 558.0875 143.669233 
L 585.9875 150.402797 
L 613.8875 163.217017 
L 641.7875 176.160197 
L 669.6875 189.295919 
L 697.5875 201.821003 
L 725.4875 213.883778 
L 753.3875 225.132202 
" clip-path="url(#p6cbc574bda)" style="fill: none; stroke: #c49c94; stroke-opacity: 0.8; stroke-width: 1.5; stroke-linecap: round"/>
   </g>
   <g id="line2d_77">
    <path d="M 111.6875 226.557687 
L 139.5875 236.469862 
L 167.4875 238.77096 
L 195.3875 235.936802 
L 223.2875 229.902536 
L 251.1875 207.545473 
L 279.0875 165.97414 
L 306.9875 128.216796 
L 334.8875 109.664846 
L 362.7875 102.809071 
L 390.6875 98.08246 
L 418.5875 88.531462 
L 446.4875 84.434403 
L 474.3875 83.326314 
L 502.2875 83.296636 
L 530.1875 85.364118 
L 558.0875 83.58505 
L 585.9875 95.220889 
L 613.8875 98.710084 
L 641.7875 118.708245 
L 669.6875 140.276522 
L 697.5875 166.343115 
L 725.4875 181.13389 
L 753.3875 200.77873 
" clip-path="url(#p6cbc574bda)" style="fill: none; stroke: #c49c94; stroke-opacity: 0.8; stroke-width: 1.5; stroke-linecap: round"/>
   </g>
   <g id="line2d_78">
    <path d="M 111.6875 226.923036 
L 139.5875 236.121754 
L 167.4875 236.751785 
L 195.3875 235.113359 
L 223.2875 229.496273 
L 251.1875 211.693028 
L 279.0875 176.174029 
L 306.9875 140.128186 
L 334.8875 113.900278 
L 362.7875 107.234306 
L 390.6875 101.122123 
L 418.5875 91.457493 
L 446.4875 88.675253 
L 474.3875 84.279922 
L 502.2875 81.793576 
L 530.1875 83.330934 
L 558.0875 85.021959 
L 585.9875 91.841514 
L 613.8875 100.261965 
L 641.7875 120.961232 
L 669.6875 143.47598 
L 697.5875 167.472384 
L 725.4875 186.503063 
L 753.3875 203.260483 
" clip-path="url(#p6cbc574bda)" style="fill: none; stroke: #2ca02c; stroke-opacity: 0.8; stroke-width: 1.5; stroke-linecap: round"/>
   </g>
   <g id="line2d_79">
    <path d="M 111.6875 234.980424 
L 139.5875 239.949791 
L 167.4875 240.75343 
L 195.3875 238.798375 
L 223.2875 234.009244 
L 251.1875 225.973119 
L 279.0875 206.608138 
L 306.9875 181.892784 
L 334.8875 167.865549 
L 362.7875 160.509256 
L 390.6875 153.242188 
L 418.5875 142.302459 
L 446.4875 138.095635 
L 474.3875 136.143233 
L 502.2875 133.589293 
L 530.1875 135.482531 
L 558.0875 137.736217 
L 585.9875 145.8649 
L 613.8875 155.991316 
L 641.7875 170.810919 
L 669.6875 184.396186 
L 697.5875 199.493026 
L 725.4875 212.485565 
L 753.3875 223.56499 
" clip-path="url(#p6cbc574bda)" style="fill: none; stroke: #ff7f0e; stroke-opacity: 0.8; stroke-width: 1.5; stroke-linecap: round"/>
   </g>
   <g id="line2d_80">
    <path d="M 111.6875 233.080969 
L 139.5875 238.944352 
L 167.4875 240.31209 
L 195.3875 239.48646 
L 223.2875 233.64351 
L 251.1875 220.87025 
L 279.0875 197.805136 
L 306.9875 171.772133 
L 334.8875 156.096045 
L 362.7875 148.714695 
L 390.6875 142.397079 
L 418.5875 131.430287 
L 446.4875 129.210879 
L 474.3875 125.586845 
L 502.2875 124.792913 
L 530.1875 125.920256 
L 558.0875 125.255247 
L 585.9875 131.244472 
L 613.8875 143.515841 
L 641.7875 159.468327 
L 669.6875 175.039171 
L 697.5875 191.763454 
L 725.4875 205.7703 
L 753.3875 219.382452 
" clip-path="url(#p6cbc574bda)" style="fill: none; stroke: #98df8a; stroke-opacity: 0.8; stroke-width: 1.5; stroke-linecap: round"/>
   </g>
   <g id="line2d_81">
    <path d="M 111.6875 225.561753 
L 139.5875 236.815272 
L 167.4875 238.565679 
L 195.3875 237.517438 
L 223.2875 231.543765 
L 251.1875 209.082155 
L 279.0875 165.993344 
L 306.9875 127.362876 
L 334.8875 116.341438 
L 362.7875 112.141198 
L 390.6875 106.851973 
L 418.5875 97.070076 
L 446.4875 93.429868 
L 474.3875 91.279919 
L 502.2875 83.972327 
L 530.1875 81.005972 
L 558.0875 79.784116 
L 585.9875 92.45235 
L 613.8875 106.998563 
L 641.7875 130.301889 
L 669.6875 150.143208 
L 697.5875 172.145686 
L 725.4875 182.868663 
L 753.3875 201.222956 
" clip-path="url(#p6cbc574bda)" style="fill: none; stroke: #e377c2; stroke-opacity: 0.8; stroke-width: 1.5; stroke-linecap: round"/>
   </g>
   <g id="line2d_82">
    <path d="M 111.6875 220.605376 
L 139.5875 231.030084 
L 167.4875 233.397255 
L 195.3875 231.5012 
L 223.2875 226.158775 
L 251.1875 201.320665 
L 279.0875 155.337618 
L 306.9875 114.868374 
L 334.8875 100.431409 
L 362.7875 96.415114 
L 390.6875 90.436413 
L 418.5875 81.910043 
L 446.4875 77.275094 
L 474.3875 74.374424 
L 502.2875 72.365673 
L 530.1875 71.270813 
L 558.0875 70.599018 
L 585.9875 79.111468 
L 613.8875 87.397462 
L 641.7875 107.425773 
L 669.6875 129.786354 
L 697.5875 152.412386 
L 725.4875 172.61398 
L 753.3875 193.981182 
" clip-path="url(#p6cbc574bda)" style="fill: none; stroke: #1f77b4; stroke-opacity: 0.8; stroke-width: 1.5; stroke-linecap: round"/>
   </g>
   <g id="line2d_83">
    <path d="M 111.6875 220.390684 
L 139.5875 230.890207 
L 167.4875 233.276189 
L 195.3875 231.125411 
L 223.2875 225.339177 
L 251.1875 203.766041 
L 279.0875 160.797059 
L 306.9875 121.807834 
L 334.8875 109.44013 
L 362.7875 103.083829 
L 390.6875 95.402319 
L 418.5875 87.019888 
L 446.4875 84.034324 
L 474.3875 82.303325 
L 502.2875 80.610861 
L 530.1875 80.497904 
L 558.0875 82.214432 
L 585.9875 87.937058 
L 613.8875 95.346028 
L 641.7875 112.538888 
L 669.6875 132.963813 
L 697.5875 154.819395 
L 725.4875 174.872949 
L 753.3875 194.298061 
" clip-path="url(#p6cbc574bda)" style="fill: none; stroke: #f7b6d2; stroke-opacity: 0.8; stroke-width: 1.5; stroke-linecap: round"/>
   </g>
   <g id="line2d_84">
    <path d="M 111.6875 215.687718 
L 139.5875 227.129617 
L 167.4875 230.239534 
L 195.3875 228.880996 
L 223.2875 222.621619 
L 251.1875 198.823377 
L 279.0875 155.797942 
L 306.9875 113.062985 
L 334.8875 98.736447 
L 362.7875 91.552261 
L 390.6875 82.532408 
L 418.5875 74.457886 
L 446.4875 70.842155 
L 474.3875 68.780833 
L 502.2875 67.144128 
L 530.1875 67.811872 
L 558.0875 68.893521 
L 585.9875 74.619314 
L 613.8875 78.76762 
L 641.7875 97.432548 
L 669.6875 118.767917 
L 697.5875 144.342532 
L 725.4875 163.968032 
L 753.3875 186.807568 
" clip-path="url(#p6cbc574bda)" style="fill: none; stroke: #ff9896; stroke-opacity: 0.8; stroke-width: 1.5; stroke-linecap: round"/>
   </g>
   <g id="line2d_85">
    <path d="M 111.6875 221.560974 
L 139.5875 231.409044 
L 167.4875 235.72821 
L 195.3875 232.369696 
L 223.2875 222.094691 
L 251.1875 191.822587 
L 279.0875 146.079486 
L 306.9875 113.5117 
L 334.8875 108.663659 
L 362.7875 102.548243 
L 390.6875 96.881981 
L 418.5875 88.172194 
L 446.4875 87.179693 
L 474.3875 83.964755 
L 502.2875 82.075614 
L 530.1875 81.274676 
L 558.0875 82.219943 
L 585.9875 94.115345 
L 613.8875 105.292079 
L 641.7875 124.888324 
L 669.6875 143.667773 
L 697.5875 161.683228 
L 725.4875 178.05132 
L 753.3875 195.307791 
" clip-path="url(#p6cbc574bda)" style="fill: none; stroke: #ff7f0e; stroke-opacity: 0.8; stroke-width: 1.5; stroke-linecap: round"/>
   </g>
   <g id="line2d_86">
    <path d="M 111.6875 220.519111 
L 139.5875 230.664455 
L 167.4875 233.328357 
L 195.3875 232.596629 
L 223.2875 227.041178 
L 251.1875 205.481288 
L 279.0875 170.205028 
L 306.9875 126.857494 
L 334.8875 113.992273 
L 362.7875 106.606428 
L 390.6875 99.180892 
L 418.5875 89.910966 
L 446.4875 86.128594 
L 474.3875 84.517734 
L 502.2875 82.486621 
L 530.1875 80.536461 
L 558.0875 81.246457 
L 585.9875 89.470837 
L 613.8875 97.527406 
L 641.7875 115.604483 
L 669.6875 133.720522 
L 697.5875 155.967451 
L 725.4875 168.891665 
L 753.3875 192.368646 
" clip-path="url(#p6cbc574bda)" style="fill: none; stroke: #f7b6d2; stroke-opacity: 0.8; stroke-width: 1.5; stroke-linecap: round"/>
   </g>
   <g id="line2d_87">
    <path d="M 111.6875 224.695435 
L 139.5875 233.411278 
L 167.4875 236.010815 
L 195.3875 235.290702 
L 223.2875 229.451954 
L 251.1875 211.152294 
L 279.0875 179.124314 
L 306.9875 148.271612 
L 334.8875 132.338835 
L 362.7875 123.185022 
L 390.6875 117.901997 
L 418.5875 107.846351 
L 446.4875 104.539373 
L 474.3875 102.124277 
L 502.2875 101.239062 
L 530.1875 99.281292 
L 558.0875 100.006553 
L 585.9875 107.688711 
L 613.8875 117.460955 
L 641.7875 136.171774 
L 669.6875 153.729752 
L 697.5875 173.745217 
L 725.4875 188.540522 
L 753.3875 203.876255 
" clip-path="url(#p6cbc574bda)" style="fill: none; stroke: #7f7f7f; stroke-opacity: 0.8; stroke-width: 1.5; stroke-linecap: round"/>
   </g>
   <g id="line2d_88">
    <path d="M 111.6875 214.972612 
L 139.5875 227.034383 
L 167.4875 230.391633 
L 195.3875 227.847364 
L 223.2875 218.250041 
L 251.1875 186.764773 
L 279.0875 136.820905 
L 306.9875 107.405153 
L 334.8875 101.827149 
L 362.7875 95.222323 
L 390.6875 92.282594 
L 418.5875 84.154252 
L 446.4875 82.268329 
L 474.3875 78.472842 
L 502.2875 77.974143 
L 530.1875 79.818573 
L 558.0875 80.339081 
L 585.9875 89.144694 
L 613.8875 96.863156 
L 641.7875 114.383151 
L 669.6875 133.653618 
L 697.5875 148.872299 
L 725.4875 164.347271 
L 753.3875 185.993234 
" clip-path="url(#p6cbc574bda)" style="fill: none; stroke: #c7c7c7; stroke-opacity: 0.8; stroke-width: 1.5; stroke-linecap: round"/>
   </g>
   <g id="line2d_89">
    <path d="M 111.6875 220.349907 
L 139.5875 229.913871 
L 167.4875 232.755568 
L 195.3875 231.469501 
L 223.2875 225.897397 
L 251.1875 203.715424 
L 279.0875 169.673176 
L 306.9875 128.842851 
L 334.8875 116.269091 
L 362.7875 108.892765 
L 390.6875 102.622364 
L 418.5875 92.738661 
L 446.4875 88.691086 
L 474.3875 84.883786 
L 502.2875 84.4989 
L 530.1875 85.647949 
L 558.0875 86.896277 
L 585.9875 94.491146 
L 613.8875 101.88665 
L 641.7875 112.037487 
L 669.6875 134.303727 
L 697.5875 157.411077 
L 725.4875 175.694179 
L 753.3875 197.911938 
" clip-path="url(#p6cbc574bda)" style="fill: none; stroke: #aec7e8; stroke-opacity: 0.8; stroke-width: 1.5; stroke-linecap: round"/>
   </g>
   <g id="line2d_90">
    <path d="M 111.6875 221.493462 
L 139.5875 231.845737 
L 167.4875 234.513847 
L 195.3875 234.43523 
L 223.2875 229.784389 
L 251.1875 210.185345 
L 279.0875 179.385907 
L 306.9875 136.86217 
L 334.8875 122.818893 
L 362.7875 114.892267 
L 390.6875 105.851305 
L 418.5875 93.919289 
L 446.4875 89.364913 
L 474.3875 85.847684 
L 502.2875 84.459273 
L 530.1875 82.519271 
L 558.0875 82.103154 
L 585.9875 90.518442 
L 613.8875 102.880246 
L 641.7875 120.433119 
L 669.6875 140.925017 
L 697.5875 163.143498 
L 725.4875 180.53347 
L 753.3875 199.117003 
" clip-path="url(#p6cbc574bda)" style="fill: none; stroke: #d62728; stroke-opacity: 0.8; stroke-width: 1.5; stroke-linecap: round"/>
   </g>
   <g id="line2d_91">
    <path d="M 111.6875 224.804927 
L 139.5875 232.707953 
L 167.4875 234.105597 
L 195.3875 235.5068 
L 223.2875 229.544997 
L 251.1875 212.36392 
L 279.0875 182.387557 
L 306.9875 145.456922 
L 334.8875 136.507522 
L 362.7875 132.733281 
L 390.6875 127.696789 
L 418.5875 117.584002 
L 446.4875 113.310163 
L 474.3875 110.761419 
L 502.2875 110.182234 
L 530.1875 110.741299 
L 558.0875 110.823954 
L 585.9875 118.642573 
L 613.8875 128.993907 
L 641.7875 144.737882 
L 669.6875 161.601358 
L 697.5875 178.712555 
L 725.4875 191.409397 
L 753.3875 206.169505 
" clip-path="url(#p6cbc574bda)" style="fill: none; stroke: #9edae5; stroke-opacity: 0.8; stroke-width: 1.5; stroke-linecap: round"/>
   </g>
   <g id="line2d_92">
    <path d="M 111.6875 223.036459 
L 139.5875 233.327947 
L 167.4875 235.227581 
L 195.3875 234.773226 
L 223.2875 228.699206 
L 251.1875 206.002466 
L 279.0875 158.706863 
L 306.9875 123.906158 
L 334.8875 112.631651 
L 362.7875 108.863051 
L 390.6875 105.886851 
L 418.5875 96.048487 
L 446.4875 96.195896 
L 474.3875 93.739825 
L 502.2875 94.101766 
L 530.1875 93.329943 
L 558.0875 92.81526 
L 585.9875 100.745811 
L 613.8875 106.911284 
L 641.7875 124.501126 
L 669.6875 142.324669 
L 697.5875 160.155485 
L 725.4875 179.696826 
L 753.3875 199.428439 
" clip-path="url(#p6cbc574bda)" style="fill: none; stroke: #bcbd22; stroke-opacity: 0.8; stroke-width: 1.5; stroke-linecap: round"/>
   </g>
   <g id="line2d_93">
    <path d="M 111.6875 223.475329 
L 139.5875 232.649491 
L 167.4875 234.858247 
L 195.3875 233.887073 
L 223.2875 228.842995 
L 251.1875 204.679509 
L 279.0875 161.337878 
L 306.9875 125.176897 
L 334.8875 111.488498 
L 362.7875 106.990368 
L 390.6875 101.864702 
L 418.5875 92.933565 
L 446.4875 90.396734 
L 474.3875 88.515454 
L 502.2875 88.607107 
L 530.1875 89.404613 
L 558.0875 89.12746 
L 585.9875 96.785479 
L 613.8875 105.608609 
L 641.7875 127.335072 
L 669.6875 146.929835 
L 697.5875 164.966394 
L 725.4875 182.43579 
L 753.3875 201.841712 
" clip-path="url(#p6cbc574bda)" style="fill: none; stroke: #1f77b4; stroke-opacity: 0.8; stroke-width: 1.5; stroke-linecap: round"/>
   </g>
   <g id="line2d_94">
    <path d="M 111.6875 213.447665 
L 139.5875 226.163125 
L 167.4875 229.776186 
L 195.3875 228.702325 
L 223.2875 223.292452 
L 251.1875 198.246277 
L 279.0875 157.094955 
L 306.9875 114.674915 
L 334.8875 103.841135 
L 362.7875 99.220144 
L 390.6875 93.254916 
L 418.5875 83.148433 
L 446.4875 81.615648 
L 474.3875 79.227891 
L 502.2875 78.138542 
L 530.1875 76.656373 
L 558.0875 77.549278 
L 585.9875 86.037815 
L 613.8875 91.543755 
L 641.7875 109.890512 
L 669.6875 126.577123 
L 697.5875 146.62595 
L 725.4875 164.798035 
L 753.3875 184.700325 
" clip-path="url(#p6cbc574bda)" style="fill: none; stroke: #dbdb8d; stroke-opacity: 0.8; stroke-width: 1.5; stroke-linecap: round"/>
   </g>
   <g id="line2d_95">
    <path d="M 111.6875 223.502365 
L 139.5875 234.657466 
L 167.4875 237.467024 
L 195.3875 236.431205 
L 223.2875 230.794775 
L 251.1875 216.376271 
L 279.0875 182.680275 
L 306.9875 148.285583 
L 334.8875 138.306656 
L 362.7875 133.14702 
L 390.6875 127.706562 
L 418.5875 119.73822 
L 446.4875 120.281262 
L 474.3875 118.898256 
L 502.2875 117.231132 
L 530.1875 114.525891 
L 558.0875 114.071759 
L 585.9875 120.622214 
L 613.8875 130.840966 
L 641.7875 141.961644 
L 669.6875 154.278338 
L 697.5875 168.263913 
L 725.4875 182.74896 
L 753.3875 199.592571 
" clip-path="url(#p6cbc574bda)" style="fill: none; stroke: #2ca02c; stroke-opacity: 0.8; stroke-width: 1.5; stroke-linecap: round"/>
   </g>
   <g id="line2d_96">
    <path d="M 111.6875 208.202456 
L 139.5875 222.266554 
L 167.4875 226.438219 
L 195.3875 225.998911 
L 223.2875 218.298512 
L 251.1875 193.077223 
L 279.0875 148.090589 
L 306.9875 105.363548 
L 334.8875 97.018819 
L 362.7875 93.091855 
L 390.6875 88.551447 
L 418.5875 76.57478 
L 446.4875 74.945205 
L 474.3875 74.296074 
L 502.2875 73.414284 
L 530.1875 71.146443 
L 558.0875 70.660761 
L 585.9875 80.124071 
L 613.8875 89.47727 
L 641.7875 103.240182 
L 669.6875 118.754833 
L 697.5875 138.10108 
L 725.4875 152.509704 
L 753.3875 176.660065 
" clip-path="url(#p6cbc574bda)" style="fill: none; stroke: #c7c7c7; stroke-opacity: 0.8; stroke-width: 1.5; stroke-linecap: round"/>
   </g>
   <g id="line2d_97">
    <path d="M 111.6875 216.293853 
L 139.5875 224.706908 
L 167.4875 226.391648 
L 195.3875 224.695411 
L 223.2875 217.240913 
L 251.1875 198.188627 
L 279.0875 154.601977 
L 306.9875 114.229579 
L 334.8875 107.871527 
L 362.7875 105.964558 
L 390.6875 102.579562 
L 418.5875 92.262442 
L 446.4875 91.716202 
L 474.3875 90.877534 
L 502.2875 91.553122 
L 530.1875 92.343172 
L 558.0875 93.185761 
L 585.9875 99.91575 
L 613.8875 105.644263 
L 641.7875 120.071534 
L 669.6875 136.560961 
L 697.5875 153.476826 
L 725.4875 168.118076 
L 753.3875 192.046756 
" clip-path="url(#p6cbc574bda)" style="fill: none; stroke: #ffbb78; stroke-opacity: 0.8; stroke-width: 1.5; stroke-linecap: round"/>
   </g>
   <g id="line2d_98">
    <path d="M 111.6875 218.449714 
L 139.5875 229.169124 
L 167.4875 232.192595 
L 195.3875 231.476295 
L 223.2875 226.23089 
L 251.1875 204.4875 
L 279.0875 168.539432 
L 306.9875 128.446346 
L 334.8875 112.937128 
L 362.7875 104.416617 
L 390.6875 96.831831 
L 418.5875 86.675967 
L 446.4875 80.716912 
L 474.3875 77.423273 
L 502.2875 76.544344 
L 530.1875 77.645604 
L 558.0875 77.478598 
L 585.9875 84.703874 
L 613.8875 93.273633 
L 641.7875 104.126079 
L 669.6875 126.67502 
L 697.5875 152.126458 
L 725.4875 169.801814 
L 753.3875 191.377729 
" clip-path="url(#p6cbc574bda)" style="fill: none; stroke: #dbdb8d; stroke-opacity: 0.8; stroke-width: 1.5; stroke-linecap: round"/>
   </g>
   <g id="line2d_99">
    <path d="M 111.6875 231.341153 
L 139.5875 237.9948 
L 167.4875 238.583129 
L 195.3875 237.064649 
L 223.2875 232.09255 
L 251.1875 217.332045 
L 279.0875 183.385943 
L 306.9875 151.888217 
L 334.8875 139.775879 
L 362.7875 134.891925 
L 390.6875 127.989113 
L 418.5875 119.721844 
L 446.4875 120.30472 
L 474.3875 117.785881 
L 502.2875 116.703886 
L 530.1875 116.671574 
L 558.0875 118.739395 
L 585.9875 125.11963 
L 613.8875 135.972044 
L 641.7875 150.874407 
L 669.6875 167.925311 
L 697.5875 181.882361 
L 725.4875 197.350602 
L 753.3875 213.468405 
" clip-path="url(#p6cbc574bda)" style="fill: none; stroke: #17becf; stroke-opacity: 0.8; stroke-width: 1.5; stroke-linecap: round"/>
   </g>
   <g id="line2d_100">
    <path d="M 111.6875 222.965187 
L 139.5875 230.004067 
L 167.4875 231.422972 
L 195.3875 229.604633 
L 223.2875 223.835186 
L 251.1875 208.794308 
L 279.0875 172.23664 
L 306.9875 135.772973 
L 334.8875 125.997881 
L 362.7875 123.990816 
L 390.6875 121.403328 
L 418.5875 111.673303 
L 446.4875 111.437445 
L 474.3875 109.870974 
L 502.2875 110.680459 
L 530.1875 111.287561 
L 558.0875 113.736949 
L 585.9875 120.865633 
L 613.8875 124.27515 
L 641.7875 137.941496 
L 669.6875 154.398801 
L 697.5875 170.73454 
L 725.4875 185.72431 
L 753.3875 203.944858 
" clip-path="url(#p6cbc574bda)" style="fill: none; stroke: #9edae5; stroke-opacity: 0.8; stroke-width: 1.5; stroke-linecap: round"/>
   </g>
   <g id="patch_3">
    <path d="M 97.7375 263.48625 
L 97.7375 41.72625 
" style="fill: none; stroke: #000000; stroke-linejoin: miter; stroke-linecap: square"/>
   </g>
   <g id="patch_4">
    <path d="M 767.3375 263.48625 
L 767.3375 41.72625 
" style="fill: none; stroke: #000000; stroke-linejoin: miter; stroke-linecap: square"/>
   </g>
   <g id="patch_5">
    <path d="M 97.7375 263.48625 
L 767.3375 263.48625 
" style="fill: none; stroke: #000000; stroke-linejoin: miter; stroke-linecap: square"/>
   </g>
   <g id="patch_6">
    <path d="M 97.7375 41.72625 
L 767.3375 41.72625 
" style="fill: none; stroke: #000000; stroke-linejoin: miter; stroke-linecap: square"/>
   </g>
  </g>
 </g>
 <defs>
  <clipPath id="p6cbc574bda">
   <rect x="97.7375" y="41.72625" width="669.6" height="221.76"/>
  </clipPath>
 </defs>
</svg>
