<?xml version="1.0" encoding="utf-8" standalone="no"?>
<!DOCTYPE svg PUBLIC "-//W3C//DTD SVG 1.1//EN"
  "http://www.w3.org/Graphics/SVG/1.1/DTD/svg11.dtd">
<svg xmlns:xlink="http://www.w3.org/1999/xlink" width="789.786875pt" height="332.28625pt" viewBox="0 0 789.786875 332.28625" xmlns="http://www.w3.org/2000/svg" version="1.1">
 <metadata>
  <rdf:RDF xmlns:dc="http://purl.org/dc/elements/1.1/" xmlns:cc="http://creativecommons.org/ns#" xmlns:rdf="http://www.w3.org/1999/02/22-rdf-syntax-ns#">
   <cc:Work>
    <dc:type rdf:resource="http://purl.org/dc/dcmitype/StillImage"/>
    <dc:date>2025-10-27T23:58:59.052248</dc:date>
    <dc:format>image/svg+xml</dc:format>
    <dc:creator>
     <cc:Agent>
      <dc:title>Matplotlib v3.10.7, https://matplotlib.org/</dc:title>
     </cc:Agent>
    </dc:creator>
   </cc:Work>
  </rdf:RDF>
 </metadata>
 <defs>
  <style type="text/css">*{stroke-linejoin: round; stroke-linecap: butt}</style>
 </defs>
 <g id="figure_1">
  <g id="patch_1">
   <path d="M 0 332.28625 
L 789.786875 332.28625 
L 789.786875 0 
L 0 0 
L 0 332.28625 
z
" style="fill: none"/>
  </g>
  <g id="axes_1">
   <g id="patch_2">
    <path d="M 84.186875 257.76 
L 753.786875 257.76 
L 753.786875 36 
L 84.186875 36 
L 84.186875 257.76 
z
" style="fill: none"/>
   </g>
   <g id="line2d_1">
    <path d="M 104.477784 257.76 
L 104.477784 36 
" clip-path="url(#pa75d34121b)" style="fill: none; stroke-dasharray: 0.74,0.32; stroke-dashoffset: 0; stroke: #a9a9a9; stroke-opacity: 0.5; stroke-width: 0.2"/>
   </g>
   <g id="line2d_2">
    <path d="M 124.768693 257.76 
L 124.768693 36 
" clip-path="url(#pa75d34121b)" style="fill: none; stroke-dasharray: 0.74,0.32; stroke-dashoffset: 0; stroke: #a9a9a9; stroke-opacity: 0.5; stroke-width: 0.2"/>
   </g>
   <g id="line2d_3">
    <path d="M 145.059602 257.76 
L 145.059602 36 
" clip-path="url(#pa75d34121b)" style="fill: none; stroke-dasharray: 0.74,0.32; stroke-dashoffset: 0; stroke: #a9a9a9; stroke-opacity: 0.5; stroke-width: 0.2"/>
   </g>
   <g id="line2d_4">
    <path d="M 165.350511 257.76 
L 165.350511 36 
" clip-path="url(#pa75d34121b)" style="fill: none; stroke-dasharray: 0.74,0.32; stroke-dashoffset: 0; stroke: #a9a9a9; stroke-opacity: 0.5; stroke-width: 0.2"/>
   </g>
   <g id="line2d_5">
    <path d="M 185.64142 257.76 
L 185.64142 36 
" clip-path="url(#pa75d34121b)" style="fill: none; stroke-dasharray: 0.74,0.32; stroke-dashoffset: 0; stroke: #a9a9a9; stroke-opacity: 0.5; stroke-width: 0.2"/>
   </g>
   <g id="line2d_6">
    <path d="M 205.93233 257.76 
L 205.93233 36 
" clip-path="url(#pa75d34121b)" style="fill: none; stroke-dasharray: 0.74,0.32; stroke-dashoffset: 0; stroke: #a9a9a9; stroke-opacity: 0.5; stroke-width: 0.2"/>
   </g>
   <g id="line2d_7">
    <path d="M 226.223239 257.76 
L 226.223239 36 
" clip-path="url(#pa75d34121b)" style="fill: none; stroke-dasharray: 0.74,0.32; stroke-dashoffset: 0; stroke: #a9a9a9; stroke-opacity: 0.5; stroke-width: 0.2"/>
   </g>
   <g id="line2d_8">
    <path d="M 246.514148 257.76 
L 246.514148 36 
" clip-path="url(#pa75d34121b)" style="fill: none; stroke-dasharray: 0.74,0.32; stroke-dashoffset: 0; stroke: #a9a9a9; stroke-opacity: 0.5; stroke-width: 0.2"/>
   </g>
   <g id="line2d_9">
    <path d="M 266.805057 257.76 
L 266.805057 36 
" clip-path="url(#pa75d34121b)" style="fill: none; stroke-dasharray: 0.74,0.32; stroke-dashoffset: 0; stroke: #a9a9a9; stroke-opacity: 0.5; stroke-width: 0.2"/>
   </g>
   <g id="line2d_10">
    <path d="M 287.095966 257.76 
L 287.095966 36 
" clip-path="url(#pa75d34121b)" style="fill: none; stroke-dasharray: 0.74,0.32; stroke-dashoffset: 0; stroke: #a9a9a9; stroke-opacity: 0.5; stroke-width: 0.2"/>
   </g>
   <g id="line2d_11">
    <path d="M 307.386875 257.76 
L 307.386875 36 
" clip-path="url(#pa75d34121b)" style="fill: none; stroke-dasharray: 0.74,0.32; stroke-dashoffset: 0; stroke: #a9a9a9; stroke-opacity: 0.5; stroke-width: 0.2"/>
   </g>
   <g id="line2d_12">
    <path d="M 327.677784 257.76 
L 327.677784 36 
" clip-path="url(#pa75d34121b)" style="fill: none; stroke-dasharray: 0.74,0.32; stroke-dashoffset: 0; stroke: #a9a9a9; stroke-opacity: 0.5; stroke-width: 0.2"/>
   </g>
   <g id="line2d_13">
    <path d="M 347.968693 257.76 
L 347.968693 36 
" clip-path="url(#pa75d34121b)" style="fill: none; stroke-dasharray: 0.74,0.32; stroke-dashoffset: 0; stroke: #a9a9a9; stroke-opacity: 0.5; stroke-width: 0.2"/>
   </g>
   <g id="line2d_14">
    <path d="M 368.259602 257.76 
L 368.259602 36 
" clip-path="url(#pa75d34121b)" style="fill: none; stroke-dasharray: 0.74,0.32; stroke-dashoffset: 0; stroke: #a9a9a9; stroke-opacity: 0.5; stroke-width: 0.2"/>
   </g>
   <g id="line2d_15">
    <path d="M 388.550511 257.76 
L 388.550511 36 
" clip-path="url(#pa75d34121b)" style="fill: none; stroke-dasharray: 0.74,0.32; stroke-dashoffset: 0; stroke: #a9a9a9; stroke-opacity: 0.5; stroke-width: 0.2"/>
   </g>
   <g id="line2d_16">
    <path d="M 408.84142 257.76 
L 408.84142 36 
" clip-path="url(#pa75d34121b)" style="fill: none; stroke-dasharray: 0.74,0.32; stroke-dashoffset: 0; stroke: #a9a9a9; stroke-opacity: 0.5; stroke-width: 0.2"/>
   </g>
   <g id="line2d_17">
    <path d="M 429.13233 257.76 
L 429.13233 36 
" clip-path="url(#pa75d34121b)" style="fill: none; stroke-dasharray: 0.74,0.32; stroke-dashoffset: 0; stroke: #a9a9a9; stroke-opacity: 0.5; stroke-width: 0.2"/>
   </g>
   <g id="line2d_18">
    <path d="M 449.423239 257.76 
L 449.423239 36 
" clip-path="url(#pa75d34121b)" style="fill: none; stroke-dasharray: 0.74,0.32; stroke-dashoffset: 0; stroke: #a9a9a9; stroke-opacity: 0.5; stroke-width: 0.2"/>
   </g>
   <g id="line2d_19">
    <path d="M 469.714148 257.76 
L 469.714148 36 
" clip-path="url(#pa75d34121b)" style="fill: none; stroke-dasharray: 0.74,0.32; stroke-dashoffset: 0; stroke: #a9a9a9; stroke-opacity: 0.5; stroke-width: 0.2"/>
   </g>
   <g id="line2d_20">
    <path d="M 490.005057 257.76 
L 490.005057 36 
" clip-path="url(#pa75d34121b)" style="fill: none; stroke-dasharray: 0.74,0.32; stroke-dashoffset: 0; stroke: #a9a9a9; stroke-opacity: 0.5; stroke-width: 0.2"/>
   </g>
   <g id="line2d_21">
    <path d="M 510.295966 257.76 
L 510.295966 36 
" clip-path="url(#pa75d34121b)" style="fill: none; stroke-dasharray: 0.74,0.32; stroke-dashoffset: 0; stroke: #a9a9a9; stroke-opacity: 0.5; stroke-width: 0.2"/>
   </g>
   <g id="line2d_22">
    <path d="M 530.586875 257.76 
L 530.586875 36 
" clip-path="url(#pa75d34121b)" style="fill: none; stroke-dasharray: 0.74,0.32; stroke-dashoffset: 0; stroke: #a9a9a9; stroke-opacity: 0.5; stroke-width: 0.2"/>
   </g>
   <g id="line2d_23">
    <path d="M 550.877784 257.76 
L 550.877784 36 
" clip-path="url(#pa75d34121b)" style="fill: none; stroke-dasharray: 0.74,0.32; stroke-dashoffset: 0; stroke: #a9a9a9; stroke-opacity: 0.5; stroke-width: 0.2"/>
   </g>
   <g id="line2d_24">
    <path d="M 571.168693 257.76 
L 571.168693 36 
" clip-path="url(#pa75d34121b)" style="fill: none; stroke-dasharray: 0.74,0.32; stroke-dashoffset: 0; stroke: #a9a9a9; stroke-opacity: 0.5; stroke-width: 0.2"/>
   </g>
   <g id="line2d_25">
    <path d="M 591.459602 257.76 
L 591.459602 36 
" clip-path="url(#pa75d34121b)" style="fill: none; stroke-dasharray: 0.74,0.32; stroke-dashoffset: 0; stroke: #a9a9a9; stroke-opacity: 0.5; stroke-width: 0.2"/>
   </g>
   <g id="line2d_26">
    <path d="M 611.750511 257.76 
L 611.750511 36 
" clip-path="url(#pa75d34121b)" style="fill: none; stroke-dasharray: 0.74,0.32; stroke-dashoffset: 0; stroke: #a9a9a9; stroke-opacity: 0.5; stroke-width: 0.2"/>
   </g>
   <g id="line2d_27">
    <path d="M 632.04142 257.76 
L 632.04142 36 
" clip-path="url(#pa75d34121b)" style="fill: none; stroke-dasharray: 0.74,0.32; stroke-dashoffset: 0; stroke: #a9a9a9; stroke-opacity: 0.5; stroke-width: 0.2"/>
   </g>
   <g id="line2d_28">
    <path d="M 652.33233 257.76 
L 652.33233 36 
" clip-path="url(#pa75d34121b)" style="fill: none; stroke-dasharray: 0.74,0.32; stroke-dashoffset: 0; stroke: #a9a9a9; stroke-opacity: 0.5; stroke-width: 0.2"/>
   </g>
   <g id="line2d_29">
    <path d="M 672.623239 257.76 
L 672.623239 36 
" clip-path="url(#pa75d34121b)" style="fill: none; stroke-dasharray: 0.74,0.32; stroke-dashoffset: 0; stroke: #a9a9a9; stroke-opacity: 0.5; stroke-width: 0.2"/>
   </g>
   <g id="line2d_30">
    <path d="M 692.914148 257.76 
L 692.914148 36 
" clip-path="url(#pa75d34121b)" style="fill: none; stroke-dasharray: 0.74,0.32; stroke-dashoffset: 0; stroke: #a9a9a9; stroke-opacity: 0.5; stroke-width: 0.2"/>
   </g>
   <g id="line2d_31">
    <path d="M 713.205057 257.76 
L 713.205057 36 
" clip-path="url(#pa75d34121b)" style="fill: none; stroke-dasharray: 0.74,0.32; stroke-dashoffset: 0; stroke: #a9a9a9; stroke-opacity: 0.5; stroke-width: 0.2"/>
   </g>
   <g id="line2d_32">
    <path d="M 733.495966 257.76 
L 733.495966 36 
" clip-path="url(#pa75d34121b)" style="fill: none; stroke-dasharray: 0.74,0.32; stroke-dashoffset: 0; stroke: #a9a9a9; stroke-opacity: 0.5; stroke-width: 0.2"/>
   </g>
   <g id="line2d_33">
    <path d="M 84.186875 235.584 
L 753.786875 235.584 
" clip-path="url(#pa75d34121b)" style="fill: none; stroke-dasharray: 0.74,0.32; stroke-dashoffset: 0; stroke: #a9a9a9; stroke-opacity: 0.5; stroke-width: 0.2"/>
   </g>
   <g id="line2d_34">
    <path d="M 84.186875 213.408 
L 753.786875 213.408 
" clip-path="url(#pa75d34121b)" style="fill: none; stroke-dasharray: 0.74,0.32; stroke-dashoffset: 0; stroke: #a9a9a9; stroke-opacity: 0.5; stroke-width: 0.2"/>
   </g>
   <g id="line2d_35">
    <path d="M 84.186875 191.232 
L 753.786875 191.232 
" clip-path="url(#pa75d34121b)" style="fill: none; stroke-dasharray: 0.74,0.32; stroke-dashoffset: 0; stroke: #a9a9a9; stroke-opacity: 0.5; stroke-width: 0.2"/>
   </g>
   <g id="line2d_36">
    <path d="M 84.186875 169.056 
L 753.786875 169.056 
" clip-path="url(#pa75d34121b)" style="fill: none; stroke-dasharray: 0.74,0.32; stroke-dashoffset: 0; stroke: #a9a9a9; stroke-opacity: 0.5; stroke-width: 0.2"/>
   </g>
   <g id="line2d_37">
    <path d="M 84.186875 146.88 
L 753.786875 146.88 
" clip-path="url(#pa75d34121b)" style="fill: none; stroke-dasharray: 0.74,0.32; stroke-dashoffset: 0; stroke: #a9a9a9; stroke-opacity: 0.5; stroke-width: 0.2"/>
   </g>
   <g id="line2d_38">
    <path d="M 84.186875 124.704 
L 753.786875 124.704 
" clip-path="url(#pa75d34121b)" style="fill: none; stroke-dasharray: 0.74,0.32; stroke-dashoffset: 0; stroke: #a9a9a9; stroke-opacity: 0.5; stroke-width: 0.2"/>
   </g>
   <g id="line2d_39">
    <path d="M 84.186875 102.528 
L 753.786875 102.528 
" clip-path="url(#pa75d34121b)" style="fill: none; stroke-dasharray: 0.74,0.32; stroke-dashoffset: 0; stroke: #a9a9a9; stroke-opacity: 0.5; stroke-width: 0.2"/>
   </g>
   <g id="line2d_40">
    <path d="M 84.186875 80.352 
L 753.786875 80.352 
" clip-path="url(#pa75d34121b)" style="fill: none; stroke-dasharray: 0.74,0.32; stroke-dashoffset: 0; stroke: #a9a9a9; stroke-opacity: 0.5; stroke-width: 0.2"/>
   </g>
   <g id="line2d_41">
    <path d="M 84.186875 58.176 
L 753.786875 58.176 
" clip-path="url(#pa75d34121b)" style="fill: none; stroke-dasharray: 0.74,0.32; stroke-dashoffset: 0; stroke: #a9a9a9; stroke-opacity: 0.5; stroke-width: 0.2"/>
   </g>
   <g id="matplotlib.axis_1">
    <g id="xtick_1">
     <g id="line2d_42">
      <defs>
       <path id="m317ccc0e49" d="M 0 0 
L 0 5 
" style="stroke: #000000"/>
      </defs>
      <g>
       <use xlink:href="#m317ccc0e49" x="98.136875" y="257.76" style="stroke: #000000"/>
      </g>
     </g>
     <g id="text_1">
      <!-- 1:00 -->
      <g transform="translate(101.239063 289.613125) rotate(-90) scale(0.12 -0.12)">
       <defs>
        <path id="ArialMT-31" d="M 2384 0 
L 1822 0 
L 1822 3584 
Q 1619 3391 1289 3197 
Q 959 3003 697 2906 
L 697 3450 
Q 1169 3672 1522 3987 
Q 1875 4303 2022 4600 
L 2384 4600 
L 2384 0 
z
" transform="scale(0.015625)"/>
        <path id="ArialMT-3a" d="M 578 2678 
L 578 3319 
L 1219 3319 
L 1219 2678 
L 578 2678 
z
M 578 0 
L 578 641 
L 1219 641 
L 1219 0 
L 578 0 
z
" transform="scale(0.015625)"/>
        <path id="ArialMT-30" d="M 266 2259 
Q 266 3072 433 3567 
Q 600 4063 929 4331 
Q 1259 4600 1759 4600 
Q 2128 4600 2406 4451 
Q 2684 4303 2865 4023 
Q 3047 3744 3150 3342 
Q 3253 2941 3253 2259 
Q 3253 1453 3087 958 
Q 2922 463 2592 192 
Q 2263 -78 1759 -78 
Q 1097 -78 719 397 
Q 266 969 266 2259 
z
M 844 2259 
Q 844 1131 1108 757 
Q 1372 384 1759 384 
Q 2147 384 2411 759 
Q 2675 1134 2675 2259 
Q 2675 3391 2411 3762 
Q 2147 4134 1753 4134 
Q 1366 4134 1134 3806 
Q 844 3388 844 2259 
z
" transform="scale(0.015625)"/>
       </defs>
       <use xlink:href="#ArialMT-31"/>
       <use xlink:href="#ArialMT-3a" transform="translate(55.615234 0)"/>
       <use xlink:href="#ArialMT-30" transform="translate(83.398438 0)"/>
       <use xlink:href="#ArialMT-30" transform="translate(139.013672 0)"/>
      </g>
     </g>
    </g>
    <g id="xtick_2">
     <g id="line2d_43">
      <g>
       <use xlink:href="#m317ccc0e49" x="126.036875" y="257.76" style="stroke: #000000"/>
      </g>
     </g>
     <g id="text_2">
      <!-- 2:00 -->
      <g transform="translate(129.139063 289.613125) rotate(-90) scale(0.12 -0.12)">
       <defs>
        <path id="ArialMT-32" d="M 3222 541 
L 3222 0 
L 194 0 
Q 188 203 259 391 
Q 375 700 629 1000 
Q 884 1300 1366 1694 
Q 2113 2306 2375 2664 
Q 2638 3022 2638 3341 
Q 2638 3675 2398 3904 
Q 2159 4134 1775 4134 
Q 1369 4134 1125 3890 
Q 881 3647 878 3216 
L 300 3275 
Q 359 3922 746 4261 
Q 1134 4600 1788 4600 
Q 2447 4600 2831 4234 
Q 3216 3869 3216 3328 
Q 3216 3053 3103 2787 
Q 2991 2522 2730 2228 
Q 2469 1934 1863 1422 
Q 1356 997 1212 845 
Q 1069 694 975 541 
L 3222 541 
z
" transform="scale(0.015625)"/>
       </defs>
       <use xlink:href="#ArialMT-32"/>
       <use xlink:href="#ArialMT-3a" transform="translate(55.615234 0)"/>
       <use xlink:href="#ArialMT-30" transform="translate(83.398438 0)"/>
       <use xlink:href="#ArialMT-30" transform="translate(139.013672 0)"/>
      </g>
     </g>
    </g>
    <g id="xtick_3">
     <g id="line2d_44">
      <g>
       <use xlink:href="#m317ccc0e49" x="153.936875" y="257.76" style="stroke: #000000"/>
      </g>
     </g>
     <g id="text_3">
      <!-- 3:00 -->
      <g transform="translate(157.039062 289.613125) rotate(-90) scale(0.12 -0.12)">
       <defs>
        <path id="ArialMT-33" d="M 269 1209 
L 831 1284 
Q 928 806 1161 595 
Q 1394 384 1728 384 
Q 2125 384 2398 659 
Q 2672 934 2672 1341 
Q 2672 1728 2419 1979 
Q 2166 2231 1775 2231 
Q 1616 2231 1378 2169 
L 1441 2663 
Q 1497 2656 1531 2656 
Q 1891 2656 2178 2843 
Q 2466 3031 2466 3422 
Q 2466 3731 2256 3934 
Q 2047 4138 1716 4138 
Q 1388 4138 1169 3931 
Q 950 3725 888 3313 
L 325 3413 
Q 428 3978 793 4289 
Q 1159 4600 1703 4600 
Q 2078 4600 2393 4439 
Q 2709 4278 2876 4000 
Q 3044 3722 3044 3409 
Q 3044 3113 2884 2869 
Q 2725 2625 2413 2481 
Q 2819 2388 3044 2092 
Q 3269 1797 3269 1353 
Q 3269 753 2831 336 
Q 2394 -81 1725 -81 
Q 1122 -81 723 278 
Q 325 638 269 1209 
z
" transform="scale(0.015625)"/>
       </defs>
       <use xlink:href="#ArialMT-33"/>
       <use xlink:href="#ArialMT-3a" transform="translate(55.615234 0)"/>
       <use xlink:href="#ArialMT-30" transform="translate(83.398438 0)"/>
       <use xlink:href="#ArialMT-30" transform="translate(139.013672 0)"/>
      </g>
     </g>
    </g>
    <g id="xtick_4">
     <g id="line2d_45">
      <g>
       <use xlink:href="#m317ccc0e49" x="181.836875" y="257.76" style="stroke: #000000"/>
      </g>
     </g>
     <g id="text_4">
      <!-- 4:00 -->
      <g transform="translate(184.939062 289.613125) rotate(-90) scale(0.12 -0.12)">
       <defs>
        <path id="ArialMT-34" d="M 2069 0 
L 2069 1097 
L 81 1097 
L 81 1613 
L 2172 4581 
L 2631 4581 
L 2631 1613 
L 3250 1613 
L 3250 1097 
L 2631 1097 
L 2631 0 
L 2069 0 
z
M 2069 1613 
L 2069 3678 
L 634 1613 
L 2069 1613 
z
" transform="scale(0.015625)"/>
       </defs>
       <use xlink:href="#ArialMT-34"/>
       <use xlink:href="#ArialMT-3a" transform="translate(55.615234 0)"/>
       <use xlink:href="#ArialMT-30" transform="translate(83.398438 0)"/>
       <use xlink:href="#ArialMT-30" transform="translate(139.013672 0)"/>
      </g>
     </g>
    </g>
    <g id="xtick_5">
     <g id="line2d_46">
      <g>
       <use xlink:href="#m317ccc0e49" x="209.736875" y="257.76" style="stroke: #000000"/>
      </g>
     </g>
     <g id="text_5">
      <!-- 5:00 -->
      <g transform="translate(212.839063 289.613125) rotate(-90) scale(0.12 -0.12)">
       <defs>
        <path id="ArialMT-35" d="M 266 1200 
L 856 1250 
Q 922 819 1161 601 
Q 1400 384 1738 384 
Q 2144 384 2425 690 
Q 2706 997 2706 1503 
Q 2706 1984 2436 2262 
Q 2166 2541 1728 2541 
Q 1456 2541 1237 2417 
Q 1019 2294 894 2097 
L 366 2166 
L 809 4519 
L 3088 4519 
L 3088 3981 
L 1259 3981 
L 1013 2750 
Q 1425 3038 1878 3038 
Q 2478 3038 2890 2622 
Q 3303 2206 3303 1553 
Q 3303 931 2941 478 
Q 2500 -78 1738 -78 
Q 1113 -78 717 272 
Q 322 622 266 1200 
z
" transform="scale(0.015625)"/>
       </defs>
       <use xlink:href="#ArialMT-35"/>
       <use xlink:href="#ArialMT-3a" transform="translate(55.615234 0)"/>
       <use xlink:href="#ArialMT-30" transform="translate(83.398438 0)"/>
       <use xlink:href="#ArialMT-30" transform="translate(139.013672 0)"/>
      </g>
     </g>
    </g>
    <g id="xtick_6">
     <g id="line2d_47">
      <g>
       <use xlink:href="#m317ccc0e49" x="237.636875" y="257.76" style="stroke: #000000"/>
      </g>
     </g>
     <g id="text_6">
      <!-- 6:00 -->
      <g transform="translate(240.739062 289.613125) rotate(-90) scale(0.12 -0.12)">
       <defs>
        <path id="ArialMT-36" d="M 3184 3459 
L 2625 3416 
Q 2550 3747 2413 3897 
Q 2184 4138 1850 4138 
Q 1581 4138 1378 3988 
Q 1113 3794 959 3422 
Q 806 3050 800 2363 
Q 1003 2672 1297 2822 
Q 1591 2972 1913 2972 
Q 2475 2972 2870 2558 
Q 3266 2144 3266 1488 
Q 3266 1056 3080 686 
Q 2894 316 2569 119 
Q 2244 -78 1831 -78 
Q 1128 -78 684 439 
Q 241 956 241 2144 
Q 241 3472 731 4075 
Q 1159 4600 1884 4600 
Q 2425 4600 2770 4297 
Q 3116 3994 3184 3459 
z
M 888 1484 
Q 888 1194 1011 928 
Q 1134 663 1356 523 
Q 1578 384 1822 384 
Q 2178 384 2434 671 
Q 2691 959 2691 1453 
Q 2691 1928 2437 2201 
Q 2184 2475 1800 2475 
Q 1419 2475 1153 2201 
Q 888 1928 888 1484 
z
" transform="scale(0.015625)"/>
       </defs>
       <use xlink:href="#ArialMT-36"/>
       <use xlink:href="#ArialMT-3a" transform="translate(55.615234 0)"/>
       <use xlink:href="#ArialMT-30" transform="translate(83.398438 0)"/>
       <use xlink:href="#ArialMT-30" transform="translate(139.013672 0)"/>
      </g>
     </g>
    </g>
    <g id="xtick_7">
     <g id="line2d_48">
      <g>
       <use xlink:href="#m317ccc0e49" x="265.536875" y="257.76" style="stroke: #000000"/>
      </g>
     </g>
     <g id="text_7">
      <!-- 7:00 -->
      <g transform="translate(268.639063 289.613125) rotate(-90) scale(0.12 -0.12)">
       <defs>
        <path id="ArialMT-37" d="M 303 3981 
L 303 4522 
L 3269 4522 
L 3269 4084 
Q 2831 3619 2401 2847 
Q 1972 2075 1738 1259 
Q 1569 684 1522 0 
L 944 0 
Q 953 541 1156 1306 
Q 1359 2072 1739 2783 
Q 2119 3494 2547 3981 
L 303 3981 
z
" transform="scale(0.015625)"/>
       </defs>
       <use xlink:href="#ArialMT-37"/>
       <use xlink:href="#ArialMT-3a" transform="translate(55.615234 0)"/>
       <use xlink:href="#ArialMT-30" transform="translate(83.398438 0)"/>
       <use xlink:href="#ArialMT-30" transform="translate(139.013672 0)"/>
      </g>
     </g>
    </g>
    <g id="xtick_8">
     <g id="line2d_49">
      <g>
       <use xlink:href="#m317ccc0e49" x="293.436875" y="257.76" style="stroke: #000000"/>
      </g>
     </g>
     <g id="text_8">
      <!-- 8:00 -->
      <g transform="translate(296.539062 289.613125) rotate(-90) scale(0.12 -0.12)">
       <defs>
        <path id="ArialMT-38" d="M 1131 2484 
Q 781 2613 612 2850 
Q 444 3088 444 3419 
Q 444 3919 803 4259 
Q 1163 4600 1759 4600 
Q 2359 4600 2725 4251 
Q 3091 3903 3091 3403 
Q 3091 3084 2923 2848 
Q 2756 2613 2416 2484 
Q 2838 2347 3058 2040 
Q 3278 1734 3278 1309 
Q 3278 722 2862 322 
Q 2447 -78 1769 -78 
Q 1091 -78 675 323 
Q 259 725 259 1325 
Q 259 1772 486 2073 
Q 713 2375 1131 2484 
z
M 1019 3438 
Q 1019 3113 1228 2906 
Q 1438 2700 1772 2700 
Q 2097 2700 2305 2904 
Q 2513 3109 2513 3406 
Q 2513 3716 2298 3927 
Q 2084 4138 1766 4138 
Q 1444 4138 1231 3931 
Q 1019 3725 1019 3438 
z
M 838 1322 
Q 838 1081 952 856 
Q 1066 631 1291 507 
Q 1516 384 1775 384 
Q 2178 384 2440 643 
Q 2703 903 2703 1303 
Q 2703 1709 2433 1975 
Q 2163 2241 1756 2241 
Q 1359 2241 1098 1978 
Q 838 1716 838 1322 
z
" transform="scale(0.015625)"/>
       </defs>
       <use xlink:href="#ArialMT-38"/>
       <use xlink:href="#ArialMT-3a" transform="translate(55.615234 0)"/>
       <use xlink:href="#ArialMT-30" transform="translate(83.398438 0)"/>
       <use xlink:href="#ArialMT-30" transform="translate(139.013672 0)"/>
      </g>
     </g>
    </g>
    <g id="xtick_9">
     <g id="line2d_50">
      <g>
       <use xlink:href="#m317ccc0e49" x="321.336875" y="257.76" style="stroke: #000000"/>
      </g>
     </g>
     <g id="text_9">
      <!-- 9:00 -->
      <g transform="translate(324.439062 289.613125) rotate(-90) scale(0.12 -0.12)">
       <defs>
        <path id="ArialMT-39" d="M 350 1059 
L 891 1109 
Q 959 728 1153 556 
Q 1347 384 1650 384 
Q 1909 384 2104 503 
Q 2300 622 2425 820 
Q 2550 1019 2634 1356 
Q 2719 1694 2719 2044 
Q 2719 2081 2716 2156 
Q 2547 1888 2255 1720 
Q 1963 1553 1622 1553 
Q 1053 1553 659 1965 
Q 266 2378 266 3053 
Q 266 3750 677 4175 
Q 1088 4600 1706 4600 
Q 2153 4600 2523 4359 
Q 2894 4119 3086 3673 
Q 3278 3228 3278 2384 
Q 3278 1506 3087 986 
Q 2897 466 2520 194 
Q 2144 -78 1638 -78 
Q 1100 -78 759 220 
Q 419 519 350 1059 
z
M 2653 3081 
Q 2653 3566 2395 3850 
Q 2138 4134 1775 4134 
Q 1400 4134 1122 3828 
Q 844 3522 844 3034 
Q 844 2597 1108 2323 
Q 1372 2050 1759 2050 
Q 2150 2050 2401 2323 
Q 2653 2597 2653 3081 
z
" transform="scale(0.015625)"/>
       </defs>
       <use xlink:href="#ArialMT-39"/>
       <use xlink:href="#ArialMT-3a" transform="translate(55.615234 0)"/>
       <use xlink:href="#ArialMT-30" transform="translate(83.398438 0)"/>
       <use xlink:href="#ArialMT-30" transform="translate(139.013672 0)"/>
      </g>
     </g>
    </g>
    <g id="xtick_10">
     <g id="line2d_51">
      <g>
       <use xlink:href="#m317ccc0e49" x="349.236875" y="257.76" style="stroke: #000000"/>
      </g>
     </g>
     <g id="text_10">
      <!-- 10:00 -->
      <g transform="translate(352.339063 296.28625) rotate(-90) scale(0.12 -0.12)">
       <use xlink:href="#ArialMT-31"/>
       <use xlink:href="#ArialMT-30" transform="translate(55.615234 0)"/>
       <use xlink:href="#ArialMT-3a" transform="translate(111.230469 0)"/>
       <use xlink:href="#ArialMT-30" transform="translate(139.013672 0)"/>
       <use xlink:href="#ArialMT-30" transform="translate(194.628906 0)"/>
      </g>
     </g>
    </g>
    <g id="xtick_11">
     <g id="line2d_52">
      <g>
       <use xlink:href="#m317ccc0e49" x="377.136875" y="257.76" style="stroke: #000000"/>
      </g>
     </g>
     <g id="text_11">
      <!-- 11:00 -->
      <g transform="translate(380.239063 295.40125) rotate(-90) scale(0.12 -0.12)">
       <use xlink:href="#ArialMT-31"/>
       <use xlink:href="#ArialMT-31" transform="translate(48.240234 0)"/>
       <use xlink:href="#ArialMT-3a" transform="translate(103.855469 0)"/>
       <use xlink:href="#ArialMT-30" transform="translate(131.638672 0)"/>
       <use xlink:href="#ArialMT-30" transform="translate(187.253906 0)"/>
      </g>
     </g>
    </g>
    <g id="xtick_12">
     <g id="line2d_53">
      <g>
       <use xlink:href="#m317ccc0e49" x="405.036875" y="257.76" style="stroke: #000000"/>
      </g>
     </g>
     <g id="text_12">
      <!-- 12:00 -->
      <g transform="translate(408.139063 296.28625) rotate(-90) scale(0.12 -0.12)">
       <use xlink:href="#ArialMT-31"/>
       <use xlink:href="#ArialMT-32" transform="translate(55.615234 0)"/>
       <use xlink:href="#ArialMT-3a" transform="translate(111.230469 0)"/>
       <use xlink:href="#ArialMT-30" transform="translate(139.013672 0)"/>
       <use xlink:href="#ArialMT-30" transform="translate(194.628906 0)"/>
      </g>
     </g>
    </g>
    <g id="xtick_13">
     <g id="line2d_54">
      <g>
       <use xlink:href="#m317ccc0e49" x="432.936875" y="257.76" style="stroke: #000000"/>
      </g>
     </g>
     <g id="text_13">
      <!-- 13:00 -->
      <g transform="translate(436.039062 296.28625) rotate(-90) scale(0.12 -0.12)">
       <use xlink:href="#ArialMT-31"/>
       <use xlink:href="#ArialMT-33" transform="translate(55.615234 0)"/>
       <use xlink:href="#ArialMT-3a" transform="translate(111.230469 0)"/>
       <use xlink:href="#ArialMT-30" transform="translate(139.013672 0)"/>
       <use xlink:href="#ArialMT-30" transform="translate(194.628906 0)"/>
      </g>
     </g>
    </g>
    <g id="xtick_14">
     <g id="line2d_55">
      <g>
       <use xlink:href="#m317ccc0e49" x="460.836875" y="257.76" style="stroke: #000000"/>
      </g>
     </g>
     <g id="text_14">
      <!-- 14:00 -->
      <g transform="translate(463.939062 296.28625) rotate(-90) scale(0.12 -0.12)">
       <use xlink:href="#ArialMT-31"/>
       <use xlink:href="#ArialMT-34" transform="translate(55.615234 0)"/>
       <use xlink:href="#ArialMT-3a" transform="translate(111.230469 0)"/>
       <use xlink:href="#ArialMT-30" transform="translate(139.013672 0)"/>
       <use xlink:href="#ArialMT-30" transform="translate(194.628906 0)"/>
      </g>
     </g>
    </g>
    <g id="xtick_15">
     <g id="line2d_56">
      <g>
       <use xlink:href="#m317ccc0e49" x="488.736875" y="257.76" style="stroke: #000000"/>
      </g>
     </g>
     <g id="text_15">
      <!-- 15:00 -->
      <g transform="translate(491.839062 296.28625) rotate(-90) scale(0.12 -0.12)">
       <use xlink:href="#ArialMT-31"/>
       <use xlink:href="#ArialMT-35" transform="translate(55.615234 0)"/>
       <use xlink:href="#ArialMT-3a" transform="translate(111.230469 0)"/>
       <use xlink:href="#ArialMT-30" transform="translate(139.013672 0)"/>
       <use xlink:href="#ArialMT-30" transform="translate(194.628906 0)"/>
      </g>
     </g>
    </g>
    <g id="xtick_16">
     <g id="line2d_57">
      <g>
       <use xlink:href="#m317ccc0e49" x="516.636875" y="257.76" style="stroke: #000000"/>
      </g>
     </g>
     <g id="text_16">
      <!-- 16:00 -->
      <g transform="translate(519.739063 296.28625) rotate(-90) scale(0.12 -0.12)">
       <use xlink:href="#ArialMT-31"/>
       <use xlink:href="#ArialMT-36" transform="translate(55.615234 0)"/>
       <use xlink:href="#ArialMT-3a" transform="translate(111.230469 0)"/>
       <use xlink:href="#ArialMT-30" transform="translate(139.013672 0)"/>
       <use xlink:href="#ArialMT-30" transform="translate(194.628906 0)"/>
      </g>
     </g>
    </g>
    <g id="xtick_17">
     <g id="line2d_58">
      <g>
       <use xlink:href="#m317ccc0e49" x="544.536875" y="257.76" style="stroke: #000000"/>
      </g>
     </g>
     <g id="text_17">
      <!-- 17:00 -->
      <g transform="translate(547.639063 296.28625) rotate(-90) scale(0.12 -0.12)">
       <use xlink:href="#ArialMT-31"/>
       <use xlink:href="#ArialMT-37" transform="translate(55.615234 0)"/>
       <use xlink:href="#ArialMT-3a" transform="translate(111.230469 0)"/>
       <use xlink:href="#ArialMT-30" transform="translate(139.013672 0)"/>
       <use xlink:href="#ArialMT-30" transform="translate(194.628906 0)"/>
      </g>
     </g>
    </g>
    <g id="xtick_18">
     <g id="line2d_59">
      <g>
       <use xlink:href="#m317ccc0e49" x="572.436875" y="257.76" style="stroke: #000000"/>
      </g>
     </g>
     <g id="text_18">
      <!-- 18:00 -->
      <g transform="translate(575.539062 296.28625) rotate(-90) scale(0.12 -0.12)">
       <use xlink:href="#ArialMT-31"/>
       <use xlink:href="#ArialMT-38" transform="translate(55.615234 0)"/>
       <use xlink:href="#ArialMT-3a" transform="translate(111.230469 0)"/>
       <use xlink:href="#ArialMT-30" transform="translate(139.013672 0)"/>
       <use xlink:href="#ArialMT-30" transform="translate(194.628906 0)"/>
      </g>
     </g>
    </g>
    <g id="xtick_19">
     <g id="line2d_60">
      <g>
       <use xlink:href="#m317ccc0e49" x="600.336875" y="257.76" style="stroke: #000000"/>
      </g>
     </g>
     <g id="text_19">
      <!-- 19:00 -->
      <g transform="translate(603.439062 296.28625) rotate(-90) scale(0.12 -0.12)">
       <use xlink:href="#ArialMT-31"/>
       <use xlink:href="#ArialMT-39" transform="translate(55.615234 0)"/>
       <use xlink:href="#ArialMT-3a" transform="translate(111.230469 0)"/>
       <use xlink:href="#ArialMT-30" transform="translate(139.013672 0)"/>
       <use xlink:href="#ArialMT-30" transform="translate(194.628906 0)"/>
      </g>
     </g>
    </g>
    <g id="xtick_20">
     <g id="line2d_61">
      <g>
       <use xlink:href="#m317ccc0e49" x="628.236875" y="257.76" style="stroke: #000000"/>
      </g>
     </g>
     <g id="text_20">
      <!-- 20:00 -->
      <g transform="translate(631.339063 296.28625) rotate(-90) scale(0.12 -0.12)">
       <use xlink:href="#ArialMT-32"/>
       <use xlink:href="#ArialMT-30" transform="translate(55.615234 0)"/>
       <use xlink:href="#ArialMT-3a" transform="translate(111.230469 0)"/>
       <use xlink:href="#ArialMT-30" transform="translate(139.013672 0)"/>
       <use xlink:href="#ArialMT-30" transform="translate(194.628906 0)"/>
      </g>
     </g>
    </g>
    <g id="xtick_21">
     <g id="line2d_62">
      <g>
       <use xlink:href="#m317ccc0e49" x="656.136875" y="257.76" style="stroke: #000000"/>
      </g>
     </g>
     <g id="text_21">
      <!-- 21:00 -->
      <g transform="translate(659.239063 296.28625) rotate(-90) scale(0.12 -0.12)">
       <use xlink:href="#ArialMT-32"/>
       <use xlink:href="#ArialMT-31" transform="translate(55.615234 0)"/>
       <use xlink:href="#ArialMT-3a" transform="translate(111.230469 0)"/>
       <use xlink:href="#ArialMT-30" transform="translate(139.013672 0)"/>
       <use xlink:href="#ArialMT-30" transform="translate(194.628906 0)"/>
      </g>
     </g>
    </g>
    <g id="xtick_22">
     <g id="line2d_63">
      <g>
       <use xlink:href="#m317ccc0e49" x="684.036875" y="257.76" style="stroke: #000000"/>
      </g>
     </g>
     <g id="text_22">
      <!-- 22:00 -->
      <g transform="translate(687.139063 296.28625) rotate(-90) scale(0.12 -0.12)">
       <use xlink:href="#ArialMT-32"/>
       <use xlink:href="#ArialMT-32" transform="translate(55.615234 0)"/>
       <use xlink:href="#ArialMT-3a" transform="translate(111.230469 0)"/>
       <use xlink:href="#ArialMT-30" transform="translate(139.013672 0)"/>
       <use xlink:href="#ArialMT-30" transform="translate(194.628906 0)"/>
      </g>
     </g>
    </g>
    <g id="xtick_23">
     <g id="line2d_64">
      <g>
       <use xlink:href="#m317ccc0e49" x="711.936875" y="257.76" style="stroke: #000000"/>
      </g>
     </g>
     <g id="text_23">
      <!-- 23:00 -->
      <g transform="translate(715.039062 296.28625) rotate(-90) scale(0.12 -0.12)">
       <use xlink:href="#ArialMT-32"/>
       <use xlink:href="#ArialMT-33" transform="translate(55.615234 0)"/>
       <use xlink:href="#ArialMT-3a" transform="translate(111.230469 0)"/>
       <use xlink:href="#ArialMT-30" transform="translate(139.013672 0)"/>
       <use xlink:href="#ArialMT-30" transform="translate(194.628906 0)"/>
      </g>
     </g>
    </g>
    <g id="xtick_24">
     <g id="line2d_65">
      <g>
       <use xlink:href="#m317ccc0e49" x="739.836875" y="257.76" style="stroke: #000000"/>
      </g>
     </g>
     <g id="text_24">
      <!-- 24:00 -->
      <g transform="translate(742.939062 296.28625) rotate(-90) scale(0.12 -0.12)">
       <use xlink:href="#ArialMT-32"/>
       <use xlink:href="#ArialMT-34" transform="translate(55.615234 0)"/>
       <use xlink:href="#ArialMT-3a" transform="translate(111.230469 0)"/>
       <use xlink:href="#ArialMT-30" transform="translate(139.013672 0)"/>
       <use xlink:href="#ArialMT-30" transform="translate(194.628906 0)"/>
      </g>
     </g>
    </g>
   </g>
   <g id="matplotlib.axis_2">
    <g id="ytick_1">
     <g id="line2d_66">
      <defs>
       <path id="m246142a457" d="M 0 0 
L -5 0 
" style="stroke: #000000; stroke-opacity: 0; stroke-width: 1.5"/>
      </defs>
      <g>
       <use xlink:href="#m246142a457" x="84.186875" y="244.143158" style="fill-opacity: 0; stroke: #000000; stroke-opacity: 0; stroke-width: 1.5"/>
      </g>
     </g>
     <g id="text_25">
      <!-- 0 -->
      <g transform="translate(66.789375 249.869408) scale(0.16 -0.16)">
       <use xlink:href="#ArialMT-30"/>
      </g>
     </g>
    </g>
    <g id="ytick_2">
     <g id="line2d_67">
      <g>
       <use xlink:href="#m246142a457" x="84.186875" y="205.237895" style="fill-opacity: 0; stroke: #000000; stroke-opacity: 0; stroke-width: 1.5"/>
      </g>
     </g>
     <g id="text_26">
      <!-- 10 -->
      <g transform="translate(57.891875 210.964145) scale(0.16 -0.16)">
       <use xlink:href="#ArialMT-31"/>
       <use xlink:href="#ArialMT-30" transform="translate(55.615234 0)"/>
      </g>
     </g>
    </g>
    <g id="ytick_3">
     <g id="line2d_68">
      <g>
       <use xlink:href="#m246142a457" x="84.186875" y="166.332632" style="fill-opacity: 0; stroke: #000000; stroke-opacity: 0; stroke-width: 1.5"/>
      </g>
     </g>
     <g id="text_27">
      <!-- 20 -->
      <g transform="translate(57.891875 172.058882) scale(0.16 -0.16)">
       <use xlink:href="#ArialMT-32"/>
       <use xlink:href="#ArialMT-30" transform="translate(55.615234 0)"/>
      </g>
     </g>
    </g>
    <g id="ytick_4">
     <g id="line2d_69">
      <g>
       <use xlink:href="#m246142a457" x="84.186875" y="127.427368" style="fill-opacity: 0; stroke: #000000; stroke-opacity: 0; stroke-width: 1.5"/>
      </g>
     </g>
     <g id="text_28">
      <!-- 30 -->
      <g transform="translate(57.891875 133.153618) scale(0.16 -0.16)">
       <use xlink:href="#ArialMT-33"/>
       <use xlink:href="#ArialMT-30" transform="translate(55.615234 0)"/>
      </g>
     </g>
    </g>
    <g id="ytick_5">
     <g id="line2d_70">
      <g>
       <use xlink:href="#m246142a457" x="84.186875" y="88.522105" style="fill-opacity: 0; stroke: #000000; stroke-opacity: 0; stroke-width: 1.5"/>
      </g>
     </g>
     <g id="text_29">
      <!-- 40 -->
      <g transform="translate(57.891875 94.248355) scale(0.16 -0.16)">
       <use xlink:href="#ArialMT-34"/>
       <use xlink:href="#ArialMT-30" transform="translate(55.615234 0)"/>
      </g>
     </g>
    </g>
    <g id="ytick_6">
     <g id="line2d_71">
      <g>
       <use xlink:href="#m246142a457" x="84.186875" y="49.616842" style="fill-opacity: 0; stroke: #000000; stroke-opacity: 0; stroke-width: 1.5"/>
      </g>
     </g>
     <g id="text_30">
      <!-- 50 -->
      <g transform="translate(57.891875 55.343092) scale(0.16 -0.16)">
       <use xlink:href="#ArialMT-35"/>
       <use xlink:href="#ArialMT-30" transform="translate(55.615234 0)"/>
      </g>
     </g>
    </g>
    <g id="text_31">
     <!-- PM2.5_Brakes (gm) -->
     <g transform="translate(49.103437 226.899844) rotate(-90) scale(0.18 -0.18)">
      <defs>
       <path id="ArialMT-50" d="M 494 0 
L 494 4581 
L 2222 4581 
Q 2678 4581 2919 4538 
Q 3256 4481 3484 4323 
Q 3713 4166 3852 3881 
Q 3991 3597 3991 3256 
Q 3991 2672 3619 2267 
Q 3247 1863 2275 1863 
L 1100 1863 
L 1100 0 
L 494 0 
z
M 1100 2403 
L 2284 2403 
Q 2872 2403 3119 2622 
Q 3366 2841 3366 3238 
Q 3366 3525 3220 3729 
Q 3075 3934 2838 4000 
Q 2684 4041 2272 4041 
L 1100 4041 
L 1100 2403 
z
" transform="scale(0.015625)"/>
       <path id="ArialMT-4d" d="M 475 0 
L 475 4581 
L 1388 4581 
L 2472 1338 
Q 2622 884 2691 659 
Q 2769 909 2934 1394 
L 4031 4581 
L 4847 4581 
L 4847 0 
L 4263 0 
L 4263 3834 
L 2931 0 
L 2384 0 
L 1059 3900 
L 1059 0 
L 475 0 
z
" transform="scale(0.015625)"/>
       <path id="ArialMT-2e" d="M 581 0 
L 581 641 
L 1222 641 
L 1222 0 
L 581 0 
z
" transform="scale(0.015625)"/>
       <path id="ArialMT-5f" d="M -97 -1272 
L -97 -866 
L 3631 -866 
L 3631 -1272 
L -97 -1272 
z
" transform="scale(0.015625)"/>
       <path id="ArialMT-42" d="M 469 0 
L 469 4581 
L 2188 4581 
Q 2713 4581 3030 4442 
Q 3347 4303 3526 4014 
Q 3706 3725 3706 3409 
Q 3706 3116 3547 2856 
Q 3388 2597 3066 2438 
Q 3481 2316 3704 2022 
Q 3928 1728 3928 1328 
Q 3928 1006 3792 729 
Q 3656 453 3456 303 
Q 3256 153 2954 76 
Q 2653 0 2216 0 
L 469 0 
z
M 1075 2656 
L 2066 2656 
Q 2469 2656 2644 2709 
Q 2875 2778 2992 2937 
Q 3109 3097 3109 3338 
Q 3109 3566 3000 3739 
Q 2891 3913 2687 3977 
Q 2484 4041 1991 4041 
L 1075 4041 
L 1075 2656 
z
M 1075 541 
L 2216 541 
Q 2509 541 2628 563 
Q 2838 600 2978 687 
Q 3119 775 3209 942 
Q 3300 1109 3300 1328 
Q 3300 1584 3169 1773 
Q 3038 1963 2805 2039 
Q 2572 2116 2134 2116 
L 1075 2116 
L 1075 541 
z
" transform="scale(0.015625)"/>
       <path id="ArialMT-72" d="M 416 0 
L 416 3319 
L 922 3319 
L 922 2816 
Q 1116 3169 1280 3281 
Q 1444 3394 1641 3394 
Q 1925 3394 2219 3213 
L 2025 2691 
Q 1819 2813 1613 2813 
Q 1428 2813 1281 2702 
Q 1134 2591 1072 2394 
Q 978 2094 978 1738 
L 978 0 
L 416 0 
z
" transform="scale(0.015625)"/>
       <path id="ArialMT-61" d="M 2588 409 
Q 2275 144 1986 34 
Q 1697 -75 1366 -75 
Q 819 -75 525 192 
Q 231 459 231 875 
Q 231 1119 342 1320 
Q 453 1522 633 1644 
Q 813 1766 1038 1828 
Q 1203 1872 1538 1913 
Q 2219 1994 2541 2106 
Q 2544 2222 2544 2253 
Q 2544 2597 2384 2738 
Q 2169 2928 1744 2928 
Q 1347 2928 1158 2789 
Q 969 2650 878 2297 
L 328 2372 
Q 403 2725 575 2942 
Q 747 3159 1072 3276 
Q 1397 3394 1825 3394 
Q 2250 3394 2515 3294 
Q 2781 3194 2906 3042 
Q 3031 2891 3081 2659 
Q 3109 2516 3109 2141 
L 3109 1391 
Q 3109 606 3145 398 
Q 3181 191 3288 0 
L 2700 0 
Q 2613 175 2588 409 
z
M 2541 1666 
Q 2234 1541 1622 1453 
Q 1275 1403 1131 1340 
Q 988 1278 909 1158 
Q 831 1038 831 891 
Q 831 666 1001 516 
Q 1172 366 1500 366 
Q 1825 366 2078 508 
Q 2331 650 2450 897 
Q 2541 1088 2541 1459 
L 2541 1666 
z
" transform="scale(0.015625)"/>
       <path id="ArialMT-6b" d="M 425 0 
L 425 4581 
L 988 4581 
L 988 1969 
L 2319 3319 
L 3047 3319 
L 1778 2088 
L 3175 0 
L 2481 0 
L 1384 1697 
L 988 1316 
L 988 0 
L 425 0 
z
" transform="scale(0.015625)"/>
       <path id="ArialMT-65" d="M 2694 1069 
L 3275 997 
Q 3138 488 2766 206 
Q 2394 -75 1816 -75 
Q 1088 -75 661 373 
Q 234 822 234 1631 
Q 234 2469 665 2931 
Q 1097 3394 1784 3394 
Q 2450 3394 2872 2941 
Q 3294 2488 3294 1666 
Q 3294 1616 3291 1516 
L 816 1516 
Q 847 969 1125 678 
Q 1403 388 1819 388 
Q 2128 388 2347 550 
Q 2566 713 2694 1069 
z
M 847 1978 
L 2700 1978 
Q 2663 2397 2488 2606 
Q 2219 2931 1791 2931 
Q 1403 2931 1139 2672 
Q 875 2413 847 1978 
z
" transform="scale(0.015625)"/>
       <path id="ArialMT-73" d="M 197 991 
L 753 1078 
Q 800 744 1014 566 
Q 1228 388 1613 388 
Q 2000 388 2187 545 
Q 2375 703 2375 916 
Q 2375 1106 2209 1216 
Q 2094 1291 1634 1406 
Q 1016 1563 777 1677 
Q 538 1791 414 1992 
Q 291 2194 291 2438 
Q 291 2659 392 2848 
Q 494 3038 669 3163 
Q 800 3259 1026 3326 
Q 1253 3394 1513 3394 
Q 1903 3394 2198 3281 
Q 2494 3169 2634 2976 
Q 2775 2784 2828 2463 
L 2278 2388 
Q 2241 2644 2061 2787 
Q 1881 2931 1553 2931 
Q 1166 2931 1000 2803 
Q 834 2675 834 2503 
Q 834 2394 903 2306 
Q 972 2216 1119 2156 
Q 1203 2125 1616 2013 
Q 2213 1853 2448 1751 
Q 2684 1650 2818 1456 
Q 2953 1263 2953 975 
Q 2953 694 2789 445 
Q 2625 197 2315 61 
Q 2006 -75 1616 -75 
Q 969 -75 630 194 
Q 291 463 197 991 
z
" transform="scale(0.015625)"/>
       <path id="ArialMT-20" transform="scale(0.015625)"/>
       <path id="ArialMT-28" d="M 1497 -1347 
Q 1031 -759 709 28 
Q 388 816 388 1659 
Q 388 2403 628 3084 
Q 909 3875 1497 4659 
L 1900 4659 
Q 1522 4009 1400 3731 
Q 1209 3300 1100 2831 
Q 966 2247 966 1656 
Q 966 153 1900 -1347 
L 1497 -1347 
z
" transform="scale(0.015625)"/>
       <path id="ArialMT-67" d="M 319 -275 
L 866 -356 
Q 900 -609 1056 -725 
Q 1266 -881 1628 -881 
Q 2019 -881 2231 -725 
Q 2444 -569 2519 -288 
Q 2563 -116 2559 434 
Q 2191 0 1641 0 
Q 956 0 581 494 
Q 206 988 206 1678 
Q 206 2153 378 2554 
Q 550 2956 876 3175 
Q 1203 3394 1644 3394 
Q 2231 3394 2613 2919 
L 2613 3319 
L 3131 3319 
L 3131 450 
Q 3131 -325 2973 -648 
Q 2816 -972 2473 -1159 
Q 2131 -1347 1631 -1347 
Q 1038 -1347 672 -1080 
Q 306 -813 319 -275 
z
M 784 1719 
Q 784 1066 1043 766 
Q 1303 466 1694 466 
Q 2081 466 2343 764 
Q 2606 1063 2606 1700 
Q 2606 2309 2336 2618 
Q 2066 2928 1684 2928 
Q 1309 2928 1046 2623 
Q 784 2319 784 1719 
z
" transform="scale(0.015625)"/>
       <path id="ArialMT-6d" d="M 422 0 
L 422 3319 
L 925 3319 
L 925 2853 
Q 1081 3097 1340 3245 
Q 1600 3394 1931 3394 
Q 2300 3394 2536 3241 
Q 2772 3088 2869 2813 
Q 3263 3394 3894 3394 
Q 4388 3394 4653 3120 
Q 4919 2847 4919 2278 
L 4919 0 
L 4359 0 
L 4359 2091 
Q 4359 2428 4304 2576 
Q 4250 2725 4106 2815 
Q 3963 2906 3769 2906 
Q 3419 2906 3187 2673 
Q 2956 2441 2956 1928 
L 2956 0 
L 2394 0 
L 2394 2156 
Q 2394 2531 2256 2718 
Q 2119 2906 1806 2906 
Q 1569 2906 1367 2781 
Q 1166 2656 1075 2415 
Q 984 2175 984 1722 
L 984 0 
L 422 0 
z
" transform="scale(0.015625)"/>
       <path id="ArialMT-29" d="M 791 -1347 
L 388 -1347 
Q 1322 153 1322 1656 
Q 1322 2244 1188 2822 
Q 1081 3291 891 3722 
Q 769 4003 388 4659 
L 791 4659 
Q 1378 3875 1659 3084 
Q 1900 2403 1900 1659 
Q 1900 816 1576 28 
Q 1253 -759 791 -1347 
z
" transform="scale(0.015625)"/>
      </defs>
      <use xlink:href="#ArialMT-50"/>
      <use xlink:href="#ArialMT-4d" transform="translate(66.699219 0)"/>
      <use xlink:href="#ArialMT-32" transform="translate(150 0)"/>
      <use xlink:href="#ArialMT-2e" transform="translate(205.615234 0)"/>
      <use xlink:href="#ArialMT-35" transform="translate(233.398438 0)"/>
      <use xlink:href="#ArialMT-5f" transform="translate(289.013672 0)"/>
      <use xlink:href="#ArialMT-42" transform="translate(344.628906 0)"/>
      <use xlink:href="#ArialMT-72" transform="translate(411.328125 0)"/>
      <use xlink:href="#ArialMT-61" transform="translate(444.628906 0)"/>
      <use xlink:href="#ArialMT-6b" transform="translate(500.244141 0)"/>
      <use xlink:href="#ArialMT-65" transform="translate(550.244141 0)"/>
      <use xlink:href="#ArialMT-73" transform="translate(605.859375 0)"/>
      <use xlink:href="#ArialMT-20" transform="translate(655.859375 0)"/>
      <use xlink:href="#ArialMT-28" transform="translate(683.642578 0)"/>
      <use xlink:href="#ArialMT-67" transform="translate(716.943359 0)"/>
      <use xlink:href="#ArialMT-6d" transform="translate(772.558594 0)"/>
      <use xlink:href="#ArialMT-29" transform="translate(855.859375 0)"/>
     </g>
    </g>
   </g>
   <g id="line2d_72">
    <path d="M 98.136875 237.356228 
L 126.036875 240.203078 
L 153.936875 240.834479 
L 181.836875 240.598256 
L 209.736875 237.065843 
L 237.636875 219.60959 
L 265.536875 201.689283 
L 293.436875 176.890145 
L 321.336875 166.839903 
L 349.236875 161.557111 
L 377.136875 156.50248 
L 405.036875 149.921982 
L 432.936875 147.289377 
L 460.836875 146.35922 
L 488.736875 144.30612 
L 516.636875 141.392009 
L 544.536875 140.818496 
L 572.436875 144.295672 
L 600.336875 158.538062 
L 628.236875 178.612605 
L 656.136875 193.79215 
L 684.036875 210.702844 
L 711.936875 227.646674 
L 739.836875 233.678388 
" clip-path="url(#pa75d34121b)" style="fill: none; stroke: #1f77b4; stroke-opacity: 0.8; stroke-width: 1.5; stroke-linecap: round"/>
   </g>
   <g id="line2d_73">
    <path d="M 98.136875 236.768108 
L 126.036875 239.454582 
L 153.936875 240.014541 
L 181.836875 239.832099 
L 209.736875 236.656618 
L 237.636875 220.457937 
L 265.536875 201.617385 
L 293.436875 179.292395 
L 321.336875 171.466476 
L 349.236875 168.274007 
L 377.136875 165.757824 
L 405.036875 160.622426 
L 432.936875 158.443779 
L 460.836875 157.648671 
L 488.736875 155.976222 
L 516.636875 153.530282 
L 544.536875 153.075333 
L 572.436875 155.193605 
L 600.336875 165.772843 
L 628.236875 183.166925 
L 656.136875 197.734385 
L 684.036875 212.970337 
L 711.936875 227.573553 
L 739.836875 233.291622 
" clip-path="url(#pa75d34121b)" style="fill: none; stroke: #dbdb8d; stroke-opacity: 0.8; stroke-width: 1.5; stroke-linecap: round"/>
   </g>
   <g id="line2d_74">
    <path d="M 98.136875 216.749956 
L 126.036875 224.026897 
L 153.936875 225.422537 
L 181.836875 225.134707 
L 209.736875 219.938771 
L 237.636875 195.923563 
L 265.536875 165.83575 
L 293.436875 120.428339 
L 321.336875 104.42153 
L 349.236875 93.652023 
L 377.136875 84.090889 
L 405.036875 75.007292 
L 432.936875 71.309137 
L 460.836875 68.982031 
L 488.736875 65.474052 
L 516.636875 60.539057 
L 544.536875 60.101752 
L 572.436875 63.92694 
L 600.336875 81.426508 
L 628.236875 109.467729 
L 656.136875 147.059565 
L 684.036875 172.973536 
L 711.936875 192.631378 
L 739.836875 203.808773 
" clip-path="url(#pa75d34121b)" style="fill: none; stroke: #ffbb78; stroke-opacity: 0.8; stroke-width: 1.5; stroke-linecap: round"/>
   </g>
   <g id="line2d_75">
    <path d="M 98.136875 227.075694 
L 126.036875 231.728394 
L 153.936875 232.573602 
L 181.836875 232.081593 
L 209.736875 228.886701 
L 237.636875 210.023937 
L 265.536875 165.872872 
L 293.436875 110.503086 
L 321.336875 95.334089 
L 349.236875 85.620987 
L 377.136875 76.736889 
L 405.036875 68.43448 
L 432.936875 65.119586 
L 460.836875 64.164479 
L 488.736875 60.591469 
L 516.636875 55.695588 
L 544.536875 54.564825 
L 572.436875 59.075437 
L 600.336875 77.094484 
L 628.236875 102.729919 
L 656.136875 133.164936 
L 684.036875 183.480814 
L 711.936875 209.374412 
L 739.836875 218.028264 
" clip-path="url(#pa75d34121b)" style="fill: none; stroke: #2ca02c; stroke-opacity: 0.8; stroke-width: 1.5; stroke-linecap: round"/>
   </g>
   <g id="line2d_76">
    <path d="M 98.136875 241.445606 
L 126.036875 242.832016 
L 153.936875 243.151035 
L 181.836875 243.049201 
L 209.736875 241.385036 
L 237.636875 216.251276 
L 265.536875 193.496228 
L 293.436875 166.704601 
L 321.336875 155.848388 
L 349.236875 150.09734 
L 377.136875 144.441298 
L 405.036875 138.212173 
L 432.936875 136.366053 
L 460.836875 135.799817 
L 488.736875 134.005048 
L 516.636875 130.918479 
L 544.536875 131.604942 
L 572.436875 135.047309 
L 600.336875 148.430752 
L 628.236875 170.580707 
L 656.136875 190.291554 
L 684.036875 209.680946 
L 711.936875 233.79558 
L 739.836875 238.873923 
" clip-path="url(#pa75d34121b)" style="fill: none; stroke: #ff7f0e; stroke-opacity: 0.8; stroke-width: 1.5; stroke-linecap: round"/>
   </g>
   <g id="line2d_77">
    <path d="M 98.136875 225.573677 
L 126.036875 231.114704 
L 153.936875 232.159505 
L 181.836875 231.629164 
L 209.736875 226.820894 
L 237.636875 203.353765 
L 265.536875 176.135011 
L 293.436875 129.369455 
L 321.336875 112.433277 
L 349.236875 103.729846 
L 377.136875 94.285441 
L 405.036875 83.151038 
L 432.936875 77.372133 
L 460.836875 75.008666 
L 488.736875 69.556921 
L 516.636875 64.203629 
L 544.536875 63.744222 
L 572.436875 67.863741 
L 600.336875 89.657783 
L 628.236875 121.026387 
L 656.136875 162.249566 
L 684.036875 186.426783 
L 711.936875 204.719865 
L 739.836875 215.044087 
" clip-path="url(#pa75d34121b)" style="fill: none; stroke: #98df8a; stroke-opacity: 0.8; stroke-width: 1.5; stroke-linecap: round"/>
   </g>
   <g id="line2d_78">
    <path d="M 98.136875 241.183973 
L 126.036875 242.965619 
L 153.936875 243.310444 
L 181.836875 243.262188 
L 209.736875 240.988106 
L 237.636875 221.87083 
L 265.536875 202.320742 
L 293.436875 176.497804 
L 321.336875 164.05731 
L 349.236875 159.291388 
L 377.136875 152.784762 
L 405.036875 146.674162 
L 432.936875 144.185184 
L 460.836875 143.832493 
L 488.736875 141.139941 
L 516.636875 137.711558 
L 544.536875 138.095451 
L 572.436875 142.628925 
L 600.336875 156.981695 
L 628.236875 181.128492 
L 656.136875 198.499625 
L 684.036875 215.561596 
L 711.936875 233.980747 
L 739.836875 238.600894 
" clip-path="url(#pa75d34121b)" style="fill: none; stroke: #17becf; stroke-opacity: 0.8; stroke-width: 1.5; stroke-linecap: round"/>
   </g>
   <g id="line2d_79">
    <path d="M 98.136875 230.073823 
L 126.036875 234.633872 
L 153.936875 235.405167 
L 181.836875 234.275103 
L 209.736875 229.009204 
L 237.636875 204.272736 
L 265.536875 171.677685 
L 293.436875 121.566395 
L 321.336875 105.703762 
L 349.236875 96.565503 
L 377.136875 86.682315 
L 405.036875 70.31615 
L 432.936875 64.63612 
L 460.836875 61.61075 
L 488.736875 55.046331 
L 516.636875 49.762361 
L 544.536875 49.626788 
L 572.436875 54.666412 
L 600.336875 78.155663 
L 628.236875 119.335258 
L 656.136875 163.712126 
L 684.036875 191.58629 
L 711.936875 210.787774 
L 739.836875 220.205172 
" clip-path="url(#pa75d34121b)" style="fill: none; stroke: #d62728; stroke-opacity: 0.8; stroke-width: 1.5; stroke-linecap: round"/>
   </g>
   <g id="line2d_80">
    <path d="M 98.136875 232.895028 
L 126.036875 237.09534 
L 153.936875 237.815336 
L 181.836875 237.09483 
L 209.736875 232.878713 
L 237.636875 210.206113 
L 265.536875 185.935761 
L 293.436875 142.92145 
L 321.336875 133.340877 
L 349.236875 127.960663 
L 377.136875 122.379752 
L 405.036875 114.85223 
L 432.936875 111.236321 
L 460.836875 109.538896 
L 488.736875 105.121056 
L 516.636875 100.696943 
L 544.536875 99.319795 
L 572.436875 104.003382 
L 600.336875 123.034335 
L 628.236875 146.633452 
L 656.136875 179.840809 
L 684.036875 198.410177 
L 711.936875 217.244521 
L 739.836875 225.604189 
" clip-path="url(#pa75d34121b)" style="fill: none; stroke: #9edae5; stroke-opacity: 0.8; stroke-width: 1.5; stroke-linecap: round"/>
   </g>
   <g id="line2d_81">
    <path d="M 98.136875 230.452255 
L 126.036875 234.808197 
L 153.936875 235.434638 
L 181.836875 233.861802 
L 209.736875 226.826411 
L 237.636875 203.835164 
L 265.536875 180.283869 
L 293.436875 146.940442 
L 321.336875 117.483049 
L 349.236875 109.008103 
L 377.136875 102.909639 
L 405.036875 94.30927 
L 432.936875 89.612173 
L 460.836875 85.997639 
L 488.736875 81.298488 
L 516.636875 75.953037 
L 544.536875 76.244046 
L 572.436875 82.004514 
L 600.336875 101.041735 
L 628.236875 158.85815 
L 656.136875 180.590287 
L 684.036875 196.734723 
L 711.936875 211.845486 
L 739.836875 221.400227 
" clip-path="url(#pa75d34121b)" style="fill: none; stroke: #9edae5; stroke-opacity: 0.8; stroke-width: 1.5; stroke-linecap: round"/>
   </g>
   <g id="line2d_82">
    <path d="M 98.136875 242.256353 
L 126.036875 243.5171 
L 153.936875 243.610504 
L 181.836875 243.758873 
L 209.736875 241.758724 
L 237.636875 223.742035 
L 265.536875 205.651721 
L 293.436875 182.475625 
L 321.336875 175.168314 
L 349.236875 168.549013 
L 377.136875 160.100939 
L 405.036875 155.140475 
L 432.936875 153.257193 
L 460.836875 151.884203 
L 488.736875 148.222131 
L 516.636875 143.800934 
L 544.536875 144.27755 
L 572.436875 149.399915 
L 600.336875 161.071259 
L 628.236875 184.606552 
L 656.136875 201.450195 
L 684.036875 217.140177 
L 711.936875 235.879216 
L 739.836875 240.136501 
" clip-path="url(#pa75d34121b)" style="fill: none; stroke: #f7b6d2; stroke-opacity: 0.8; stroke-width: 1.5; stroke-linecap: round"/>
   </g>
   <g id="line2d_83">
    <path d="M 98.136875 236.950109 
L 126.036875 239.682753 
L 153.936875 240.151696 
L 181.836875 240.01884 
L 209.736875 236.906099 
L 237.636875 214.684074 
L 265.536875 189.136531 
L 293.436875 159.968618 
L 321.336875 152.5708 
L 349.236875 144.729266 
L 377.136875 134.558789 
L 405.036875 125.646456 
L 432.936875 122.369795 
L 460.836875 118.930534 
L 488.736875 113.576838 
L 516.636875 107.371879 
L 544.536875 108.467493 
L 572.436875 114.793624 
L 600.336875 135.563898 
L 628.236875 166.526467 
L 656.136875 184.963439 
L 684.036875 204.944179 
L 711.936875 225.198818 
L 739.836875 232.811094 
" clip-path="url(#pa75d34121b)" style="fill: none; stroke: #7f7f7f; stroke-opacity: 0.8; stroke-width: 1.5; stroke-linecap: round"/>
   </g>
   <g id="line2d_84">
    <path d="M 98.136875 240.340636 
L 126.036875 242.330703 
L 153.936875 242.716544 
L 181.836875 242.742835 
L 209.736875 239.762224 
L 237.636875 220.304966 
L 265.536875 200.481796 
L 293.436875 171.609029 
L 321.336875 163.780776 
L 349.236875 156.864518 
L 377.136875 148.064582 
L 405.036875 140.430425 
L 432.936875 136.862754 
L 460.836875 134.135319 
L 488.736875 130.24462 
L 516.636875 124.344165 
L 544.536875 124.308445 
L 572.436875 130.812026 
L 600.336875 149.612772 
L 628.236875 175.53603 
L 656.136875 193.903402 
L 684.036875 213.52205 
L 711.936875 232.085549 
L 739.836875 237.472115 
" clip-path="url(#pa75d34121b)" style="fill: none; stroke: #1f77b4; stroke-opacity: 0.8; stroke-width: 1.5; stroke-linecap: round"/>
   </g>
   <g id="line2d_85">
    <path d="M 98.136875 240.739022 
L 126.036875 242.866976 
L 153.936875 243.299171 
L 181.836875 243.139384 
L 209.736875 239.934644 
L 237.636875 219.250147 
L 265.536875 197.641675 
L 293.436875 171.499781 
L 321.336875 164.335577 
L 349.236875 156.317927 
L 377.136875 145.808224 
L 405.036875 137.735013 
L 432.936875 135.691356 
L 460.836875 132.593274 
L 488.736875 125.081704 
L 516.636875 117.626553 
L 544.536875 117.764732 
L 572.436875 125.719234 
L 600.336875 144.803916 
L 628.236875 175.792748 
L 656.136875 194.94449 
L 684.036875 214.166698 
L 711.936875 232.435662 
L 739.836875 237.772102 
" clip-path="url(#pa75d34121b)" style="fill: none; stroke: #bcbd22; stroke-opacity: 0.8; stroke-width: 1.5; stroke-linecap: round"/>
   </g>
   <g id="line2d_86">
    <path d="M 98.136875 242.253505 
L 126.036875 243.340257 
L 153.936875 243.55164 
L 181.836875 243.511782 
L 209.736875 241.873823 
L 237.636875 227.230929 
L 265.536875 214.524645 
L 293.436875 194.515667 
L 321.336875 190.97591 
L 349.236875 184.77599 
L 377.136875 177.059789 
L 405.036875 170.148883 
L 432.936875 169.016565 
L 460.836875 165.168061 
L 488.736875 159.437725 
L 516.636875 152.743501 
L 544.536875 152.220643 
L 572.436875 157.985878 
L 600.336875 173.349127 
L 628.236875 196.001888 
L 656.136875 210.305327 
L 684.036875 224.422857 
L 711.936875 236.850782 
L 739.836875 240.616605 
" clip-path="url(#pa75d34121b)" style="fill: none; stroke: #8c564b; stroke-opacity: 0.8; stroke-width: 1.5; stroke-linecap: round"/>
   </g>
   <g id="line2d_87">
    <path d="M 98.136875 241.515401 
L 126.036875 242.839391 
L 153.936875 243.109809 
L 181.836875 242.932801 
L 209.736875 240.481917 
L 237.636875 223.30368 
L 265.536875 202.68057 
L 293.436875 180.113256 
L 321.336875 173.836679 
L 349.236875 168.910942 
L 377.136875 161.41788 
L 405.036875 153.350604 
L 432.936875 150.165905 
L 460.836875 147.773038 
L 488.736875 142.352349 
L 516.636875 135.977127 
L 544.536875 136.862594 
L 572.436875 143.851153 
L 600.336875 164.974031 
L 628.236875 188.872568 
L 656.136875 204.852669 
L 684.036875 220.662524 
L 711.936875 235.602757 
L 739.836875 239.382581 
" clip-path="url(#pa75d34121b)" style="fill: none; stroke: #c7c7c7; stroke-opacity: 0.8; stroke-width: 1.5; stroke-linecap: round"/>
   </g>
   <g id="line2d_88">
    <path d="M 98.136875 237.542131 
L 126.036875 240.045823 
L 153.936875 240.566267 
L 181.836875 240.340331 
L 209.736875 237.029688 
L 237.636875 218.418779 
L 265.536875 198.025175 
L 293.436875 173.165881 
L 321.336875 165.527724 
L 349.236875 158.591876 
L 377.136875 146.651129 
L 405.036875 137.811286 
L 432.936875 134.15048 
L 460.836875 130.253813 
L 488.736875 123.590908 
L 516.636875 116.267254 
L 544.536875 116.513544 
L 572.436875 123.018663 
L 600.336875 143.65752 
L 628.236875 176.777946 
L 656.136875 194.247327 
L 684.036875 211.26971 
L 711.936875 228.295922 
L 739.836875 234.016538 
" clip-path="url(#pa75d34121b)" style="fill: none; stroke: #9467bd; stroke-opacity: 0.8; stroke-width: 1.5; stroke-linecap: round"/>
   </g>
   <g id="line2d_89">
    <path d="M 98.136875 241.840078 
L 126.036875 243.254691 
L 153.936875 243.598195 
L 181.836875 243.534332 
L 209.736875 241.228856 
L 237.636875 222.615708 
L 265.536875 204.931779 
L 293.436875 181.814617 
L 321.336875 175.83435 
L 349.236875 168.245546 
L 377.136875 160.821511 
L 405.036875 154.220343 
L 432.936875 153.162624 
L 460.836875 150.356421 
L 488.736875 144.97338 
L 516.636875 139.810208 
L 544.536875 139.388117 
L 572.436875 145.674894 
L 600.336875 161.376498 
L 628.236875 184.181091 
L 656.136875 201.701719 
L 684.036875 218.688191 
L 711.936875 236.568226 
L 739.836875 240.040044 
" clip-path="url(#pa75d34121b)" style="fill: none; stroke: #e377c2; stroke-opacity: 0.8; stroke-width: 1.5; stroke-linecap: round"/>
   </g>
   <g id="line2d_90">
    <path d="M 98.136875 242.312268 
L 126.036875 243.573945 
L 153.936875 243.888749 
L 181.836875 243.829334 
L 209.736875 241.667861 
L 237.636875 224.238209 
L 265.536875 206.31241 
L 293.436875 180.663206 
L 321.336875 174.328215 
L 349.236875 167.241884 
L 377.136875 157.6003 
L 405.036875 150.445293 
L 432.936875 148.307294 
L 460.836875 145.806854 
L 488.736875 139.14477 
L 516.636875 132.702905 
L 544.536875 131.685906 
L 572.436875 139.499586 
L 600.336875 157.230973 
L 628.236875 184.34662 
L 656.136875 203.687084 
L 684.036875 220.780272 
L 711.936875 236.585546 
L 739.836875 240.35135 
" clip-path="url(#pa75d34121b)" style="fill: none; stroke: #c49c94; stroke-opacity: 0.8; stroke-width: 1.5; stroke-linecap: round"/>
   </g>
   <g id="line2d_91">
    <path d="M 98.136875 241.23373 
L 126.036875 242.995004 
L 153.936875 243.453765 
L 181.836875 243.388476 
L 209.736875 240.462793 
L 237.636875 223.380771 
L 265.536875 205.64995 
L 293.436875 181.975488 
L 321.336875 175.490353 
L 349.236875 169.345715 
L 377.136875 158.90198 
L 405.036875 147.397299 
L 432.936875 144.003595 
L 460.836875 140.302903 
L 488.736875 134.409372 
L 516.636875 127.469465 
L 544.536875 127.136036 
L 572.436875 135.759813 
L 600.336875 157.768968 
L 628.236875 184.851423 
L 656.136875 202.112563 
L 684.036875 219.958998 
L 711.936875 233.596929 
L 739.836875 238.683609 
" clip-path="url(#pa75d34121b)" style="fill: none; stroke: #c5b0d5; stroke-opacity: 0.8; stroke-width: 1.5; stroke-linecap: round"/>
   </g>
   <g id="line2d_92">
    <path d="M 98.136875 240.944116 
L 126.036875 243.297178 
L 153.936875 243.769074 
L 181.836875 243.606556 
L 209.736875 239.795798 
L 237.636875 214.978645 
L 265.536875 195.168756 
L 293.436875 167.23627 
L 321.336875 161.534586 
L 349.236875 154.406914 
L 377.136875 145.57214 
L 405.036875 136.319076 
L 432.936875 133.8643 
L 460.836875 130.404493 
L 488.736875 124.271263 
L 516.636875 116.829773 
L 544.536875 116.157649 
L 572.436875 124.073848 
L 600.336875 142.318139 
L 628.236875 171.275001 
L 656.136875 190.252404 
L 684.036875 210.892305 
L 711.936875 232.977777 
L 739.836875 238.152727 
" clip-path="url(#pa75d34121b)" style="fill: none; stroke: #ff9896; stroke-opacity: 0.8; stroke-width: 1.5; stroke-linecap: round"/>
   </g>
   <g id="line2d_93">
    <path d="M 98.136875 238.599468 
L 126.036875 240.93841 
L 153.936875 241.508518 
L 181.836875 241.214477 
L 209.736875 237.987771 
L 237.636875 225.161777 
L 265.536875 211.67261 
L 293.436875 193.196666 
L 321.336875 187.63555 
L 349.236875 182.217614 
L 377.136875 171.370183 
L 405.036875 157.71215 
L 432.936875 151.646387 
L 460.836875 143.44318 
L 488.736875 132.260672 
L 516.636875 122.519079 
L 544.536875 120.75393 
L 572.436875 129.206959 
L 600.336875 158.412873 
L 628.236875 192.579337 
L 656.136875 206.835028 
L 684.036875 219.331989 
L 711.936875 230.853443 
L 739.836875 235.601438 
" clip-path="url(#pa75d34121b)" style="fill: none; stroke: #aec7e8; stroke-opacity: 0.8; stroke-width: 1.5; stroke-linecap: round"/>
   </g>
   <g id="line2d_94">
    <path d="M 98.136875 240.133103 
L 126.036875 242.783105 
L 153.936875 243.434205 
L 181.836875 243.442928 
L 209.736875 239.468193 
L 237.636875 212.527081 
L 265.536875 190.920252 
L 293.436875 161.875265 
L 321.336875 151.785028 
L 349.236875 143.843941 
L 377.136875 134.242918 
L 405.036875 125.327751 
L 432.936875 121.450078 
L 460.836875 119.161432 
L 488.736875 114.936882 
L 516.636875 108.879726 
L 544.536875 108.044969 
L 572.436875 114.680223 
L 600.336875 133.145479 
L 628.236875 161.560333 
L 656.136875 182.722883 
L 684.036875 204.356865 
L 711.936875 232.324465 
L 739.836875 237.425233 
" clip-path="url(#pa75d34121b)" style="fill: none; stroke: #8c564b; stroke-opacity: 0.8; stroke-width: 1.5; stroke-linecap: round"/>
   </g>
   <g id="patch_3">
    <path d="M 84.186875 257.76 
L 84.186875 36 
" style="fill: none; stroke: #000000; stroke-linejoin: miter; stroke-linecap: square"/>
   </g>
   <g id="patch_4">
    <path d="M 753.786875 257.76 
L 753.786875 36 
" style="fill: none; stroke: #000000; stroke-linejoin: miter; stroke-linecap: square"/>
   </g>
   <g id="patch_5">
    <path d="M 84.186875 257.76 
L 753.786875 257.76 
" style="fill: none; stroke: #000000; stroke-linejoin: miter; stroke-linecap: square"/>
   </g>
   <g id="patch_6">
    <path d="M 84.186875 36 
L 753.786875 36 
" style="fill: none; stroke: #000000; stroke-linejoin: miter; stroke-linecap: square"/>
   </g>
  </g>
 </g>
 <defs>
  <clipPath id="pa75d34121b">
   <rect x="84.186875" y="36" width="669.6" height="221.76"/>
  </clipPath>
 </defs>
</svg>
