<?xml version="1.0" encoding="utf-8" standalone="no"?>
<!DOCTYPE svg PUBLIC "-//W3C//DTD SVG 1.1//EN"
  "http://www.w3.org/Graphics/SVG/1.1/DTD/svg11.dtd">
<svg xmlns:xlink="http://www.w3.org/1999/xlink" width="789.786875pt" height="337.149621pt" viewBox="0 0 789.786875 337.149621" xmlns="http://www.w3.org/2000/svg" version="1.1">
 <metadata>
  <rdf:RDF xmlns:dc="http://purl.org/dc/elements/1.1/" xmlns:cc="http://creativecommons.org/ns#" xmlns:rdf="http://www.w3.org/1999/02/22-rdf-syntax-ns#">
   <cc:Work>
    <dc:type rdf:resource="http://purl.org/dc/dcmitype/StillImage"/>
    <dc:date>2025-10-27T21:38:22.779336</dc:date>
    <dc:format>image/svg+xml</dc:format>
    <dc:creator>
     <cc:Agent>
      <dc:title>Matplotlib v3.10.7, https://matplotlib.org/</dc:title>
     </cc:Agent>
    </dc:creator>
   </cc:Work>
  </rdf:RDF>
 </metadata>
 <defs>
  <style type="text/css">*{stroke-linejoin: round; stroke-linecap: butt}</style>
 </defs>
 <g id="figure_1">
  <g id="patch_1">
   <path d="M 0 337.149621 
L 789.786875 337.149621 
L 789.786875 0 
L 0 0 
L 0 337.149621 
z
" style="fill: none"/>
  </g>
  <g id="axes_1">
   <g id="patch_2">
    <path d="M 84.186875 262.623371 
L 753.786875 262.623371 
L 753.786875 40.863371 
L 84.186875 40.863371 
L 84.186875 262.623371 
z
" style="fill: none"/>
   </g>
   <g id="line2d_1">
    <path d="M 104.477784 262.623371 
L 104.477784 40.863371 
" clip-path="url(#pa7f71d91d2)" style="fill: none; stroke-dasharray: 0.74,0.32; stroke-dashoffset: 0; stroke: #a9a9a9; stroke-opacity: 0.5; stroke-width: 0.2"/>
   </g>
   <g id="line2d_2">
    <path d="M 124.768693 262.623371 
L 124.768693 40.863371 
" clip-path="url(#pa7f71d91d2)" style="fill: none; stroke-dasharray: 0.74,0.32; stroke-dashoffset: 0; stroke: #a9a9a9; stroke-opacity: 0.5; stroke-width: 0.2"/>
   </g>
   <g id="line2d_3">
    <path d="M 145.059602 262.623371 
L 145.059602 40.863371 
" clip-path="url(#pa7f71d91d2)" style="fill: none; stroke-dasharray: 0.74,0.32; stroke-dashoffset: 0; stroke: #a9a9a9; stroke-opacity: 0.5; stroke-width: 0.2"/>
   </g>
   <g id="line2d_4">
    <path d="M 165.350511 262.623371 
L 165.350511 40.863371 
" clip-path="url(#pa7f71d91d2)" style="fill: none; stroke-dasharray: 0.74,0.32; stroke-dashoffset: 0; stroke: #a9a9a9; stroke-opacity: 0.5; stroke-width: 0.2"/>
   </g>
   <g id="line2d_5">
    <path d="M 185.64142 262.623371 
L 185.64142 40.863371 
" clip-path="url(#pa7f71d91d2)" style="fill: none; stroke-dasharray: 0.74,0.32; stroke-dashoffset: 0; stroke: #a9a9a9; stroke-opacity: 0.5; stroke-width: 0.2"/>
   </g>
   <g id="line2d_6">
    <path d="M 205.93233 262.623371 
L 205.93233 40.863371 
" clip-path="url(#pa7f71d91d2)" style="fill: none; stroke-dasharray: 0.74,0.32; stroke-dashoffset: 0; stroke: #a9a9a9; stroke-opacity: 0.5; stroke-width: 0.2"/>
   </g>
   <g id="line2d_7">
    <path d="M 226.223239 262.623371 
L 226.223239 40.863371 
" clip-path="url(#pa7f71d91d2)" style="fill: none; stroke-dasharray: 0.74,0.32; stroke-dashoffset: 0; stroke: #a9a9a9; stroke-opacity: 0.5; stroke-width: 0.2"/>
   </g>
   <g id="line2d_8">
    <path d="M 246.514148 262.623371 
L 246.514148 40.863371 
" clip-path="url(#pa7f71d91d2)" style="fill: none; stroke-dasharray: 0.74,0.32; stroke-dashoffset: 0; stroke: #a9a9a9; stroke-opacity: 0.5; stroke-width: 0.2"/>
   </g>
   <g id="line2d_9">
    <path d="M 266.805057 262.623371 
L 266.805057 40.863371 
" clip-path="url(#pa7f71d91d2)" style="fill: none; stroke-dasharray: 0.74,0.32; stroke-dashoffset: 0; stroke: #a9a9a9; stroke-opacity: 0.5; stroke-width: 0.2"/>
   </g>
   <g id="line2d_10">
    <path d="M 287.095966 262.623371 
L 287.095966 40.863371 
" clip-path="url(#pa7f71d91d2)" style="fill: none; stroke-dasharray: 0.74,0.32; stroke-dashoffset: 0; stroke: #a9a9a9; stroke-opacity: 0.5; stroke-width: 0.2"/>
   </g>
   <g id="line2d_11">
    <path d="M 307.386875 262.623371 
L 307.386875 40.863371 
" clip-path="url(#pa7f71d91d2)" style="fill: none; stroke-dasharray: 0.74,0.32; stroke-dashoffset: 0; stroke: #a9a9a9; stroke-opacity: 0.5; stroke-width: 0.2"/>
   </g>
   <g id="line2d_12">
    <path d="M 327.677784 262.623371 
L 327.677784 40.863371 
" clip-path="url(#pa7f71d91d2)" style="fill: none; stroke-dasharray: 0.74,0.32; stroke-dashoffset: 0; stroke: #a9a9a9; stroke-opacity: 0.5; stroke-width: 0.2"/>
   </g>
   <g id="line2d_13">
    <path d="M 347.968693 262.623371 
L 347.968693 40.863371 
" clip-path="url(#pa7f71d91d2)" style="fill: none; stroke-dasharray: 0.74,0.32; stroke-dashoffset: 0; stroke: #a9a9a9; stroke-opacity: 0.5; stroke-width: 0.2"/>
   </g>
   <g id="line2d_14">
    <path d="M 368.259602 262.623371 
L 368.259602 40.863371 
" clip-path="url(#pa7f71d91d2)" style="fill: none; stroke-dasharray: 0.74,0.32; stroke-dashoffset: 0; stroke: #a9a9a9; stroke-opacity: 0.5; stroke-width: 0.2"/>
   </g>
   <g id="line2d_15">
    <path d="M 388.550511 262.623371 
L 388.550511 40.863371 
" clip-path="url(#pa7f71d91d2)" style="fill: none; stroke-dasharray: 0.74,0.32; stroke-dashoffset: 0; stroke: #a9a9a9; stroke-opacity: 0.5; stroke-width: 0.2"/>
   </g>
   <g id="line2d_16">
    <path d="M 408.84142 262.623371 
L 408.84142 40.863371 
" clip-path="url(#pa7f71d91d2)" style="fill: none; stroke-dasharray: 0.74,0.32; stroke-dashoffset: 0; stroke: #a9a9a9; stroke-opacity: 0.5; stroke-width: 0.2"/>
   </g>
   <g id="line2d_17">
    <path d="M 429.13233 262.623371 
L 429.13233 40.863371 
" clip-path="url(#pa7f71d91d2)" style="fill: none; stroke-dasharray: 0.74,0.32; stroke-dashoffset: 0; stroke: #a9a9a9; stroke-opacity: 0.5; stroke-width: 0.2"/>
   </g>
   <g id="line2d_18">
    <path d="M 449.423239 262.623371 
L 449.423239 40.863371 
" clip-path="url(#pa7f71d91d2)" style="fill: none; stroke-dasharray: 0.74,0.32; stroke-dashoffset: 0; stroke: #a9a9a9; stroke-opacity: 0.5; stroke-width: 0.2"/>
   </g>
   <g id="line2d_19">
    <path d="M 469.714148 262.623371 
L 469.714148 40.863371 
" clip-path="url(#pa7f71d91d2)" style="fill: none; stroke-dasharray: 0.74,0.32; stroke-dashoffset: 0; stroke: #a9a9a9; stroke-opacity: 0.5; stroke-width: 0.2"/>
   </g>
   <g id="line2d_20">
    <path d="M 490.005057 262.623371 
L 490.005057 40.863371 
" clip-path="url(#pa7f71d91d2)" style="fill: none; stroke-dasharray: 0.74,0.32; stroke-dashoffset: 0; stroke: #a9a9a9; stroke-opacity: 0.5; stroke-width: 0.2"/>
   </g>
   <g id="line2d_21">
    <path d="M 510.295966 262.623371 
L 510.295966 40.863371 
" clip-path="url(#pa7f71d91d2)" style="fill: none; stroke-dasharray: 0.74,0.32; stroke-dashoffset: 0; stroke: #a9a9a9; stroke-opacity: 0.5; stroke-width: 0.2"/>
   </g>
   <g id="line2d_22">
    <path d="M 530.586875 262.623371 
L 530.586875 40.863371 
" clip-path="url(#pa7f71d91d2)" style="fill: none; stroke-dasharray: 0.74,0.32; stroke-dashoffset: 0; stroke: #a9a9a9; stroke-opacity: 0.5; stroke-width: 0.2"/>
   </g>
   <g id="line2d_23">
    <path d="M 550.877784 262.623371 
L 550.877784 40.863371 
" clip-path="url(#pa7f71d91d2)" style="fill: none; stroke-dasharray: 0.74,0.32; stroke-dashoffset: 0; stroke: #a9a9a9; stroke-opacity: 0.5; stroke-width: 0.2"/>
   </g>
   <g id="line2d_24">
    <path d="M 571.168693 262.623371 
L 571.168693 40.863371 
" clip-path="url(#pa7f71d91d2)" style="fill: none; stroke-dasharray: 0.74,0.32; stroke-dashoffset: 0; stroke: #a9a9a9; stroke-opacity: 0.5; stroke-width: 0.2"/>
   </g>
   <g id="line2d_25">
    <path d="M 591.459602 262.623371 
L 591.459602 40.863371 
" clip-path="url(#pa7f71d91d2)" style="fill: none; stroke-dasharray: 0.74,0.32; stroke-dashoffset: 0; stroke: #a9a9a9; stroke-opacity: 0.5; stroke-width: 0.2"/>
   </g>
   <g id="line2d_26">
    <path d="M 611.750511 262.623371 
L 611.750511 40.863371 
" clip-path="url(#pa7f71d91d2)" style="fill: none; stroke-dasharray: 0.74,0.32; stroke-dashoffset: 0; stroke: #a9a9a9; stroke-opacity: 0.5; stroke-width: 0.2"/>
   </g>
   <g id="line2d_27">
    <path d="M 632.04142 262.623371 
L 632.04142 40.863371 
" clip-path="url(#pa7f71d91d2)" style="fill: none; stroke-dasharray: 0.74,0.32; stroke-dashoffset: 0; stroke: #a9a9a9; stroke-opacity: 0.5; stroke-width: 0.2"/>
   </g>
   <g id="line2d_28">
    <path d="M 652.33233 262.623371 
L 652.33233 40.863371 
" clip-path="url(#pa7f71d91d2)" style="fill: none; stroke-dasharray: 0.74,0.32; stroke-dashoffset: 0; stroke: #a9a9a9; stroke-opacity: 0.5; stroke-width: 0.2"/>
   </g>
   <g id="line2d_29">
    <path d="M 672.623239 262.623371 
L 672.623239 40.863371 
" clip-path="url(#pa7f71d91d2)" style="fill: none; stroke-dasharray: 0.74,0.32; stroke-dashoffset: 0; stroke: #a9a9a9; stroke-opacity: 0.5; stroke-width: 0.2"/>
   </g>
   <g id="line2d_30">
    <path d="M 692.914148 262.623371 
L 692.914148 40.863371 
" clip-path="url(#pa7f71d91d2)" style="fill: none; stroke-dasharray: 0.74,0.32; stroke-dashoffset: 0; stroke: #a9a9a9; stroke-opacity: 0.5; stroke-width: 0.2"/>
   </g>
   <g id="line2d_31">
    <path d="M 713.205057 262.623371 
L 713.205057 40.863371 
" clip-path="url(#pa7f71d91d2)" style="fill: none; stroke-dasharray: 0.74,0.32; stroke-dashoffset: 0; stroke: #a9a9a9; stroke-opacity: 0.5; stroke-width: 0.2"/>
   </g>
   <g id="line2d_32">
    <path d="M 733.495966 262.623371 
L 733.495966 40.863371 
" clip-path="url(#pa7f71d91d2)" style="fill: none; stroke-dasharray: 0.74,0.32; stroke-dashoffset: 0; stroke: #a9a9a9; stroke-opacity: 0.5; stroke-width: 0.2"/>
   </g>
   <g id="line2d_33">
    <path d="M 84.186875 240.447371 
L 753.786875 240.447371 
" clip-path="url(#pa7f71d91d2)" style="fill: none; stroke-dasharray: 0.74,0.32; stroke-dashoffset: 0; stroke: #a9a9a9; stroke-opacity: 0.5; stroke-width: 0.2"/>
   </g>
   <g id="line2d_34">
    <path d="M 84.186875 218.271371 
L 753.786875 218.271371 
" clip-path="url(#pa7f71d91d2)" style="fill: none; stroke-dasharray: 0.74,0.32; stroke-dashoffset: 0; stroke: #a9a9a9; stroke-opacity: 0.5; stroke-width: 0.2"/>
   </g>
   <g id="line2d_35">
    <path d="M 84.186875 196.095371 
L 753.786875 196.095371 
" clip-path="url(#pa7f71d91d2)" style="fill: none; stroke-dasharray: 0.74,0.32; stroke-dashoffset: 0; stroke: #a9a9a9; stroke-opacity: 0.5; stroke-width: 0.2"/>
   </g>
   <g id="line2d_36">
    <path d="M 84.186875 173.919371 
L 753.786875 173.919371 
" clip-path="url(#pa7f71d91d2)" style="fill: none; stroke-dasharray: 0.74,0.32; stroke-dashoffset: 0; stroke: #a9a9a9; stroke-opacity: 0.5; stroke-width: 0.2"/>
   </g>
   <g id="line2d_37">
    <path d="M 84.186875 151.743371 
L 753.786875 151.743371 
" clip-path="url(#pa7f71d91d2)" style="fill: none; stroke-dasharray: 0.74,0.32; stroke-dashoffset: 0; stroke: #a9a9a9; stroke-opacity: 0.5; stroke-width: 0.2"/>
   </g>
   <g id="line2d_38">
    <path d="M 84.186875 129.567371 
L 753.786875 129.567371 
" clip-path="url(#pa7f71d91d2)" style="fill: none; stroke-dasharray: 0.74,0.32; stroke-dashoffset: 0; stroke: #a9a9a9; stroke-opacity: 0.5; stroke-width: 0.2"/>
   </g>
   <g id="line2d_39">
    <path d="M 84.186875 107.391371 
L 753.786875 107.391371 
" clip-path="url(#pa7f71d91d2)" style="fill: none; stroke-dasharray: 0.74,0.32; stroke-dashoffset: 0; stroke: #a9a9a9; stroke-opacity: 0.5; stroke-width: 0.2"/>
   </g>
   <g id="line2d_40">
    <path d="M 84.186875 85.215371 
L 753.786875 85.215371 
" clip-path="url(#pa7f71d91d2)" style="fill: none; stroke-dasharray: 0.74,0.32; stroke-dashoffset: 0; stroke: #a9a9a9; stroke-opacity: 0.5; stroke-width: 0.2"/>
   </g>
   <g id="line2d_41">
    <path d="M 84.186875 63.039371 
L 753.786875 63.039371 
" clip-path="url(#pa7f71d91d2)" style="fill: none; stroke-dasharray: 0.74,0.32; stroke-dashoffset: 0; stroke: #a9a9a9; stroke-opacity: 0.5; stroke-width: 0.2"/>
   </g>
   <g id="matplotlib.axis_1">
    <g id="xtick_1">
     <g id="line2d_42">
      <defs>
       <path id="meda3172dca" d="M 0 0 
L 0 5 
" style="stroke: #000000"/>
      </defs>
      <g>
       <use xlink:href="#meda3172dca" x="98.136875" y="262.623371" style="stroke: #000000"/>
      </g>
     </g>
     <g id="text_1">
      <!-- 1:00 -->
      <g transform="translate(101.239063 294.476496) rotate(-90) scale(0.12 -0.12)">
       <defs>
        <path id="ArialMT-31" d="M 2384 0 
L 1822 0 
L 1822 3584 
Q 1619 3391 1289 3197 
Q 959 3003 697 2906 
L 697 3450 
Q 1169 3672 1522 3987 
Q 1875 4303 2022 4600 
L 2384 4600 
L 2384 0 
z
" transform="scale(0.015625)"/>
        <path id="ArialMT-3a" d="M 578 2678 
L 578 3319 
L 1219 3319 
L 1219 2678 
L 578 2678 
z
M 578 0 
L 578 641 
L 1219 641 
L 1219 0 
L 578 0 
z
" transform="scale(0.015625)"/>
        <path id="ArialMT-30" d="M 266 2259 
Q 266 3072 433 3567 
Q 600 4063 929 4331 
Q 1259 4600 1759 4600 
Q 2128 4600 2406 4451 
Q 2684 4303 2865 4023 
Q 3047 3744 3150 3342 
Q 3253 2941 3253 2259 
Q 3253 1453 3087 958 
Q 2922 463 2592 192 
Q 2263 -78 1759 -78 
Q 1097 -78 719 397 
Q 266 969 266 2259 
z
M 844 2259 
Q 844 1131 1108 757 
Q 1372 384 1759 384 
Q 2147 384 2411 759 
Q 2675 1134 2675 2259 
Q 2675 3391 2411 3762 
Q 2147 4134 1753 4134 
Q 1366 4134 1134 3806 
Q 844 3388 844 2259 
z
" transform="scale(0.015625)"/>
       </defs>
       <use xlink:href="#ArialMT-31"/>
       <use xlink:href="#ArialMT-3a" transform="translate(55.615234 0)"/>
       <use xlink:href="#ArialMT-30" transform="translate(83.398438 0)"/>
       <use xlink:href="#ArialMT-30" transform="translate(139.013672 0)"/>
      </g>
     </g>
    </g>
    <g id="xtick_2">
     <g id="line2d_43">
      <g>
       <use xlink:href="#meda3172dca" x="126.036875" y="262.623371" style="stroke: #000000"/>
      </g>
     </g>
     <g id="text_2">
      <!-- 2:00 -->
      <g transform="translate(129.139063 294.476496) rotate(-90) scale(0.12 -0.12)">
       <defs>
        <path id="ArialMT-32" d="M 3222 541 
L 3222 0 
L 194 0 
Q 188 203 259 391 
Q 375 700 629 1000 
Q 884 1300 1366 1694 
Q 2113 2306 2375 2664 
Q 2638 3022 2638 3341 
Q 2638 3675 2398 3904 
Q 2159 4134 1775 4134 
Q 1369 4134 1125 3890 
Q 881 3647 878 3216 
L 300 3275 
Q 359 3922 746 4261 
Q 1134 4600 1788 4600 
Q 2447 4600 2831 4234 
Q 3216 3869 3216 3328 
Q 3216 3053 3103 2787 
Q 2991 2522 2730 2228 
Q 2469 1934 1863 1422 
Q 1356 997 1212 845 
Q 1069 694 975 541 
L 3222 541 
z
" transform="scale(0.015625)"/>
       </defs>
       <use xlink:href="#ArialMT-32"/>
       <use xlink:href="#ArialMT-3a" transform="translate(55.615234 0)"/>
       <use xlink:href="#ArialMT-30" transform="translate(83.398438 0)"/>
       <use xlink:href="#ArialMT-30" transform="translate(139.013672 0)"/>
      </g>
     </g>
    </g>
    <g id="xtick_3">
     <g id="line2d_44">
      <g>
       <use xlink:href="#meda3172dca" x="153.936875" y="262.623371" style="stroke: #000000"/>
      </g>
     </g>
     <g id="text_3">
      <!-- 3:00 -->
      <g transform="translate(157.039062 294.476496) rotate(-90) scale(0.12 -0.12)">
       <defs>
        <path id="ArialMT-33" d="M 269 1209 
L 831 1284 
Q 928 806 1161 595 
Q 1394 384 1728 384 
Q 2125 384 2398 659 
Q 2672 934 2672 1341 
Q 2672 1728 2419 1979 
Q 2166 2231 1775 2231 
Q 1616 2231 1378 2169 
L 1441 2663 
Q 1497 2656 1531 2656 
Q 1891 2656 2178 2843 
Q 2466 3031 2466 3422 
Q 2466 3731 2256 3934 
Q 2047 4138 1716 4138 
Q 1388 4138 1169 3931 
Q 950 3725 888 3313 
L 325 3413 
Q 428 3978 793 4289 
Q 1159 4600 1703 4600 
Q 2078 4600 2393 4439 
Q 2709 4278 2876 4000 
Q 3044 3722 3044 3409 
Q 3044 3113 2884 2869 
Q 2725 2625 2413 2481 
Q 2819 2388 3044 2092 
Q 3269 1797 3269 1353 
Q 3269 753 2831 336 
Q 2394 -81 1725 -81 
Q 1122 -81 723 278 
Q 325 638 269 1209 
z
" transform="scale(0.015625)"/>
       </defs>
       <use xlink:href="#ArialMT-33"/>
       <use xlink:href="#ArialMT-3a" transform="translate(55.615234 0)"/>
       <use xlink:href="#ArialMT-30" transform="translate(83.398438 0)"/>
       <use xlink:href="#ArialMT-30" transform="translate(139.013672 0)"/>
      </g>
     </g>
    </g>
    <g id="xtick_4">
     <g id="line2d_45">
      <g>
       <use xlink:href="#meda3172dca" x="181.836875" y="262.623371" style="stroke: #000000"/>
      </g>
     </g>
     <g id="text_4">
      <!-- 4:00 -->
      <g transform="translate(184.939062 294.476496) rotate(-90) scale(0.12 -0.12)">
       <defs>
        <path id="ArialMT-34" d="M 2069 0 
L 2069 1097 
L 81 1097 
L 81 1613 
L 2172 4581 
L 2631 4581 
L 2631 1613 
L 3250 1613 
L 3250 1097 
L 2631 1097 
L 2631 0 
L 2069 0 
z
M 2069 1613 
L 2069 3678 
L 634 1613 
L 2069 1613 
z
" transform="scale(0.015625)"/>
       </defs>
       <use xlink:href="#ArialMT-34"/>
       <use xlink:href="#ArialMT-3a" transform="translate(55.615234 0)"/>
       <use xlink:href="#ArialMT-30" transform="translate(83.398438 0)"/>
       <use xlink:href="#ArialMT-30" transform="translate(139.013672 0)"/>
      </g>
     </g>
    </g>
    <g id="xtick_5">
     <g id="line2d_46">
      <g>
       <use xlink:href="#meda3172dca" x="209.736875" y="262.623371" style="stroke: #000000"/>
      </g>
     </g>
     <g id="text_5">
      <!-- 5:00 -->
      <g transform="translate(212.839063 294.476496) rotate(-90) scale(0.12 -0.12)">
       <defs>
        <path id="ArialMT-35" d="M 266 1200 
L 856 1250 
Q 922 819 1161 601 
Q 1400 384 1738 384 
Q 2144 384 2425 690 
Q 2706 997 2706 1503 
Q 2706 1984 2436 2262 
Q 2166 2541 1728 2541 
Q 1456 2541 1237 2417 
Q 1019 2294 894 2097 
L 366 2166 
L 809 4519 
L 3088 4519 
L 3088 3981 
L 1259 3981 
L 1013 2750 
Q 1425 3038 1878 3038 
Q 2478 3038 2890 2622 
Q 3303 2206 3303 1553 
Q 3303 931 2941 478 
Q 2500 -78 1738 -78 
Q 1113 -78 717 272 
Q 322 622 266 1200 
z
" transform="scale(0.015625)"/>
       </defs>
       <use xlink:href="#ArialMT-35"/>
       <use xlink:href="#ArialMT-3a" transform="translate(55.615234 0)"/>
       <use xlink:href="#ArialMT-30" transform="translate(83.398438 0)"/>
       <use xlink:href="#ArialMT-30" transform="translate(139.013672 0)"/>
      </g>
     </g>
    </g>
    <g id="xtick_6">
     <g id="line2d_47">
      <g>
       <use xlink:href="#meda3172dca" x="237.636875" y="262.623371" style="stroke: #000000"/>
      </g>
     </g>
     <g id="text_6">
      <!-- 6:00 -->
      <g transform="translate(240.739062 294.476496) rotate(-90) scale(0.12 -0.12)">
       <defs>
        <path id="ArialMT-36" d="M 3184 3459 
L 2625 3416 
Q 2550 3747 2413 3897 
Q 2184 4138 1850 4138 
Q 1581 4138 1378 3988 
Q 1113 3794 959 3422 
Q 806 3050 800 2363 
Q 1003 2672 1297 2822 
Q 1591 2972 1913 2972 
Q 2475 2972 2870 2558 
Q 3266 2144 3266 1488 
Q 3266 1056 3080 686 
Q 2894 316 2569 119 
Q 2244 -78 1831 -78 
Q 1128 -78 684 439 
Q 241 956 241 2144 
Q 241 3472 731 4075 
Q 1159 4600 1884 4600 
Q 2425 4600 2770 4297 
Q 3116 3994 3184 3459 
z
M 888 1484 
Q 888 1194 1011 928 
Q 1134 663 1356 523 
Q 1578 384 1822 384 
Q 2178 384 2434 671 
Q 2691 959 2691 1453 
Q 2691 1928 2437 2201 
Q 2184 2475 1800 2475 
Q 1419 2475 1153 2201 
Q 888 1928 888 1484 
z
" transform="scale(0.015625)"/>
       </defs>
       <use xlink:href="#ArialMT-36"/>
       <use xlink:href="#ArialMT-3a" transform="translate(55.615234 0)"/>
       <use xlink:href="#ArialMT-30" transform="translate(83.398438 0)"/>
       <use xlink:href="#ArialMT-30" transform="translate(139.013672 0)"/>
      </g>
     </g>
    </g>
    <g id="xtick_7">
     <g id="line2d_48">
      <g>
       <use xlink:href="#meda3172dca" x="265.536875" y="262.623371" style="stroke: #000000"/>
      </g>
     </g>
     <g id="text_7">
      <!-- 7:00 -->
      <g transform="translate(268.639063 294.476496) rotate(-90) scale(0.12 -0.12)">
       <defs>
        <path id="ArialMT-37" d="M 303 3981 
L 303 4522 
L 3269 4522 
L 3269 4084 
Q 2831 3619 2401 2847 
Q 1972 2075 1738 1259 
Q 1569 684 1522 0 
L 944 0 
Q 953 541 1156 1306 
Q 1359 2072 1739 2783 
Q 2119 3494 2547 3981 
L 303 3981 
z
" transform="scale(0.015625)"/>
       </defs>
       <use xlink:href="#ArialMT-37"/>
       <use xlink:href="#ArialMT-3a" transform="translate(55.615234 0)"/>
       <use xlink:href="#ArialMT-30" transform="translate(83.398438 0)"/>
       <use xlink:href="#ArialMT-30" transform="translate(139.013672 0)"/>
      </g>
     </g>
    </g>
    <g id="xtick_8">
     <g id="line2d_49">
      <g>
       <use xlink:href="#meda3172dca" x="293.436875" y="262.623371" style="stroke: #000000"/>
      </g>
     </g>
     <g id="text_8">
      <!-- 8:00 -->
      <g transform="translate(296.539062 294.476496) rotate(-90) scale(0.12 -0.12)">
       <defs>
        <path id="ArialMT-38" d="M 1131 2484 
Q 781 2613 612 2850 
Q 444 3088 444 3419 
Q 444 3919 803 4259 
Q 1163 4600 1759 4600 
Q 2359 4600 2725 4251 
Q 3091 3903 3091 3403 
Q 3091 3084 2923 2848 
Q 2756 2613 2416 2484 
Q 2838 2347 3058 2040 
Q 3278 1734 3278 1309 
Q 3278 722 2862 322 
Q 2447 -78 1769 -78 
Q 1091 -78 675 323 
Q 259 725 259 1325 
Q 259 1772 486 2073 
Q 713 2375 1131 2484 
z
M 1019 3438 
Q 1019 3113 1228 2906 
Q 1438 2700 1772 2700 
Q 2097 2700 2305 2904 
Q 2513 3109 2513 3406 
Q 2513 3716 2298 3927 
Q 2084 4138 1766 4138 
Q 1444 4138 1231 3931 
Q 1019 3725 1019 3438 
z
M 838 1322 
Q 838 1081 952 856 
Q 1066 631 1291 507 
Q 1516 384 1775 384 
Q 2178 384 2440 643 
Q 2703 903 2703 1303 
Q 2703 1709 2433 1975 
Q 2163 2241 1756 2241 
Q 1359 2241 1098 1978 
Q 838 1716 838 1322 
z
" transform="scale(0.015625)"/>
       </defs>
       <use xlink:href="#ArialMT-38"/>
       <use xlink:href="#ArialMT-3a" transform="translate(55.615234 0)"/>
       <use xlink:href="#ArialMT-30" transform="translate(83.398438 0)"/>
       <use xlink:href="#ArialMT-30" transform="translate(139.013672 0)"/>
      </g>
     </g>
    </g>
    <g id="xtick_9">
     <g id="line2d_50">
      <g>
       <use xlink:href="#meda3172dca" x="321.336875" y="262.623371" style="stroke: #000000"/>
      </g>
     </g>
     <g id="text_9">
      <!-- 9:00 -->
      <g transform="translate(324.439062 294.476496) rotate(-90) scale(0.12 -0.12)">
       <defs>
        <path id="ArialMT-39" d="M 350 1059 
L 891 1109 
Q 959 728 1153 556 
Q 1347 384 1650 384 
Q 1909 384 2104 503 
Q 2300 622 2425 820 
Q 2550 1019 2634 1356 
Q 2719 1694 2719 2044 
Q 2719 2081 2716 2156 
Q 2547 1888 2255 1720 
Q 1963 1553 1622 1553 
Q 1053 1553 659 1965 
Q 266 2378 266 3053 
Q 266 3750 677 4175 
Q 1088 4600 1706 4600 
Q 2153 4600 2523 4359 
Q 2894 4119 3086 3673 
Q 3278 3228 3278 2384 
Q 3278 1506 3087 986 
Q 2897 466 2520 194 
Q 2144 -78 1638 -78 
Q 1100 -78 759 220 
Q 419 519 350 1059 
z
M 2653 3081 
Q 2653 3566 2395 3850 
Q 2138 4134 1775 4134 
Q 1400 4134 1122 3828 
Q 844 3522 844 3034 
Q 844 2597 1108 2323 
Q 1372 2050 1759 2050 
Q 2150 2050 2401 2323 
Q 2653 2597 2653 3081 
z
" transform="scale(0.015625)"/>
       </defs>
       <use xlink:href="#ArialMT-39"/>
       <use xlink:href="#ArialMT-3a" transform="translate(55.615234 0)"/>
       <use xlink:href="#ArialMT-30" transform="translate(83.398438 0)"/>
       <use xlink:href="#ArialMT-30" transform="translate(139.013672 0)"/>
      </g>
     </g>
    </g>
    <g id="xtick_10">
     <g id="line2d_51">
      <g>
       <use xlink:href="#meda3172dca" x="349.236875" y="262.623371" style="stroke: #000000"/>
      </g>
     </g>
     <g id="text_10">
      <!-- 10:00 -->
      <g transform="translate(352.339063 301.149621) rotate(-90) scale(0.12 -0.12)">
       <use xlink:href="#ArialMT-31"/>
       <use xlink:href="#ArialMT-30" transform="translate(55.615234 0)"/>
       <use xlink:href="#ArialMT-3a" transform="translate(111.230469 0)"/>
       <use xlink:href="#ArialMT-30" transform="translate(139.013672 0)"/>
       <use xlink:href="#ArialMT-30" transform="translate(194.628906 0)"/>
      </g>
     </g>
    </g>
    <g id="xtick_11">
     <g id="line2d_52">
      <g>
       <use xlink:href="#meda3172dca" x="377.136875" y="262.623371" style="stroke: #000000"/>
      </g>
     </g>
     <g id="text_11">
      <!-- 11:00 -->
      <g transform="translate(380.239063 300.264621) rotate(-90) scale(0.12 -0.12)">
       <use xlink:href="#ArialMT-31"/>
       <use xlink:href="#ArialMT-31" transform="translate(48.240234 0)"/>
       <use xlink:href="#ArialMT-3a" transform="translate(103.855469 0)"/>
       <use xlink:href="#ArialMT-30" transform="translate(131.638672 0)"/>
       <use xlink:href="#ArialMT-30" transform="translate(187.253906 0)"/>
      </g>
     </g>
    </g>
    <g id="xtick_12">
     <g id="line2d_53">
      <g>
       <use xlink:href="#meda3172dca" x="405.036875" y="262.623371" style="stroke: #000000"/>
      </g>
     </g>
     <g id="text_12">
      <!-- 12:00 -->
      <g transform="translate(408.139063 301.149621) rotate(-90) scale(0.12 -0.12)">
       <use xlink:href="#ArialMT-31"/>
       <use xlink:href="#ArialMT-32" transform="translate(55.615234 0)"/>
       <use xlink:href="#ArialMT-3a" transform="translate(111.230469 0)"/>
       <use xlink:href="#ArialMT-30" transform="translate(139.013672 0)"/>
       <use xlink:href="#ArialMT-30" transform="translate(194.628906 0)"/>
      </g>
     </g>
    </g>
    <g id="xtick_13">
     <g id="line2d_54">
      <g>
       <use xlink:href="#meda3172dca" x="432.936875" y="262.623371" style="stroke: #000000"/>
      </g>
     </g>
     <g id="text_13">
      <!-- 13:00 -->
      <g transform="translate(436.039062 301.149621) rotate(-90) scale(0.12 -0.12)">
       <use xlink:href="#ArialMT-31"/>
       <use xlink:href="#ArialMT-33" transform="translate(55.615234 0)"/>
       <use xlink:href="#ArialMT-3a" transform="translate(111.230469 0)"/>
       <use xlink:href="#ArialMT-30" transform="translate(139.013672 0)"/>
       <use xlink:href="#ArialMT-30" transform="translate(194.628906 0)"/>
      </g>
     </g>
    </g>
    <g id="xtick_14">
     <g id="line2d_55">
      <g>
       <use xlink:href="#meda3172dca" x="460.836875" y="262.623371" style="stroke: #000000"/>
      </g>
     </g>
     <g id="text_14">
      <!-- 14:00 -->
      <g transform="translate(463.939062 301.149621) rotate(-90) scale(0.12 -0.12)">
       <use xlink:href="#ArialMT-31"/>
       <use xlink:href="#ArialMT-34" transform="translate(55.615234 0)"/>
       <use xlink:href="#ArialMT-3a" transform="translate(111.230469 0)"/>
       <use xlink:href="#ArialMT-30" transform="translate(139.013672 0)"/>
       <use xlink:href="#ArialMT-30" transform="translate(194.628906 0)"/>
      </g>
     </g>
    </g>
    <g id="xtick_15">
     <g id="line2d_56">
      <g>
       <use xlink:href="#meda3172dca" x="488.736875" y="262.623371" style="stroke: #000000"/>
      </g>
     </g>
     <g id="text_15">
      <!-- 15:00 -->
      <g transform="translate(491.839062 301.149621) rotate(-90) scale(0.12 -0.12)">
       <use xlink:href="#ArialMT-31"/>
       <use xlink:href="#ArialMT-35" transform="translate(55.615234 0)"/>
       <use xlink:href="#ArialMT-3a" transform="translate(111.230469 0)"/>
       <use xlink:href="#ArialMT-30" transform="translate(139.013672 0)"/>
       <use xlink:href="#ArialMT-30" transform="translate(194.628906 0)"/>
      </g>
     </g>
    </g>
    <g id="xtick_16">
     <g id="line2d_57">
      <g>
       <use xlink:href="#meda3172dca" x="516.636875" y="262.623371" style="stroke: #000000"/>
      </g>
     </g>
     <g id="text_16">
      <!-- 16:00 -->
      <g transform="translate(519.739063 301.149621) rotate(-90) scale(0.12 -0.12)">
       <use xlink:href="#ArialMT-31"/>
       <use xlink:href="#ArialMT-36" transform="translate(55.615234 0)"/>
       <use xlink:href="#ArialMT-3a" transform="translate(111.230469 0)"/>
       <use xlink:href="#ArialMT-30" transform="translate(139.013672 0)"/>
       <use xlink:href="#ArialMT-30" transform="translate(194.628906 0)"/>
      </g>
     </g>
    </g>
    <g id="xtick_17">
     <g id="line2d_58">
      <g>
       <use xlink:href="#meda3172dca" x="544.536875" y="262.623371" style="stroke: #000000"/>
      </g>
     </g>
     <g id="text_17">
      <!-- 17:00 -->
      <g transform="translate(547.639063 301.149621) rotate(-90) scale(0.12 -0.12)">
       <use xlink:href="#ArialMT-31"/>
       <use xlink:href="#ArialMT-37" transform="translate(55.615234 0)"/>
       <use xlink:href="#ArialMT-3a" transform="translate(111.230469 0)"/>
       <use xlink:href="#ArialMT-30" transform="translate(139.013672 0)"/>
       <use xlink:href="#ArialMT-30" transform="translate(194.628906 0)"/>
      </g>
     </g>
    </g>
    <g id="xtick_18">
     <g id="line2d_59">
      <g>
       <use xlink:href="#meda3172dca" x="572.436875" y="262.623371" style="stroke: #000000"/>
      </g>
     </g>
     <g id="text_18">
      <!-- 18:00 -->
      <g transform="translate(575.539062 301.149621) rotate(-90) scale(0.12 -0.12)">
       <use xlink:href="#ArialMT-31"/>
       <use xlink:href="#ArialMT-38" transform="translate(55.615234 0)"/>
       <use xlink:href="#ArialMT-3a" transform="translate(111.230469 0)"/>
       <use xlink:href="#ArialMT-30" transform="translate(139.013672 0)"/>
       <use xlink:href="#ArialMT-30" transform="translate(194.628906 0)"/>
      </g>
     </g>
    </g>
    <g id="xtick_19">
     <g id="line2d_60">
      <g>
       <use xlink:href="#meda3172dca" x="600.336875" y="262.623371" style="stroke: #000000"/>
      </g>
     </g>
     <g id="text_19">
      <!-- 19:00 -->
      <g transform="translate(603.439062 301.149621) rotate(-90) scale(0.12 -0.12)">
       <use xlink:href="#ArialMT-31"/>
       <use xlink:href="#ArialMT-39" transform="translate(55.615234 0)"/>
       <use xlink:href="#ArialMT-3a" transform="translate(111.230469 0)"/>
       <use xlink:href="#ArialMT-30" transform="translate(139.013672 0)"/>
       <use xlink:href="#ArialMT-30" transform="translate(194.628906 0)"/>
      </g>
     </g>
    </g>
    <g id="xtick_20">
     <g id="line2d_61">
      <g>
       <use xlink:href="#meda3172dca" x="628.236875" y="262.623371" style="stroke: #000000"/>
      </g>
     </g>
     <g id="text_20">
      <!-- 20:00 -->
      <g transform="translate(631.339063 301.149621) rotate(-90) scale(0.12 -0.12)">
       <use xlink:href="#ArialMT-32"/>
       <use xlink:href="#ArialMT-30" transform="translate(55.615234 0)"/>
       <use xlink:href="#ArialMT-3a" transform="translate(111.230469 0)"/>
       <use xlink:href="#ArialMT-30" transform="translate(139.013672 0)"/>
       <use xlink:href="#ArialMT-30" transform="translate(194.628906 0)"/>
      </g>
     </g>
    </g>
    <g id="xtick_21">
     <g id="line2d_62">
      <g>
       <use xlink:href="#meda3172dca" x="656.136875" y="262.623371" style="stroke: #000000"/>
      </g>
     </g>
     <g id="text_21">
      <!-- 21:00 -->
      <g transform="translate(659.239063 301.149621) rotate(-90) scale(0.12 -0.12)">
       <use xlink:href="#ArialMT-32"/>
       <use xlink:href="#ArialMT-31" transform="translate(55.615234 0)"/>
       <use xlink:href="#ArialMT-3a" transform="translate(111.230469 0)"/>
       <use xlink:href="#ArialMT-30" transform="translate(139.013672 0)"/>
       <use xlink:href="#ArialMT-30" transform="translate(194.628906 0)"/>
      </g>
     </g>
    </g>
    <g id="xtick_22">
     <g id="line2d_63">
      <g>
       <use xlink:href="#meda3172dca" x="684.036875" y="262.623371" style="stroke: #000000"/>
      </g>
     </g>
     <g id="text_22">
      <!-- 22:00 -->
      <g transform="translate(687.139063 301.149621) rotate(-90) scale(0.12 -0.12)">
       <use xlink:href="#ArialMT-32"/>
       <use xlink:href="#ArialMT-32" transform="translate(55.615234 0)"/>
       <use xlink:href="#ArialMT-3a" transform="translate(111.230469 0)"/>
       <use xlink:href="#ArialMT-30" transform="translate(139.013672 0)"/>
       <use xlink:href="#ArialMT-30" transform="translate(194.628906 0)"/>
      </g>
     </g>
    </g>
    <g id="xtick_23">
     <g id="line2d_64">
      <g>
       <use xlink:href="#meda3172dca" x="711.936875" y="262.623371" style="stroke: #000000"/>
      </g>
     </g>
     <g id="text_23">
      <!-- 23:00 -->
      <g transform="translate(715.039062 301.149621) rotate(-90) scale(0.12 -0.12)">
       <use xlink:href="#ArialMT-32"/>
       <use xlink:href="#ArialMT-33" transform="translate(55.615234 0)"/>
       <use xlink:href="#ArialMT-3a" transform="translate(111.230469 0)"/>
       <use xlink:href="#ArialMT-30" transform="translate(139.013672 0)"/>
       <use xlink:href="#ArialMT-30" transform="translate(194.628906 0)"/>
      </g>
     </g>
    </g>
    <g id="xtick_24">
     <g id="line2d_65">
      <g>
       <use xlink:href="#meda3172dca" x="739.836875" y="262.623371" style="stroke: #000000"/>
      </g>
     </g>
     <g id="text_24">
      <!-- 24:00 -->
      <g transform="translate(742.939062 301.149621) rotate(-90) scale(0.12 -0.12)">
       <use xlink:href="#ArialMT-32"/>
       <use xlink:href="#ArialMT-34" transform="translate(55.615234 0)"/>
       <use xlink:href="#ArialMT-3a" transform="translate(111.230469 0)"/>
       <use xlink:href="#ArialMT-30" transform="translate(139.013672 0)"/>
       <use xlink:href="#ArialMT-30" transform="translate(194.628906 0)"/>
      </g>
     </g>
    </g>
   </g>
   <g id="matplotlib.axis_2">
    <g id="ytick_1">
     <g id="line2d_66">
      <defs>
       <path id="m88bf3959f5" d="M 0 0 
L -5 0 
" style="stroke: #000000; stroke-opacity: 0; stroke-width: 1.5"/>
      </defs>
      <g>
       <use xlink:href="#m88bf3959f5" x="84.186875" y="257.446094" style="fill-opacity: 0; stroke: #000000; stroke-opacity: 0; stroke-width: 1.5"/>
      </g>
     </g>
     <g id="text_25">
      <!-- 0 -->
      <g transform="translate(66.789375 263.172344) scale(0.16 -0.16)">
       <use xlink:href="#ArialMT-30"/>
      </g>
     </g>
    </g>
    <g id="ytick_2">
     <g id="line2d_67">
      <g>
       <use xlink:href="#m88bf3959f5" x="84.186875" y="214.302125" style="fill-opacity: 0; stroke: #000000; stroke-opacity: 0; stroke-width: 1.5"/>
      </g>
     </g>
     <g id="text_26">
      <!-- 10 -->
      <g transform="translate(57.891875 220.028375) scale(0.16 -0.16)">
       <use xlink:href="#ArialMT-31"/>
       <use xlink:href="#ArialMT-30" transform="translate(55.615234 0)"/>
      </g>
     </g>
    </g>
    <g id="ytick_3">
     <g id="line2d_68">
      <g>
       <use xlink:href="#m88bf3959f5" x="84.186875" y="171.158157" style="fill-opacity: 0; stroke: #000000; stroke-opacity: 0; stroke-width: 1.5"/>
      </g>
     </g>
     <g id="text_27">
      <!-- 20 -->
      <g transform="translate(57.891875 176.884407) scale(0.16 -0.16)">
       <use xlink:href="#ArialMT-32"/>
       <use xlink:href="#ArialMT-30" transform="translate(55.615234 0)"/>
      </g>
     </g>
    </g>
    <g id="ytick_4">
     <g id="line2d_69">
      <g>
       <use xlink:href="#m88bf3959f5" x="84.186875" y="128.014188" style="fill-opacity: 0; stroke: #000000; stroke-opacity: 0; stroke-width: 1.5"/>
      </g>
     </g>
     <g id="text_28">
      <!-- 30 -->
      <g transform="translate(57.891875 133.740438) scale(0.16 -0.16)">
       <use xlink:href="#ArialMT-33"/>
       <use xlink:href="#ArialMT-30" transform="translate(55.615234 0)"/>
      </g>
     </g>
    </g>
    <g id="ytick_5">
     <g id="line2d_70">
      <g>
       <use xlink:href="#m88bf3959f5" x="84.186875" y="84.870219" style="fill-opacity: 0; stroke: #000000; stroke-opacity: 0; stroke-width: 1.5"/>
      </g>
     </g>
     <g id="text_29">
      <!-- 40 -->
      <g transform="translate(57.891875 90.596469) scale(0.16 -0.16)">
       <use xlink:href="#ArialMT-34"/>
       <use xlink:href="#ArialMT-30" transform="translate(55.615234 0)"/>
      </g>
     </g>
    </g>
    <g id="ytick_6">
     <g id="line2d_71">
      <g>
       <use xlink:href="#m88bf3959f5" x="84.186875" y="41.72625" style="fill-opacity: 0; stroke: #000000; stroke-opacity: 0; stroke-width: 1.5"/>
      </g>
     </g>
     <g id="text_30">
      <!-- 50 -->
      <g transform="translate(57.891875 47.4525) scale(0.16 -0.16)">
       <use xlink:href="#ArialMT-35"/>
       <use xlink:href="#ArialMT-30" transform="translate(55.615234 0)"/>
      </g>
     </g>
    </g>
    <g id="text_31">
     <!-- PM2.5_Brakes (gm) -->
     <g transform="translate(49.103437 231.763214) rotate(-90) scale(0.18 -0.18)">
      <defs>
       <path id="ArialMT-50" d="M 494 0 
L 494 4581 
L 2222 4581 
Q 2678 4581 2919 4538 
Q 3256 4481 3484 4323 
Q 3713 4166 3852 3881 
Q 3991 3597 3991 3256 
Q 3991 2672 3619 2267 
Q 3247 1863 2275 1863 
L 1100 1863 
L 1100 0 
L 494 0 
z
M 1100 2403 
L 2284 2403 
Q 2872 2403 3119 2622 
Q 3366 2841 3366 3238 
Q 3366 3525 3220 3729 
Q 3075 3934 2838 4000 
Q 2684 4041 2272 4041 
L 1100 4041 
L 1100 2403 
z
" transform="scale(0.015625)"/>
       <path id="ArialMT-4d" d="M 475 0 
L 475 4581 
L 1388 4581 
L 2472 1338 
Q 2622 884 2691 659 
Q 2769 909 2934 1394 
L 4031 4581 
L 4847 4581 
L 4847 0 
L 4263 0 
L 4263 3834 
L 2931 0 
L 2384 0 
L 1059 3900 
L 1059 0 
L 475 0 
z
" transform="scale(0.015625)"/>
       <path id="ArialMT-2e" d="M 581 0 
L 581 641 
L 1222 641 
L 1222 0 
L 581 0 
z
" transform="scale(0.015625)"/>
       <path id="ArialMT-5f" d="M -97 -1272 
L -97 -866 
L 3631 -866 
L 3631 -1272 
L -97 -1272 
z
" transform="scale(0.015625)"/>
       <path id="ArialMT-42" d="M 469 0 
L 469 4581 
L 2188 4581 
Q 2713 4581 3030 4442 
Q 3347 4303 3526 4014 
Q 3706 3725 3706 3409 
Q 3706 3116 3547 2856 
Q 3388 2597 3066 2438 
Q 3481 2316 3704 2022 
Q 3928 1728 3928 1328 
Q 3928 1006 3792 729 
Q 3656 453 3456 303 
Q 3256 153 2954 76 
Q 2653 0 2216 0 
L 469 0 
z
M 1075 2656 
L 2066 2656 
Q 2469 2656 2644 2709 
Q 2875 2778 2992 2937 
Q 3109 3097 3109 3338 
Q 3109 3566 3000 3739 
Q 2891 3913 2687 3977 
Q 2484 4041 1991 4041 
L 1075 4041 
L 1075 2656 
z
M 1075 541 
L 2216 541 
Q 2509 541 2628 563 
Q 2838 600 2978 687 
Q 3119 775 3209 942 
Q 3300 1109 3300 1328 
Q 3300 1584 3169 1773 
Q 3038 1963 2805 2039 
Q 2572 2116 2134 2116 
L 1075 2116 
L 1075 541 
z
" transform="scale(0.015625)"/>
       <path id="ArialMT-72" d="M 416 0 
L 416 3319 
L 922 3319 
L 922 2816 
Q 1116 3169 1280 3281 
Q 1444 3394 1641 3394 
Q 1925 3394 2219 3213 
L 2025 2691 
Q 1819 2813 1613 2813 
Q 1428 2813 1281 2702 
Q 1134 2591 1072 2394 
Q 978 2094 978 1738 
L 978 0 
L 416 0 
z
" transform="scale(0.015625)"/>
       <path id="ArialMT-61" d="M 2588 409 
Q 2275 144 1986 34 
Q 1697 -75 1366 -75 
Q 819 -75 525 192 
Q 231 459 231 875 
Q 231 1119 342 1320 
Q 453 1522 633 1644 
Q 813 1766 1038 1828 
Q 1203 1872 1538 1913 
Q 2219 1994 2541 2106 
Q 2544 2222 2544 2253 
Q 2544 2597 2384 2738 
Q 2169 2928 1744 2928 
Q 1347 2928 1158 2789 
Q 969 2650 878 2297 
L 328 2372 
Q 403 2725 575 2942 
Q 747 3159 1072 3276 
Q 1397 3394 1825 3394 
Q 2250 3394 2515 3294 
Q 2781 3194 2906 3042 
Q 3031 2891 3081 2659 
Q 3109 2516 3109 2141 
L 3109 1391 
Q 3109 606 3145 398 
Q 3181 191 3288 0 
L 2700 0 
Q 2613 175 2588 409 
z
M 2541 1666 
Q 2234 1541 1622 1453 
Q 1275 1403 1131 1340 
Q 988 1278 909 1158 
Q 831 1038 831 891 
Q 831 666 1001 516 
Q 1172 366 1500 366 
Q 1825 366 2078 508 
Q 2331 650 2450 897 
Q 2541 1088 2541 1459 
L 2541 1666 
z
" transform="scale(0.015625)"/>
       <path id="ArialMT-6b" d="M 425 0 
L 425 4581 
L 988 4581 
L 988 1969 
L 2319 3319 
L 3047 3319 
L 1778 2088 
L 3175 0 
L 2481 0 
L 1384 1697 
L 988 1316 
L 988 0 
L 425 0 
z
" transform="scale(0.015625)"/>
       <path id="ArialMT-65" d="M 2694 1069 
L 3275 997 
Q 3138 488 2766 206 
Q 2394 -75 1816 -75 
Q 1088 -75 661 373 
Q 234 822 234 1631 
Q 234 2469 665 2931 
Q 1097 3394 1784 3394 
Q 2450 3394 2872 2941 
Q 3294 2488 3294 1666 
Q 3294 1616 3291 1516 
L 816 1516 
Q 847 969 1125 678 
Q 1403 388 1819 388 
Q 2128 388 2347 550 
Q 2566 713 2694 1069 
z
M 847 1978 
L 2700 1978 
Q 2663 2397 2488 2606 
Q 2219 2931 1791 2931 
Q 1403 2931 1139 2672 
Q 875 2413 847 1978 
z
" transform="scale(0.015625)"/>
       <path id="ArialMT-73" d="M 197 991 
L 753 1078 
Q 800 744 1014 566 
Q 1228 388 1613 388 
Q 2000 388 2187 545 
Q 2375 703 2375 916 
Q 2375 1106 2209 1216 
Q 2094 1291 1634 1406 
Q 1016 1563 777 1677 
Q 538 1791 414 1992 
Q 291 2194 291 2438 
Q 291 2659 392 2848 
Q 494 3038 669 3163 
Q 800 3259 1026 3326 
Q 1253 3394 1513 3394 
Q 1903 3394 2198 3281 
Q 2494 3169 2634 2976 
Q 2775 2784 2828 2463 
L 2278 2388 
Q 2241 2644 2061 2787 
Q 1881 2931 1553 2931 
Q 1166 2931 1000 2803 
Q 834 2675 834 2503 
Q 834 2394 903 2306 
Q 972 2216 1119 2156 
Q 1203 2125 1616 2013 
Q 2213 1853 2448 1751 
Q 2684 1650 2818 1456 
Q 2953 1263 2953 975 
Q 2953 694 2789 445 
Q 2625 197 2315 61 
Q 2006 -75 1616 -75 
Q 969 -75 630 194 
Q 291 463 197 991 
z
" transform="scale(0.015625)"/>
       <path id="ArialMT-20" transform="scale(0.015625)"/>
       <path id="ArialMT-28" d="M 1497 -1347 
Q 1031 -759 709 28 
Q 388 816 388 1659 
Q 388 2403 628 3084 
Q 909 3875 1497 4659 
L 1900 4659 
Q 1522 4009 1400 3731 
Q 1209 3300 1100 2831 
Q 966 2247 966 1656 
Q 966 153 1900 -1347 
L 1497 -1347 
z
" transform="scale(0.015625)"/>
       <path id="ArialMT-67" d="M 319 -275 
L 866 -356 
Q 900 -609 1056 -725 
Q 1266 -881 1628 -881 
Q 2019 -881 2231 -725 
Q 2444 -569 2519 -288 
Q 2563 -116 2559 434 
Q 2191 0 1641 0 
Q 956 0 581 494 
Q 206 988 206 1678 
Q 206 2153 378 2554 
Q 550 2956 876 3175 
Q 1203 3394 1644 3394 
Q 2231 3394 2613 2919 
L 2613 3319 
L 3131 3319 
L 3131 450 
Q 3131 -325 2973 -648 
Q 2816 -972 2473 -1159 
Q 2131 -1347 1631 -1347 
Q 1038 -1347 672 -1080 
Q 306 -813 319 -275 
z
M 784 1719 
Q 784 1066 1043 766 
Q 1303 466 1694 466 
Q 2081 466 2343 764 
Q 2606 1063 2606 1700 
Q 2606 2309 2336 2618 
Q 2066 2928 1684 2928 
Q 1309 2928 1046 2623 
Q 784 2319 784 1719 
z
" transform="scale(0.015625)"/>
       <path id="ArialMT-6d" d="M 422 0 
L 422 3319 
L 925 3319 
L 925 2853 
Q 1081 3097 1340 3245 
Q 1600 3394 1931 3394 
Q 2300 3394 2536 3241 
Q 2772 3088 2869 2813 
Q 3263 3394 3894 3394 
Q 4388 3394 4653 3120 
Q 4919 2847 4919 2278 
L 4919 0 
L 4359 0 
L 4359 2091 
Q 4359 2428 4304 2576 
Q 4250 2725 4106 2815 
Q 3963 2906 3769 2906 
Q 3419 2906 3187 2673 
Q 2956 2441 2956 1928 
L 2956 0 
L 2394 0 
L 2394 2156 
Q 2394 2531 2256 2718 
Q 2119 2906 1806 2906 
Q 1569 2906 1367 2781 
Q 1166 2656 1075 2415 
Q 984 2175 984 1722 
L 984 0 
L 422 0 
z
" transform="scale(0.015625)"/>
       <path id="ArialMT-29" d="M 791 -1347 
L 388 -1347 
Q 1322 153 1322 1656 
Q 1322 2244 1188 2822 
Q 1081 3291 891 3722 
Q 769 4003 388 4659 
L 791 4659 
Q 1378 3875 1659 3084 
Q 1900 2403 1900 1659 
Q 1900 816 1576 28 
Q 1253 -759 791 -1347 
z
" transform="scale(0.015625)"/>
      </defs>
      <use xlink:href="#ArialMT-50"/>
      <use xlink:href="#ArialMT-4d" transform="translate(66.699219 0)"/>
      <use xlink:href="#ArialMT-32" transform="translate(150 0)"/>
      <use xlink:href="#ArialMT-2e" transform="translate(205.615234 0)"/>
      <use xlink:href="#ArialMT-35" transform="translate(233.398438 0)"/>
      <use xlink:href="#ArialMT-5f" transform="translate(289.013672 0)"/>
      <use xlink:href="#ArialMT-42" transform="translate(344.628906 0)"/>
      <use xlink:href="#ArialMT-72" transform="translate(411.328125 0)"/>
      <use xlink:href="#ArialMT-61" transform="translate(444.628906 0)"/>
      <use xlink:href="#ArialMT-6b" transform="translate(500.244141 0)"/>
      <use xlink:href="#ArialMT-65" transform="translate(550.244141 0)"/>
      <use xlink:href="#ArialMT-73" transform="translate(605.859375 0)"/>
      <use xlink:href="#ArialMT-20" transform="translate(655.859375 0)"/>
      <use xlink:href="#ArialMT-28" transform="translate(683.642578 0)"/>
      <use xlink:href="#ArialMT-67" transform="translate(716.943359 0)"/>
      <use xlink:href="#ArialMT-6d" transform="translate(772.558594 0)"/>
      <use xlink:href="#ArialMT-29" transform="translate(855.859375 0)"/>
     </g>
    </g>
   </g>
   <g id="line2d_72">
    <path d="M 98.136875 220.682078 
L 126.036875 232.94164 
L 153.936875 236.882694 
L 181.836875 233.430485 
L 209.736875 223.122243 
L 237.636875 196.412488 
L 265.536875 153.804576 
L 293.436875 115.272828 
L 321.336875 104.410487 
L 349.236875 101.895397 
L 377.136875 98.31154 
L 405.036875 90.765254 
L 432.936875 90.216586 
L 460.836875 90.826293 
L 488.736875 92.137701 
L 516.636875 96.774161 
L 544.536875 101.958885 
L 572.436875 104.025206 
L 600.336875 97.550365 
L 628.236875 116.92136 
L 656.136875 137.2434 
L 684.036875 158.576628 
L 711.936875 174.056521 
L 739.836875 194.057353 
" clip-path="url(#pa7f71d91d2)" style="fill: none; stroke: #d62728; stroke-opacity: 0.8; stroke-width: 1.5; stroke-linecap: round"/>
   </g>
   <g id="line2d_73">
    <path d="M 98.136875 237.429763 
L 126.036875 245.579846 
L 153.936875 247.517908 
L 181.836875 246.323637 
L 209.736875 240.421564 
L 237.636875 227.520781 
L 265.536875 195.005339 
L 293.436875 166.395419 
L 321.336875 152.203832 
L 349.236875 143.493242 
L 377.136875 135.481541 
L 405.036875 116.087715 
L 432.936875 110.221114 
L 460.836875 110.594081 
L 488.736875 114.035452 
L 516.636875 114.158848 
L 544.536875 109.964831 
L 572.436875 114.653921 
L 600.336875 134.068577 
L 628.236875 155.154538 
L 656.136875 172.778414 
L 684.036875 191.174215 
L 711.936875 202.848591 
L 739.836875 217.249562 
" clip-path="url(#pa7f71d91d2)" style="fill: none; stroke: #9467bd; stroke-opacity: 0.8; stroke-width: 1.5; stroke-linecap: round"/>
   </g>
   <g id="line2d_74">
    <path d="M 98.136875 233.665684 
L 126.036875 243.299127 
L 153.936875 244.897543 
L 181.836875 244.044229 
L 209.736875 239.189014 
L 237.636875 219.006079 
L 265.536875 185.760559 
L 293.436875 148.254884 
L 321.336875 123.376553 
L 349.236875 111.829585 
L 377.136875 100.893132 
L 405.036875 75.340787 
L 432.936875 70.188066 
L 460.836875 61.463112 
L 488.736875 55.178137 
L 516.636875 60.310163 
L 544.536875 63.527513 
L 572.436875 69.385284 
L 600.336875 92.144488 
L 628.236875 121.540894 
L 656.136875 147.229625 
L 684.036875 171.929023 
L 711.936875 192.59459 
L 739.836875 210.093275 
" clip-path="url(#pa7f71d91d2)" style="fill: none; stroke: #9467bd; stroke-opacity: 0.8; stroke-width: 1.5; stroke-linecap: round"/>
   </g>
   <g id="line2d_75">
    <path d="M 98.136875 245.645659 
L 126.036875 249.531197 
L 153.936875 249.789827 
L 181.836875 248.112707 
L 209.736875 242.851659 
L 237.636875 237.066478 
L 265.536875 217.1498 
L 293.436875 198.874371 
L 321.336875 188.840205 
L 349.236875 185.412912 
L 377.136875 181.087827 
L 405.036875 178.306815 
L 432.936875 179.454389 
L 460.836875 183.381519 
L 488.736875 187.0322 
L 516.636875 189.682426 
L 544.536875 192.684332 
L 572.436875 178.621371 
L 600.336875 188.162106 
L 628.236875 198.519605 
L 656.136875 208.528645 
L 684.036875 218.307802 
L 711.936875 229.187633 
L 739.836875 236.903716 
" clip-path="url(#pa7f71d91d2)" style="fill: none; stroke: #c5b0d5; stroke-opacity: 0.8; stroke-width: 1.5; stroke-linecap: round"/>
   </g>
   <g id="line2d_76">
    <path d="M 98.136875 243.80639 
L 126.036875 248.365142 
L 153.936875 248.867117 
L 181.836875 247.66811 
L 209.736875 241.461813 
L 237.636875 233.975812 
L 265.536875 211.95586 
L 293.436875 194.225099 
L 321.336875 181.686001 
L 349.236875 178.668119 
L 377.136875 173.980418 
L 405.036875 169.975575 
L 432.936875 169.866245 
L 460.836875 172.348988 
L 488.736875 174.726182 
L 516.636875 180.040281 
L 544.536875 184.841372 
L 572.436875 176.149537 
L 600.336875 181.314557 
L 628.236875 192.134302 
L 656.136875 203.932776 
L 684.036875 213.806192 
L 711.936875 224.853554 
L 739.836875 233.630777 
" clip-path="url(#pa7f71d91d2)" style="fill: none; stroke: #8c564b; stroke-opacity: 0.8; stroke-width: 1.5; stroke-linecap: round"/>
   </g>
   <g id="line2d_77">
    <path d="M 98.136875 240.781021 
L 126.036875 246.455158 
L 153.936875 247.498704 
L 181.836875 246.719358 
L 209.736875 239.808339 
L 237.636875 227.493667 
L 265.536875 201.943985 
L 293.436875 179.541988 
L 321.336875 165.121627 
L 349.236875 160.821454 
L 377.136875 155.496854 
L 405.036875 150.795565 
L 432.936875 150.863082 
L 460.836875 152.287635 
L 488.736875 156.976334 
L 516.636875 162.913438 
L 544.536875 166.042881 
L 572.436875 155.557254 
L 600.336875 161.341908 
L 628.236875 175.44099 
L 656.136875 189.574922 
L 684.036875 202.948162 
L 711.936875 215.784665 
L 739.836875 227.781338 
" clip-path="url(#pa7f71d91d2)" style="fill: none; stroke: #c49c94; stroke-opacity: 0.8; stroke-width: 1.5; stroke-linecap: round"/>
   </g>
   <g id="line2d_78">
    <path d="M 98.136875 231.865152 
L 126.036875 241.442821 
L 153.936875 243.663998 
L 181.836875 240.927612 
L 209.736875 235.08363 
L 237.636875 213.477703 
L 265.536875 173.042568 
L 293.436875 135.012522 
L 321.336875 114.263263 
L 349.236875 105.245484 
L 377.136875 97.880466 
L 405.036875 82.178369 
L 432.936875 80.321303 
L 460.836875 83.637168 
L 488.736875 91.555675 
L 516.636875 105.607065 
L 544.536875 112.634033 
L 572.436875 108.68485 
L 600.336875 98.954838 
L 628.236875 124.92679 
L 656.136875 147.592892 
L 684.036875 173.392024 
L 711.936875 187.844502 
L 739.836875 206.928566 
" clip-path="url(#pa7f71d91d2)" style="fill: none; stroke: #c49c94; stroke-opacity: 0.8; stroke-width: 1.5; stroke-linecap: round"/>
   </g>
   <g id="line2d_79">
    <path d="M 98.136875 230.647992 
L 126.036875 240.095128 
L 153.936875 240.750807 
L 181.836875 239.062984 
L 209.736875 233.280641 
L 237.636875 214.980358 
L 265.536875 178.361343 
L 293.436875 140.829704 
L 321.336875 112.513937 
L 349.236875 104.796114 
L 377.136875 97.209809 
L 405.036875 86.087788 
L 432.936875 85.517183 
L 460.836875 81.432965 
L 488.736875 81.185099 
L 516.636875 87.459689 
L 544.536875 92.012855 
L 572.436875 90.186716 
L 600.336875 96.189262 
L 628.236875 120.485602 
L 656.136875 144.531776 
L 684.036875 169.436768 
L 711.936875 189.050341 
L 739.836875 206.330868 
" clip-path="url(#pa7f71d91d2)" style="fill: none; stroke: #2ca02c; stroke-opacity: 0.8; stroke-width: 1.5; stroke-linecap: round"/>
   </g>
   <g id="line2d_80">
    <path d="M 98.136875 238.213355 
L 126.036875 243.5275 
L 153.936875 244.389489 
L 181.836875 242.307526 
L 209.736875 237.195496 
L 237.636875 228.568486 
L 265.536875 207.779578 
L 293.436875 181.367832 
L 321.336875 166.566383 
L 349.236875 158.954394 
L 377.136875 151.607064 
L 405.036875 142.127041 
L 432.936875 140.835069 
L 460.836875 139.09635 
L 488.736875 137.313166 
L 516.636875 138.600271 
L 544.536875 139.995102 
L 572.436875 144.802694 
L 600.336875 154.403866 
L 628.236875 169.772966 
L 656.136875 184.188353 
L 684.036875 200.255983 
L 711.936875 214.110815 
L 739.836875 225.980251 
" clip-path="url(#pa7f71d91d2)" style="fill: none; stroke: #ff7f0e; stroke-opacity: 0.8; stroke-width: 1.5; stroke-linecap: round"/>
   </g>
   <g id="line2d_81">
    <path d="M 98.136875 236.227124 
L 126.036875 242.479407 
L 153.936875 243.935736 
L 181.836875 243.047598 
L 209.736875 236.828815 
L 237.636875 223.209853 
L 265.536875 198.515218 
L 293.436875 170.605101 
L 321.336875 153.821942 
L 349.236875 145.925798 
L 377.136875 139.201671 
L 405.036875 128.919206 
L 432.936875 129.379065 
L 460.836875 126.101166 
L 488.736875 125.79438 
L 516.636875 126.568217 
L 544.536875 125.155644 
L 572.436875 129.035006 
L 600.336875 140.442294 
L 628.236875 157.556055 
L 656.136875 174.262595 
L 684.036875 192.118529 
L 711.936875 207.055103 
L 739.836875 221.594187 
" clip-path="url(#pa7f71d91d2)" style="fill: none; stroke: #98df8a; stroke-opacity: 0.8; stroke-width: 1.5; stroke-linecap: round"/>
   </g>
   <g id="line2d_82">
    <path d="M 98.136875 228.864252 
L 126.036875 240.568441 
L 153.936875 242.391904 
L 181.836875 241.290713 
L 209.736875 235.058731 
L 237.636875 211.683189 
L 265.536875 166.662374 
L 293.436875 125.370493 
L 321.336875 113.018901 
L 349.236875 108.162572 
L 377.136875 101.882489 
L 405.036875 94.197352 
L 432.936875 90.706289 
L 460.836875 89.492788 
L 488.736875 86.773186 
L 516.636875 88.703552 
L 544.536875 92.728612 
L 572.436875 97.493677 
L 600.336875 102.172932 
L 628.236875 128.628548 
L 656.136875 149.921451 
L 684.036875 173.047607 
L 711.936875 184.320185 
L 739.836875 203.504892 
" clip-path="url(#pa7f71d91d2)" style="fill: none; stroke: #e377c2; stroke-opacity: 0.8; stroke-width: 1.5; stroke-linecap: round"/>
   </g>
   <g id="line2d_83">
    <path d="M 98.136875 226.20774 
L 126.036875 236.259272 
L 153.936875 238.539399 
L 181.836875 236.706549 
L 209.736875 231.535384 
L 237.636875 207.58094 
L 265.536875 162.821468 
L 293.436875 121.468136 
L 321.336875 104.836209 
L 349.236875 99.732068 
L 377.136875 91.339092 
L 405.036875 75.135044 
L 432.936875 71.717326 
L 460.836875 71.942262 
L 488.736875 71.936211 
L 516.636875 71.885456 
L 544.536875 66.404282 
L 572.436875 73.478645 
L 600.336875 86.551636 
L 628.236875 113.267734 
L 656.136875 137.277753 
L 684.036875 159.95375 
L 711.936875 179.736245 
L 739.836875 200.491265 
" clip-path="url(#pa7f71d91d2)" style="fill: none; stroke: #1f77b4; stroke-opacity: 0.8; stroke-width: 1.5; stroke-linecap: round"/>
   </g>
   <g id="line2d_84">
    <path d="M 98.136875 226.542614 
L 126.036875 236.491645 
L 153.936875 238.749923 
L 181.836875 236.709083 
L 209.736875 231.208979 
L 237.636875 210.738916 
L 265.536875 169.559998 
L 293.436875 130.217038 
L 321.336875 116.392727 
L 349.236875 108.579162 
L 377.136875 97.729254 
L 405.036875 80.650123 
L 432.936875 79.89611 
L 460.836875 80.860757 
L 488.736875 81.140983 
L 516.636875 85.632977 
L 544.536875 89.732861 
L 572.436875 85.325328 
L 600.336875 97.677837 
L 628.236875 120.091501 
L 656.136875 142.018681 
L 684.036875 163.780658 
L 711.936875 183.161925 
L 739.836875 201.754856 
" clip-path="url(#pa7f71d91d2)" style="fill: none; stroke: #f7b6d2; stroke-opacity: 0.8; stroke-width: 1.5; stroke-linecap: round"/>
   </g>
   <g id="line2d_85">
    <path d="M 98.136875 224.361287 
L 126.036875 234.509058 
L 153.936875 237.260874 
L 181.836875 236.047444 
L 209.736875 230.479844 
L 237.636875 209.339422 
L 265.536875 170.628246 
L 293.436875 129.80606 
L 321.336875 113.969923 
L 349.236875 104.963731 
L 377.136875 91.623423 
L 405.036875 69.169733 
L 432.936875 63.274547 
L 460.836875 62.731349 
L 488.736875 62.801043 
L 516.636875 65.81458 
L 544.536875 68.859305 
L 572.436875 70.050607 
L 600.336875 84.525177 
L 628.236875 112.522108 
L 656.136875 135.781648 
L 684.036875 160.186056 
L 711.936875 178.126558 
L 739.836875 198.659008 
" clip-path="url(#pa7f71d91d2)" style="fill: none; stroke: #ff9896; stroke-opacity: 0.8; stroke-width: 1.5; stroke-linecap: round"/>
   </g>
   <g id="line2d_86">
    <path d="M 98.136875 224.03937 
L 126.036875 234.50571 
L 153.936875 239.079274 
L 181.836875 235.515923 
L 209.736875 224.611228 
L 237.636875 192.487342 
L 265.536875 143.660811 
L 293.436875 109.800294 
L 321.336875 110.305915 
L 349.236875 104.842739 
L 377.136875 99.766302 
L 405.036875 102.914675 
L 432.936875 109.306521 
L 460.836875 110.947304 
L 488.736875 112.445603 
L 516.636875 114.690255 
L 544.536875 106.433653 
L 572.436875 107.612346 
L 600.336875 104.522998 
L 628.236875 120.948956 
L 656.136875 140.916745 
L 684.036875 160.211731 
L 711.936875 177.696907 
L 739.836875 196.123597 
" clip-path="url(#pa7f71d91d2)" style="fill: none; stroke: #ff7f0e; stroke-opacity: 0.8; stroke-width: 1.5; stroke-linecap: round"/>
   </g>
   <g id="line2d_87">
    <path d="M 98.136875 225.361381 
L 126.036875 235.384347 
L 153.936875 238.011074 
L 181.836875 237.275408 
L 209.736875 231.769139 
L 237.636875 210.453552 
L 265.536875 175.265575 
L 293.436875 130.358445 
L 321.336875 115.620227 
L 349.236875 106.319829 
L 377.136875 95.1956 
L 405.036875 84.207439 
L 432.936875 81.222836 
L 460.836875 81.221875 
L 488.736875 81.056515 
L 516.636875 81.76817 
L 544.536875 83.87547 
L 572.436875 88.518464 
L 600.336875 92.487628 
L 628.236875 117.675726 
L 656.136875 137.978156 
L 684.036875 161.023068 
L 711.936875 174.10297 
L 739.836875 197.505467 
" clip-path="url(#pa7f71d91d2)" style="fill: none; stroke: #f7b6d2; stroke-opacity: 0.8; stroke-width: 1.5; stroke-linecap: round"/>
   </g>
   <g id="line2d_88">
    <path d="M 98.136875 227.673009 
L 126.036875 236.843735 
L 153.936875 239.571688 
L 181.836875 238.801732 
L 209.736875 232.648298 
L 237.636875 213.383245 
L 265.536875 179.46429 
L 293.436875 146.239127 
L 321.336875 128.687054 
L 349.236875 118.993004 
L 377.136875 114.47387 
L 405.036875 108.361282 
L 432.936875 107.685539 
L 460.836875 109.070042 
L 488.736875 111.590927 
L 516.636875 113.292231 
L 544.536875 106.694598 
L 572.436875 109.943827 
L 600.336875 114.579394 
L 628.236875 133.053448 
L 656.136875 152.349606 
L 684.036875 173.784369 
L 711.936875 189.488465 
L 739.836875 205.728501 
" clip-path="url(#pa7f71d91d2)" style="fill: none; stroke: #7f7f7f; stroke-opacity: 0.8; stroke-width: 1.5; stroke-linecap: round"/>
   </g>
   <g id="line2d_89">
    <path d="M 98.136875 217.956979 
L 126.036875 230.485623 
L 153.936875 233.965988 
L 181.836875 231.320907 
L 209.736875 221.3513 
L 237.636875 188.613304 
L 265.536875 135.506883 
L 293.436875 102.654592 
L 321.336875 100.031298 
L 349.236875 94.04409 
L 377.136875 95.231957 
L 405.036875 95.814185 
L 432.936875 99.450396 
L 460.836875 101.495566 
L 488.736875 98.320502 
L 516.636875 94.675357 
L 544.536875 87.926976 
L 572.436875 90.564243 
L 600.336875 93.04393 
L 628.236875 109.830869 
L 656.136875 131.844596 
L 684.036875 148.510745 
L 711.936875 165.019712 
L 739.836875 187.769908 
" clip-path="url(#pa7f71d91d2)" style="fill: none; stroke: #c7c7c7; stroke-opacity: 0.8; stroke-width: 1.5; stroke-linecap: round"/>
   </g>
   <g id="line2d_90">
    <path d="M 98.136875 230.15409 
L 126.036875 238.151666 
L 153.936875 240.5201 
L 181.836875 239.436751 
L 209.736875 234.762388 
L 237.636875 216.197699 
L 265.536875 187.324535 
L 293.436875 150.408662 
L 321.336875 136.485342 
L 349.236875 125.963378 
L 377.136875 111.395587 
L 405.036875 90.071528 
L 432.936875 82.447607 
L 460.836875 78.600193 
L 488.736875 79.204701 
L 516.636875 81.509856 
L 544.536875 83.480864 
L 572.436875 88.995044 
L 600.336875 98.91587 
L 628.236875 130.967059 
L 656.136875 156.032794 
L 684.036875 176.841308 
L 711.936875 192.546881 
L 739.836875 211.323168 
" clip-path="url(#pa7f71d91d2)" style="fill: none; stroke: #aec7e8; stroke-opacity: 0.8; stroke-width: 1.5; stroke-linecap: round"/>
   </g>
   <g id="line2d_91">
    <path d="M 98.136875 226.239083 
L 126.036875 236.489767 
L 153.936875 239.126698 
L 181.836875 239.030768 
L 209.736875 234.400133 
L 237.636875 214.965183 
L 265.536875 184.155638 
L 293.436875 140.376357 
L 321.336875 124.641887 
L 349.236875 115.002111 
L 377.136875 101.948404 
L 405.036875 88.979402 
L 432.936875 86.21446 
L 460.836875 85.001809 
L 488.736875 85.900584 
L 516.636875 85.477101 
L 544.536875 82.653476 
L 572.436875 87.929888 
L 600.336875 97.883091 
L 628.236875 122.001801 
L 656.136875 144.940822 
L 684.036875 167.913954 
L 711.936875 185.437642 
L 739.836875 204.008167 
" clip-path="url(#pa7f71d91d2)" style="fill: none; stroke: #d62728; stroke-opacity: 0.8; stroke-width: 1.5; stroke-linecap: round"/>
   </g>
   <g id="line2d_92">
    <path d="M 98.136875 228.286829 
L 126.036875 236.46923 
L 153.936875 237.917683 
L 181.836875 239.336034 
L 209.736875 233.160124 
L 237.636875 215.361539 
L 265.536875 184.032245 
L 293.436875 143.886855 
L 321.336875 133.322797 
L 349.236875 128.906337 
L 377.136875 124.959172 
L 405.036875 118.890973 
L 432.936875 118.190696 
L 460.836875 121.16317 
L 488.736875 123.162775 
L 516.636875 120.439233 
L 544.536875 116.191421 
L 572.436875 119.895784 
L 600.336875 125.850585 
L 628.236875 143.124905 
L 656.136875 161.962879 
L 684.036875 180.192018 
L 711.936875 193.531194 
L 739.836875 208.942095 
" clip-path="url(#pa7f71d91d2)" style="fill: none; stroke: #9edae5; stroke-opacity: 0.8; stroke-width: 1.5; stroke-linecap: round"/>
   </g>
   <g id="line2d_93">
    <path d="M 98.136875 228.972601 
L 126.036875 238.743834 
L 153.936875 240.548143 
L 181.836875 240.101197 
L 209.736875 234.318488 
L 237.636875 212.752431 
L 265.536875 167.215621 
L 293.436875 130.619586 
L 321.336875 115.768651 
L 349.236875 109.755967 
L 377.136875 100.506018 
L 405.036875 90.020777 
L 432.936875 92.094054 
L 460.836875 93.115077 
L 488.736875 96.944345 
L 516.636875 100.210343 
L 544.536875 94.158303 
L 572.436875 98.720899 
L 600.336875 105.790077 
L 628.236875 131.417141 
L 656.136875 150.770767 
L 684.036875 168.641888 
L 711.936875 187.582224 
L 739.836875 206.492319 
" clip-path="url(#pa7f71d91d2)" style="fill: none; stroke: #bcbd22; stroke-opacity: 0.8; stroke-width: 1.5; stroke-linecap: round"/>
   </g>
   <g id="line2d_94">
    <path d="M 98.136875 227.716888 
L 126.036875 236.954331 
L 153.936875 239.174963 
L 181.836875 238.185969 
L 209.736875 233.087656 
L 237.636875 208.776144 
L 265.536875 164.773746 
L 293.436875 126.540836 
L 321.336875 110.60441 
L 349.236875 104.917666 
L 377.136875 97.781171 
L 405.036875 87.935116 
L 432.936875 86.033057 
L 460.836875 87.351415 
L 488.736875 90.197126 
L 516.636875 93.443329 
L 544.536875 87.344016 
L 572.436875 91.397112 
L 600.336875 103.088874 
L 628.236875 128.948049 
L 656.136875 149.84436 
L 684.036875 168.457121 
L 711.936875 186.23851 
L 739.836875 205.887302 
" clip-path="url(#pa7f71d91d2)" style="fill: none; stroke: #1f77b4; stroke-opacity: 0.8; stroke-width: 1.5; stroke-linecap: round"/>
   </g>
   <g id="line2d_95">
    <path d="M 98.136875 220.749975 
L 126.036875 232.549382 
L 153.936875 235.892728 
L 181.836875 234.884474 
L 209.736875 229.83886 
L 237.636875 206.544764 
L 265.536875 167.557047 
L 293.436875 123.58301 
L 321.336875 110.028215 
L 349.236875 103.328281 
L 377.136875 92.61965 
L 405.036875 76.181454 
L 432.936875 75.108917 
L 460.836875 74.153046 
L 488.736875 74.308318 
L 516.636875 75.269461 
L 544.536875 77.861013 
L 572.436875 82.683936 
L 600.336875 88.257733 
L 628.236875 117.995108 
L 656.136875 136.995069 
L 684.036875 157.432501 
L 711.936875 175.048138 
L 739.836875 193.914979 
" clip-path="url(#pa7f71d91d2)" style="fill: none; stroke: #dbdb8d; stroke-opacity: 0.8; stroke-width: 1.5; stroke-linecap: round"/>
   </g>
   <g id="line2d_96">
    <path d="M 98.136875 228.859155 
L 126.036875 239.654374 
L 153.936875 242.367922 
L 181.836875 241.353638 
L 209.736875 235.877498 
L 237.636875 221.850376 
L 265.536875 188.778496 
L 293.436875 152.400436 
L 321.336875 139.234118 
L 349.236875 129.792734 
L 377.136875 124.676188 
L 405.036875 121.892536 
L 432.936875 125.791392 
L 460.836875 128.969596 
L 488.736875 130.0336 
L 516.636875 130.41077 
L 544.536875 123.738501 
L 572.436875 125.012025 
L 600.336875 130.364487 
L 628.236875 144.513946 
L 656.136875 159.52431 
L 684.036875 174.40107 
L 711.936875 188.996824 
L 739.836875 205.604036 
" clip-path="url(#pa7f71d91d2)" style="fill: none; stroke: #2ca02c; stroke-opacity: 0.8; stroke-width: 1.5; stroke-linecap: round"/>
   </g>
   <g id="line2d_97">
    <path d="M 98.136875 215.339615 
L 126.036875 228.569303 
L 153.936875 232.48117 
L 181.836875 232.051382 
L 209.736875 224.794675 
L 237.636875 200.988983 
L 265.536875 157.572384 
L 293.436875 110.809767 
L 321.336875 98.773275 
L 349.236875 91.955961 
L 377.136875 82.484166 
L 405.036875 70.912572 
L 432.936875 70.44042 
L 460.836875 72.588462 
L 488.736875 74.210171 
L 516.636875 75.390026 
L 544.536875 78.685011 
L 572.436875 82.921202 
L 600.336875 86.098535 
L 628.236875 108.059815 
L 656.136875 127.028809 
L 684.036875 147.618686 
L 711.936875 162.061997 
L 739.836875 185.441807 
" clip-path="url(#pa7f71d91d2)" style="fill: none; stroke: #c7c7c7; stroke-opacity: 0.8; stroke-width: 1.5; stroke-linecap: round"/>
   </g>
   <g id="line2d_98">
    <path d="M 98.136875 225.783835 
L 126.036875 233.065148 
L 153.936875 234.521555 
L 181.836875 233.050952 
L 209.736875 226.605182 
L 237.636875 210.047525 
L 265.536875 170.922484 
L 293.436875 125.339928 
L 321.336875 113.448783 
L 349.236875 108.934981 
L 377.136875 97.608349 
L 405.036875 85.791874 
L 432.936875 86.210169 
L 460.836875 88.518965 
L 488.736875 90.71199 
L 516.636875 91.828977 
L 544.536875 89.212725 
L 572.436875 94.396042 
L 600.336875 107.231461 
L 628.236875 133.988446 
L 656.136875 153.229871 
L 684.036875 169.912881 
L 711.936875 183.4503 
L 739.836875 204.684285 
" clip-path="url(#pa7f71d91d2)" style="fill: none; stroke: #ffbb78; stroke-opacity: 0.8; stroke-width: 1.5; stroke-linecap: round"/>
   </g>
   <g id="line2d_99">
    <path d="M 98.136875 227.547382 
L 126.036875 236.822346 
L 153.936875 239.430777 
L 181.836875 238.797009 
L 209.736875 234.235629 
L 237.636875 215.390008 
L 265.536875 183.831712 
L 293.436875 146.542998 
L 321.336875 129.627227 
L 349.236875 117.820972 
L 377.136875 102.71438 
L 405.036875 82.080715 
L 432.936875 73.555015 
L 460.836875 71.726545 
L 488.736875 72.360461 
L 516.636875 75.367994 
L 544.536875 76.321907 
L 572.436875 81.104543 
L 600.336875 87.553817 
L 628.236875 117.504742 
L 656.136875 145.043252 
L 684.036875 169.244889 
L 711.936875 185.088535 
L 739.836875 204.038009 
" clip-path="url(#pa7f71d91d2)" style="fill: none; stroke: #dbdb8d; stroke-opacity: 0.8; stroke-width: 1.5; stroke-linecap: round"/>
   </g>
   <g id="line2d_100">
    <path d="M 98.136875 234.429894 
L 126.036875 241.500243 
L 153.936875 242.134256 
L 181.836875 240.518414 
L 209.736875 235.229234 
L 237.636875 219.546107 
L 265.536875 183.37599 
L 293.436875 149.366876 
L 321.336875 136.303504 
L 349.236875 131.256529 
L 377.136875 125.09249 
L 405.036875 120.891531 
L 432.936875 122.603233 
L 460.836875 123.633117 
L 488.736875 127.899839 
L 516.636875 130.187486 
L 544.536875 126.212941 
L 572.436875 124.457482 
L 600.336875 132.339072 
L 628.236875 148.304718 
L 656.136875 166.778355 
L 684.036875 181.772032 
L 711.936875 198.262748 
L 739.836875 215.429384 
" clip-path="url(#pa7f71d91d2)" style="fill: none; stroke: #17becf; stroke-opacity: 0.8; stroke-width: 1.5; stroke-linecap: round"/>
   </g>
   <g id="line2d_101">
    <path d="M 98.136875 231.023831 
L 126.036875 237.23568 
L 153.936875 238.486837 
L 181.836875 236.883371 
L 209.736875 231.792128 
L 237.636875 218.47993 
L 265.536875 185.480657 
L 293.436875 147.283565 
L 321.336875 132.25555 
L 349.236875 128.07343 
L 377.136875 117.284493 
L 405.036875 106.457062 
L 432.936875 108.260718 
L 460.836875 110.109278 
L 488.736875 112.935154 
L 516.636875 114.026501 
L 544.536875 112.975331 
L 572.436875 118.049505 
L 600.336875 128.622875 
L 628.236875 150.167651 
L 656.136875 168.360072 
L 684.036875 184.108439 
L 711.936875 197.849982 
L 739.836875 214.174374 
" clip-path="url(#pa7f71d91d2)" style="fill: none; stroke: #9edae5; stroke-opacity: 0.8; stroke-width: 1.5; stroke-linecap: round"/>
   </g>
   <g id="patch_3">
    <path d="M 84.186875 262.623371 
L 84.186875 40.863371 
" style="fill: none; stroke: #000000; stroke-linejoin: miter; stroke-linecap: square"/>
   </g>
   <g id="patch_4">
    <path d="M 753.786875 262.623371 
L 753.786875 40.863371 
" style="fill: none; stroke: #000000; stroke-linejoin: miter; stroke-linecap: square"/>
   </g>
   <g id="patch_5">
    <path d="M 84.186875 262.623371 
L 753.786875 262.623371 
" style="fill: none; stroke: #000000; stroke-linejoin: miter; stroke-linecap: square"/>
   </g>
   <g id="patch_6">
    <path d="M 84.186875 40.863371 
L 753.786875 40.863371 
" style="fill: none; stroke: #000000; stroke-linejoin: miter; stroke-linecap: square"/>
   </g>
  </g>
 </g>
 <defs>
  <clipPath id="pa7f71d91d2">
   <rect x="84.186875" y="40.863371" width="669.6" height="221.76"/>
  </clipPath>
 </defs>
</svg>
