<?xml version="1.0" encoding="utf-8" standalone="no"?>
<!DOCTYPE svg PUBLIC "-//W3C//DTD SVG 1.1//EN"
  "http://www.w3.org/Graphics/SVG/1.1/DTD/svg11.dtd">
<svg xmlns:xlink="http://www.w3.org/1999/xlink" width="789.786875pt" height="332.28625pt" viewBox="0 0 789.786875 332.28625" xmlns="http://www.w3.org/2000/svg" version="1.1">
 <metadata>
  <rdf:RDF xmlns:dc="http://purl.org/dc/elements/1.1/" xmlns:cc="http://creativecommons.org/ns#" xmlns:rdf="http://www.w3.org/1999/02/22-rdf-syntax-ns#">
   <cc:Work>
    <dc:type rdf:resource="http://purl.org/dc/dcmitype/StillImage"/>
    <dc:date>2025-10-27T21:00:43.694681</dc:date>
    <dc:format>image/svg+xml</dc:format>
    <dc:creator>
     <cc:Agent>
      <dc:title>Matplotlib v3.10.7, https://matplotlib.org/</dc:title>
     </cc:Agent>
    </dc:creator>
   </cc:Work>
  </rdf:RDF>
 </metadata>
 <defs>
  <style type="text/css">*{stroke-linejoin: round; stroke-linecap: butt}</style>
 </defs>
 <g id="figure_1">
  <g id="patch_1">
   <path d="M 0 332.28625 
L 789.786875 332.28625 
L 789.786875 0 
L 0 0 
L 0 332.28625 
z
" style="fill: none"/>
  </g>
  <g id="axes_1">
   <g id="patch_2">
    <path d="M 84.186875 257.76 
L 753.786875 257.76 
L 753.786875 36 
L 84.186875 36 
L 84.186875 257.76 
z
" style="fill: none"/>
   </g>
   <g id="line2d_1">
    <path d="M 104.477784 257.76 
L 104.477784 36 
" clip-path="url(#p050bda7d9a)" style="fill: none; stroke-dasharray: 0.74,0.32; stroke-dashoffset: 0; stroke: #a9a9a9; stroke-opacity: 0.5; stroke-width: 0.2"/>
   </g>
   <g id="line2d_2">
    <path d="M 124.768693 257.76 
L 124.768693 36 
" clip-path="url(#p050bda7d9a)" style="fill: none; stroke-dasharray: 0.74,0.32; stroke-dashoffset: 0; stroke: #a9a9a9; stroke-opacity: 0.5; stroke-width: 0.2"/>
   </g>
   <g id="line2d_3">
    <path d="M 145.059602 257.76 
L 145.059602 36 
" clip-path="url(#p050bda7d9a)" style="fill: none; stroke-dasharray: 0.74,0.32; stroke-dashoffset: 0; stroke: #a9a9a9; stroke-opacity: 0.5; stroke-width: 0.2"/>
   </g>
   <g id="line2d_4">
    <path d="M 165.350511 257.76 
L 165.350511 36 
" clip-path="url(#p050bda7d9a)" style="fill: none; stroke-dasharray: 0.74,0.32; stroke-dashoffset: 0; stroke: #a9a9a9; stroke-opacity: 0.5; stroke-width: 0.2"/>
   </g>
   <g id="line2d_5">
    <path d="M 185.64142 257.76 
L 185.64142 36 
" clip-path="url(#p050bda7d9a)" style="fill: none; stroke-dasharray: 0.74,0.32; stroke-dashoffset: 0; stroke: #a9a9a9; stroke-opacity: 0.5; stroke-width: 0.2"/>
   </g>
   <g id="line2d_6">
    <path d="M 205.93233 257.76 
L 205.93233 36 
" clip-path="url(#p050bda7d9a)" style="fill: none; stroke-dasharray: 0.74,0.32; stroke-dashoffset: 0; stroke: #a9a9a9; stroke-opacity: 0.5; stroke-width: 0.2"/>
   </g>
   <g id="line2d_7">
    <path d="M 226.223239 257.76 
L 226.223239 36 
" clip-path="url(#p050bda7d9a)" style="fill: none; stroke-dasharray: 0.74,0.32; stroke-dashoffset: 0; stroke: #a9a9a9; stroke-opacity: 0.5; stroke-width: 0.2"/>
   </g>
   <g id="line2d_8">
    <path d="M 246.514148 257.76 
L 246.514148 36 
" clip-path="url(#p050bda7d9a)" style="fill: none; stroke-dasharray: 0.74,0.32; stroke-dashoffset: 0; stroke: #a9a9a9; stroke-opacity: 0.5; stroke-width: 0.2"/>
   </g>
   <g id="line2d_9">
    <path d="M 266.805057 257.76 
L 266.805057 36 
" clip-path="url(#p050bda7d9a)" style="fill: none; stroke-dasharray: 0.74,0.32; stroke-dashoffset: 0; stroke: #a9a9a9; stroke-opacity: 0.5; stroke-width: 0.2"/>
   </g>
   <g id="line2d_10">
    <path d="M 287.095966 257.76 
L 287.095966 36 
" clip-path="url(#p050bda7d9a)" style="fill: none; stroke-dasharray: 0.74,0.32; stroke-dashoffset: 0; stroke: #a9a9a9; stroke-opacity: 0.5; stroke-width: 0.2"/>
   </g>
   <g id="line2d_11">
    <path d="M 307.386875 257.76 
L 307.386875 36 
" clip-path="url(#p050bda7d9a)" style="fill: none; stroke-dasharray: 0.74,0.32; stroke-dashoffset: 0; stroke: #a9a9a9; stroke-opacity: 0.5; stroke-width: 0.2"/>
   </g>
   <g id="line2d_12">
    <path d="M 327.677784 257.76 
L 327.677784 36 
" clip-path="url(#p050bda7d9a)" style="fill: none; stroke-dasharray: 0.74,0.32; stroke-dashoffset: 0; stroke: #a9a9a9; stroke-opacity: 0.5; stroke-width: 0.2"/>
   </g>
   <g id="line2d_13">
    <path d="M 347.968693 257.76 
L 347.968693 36 
" clip-path="url(#p050bda7d9a)" style="fill: none; stroke-dasharray: 0.74,0.32; stroke-dashoffset: 0; stroke: #a9a9a9; stroke-opacity: 0.5; stroke-width: 0.2"/>
   </g>
   <g id="line2d_14">
    <path d="M 368.259602 257.76 
L 368.259602 36 
" clip-path="url(#p050bda7d9a)" style="fill: none; stroke-dasharray: 0.74,0.32; stroke-dashoffset: 0; stroke: #a9a9a9; stroke-opacity: 0.5; stroke-width: 0.2"/>
   </g>
   <g id="line2d_15">
    <path d="M 388.550511 257.76 
L 388.550511 36 
" clip-path="url(#p050bda7d9a)" style="fill: none; stroke-dasharray: 0.74,0.32; stroke-dashoffset: 0; stroke: #a9a9a9; stroke-opacity: 0.5; stroke-width: 0.2"/>
   </g>
   <g id="line2d_16">
    <path d="M 408.84142 257.76 
L 408.84142 36 
" clip-path="url(#p050bda7d9a)" style="fill: none; stroke-dasharray: 0.74,0.32; stroke-dashoffset: 0; stroke: #a9a9a9; stroke-opacity: 0.5; stroke-width: 0.2"/>
   </g>
   <g id="line2d_17">
    <path d="M 429.13233 257.76 
L 429.13233 36 
" clip-path="url(#p050bda7d9a)" style="fill: none; stroke-dasharray: 0.74,0.32; stroke-dashoffset: 0; stroke: #a9a9a9; stroke-opacity: 0.5; stroke-width: 0.2"/>
   </g>
   <g id="line2d_18">
    <path d="M 449.423239 257.76 
L 449.423239 36 
" clip-path="url(#p050bda7d9a)" style="fill: none; stroke-dasharray: 0.74,0.32; stroke-dashoffset: 0; stroke: #a9a9a9; stroke-opacity: 0.5; stroke-width: 0.2"/>
   </g>
   <g id="line2d_19">
    <path d="M 469.714148 257.76 
L 469.714148 36 
" clip-path="url(#p050bda7d9a)" style="fill: none; stroke-dasharray: 0.74,0.32; stroke-dashoffset: 0; stroke: #a9a9a9; stroke-opacity: 0.5; stroke-width: 0.2"/>
   </g>
   <g id="line2d_20">
    <path d="M 490.005057 257.76 
L 490.005057 36 
" clip-path="url(#p050bda7d9a)" style="fill: none; stroke-dasharray: 0.74,0.32; stroke-dashoffset: 0; stroke: #a9a9a9; stroke-opacity: 0.5; stroke-width: 0.2"/>
   </g>
   <g id="line2d_21">
    <path d="M 510.295966 257.76 
L 510.295966 36 
" clip-path="url(#p050bda7d9a)" style="fill: none; stroke-dasharray: 0.74,0.32; stroke-dashoffset: 0; stroke: #a9a9a9; stroke-opacity: 0.5; stroke-width: 0.2"/>
   </g>
   <g id="line2d_22">
    <path d="M 530.586875 257.76 
L 530.586875 36 
" clip-path="url(#p050bda7d9a)" style="fill: none; stroke-dasharray: 0.74,0.32; stroke-dashoffset: 0; stroke: #a9a9a9; stroke-opacity: 0.5; stroke-width: 0.2"/>
   </g>
   <g id="line2d_23">
    <path d="M 550.877784 257.76 
L 550.877784 36 
" clip-path="url(#p050bda7d9a)" style="fill: none; stroke-dasharray: 0.74,0.32; stroke-dashoffset: 0; stroke: #a9a9a9; stroke-opacity: 0.5; stroke-width: 0.2"/>
   </g>
   <g id="line2d_24">
    <path d="M 571.168693 257.76 
L 571.168693 36 
" clip-path="url(#p050bda7d9a)" style="fill: none; stroke-dasharray: 0.74,0.32; stroke-dashoffset: 0; stroke: #a9a9a9; stroke-opacity: 0.5; stroke-width: 0.2"/>
   </g>
   <g id="line2d_25">
    <path d="M 591.459602 257.76 
L 591.459602 36 
" clip-path="url(#p050bda7d9a)" style="fill: none; stroke-dasharray: 0.74,0.32; stroke-dashoffset: 0; stroke: #a9a9a9; stroke-opacity: 0.5; stroke-width: 0.2"/>
   </g>
   <g id="line2d_26">
    <path d="M 611.750511 257.76 
L 611.750511 36 
" clip-path="url(#p050bda7d9a)" style="fill: none; stroke-dasharray: 0.74,0.32; stroke-dashoffset: 0; stroke: #a9a9a9; stroke-opacity: 0.5; stroke-width: 0.2"/>
   </g>
   <g id="line2d_27">
    <path d="M 632.04142 257.76 
L 632.04142 36 
" clip-path="url(#p050bda7d9a)" style="fill: none; stroke-dasharray: 0.74,0.32; stroke-dashoffset: 0; stroke: #a9a9a9; stroke-opacity: 0.5; stroke-width: 0.2"/>
   </g>
   <g id="line2d_28">
    <path d="M 652.33233 257.76 
L 652.33233 36 
" clip-path="url(#p050bda7d9a)" style="fill: none; stroke-dasharray: 0.74,0.32; stroke-dashoffset: 0; stroke: #a9a9a9; stroke-opacity: 0.5; stroke-width: 0.2"/>
   </g>
   <g id="line2d_29">
    <path d="M 672.623239 257.76 
L 672.623239 36 
" clip-path="url(#p050bda7d9a)" style="fill: none; stroke-dasharray: 0.74,0.32; stroke-dashoffset: 0; stroke: #a9a9a9; stroke-opacity: 0.5; stroke-width: 0.2"/>
   </g>
   <g id="line2d_30">
    <path d="M 692.914148 257.76 
L 692.914148 36 
" clip-path="url(#p050bda7d9a)" style="fill: none; stroke-dasharray: 0.74,0.32; stroke-dashoffset: 0; stroke: #a9a9a9; stroke-opacity: 0.5; stroke-width: 0.2"/>
   </g>
   <g id="line2d_31">
    <path d="M 713.205057 257.76 
L 713.205057 36 
" clip-path="url(#p050bda7d9a)" style="fill: none; stroke-dasharray: 0.74,0.32; stroke-dashoffset: 0; stroke: #a9a9a9; stroke-opacity: 0.5; stroke-width: 0.2"/>
   </g>
   <g id="line2d_32">
    <path d="M 733.495966 257.76 
L 733.495966 36 
" clip-path="url(#p050bda7d9a)" style="fill: none; stroke-dasharray: 0.74,0.32; stroke-dashoffset: 0; stroke: #a9a9a9; stroke-opacity: 0.5; stroke-width: 0.2"/>
   </g>
   <g id="line2d_33">
    <path d="M 84.186875 235.584 
L 753.786875 235.584 
" clip-path="url(#p050bda7d9a)" style="fill: none; stroke-dasharray: 0.74,0.32; stroke-dashoffset: 0; stroke: #a9a9a9; stroke-opacity: 0.5; stroke-width: 0.2"/>
   </g>
   <g id="line2d_34">
    <path d="M 84.186875 213.408 
L 753.786875 213.408 
" clip-path="url(#p050bda7d9a)" style="fill: none; stroke-dasharray: 0.74,0.32; stroke-dashoffset: 0; stroke: #a9a9a9; stroke-opacity: 0.5; stroke-width: 0.2"/>
   </g>
   <g id="line2d_35">
    <path d="M 84.186875 191.232 
L 753.786875 191.232 
" clip-path="url(#p050bda7d9a)" style="fill: none; stroke-dasharray: 0.74,0.32; stroke-dashoffset: 0; stroke: #a9a9a9; stroke-opacity: 0.5; stroke-width: 0.2"/>
   </g>
   <g id="line2d_36">
    <path d="M 84.186875 169.056 
L 753.786875 169.056 
" clip-path="url(#p050bda7d9a)" style="fill: none; stroke-dasharray: 0.74,0.32; stroke-dashoffset: 0; stroke: #a9a9a9; stroke-opacity: 0.5; stroke-width: 0.2"/>
   </g>
   <g id="line2d_37">
    <path d="M 84.186875 146.88 
L 753.786875 146.88 
" clip-path="url(#p050bda7d9a)" style="fill: none; stroke-dasharray: 0.74,0.32; stroke-dashoffset: 0; stroke: #a9a9a9; stroke-opacity: 0.5; stroke-width: 0.2"/>
   </g>
   <g id="line2d_38">
    <path d="M 84.186875 124.704 
L 753.786875 124.704 
" clip-path="url(#p050bda7d9a)" style="fill: none; stroke-dasharray: 0.74,0.32; stroke-dashoffset: 0; stroke: #a9a9a9; stroke-opacity: 0.5; stroke-width: 0.2"/>
   </g>
   <g id="line2d_39">
    <path d="M 84.186875 102.528 
L 753.786875 102.528 
" clip-path="url(#p050bda7d9a)" style="fill: none; stroke-dasharray: 0.74,0.32; stroke-dashoffset: 0; stroke: #a9a9a9; stroke-opacity: 0.5; stroke-width: 0.2"/>
   </g>
   <g id="line2d_40">
    <path d="M 84.186875 80.352 
L 753.786875 80.352 
" clip-path="url(#p050bda7d9a)" style="fill: none; stroke-dasharray: 0.74,0.32; stroke-dashoffset: 0; stroke: #a9a9a9; stroke-opacity: 0.5; stroke-width: 0.2"/>
   </g>
   <g id="line2d_41">
    <path d="M 84.186875 58.176 
L 753.786875 58.176 
" clip-path="url(#p050bda7d9a)" style="fill: none; stroke-dasharray: 0.74,0.32; stroke-dashoffset: 0; stroke: #a9a9a9; stroke-opacity: 0.5; stroke-width: 0.2"/>
   </g>
   <g id="matplotlib.axis_1">
    <g id="xtick_1">
     <g id="line2d_42">
      <defs>
       <path id="m32a83eabad" d="M 0 0 
L 0 5 
" style="stroke: #000000"/>
      </defs>
      <g>
       <use xlink:href="#m32a83eabad" x="98.136875" y="257.76" style="stroke: #000000"/>
      </g>
     </g>
     <g id="text_1">
      <!-- 1:00 -->
      <g transform="translate(101.239063 289.613125) rotate(-90) scale(0.12 -0.12)">
       <defs>
        <path id="ArialMT-31" d="M 2384 0 
L 1822 0 
L 1822 3584 
Q 1619 3391 1289 3197 
Q 959 3003 697 2906 
L 697 3450 
Q 1169 3672 1522 3987 
Q 1875 4303 2022 4600 
L 2384 4600 
L 2384 0 
z
" transform="scale(0.015625)"/>
        <path id="ArialMT-3a" d="M 578 2678 
L 578 3319 
L 1219 3319 
L 1219 2678 
L 578 2678 
z
M 578 0 
L 578 641 
L 1219 641 
L 1219 0 
L 578 0 
z
" transform="scale(0.015625)"/>
        <path id="ArialMT-30" d="M 266 2259 
Q 266 3072 433 3567 
Q 600 4063 929 4331 
Q 1259 4600 1759 4600 
Q 2128 4600 2406 4451 
Q 2684 4303 2865 4023 
Q 3047 3744 3150 3342 
Q 3253 2941 3253 2259 
Q 3253 1453 3087 958 
Q 2922 463 2592 192 
Q 2263 -78 1759 -78 
Q 1097 -78 719 397 
Q 266 969 266 2259 
z
M 844 2259 
Q 844 1131 1108 757 
Q 1372 384 1759 384 
Q 2147 384 2411 759 
Q 2675 1134 2675 2259 
Q 2675 3391 2411 3762 
Q 2147 4134 1753 4134 
Q 1366 4134 1134 3806 
Q 844 3388 844 2259 
z
" transform="scale(0.015625)"/>
       </defs>
       <use xlink:href="#ArialMT-31"/>
       <use xlink:href="#ArialMT-3a" transform="translate(55.615234 0)"/>
       <use xlink:href="#ArialMT-30" transform="translate(83.398438 0)"/>
       <use xlink:href="#ArialMT-30" transform="translate(139.013672 0)"/>
      </g>
     </g>
    </g>
    <g id="xtick_2">
     <g id="line2d_43">
      <g>
       <use xlink:href="#m32a83eabad" x="126.036875" y="257.76" style="stroke: #000000"/>
      </g>
     </g>
     <g id="text_2">
      <!-- 2:00 -->
      <g transform="translate(129.139063 289.613125) rotate(-90) scale(0.12 -0.12)">
       <defs>
        <path id="ArialMT-32" d="M 3222 541 
L 3222 0 
L 194 0 
Q 188 203 259 391 
Q 375 700 629 1000 
Q 884 1300 1366 1694 
Q 2113 2306 2375 2664 
Q 2638 3022 2638 3341 
Q 2638 3675 2398 3904 
Q 2159 4134 1775 4134 
Q 1369 4134 1125 3890 
Q 881 3647 878 3216 
L 300 3275 
Q 359 3922 746 4261 
Q 1134 4600 1788 4600 
Q 2447 4600 2831 4234 
Q 3216 3869 3216 3328 
Q 3216 3053 3103 2787 
Q 2991 2522 2730 2228 
Q 2469 1934 1863 1422 
Q 1356 997 1212 845 
Q 1069 694 975 541 
L 3222 541 
z
" transform="scale(0.015625)"/>
       </defs>
       <use xlink:href="#ArialMT-32"/>
       <use xlink:href="#ArialMT-3a" transform="translate(55.615234 0)"/>
       <use xlink:href="#ArialMT-30" transform="translate(83.398438 0)"/>
       <use xlink:href="#ArialMT-30" transform="translate(139.013672 0)"/>
      </g>
     </g>
    </g>
    <g id="xtick_3">
     <g id="line2d_44">
      <g>
       <use xlink:href="#m32a83eabad" x="153.936875" y="257.76" style="stroke: #000000"/>
      </g>
     </g>
     <g id="text_3">
      <!-- 3:00 -->
      <g transform="translate(157.039062 289.613125) rotate(-90) scale(0.12 -0.12)">
       <defs>
        <path id="ArialMT-33" d="M 269 1209 
L 831 1284 
Q 928 806 1161 595 
Q 1394 384 1728 384 
Q 2125 384 2398 659 
Q 2672 934 2672 1341 
Q 2672 1728 2419 1979 
Q 2166 2231 1775 2231 
Q 1616 2231 1378 2169 
L 1441 2663 
Q 1497 2656 1531 2656 
Q 1891 2656 2178 2843 
Q 2466 3031 2466 3422 
Q 2466 3731 2256 3934 
Q 2047 4138 1716 4138 
Q 1388 4138 1169 3931 
Q 950 3725 888 3313 
L 325 3413 
Q 428 3978 793 4289 
Q 1159 4600 1703 4600 
Q 2078 4600 2393 4439 
Q 2709 4278 2876 4000 
Q 3044 3722 3044 3409 
Q 3044 3113 2884 2869 
Q 2725 2625 2413 2481 
Q 2819 2388 3044 2092 
Q 3269 1797 3269 1353 
Q 3269 753 2831 336 
Q 2394 -81 1725 -81 
Q 1122 -81 723 278 
Q 325 638 269 1209 
z
" transform="scale(0.015625)"/>
       </defs>
       <use xlink:href="#ArialMT-33"/>
       <use xlink:href="#ArialMT-3a" transform="translate(55.615234 0)"/>
       <use xlink:href="#ArialMT-30" transform="translate(83.398438 0)"/>
       <use xlink:href="#ArialMT-30" transform="translate(139.013672 0)"/>
      </g>
     </g>
    </g>
    <g id="xtick_4">
     <g id="line2d_45">
      <g>
       <use xlink:href="#m32a83eabad" x="181.836875" y="257.76" style="stroke: #000000"/>
      </g>
     </g>
     <g id="text_4">
      <!-- 4:00 -->
      <g transform="translate(184.939062 289.613125) rotate(-90) scale(0.12 -0.12)">
       <defs>
        <path id="ArialMT-34" d="M 2069 0 
L 2069 1097 
L 81 1097 
L 81 1613 
L 2172 4581 
L 2631 4581 
L 2631 1613 
L 3250 1613 
L 3250 1097 
L 2631 1097 
L 2631 0 
L 2069 0 
z
M 2069 1613 
L 2069 3678 
L 634 1613 
L 2069 1613 
z
" transform="scale(0.015625)"/>
       </defs>
       <use xlink:href="#ArialMT-34"/>
       <use xlink:href="#ArialMT-3a" transform="translate(55.615234 0)"/>
       <use xlink:href="#ArialMT-30" transform="translate(83.398438 0)"/>
       <use xlink:href="#ArialMT-30" transform="translate(139.013672 0)"/>
      </g>
     </g>
    </g>
    <g id="xtick_5">
     <g id="line2d_46">
      <g>
       <use xlink:href="#m32a83eabad" x="209.736875" y="257.76" style="stroke: #000000"/>
      </g>
     </g>
     <g id="text_5">
      <!-- 5:00 -->
      <g transform="translate(212.839063 289.613125) rotate(-90) scale(0.12 -0.12)">
       <defs>
        <path id="ArialMT-35" d="M 266 1200 
L 856 1250 
Q 922 819 1161 601 
Q 1400 384 1738 384 
Q 2144 384 2425 690 
Q 2706 997 2706 1503 
Q 2706 1984 2436 2262 
Q 2166 2541 1728 2541 
Q 1456 2541 1237 2417 
Q 1019 2294 894 2097 
L 366 2166 
L 809 4519 
L 3088 4519 
L 3088 3981 
L 1259 3981 
L 1013 2750 
Q 1425 3038 1878 3038 
Q 2478 3038 2890 2622 
Q 3303 2206 3303 1553 
Q 3303 931 2941 478 
Q 2500 -78 1738 -78 
Q 1113 -78 717 272 
Q 322 622 266 1200 
z
" transform="scale(0.015625)"/>
       </defs>
       <use xlink:href="#ArialMT-35"/>
       <use xlink:href="#ArialMT-3a" transform="translate(55.615234 0)"/>
       <use xlink:href="#ArialMT-30" transform="translate(83.398438 0)"/>
       <use xlink:href="#ArialMT-30" transform="translate(139.013672 0)"/>
      </g>
     </g>
    </g>
    <g id="xtick_6">
     <g id="line2d_47">
      <g>
       <use xlink:href="#m32a83eabad" x="237.636875" y="257.76" style="stroke: #000000"/>
      </g>
     </g>
     <g id="text_6">
      <!-- 6:00 -->
      <g transform="translate(240.739062 289.613125) rotate(-90) scale(0.12 -0.12)">
       <defs>
        <path id="ArialMT-36" d="M 3184 3459 
L 2625 3416 
Q 2550 3747 2413 3897 
Q 2184 4138 1850 4138 
Q 1581 4138 1378 3988 
Q 1113 3794 959 3422 
Q 806 3050 800 2363 
Q 1003 2672 1297 2822 
Q 1591 2972 1913 2972 
Q 2475 2972 2870 2558 
Q 3266 2144 3266 1488 
Q 3266 1056 3080 686 
Q 2894 316 2569 119 
Q 2244 -78 1831 -78 
Q 1128 -78 684 439 
Q 241 956 241 2144 
Q 241 3472 731 4075 
Q 1159 4600 1884 4600 
Q 2425 4600 2770 4297 
Q 3116 3994 3184 3459 
z
M 888 1484 
Q 888 1194 1011 928 
Q 1134 663 1356 523 
Q 1578 384 1822 384 
Q 2178 384 2434 671 
Q 2691 959 2691 1453 
Q 2691 1928 2437 2201 
Q 2184 2475 1800 2475 
Q 1419 2475 1153 2201 
Q 888 1928 888 1484 
z
" transform="scale(0.015625)"/>
       </defs>
       <use xlink:href="#ArialMT-36"/>
       <use xlink:href="#ArialMT-3a" transform="translate(55.615234 0)"/>
       <use xlink:href="#ArialMT-30" transform="translate(83.398438 0)"/>
       <use xlink:href="#ArialMT-30" transform="translate(139.013672 0)"/>
      </g>
     </g>
    </g>
    <g id="xtick_7">
     <g id="line2d_48">
      <g>
       <use xlink:href="#m32a83eabad" x="265.536875" y="257.76" style="stroke: #000000"/>
      </g>
     </g>
     <g id="text_7">
      <!-- 7:00 -->
      <g transform="translate(268.639063 289.613125) rotate(-90) scale(0.12 -0.12)">
       <defs>
        <path id="ArialMT-37" d="M 303 3981 
L 303 4522 
L 3269 4522 
L 3269 4084 
Q 2831 3619 2401 2847 
Q 1972 2075 1738 1259 
Q 1569 684 1522 0 
L 944 0 
Q 953 541 1156 1306 
Q 1359 2072 1739 2783 
Q 2119 3494 2547 3981 
L 303 3981 
z
" transform="scale(0.015625)"/>
       </defs>
       <use xlink:href="#ArialMT-37"/>
       <use xlink:href="#ArialMT-3a" transform="translate(55.615234 0)"/>
       <use xlink:href="#ArialMT-30" transform="translate(83.398438 0)"/>
       <use xlink:href="#ArialMT-30" transform="translate(139.013672 0)"/>
      </g>
     </g>
    </g>
    <g id="xtick_8">
     <g id="line2d_49">
      <g>
       <use xlink:href="#m32a83eabad" x="293.436875" y="257.76" style="stroke: #000000"/>
      </g>
     </g>
     <g id="text_8">
      <!-- 8:00 -->
      <g transform="translate(296.539062 289.613125) rotate(-90) scale(0.12 -0.12)">
       <defs>
        <path id="ArialMT-38" d="M 1131 2484 
Q 781 2613 612 2850 
Q 444 3088 444 3419 
Q 444 3919 803 4259 
Q 1163 4600 1759 4600 
Q 2359 4600 2725 4251 
Q 3091 3903 3091 3403 
Q 3091 3084 2923 2848 
Q 2756 2613 2416 2484 
Q 2838 2347 3058 2040 
Q 3278 1734 3278 1309 
Q 3278 722 2862 322 
Q 2447 -78 1769 -78 
Q 1091 -78 675 323 
Q 259 725 259 1325 
Q 259 1772 486 2073 
Q 713 2375 1131 2484 
z
M 1019 3438 
Q 1019 3113 1228 2906 
Q 1438 2700 1772 2700 
Q 2097 2700 2305 2904 
Q 2513 3109 2513 3406 
Q 2513 3716 2298 3927 
Q 2084 4138 1766 4138 
Q 1444 4138 1231 3931 
Q 1019 3725 1019 3438 
z
M 838 1322 
Q 838 1081 952 856 
Q 1066 631 1291 507 
Q 1516 384 1775 384 
Q 2178 384 2440 643 
Q 2703 903 2703 1303 
Q 2703 1709 2433 1975 
Q 2163 2241 1756 2241 
Q 1359 2241 1098 1978 
Q 838 1716 838 1322 
z
" transform="scale(0.015625)"/>
       </defs>
       <use xlink:href="#ArialMT-38"/>
       <use xlink:href="#ArialMT-3a" transform="translate(55.615234 0)"/>
       <use xlink:href="#ArialMT-30" transform="translate(83.398438 0)"/>
       <use xlink:href="#ArialMT-30" transform="translate(139.013672 0)"/>
      </g>
     </g>
    </g>
    <g id="xtick_9">
     <g id="line2d_50">
      <g>
       <use xlink:href="#m32a83eabad" x="321.336875" y="257.76" style="stroke: #000000"/>
      </g>
     </g>
     <g id="text_9">
      <!-- 9:00 -->
      <g transform="translate(324.439062 289.613125) rotate(-90) scale(0.12 -0.12)">
       <defs>
        <path id="ArialMT-39" d="M 350 1059 
L 891 1109 
Q 959 728 1153 556 
Q 1347 384 1650 384 
Q 1909 384 2104 503 
Q 2300 622 2425 820 
Q 2550 1019 2634 1356 
Q 2719 1694 2719 2044 
Q 2719 2081 2716 2156 
Q 2547 1888 2255 1720 
Q 1963 1553 1622 1553 
Q 1053 1553 659 1965 
Q 266 2378 266 3053 
Q 266 3750 677 4175 
Q 1088 4600 1706 4600 
Q 2153 4600 2523 4359 
Q 2894 4119 3086 3673 
Q 3278 3228 3278 2384 
Q 3278 1506 3087 986 
Q 2897 466 2520 194 
Q 2144 -78 1638 -78 
Q 1100 -78 759 220 
Q 419 519 350 1059 
z
M 2653 3081 
Q 2653 3566 2395 3850 
Q 2138 4134 1775 4134 
Q 1400 4134 1122 3828 
Q 844 3522 844 3034 
Q 844 2597 1108 2323 
Q 1372 2050 1759 2050 
Q 2150 2050 2401 2323 
Q 2653 2597 2653 3081 
z
" transform="scale(0.015625)"/>
       </defs>
       <use xlink:href="#ArialMT-39"/>
       <use xlink:href="#ArialMT-3a" transform="translate(55.615234 0)"/>
       <use xlink:href="#ArialMT-30" transform="translate(83.398438 0)"/>
       <use xlink:href="#ArialMT-30" transform="translate(139.013672 0)"/>
      </g>
     </g>
    </g>
    <g id="xtick_10">
     <g id="line2d_51">
      <g>
       <use xlink:href="#m32a83eabad" x="349.236875" y="257.76" style="stroke: #000000"/>
      </g>
     </g>
     <g id="text_10">
      <!-- 10:00 -->
      <g transform="translate(352.339063 296.28625) rotate(-90) scale(0.12 -0.12)">
       <use xlink:href="#ArialMT-31"/>
       <use xlink:href="#ArialMT-30" transform="translate(55.615234 0)"/>
       <use xlink:href="#ArialMT-3a" transform="translate(111.230469 0)"/>
       <use xlink:href="#ArialMT-30" transform="translate(139.013672 0)"/>
       <use xlink:href="#ArialMT-30" transform="translate(194.628906 0)"/>
      </g>
     </g>
    </g>
    <g id="xtick_11">
     <g id="line2d_52">
      <g>
       <use xlink:href="#m32a83eabad" x="377.136875" y="257.76" style="stroke: #000000"/>
      </g>
     </g>
     <g id="text_11">
      <!-- 11:00 -->
      <g transform="translate(380.239063 295.40125) rotate(-90) scale(0.12 -0.12)">
       <use xlink:href="#ArialMT-31"/>
       <use xlink:href="#ArialMT-31" transform="translate(48.240234 0)"/>
       <use xlink:href="#ArialMT-3a" transform="translate(103.855469 0)"/>
       <use xlink:href="#ArialMT-30" transform="translate(131.638672 0)"/>
       <use xlink:href="#ArialMT-30" transform="translate(187.253906 0)"/>
      </g>
     </g>
    </g>
    <g id="xtick_12">
     <g id="line2d_53">
      <g>
       <use xlink:href="#m32a83eabad" x="405.036875" y="257.76" style="stroke: #000000"/>
      </g>
     </g>
     <g id="text_12">
      <!-- 12:00 -->
      <g transform="translate(408.139063 296.28625) rotate(-90) scale(0.12 -0.12)">
       <use xlink:href="#ArialMT-31"/>
       <use xlink:href="#ArialMT-32" transform="translate(55.615234 0)"/>
       <use xlink:href="#ArialMT-3a" transform="translate(111.230469 0)"/>
       <use xlink:href="#ArialMT-30" transform="translate(139.013672 0)"/>
       <use xlink:href="#ArialMT-30" transform="translate(194.628906 0)"/>
      </g>
     </g>
    </g>
    <g id="xtick_13">
     <g id="line2d_54">
      <g>
       <use xlink:href="#m32a83eabad" x="432.936875" y="257.76" style="stroke: #000000"/>
      </g>
     </g>
     <g id="text_13">
      <!-- 13:00 -->
      <g transform="translate(436.039062 296.28625) rotate(-90) scale(0.12 -0.12)">
       <use xlink:href="#ArialMT-31"/>
       <use xlink:href="#ArialMT-33" transform="translate(55.615234 0)"/>
       <use xlink:href="#ArialMT-3a" transform="translate(111.230469 0)"/>
       <use xlink:href="#ArialMT-30" transform="translate(139.013672 0)"/>
       <use xlink:href="#ArialMT-30" transform="translate(194.628906 0)"/>
      </g>
     </g>
    </g>
    <g id="xtick_14">
     <g id="line2d_55">
      <g>
       <use xlink:href="#m32a83eabad" x="460.836875" y="257.76" style="stroke: #000000"/>
      </g>
     </g>
     <g id="text_14">
      <!-- 14:00 -->
      <g transform="translate(463.939062 296.28625) rotate(-90) scale(0.12 -0.12)">
       <use xlink:href="#ArialMT-31"/>
       <use xlink:href="#ArialMT-34" transform="translate(55.615234 0)"/>
       <use xlink:href="#ArialMT-3a" transform="translate(111.230469 0)"/>
       <use xlink:href="#ArialMT-30" transform="translate(139.013672 0)"/>
       <use xlink:href="#ArialMT-30" transform="translate(194.628906 0)"/>
      </g>
     </g>
    </g>
    <g id="xtick_15">
     <g id="line2d_56">
      <g>
       <use xlink:href="#m32a83eabad" x="488.736875" y="257.76" style="stroke: #000000"/>
      </g>
     </g>
     <g id="text_15">
      <!-- 15:00 -->
      <g transform="translate(491.839062 296.28625) rotate(-90) scale(0.12 -0.12)">
       <use xlink:href="#ArialMT-31"/>
       <use xlink:href="#ArialMT-35" transform="translate(55.615234 0)"/>
       <use xlink:href="#ArialMT-3a" transform="translate(111.230469 0)"/>
       <use xlink:href="#ArialMT-30" transform="translate(139.013672 0)"/>
       <use xlink:href="#ArialMT-30" transform="translate(194.628906 0)"/>
      </g>
     </g>
    </g>
    <g id="xtick_16">
     <g id="line2d_57">
      <g>
       <use xlink:href="#m32a83eabad" x="516.636875" y="257.76" style="stroke: #000000"/>
      </g>
     </g>
     <g id="text_16">
      <!-- 16:00 -->
      <g transform="translate(519.739063 296.28625) rotate(-90) scale(0.12 -0.12)">
       <use xlink:href="#ArialMT-31"/>
       <use xlink:href="#ArialMT-36" transform="translate(55.615234 0)"/>
       <use xlink:href="#ArialMT-3a" transform="translate(111.230469 0)"/>
       <use xlink:href="#ArialMT-30" transform="translate(139.013672 0)"/>
       <use xlink:href="#ArialMT-30" transform="translate(194.628906 0)"/>
      </g>
     </g>
    </g>
    <g id="xtick_17">
     <g id="line2d_58">
      <g>
       <use xlink:href="#m32a83eabad" x="544.536875" y="257.76" style="stroke: #000000"/>
      </g>
     </g>
     <g id="text_17">
      <!-- 17:00 -->
      <g transform="translate(547.639063 296.28625) rotate(-90) scale(0.12 -0.12)">
       <use xlink:href="#ArialMT-31"/>
       <use xlink:href="#ArialMT-37" transform="translate(55.615234 0)"/>
       <use xlink:href="#ArialMT-3a" transform="translate(111.230469 0)"/>
       <use xlink:href="#ArialMT-30" transform="translate(139.013672 0)"/>
       <use xlink:href="#ArialMT-30" transform="translate(194.628906 0)"/>
      </g>
     </g>
    </g>
    <g id="xtick_18">
     <g id="line2d_59">
      <g>
       <use xlink:href="#m32a83eabad" x="572.436875" y="257.76" style="stroke: #000000"/>
      </g>
     </g>
     <g id="text_18">
      <!-- 18:00 -->
      <g transform="translate(575.539062 296.28625) rotate(-90) scale(0.12 -0.12)">
       <use xlink:href="#ArialMT-31"/>
       <use xlink:href="#ArialMT-38" transform="translate(55.615234 0)"/>
       <use xlink:href="#ArialMT-3a" transform="translate(111.230469 0)"/>
       <use xlink:href="#ArialMT-30" transform="translate(139.013672 0)"/>
       <use xlink:href="#ArialMT-30" transform="translate(194.628906 0)"/>
      </g>
     </g>
    </g>
    <g id="xtick_19">
     <g id="line2d_60">
      <g>
       <use xlink:href="#m32a83eabad" x="600.336875" y="257.76" style="stroke: #000000"/>
      </g>
     </g>
     <g id="text_19">
      <!-- 19:00 -->
      <g transform="translate(603.439062 296.28625) rotate(-90) scale(0.12 -0.12)">
       <use xlink:href="#ArialMT-31"/>
       <use xlink:href="#ArialMT-39" transform="translate(55.615234 0)"/>
       <use xlink:href="#ArialMT-3a" transform="translate(111.230469 0)"/>
       <use xlink:href="#ArialMT-30" transform="translate(139.013672 0)"/>
       <use xlink:href="#ArialMT-30" transform="translate(194.628906 0)"/>
      </g>
     </g>
    </g>
    <g id="xtick_20">
     <g id="line2d_61">
      <g>
       <use xlink:href="#m32a83eabad" x="628.236875" y="257.76" style="stroke: #000000"/>
      </g>
     </g>
     <g id="text_20">
      <!-- 20:00 -->
      <g transform="translate(631.339063 296.28625) rotate(-90) scale(0.12 -0.12)">
       <use xlink:href="#ArialMT-32"/>
       <use xlink:href="#ArialMT-30" transform="translate(55.615234 0)"/>
       <use xlink:href="#ArialMT-3a" transform="translate(111.230469 0)"/>
       <use xlink:href="#ArialMT-30" transform="translate(139.013672 0)"/>
       <use xlink:href="#ArialMT-30" transform="translate(194.628906 0)"/>
      </g>
     </g>
    </g>
    <g id="xtick_21">
     <g id="line2d_62">
      <g>
       <use xlink:href="#m32a83eabad" x="656.136875" y="257.76" style="stroke: #000000"/>
      </g>
     </g>
     <g id="text_21">
      <!-- 21:00 -->
      <g transform="translate(659.239063 296.28625) rotate(-90) scale(0.12 -0.12)">
       <use xlink:href="#ArialMT-32"/>
       <use xlink:href="#ArialMT-31" transform="translate(55.615234 0)"/>
       <use xlink:href="#ArialMT-3a" transform="translate(111.230469 0)"/>
       <use xlink:href="#ArialMT-30" transform="translate(139.013672 0)"/>
       <use xlink:href="#ArialMT-30" transform="translate(194.628906 0)"/>
      </g>
     </g>
    </g>
    <g id="xtick_22">
     <g id="line2d_63">
      <g>
       <use xlink:href="#m32a83eabad" x="684.036875" y="257.76" style="stroke: #000000"/>
      </g>
     </g>
     <g id="text_22">
      <!-- 22:00 -->
      <g transform="translate(687.139063 296.28625) rotate(-90) scale(0.12 -0.12)">
       <use xlink:href="#ArialMT-32"/>
       <use xlink:href="#ArialMT-32" transform="translate(55.615234 0)"/>
       <use xlink:href="#ArialMT-3a" transform="translate(111.230469 0)"/>
       <use xlink:href="#ArialMT-30" transform="translate(139.013672 0)"/>
       <use xlink:href="#ArialMT-30" transform="translate(194.628906 0)"/>
      </g>
     </g>
    </g>
    <g id="xtick_23">
     <g id="line2d_64">
      <g>
       <use xlink:href="#m32a83eabad" x="711.936875" y="257.76" style="stroke: #000000"/>
      </g>
     </g>
     <g id="text_23">
      <!-- 23:00 -->
      <g transform="translate(715.039062 296.28625) rotate(-90) scale(0.12 -0.12)">
       <use xlink:href="#ArialMT-32"/>
       <use xlink:href="#ArialMT-33" transform="translate(55.615234 0)"/>
       <use xlink:href="#ArialMT-3a" transform="translate(111.230469 0)"/>
       <use xlink:href="#ArialMT-30" transform="translate(139.013672 0)"/>
       <use xlink:href="#ArialMT-30" transform="translate(194.628906 0)"/>
      </g>
     </g>
    </g>
    <g id="xtick_24">
     <g id="line2d_65">
      <g>
       <use xlink:href="#m32a83eabad" x="739.836875" y="257.76" style="stroke: #000000"/>
      </g>
     </g>
     <g id="text_24">
      <!-- 24:00 -->
      <g transform="translate(742.939062 296.28625) rotate(-90) scale(0.12 -0.12)">
       <use xlink:href="#ArialMT-32"/>
       <use xlink:href="#ArialMT-34" transform="translate(55.615234 0)"/>
       <use xlink:href="#ArialMT-3a" transform="translate(111.230469 0)"/>
       <use xlink:href="#ArialMT-30" transform="translate(139.013672 0)"/>
       <use xlink:href="#ArialMT-30" transform="translate(194.628906 0)"/>
      </g>
     </g>
    </g>
   </g>
   <g id="matplotlib.axis_2">
    <g id="ytick_1">
     <g id="line2d_66">
      <defs>
       <path id="me709905441" d="M 0 0 
L -5 0 
" style="stroke: #000000; stroke-opacity: 0; stroke-width: 1.5"/>
      </defs>
      <g>
       <use xlink:href="#me709905441" x="84.186875" y="249.546667" style="fill-opacity: 0; stroke: #000000; stroke-opacity: 0; stroke-width: 1.5"/>
      </g>
     </g>
     <g id="text_25">
      <!-- 0 -->
      <g transform="translate(66.789375 255.272917) scale(0.16 -0.16)">
       <use xlink:href="#ArialMT-30"/>
      </g>
     </g>
    </g>
    <g id="ytick_2">
     <g id="line2d_67">
      <g>
       <use xlink:href="#me709905441" x="84.186875" y="183.84" style="fill-opacity: 0; stroke: #000000; stroke-opacity: 0; stroke-width: 1.5"/>
      </g>
     </g>
     <g id="text_26">
      <!-- 4 -->
      <g transform="translate(66.789375 189.56625) scale(0.16 -0.16)">
       <use xlink:href="#ArialMT-34"/>
      </g>
     </g>
    </g>
    <g id="ytick_3">
     <g id="line2d_68">
      <g>
       <use xlink:href="#me709905441" x="84.186875" y="118.133333" style="fill-opacity: 0; stroke: #000000; stroke-opacity: 0; stroke-width: 1.5"/>
      </g>
     </g>
     <g id="text_27">
      <!-- 8 -->
      <g transform="translate(66.789375 123.859583) scale(0.16 -0.16)">
       <use xlink:href="#ArialMT-38"/>
      </g>
     </g>
    </g>
    <g id="ytick_4">
     <g id="line2d_69">
      <g>
       <use xlink:href="#me709905441" x="84.186875" y="52.426667" style="fill-opacity: 0; stroke: #000000; stroke-opacity: 0; stroke-width: 1.5"/>
      </g>
     </g>
     <g id="text_28">
      <!-- 12 -->
      <g transform="translate(57.891875 58.152917) scale(0.16 -0.16)">
       <use xlink:href="#ArialMT-31"/>
       <use xlink:href="#ArialMT-32" transform="translate(55.615234 0)"/>
      </g>
     </g>
    </g>
    <g id="text_29">
     <!-- PM2.5_Tires (gm) -->
     <g transform="translate(49.103437 218.550937) rotate(-90) scale(0.18 -0.18)">
      <defs>
       <path id="ArialMT-50" d="M 494 0 
L 494 4581 
L 2222 4581 
Q 2678 4581 2919 4538 
Q 3256 4481 3484 4323 
Q 3713 4166 3852 3881 
Q 3991 3597 3991 3256 
Q 3991 2672 3619 2267 
Q 3247 1863 2275 1863 
L 1100 1863 
L 1100 0 
L 494 0 
z
M 1100 2403 
L 2284 2403 
Q 2872 2403 3119 2622 
Q 3366 2841 3366 3238 
Q 3366 3525 3220 3729 
Q 3075 3934 2838 4000 
Q 2684 4041 2272 4041 
L 1100 4041 
L 1100 2403 
z
" transform="scale(0.015625)"/>
       <path id="ArialMT-4d" d="M 475 0 
L 475 4581 
L 1388 4581 
L 2472 1338 
Q 2622 884 2691 659 
Q 2769 909 2934 1394 
L 4031 4581 
L 4847 4581 
L 4847 0 
L 4263 0 
L 4263 3834 
L 2931 0 
L 2384 0 
L 1059 3900 
L 1059 0 
L 475 0 
z
" transform="scale(0.015625)"/>
       <path id="ArialMT-2e" d="M 581 0 
L 581 641 
L 1222 641 
L 1222 0 
L 581 0 
z
" transform="scale(0.015625)"/>
       <path id="ArialMT-5f" d="M -97 -1272 
L -97 -866 
L 3631 -866 
L 3631 -1272 
L -97 -1272 
z
" transform="scale(0.015625)"/>
       <path id="ArialMT-54" d="M 1659 0 
L 1659 4041 
L 150 4041 
L 150 4581 
L 3781 4581 
L 3781 4041 
L 2266 4041 
L 2266 0 
L 1659 0 
z
" transform="scale(0.015625)"/>
       <path id="ArialMT-69" d="M 425 3934 
L 425 4581 
L 988 4581 
L 988 3934 
L 425 3934 
z
M 425 0 
L 425 3319 
L 988 3319 
L 988 0 
L 425 0 
z
" transform="scale(0.015625)"/>
       <path id="ArialMT-72" d="M 416 0 
L 416 3319 
L 922 3319 
L 922 2816 
Q 1116 3169 1280 3281 
Q 1444 3394 1641 3394 
Q 1925 3394 2219 3213 
L 2025 2691 
Q 1819 2813 1613 2813 
Q 1428 2813 1281 2702 
Q 1134 2591 1072 2394 
Q 978 2094 978 1738 
L 978 0 
L 416 0 
z
" transform="scale(0.015625)"/>
       <path id="ArialMT-65" d="M 2694 1069 
L 3275 997 
Q 3138 488 2766 206 
Q 2394 -75 1816 -75 
Q 1088 -75 661 373 
Q 234 822 234 1631 
Q 234 2469 665 2931 
Q 1097 3394 1784 3394 
Q 2450 3394 2872 2941 
Q 3294 2488 3294 1666 
Q 3294 1616 3291 1516 
L 816 1516 
Q 847 969 1125 678 
Q 1403 388 1819 388 
Q 2128 388 2347 550 
Q 2566 713 2694 1069 
z
M 847 1978 
L 2700 1978 
Q 2663 2397 2488 2606 
Q 2219 2931 1791 2931 
Q 1403 2931 1139 2672 
Q 875 2413 847 1978 
z
" transform="scale(0.015625)"/>
       <path id="ArialMT-73" d="M 197 991 
L 753 1078 
Q 800 744 1014 566 
Q 1228 388 1613 388 
Q 2000 388 2187 545 
Q 2375 703 2375 916 
Q 2375 1106 2209 1216 
Q 2094 1291 1634 1406 
Q 1016 1563 777 1677 
Q 538 1791 414 1992 
Q 291 2194 291 2438 
Q 291 2659 392 2848 
Q 494 3038 669 3163 
Q 800 3259 1026 3326 
Q 1253 3394 1513 3394 
Q 1903 3394 2198 3281 
Q 2494 3169 2634 2976 
Q 2775 2784 2828 2463 
L 2278 2388 
Q 2241 2644 2061 2787 
Q 1881 2931 1553 2931 
Q 1166 2931 1000 2803 
Q 834 2675 834 2503 
Q 834 2394 903 2306 
Q 972 2216 1119 2156 
Q 1203 2125 1616 2013 
Q 2213 1853 2448 1751 
Q 2684 1650 2818 1456 
Q 2953 1263 2953 975 
Q 2953 694 2789 445 
Q 2625 197 2315 61 
Q 2006 -75 1616 -75 
Q 969 -75 630 194 
Q 291 463 197 991 
z
" transform="scale(0.015625)"/>
       <path id="ArialMT-20" transform="scale(0.015625)"/>
       <path id="ArialMT-28" d="M 1497 -1347 
Q 1031 -759 709 28 
Q 388 816 388 1659 
Q 388 2403 628 3084 
Q 909 3875 1497 4659 
L 1900 4659 
Q 1522 4009 1400 3731 
Q 1209 3300 1100 2831 
Q 966 2247 966 1656 
Q 966 153 1900 -1347 
L 1497 -1347 
z
" transform="scale(0.015625)"/>
       <path id="ArialMT-67" d="M 319 -275 
L 866 -356 
Q 900 -609 1056 -725 
Q 1266 -881 1628 -881 
Q 2019 -881 2231 -725 
Q 2444 -569 2519 -288 
Q 2563 -116 2559 434 
Q 2191 0 1641 0 
Q 956 0 581 494 
Q 206 988 206 1678 
Q 206 2153 378 2554 
Q 550 2956 876 3175 
Q 1203 3394 1644 3394 
Q 2231 3394 2613 2919 
L 2613 3319 
L 3131 3319 
L 3131 450 
Q 3131 -325 2973 -648 
Q 2816 -972 2473 -1159 
Q 2131 -1347 1631 -1347 
Q 1038 -1347 672 -1080 
Q 306 -813 319 -275 
z
M 784 1719 
Q 784 1066 1043 766 
Q 1303 466 1694 466 
Q 2081 466 2343 764 
Q 2606 1063 2606 1700 
Q 2606 2309 2336 2618 
Q 2066 2928 1684 2928 
Q 1309 2928 1046 2623 
Q 784 2319 784 1719 
z
" transform="scale(0.015625)"/>
       <path id="ArialMT-6d" d="M 422 0 
L 422 3319 
L 925 3319 
L 925 2853 
Q 1081 3097 1340 3245 
Q 1600 3394 1931 3394 
Q 2300 3394 2536 3241 
Q 2772 3088 2869 2813 
Q 3263 3394 3894 3394 
Q 4388 3394 4653 3120 
Q 4919 2847 4919 2278 
L 4919 0 
L 4359 0 
L 4359 2091 
Q 4359 2428 4304 2576 
Q 4250 2725 4106 2815 
Q 3963 2906 3769 2906 
Q 3419 2906 3187 2673 
Q 2956 2441 2956 1928 
L 2956 0 
L 2394 0 
L 2394 2156 
Q 2394 2531 2256 2718 
Q 2119 2906 1806 2906 
Q 1569 2906 1367 2781 
Q 1166 2656 1075 2415 
Q 984 2175 984 1722 
L 984 0 
L 422 0 
z
" transform="scale(0.015625)"/>
       <path id="ArialMT-29" d="M 791 -1347 
L 388 -1347 
Q 1322 153 1322 1656 
Q 1322 2244 1188 2822 
Q 1081 3291 891 3722 
Q 769 4003 388 4659 
L 791 4659 
Q 1378 3875 1659 3084 
Q 1900 2403 1900 1659 
Q 1900 816 1576 28 
Q 1253 -759 791 -1347 
z
" transform="scale(0.015625)"/>
      </defs>
      <use xlink:href="#ArialMT-50"/>
      <use xlink:href="#ArialMT-4d" transform="translate(66.699219 0)"/>
      <use xlink:href="#ArialMT-32" transform="translate(150 0)"/>
      <use xlink:href="#ArialMT-2e" transform="translate(205.615234 0)"/>
      <use xlink:href="#ArialMT-35" transform="translate(233.398438 0)"/>
      <use xlink:href="#ArialMT-5f" transform="translate(289.013672 0)"/>
      <use xlink:href="#ArialMT-54" transform="translate(344.628906 0)"/>
      <use xlink:href="#ArialMT-69" transform="translate(401.962891 0)"/>
      <use xlink:href="#ArialMT-72" transform="translate(424.179688 0)"/>
      <use xlink:href="#ArialMT-65" transform="translate(457.480469 0)"/>
      <use xlink:href="#ArialMT-73" transform="translate(513.095703 0)"/>
      <use xlink:href="#ArialMT-20" transform="translate(563.095703 0)"/>
      <use xlink:href="#ArialMT-28" transform="translate(590.878906 0)"/>
      <use xlink:href="#ArialMT-67" transform="translate(624.179688 0)"/>
      <use xlink:href="#ArialMT-6d" transform="translate(679.794922 0)"/>
      <use xlink:href="#ArialMT-29" transform="translate(763.095703 0)"/>
     </g>
    </g>
   </g>
   <g id="line2d_70">
    <path d="M 98.136875 183.368531 
L 126.036875 205.974647 
L 153.936875 213.656526 
L 181.836875 210.976223 
L 209.736875 185.254786 
L 237.636875 121.750002 
L 265.536875 115.280627 
L 293.436875 102.91674 
L 321.336875 100.349909 
L 349.236875 102.164962 
L 377.136875 99.938804 
L 405.036875 97.307168 
L 432.936875 94.811757 
L 460.836875 94.532796 
L 488.736875 97.576868 
L 516.636875 98.197941 
L 544.536875 94.772515 
L 572.436875 96.333297 
L 600.336875 99.571685 
L 628.236875 107.884147 
L 656.136875 115.155094 
L 684.036875 114.301404 
L 711.936875 116.976713 
L 739.836875 146.941304 
" clip-path="url(#p050bda7d9a)" style="fill: none; stroke: #9edae5; stroke-opacity: 0.8; stroke-width: 1.5; stroke-linecap: round"/>
   </g>
   <g id="line2d_71">
    <path d="M 98.136875 242.893659 
L 126.036875 245.059589 
L 153.936875 245.988401 
L 181.836875 246.354646 
L 209.736875 244.000364 
L 237.636875 236.359358 
L 265.536875 222.039519 
L 293.436875 205.773679 
L 321.336875 203.121602 
L 349.236875 203.010064 
L 377.136875 203.484691 
L 405.036875 203.735114 
L 432.936875 204.188721 
L 460.836875 205.577238 
L 488.736875 206.880722 
L 516.636875 208.289184 
L 544.536875 209.792123 
L 572.436875 209.164192 
L 600.336875 203.436113 
L 628.236875 209.295371 
L 656.136875 217.587199 
L 684.036875 224.803349 
L 711.936875 231.293734 
L 739.836875 239.338361 
" clip-path="url(#p050bda7d9a)" style="fill: none; stroke: #f7b6d2; stroke-opacity: 0.8; stroke-width: 1.5; stroke-linecap: round"/>
   </g>
   <g id="line2d_72">
    <path d="M 98.136875 242.403858 
L 126.036875 244.450594 
L 153.936875 245.133544 
L 181.836875 244.908977 
L 209.736875 242.193586 
L 237.636875 233.363308 
L 265.536875 221.005291 
L 293.436875 205.626631 
L 321.336875 201.14194 
L 349.236875 200.050516 
L 377.136875 199.37959 
L 405.036875 203.009031 
L 432.936875 202.46337 
L 460.836875 203.792567 
L 488.736875 205.90905 
L 516.636875 207.522188 
L 544.536875 207.853801 
L 572.436875 206.560476 
L 600.336875 202.187952 
L 628.236875 209.989911 
L 656.136875 217.658326 
L 684.036875 224.008676 
L 711.936875 230.377127 
L 739.836875 239.984811 
" clip-path="url(#p050bda7d9a)" style="fill: none; stroke: #bcbd22; stroke-opacity: 0.8; stroke-width: 1.5; stroke-linecap: round"/>
   </g>
   <g id="line2d_73">
    <path d="M 98.136875 205.161049 
L 126.036875 220.88801 
L 153.936875 226.115174 
L 181.836875 223.247286 
L 209.736875 201.47963 
L 237.636875 151.687828 
L 265.536875 114.535348 
L 293.436875 110.793681 
L 321.336875 107.290549 
L 349.236875 110.456526 
L 377.136875 111.900667 
L 405.036875 111.940679 
L 432.936875 111.63825 
L 460.836875 111.344427 
L 488.736875 112.848156 
L 516.636875 115.172879 
L 544.536875 116.342839 
L 572.436875 115.700532 
L 600.336875 117.593129 
L 628.236875 121.492701 
L 656.136875 105.369235 
L 684.036875 121.897579 
L 711.936875 148.943712 
L 739.836875 179.465904 
" clip-path="url(#p050bda7d9a)" style="fill: none; stroke: #9467bd; stroke-opacity: 0.8; stroke-width: 1.5; stroke-linecap: round"/>
   </g>
   <g id="line2d_74">
    <path d="M 98.136875 224.847172 
L 126.036875 233.689835 
L 153.936875 237.030667 
L 181.836875 237.147281 
L 209.736875 227.305743 
L 237.636875 201.302071 
L 265.536875 180.449566 
L 293.436875 165.702134 
L 321.336875 166.415279 
L 349.236875 167.915094 
L 377.136875 167.496493 
L 405.036875 167.281069 
L 432.936875 167.225479 
L 460.836875 168.029301 
L 488.736875 170.050519 
L 516.636875 170.352025 
L 544.536875 171.003331 
L 572.436875 170.860027 
L 600.336875 171.647547 
L 628.236875 174.834237 
L 656.136875 169.601447 
L 684.036875 179.300211 
L 711.936875 194.279106 
L 739.836875 210.956663 
" clip-path="url(#p050bda7d9a)" style="fill: none; stroke: #c5b0d5; stroke-opacity: 0.8; stroke-width: 1.5; stroke-linecap: round"/>
   </g>
   <g id="line2d_75">
    <path d="M 98.136875 241.695063 
L 126.036875 244.71344 
L 153.936875 245.891714 
L 181.836875 246.665046 
L 209.736875 243.912353 
L 237.636875 235.063165 
L 265.536875 219.70062 
L 293.436875 204.99756 
L 321.336875 203.397206 
L 349.236875 203.512207 
L 377.136875 207.266368 
L 405.036875 207.736879 
L 432.936875 207.555812 
L 460.836875 209.024518 
L 488.736875 210.227074 
L 516.636875 210.774452 
L 544.536875 209.647519 
L 572.436875 208.146718 
L 600.336875 208.624183 
L 628.236875 204.854868 
L 656.136875 213.100116 
L 684.036875 221.054384 
L 711.936875 227.589817 
L 739.836875 236.517722 
" clip-path="url(#p050bda7d9a)" style="fill: none; stroke: #8c564b; stroke-opacity: 0.8; stroke-width: 1.5; stroke-linecap: round"/>
   </g>
   <g id="line2d_76">
    <path d="M 98.136875 240.870891 
L 126.036875 244.562155 
L 153.936875 245.846336 
L 181.836875 246.754202 
L 209.736875 244.223134 
L 237.636875 235.945783 
L 265.536875 221.385998 
L 293.436875 205.870706 
L 321.336875 203.006606 
L 349.236875 202.687989 
L 377.136875 204.447285 
L 405.036875 202.705762 
L 432.936875 203.657578 
L 460.836875 207.00947 
L 488.736875 208.946314 
L 516.636875 211.469074 
L 544.536875 211.178727 
L 572.436875 208.613506 
L 600.336875 208.301136 
L 628.236875 204.412658 
L 656.136875 212.716881 
L 684.036875 219.490867 
L 711.936875 226.647691 
L 739.836875 235.083954 
" clip-path="url(#p050bda7d9a)" style="fill: none; stroke: #7f7f7f; stroke-opacity: 0.8; stroke-width: 1.5; stroke-linecap: round"/>
   </g>
   <g id="line2d_77">
    <path d="M 98.136875 223.047457 
L 126.036875 232.456037 
L 153.936875 236.038234 
L 181.836875 236.913605 
L 209.736875 228.343784 
L 237.636875 205.327362 
L 265.536875 175.096645 
L 293.436875 150.238214 
L 321.336875 150.146206 
L 349.236875 160.803265 
L 377.136875 162.110601 
L 405.036875 162.295136 
L 432.936875 161.48081 
L 460.836875 162.048279 
L 488.736875 163.304611 
L 516.636875 165.788358 
L 544.536875 167.712824 
L 572.436875 166.233484 
L 600.336875 168.180966 
L 628.236875 146.990392 
L 656.136875 156.395626 
L 684.036875 169.416388 
L 711.936875 185.781665 
L 739.836875 206.79722 
" clip-path="url(#p050bda7d9a)" style="fill: none; stroke: #9edae5; stroke-opacity: 0.8; stroke-width: 1.5; stroke-linecap: round"/>
   </g>
   <g id="line2d_78">
    <path d="M 98.136875 229.400378 
L 126.036875 236.7293 
L 153.936875 239.407205 
L 181.836875 240.021941 
L 209.736875 232.551902 
L 237.636875 212.406246 
L 265.536875 183.061938 
L 293.436875 161.114178 
L 321.336875 156.230726 
L 349.236875 156.016498 
L 377.136875 155.569651 
L 405.036875 154.445965 
L 432.936875 154.281687 
L 460.836875 154.571786 
L 488.736875 155.110664 
L 516.636875 156.827043 
L 544.536875 156.460283 
L 572.436875 153.945206 
L 600.336875 153.565383 
L 628.236875 160.41315 
L 656.136875 168.764317 
L 684.036875 180.178848 
L 711.936875 195.706821 
L 739.836875 216.944908 
" clip-path="url(#p050bda7d9a)" style="fill: none; stroke: #c7c7c7; stroke-opacity: 0.8; stroke-width: 1.5; stroke-linecap: round"/>
   </g>
   <g id="line2d_79">
    <path d="M 98.136875 232.131271 
L 126.036875 238.496937 
L 153.936875 241.298368 
L 181.836875 243.609556 
L 209.736875 237.991609 
L 237.636875 223.325682 
L 265.536875 204.868274 
L 293.436875 187.851403 
L 321.336875 181.077515 
L 349.236875 181.2324 
L 377.136875 184.254816 
L 405.036875 182.392542 
L 432.936875 182.980536 
L 460.836875 183.978786 
L 488.736875 184.346049 
L 516.636875 186.341198 
L 544.536875 188.26457 
L 572.436875 188.702529 
L 600.336875 189.320865 
L 628.236875 181.248404 
L 656.136875 190.024135 
L 684.036875 198.834457 
L 711.936875 207.561692 
L 739.836875 222.473756 
" clip-path="url(#p050bda7d9a)" style="fill: none; stroke: #c49c94; stroke-opacity: 0.8; stroke-width: 1.5; stroke-linecap: round"/>
   </g>
   <g id="line2d_80">
    <path d="M 98.136875 232.924102 
L 126.036875 238.885791 
L 153.936875 241.264996 
L 181.836875 242.869047 
L 209.736875 237.814333 
L 237.636875 223.476014 
L 265.536875 205.070527 
L 293.436875 189.694708 
L 321.336875 185.20681 
L 349.236875 185.596789 
L 377.136875 187.712969 
L 405.036875 188.614293 
L 432.936875 188.290262 
L 460.836875 188.42758 
L 488.736875 189.685835 
L 516.636875 190.708376 
L 544.536875 188.077393 
L 572.436875 188.155894 
L 600.336875 187.987287 
L 628.236875 185.401356 
L 656.136875 193.285157 
L 684.036875 200.991984 
L 711.936875 209.561022 
L 739.836875 223.87114 
" clip-path="url(#p050bda7d9a)" style="fill: none; stroke: #1f77b4; stroke-opacity: 0.8; stroke-width: 1.5; stroke-linecap: round"/>
   </g>
   <g id="line2d_81">
    <path d="M 98.136875 241.545752 
L 126.036875 244.451299 
L 153.936875 245.818659 
L 181.836875 246.444554 
L 209.736875 243.170326 
L 237.636875 234.547244 
L 265.536875 220.677818 
L 293.436875 204.173296 
L 321.336875 199.122616 
L 349.236875 197.751182 
L 377.136875 196.820756 
L 405.036875 199.047779 
L 432.936875 199.281972 
L 460.836875 199.810809 
L 488.736875 200.199381 
L 516.636875 200.755208 
L 544.536875 200.970918 
L 572.436875 200.493407 
L 600.336875 200.530961 
L 628.236875 201.969513 
L 656.136875 212.334025 
L 684.036875 220.000615 
L 711.936875 226.886613 
L 739.836875 236.499367 
" clip-path="url(#p050bda7d9a)" style="fill: none; stroke: #aec7e8; stroke-opacity: 0.8; stroke-width: 1.5; stroke-linecap: round"/>
   </g>
   <g id="line2d_82">
    <path d="M 98.136875 242.310719 
L 126.036875 244.968586 
L 153.936875 246.229176 
L 181.836875 246.956376 
L 209.736875 244.496301 
L 237.636875 234.877789 
L 265.536875 219.672986 
L 293.436875 196.407781 
L 321.336875 188.333716 
L 349.236875 185.938025 
L 377.136875 186.782467 
L 405.036875 184.452084 
L 432.936875 184.055243 
L 460.836875 187.24766 
L 488.736875 187.028077 
L 516.636875 187.431761 
L 544.536875 186.989086 
L 572.436875 184.695034 
L 600.336875 184.410791 
L 628.236875 192.555153 
L 656.136875 209.737825 
L 684.036875 220.392093 
L 711.936875 228.832304 
L 739.836875 236.61709 
" clip-path="url(#p050bda7d9a)" style="fill: none; stroke: #1f77b4; stroke-opacity: 0.8; stroke-width: 1.5; stroke-linecap: round"/>
   </g>
   <g id="line2d_83">
    <path d="M 98.136875 237.506149 
L 126.036875 241.571304 
L 153.936875 243.593039 
L 181.836875 244.980849 
L 209.736875 241.355397 
L 237.636875 229.248869 
L 265.536875 210.429103 
L 293.436875 182.985966 
L 321.336875 173.813508 
L 349.236875 172.783914 
L 377.136875 173.858082 
L 405.036875 170.290519 
L 432.936875 172.681008 
L 460.836875 177.863364 
L 488.736875 178.75193 
L 516.636875 178.750502 
L 544.536875 181.801249 
L 572.436875 184.8621 
L 600.336875 184.324651 
L 628.236875 173.417875 
L 656.136875 192.548904 
L 684.036875 207.86256 
L 711.936875 218.158554 
L 739.836875 229.269243 
" clip-path="url(#p050bda7d9a)" style="fill: none; stroke: #e377c2; stroke-opacity: 0.8; stroke-width: 1.5; stroke-linecap: round"/>
   </g>
   <g id="line2d_84">
    <path d="M 98.136875 241.393616 
L 126.036875 243.660597 
L 153.936875 244.318896 
L 181.836875 244.794016 
L 209.736875 242.487885 
L 237.636875 234.038957 
L 265.536875 220.463269 
L 293.436875 201.327312 
L 321.336875 194.251982 
L 349.236875 192.920647 
L 377.136875 194.131378 
L 405.036875 193.671628 
L 432.936875 194.826478 
L 460.836875 197.308903 
L 488.736875 199.374464 
L 516.636875 199.945132 
L 544.536875 202.934401 
L 572.436875 204.460005 
L 600.336875 195.767227 
L 628.236875 199.68134 
L 656.136875 208.952041 
L 684.036875 217.310639 
L 711.936875 225.456521 
L 739.836875 237.713614 
" clip-path="url(#p050bda7d9a)" style="fill: none; stroke: #ff7f0e; stroke-opacity: 0.8; stroke-width: 1.5; stroke-linecap: round"/>
   </g>
   <g id="line2d_85">
    <path d="M 98.136875 243.451175 
L 126.036875 245.819202 
L 153.936875 246.855453 
L 181.836875 247.432114 
L 209.736875 245.127638 
L 237.636875 236.535325 
L 265.536875 220.86739 
L 293.436875 200.856505 
L 321.336875 195.310266 
L 349.236875 193.922482 
L 377.136875 193.377265 
L 405.036875 193.525681 
L 432.936875 193.28667 
L 460.836875 195.595189 
L 488.736875 196.96776 
L 516.636875 196.802723 
L 544.536875 198.960712 
L 572.436875 201.318565 
L 600.336875 201.746434 
L 628.236875 201.84554 
L 656.136875 214.079591 
L 684.036875 222.93976 
L 711.936875 230.436446 
L 739.836875 238.460052 
" clip-path="url(#p050bda7d9a)" style="fill: none; stroke: #98df8a; stroke-opacity: 0.8; stroke-width: 1.5; stroke-linecap: round"/>
   </g>
   <g id="line2d_86">
    <path d="M 98.136875 236.836693 
L 126.036875 241.093732 
L 153.936875 243.425665 
L 181.836875 244.769229 
L 209.736875 240.977864 
L 237.636875 227.876451 
L 265.536875 206.380099 
L 293.436875 177.798261 
L 321.336875 165.959498 
L 349.236875 163.041025 
L 377.136875 166.26978 
L 405.036875 161.889317 
L 432.936875 161.544645 
L 460.836875 168.716164 
L 488.736875 169.011324 
L 516.636875 169.721101 
L 544.536875 175.385947 
L 572.436875 177.717844 
L 600.336875 174.595489 
L 628.236875 166.066048 
L 656.136875 189.301417 
L 684.036875 205.508122 
L 711.936875 216.389108 
L 739.836875 228.024931 
" clip-path="url(#p050bda7d9a)" style="fill: none; stroke: #d62728; stroke-opacity: 0.8; stroke-width: 1.5; stroke-linecap: round"/>
   </g>
   <g id="line2d_87">
    <path d="M 98.136875 180.023392 
L 126.036875 203.261629 
L 153.936875 211.290688 
L 181.836875 212.168528 
L 209.736875 188.414581 
L 237.636875 143.381115 
L 265.536875 91.766324 
L 293.436875 65.606365 
L 321.336875 59.059246 
L 349.236875 57.185892 
L 377.136875 55.433577 
L 405.036875 54.788048 
L 432.936875 53.760131 
L 460.836875 54.892578 
L 488.736875 54.043567 
L 516.636875 53.17352 
L 544.536875 56.231615 
L 572.436875 58.396401 
L 600.336875 54.628755 
L 628.236875 56.253566 
L 656.136875 72.935282 
L 684.036875 88.837576 
L 711.936875 116.91876 
L 739.836875 154.874543 
" clip-path="url(#p050bda7d9a)" style="fill: none; stroke: #ffbb78; stroke-opacity: 0.8; stroke-width: 1.5; stroke-linecap: round"/>
   </g>
   <g id="line2d_88">
    <path d="M 98.136875 188.110922 
L 126.036875 210.284591 
L 153.936875 216.896713 
L 181.836875 217.754956 
L 209.736875 195.214406 
L 237.636875 150.18064 
L 265.536875 100.206979 
L 293.436875 76.387583 
L 321.336875 69.00968 
L 349.236875 66.756375 
L 377.136875 64.872271 
L 405.036875 64.883784 
L 432.936875 64.0735 
L 460.836875 64.542683 
L 488.736875 65.394308 
L 516.636875 66.491799 
L 544.536875 68.000975 
L 572.436875 70.309481 
L 600.336875 70.832343 
L 628.236875 88.247523 
L 656.136875 85.601396 
L 684.036875 99.686964 
L 711.936875 125.182977 
L 739.836875 159.420776 
" clip-path="url(#p050bda7d9a)" style="fill: none; stroke: #2ca02c; stroke-opacity: 0.8; stroke-width: 1.5; stroke-linecap: round"/>
   </g>
   <g id="line2d_89">
    <path d="M 98.136875 207.996925 
L 126.036875 222.055045 
L 153.936875 227.247894 
L 181.836875 226.313728 
L 209.736875 208.155235 
L 237.636875 167.513366 
L 265.536875 135.489564 
L 293.436875 116.846015 
L 321.336875 114.451747 
L 349.236875 114.766435 
L 377.136875 115.21374 
L 405.036875 114.250548 
L 432.936875 113.841522 
L 460.836875 115.210472 
L 488.736875 115.511272 
L 516.636875 118.44048 
L 544.536875 119.199466 
L 572.436875 117.638258 
L 600.336875 120.152472 
L 628.236875 122.775757 
L 656.136875 126.403474 
L 684.036875 141.550077 
L 711.936875 161.840699 
L 739.836875 189.6818 
" clip-path="url(#p050bda7d9a)" style="fill: none; stroke: #dbdb8d; stroke-opacity: 0.8; stroke-width: 1.5; stroke-linecap: round"/>
   </g>
   <g id="line2d_90">
    <path d="M 98.136875 229.186505 
L 126.036875 236.559802 
L 153.936875 238.666045 
L 181.836875 238.071611 
L 209.736875 227.797764 
L 237.636875 204.235766 
L 265.536875 177.292124 
L 293.436875 152.24345 
L 321.336875 156.207973 
L 349.236875 163.051148 
L 377.136875 163.402945 
L 405.036875 162.835709 
L 432.936875 162.878609 
L 460.836875 162.916087 
L 488.736875 164.416573 
L 516.636875 165.940343 
L 544.536875 166.465357 
L 572.436875 166.865204 
L 600.336875 168.980309 
L 628.236875 156.695247 
L 656.136875 173.675812 
L 684.036875 186.662882 
L 711.936875 201.565599 
L 739.836875 218.869118 
" clip-path="url(#p050bda7d9a)" style="fill: none; stroke: #d62728; stroke-opacity: 0.8; stroke-width: 1.5; stroke-linecap: round"/>
   </g>
   <g id="line2d_91">
    <path d="M 98.136875 229.550859 
L 126.036875 236.501399 
L 153.936875 238.493707 
L 181.836875 237.425046 
L 209.736875 226.304583 
L 237.636875 196.644514 
L 265.536875 170.00579 
L 293.436875 158.747661 
L 321.336875 164.004441 
L 349.236875 163.841223 
L 377.136875 163.958913 
L 405.036875 163.496327 
L 432.936875 162.995716 
L 460.836875 163.47971 
L 488.736875 164.852802 
L 516.636875 166.577969 
L 544.536875 166.846322 
L 572.436875 167.67339 
L 600.336875 170.081416 
L 628.236875 152.866717 
L 656.136875 169.088945 
L 684.036875 182.205596 
L 711.936875 198.098924 
L 739.836875 218.731414 
" clip-path="url(#p050bda7d9a)" style="fill: none; stroke: #ff9896; stroke-opacity: 0.8; stroke-width: 1.5; stroke-linecap: round"/>
   </g>
   <g id="line2d_92">
    <path d="M 98.136875 232.142855 
L 126.036875 238.615176 
L 153.936875 241.17946 
L 181.836875 242.802098 
L 209.736875 236.681819 
L 237.636875 217.521196 
L 265.536875 192.736303 
L 293.436875 160.099661 
L 321.336875 155.838328 
L 349.236875 155.084936 
L 377.136875 154.984054 
L 405.036875 152.289277 
L 432.936875 150.795479 
L 460.836875 152.60632 
L 488.736875 153.444552 
L 516.636875 156.071821 
L 544.536875 156.51813 
L 572.436875 157.399619 
L 600.336875 159.075655 
L 628.236875 160.199759 
L 656.136875 178.533587 
L 684.036875 195.493735 
L 711.936875 207.596733 
L 739.836875 221.039917 
" clip-path="url(#p050bda7d9a)" style="fill: none; stroke: #17becf; stroke-opacity: 0.8; stroke-width: 1.5; stroke-linecap: round"/>
   </g>
   <g id="line2d_93">
    <path d="M 98.136875 234.53257 
L 126.036875 240.143947 
L 153.936875 242.338953 
L 181.836875 243.483135 
L 209.736875 238.385073 
L 237.636875 221.272777 
L 265.536875 196.044587 
L 293.436875 165.802955 
L 321.336875 162.354143 
L 349.236875 162.094423 
L 377.136875 161.758775 
L 405.036875 161.170702 
L 432.936875 164.976069 
L 460.836875 166.614792 
L 488.736875 167.887691 
L 516.636875 170.134598 
L 544.536875 170.986727 
L 572.436875 171.555288 
L 600.336875 173.021025 
L 628.236875 168.936581 
L 656.136875 186.699184 
L 684.036875 201.681637 
L 711.936875 214.249879 
L 739.836875 225.467618 
" clip-path="url(#p050bda7d9a)" style="fill: none; stroke: #f7b6d2; stroke-opacity: 0.8; stroke-width: 1.5; stroke-linecap: round"/>
   </g>
   <g id="patch_3">
    <path d="M 84.186875 257.76 
L 84.186875 36 
" style="fill: none; stroke: #000000; stroke-linejoin: miter; stroke-linecap: square"/>
   </g>
   <g id="patch_4">
    <path d="M 753.786875 257.76 
L 753.786875 36 
" style="fill: none; stroke: #000000; stroke-linejoin: miter; stroke-linecap: square"/>
   </g>
   <g id="patch_5">
    <path d="M 84.186875 257.76 
L 753.786875 257.76 
" style="fill: none; stroke: #000000; stroke-linejoin: miter; stroke-linecap: square"/>
   </g>
   <g id="patch_6">
    <path d="M 84.186875 36 
L 753.786875 36 
" style="fill: none; stroke: #000000; stroke-linejoin: miter; stroke-linecap: square"/>
   </g>
  </g>
 </g>
 <defs>
  <clipPath id="p050bda7d9a">
   <rect x="84.186875" y="36" width="669.6" height="221.76"/>
  </clipPath>
 </defs>
</svg>
