<?xml version="1.0" encoding="utf-8" standalone="no"?>
<!DOCTYPE svg PUBLIC "-//W3C//DTD SVG 1.1//EN"
  "http://www.w3.org/Graphics/SVG/1.1/DTD/svg11.dtd">
<svg xmlns:xlink="http://www.w3.org/1999/xlink" width="789.786875pt" height="332.28625pt" viewBox="0 0 789.786875 332.28625" xmlns="http://www.w3.org/2000/svg" version="1.1">
 <metadata>
  <rdf:RDF xmlns:dc="http://purl.org/dc/elements/1.1/" xmlns:cc="http://creativecommons.org/ns#" xmlns:rdf="http://www.w3.org/1999/02/22-rdf-syntax-ns#">
   <cc:Work>
    <dc:type rdf:resource="http://purl.org/dc/dcmitype/StillImage"/>
    <dc:date>2025-10-28T00:00:07.977381</dc:date>
    <dc:format>image/svg+xml</dc:format>
    <dc:creator>
     <cc:Agent>
      <dc:title>Matplotlib v3.10.7, https://matplotlib.org/</dc:title>
     </cc:Agent>
    </dc:creator>
   </cc:Work>
  </rdf:RDF>
 </metadata>
 <defs>
  <style type="text/css">*{stroke-linejoin: round; stroke-linecap: butt}</style>
 </defs>
 <g id="figure_1">
  <g id="patch_1">
   <path d="M 0 332.28625 
L 789.786875 332.28625 
L 789.786875 0 
L 0 0 
L 0 332.28625 
z
" style="fill: none"/>
  </g>
  <g id="axes_1">
   <g id="patch_2">
    <path d="M 84.186875 257.76 
L 753.786875 257.76 
L 753.786875 36 
L 84.186875 36 
L 84.186875 257.76 
z
" style="fill: none"/>
   </g>
   <g id="line2d_1">
    <path d="M 104.477784 257.76 
L 104.477784 36 
" clip-path="url(#p5edd39cd88)" style="fill: none; stroke-dasharray: 0.74,0.32; stroke-dashoffset: 0; stroke: #a9a9a9; stroke-opacity: 0.5; stroke-width: 0.2"/>
   </g>
   <g id="line2d_2">
    <path d="M 124.768693 257.76 
L 124.768693 36 
" clip-path="url(#p5edd39cd88)" style="fill: none; stroke-dasharray: 0.74,0.32; stroke-dashoffset: 0; stroke: #a9a9a9; stroke-opacity: 0.5; stroke-width: 0.2"/>
   </g>
   <g id="line2d_3">
    <path d="M 145.059602 257.76 
L 145.059602 36 
" clip-path="url(#p5edd39cd88)" style="fill: none; stroke-dasharray: 0.74,0.32; stroke-dashoffset: 0; stroke: #a9a9a9; stroke-opacity: 0.5; stroke-width: 0.2"/>
   </g>
   <g id="line2d_4">
    <path d="M 165.350511 257.76 
L 165.350511 36 
" clip-path="url(#p5edd39cd88)" style="fill: none; stroke-dasharray: 0.74,0.32; stroke-dashoffset: 0; stroke: #a9a9a9; stroke-opacity: 0.5; stroke-width: 0.2"/>
   </g>
   <g id="line2d_5">
    <path d="M 185.64142 257.76 
L 185.64142 36 
" clip-path="url(#p5edd39cd88)" style="fill: none; stroke-dasharray: 0.74,0.32; stroke-dashoffset: 0; stroke: #a9a9a9; stroke-opacity: 0.5; stroke-width: 0.2"/>
   </g>
   <g id="line2d_6">
    <path d="M 205.93233 257.76 
L 205.93233 36 
" clip-path="url(#p5edd39cd88)" style="fill: none; stroke-dasharray: 0.74,0.32; stroke-dashoffset: 0; stroke: #a9a9a9; stroke-opacity: 0.5; stroke-width: 0.2"/>
   </g>
   <g id="line2d_7">
    <path d="M 226.223239 257.76 
L 226.223239 36 
" clip-path="url(#p5edd39cd88)" style="fill: none; stroke-dasharray: 0.74,0.32; stroke-dashoffset: 0; stroke: #a9a9a9; stroke-opacity: 0.5; stroke-width: 0.2"/>
   </g>
   <g id="line2d_8">
    <path d="M 246.514148 257.76 
L 246.514148 36 
" clip-path="url(#p5edd39cd88)" style="fill: none; stroke-dasharray: 0.74,0.32; stroke-dashoffset: 0; stroke: #a9a9a9; stroke-opacity: 0.5; stroke-width: 0.2"/>
   </g>
   <g id="line2d_9">
    <path d="M 266.805057 257.76 
L 266.805057 36 
" clip-path="url(#p5edd39cd88)" style="fill: none; stroke-dasharray: 0.74,0.32; stroke-dashoffset: 0; stroke: #a9a9a9; stroke-opacity: 0.5; stroke-width: 0.2"/>
   </g>
   <g id="line2d_10">
    <path d="M 287.095966 257.76 
L 287.095966 36 
" clip-path="url(#p5edd39cd88)" style="fill: none; stroke-dasharray: 0.74,0.32; stroke-dashoffset: 0; stroke: #a9a9a9; stroke-opacity: 0.5; stroke-width: 0.2"/>
   </g>
   <g id="line2d_11">
    <path d="M 307.386875 257.76 
L 307.386875 36 
" clip-path="url(#p5edd39cd88)" style="fill: none; stroke-dasharray: 0.74,0.32; stroke-dashoffset: 0; stroke: #a9a9a9; stroke-opacity: 0.5; stroke-width: 0.2"/>
   </g>
   <g id="line2d_12">
    <path d="M 327.677784 257.76 
L 327.677784 36 
" clip-path="url(#p5edd39cd88)" style="fill: none; stroke-dasharray: 0.74,0.32; stroke-dashoffset: 0; stroke: #a9a9a9; stroke-opacity: 0.5; stroke-width: 0.2"/>
   </g>
   <g id="line2d_13">
    <path d="M 347.968693 257.76 
L 347.968693 36 
" clip-path="url(#p5edd39cd88)" style="fill: none; stroke-dasharray: 0.74,0.32; stroke-dashoffset: 0; stroke: #a9a9a9; stroke-opacity: 0.5; stroke-width: 0.2"/>
   </g>
   <g id="line2d_14">
    <path d="M 368.259602 257.76 
L 368.259602 36 
" clip-path="url(#p5edd39cd88)" style="fill: none; stroke-dasharray: 0.74,0.32; stroke-dashoffset: 0; stroke: #a9a9a9; stroke-opacity: 0.5; stroke-width: 0.2"/>
   </g>
   <g id="line2d_15">
    <path d="M 388.550511 257.76 
L 388.550511 36 
" clip-path="url(#p5edd39cd88)" style="fill: none; stroke-dasharray: 0.74,0.32; stroke-dashoffset: 0; stroke: #a9a9a9; stroke-opacity: 0.5; stroke-width: 0.2"/>
   </g>
   <g id="line2d_16">
    <path d="M 408.84142 257.76 
L 408.84142 36 
" clip-path="url(#p5edd39cd88)" style="fill: none; stroke-dasharray: 0.74,0.32; stroke-dashoffset: 0; stroke: #a9a9a9; stroke-opacity: 0.5; stroke-width: 0.2"/>
   </g>
   <g id="line2d_17">
    <path d="M 429.13233 257.76 
L 429.13233 36 
" clip-path="url(#p5edd39cd88)" style="fill: none; stroke-dasharray: 0.74,0.32; stroke-dashoffset: 0; stroke: #a9a9a9; stroke-opacity: 0.5; stroke-width: 0.2"/>
   </g>
   <g id="line2d_18">
    <path d="M 449.423239 257.76 
L 449.423239 36 
" clip-path="url(#p5edd39cd88)" style="fill: none; stroke-dasharray: 0.74,0.32; stroke-dashoffset: 0; stroke: #a9a9a9; stroke-opacity: 0.5; stroke-width: 0.2"/>
   </g>
   <g id="line2d_19">
    <path d="M 469.714148 257.76 
L 469.714148 36 
" clip-path="url(#p5edd39cd88)" style="fill: none; stroke-dasharray: 0.74,0.32; stroke-dashoffset: 0; stroke: #a9a9a9; stroke-opacity: 0.5; stroke-width: 0.2"/>
   </g>
   <g id="line2d_20">
    <path d="M 490.005057 257.76 
L 490.005057 36 
" clip-path="url(#p5edd39cd88)" style="fill: none; stroke-dasharray: 0.74,0.32; stroke-dashoffset: 0; stroke: #a9a9a9; stroke-opacity: 0.5; stroke-width: 0.2"/>
   </g>
   <g id="line2d_21">
    <path d="M 510.295966 257.76 
L 510.295966 36 
" clip-path="url(#p5edd39cd88)" style="fill: none; stroke-dasharray: 0.74,0.32; stroke-dashoffset: 0; stroke: #a9a9a9; stroke-opacity: 0.5; stroke-width: 0.2"/>
   </g>
   <g id="line2d_22">
    <path d="M 530.586875 257.76 
L 530.586875 36 
" clip-path="url(#p5edd39cd88)" style="fill: none; stroke-dasharray: 0.74,0.32; stroke-dashoffset: 0; stroke: #a9a9a9; stroke-opacity: 0.5; stroke-width: 0.2"/>
   </g>
   <g id="line2d_23">
    <path d="M 550.877784 257.76 
L 550.877784 36 
" clip-path="url(#p5edd39cd88)" style="fill: none; stroke-dasharray: 0.74,0.32; stroke-dashoffset: 0; stroke: #a9a9a9; stroke-opacity: 0.5; stroke-width: 0.2"/>
   </g>
   <g id="line2d_24">
    <path d="M 571.168693 257.76 
L 571.168693 36 
" clip-path="url(#p5edd39cd88)" style="fill: none; stroke-dasharray: 0.74,0.32; stroke-dashoffset: 0; stroke: #a9a9a9; stroke-opacity: 0.5; stroke-width: 0.2"/>
   </g>
   <g id="line2d_25">
    <path d="M 591.459602 257.76 
L 591.459602 36 
" clip-path="url(#p5edd39cd88)" style="fill: none; stroke-dasharray: 0.74,0.32; stroke-dashoffset: 0; stroke: #a9a9a9; stroke-opacity: 0.5; stroke-width: 0.2"/>
   </g>
   <g id="line2d_26">
    <path d="M 611.750511 257.76 
L 611.750511 36 
" clip-path="url(#p5edd39cd88)" style="fill: none; stroke-dasharray: 0.74,0.32; stroke-dashoffset: 0; stroke: #a9a9a9; stroke-opacity: 0.5; stroke-width: 0.2"/>
   </g>
   <g id="line2d_27">
    <path d="M 632.04142 257.76 
L 632.04142 36 
" clip-path="url(#p5edd39cd88)" style="fill: none; stroke-dasharray: 0.74,0.32; stroke-dashoffset: 0; stroke: #a9a9a9; stroke-opacity: 0.5; stroke-width: 0.2"/>
   </g>
   <g id="line2d_28">
    <path d="M 652.33233 257.76 
L 652.33233 36 
" clip-path="url(#p5edd39cd88)" style="fill: none; stroke-dasharray: 0.74,0.32; stroke-dashoffset: 0; stroke: #a9a9a9; stroke-opacity: 0.5; stroke-width: 0.2"/>
   </g>
   <g id="line2d_29">
    <path d="M 672.623239 257.76 
L 672.623239 36 
" clip-path="url(#p5edd39cd88)" style="fill: none; stroke-dasharray: 0.74,0.32; stroke-dashoffset: 0; stroke: #a9a9a9; stroke-opacity: 0.5; stroke-width: 0.2"/>
   </g>
   <g id="line2d_30">
    <path d="M 692.914148 257.76 
L 692.914148 36 
" clip-path="url(#p5edd39cd88)" style="fill: none; stroke-dasharray: 0.74,0.32; stroke-dashoffset: 0; stroke: #a9a9a9; stroke-opacity: 0.5; stroke-width: 0.2"/>
   </g>
   <g id="line2d_31">
    <path d="M 713.205057 257.76 
L 713.205057 36 
" clip-path="url(#p5edd39cd88)" style="fill: none; stroke-dasharray: 0.74,0.32; stroke-dashoffset: 0; stroke: #a9a9a9; stroke-opacity: 0.5; stroke-width: 0.2"/>
   </g>
   <g id="line2d_32">
    <path d="M 733.495966 257.76 
L 733.495966 36 
" clip-path="url(#p5edd39cd88)" style="fill: none; stroke-dasharray: 0.74,0.32; stroke-dashoffset: 0; stroke: #a9a9a9; stroke-opacity: 0.5; stroke-width: 0.2"/>
   </g>
   <g id="line2d_33">
    <path d="M 84.186875 235.584 
L 753.786875 235.584 
" clip-path="url(#p5edd39cd88)" style="fill: none; stroke-dasharray: 0.74,0.32; stroke-dashoffset: 0; stroke: #a9a9a9; stroke-opacity: 0.5; stroke-width: 0.2"/>
   </g>
   <g id="line2d_34">
    <path d="M 84.186875 213.408 
L 753.786875 213.408 
" clip-path="url(#p5edd39cd88)" style="fill: none; stroke-dasharray: 0.74,0.32; stroke-dashoffset: 0; stroke: #a9a9a9; stroke-opacity: 0.5; stroke-width: 0.2"/>
   </g>
   <g id="line2d_35">
    <path d="M 84.186875 191.232 
L 753.786875 191.232 
" clip-path="url(#p5edd39cd88)" style="fill: none; stroke-dasharray: 0.74,0.32; stroke-dashoffset: 0; stroke: #a9a9a9; stroke-opacity: 0.5; stroke-width: 0.2"/>
   </g>
   <g id="line2d_36">
    <path d="M 84.186875 169.056 
L 753.786875 169.056 
" clip-path="url(#p5edd39cd88)" style="fill: none; stroke-dasharray: 0.74,0.32; stroke-dashoffset: 0; stroke: #a9a9a9; stroke-opacity: 0.5; stroke-width: 0.2"/>
   </g>
   <g id="line2d_37">
    <path d="M 84.186875 146.88 
L 753.786875 146.88 
" clip-path="url(#p5edd39cd88)" style="fill: none; stroke-dasharray: 0.74,0.32; stroke-dashoffset: 0; stroke: #a9a9a9; stroke-opacity: 0.5; stroke-width: 0.2"/>
   </g>
   <g id="line2d_38">
    <path d="M 84.186875 124.704 
L 753.786875 124.704 
" clip-path="url(#p5edd39cd88)" style="fill: none; stroke-dasharray: 0.74,0.32; stroke-dashoffset: 0; stroke: #a9a9a9; stroke-opacity: 0.5; stroke-width: 0.2"/>
   </g>
   <g id="line2d_39">
    <path d="M 84.186875 102.528 
L 753.786875 102.528 
" clip-path="url(#p5edd39cd88)" style="fill: none; stroke-dasharray: 0.74,0.32; stroke-dashoffset: 0; stroke: #a9a9a9; stroke-opacity: 0.5; stroke-width: 0.2"/>
   </g>
   <g id="line2d_40">
    <path d="M 84.186875 80.352 
L 753.786875 80.352 
" clip-path="url(#p5edd39cd88)" style="fill: none; stroke-dasharray: 0.74,0.32; stroke-dashoffset: 0; stroke: #a9a9a9; stroke-opacity: 0.5; stroke-width: 0.2"/>
   </g>
   <g id="line2d_41">
    <path d="M 84.186875 58.176 
L 753.786875 58.176 
" clip-path="url(#p5edd39cd88)" style="fill: none; stroke-dasharray: 0.74,0.32; stroke-dashoffset: 0; stroke: #a9a9a9; stroke-opacity: 0.5; stroke-width: 0.2"/>
   </g>
   <g id="matplotlib.axis_1">
    <g id="xtick_1">
     <g id="line2d_42">
      <defs>
       <path id="m867311de6f" d="M 0 0 
L 0 5 
" style="stroke: #000000"/>
      </defs>
      <g>
       <use xlink:href="#m867311de6f" x="98.136875" y="257.76" style="stroke: #000000"/>
      </g>
     </g>
     <g id="text_1">
      <!-- 1:00 -->
      <g transform="translate(101.239063 289.613125) rotate(-90) scale(0.12 -0.12)">
       <defs>
        <path id="ArialMT-31" d="M 2384 0 
L 1822 0 
L 1822 3584 
Q 1619 3391 1289 3197 
Q 959 3003 697 2906 
L 697 3450 
Q 1169 3672 1522 3987 
Q 1875 4303 2022 4600 
L 2384 4600 
L 2384 0 
z
" transform="scale(0.015625)"/>
        <path id="ArialMT-3a" d="M 578 2678 
L 578 3319 
L 1219 3319 
L 1219 2678 
L 578 2678 
z
M 578 0 
L 578 641 
L 1219 641 
L 1219 0 
L 578 0 
z
" transform="scale(0.015625)"/>
        <path id="ArialMT-30" d="M 266 2259 
Q 266 3072 433 3567 
Q 600 4063 929 4331 
Q 1259 4600 1759 4600 
Q 2128 4600 2406 4451 
Q 2684 4303 2865 4023 
Q 3047 3744 3150 3342 
Q 3253 2941 3253 2259 
Q 3253 1453 3087 958 
Q 2922 463 2592 192 
Q 2263 -78 1759 -78 
Q 1097 -78 719 397 
Q 266 969 266 2259 
z
M 844 2259 
Q 844 1131 1108 757 
Q 1372 384 1759 384 
Q 2147 384 2411 759 
Q 2675 1134 2675 2259 
Q 2675 3391 2411 3762 
Q 2147 4134 1753 4134 
Q 1366 4134 1134 3806 
Q 844 3388 844 2259 
z
" transform="scale(0.015625)"/>
       </defs>
       <use xlink:href="#ArialMT-31"/>
       <use xlink:href="#ArialMT-3a" transform="translate(55.615234 0)"/>
       <use xlink:href="#ArialMT-30" transform="translate(83.398438 0)"/>
       <use xlink:href="#ArialMT-30" transform="translate(139.013672 0)"/>
      </g>
     </g>
    </g>
    <g id="xtick_2">
     <g id="line2d_43">
      <g>
       <use xlink:href="#m867311de6f" x="126.036875" y="257.76" style="stroke: #000000"/>
      </g>
     </g>
     <g id="text_2">
      <!-- 2:00 -->
      <g transform="translate(129.139063 289.613125) rotate(-90) scale(0.12 -0.12)">
       <defs>
        <path id="ArialMT-32" d="M 3222 541 
L 3222 0 
L 194 0 
Q 188 203 259 391 
Q 375 700 629 1000 
Q 884 1300 1366 1694 
Q 2113 2306 2375 2664 
Q 2638 3022 2638 3341 
Q 2638 3675 2398 3904 
Q 2159 4134 1775 4134 
Q 1369 4134 1125 3890 
Q 881 3647 878 3216 
L 300 3275 
Q 359 3922 746 4261 
Q 1134 4600 1788 4600 
Q 2447 4600 2831 4234 
Q 3216 3869 3216 3328 
Q 3216 3053 3103 2787 
Q 2991 2522 2730 2228 
Q 2469 1934 1863 1422 
Q 1356 997 1212 845 
Q 1069 694 975 541 
L 3222 541 
z
" transform="scale(0.015625)"/>
       </defs>
       <use xlink:href="#ArialMT-32"/>
       <use xlink:href="#ArialMT-3a" transform="translate(55.615234 0)"/>
       <use xlink:href="#ArialMT-30" transform="translate(83.398438 0)"/>
       <use xlink:href="#ArialMT-30" transform="translate(139.013672 0)"/>
      </g>
     </g>
    </g>
    <g id="xtick_3">
     <g id="line2d_44">
      <g>
       <use xlink:href="#m867311de6f" x="153.936875" y="257.76" style="stroke: #000000"/>
      </g>
     </g>
     <g id="text_3">
      <!-- 3:00 -->
      <g transform="translate(157.039062 289.613125) rotate(-90) scale(0.12 -0.12)">
       <defs>
        <path id="ArialMT-33" d="M 269 1209 
L 831 1284 
Q 928 806 1161 595 
Q 1394 384 1728 384 
Q 2125 384 2398 659 
Q 2672 934 2672 1341 
Q 2672 1728 2419 1979 
Q 2166 2231 1775 2231 
Q 1616 2231 1378 2169 
L 1441 2663 
Q 1497 2656 1531 2656 
Q 1891 2656 2178 2843 
Q 2466 3031 2466 3422 
Q 2466 3731 2256 3934 
Q 2047 4138 1716 4138 
Q 1388 4138 1169 3931 
Q 950 3725 888 3313 
L 325 3413 
Q 428 3978 793 4289 
Q 1159 4600 1703 4600 
Q 2078 4600 2393 4439 
Q 2709 4278 2876 4000 
Q 3044 3722 3044 3409 
Q 3044 3113 2884 2869 
Q 2725 2625 2413 2481 
Q 2819 2388 3044 2092 
Q 3269 1797 3269 1353 
Q 3269 753 2831 336 
Q 2394 -81 1725 -81 
Q 1122 -81 723 278 
Q 325 638 269 1209 
z
" transform="scale(0.015625)"/>
       </defs>
       <use xlink:href="#ArialMT-33"/>
       <use xlink:href="#ArialMT-3a" transform="translate(55.615234 0)"/>
       <use xlink:href="#ArialMT-30" transform="translate(83.398438 0)"/>
       <use xlink:href="#ArialMT-30" transform="translate(139.013672 0)"/>
      </g>
     </g>
    </g>
    <g id="xtick_4">
     <g id="line2d_45">
      <g>
       <use xlink:href="#m867311de6f" x="181.836875" y="257.76" style="stroke: #000000"/>
      </g>
     </g>
     <g id="text_4">
      <!-- 4:00 -->
      <g transform="translate(184.939062 289.613125) rotate(-90) scale(0.12 -0.12)">
       <defs>
        <path id="ArialMT-34" d="M 2069 0 
L 2069 1097 
L 81 1097 
L 81 1613 
L 2172 4581 
L 2631 4581 
L 2631 1613 
L 3250 1613 
L 3250 1097 
L 2631 1097 
L 2631 0 
L 2069 0 
z
M 2069 1613 
L 2069 3678 
L 634 1613 
L 2069 1613 
z
" transform="scale(0.015625)"/>
       </defs>
       <use xlink:href="#ArialMT-34"/>
       <use xlink:href="#ArialMT-3a" transform="translate(55.615234 0)"/>
       <use xlink:href="#ArialMT-30" transform="translate(83.398438 0)"/>
       <use xlink:href="#ArialMT-30" transform="translate(139.013672 0)"/>
      </g>
     </g>
    </g>
    <g id="xtick_5">
     <g id="line2d_46">
      <g>
       <use xlink:href="#m867311de6f" x="209.736875" y="257.76" style="stroke: #000000"/>
      </g>
     </g>
     <g id="text_5">
      <!-- 5:00 -->
      <g transform="translate(212.839063 289.613125) rotate(-90) scale(0.12 -0.12)">
       <defs>
        <path id="ArialMT-35" d="M 266 1200 
L 856 1250 
Q 922 819 1161 601 
Q 1400 384 1738 384 
Q 2144 384 2425 690 
Q 2706 997 2706 1503 
Q 2706 1984 2436 2262 
Q 2166 2541 1728 2541 
Q 1456 2541 1237 2417 
Q 1019 2294 894 2097 
L 366 2166 
L 809 4519 
L 3088 4519 
L 3088 3981 
L 1259 3981 
L 1013 2750 
Q 1425 3038 1878 3038 
Q 2478 3038 2890 2622 
Q 3303 2206 3303 1553 
Q 3303 931 2941 478 
Q 2500 -78 1738 -78 
Q 1113 -78 717 272 
Q 322 622 266 1200 
z
" transform="scale(0.015625)"/>
       </defs>
       <use xlink:href="#ArialMT-35"/>
       <use xlink:href="#ArialMT-3a" transform="translate(55.615234 0)"/>
       <use xlink:href="#ArialMT-30" transform="translate(83.398438 0)"/>
       <use xlink:href="#ArialMT-30" transform="translate(139.013672 0)"/>
      </g>
     </g>
    </g>
    <g id="xtick_6">
     <g id="line2d_47">
      <g>
       <use xlink:href="#m867311de6f" x="237.636875" y="257.76" style="stroke: #000000"/>
      </g>
     </g>
     <g id="text_6">
      <!-- 6:00 -->
      <g transform="translate(240.739062 289.613125) rotate(-90) scale(0.12 -0.12)">
       <defs>
        <path id="ArialMT-36" d="M 3184 3459 
L 2625 3416 
Q 2550 3747 2413 3897 
Q 2184 4138 1850 4138 
Q 1581 4138 1378 3988 
Q 1113 3794 959 3422 
Q 806 3050 800 2363 
Q 1003 2672 1297 2822 
Q 1591 2972 1913 2972 
Q 2475 2972 2870 2558 
Q 3266 2144 3266 1488 
Q 3266 1056 3080 686 
Q 2894 316 2569 119 
Q 2244 -78 1831 -78 
Q 1128 -78 684 439 
Q 241 956 241 2144 
Q 241 3472 731 4075 
Q 1159 4600 1884 4600 
Q 2425 4600 2770 4297 
Q 3116 3994 3184 3459 
z
M 888 1484 
Q 888 1194 1011 928 
Q 1134 663 1356 523 
Q 1578 384 1822 384 
Q 2178 384 2434 671 
Q 2691 959 2691 1453 
Q 2691 1928 2437 2201 
Q 2184 2475 1800 2475 
Q 1419 2475 1153 2201 
Q 888 1928 888 1484 
z
" transform="scale(0.015625)"/>
       </defs>
       <use xlink:href="#ArialMT-36"/>
       <use xlink:href="#ArialMT-3a" transform="translate(55.615234 0)"/>
       <use xlink:href="#ArialMT-30" transform="translate(83.398438 0)"/>
       <use xlink:href="#ArialMT-30" transform="translate(139.013672 0)"/>
      </g>
     </g>
    </g>
    <g id="xtick_7">
     <g id="line2d_48">
      <g>
       <use xlink:href="#m867311de6f" x="265.536875" y="257.76" style="stroke: #000000"/>
      </g>
     </g>
     <g id="text_7">
      <!-- 7:00 -->
      <g transform="translate(268.639063 289.613125) rotate(-90) scale(0.12 -0.12)">
       <defs>
        <path id="ArialMT-37" d="M 303 3981 
L 303 4522 
L 3269 4522 
L 3269 4084 
Q 2831 3619 2401 2847 
Q 1972 2075 1738 1259 
Q 1569 684 1522 0 
L 944 0 
Q 953 541 1156 1306 
Q 1359 2072 1739 2783 
Q 2119 3494 2547 3981 
L 303 3981 
z
" transform="scale(0.015625)"/>
       </defs>
       <use xlink:href="#ArialMT-37"/>
       <use xlink:href="#ArialMT-3a" transform="translate(55.615234 0)"/>
       <use xlink:href="#ArialMT-30" transform="translate(83.398438 0)"/>
       <use xlink:href="#ArialMT-30" transform="translate(139.013672 0)"/>
      </g>
     </g>
    </g>
    <g id="xtick_8">
     <g id="line2d_49">
      <g>
       <use xlink:href="#m867311de6f" x="293.436875" y="257.76" style="stroke: #000000"/>
      </g>
     </g>
     <g id="text_8">
      <!-- 8:00 -->
      <g transform="translate(296.539062 289.613125) rotate(-90) scale(0.12 -0.12)">
       <defs>
        <path id="ArialMT-38" d="M 1131 2484 
Q 781 2613 612 2850 
Q 444 3088 444 3419 
Q 444 3919 803 4259 
Q 1163 4600 1759 4600 
Q 2359 4600 2725 4251 
Q 3091 3903 3091 3403 
Q 3091 3084 2923 2848 
Q 2756 2613 2416 2484 
Q 2838 2347 3058 2040 
Q 3278 1734 3278 1309 
Q 3278 722 2862 322 
Q 2447 -78 1769 -78 
Q 1091 -78 675 323 
Q 259 725 259 1325 
Q 259 1772 486 2073 
Q 713 2375 1131 2484 
z
M 1019 3438 
Q 1019 3113 1228 2906 
Q 1438 2700 1772 2700 
Q 2097 2700 2305 2904 
Q 2513 3109 2513 3406 
Q 2513 3716 2298 3927 
Q 2084 4138 1766 4138 
Q 1444 4138 1231 3931 
Q 1019 3725 1019 3438 
z
M 838 1322 
Q 838 1081 952 856 
Q 1066 631 1291 507 
Q 1516 384 1775 384 
Q 2178 384 2440 643 
Q 2703 903 2703 1303 
Q 2703 1709 2433 1975 
Q 2163 2241 1756 2241 
Q 1359 2241 1098 1978 
Q 838 1716 838 1322 
z
" transform="scale(0.015625)"/>
       </defs>
       <use xlink:href="#ArialMT-38"/>
       <use xlink:href="#ArialMT-3a" transform="translate(55.615234 0)"/>
       <use xlink:href="#ArialMT-30" transform="translate(83.398438 0)"/>
       <use xlink:href="#ArialMT-30" transform="translate(139.013672 0)"/>
      </g>
     </g>
    </g>
    <g id="xtick_9">
     <g id="line2d_50">
      <g>
       <use xlink:href="#m867311de6f" x="321.336875" y="257.76" style="stroke: #000000"/>
      </g>
     </g>
     <g id="text_9">
      <!-- 9:00 -->
      <g transform="translate(324.439062 289.613125) rotate(-90) scale(0.12 -0.12)">
       <defs>
        <path id="ArialMT-39" d="M 350 1059 
L 891 1109 
Q 959 728 1153 556 
Q 1347 384 1650 384 
Q 1909 384 2104 503 
Q 2300 622 2425 820 
Q 2550 1019 2634 1356 
Q 2719 1694 2719 2044 
Q 2719 2081 2716 2156 
Q 2547 1888 2255 1720 
Q 1963 1553 1622 1553 
Q 1053 1553 659 1965 
Q 266 2378 266 3053 
Q 266 3750 677 4175 
Q 1088 4600 1706 4600 
Q 2153 4600 2523 4359 
Q 2894 4119 3086 3673 
Q 3278 3228 3278 2384 
Q 3278 1506 3087 986 
Q 2897 466 2520 194 
Q 2144 -78 1638 -78 
Q 1100 -78 759 220 
Q 419 519 350 1059 
z
M 2653 3081 
Q 2653 3566 2395 3850 
Q 2138 4134 1775 4134 
Q 1400 4134 1122 3828 
Q 844 3522 844 3034 
Q 844 2597 1108 2323 
Q 1372 2050 1759 2050 
Q 2150 2050 2401 2323 
Q 2653 2597 2653 3081 
z
" transform="scale(0.015625)"/>
       </defs>
       <use xlink:href="#ArialMT-39"/>
       <use xlink:href="#ArialMT-3a" transform="translate(55.615234 0)"/>
       <use xlink:href="#ArialMT-30" transform="translate(83.398438 0)"/>
       <use xlink:href="#ArialMT-30" transform="translate(139.013672 0)"/>
      </g>
     </g>
    </g>
    <g id="xtick_10">
     <g id="line2d_51">
      <g>
       <use xlink:href="#m867311de6f" x="349.236875" y="257.76" style="stroke: #000000"/>
      </g>
     </g>
     <g id="text_10">
      <!-- 10:00 -->
      <g transform="translate(352.339063 296.28625) rotate(-90) scale(0.12 -0.12)">
       <use xlink:href="#ArialMT-31"/>
       <use xlink:href="#ArialMT-30" transform="translate(55.615234 0)"/>
       <use xlink:href="#ArialMT-3a" transform="translate(111.230469 0)"/>
       <use xlink:href="#ArialMT-30" transform="translate(139.013672 0)"/>
       <use xlink:href="#ArialMT-30" transform="translate(194.628906 0)"/>
      </g>
     </g>
    </g>
    <g id="xtick_11">
     <g id="line2d_52">
      <g>
       <use xlink:href="#m867311de6f" x="377.136875" y="257.76" style="stroke: #000000"/>
      </g>
     </g>
     <g id="text_11">
      <!-- 11:00 -->
      <g transform="translate(380.239063 295.40125) rotate(-90) scale(0.12 -0.12)">
       <use xlink:href="#ArialMT-31"/>
       <use xlink:href="#ArialMT-31" transform="translate(48.240234 0)"/>
       <use xlink:href="#ArialMT-3a" transform="translate(103.855469 0)"/>
       <use xlink:href="#ArialMT-30" transform="translate(131.638672 0)"/>
       <use xlink:href="#ArialMT-30" transform="translate(187.253906 0)"/>
      </g>
     </g>
    </g>
    <g id="xtick_12">
     <g id="line2d_53">
      <g>
       <use xlink:href="#m867311de6f" x="405.036875" y="257.76" style="stroke: #000000"/>
      </g>
     </g>
     <g id="text_12">
      <!-- 12:00 -->
      <g transform="translate(408.139063 296.28625) rotate(-90) scale(0.12 -0.12)">
       <use xlink:href="#ArialMT-31"/>
       <use xlink:href="#ArialMT-32" transform="translate(55.615234 0)"/>
       <use xlink:href="#ArialMT-3a" transform="translate(111.230469 0)"/>
       <use xlink:href="#ArialMT-30" transform="translate(139.013672 0)"/>
       <use xlink:href="#ArialMT-30" transform="translate(194.628906 0)"/>
      </g>
     </g>
    </g>
    <g id="xtick_13">
     <g id="line2d_54">
      <g>
       <use xlink:href="#m867311de6f" x="432.936875" y="257.76" style="stroke: #000000"/>
      </g>
     </g>
     <g id="text_13">
      <!-- 13:00 -->
      <g transform="translate(436.039062 296.28625) rotate(-90) scale(0.12 -0.12)">
       <use xlink:href="#ArialMT-31"/>
       <use xlink:href="#ArialMT-33" transform="translate(55.615234 0)"/>
       <use xlink:href="#ArialMT-3a" transform="translate(111.230469 0)"/>
       <use xlink:href="#ArialMT-30" transform="translate(139.013672 0)"/>
       <use xlink:href="#ArialMT-30" transform="translate(194.628906 0)"/>
      </g>
     </g>
    </g>
    <g id="xtick_14">
     <g id="line2d_55">
      <g>
       <use xlink:href="#m867311de6f" x="460.836875" y="257.76" style="stroke: #000000"/>
      </g>
     </g>
     <g id="text_14">
      <!-- 14:00 -->
      <g transform="translate(463.939062 296.28625) rotate(-90) scale(0.12 -0.12)">
       <use xlink:href="#ArialMT-31"/>
       <use xlink:href="#ArialMT-34" transform="translate(55.615234 0)"/>
       <use xlink:href="#ArialMT-3a" transform="translate(111.230469 0)"/>
       <use xlink:href="#ArialMT-30" transform="translate(139.013672 0)"/>
       <use xlink:href="#ArialMT-30" transform="translate(194.628906 0)"/>
      </g>
     </g>
    </g>
    <g id="xtick_15">
     <g id="line2d_56">
      <g>
       <use xlink:href="#m867311de6f" x="488.736875" y="257.76" style="stroke: #000000"/>
      </g>
     </g>
     <g id="text_15">
      <!-- 15:00 -->
      <g transform="translate(491.839062 296.28625) rotate(-90) scale(0.12 -0.12)">
       <use xlink:href="#ArialMT-31"/>
       <use xlink:href="#ArialMT-35" transform="translate(55.615234 0)"/>
       <use xlink:href="#ArialMT-3a" transform="translate(111.230469 0)"/>
       <use xlink:href="#ArialMT-30" transform="translate(139.013672 0)"/>
       <use xlink:href="#ArialMT-30" transform="translate(194.628906 0)"/>
      </g>
     </g>
    </g>
    <g id="xtick_16">
     <g id="line2d_57">
      <g>
       <use xlink:href="#m867311de6f" x="516.636875" y="257.76" style="stroke: #000000"/>
      </g>
     </g>
     <g id="text_16">
      <!-- 16:00 -->
      <g transform="translate(519.739063 296.28625) rotate(-90) scale(0.12 -0.12)">
       <use xlink:href="#ArialMT-31"/>
       <use xlink:href="#ArialMT-36" transform="translate(55.615234 0)"/>
       <use xlink:href="#ArialMT-3a" transform="translate(111.230469 0)"/>
       <use xlink:href="#ArialMT-30" transform="translate(139.013672 0)"/>
       <use xlink:href="#ArialMT-30" transform="translate(194.628906 0)"/>
      </g>
     </g>
    </g>
    <g id="xtick_17">
     <g id="line2d_58">
      <g>
       <use xlink:href="#m867311de6f" x="544.536875" y="257.76" style="stroke: #000000"/>
      </g>
     </g>
     <g id="text_17">
      <!-- 17:00 -->
      <g transform="translate(547.639063 296.28625) rotate(-90) scale(0.12 -0.12)">
       <use xlink:href="#ArialMT-31"/>
       <use xlink:href="#ArialMT-37" transform="translate(55.615234 0)"/>
       <use xlink:href="#ArialMT-3a" transform="translate(111.230469 0)"/>
       <use xlink:href="#ArialMT-30" transform="translate(139.013672 0)"/>
       <use xlink:href="#ArialMT-30" transform="translate(194.628906 0)"/>
      </g>
     </g>
    </g>
    <g id="xtick_18">
     <g id="line2d_59">
      <g>
       <use xlink:href="#m867311de6f" x="572.436875" y="257.76" style="stroke: #000000"/>
      </g>
     </g>
     <g id="text_18">
      <!-- 18:00 -->
      <g transform="translate(575.539062 296.28625) rotate(-90) scale(0.12 -0.12)">
       <use xlink:href="#ArialMT-31"/>
       <use xlink:href="#ArialMT-38" transform="translate(55.615234 0)"/>
       <use xlink:href="#ArialMT-3a" transform="translate(111.230469 0)"/>
       <use xlink:href="#ArialMT-30" transform="translate(139.013672 0)"/>
       <use xlink:href="#ArialMT-30" transform="translate(194.628906 0)"/>
      </g>
     </g>
    </g>
    <g id="xtick_19">
     <g id="line2d_60">
      <g>
       <use xlink:href="#m867311de6f" x="600.336875" y="257.76" style="stroke: #000000"/>
      </g>
     </g>
     <g id="text_19">
      <!-- 19:00 -->
      <g transform="translate(603.439062 296.28625) rotate(-90) scale(0.12 -0.12)">
       <use xlink:href="#ArialMT-31"/>
       <use xlink:href="#ArialMT-39" transform="translate(55.615234 0)"/>
       <use xlink:href="#ArialMT-3a" transform="translate(111.230469 0)"/>
       <use xlink:href="#ArialMT-30" transform="translate(139.013672 0)"/>
       <use xlink:href="#ArialMT-30" transform="translate(194.628906 0)"/>
      </g>
     </g>
    </g>
    <g id="xtick_20">
     <g id="line2d_61">
      <g>
       <use xlink:href="#m867311de6f" x="628.236875" y="257.76" style="stroke: #000000"/>
      </g>
     </g>
     <g id="text_20">
      <!-- 20:00 -->
      <g transform="translate(631.339063 296.28625) rotate(-90) scale(0.12 -0.12)">
       <use xlink:href="#ArialMT-32"/>
       <use xlink:href="#ArialMT-30" transform="translate(55.615234 0)"/>
       <use xlink:href="#ArialMT-3a" transform="translate(111.230469 0)"/>
       <use xlink:href="#ArialMT-30" transform="translate(139.013672 0)"/>
       <use xlink:href="#ArialMT-30" transform="translate(194.628906 0)"/>
      </g>
     </g>
    </g>
    <g id="xtick_21">
     <g id="line2d_62">
      <g>
       <use xlink:href="#m867311de6f" x="656.136875" y="257.76" style="stroke: #000000"/>
      </g>
     </g>
     <g id="text_21">
      <!-- 21:00 -->
      <g transform="translate(659.239063 296.28625) rotate(-90) scale(0.12 -0.12)">
       <use xlink:href="#ArialMT-32"/>
       <use xlink:href="#ArialMT-31" transform="translate(55.615234 0)"/>
       <use xlink:href="#ArialMT-3a" transform="translate(111.230469 0)"/>
       <use xlink:href="#ArialMT-30" transform="translate(139.013672 0)"/>
       <use xlink:href="#ArialMT-30" transform="translate(194.628906 0)"/>
      </g>
     </g>
    </g>
    <g id="xtick_22">
     <g id="line2d_63">
      <g>
       <use xlink:href="#m867311de6f" x="684.036875" y="257.76" style="stroke: #000000"/>
      </g>
     </g>
     <g id="text_22">
      <!-- 22:00 -->
      <g transform="translate(687.139063 296.28625) rotate(-90) scale(0.12 -0.12)">
       <use xlink:href="#ArialMT-32"/>
       <use xlink:href="#ArialMT-32" transform="translate(55.615234 0)"/>
       <use xlink:href="#ArialMT-3a" transform="translate(111.230469 0)"/>
       <use xlink:href="#ArialMT-30" transform="translate(139.013672 0)"/>
       <use xlink:href="#ArialMT-30" transform="translate(194.628906 0)"/>
      </g>
     </g>
    </g>
    <g id="xtick_23">
     <g id="line2d_64">
      <g>
       <use xlink:href="#m867311de6f" x="711.936875" y="257.76" style="stroke: #000000"/>
      </g>
     </g>
     <g id="text_23">
      <!-- 23:00 -->
      <g transform="translate(715.039062 296.28625) rotate(-90) scale(0.12 -0.12)">
       <use xlink:href="#ArialMT-32"/>
       <use xlink:href="#ArialMT-33" transform="translate(55.615234 0)"/>
       <use xlink:href="#ArialMT-3a" transform="translate(111.230469 0)"/>
       <use xlink:href="#ArialMT-30" transform="translate(139.013672 0)"/>
       <use xlink:href="#ArialMT-30" transform="translate(194.628906 0)"/>
      </g>
     </g>
    </g>
    <g id="xtick_24">
     <g id="line2d_65">
      <g>
       <use xlink:href="#m867311de6f" x="739.836875" y="257.76" style="stroke: #000000"/>
      </g>
     </g>
     <g id="text_24">
      <!-- 24:00 -->
      <g transform="translate(742.939062 296.28625) rotate(-90) scale(0.12 -0.12)">
       <use xlink:href="#ArialMT-32"/>
       <use xlink:href="#ArialMT-34" transform="translate(55.615234 0)"/>
       <use xlink:href="#ArialMT-3a" transform="translate(111.230469 0)"/>
       <use xlink:href="#ArialMT-30" transform="translate(139.013672 0)"/>
       <use xlink:href="#ArialMT-30" transform="translate(194.628906 0)"/>
      </g>
     </g>
    </g>
   </g>
   <g id="matplotlib.axis_2">
    <g id="ytick_1">
     <g id="line2d_66">
      <defs>
       <path id="m231b702b4e" d="M 0 0 
L -5 0 
" style="stroke: #000000; stroke-opacity: 0; stroke-width: 1.5"/>
      </defs>
      <g>
       <use xlink:href="#m231b702b4e" x="84.186875" y="245.088" style="fill-opacity: 0; stroke: #000000; stroke-opacity: 0; stroke-width: 1.5"/>
      </g>
     </g>
     <g id="text_25">
      <!-- 0 -->
      <g transform="translate(66.789375 250.81425) scale(0.16 -0.16)">
       <use xlink:href="#ArialMT-30"/>
      </g>
     </g>
    </g>
    <g id="ytick_2">
     <g id="line2d_67">
      <g>
       <use xlink:href="#m231b702b4e" x="84.186875" y="197.568" style="fill-opacity: 0; stroke: #000000; stroke-opacity: 0; stroke-width: 1.5"/>
      </g>
     </g>
     <g id="text_26">
      <!-- 3 -->
      <g transform="translate(66.789375 203.29425) scale(0.16 -0.16)">
       <use xlink:href="#ArialMT-33"/>
      </g>
     </g>
    </g>
    <g id="ytick_3">
     <g id="line2d_68">
      <g>
       <use xlink:href="#m231b702b4e" x="84.186875" y="150.048" style="fill-opacity: 0; stroke: #000000; stroke-opacity: 0; stroke-width: 1.5"/>
      </g>
     </g>
     <g id="text_27">
      <!-- 6 -->
      <g transform="translate(66.789375 155.77425) scale(0.16 -0.16)">
       <use xlink:href="#ArialMT-36"/>
      </g>
     </g>
    </g>
    <g id="ytick_4">
     <g id="line2d_69">
      <g>
       <use xlink:href="#m231b702b4e" x="84.186875" y="102.528" style="fill-opacity: 0; stroke: #000000; stroke-opacity: 0; stroke-width: 1.5"/>
      </g>
     </g>
     <g id="text_28">
      <!-- 9 -->
      <g transform="translate(66.789375 108.25425) scale(0.16 -0.16)">
       <use xlink:href="#ArialMT-39"/>
      </g>
     </g>
    </g>
    <g id="ytick_5">
     <g id="line2d_70">
      <g>
       <use xlink:href="#m231b702b4e" x="84.186875" y="55.008" style="fill-opacity: 0; stroke: #000000; stroke-opacity: 0; stroke-width: 1.5"/>
      </g>
     </g>
     <g id="text_29">
      <!-- 12 -->
      <g transform="translate(57.891875 60.73425) scale(0.16 -0.16)">
       <use xlink:href="#ArialMT-31"/>
       <use xlink:href="#ArialMT-32" transform="translate(55.615234 0)"/>
      </g>
     </g>
    </g>
    <g id="text_30">
     <!-- PM2.5_Tires (gm) -->
     <g transform="translate(49.103437 218.550937) rotate(-90) scale(0.18 -0.18)">
      <defs>
       <path id="ArialMT-50" d="M 494 0 
L 494 4581 
L 2222 4581 
Q 2678 4581 2919 4538 
Q 3256 4481 3484 4323 
Q 3713 4166 3852 3881 
Q 3991 3597 3991 3256 
Q 3991 2672 3619 2267 
Q 3247 1863 2275 1863 
L 1100 1863 
L 1100 0 
L 494 0 
z
M 1100 2403 
L 2284 2403 
Q 2872 2403 3119 2622 
Q 3366 2841 3366 3238 
Q 3366 3525 3220 3729 
Q 3075 3934 2838 4000 
Q 2684 4041 2272 4041 
L 1100 4041 
L 1100 2403 
z
" transform="scale(0.015625)"/>
       <path id="ArialMT-4d" d="M 475 0 
L 475 4581 
L 1388 4581 
L 2472 1338 
Q 2622 884 2691 659 
Q 2769 909 2934 1394 
L 4031 4581 
L 4847 4581 
L 4847 0 
L 4263 0 
L 4263 3834 
L 2931 0 
L 2384 0 
L 1059 3900 
L 1059 0 
L 475 0 
z
" transform="scale(0.015625)"/>
       <path id="ArialMT-2e" d="M 581 0 
L 581 641 
L 1222 641 
L 1222 0 
L 581 0 
z
" transform="scale(0.015625)"/>
       <path id="ArialMT-5f" d="M -97 -1272 
L -97 -866 
L 3631 -866 
L 3631 -1272 
L -97 -1272 
z
" transform="scale(0.015625)"/>
       <path id="ArialMT-54" d="M 1659 0 
L 1659 4041 
L 150 4041 
L 150 4581 
L 3781 4581 
L 3781 4041 
L 2266 4041 
L 2266 0 
L 1659 0 
z
" transform="scale(0.015625)"/>
       <path id="ArialMT-69" d="M 425 3934 
L 425 4581 
L 988 4581 
L 988 3934 
L 425 3934 
z
M 425 0 
L 425 3319 
L 988 3319 
L 988 0 
L 425 0 
z
" transform="scale(0.015625)"/>
       <path id="ArialMT-72" d="M 416 0 
L 416 3319 
L 922 3319 
L 922 2816 
Q 1116 3169 1280 3281 
Q 1444 3394 1641 3394 
Q 1925 3394 2219 3213 
L 2025 2691 
Q 1819 2813 1613 2813 
Q 1428 2813 1281 2702 
Q 1134 2591 1072 2394 
Q 978 2094 978 1738 
L 978 0 
L 416 0 
z
" transform="scale(0.015625)"/>
       <path id="ArialMT-65" d="M 2694 1069 
L 3275 997 
Q 3138 488 2766 206 
Q 2394 -75 1816 -75 
Q 1088 -75 661 373 
Q 234 822 234 1631 
Q 234 2469 665 2931 
Q 1097 3394 1784 3394 
Q 2450 3394 2872 2941 
Q 3294 2488 3294 1666 
Q 3294 1616 3291 1516 
L 816 1516 
Q 847 969 1125 678 
Q 1403 388 1819 388 
Q 2128 388 2347 550 
Q 2566 713 2694 1069 
z
M 847 1978 
L 2700 1978 
Q 2663 2397 2488 2606 
Q 2219 2931 1791 2931 
Q 1403 2931 1139 2672 
Q 875 2413 847 1978 
z
" transform="scale(0.015625)"/>
       <path id="ArialMT-73" d="M 197 991 
L 753 1078 
Q 800 744 1014 566 
Q 1228 388 1613 388 
Q 2000 388 2187 545 
Q 2375 703 2375 916 
Q 2375 1106 2209 1216 
Q 2094 1291 1634 1406 
Q 1016 1563 777 1677 
Q 538 1791 414 1992 
Q 291 2194 291 2438 
Q 291 2659 392 2848 
Q 494 3038 669 3163 
Q 800 3259 1026 3326 
Q 1253 3394 1513 3394 
Q 1903 3394 2198 3281 
Q 2494 3169 2634 2976 
Q 2775 2784 2828 2463 
L 2278 2388 
Q 2241 2644 2061 2787 
Q 1881 2931 1553 2931 
Q 1166 2931 1000 2803 
Q 834 2675 834 2503 
Q 834 2394 903 2306 
Q 972 2216 1119 2156 
Q 1203 2125 1616 2013 
Q 2213 1853 2448 1751 
Q 2684 1650 2818 1456 
Q 2953 1263 2953 975 
Q 2953 694 2789 445 
Q 2625 197 2315 61 
Q 2006 -75 1616 -75 
Q 969 -75 630 194 
Q 291 463 197 991 
z
" transform="scale(0.015625)"/>
       <path id="ArialMT-20" transform="scale(0.015625)"/>
       <path id="ArialMT-28" d="M 1497 -1347 
Q 1031 -759 709 28 
Q 388 816 388 1659 
Q 388 2403 628 3084 
Q 909 3875 1497 4659 
L 1900 4659 
Q 1522 4009 1400 3731 
Q 1209 3300 1100 2831 
Q 966 2247 966 1656 
Q 966 153 1900 -1347 
L 1497 -1347 
z
" transform="scale(0.015625)"/>
       <path id="ArialMT-67" d="M 319 -275 
L 866 -356 
Q 900 -609 1056 -725 
Q 1266 -881 1628 -881 
Q 2019 -881 2231 -725 
Q 2444 -569 2519 -288 
Q 2563 -116 2559 434 
Q 2191 0 1641 0 
Q 956 0 581 494 
Q 206 988 206 1678 
Q 206 2153 378 2554 
Q 550 2956 876 3175 
Q 1203 3394 1644 3394 
Q 2231 3394 2613 2919 
L 2613 3319 
L 3131 3319 
L 3131 450 
Q 3131 -325 2973 -648 
Q 2816 -972 2473 -1159 
Q 2131 -1347 1631 -1347 
Q 1038 -1347 672 -1080 
Q 306 -813 319 -275 
z
M 784 1719 
Q 784 1066 1043 766 
Q 1303 466 1694 466 
Q 2081 466 2343 764 
Q 2606 1063 2606 1700 
Q 2606 2309 2336 2618 
Q 2066 2928 1684 2928 
Q 1309 2928 1046 2623 
Q 784 2319 784 1719 
z
" transform="scale(0.015625)"/>
       <path id="ArialMT-6d" d="M 422 0 
L 422 3319 
L 925 3319 
L 925 2853 
Q 1081 3097 1340 3245 
Q 1600 3394 1931 3394 
Q 2300 3394 2536 3241 
Q 2772 3088 2869 2813 
Q 3263 3394 3894 3394 
Q 4388 3394 4653 3120 
Q 4919 2847 4919 2278 
L 4919 0 
L 4359 0 
L 4359 2091 
Q 4359 2428 4304 2576 
Q 4250 2725 4106 2815 
Q 3963 2906 3769 2906 
Q 3419 2906 3187 2673 
Q 2956 2441 2956 1928 
L 2956 0 
L 2394 0 
L 2394 2156 
Q 2394 2531 2256 2718 
Q 2119 2906 1806 2906 
Q 1569 2906 1367 2781 
Q 1166 2656 1075 2415 
Q 984 2175 984 1722 
L 984 0 
L 422 0 
z
" transform="scale(0.015625)"/>
       <path id="ArialMT-29" d="M 791 -1347 
L 388 -1347 
Q 1322 153 1322 1656 
Q 1322 2244 1188 2822 
Q 1081 3291 891 3722 
Q 769 4003 388 4659 
L 791 4659 
Q 1378 3875 1659 3084 
Q 1900 2403 1900 1659 
Q 1900 816 1576 28 
Q 1253 -759 791 -1347 
z
" transform="scale(0.015625)"/>
      </defs>
      <use xlink:href="#ArialMT-50"/>
      <use xlink:href="#ArialMT-4d" transform="translate(66.699219 0)"/>
      <use xlink:href="#ArialMT-32" transform="translate(150 0)"/>
      <use xlink:href="#ArialMT-2e" transform="translate(205.615234 0)"/>
      <use xlink:href="#ArialMT-35" transform="translate(233.398438 0)"/>
      <use xlink:href="#ArialMT-5f" transform="translate(289.013672 0)"/>
      <use xlink:href="#ArialMT-54" transform="translate(344.628906 0)"/>
      <use xlink:href="#ArialMT-69" transform="translate(401.962891 0)"/>
      <use xlink:href="#ArialMT-72" transform="translate(424.179688 0)"/>
      <use xlink:href="#ArialMT-65" transform="translate(457.480469 0)"/>
      <use xlink:href="#ArialMT-73" transform="translate(513.095703 0)"/>
      <use xlink:href="#ArialMT-20" transform="translate(563.095703 0)"/>
      <use xlink:href="#ArialMT-28" transform="translate(590.878906 0)"/>
      <use xlink:href="#ArialMT-67" transform="translate(624.179688 0)"/>
      <use xlink:href="#ArialMT-6d" transform="translate(679.794922 0)"/>
      <use xlink:href="#ArialMT-29" transform="translate(763.095703 0)"/>
     </g>
    </g>
   </g>
   <g id="line2d_71">
    <path d="M 98.136875 238.50001 
L 126.036875 241.263323 
L 153.936875 241.876185 
L 181.836875 241.646837 
L 209.736875 238.218252 
L 237.636875 221.280938 
L 265.536875 203.921162 
L 293.436875 180.391236 
L 321.336875 171.986838 
L 349.236875 169.147498 
L 377.136875 167.636992 
L 405.036875 166.590727 
L 432.936875 166.847592 
L 460.836875 167.254127 
L 488.736875 167.47861 
L 516.636875 167.544301 
L 544.536875 167.701224 
L 572.436875 167.946979 
L 600.336875 170.55144 
L 628.236875 181.952993 
L 656.136875 196.308002 
L 684.036875 212.644552 
L 711.936875 229.076048 
L 739.836875 234.930077 
" clip-path="url(#p5edd39cd88)" style="fill: none; stroke: #1f77b4; stroke-opacity: 0.8; stroke-width: 1.5; stroke-linecap: round"/>
   </g>
   <g id="line2d_72">
    <path d="M 98.136875 239.144664 
L 126.036875 241.309456 
L 153.936875 241.760659 
L 181.836875 241.613614 
L 209.736875 239.054928 
L 237.636875 226.00549 
L 265.536875 210.84832 
L 293.436875 193.244849 
L 321.336875 187.655948 
L 349.236875 185.8789 
L 377.136875 186.700837 
L 405.036875 185.599183 
L 432.936875 185.711416 
L 460.836875 186.032979 
L 488.736875 186.245497 
L 516.636875 186.302235 
L 544.536875 186.30145 
L 572.436875 186.516694 
L 600.336875 186.677885 
L 628.236875 196.205805 
L 656.136875 207.735438 
L 684.036875 219.975963 
L 711.936875 231.735798 
L 739.836875 236.34323 
" clip-path="url(#p5edd39cd88)" style="fill: none; stroke: #dbdb8d; stroke-opacity: 0.8; stroke-width: 1.5; stroke-linecap: round"/>
   </g>
   <g id="line2d_73">
    <path d="M 98.136875 189.703375 
L 126.036875 204.312446 
L 153.936875 207.130735 
L 181.836875 206.549379 
L 209.736875 196.08481 
L 237.636875 149.422558 
L 265.536875 103.411467 
L 293.436875 84.823658 
L 321.336875 79.782753 
L 349.236875 76.746222 
L 377.136875 74.393393 
L 405.036875 71.644695 
L 432.936875 71.914891 
L 460.836875 71.714167 
L 488.736875 72.278455 
L 516.636875 72.01656 
L 544.536875 72.573302 
L 572.436875 73.759317 
L 600.336875 78.40582 
L 628.236875 87.279311 
L 656.136875 89.548305 
L 684.036875 112.152309 
L 711.936875 143.485429 
L 739.836875 164.303318 
" clip-path="url(#p5edd39cd88)" style="fill: none; stroke: #ffbb78; stroke-opacity: 0.8; stroke-width: 1.5; stroke-linecap: round"/>
   </g>
   <g id="line2d_74">
    <path d="M 98.136875 190.349394 
L 126.036875 204.97904 
L 153.936875 207.682974 
L 181.836875 206.107594 
L 209.736875 195.987081 
L 237.636875 143.3356 
L 265.536875 99.729362 
L 293.436875 83.714095 
L 321.336875 79.858265 
L 349.236875 77.706074 
L 377.136875 74.311679 
L 405.036875 72.093767 
L 432.936875 72.373281 
L 460.836875 73.115174 
L 488.736875 73.694279 
L 516.636875 74.023459 
L 544.536875 74.040994 
L 572.436875 74.885936 
L 600.336875 79.756004 
L 628.236875 88.636809 
L 656.136875 98.806015 
L 684.036875 104.424085 
L 711.936875 141.984739 
L 739.836875 163.767521 
" clip-path="url(#p5edd39cd88)" style="fill: none; stroke: #2ca02c; stroke-opacity: 0.8; stroke-width: 1.5; stroke-linecap: round"/>
   </g>
   <g id="line2d_75">
    <path d="M 98.136875 242.937758 
L 126.036875 244.042841 
L 153.936875 244.297123 
L 181.836875 244.215929 
L 209.736875 242.889543 
L 237.636875 222.854412 
L 265.536875 204.727566 
L 293.436875 183.624591 
L 321.336875 175.700516 
L 349.236875 172.789686 
L 377.136875 171.983576 
L 405.036875 171.137506 
L 432.936875 171.515007 
L 460.836875 172.335875 
L 488.736875 173.419061 
L 516.636875 173.804989 
L 544.536875 174.447926 
L 572.436875 173.799179 
L 600.336875 175.054598 
L 628.236875 186.619307 
L 656.136875 202.179246 
L 684.036875 217.618189 
L 711.936875 236.839348 
L 739.836875 240.887682 
" clip-path="url(#p5edd39cd88)" style="fill: none; stroke: #ff7f0e; stroke-opacity: 0.8; stroke-width: 1.5; stroke-linecap: round"/>
   </g>
   <g id="line2d_76">
    <path d="M 98.136875 202.900494 
L 126.036875 215.461265 
L 153.936875 217.836087 
L 181.836875 216.630497 
L 209.736875 205.722073 
L 237.636875 153.873141 
L 265.536875 105.796502 
L 293.436875 85.170206 
L 321.336875 79.541273 
L 349.236875 76.617901 
L 377.136875 73.801513 
L 405.036875 70.455567 
L 432.936875 69.155262 
L 460.836875 69.408757 
L 488.736875 68.724811 
L 516.636875 69.2286 
L 544.536875 69.402166 
L 572.436875 70.274372 
L 600.336875 77.321332 
L 628.236875 87.681345 
L 656.136875 93.248548 
L 684.036875 121.10246 
L 711.936875 156.791878 
L 739.836875 179.284013 
" clip-path="url(#p5edd39cd88)" style="fill: none; stroke: #98df8a; stroke-opacity: 0.8; stroke-width: 1.5; stroke-linecap: round"/>
   </g>
   <g id="line2d_77">
    <path d="M 98.136875 242.483624 
L 126.036875 244.05162 
L 153.936875 244.355078 
L 181.836875 244.312598 
L 209.736875 242.311293 
L 237.636875 225.486344 
L 265.536875 208.280932 
L 293.436875 185.613424 
L 321.336875 175.05347 
L 349.236875 171.469773 
L 377.136875 170.034679 
L 405.036875 169.476977 
L 432.936875 169.517973 
L 460.836875 170.037975 
L 488.736875 170.296303 
L 516.636875 170.506466 
L 544.536875 170.599783 
L 572.436875 171.26575 
L 600.336875 170.056265 
L 628.236875 189.657311 
L 656.136875 204.919277 
L 684.036875 219.933676 
L 711.936875 236.14383 
L 739.836875 240.210161 
" clip-path="url(#p5edd39cd88)" style="fill: none; stroke: #17becf; stroke-opacity: 0.8; stroke-width: 1.5; stroke-linecap: round"/>
   </g>
   <g id="line2d_78">
    <path d="M 98.136875 206.669953 
L 126.036875 219.104876 
L 153.936875 221.212467 
L 181.836875 218.124719 
L 209.736875 203.775505 
L 237.636875 139.408151 
L 265.536875 88.995785 
L 293.436875 68.730802 
L 321.336875 63.921043 
L 349.236875 61.472883 
L 377.136875 58.900638 
L 405.036875 53.627879 
L 432.936875 52.050701 
L 460.836875 51.083494 
L 488.736875 50.088581 
L 516.636875 51.263333 
L 544.536875 53.192813 
L 572.436875 54.598826 
L 600.336875 61.6494 
L 628.236875 75.09544 
L 656.136875 85.512697 
L 684.036875 112.513346 
L 711.936875 155.423311 
L 739.836875 180.036743 
" clip-path="url(#p5edd39cd88)" style="fill: none; stroke: #d62728; stroke-opacity: 0.8; stroke-width: 1.5; stroke-linecap: round"/>
   </g>
   <g id="line2d_79">
    <path d="M 98.136875 225.907091 
L 126.036875 233.070076 
L 153.936875 234.298386 
L 181.836875 233.069618 
L 209.736875 225.87889 
L 237.636875 187.467451 
L 265.536875 150.582522 
L 293.436875 134.862212 
L 321.336875 131.656194 
L 349.236875 130.813352 
L 377.136875 129.828005 
L 405.036875 128.021392 
L 432.936875 127.430629 
L 460.836875 127.256145 
L 488.736875 127.112854 
L 516.636875 128.024421 
L 544.536875 127.785827 
L 572.436875 128.346411 
L 600.336875 133.458355 
L 628.236875 141.251136 
L 656.136875 144.021094 
L 684.036875 168.268668 
L 711.936875 199.310747 
L 739.836875 213.491279 
" clip-path="url(#p5edd39cd88)" style="fill: none; stroke: #9edae5; stroke-opacity: 0.8; stroke-width: 1.5; stroke-linecap: round"/>
   </g>
   <g id="line2d_80">
    <path d="M 98.136875 214.580065 
L 126.036875 224.290891 
L 153.936875 225.688862 
L 181.836875 222.179502 
L 209.736875 206.516221 
L 237.636875 156.309218 
L 265.536875 110.955664 
L 293.436875 80.428495 
L 321.336875 98.502521 
L 349.236875 100.570275 
L 377.136875 98.131592 
L 405.036875 94.973824 
L 432.936875 94.086686 
L 460.836875 93.522542 
L 488.736875 93.443905 
L 516.636875 93.453893 
L 544.536875 94.745966 
L 572.436875 96.852922 
L 600.336875 102.502663 
L 628.236875 85.27129 
L 656.136875 111.339557 
L 684.036875 141.52476 
L 711.936875 173.522521 
L 739.836875 194.489193 
" clip-path="url(#p5edd39cd88)" style="fill: none; stroke: #9edae5; stroke-opacity: 0.8; stroke-width: 1.5; stroke-linecap: round"/>
   </g>
   <g id="line2d_81">
    <path d="M 98.136875 243.408215 
L 126.036875 244.530653 
L 153.936875 244.613763 
L 181.836875 244.745889 
L 209.736875 242.965144 
L 237.636875 226.924062 
L 265.536875 210.819443 
L 293.436875 190.238995 
L 321.336875 183.821618 
L 349.236875 178.133462 
L 377.136875 171.575242 
L 405.036875 174.050537 
L 432.936875 174.131126 
L 460.836875 174.360337 
L 488.736875 174.371342 
L 516.636875 174.234669 
L 544.536875 174.741519 
L 572.436875 175.775034 
L 600.336875 172.225276 
L 628.236875 192.122043 
L 656.136875 207.080811 
L 684.036875 221.046351 
L 711.936875 237.73014 
L 739.836875 241.52075 
" clip-path="url(#p5edd39cd88)" style="fill: none; stroke: #f7b6d2; stroke-opacity: 0.8; stroke-width: 1.5; stroke-linecap: round"/>
   </g>
   <g id="line2d_82">
    <path d="M 98.136875 235.992259 
L 126.036875 239.448161 
L 153.936875 240.041256 
L 181.836875 239.87321 
L 209.736875 235.936623 
L 237.636875 207.846243 
L 265.536875 175.72447 
L 293.436875 141.230358 
L 321.336875 134.08527 
L 349.236875 128.4643 
L 377.136875 128.387883 
L 405.036875 126.320933 
L 432.936875 126.936825 
L 460.836875 126.437996 
L 488.736875 125.936326 
L 516.636875 124.734982 
L 544.536875 125.295869 
L 572.436875 127.199801 
L 600.336875 133.352409 
L 628.236875 148.377916 
L 656.136875 170.525994 
L 684.036875 195.555589 
L 711.936875 221.133076 
L 739.836875 230.757963 
" clip-path="url(#p5edd39cd88)" style="fill: none; stroke: #7f7f7f; stroke-opacity: 0.8; stroke-width: 1.5; stroke-linecap: round"/>
   </g>
   <g id="line2d_83">
    <path d="M 98.136875 240.814848 
L 126.036875 243.051094 
L 153.936875 243.484623 
L 181.836875 243.514174 
L 209.736875 240.164859 
L 237.636875 218.301934 
L 265.536875 196.040724 
L 293.436875 164.186467 
L 321.336875 156.337017 
L 349.236875 150.614408 
L 377.136875 147.629981 
L 405.036875 145.874843 
L 432.936875 145.734725 
L 460.836875 145.37499 
L 488.736875 145.256046 
L 516.636875 144.947381 
L 544.536875 145.041614 
L 572.436875 146.498627 
L 600.336875 152.158219 
L 628.236875 168.35553 
L 656.136875 188.668661 
L 684.036875 210.681624 
L 711.936875 231.537747 
L 739.836875 237.591164 
" clip-path="url(#p5edd39cd88)" style="fill: none; stroke: #1f77b4; stroke-opacity: 0.8; stroke-width: 1.5; stroke-linecap: round"/>
   </g>
   <g id="line2d_84">
    <path d="M 98.136875 240.930785 
L 126.036875 243.52947 
L 153.936875 244.057251 
L 181.836875 243.862077 
L 209.736875 239.948404 
L 237.636875 214.68859 
L 265.536875 188.304817 
L 293.436875 156.753139 
L 321.336875 148.844812 
L 349.236875 142.379469 
L 377.136875 140.314586 
L 405.036875 138.121147 
L 432.936875 138.258599 
L 460.836875 139.145697 
L 488.736875 137.034032 
L 516.636875 134.542049 
L 544.536875 134.399131 
L 572.436875 136.352116 
L 600.336875 142.27487 
L 628.236875 161.798554 
L 656.136875 185.014074 
L 684.036875 208.481089 
L 711.936875 230.790139 
L 739.836875 237.307356 
" clip-path="url(#p5edd39cd88)" style="fill: none; stroke: #bcbd22; stroke-opacity: 0.8; stroke-width: 1.5; stroke-linecap: round"/>
   </g>
   <g id="line2d_85">
    <path d="M 98.136875 242.907617 
L 126.036875 244.161451 
L 153.936875 244.405281 
L 181.836875 244.359256 
L 209.736875 242.469464 
L 237.636875 225.572296 
L 265.536875 210.91232 
L 293.436875 187.962135 
L 321.336875 183.99941 
L 349.236875 177.396254 
L 377.136875 171.026645 
L 405.036875 168.56308 
L 432.936875 168.791148 
L 460.836875 168.32693 
L 488.736875 166.881915 
L 516.636875 165.014476 
L 544.536875 165.732436 
L 572.436875 167.110023 
L 600.336875 174.279377 
L 628.236875 189.640203 
L 656.136875 206.047905 
L 684.036875 222.333266 
L 711.936875 236.672245 
L 739.836875 241.018573 
" clip-path="url(#p5edd39cd88)" style="fill: none; stroke: #8c564b; stroke-opacity: 0.8; stroke-width: 1.5; stroke-linecap: round"/>
   </g>
   <g id="line2d_86">
    <path d="M 98.136875 241.962233 
L 126.036875 243.53698 
L 153.936875 243.858578 
L 181.836875 243.647936 
L 209.736875 240.732585 
L 237.636875 220.299374 
L 265.536875 195.784342 
L 293.436875 169.368966 
L 321.336875 162.519117 
L 349.236875 157.670177 
L 377.136875 152.520378 
L 405.036875 149.682411 
L 432.936875 148.715352 
L 460.836875 148.020294 
L 488.736875 146.685988 
L 516.636875 145.208807 
L 544.536875 145.514977 
L 572.436875 147.584339 
L 600.336875 154.409393 
L 628.236875 179.469376 
L 656.136875 198.364372 
L 684.036875 217.159265 
L 711.936875 234.928583 
L 739.836875 239.424998 
" clip-path="url(#p5edd39cd88)" style="fill: none; stroke: #c7c7c7; stroke-opacity: 0.8; stroke-width: 1.5; stroke-linecap: round"/>
   </g>
   <g id="line2d_87">
    <path d="M 98.136875 236.043856 
L 126.036875 239.47514 
L 153.936875 240.188478 
L 181.836875 239.878858 
L 209.736875 235.341573 
L 237.636875 209.852357 
L 265.536875 182.102162 
L 293.436875 150.38649 
L 321.336875 142.586173 
L 349.236875 137.452713 
L 377.136875 137.987666 
L 405.036875 135.519293 
L 432.936875 134.601693 
L 460.836875 133.959496 
L 488.736875 132.066581 
L 516.636875 129.89235 
L 544.536875 130.52776 
L 572.436875 132.527581 
L 600.336875 139.314601 
L 628.236875 154.566243 
L 656.136875 177.020937 
L 684.036875 200.08351 
L 711.936875 223.375731 
L 739.836875 231.212751 
" clip-path="url(#p5edd39cd88)" style="fill: none; stroke: #9467bd; stroke-opacity: 0.8; stroke-width: 1.5; stroke-linecap: round"/>
   </g>
   <g id="line2d_88">
    <path d="M 98.136875 242.567729 
L 126.036875 244.11571 
L 153.936875 244.491596 
L 181.836875 244.421688 
L 209.736875 241.898783 
L 237.636875 221.529239 
L 265.536875 202.177733 
L 293.436875 177.009982 
L 321.336875 170.725502 
L 349.236875 163.723527 
L 377.136875 161.725567 
L 405.036875 160.248729 
L 432.936875 160.414987 
L 460.836875 160.666226 
L 488.736875 160.160681 
L 516.636875 160.359247 
L 544.536875 161.031717 
L 572.436875 161.685505 
L 600.336875 166.198018 
L 628.236875 179.551342 
L 656.136875 198.645084 
L 684.036875 217.231688 
L 711.936875 236.798431 
L 739.836875 240.597854 
" clip-path="url(#p5edd39cd88)" style="fill: none; stroke: #e377c2; stroke-opacity: 0.8; stroke-width: 1.5; stroke-linecap: round"/>
   </g>
   <g id="line2d_89">
    <path d="M 98.136875 243.179595 
L 126.036875 244.494713 
L 153.936875 244.822853 
L 181.836875 244.760893 
L 209.736875 242.507744 
L 237.636875 224.337728 
L 265.536875 205.649194 
L 293.436875 178.910528 
L 321.336875 172.315384 
L 349.236875 164.988036 
L 377.136875 156.019295 
L 405.036875 155.046919 
L 432.936875 155.070628 
L 460.836875 155.880638 
L 488.736875 153.969078 
L 516.636875 153.055821 
L 544.536875 150.62058 
L 572.436875 152.401405 
L 600.336875 155.841887 
L 628.236875 182.75052 
L 656.136875 202.913255 
L 684.036875 220.733521 
L 711.936875 237.209391 
L 739.836875 241.135313 
" clip-path="url(#p5edd39cd88)" style="fill: none; stroke: #c49c94; stroke-opacity: 0.8; stroke-width: 1.5; stroke-linecap: round"/>
   </g>
   <g id="line2d_90">
    <path d="M 98.136875 241.537653 
L 126.036875 243.686873 
L 153.936875 244.246692 
L 181.836875 244.166998 
L 209.736875 240.596794 
L 237.636875 219.7526 
L 265.536875 198.11733 
L 293.436875 169.308678 
L 321.336875 161.529321 
L 349.236875 154.35987 
L 377.136875 143.677368 
L 405.036875 141.216251 
L 432.936875 139.046118 
L 460.836875 138.139235 
L 488.736875 137.349111 
L 516.636875 137.273713 
L 544.536875 137.600033 
L 572.436875 140.142519 
L 600.336875 142.779915 
L 628.236875 172.787475 
L 656.136875 193.802978 
L 684.036875 215.577921 
L 711.936875 232.217924 
L 739.836875 238.425581 
" clip-path="url(#p5edd39cd88)" style="fill: none; stroke: #c5b0d5; stroke-opacity: 0.8; stroke-width: 1.5; stroke-linecap: round"/>
   </g>
   <g id="line2d_91">
    <path d="M 98.136875 241.463285 
L 126.036875 244.129565 
L 153.936875 244.664231 
L 181.836875 244.480007 
L 209.736875 240.161877 
L 237.636875 212.040983 
L 265.536875 189.594639 
L 293.436875 157.99993 
L 321.336875 151.621278 
L 349.236875 143.842747 
L 377.136875 135.303945 
L 405.036875 132.026604 
L 432.936875 130.810383 
L 460.836875 131.165255 
L 488.736875 129.951 
L 516.636875 128.417006 
L 544.536875 128.660894 
L 572.436875 130.614895 
L 600.336875 133.118259 
L 628.236875 162.549402 
L 656.136875 184.025541 
L 684.036875 207.412093 
L 711.936875 232.436104 
L 739.836875 238.300169 
" clip-path="url(#p5edd39cd88)" style="fill: none; stroke: #ff9896; stroke-opacity: 0.8; stroke-width: 1.5; stroke-linecap: round"/>
   </g>
   <g id="line2d_92">
    <path d="M 98.136875 235.229694 
L 126.036875 239.390949 
L 153.936875 240.405307 
L 181.836875 239.882403 
L 209.736875 234.141572 
L 237.636875 211.335119 
L 265.536875 187.516267 
L 293.436875 156.754545 
L 321.336875 148.976918 
L 349.236875 142.844134 
L 377.136875 136.860014 
L 405.036875 132.375628 
L 432.936875 131.165798 
L 460.836875 129.232699 
L 488.736875 125.661388 
L 516.636875 122.797526 
L 544.536875 123.090922 
L 572.436875 126.004957 
L 600.336875 135.733564 
L 628.236875 155.841299 
L 656.136875 179.101299 
L 684.036875 201.003705 
L 711.936875 221.455986 
L 739.836875 229.897543 
" clip-path="url(#p5edd39cd88)" style="fill: none; stroke: #aec7e8; stroke-opacity: 0.8; stroke-width: 1.5; stroke-linecap: round"/>
   </g>
   <g id="line2d_93">
    <path d="M 98.136875 240.932506 
L 126.036875 243.678619 
L 153.936875 244.353335 
L 181.836875 244.362374 
L 209.736875 240.24348 
L 237.636875 212.325274 
L 265.536875 189.935152 
L 293.436875 159.865869 
L 321.336875 149.492978 
L 349.236875 141.485057 
L 377.136875 132.570689 
L 405.036875 129.616392 
L 432.936875 129.042424 
L 460.836875 129.493751 
L 488.736875 128.5249 
L 516.636875 127.110157 
L 544.536875 127.326535 
L 572.436875 129.385701 
L 600.336875 131.704969 
L 628.236875 159.540437 
L 656.136875 181.441957 
L 684.036875 203.858842 
L 711.936875 232.84066 
L 739.836875 238.126426 
" clip-path="url(#p5edd39cd88)" style="fill: none; stroke: #8c564b; stroke-opacity: 0.8; stroke-width: 1.5; stroke-linecap: round"/>
   </g>
   <g id="patch_3">
    <path d="M 84.186875 257.76 
L 84.186875 36 
" style="fill: none; stroke: #000000; stroke-linejoin: miter; stroke-linecap: square"/>
   </g>
   <g id="patch_4">
    <path d="M 753.786875 257.76 
L 753.786875 36 
" style="fill: none; stroke: #000000; stroke-linejoin: miter; stroke-linecap: square"/>
   </g>
   <g id="patch_5">
    <path d="M 84.186875 257.76 
L 753.786875 257.76 
" style="fill: none; stroke: #000000; stroke-linejoin: miter; stroke-linecap: square"/>
   </g>
   <g id="patch_6">
    <path d="M 84.186875 36 
L 753.786875 36 
" style="fill: none; stroke: #000000; stroke-linejoin: miter; stroke-linecap: square"/>
   </g>
  </g>
 </g>
 <defs>
  <clipPath id="p5edd39cd88">
   <rect x="84.186875" y="36" width="669.6" height="221.76"/>
  </clipPath>
 </defs>
</svg>
