<?xml version="1.0" encoding="utf-8" standalone="no"?>
<!DOCTYPE svg PUBLIC "-//W3C//DTD SVG 1.1//EN"
  "http://www.w3.org/Graphics/SVG/1.1/DTD/svg11.dtd">
<svg xmlns:xlink="http://www.w3.org/1999/xlink" width="789.786875pt" height="337.209022pt" viewBox="0 0 789.786875 337.209022" xmlns="http://www.w3.org/2000/svg" version="1.1">
 <metadata>
  <rdf:RDF xmlns:dc="http://purl.org/dc/elements/1.1/" xmlns:cc="http://creativecommons.org/ns#" xmlns:rdf="http://www.w3.org/1999/02/22-rdf-syntax-ns#">
   <cc:Work>
    <dc:type rdf:resource="http://purl.org/dc/dcmitype/StillImage"/>
    <dc:date>2025-10-27T20:58:11.921192</dc:date>
    <dc:format>image/svg+xml</dc:format>
    <dc:creator>
     <cc:Agent>
      <dc:title>Matplotlib v3.10.7, https://matplotlib.org/</dc:title>
     </cc:Agent>
    </dc:creator>
   </cc:Work>
  </rdf:RDF>
 </metadata>
 <defs>
  <style type="text/css">*{stroke-linejoin: round; stroke-linecap: butt}</style>
 </defs>
 <g id="figure_1">
  <g id="patch_1">
   <path d="M 0 337.209022 
L 789.786875 337.209022 
L 789.786875 0 
L 0 0 
L 0 337.209022 
z
" style="fill: none"/>
  </g>
  <g id="axes_1">
   <g id="patch_2">
    <path d="M 84.186875 262.682772 
L 753.786875 262.682772 
L 753.786875 40.922772 
L 84.186875 40.922772 
L 84.186875 262.682772 
z
" style="fill: none"/>
   </g>
   <g id="line2d_1">
    <path d="M 104.477784 262.682772 
L 104.477784 40.922772 
" clip-path="url(#pb2e2ee5cfc)" style="fill: none; stroke-dasharray: 0.74,0.32; stroke-dashoffset: 0; stroke: #a9a9a9; stroke-opacity: 0.5; stroke-width: 0.2"/>
   </g>
   <g id="line2d_2">
    <path d="M 124.768693 262.682772 
L 124.768693 40.922772 
" clip-path="url(#pb2e2ee5cfc)" style="fill: none; stroke-dasharray: 0.74,0.32; stroke-dashoffset: 0; stroke: #a9a9a9; stroke-opacity: 0.5; stroke-width: 0.2"/>
   </g>
   <g id="line2d_3">
    <path d="M 145.059602 262.682772 
L 145.059602 40.922772 
" clip-path="url(#pb2e2ee5cfc)" style="fill: none; stroke-dasharray: 0.74,0.32; stroke-dashoffset: 0; stroke: #a9a9a9; stroke-opacity: 0.5; stroke-width: 0.2"/>
   </g>
   <g id="line2d_4">
    <path d="M 165.350511 262.682772 
L 165.350511 40.922772 
" clip-path="url(#pb2e2ee5cfc)" style="fill: none; stroke-dasharray: 0.74,0.32; stroke-dashoffset: 0; stroke: #a9a9a9; stroke-opacity: 0.5; stroke-width: 0.2"/>
   </g>
   <g id="line2d_5">
    <path d="M 185.64142 262.682772 
L 185.64142 40.922772 
" clip-path="url(#pb2e2ee5cfc)" style="fill: none; stroke-dasharray: 0.74,0.32; stroke-dashoffset: 0; stroke: #a9a9a9; stroke-opacity: 0.5; stroke-width: 0.2"/>
   </g>
   <g id="line2d_6">
    <path d="M 205.93233 262.682772 
L 205.93233 40.922772 
" clip-path="url(#pb2e2ee5cfc)" style="fill: none; stroke-dasharray: 0.74,0.32; stroke-dashoffset: 0; stroke: #a9a9a9; stroke-opacity: 0.5; stroke-width: 0.2"/>
   </g>
   <g id="line2d_7">
    <path d="M 226.223239 262.682772 
L 226.223239 40.922772 
" clip-path="url(#pb2e2ee5cfc)" style="fill: none; stroke-dasharray: 0.74,0.32; stroke-dashoffset: 0; stroke: #a9a9a9; stroke-opacity: 0.5; stroke-width: 0.2"/>
   </g>
   <g id="line2d_8">
    <path d="M 246.514148 262.682772 
L 246.514148 40.922772 
" clip-path="url(#pb2e2ee5cfc)" style="fill: none; stroke-dasharray: 0.74,0.32; stroke-dashoffset: 0; stroke: #a9a9a9; stroke-opacity: 0.5; stroke-width: 0.2"/>
   </g>
   <g id="line2d_9">
    <path d="M 266.805057 262.682772 
L 266.805057 40.922772 
" clip-path="url(#pb2e2ee5cfc)" style="fill: none; stroke-dasharray: 0.74,0.32; stroke-dashoffset: 0; stroke: #a9a9a9; stroke-opacity: 0.5; stroke-width: 0.2"/>
   </g>
   <g id="line2d_10">
    <path d="M 287.095966 262.682772 
L 287.095966 40.922772 
" clip-path="url(#pb2e2ee5cfc)" style="fill: none; stroke-dasharray: 0.74,0.32; stroke-dashoffset: 0; stroke: #a9a9a9; stroke-opacity: 0.5; stroke-width: 0.2"/>
   </g>
   <g id="line2d_11">
    <path d="M 307.386875 262.682772 
L 307.386875 40.922772 
" clip-path="url(#pb2e2ee5cfc)" style="fill: none; stroke-dasharray: 0.74,0.32; stroke-dashoffset: 0; stroke: #a9a9a9; stroke-opacity: 0.5; stroke-width: 0.2"/>
   </g>
   <g id="line2d_12">
    <path d="M 327.677784 262.682772 
L 327.677784 40.922772 
" clip-path="url(#pb2e2ee5cfc)" style="fill: none; stroke-dasharray: 0.74,0.32; stroke-dashoffset: 0; stroke: #a9a9a9; stroke-opacity: 0.5; stroke-width: 0.2"/>
   </g>
   <g id="line2d_13">
    <path d="M 347.968693 262.682772 
L 347.968693 40.922772 
" clip-path="url(#pb2e2ee5cfc)" style="fill: none; stroke-dasharray: 0.74,0.32; stroke-dashoffset: 0; stroke: #a9a9a9; stroke-opacity: 0.5; stroke-width: 0.2"/>
   </g>
   <g id="line2d_14">
    <path d="M 368.259602 262.682772 
L 368.259602 40.922772 
" clip-path="url(#pb2e2ee5cfc)" style="fill: none; stroke-dasharray: 0.74,0.32; stroke-dashoffset: 0; stroke: #a9a9a9; stroke-opacity: 0.5; stroke-width: 0.2"/>
   </g>
   <g id="line2d_15">
    <path d="M 388.550511 262.682772 
L 388.550511 40.922772 
" clip-path="url(#pb2e2ee5cfc)" style="fill: none; stroke-dasharray: 0.74,0.32; stroke-dashoffset: 0; stroke: #a9a9a9; stroke-opacity: 0.5; stroke-width: 0.2"/>
   </g>
   <g id="line2d_16">
    <path d="M 408.84142 262.682772 
L 408.84142 40.922772 
" clip-path="url(#pb2e2ee5cfc)" style="fill: none; stroke-dasharray: 0.74,0.32; stroke-dashoffset: 0; stroke: #a9a9a9; stroke-opacity: 0.5; stroke-width: 0.2"/>
   </g>
   <g id="line2d_17">
    <path d="M 429.13233 262.682772 
L 429.13233 40.922772 
" clip-path="url(#pb2e2ee5cfc)" style="fill: none; stroke-dasharray: 0.74,0.32; stroke-dashoffset: 0; stroke: #a9a9a9; stroke-opacity: 0.5; stroke-width: 0.2"/>
   </g>
   <g id="line2d_18">
    <path d="M 449.423239 262.682772 
L 449.423239 40.922772 
" clip-path="url(#pb2e2ee5cfc)" style="fill: none; stroke-dasharray: 0.74,0.32; stroke-dashoffset: 0; stroke: #a9a9a9; stroke-opacity: 0.5; stroke-width: 0.2"/>
   </g>
   <g id="line2d_19">
    <path d="M 469.714148 262.682772 
L 469.714148 40.922772 
" clip-path="url(#pb2e2ee5cfc)" style="fill: none; stroke-dasharray: 0.74,0.32; stroke-dashoffset: 0; stroke: #a9a9a9; stroke-opacity: 0.5; stroke-width: 0.2"/>
   </g>
   <g id="line2d_20">
    <path d="M 490.005057 262.682772 
L 490.005057 40.922772 
" clip-path="url(#pb2e2ee5cfc)" style="fill: none; stroke-dasharray: 0.74,0.32; stroke-dashoffset: 0; stroke: #a9a9a9; stroke-opacity: 0.5; stroke-width: 0.2"/>
   </g>
   <g id="line2d_21">
    <path d="M 510.295966 262.682772 
L 510.295966 40.922772 
" clip-path="url(#pb2e2ee5cfc)" style="fill: none; stroke-dasharray: 0.74,0.32; stroke-dashoffset: 0; stroke: #a9a9a9; stroke-opacity: 0.5; stroke-width: 0.2"/>
   </g>
   <g id="line2d_22">
    <path d="M 530.586875 262.682772 
L 530.586875 40.922772 
" clip-path="url(#pb2e2ee5cfc)" style="fill: none; stroke-dasharray: 0.74,0.32; stroke-dashoffset: 0; stroke: #a9a9a9; stroke-opacity: 0.5; stroke-width: 0.2"/>
   </g>
   <g id="line2d_23">
    <path d="M 550.877784 262.682772 
L 550.877784 40.922772 
" clip-path="url(#pb2e2ee5cfc)" style="fill: none; stroke-dasharray: 0.74,0.32; stroke-dashoffset: 0; stroke: #a9a9a9; stroke-opacity: 0.5; stroke-width: 0.2"/>
   </g>
   <g id="line2d_24">
    <path d="M 571.168693 262.682772 
L 571.168693 40.922772 
" clip-path="url(#pb2e2ee5cfc)" style="fill: none; stroke-dasharray: 0.74,0.32; stroke-dashoffset: 0; stroke: #a9a9a9; stroke-opacity: 0.5; stroke-width: 0.2"/>
   </g>
   <g id="line2d_25">
    <path d="M 591.459602 262.682772 
L 591.459602 40.922772 
" clip-path="url(#pb2e2ee5cfc)" style="fill: none; stroke-dasharray: 0.74,0.32; stroke-dashoffset: 0; stroke: #a9a9a9; stroke-opacity: 0.5; stroke-width: 0.2"/>
   </g>
   <g id="line2d_26">
    <path d="M 611.750511 262.682772 
L 611.750511 40.922772 
" clip-path="url(#pb2e2ee5cfc)" style="fill: none; stroke-dasharray: 0.74,0.32; stroke-dashoffset: 0; stroke: #a9a9a9; stroke-opacity: 0.5; stroke-width: 0.2"/>
   </g>
   <g id="line2d_27">
    <path d="M 632.04142 262.682772 
L 632.04142 40.922772 
" clip-path="url(#pb2e2ee5cfc)" style="fill: none; stroke-dasharray: 0.74,0.32; stroke-dashoffset: 0; stroke: #a9a9a9; stroke-opacity: 0.5; stroke-width: 0.2"/>
   </g>
   <g id="line2d_28">
    <path d="M 652.33233 262.682772 
L 652.33233 40.922772 
" clip-path="url(#pb2e2ee5cfc)" style="fill: none; stroke-dasharray: 0.74,0.32; stroke-dashoffset: 0; stroke: #a9a9a9; stroke-opacity: 0.5; stroke-width: 0.2"/>
   </g>
   <g id="line2d_29">
    <path d="M 672.623239 262.682772 
L 672.623239 40.922772 
" clip-path="url(#pb2e2ee5cfc)" style="fill: none; stroke-dasharray: 0.74,0.32; stroke-dashoffset: 0; stroke: #a9a9a9; stroke-opacity: 0.5; stroke-width: 0.2"/>
   </g>
   <g id="line2d_30">
    <path d="M 692.914148 262.682772 
L 692.914148 40.922772 
" clip-path="url(#pb2e2ee5cfc)" style="fill: none; stroke-dasharray: 0.74,0.32; stroke-dashoffset: 0; stroke: #a9a9a9; stroke-opacity: 0.5; stroke-width: 0.2"/>
   </g>
   <g id="line2d_31">
    <path d="M 713.205057 262.682772 
L 713.205057 40.922772 
" clip-path="url(#pb2e2ee5cfc)" style="fill: none; stroke-dasharray: 0.74,0.32; stroke-dashoffset: 0; stroke: #a9a9a9; stroke-opacity: 0.5; stroke-width: 0.2"/>
   </g>
   <g id="line2d_32">
    <path d="M 733.495966 262.682772 
L 733.495966 40.922772 
" clip-path="url(#pb2e2ee5cfc)" style="fill: none; stroke-dasharray: 0.74,0.32; stroke-dashoffset: 0; stroke: #a9a9a9; stroke-opacity: 0.5; stroke-width: 0.2"/>
   </g>
   <g id="line2d_33">
    <path d="M 84.186875 240.506772 
L 753.786875 240.506772 
" clip-path="url(#pb2e2ee5cfc)" style="fill: none; stroke-dasharray: 0.74,0.32; stroke-dashoffset: 0; stroke: #a9a9a9; stroke-opacity: 0.5; stroke-width: 0.2"/>
   </g>
   <g id="line2d_34">
    <path d="M 84.186875 218.330772 
L 753.786875 218.330772 
" clip-path="url(#pb2e2ee5cfc)" style="fill: none; stroke-dasharray: 0.74,0.32; stroke-dashoffset: 0; stroke: #a9a9a9; stroke-opacity: 0.5; stroke-width: 0.2"/>
   </g>
   <g id="line2d_35">
    <path d="M 84.186875 196.154772 
L 753.786875 196.154772 
" clip-path="url(#pb2e2ee5cfc)" style="fill: none; stroke-dasharray: 0.74,0.32; stroke-dashoffset: 0; stroke: #a9a9a9; stroke-opacity: 0.5; stroke-width: 0.2"/>
   </g>
   <g id="line2d_36">
    <path d="M 84.186875 173.978772 
L 753.786875 173.978772 
" clip-path="url(#pb2e2ee5cfc)" style="fill: none; stroke-dasharray: 0.74,0.32; stroke-dashoffset: 0; stroke: #a9a9a9; stroke-opacity: 0.5; stroke-width: 0.2"/>
   </g>
   <g id="line2d_37">
    <path d="M 84.186875 151.802772 
L 753.786875 151.802772 
" clip-path="url(#pb2e2ee5cfc)" style="fill: none; stroke-dasharray: 0.74,0.32; stroke-dashoffset: 0; stroke: #a9a9a9; stroke-opacity: 0.5; stroke-width: 0.2"/>
   </g>
   <g id="line2d_38">
    <path d="M 84.186875 129.626772 
L 753.786875 129.626772 
" clip-path="url(#pb2e2ee5cfc)" style="fill: none; stroke-dasharray: 0.74,0.32; stroke-dashoffset: 0; stroke: #a9a9a9; stroke-opacity: 0.5; stroke-width: 0.2"/>
   </g>
   <g id="line2d_39">
    <path d="M 84.186875 107.450772 
L 753.786875 107.450772 
" clip-path="url(#pb2e2ee5cfc)" style="fill: none; stroke-dasharray: 0.74,0.32; stroke-dashoffset: 0; stroke: #a9a9a9; stroke-opacity: 0.5; stroke-width: 0.2"/>
   </g>
   <g id="line2d_40">
    <path d="M 84.186875 85.274772 
L 753.786875 85.274772 
" clip-path="url(#pb2e2ee5cfc)" style="fill: none; stroke-dasharray: 0.74,0.32; stroke-dashoffset: 0; stroke: #a9a9a9; stroke-opacity: 0.5; stroke-width: 0.2"/>
   </g>
   <g id="line2d_41">
    <path d="M 84.186875 63.098772 
L 753.786875 63.098772 
" clip-path="url(#pb2e2ee5cfc)" style="fill: none; stroke-dasharray: 0.74,0.32; stroke-dashoffset: 0; stroke: #a9a9a9; stroke-opacity: 0.5; stroke-width: 0.2"/>
   </g>
   <g id="matplotlib.axis_1">
    <g id="xtick_1">
     <g id="line2d_42">
      <defs>
       <path id="m4aae30b95f" d="M 0 0 
L 0 5 
" style="stroke: #000000"/>
      </defs>
      <g>
       <use xlink:href="#m4aae30b95f" x="98.136875" y="262.682772" style="stroke: #000000"/>
      </g>
     </g>
     <g id="text_1">
      <!-- 1:00 -->
      <g transform="translate(101.239063 294.535897) rotate(-90) scale(0.12 -0.12)">
       <defs>
        <path id="ArialMT-31" d="M 2384 0 
L 1822 0 
L 1822 3584 
Q 1619 3391 1289 3197 
Q 959 3003 697 2906 
L 697 3450 
Q 1169 3672 1522 3987 
Q 1875 4303 2022 4600 
L 2384 4600 
L 2384 0 
z
" transform="scale(0.015625)"/>
        <path id="ArialMT-3a" d="M 578 2678 
L 578 3319 
L 1219 3319 
L 1219 2678 
L 578 2678 
z
M 578 0 
L 578 641 
L 1219 641 
L 1219 0 
L 578 0 
z
" transform="scale(0.015625)"/>
        <path id="ArialMT-30" d="M 266 2259 
Q 266 3072 433 3567 
Q 600 4063 929 4331 
Q 1259 4600 1759 4600 
Q 2128 4600 2406 4451 
Q 2684 4303 2865 4023 
Q 3047 3744 3150 3342 
Q 3253 2941 3253 2259 
Q 3253 1453 3087 958 
Q 2922 463 2592 192 
Q 2263 -78 1759 -78 
Q 1097 -78 719 397 
Q 266 969 266 2259 
z
M 844 2259 
Q 844 1131 1108 757 
Q 1372 384 1759 384 
Q 2147 384 2411 759 
Q 2675 1134 2675 2259 
Q 2675 3391 2411 3762 
Q 2147 4134 1753 4134 
Q 1366 4134 1134 3806 
Q 844 3388 844 2259 
z
" transform="scale(0.015625)"/>
       </defs>
       <use xlink:href="#ArialMT-31"/>
       <use xlink:href="#ArialMT-3a" transform="translate(55.615234 0)"/>
       <use xlink:href="#ArialMT-30" transform="translate(83.398438 0)"/>
       <use xlink:href="#ArialMT-30" transform="translate(139.013672 0)"/>
      </g>
     </g>
    </g>
    <g id="xtick_2">
     <g id="line2d_43">
      <g>
       <use xlink:href="#m4aae30b95f" x="126.036875" y="262.682772" style="stroke: #000000"/>
      </g>
     </g>
     <g id="text_2">
      <!-- 2:00 -->
      <g transform="translate(129.139063 294.535897) rotate(-90) scale(0.12 -0.12)">
       <defs>
        <path id="ArialMT-32" d="M 3222 541 
L 3222 0 
L 194 0 
Q 188 203 259 391 
Q 375 700 629 1000 
Q 884 1300 1366 1694 
Q 2113 2306 2375 2664 
Q 2638 3022 2638 3341 
Q 2638 3675 2398 3904 
Q 2159 4134 1775 4134 
Q 1369 4134 1125 3890 
Q 881 3647 878 3216 
L 300 3275 
Q 359 3922 746 4261 
Q 1134 4600 1788 4600 
Q 2447 4600 2831 4234 
Q 3216 3869 3216 3328 
Q 3216 3053 3103 2787 
Q 2991 2522 2730 2228 
Q 2469 1934 1863 1422 
Q 1356 997 1212 845 
Q 1069 694 975 541 
L 3222 541 
z
" transform="scale(0.015625)"/>
       </defs>
       <use xlink:href="#ArialMT-32"/>
       <use xlink:href="#ArialMT-3a" transform="translate(55.615234 0)"/>
       <use xlink:href="#ArialMT-30" transform="translate(83.398438 0)"/>
       <use xlink:href="#ArialMT-30" transform="translate(139.013672 0)"/>
      </g>
     </g>
    </g>
    <g id="xtick_3">
     <g id="line2d_44">
      <g>
       <use xlink:href="#m4aae30b95f" x="153.936875" y="262.682772" style="stroke: #000000"/>
      </g>
     </g>
     <g id="text_3">
      <!-- 3:00 -->
      <g transform="translate(157.039062 294.535897) rotate(-90) scale(0.12 -0.12)">
       <defs>
        <path id="ArialMT-33" d="M 269 1209 
L 831 1284 
Q 928 806 1161 595 
Q 1394 384 1728 384 
Q 2125 384 2398 659 
Q 2672 934 2672 1341 
Q 2672 1728 2419 1979 
Q 2166 2231 1775 2231 
Q 1616 2231 1378 2169 
L 1441 2663 
Q 1497 2656 1531 2656 
Q 1891 2656 2178 2843 
Q 2466 3031 2466 3422 
Q 2466 3731 2256 3934 
Q 2047 4138 1716 4138 
Q 1388 4138 1169 3931 
Q 950 3725 888 3313 
L 325 3413 
Q 428 3978 793 4289 
Q 1159 4600 1703 4600 
Q 2078 4600 2393 4439 
Q 2709 4278 2876 4000 
Q 3044 3722 3044 3409 
Q 3044 3113 2884 2869 
Q 2725 2625 2413 2481 
Q 2819 2388 3044 2092 
Q 3269 1797 3269 1353 
Q 3269 753 2831 336 
Q 2394 -81 1725 -81 
Q 1122 -81 723 278 
Q 325 638 269 1209 
z
" transform="scale(0.015625)"/>
       </defs>
       <use xlink:href="#ArialMT-33"/>
       <use xlink:href="#ArialMT-3a" transform="translate(55.615234 0)"/>
       <use xlink:href="#ArialMT-30" transform="translate(83.398438 0)"/>
       <use xlink:href="#ArialMT-30" transform="translate(139.013672 0)"/>
      </g>
     </g>
    </g>
    <g id="xtick_4">
     <g id="line2d_45">
      <g>
       <use xlink:href="#m4aae30b95f" x="181.836875" y="262.682772" style="stroke: #000000"/>
      </g>
     </g>
     <g id="text_4">
      <!-- 4:00 -->
      <g transform="translate(184.939062 294.535897) rotate(-90) scale(0.12 -0.12)">
       <defs>
        <path id="ArialMT-34" d="M 2069 0 
L 2069 1097 
L 81 1097 
L 81 1613 
L 2172 4581 
L 2631 4581 
L 2631 1613 
L 3250 1613 
L 3250 1097 
L 2631 1097 
L 2631 0 
L 2069 0 
z
M 2069 1613 
L 2069 3678 
L 634 1613 
L 2069 1613 
z
" transform="scale(0.015625)"/>
       </defs>
       <use xlink:href="#ArialMT-34"/>
       <use xlink:href="#ArialMT-3a" transform="translate(55.615234 0)"/>
       <use xlink:href="#ArialMT-30" transform="translate(83.398438 0)"/>
       <use xlink:href="#ArialMT-30" transform="translate(139.013672 0)"/>
      </g>
     </g>
    </g>
    <g id="xtick_5">
     <g id="line2d_46">
      <g>
       <use xlink:href="#m4aae30b95f" x="209.736875" y="262.682772" style="stroke: #000000"/>
      </g>
     </g>
     <g id="text_5">
      <!-- 5:00 -->
      <g transform="translate(212.839063 294.535897) rotate(-90) scale(0.12 -0.12)">
       <defs>
        <path id="ArialMT-35" d="M 266 1200 
L 856 1250 
Q 922 819 1161 601 
Q 1400 384 1738 384 
Q 2144 384 2425 690 
Q 2706 997 2706 1503 
Q 2706 1984 2436 2262 
Q 2166 2541 1728 2541 
Q 1456 2541 1237 2417 
Q 1019 2294 894 2097 
L 366 2166 
L 809 4519 
L 3088 4519 
L 3088 3981 
L 1259 3981 
L 1013 2750 
Q 1425 3038 1878 3038 
Q 2478 3038 2890 2622 
Q 3303 2206 3303 1553 
Q 3303 931 2941 478 
Q 2500 -78 1738 -78 
Q 1113 -78 717 272 
Q 322 622 266 1200 
z
" transform="scale(0.015625)"/>
       </defs>
       <use xlink:href="#ArialMT-35"/>
       <use xlink:href="#ArialMT-3a" transform="translate(55.615234 0)"/>
       <use xlink:href="#ArialMT-30" transform="translate(83.398438 0)"/>
       <use xlink:href="#ArialMT-30" transform="translate(139.013672 0)"/>
      </g>
     </g>
    </g>
    <g id="xtick_6">
     <g id="line2d_47">
      <g>
       <use xlink:href="#m4aae30b95f" x="237.636875" y="262.682772" style="stroke: #000000"/>
      </g>
     </g>
     <g id="text_6">
      <!-- 6:00 -->
      <g transform="translate(240.739062 294.535897) rotate(-90) scale(0.12 -0.12)">
       <defs>
        <path id="ArialMT-36" d="M 3184 3459 
L 2625 3416 
Q 2550 3747 2413 3897 
Q 2184 4138 1850 4138 
Q 1581 4138 1378 3988 
Q 1113 3794 959 3422 
Q 806 3050 800 2363 
Q 1003 2672 1297 2822 
Q 1591 2972 1913 2972 
Q 2475 2972 2870 2558 
Q 3266 2144 3266 1488 
Q 3266 1056 3080 686 
Q 2894 316 2569 119 
Q 2244 -78 1831 -78 
Q 1128 -78 684 439 
Q 241 956 241 2144 
Q 241 3472 731 4075 
Q 1159 4600 1884 4600 
Q 2425 4600 2770 4297 
Q 3116 3994 3184 3459 
z
M 888 1484 
Q 888 1194 1011 928 
Q 1134 663 1356 523 
Q 1578 384 1822 384 
Q 2178 384 2434 671 
Q 2691 959 2691 1453 
Q 2691 1928 2437 2201 
Q 2184 2475 1800 2475 
Q 1419 2475 1153 2201 
Q 888 1928 888 1484 
z
" transform="scale(0.015625)"/>
       </defs>
       <use xlink:href="#ArialMT-36"/>
       <use xlink:href="#ArialMT-3a" transform="translate(55.615234 0)"/>
       <use xlink:href="#ArialMT-30" transform="translate(83.398438 0)"/>
       <use xlink:href="#ArialMT-30" transform="translate(139.013672 0)"/>
      </g>
     </g>
    </g>
    <g id="xtick_7">
     <g id="line2d_48">
      <g>
       <use xlink:href="#m4aae30b95f" x="265.536875" y="262.682772" style="stroke: #000000"/>
      </g>
     </g>
     <g id="text_7">
      <!-- 7:00 -->
      <g transform="translate(268.639063 294.535897) rotate(-90) scale(0.12 -0.12)">
       <defs>
        <path id="ArialMT-37" d="M 303 3981 
L 303 4522 
L 3269 4522 
L 3269 4084 
Q 2831 3619 2401 2847 
Q 1972 2075 1738 1259 
Q 1569 684 1522 0 
L 944 0 
Q 953 541 1156 1306 
Q 1359 2072 1739 2783 
Q 2119 3494 2547 3981 
L 303 3981 
z
" transform="scale(0.015625)"/>
       </defs>
       <use xlink:href="#ArialMT-37"/>
       <use xlink:href="#ArialMT-3a" transform="translate(55.615234 0)"/>
       <use xlink:href="#ArialMT-30" transform="translate(83.398438 0)"/>
       <use xlink:href="#ArialMT-30" transform="translate(139.013672 0)"/>
      </g>
     </g>
    </g>
    <g id="xtick_8">
     <g id="line2d_49">
      <g>
       <use xlink:href="#m4aae30b95f" x="293.436875" y="262.682772" style="stroke: #000000"/>
      </g>
     </g>
     <g id="text_8">
      <!-- 8:00 -->
      <g transform="translate(296.539062 294.535897) rotate(-90) scale(0.12 -0.12)">
       <defs>
        <path id="ArialMT-38" d="M 1131 2484 
Q 781 2613 612 2850 
Q 444 3088 444 3419 
Q 444 3919 803 4259 
Q 1163 4600 1759 4600 
Q 2359 4600 2725 4251 
Q 3091 3903 3091 3403 
Q 3091 3084 2923 2848 
Q 2756 2613 2416 2484 
Q 2838 2347 3058 2040 
Q 3278 1734 3278 1309 
Q 3278 722 2862 322 
Q 2447 -78 1769 -78 
Q 1091 -78 675 323 
Q 259 725 259 1325 
Q 259 1772 486 2073 
Q 713 2375 1131 2484 
z
M 1019 3438 
Q 1019 3113 1228 2906 
Q 1438 2700 1772 2700 
Q 2097 2700 2305 2904 
Q 2513 3109 2513 3406 
Q 2513 3716 2298 3927 
Q 2084 4138 1766 4138 
Q 1444 4138 1231 3931 
Q 1019 3725 1019 3438 
z
M 838 1322 
Q 838 1081 952 856 
Q 1066 631 1291 507 
Q 1516 384 1775 384 
Q 2178 384 2440 643 
Q 2703 903 2703 1303 
Q 2703 1709 2433 1975 
Q 2163 2241 1756 2241 
Q 1359 2241 1098 1978 
Q 838 1716 838 1322 
z
" transform="scale(0.015625)"/>
       </defs>
       <use xlink:href="#ArialMT-38"/>
       <use xlink:href="#ArialMT-3a" transform="translate(55.615234 0)"/>
       <use xlink:href="#ArialMT-30" transform="translate(83.398438 0)"/>
       <use xlink:href="#ArialMT-30" transform="translate(139.013672 0)"/>
      </g>
     </g>
    </g>
    <g id="xtick_9">
     <g id="line2d_50">
      <g>
       <use xlink:href="#m4aae30b95f" x="321.336875" y="262.682772" style="stroke: #000000"/>
      </g>
     </g>
     <g id="text_9">
      <!-- 9:00 -->
      <g transform="translate(324.439062 294.535897) rotate(-90) scale(0.12 -0.12)">
       <defs>
        <path id="ArialMT-39" d="M 350 1059 
L 891 1109 
Q 959 728 1153 556 
Q 1347 384 1650 384 
Q 1909 384 2104 503 
Q 2300 622 2425 820 
Q 2550 1019 2634 1356 
Q 2719 1694 2719 2044 
Q 2719 2081 2716 2156 
Q 2547 1888 2255 1720 
Q 1963 1553 1622 1553 
Q 1053 1553 659 1965 
Q 266 2378 266 3053 
Q 266 3750 677 4175 
Q 1088 4600 1706 4600 
Q 2153 4600 2523 4359 
Q 2894 4119 3086 3673 
Q 3278 3228 3278 2384 
Q 3278 1506 3087 986 
Q 2897 466 2520 194 
Q 2144 -78 1638 -78 
Q 1100 -78 759 220 
Q 419 519 350 1059 
z
M 2653 3081 
Q 2653 3566 2395 3850 
Q 2138 4134 1775 4134 
Q 1400 4134 1122 3828 
Q 844 3522 844 3034 
Q 844 2597 1108 2323 
Q 1372 2050 1759 2050 
Q 2150 2050 2401 2323 
Q 2653 2597 2653 3081 
z
" transform="scale(0.015625)"/>
       </defs>
       <use xlink:href="#ArialMT-39"/>
       <use xlink:href="#ArialMT-3a" transform="translate(55.615234 0)"/>
       <use xlink:href="#ArialMT-30" transform="translate(83.398438 0)"/>
       <use xlink:href="#ArialMT-30" transform="translate(139.013672 0)"/>
      </g>
     </g>
    </g>
    <g id="xtick_10">
     <g id="line2d_51">
      <g>
       <use xlink:href="#m4aae30b95f" x="349.236875" y="262.682772" style="stroke: #000000"/>
      </g>
     </g>
     <g id="text_10">
      <!-- 10:00 -->
      <g transform="translate(352.339063 301.209022) rotate(-90) scale(0.12 -0.12)">
       <use xlink:href="#ArialMT-31"/>
       <use xlink:href="#ArialMT-30" transform="translate(55.615234 0)"/>
       <use xlink:href="#ArialMT-3a" transform="translate(111.230469 0)"/>
       <use xlink:href="#ArialMT-30" transform="translate(139.013672 0)"/>
       <use xlink:href="#ArialMT-30" transform="translate(194.628906 0)"/>
      </g>
     </g>
    </g>
    <g id="xtick_11">
     <g id="line2d_52">
      <g>
       <use xlink:href="#m4aae30b95f" x="377.136875" y="262.682772" style="stroke: #000000"/>
      </g>
     </g>
     <g id="text_11">
      <!-- 11:00 -->
      <g transform="translate(380.239063 300.324022) rotate(-90) scale(0.12 -0.12)">
       <use xlink:href="#ArialMT-31"/>
       <use xlink:href="#ArialMT-31" transform="translate(48.240234 0)"/>
       <use xlink:href="#ArialMT-3a" transform="translate(103.855469 0)"/>
       <use xlink:href="#ArialMT-30" transform="translate(131.638672 0)"/>
       <use xlink:href="#ArialMT-30" transform="translate(187.253906 0)"/>
      </g>
     </g>
    </g>
    <g id="xtick_12">
     <g id="line2d_53">
      <g>
       <use xlink:href="#m4aae30b95f" x="405.036875" y="262.682772" style="stroke: #000000"/>
      </g>
     </g>
     <g id="text_12">
      <!-- 12:00 -->
      <g transform="translate(408.139063 301.209022) rotate(-90) scale(0.12 -0.12)">
       <use xlink:href="#ArialMT-31"/>
       <use xlink:href="#ArialMT-32" transform="translate(55.615234 0)"/>
       <use xlink:href="#ArialMT-3a" transform="translate(111.230469 0)"/>
       <use xlink:href="#ArialMT-30" transform="translate(139.013672 0)"/>
       <use xlink:href="#ArialMT-30" transform="translate(194.628906 0)"/>
      </g>
     </g>
    </g>
    <g id="xtick_13">
     <g id="line2d_54">
      <g>
       <use xlink:href="#m4aae30b95f" x="432.936875" y="262.682772" style="stroke: #000000"/>
      </g>
     </g>
     <g id="text_13">
      <!-- 13:00 -->
      <g transform="translate(436.039062 301.209022) rotate(-90) scale(0.12 -0.12)">
       <use xlink:href="#ArialMT-31"/>
       <use xlink:href="#ArialMT-33" transform="translate(55.615234 0)"/>
       <use xlink:href="#ArialMT-3a" transform="translate(111.230469 0)"/>
       <use xlink:href="#ArialMT-30" transform="translate(139.013672 0)"/>
       <use xlink:href="#ArialMT-30" transform="translate(194.628906 0)"/>
      </g>
     </g>
    </g>
    <g id="xtick_14">
     <g id="line2d_55">
      <g>
       <use xlink:href="#m4aae30b95f" x="460.836875" y="262.682772" style="stroke: #000000"/>
      </g>
     </g>
     <g id="text_14">
      <!-- 14:00 -->
      <g transform="translate(463.939062 301.209022) rotate(-90) scale(0.12 -0.12)">
       <use xlink:href="#ArialMT-31"/>
       <use xlink:href="#ArialMT-34" transform="translate(55.615234 0)"/>
       <use xlink:href="#ArialMT-3a" transform="translate(111.230469 0)"/>
       <use xlink:href="#ArialMT-30" transform="translate(139.013672 0)"/>
       <use xlink:href="#ArialMT-30" transform="translate(194.628906 0)"/>
      </g>
     </g>
    </g>
    <g id="xtick_15">
     <g id="line2d_56">
      <g>
       <use xlink:href="#m4aae30b95f" x="488.736875" y="262.682772" style="stroke: #000000"/>
      </g>
     </g>
     <g id="text_15">
      <!-- 15:00 -->
      <g transform="translate(491.839062 301.209022) rotate(-90) scale(0.12 -0.12)">
       <use xlink:href="#ArialMT-31"/>
       <use xlink:href="#ArialMT-35" transform="translate(55.615234 0)"/>
       <use xlink:href="#ArialMT-3a" transform="translate(111.230469 0)"/>
       <use xlink:href="#ArialMT-30" transform="translate(139.013672 0)"/>
       <use xlink:href="#ArialMT-30" transform="translate(194.628906 0)"/>
      </g>
     </g>
    </g>
    <g id="xtick_16">
     <g id="line2d_57">
      <g>
       <use xlink:href="#m4aae30b95f" x="516.636875" y="262.682772" style="stroke: #000000"/>
      </g>
     </g>
     <g id="text_16">
      <!-- 16:00 -->
      <g transform="translate(519.739063 301.209022) rotate(-90) scale(0.12 -0.12)">
       <use xlink:href="#ArialMT-31"/>
       <use xlink:href="#ArialMT-36" transform="translate(55.615234 0)"/>
       <use xlink:href="#ArialMT-3a" transform="translate(111.230469 0)"/>
       <use xlink:href="#ArialMT-30" transform="translate(139.013672 0)"/>
       <use xlink:href="#ArialMT-30" transform="translate(194.628906 0)"/>
      </g>
     </g>
    </g>
    <g id="xtick_17">
     <g id="line2d_58">
      <g>
       <use xlink:href="#m4aae30b95f" x="544.536875" y="262.682772" style="stroke: #000000"/>
      </g>
     </g>
     <g id="text_17">
      <!-- 17:00 -->
      <g transform="translate(547.639063 301.209022) rotate(-90) scale(0.12 -0.12)">
       <use xlink:href="#ArialMT-31"/>
       <use xlink:href="#ArialMT-37" transform="translate(55.615234 0)"/>
       <use xlink:href="#ArialMT-3a" transform="translate(111.230469 0)"/>
       <use xlink:href="#ArialMT-30" transform="translate(139.013672 0)"/>
       <use xlink:href="#ArialMT-30" transform="translate(194.628906 0)"/>
      </g>
     </g>
    </g>
    <g id="xtick_18">
     <g id="line2d_59">
      <g>
       <use xlink:href="#m4aae30b95f" x="572.436875" y="262.682772" style="stroke: #000000"/>
      </g>
     </g>
     <g id="text_18">
      <!-- 18:00 -->
      <g transform="translate(575.539062 301.209022) rotate(-90) scale(0.12 -0.12)">
       <use xlink:href="#ArialMT-31"/>
       <use xlink:href="#ArialMT-38" transform="translate(55.615234 0)"/>
       <use xlink:href="#ArialMT-3a" transform="translate(111.230469 0)"/>
       <use xlink:href="#ArialMT-30" transform="translate(139.013672 0)"/>
       <use xlink:href="#ArialMT-30" transform="translate(194.628906 0)"/>
      </g>
     </g>
    </g>
    <g id="xtick_19">
     <g id="line2d_60">
      <g>
       <use xlink:href="#m4aae30b95f" x="600.336875" y="262.682772" style="stroke: #000000"/>
      </g>
     </g>
     <g id="text_19">
      <!-- 19:00 -->
      <g transform="translate(603.439062 301.209022) rotate(-90) scale(0.12 -0.12)">
       <use xlink:href="#ArialMT-31"/>
       <use xlink:href="#ArialMT-39" transform="translate(55.615234 0)"/>
       <use xlink:href="#ArialMT-3a" transform="translate(111.230469 0)"/>
       <use xlink:href="#ArialMT-30" transform="translate(139.013672 0)"/>
       <use xlink:href="#ArialMT-30" transform="translate(194.628906 0)"/>
      </g>
     </g>
    </g>
    <g id="xtick_20">
     <g id="line2d_61">
      <g>
       <use xlink:href="#m4aae30b95f" x="628.236875" y="262.682772" style="stroke: #000000"/>
      </g>
     </g>
     <g id="text_20">
      <!-- 20:00 -->
      <g transform="translate(631.339063 301.209022) rotate(-90) scale(0.12 -0.12)">
       <use xlink:href="#ArialMT-32"/>
       <use xlink:href="#ArialMT-30" transform="translate(55.615234 0)"/>
       <use xlink:href="#ArialMT-3a" transform="translate(111.230469 0)"/>
       <use xlink:href="#ArialMT-30" transform="translate(139.013672 0)"/>
       <use xlink:href="#ArialMT-30" transform="translate(194.628906 0)"/>
      </g>
     </g>
    </g>
    <g id="xtick_21">
     <g id="line2d_62">
      <g>
       <use xlink:href="#m4aae30b95f" x="656.136875" y="262.682772" style="stroke: #000000"/>
      </g>
     </g>
     <g id="text_21">
      <!-- 21:00 -->
      <g transform="translate(659.239063 301.209022) rotate(-90) scale(0.12 -0.12)">
       <use xlink:href="#ArialMT-32"/>
       <use xlink:href="#ArialMT-31" transform="translate(55.615234 0)"/>
       <use xlink:href="#ArialMT-3a" transform="translate(111.230469 0)"/>
       <use xlink:href="#ArialMT-30" transform="translate(139.013672 0)"/>
       <use xlink:href="#ArialMT-30" transform="translate(194.628906 0)"/>
      </g>
     </g>
    </g>
    <g id="xtick_22">
     <g id="line2d_63">
      <g>
       <use xlink:href="#m4aae30b95f" x="684.036875" y="262.682772" style="stroke: #000000"/>
      </g>
     </g>
     <g id="text_22">
      <!-- 22:00 -->
      <g transform="translate(687.139063 301.209022) rotate(-90) scale(0.12 -0.12)">
       <use xlink:href="#ArialMT-32"/>
       <use xlink:href="#ArialMT-32" transform="translate(55.615234 0)"/>
       <use xlink:href="#ArialMT-3a" transform="translate(111.230469 0)"/>
       <use xlink:href="#ArialMT-30" transform="translate(139.013672 0)"/>
       <use xlink:href="#ArialMT-30" transform="translate(194.628906 0)"/>
      </g>
     </g>
    </g>
    <g id="xtick_23">
     <g id="line2d_64">
      <g>
       <use xlink:href="#m4aae30b95f" x="711.936875" y="262.682772" style="stroke: #000000"/>
      </g>
     </g>
     <g id="text_23">
      <!-- 23:00 -->
      <g transform="translate(715.039062 301.209022) rotate(-90) scale(0.12 -0.12)">
       <use xlink:href="#ArialMT-32"/>
       <use xlink:href="#ArialMT-33" transform="translate(55.615234 0)"/>
       <use xlink:href="#ArialMT-3a" transform="translate(111.230469 0)"/>
       <use xlink:href="#ArialMT-30" transform="translate(139.013672 0)"/>
       <use xlink:href="#ArialMT-30" transform="translate(194.628906 0)"/>
      </g>
     </g>
    </g>
    <g id="xtick_24">
     <g id="line2d_65">
      <g>
       <use xlink:href="#m4aae30b95f" x="739.836875" y="262.682772" style="stroke: #000000"/>
      </g>
     </g>
     <g id="text_24">
      <!-- 24:00 -->
      <g transform="translate(742.939062 301.209022) rotate(-90) scale(0.12 -0.12)">
       <use xlink:href="#ArialMT-32"/>
       <use xlink:href="#ArialMT-34" transform="translate(55.615234 0)"/>
       <use xlink:href="#ArialMT-3a" transform="translate(111.230469 0)"/>
       <use xlink:href="#ArialMT-30" transform="translate(139.013672 0)"/>
       <use xlink:href="#ArialMT-30" transform="translate(194.628906 0)"/>
      </g>
     </g>
    </g>
   </g>
   <g id="matplotlib.axis_2">
    <g id="ytick_1">
     <g id="line2d_66">
      <defs>
       <path id="m104c2f59d0" d="M 0 0 
L -5 0 
" style="stroke: #000000; stroke-opacity: 0; stroke-width: 1.5"/>
      </defs>
      <g>
       <use xlink:href="#m104c2f59d0" x="84.186875" y="242.595815" style="fill-opacity: 0; stroke: #000000; stroke-opacity: 0; stroke-width: 1.5"/>
      </g>
     </g>
     <g id="text_25">
      <!-- 0 -->
      <g transform="translate(66.789375 248.322065) scale(0.16 -0.16)">
       <use xlink:href="#ArialMT-30"/>
      </g>
     </g>
    </g>
    <g id="ytick_2">
     <g id="line2d_67">
      <g>
       <use xlink:href="#m104c2f59d0" x="84.186875" y="202.421902" style="fill-opacity: 0; stroke: #000000; stroke-opacity: 0; stroke-width: 1.5"/>
      </g>
     </g>
     <g id="text_26">
      <!-- 10 -->
      <g transform="translate(57.891875 208.148152) scale(0.16 -0.16)">
       <use xlink:href="#ArialMT-31"/>
       <use xlink:href="#ArialMT-30" transform="translate(55.615234 0)"/>
      </g>
     </g>
    </g>
    <g id="ytick_3">
     <g id="line2d_68">
      <g>
       <use xlink:href="#m104c2f59d0" x="84.186875" y="162.247989" style="fill-opacity: 0; stroke: #000000; stroke-opacity: 0; stroke-width: 1.5"/>
      </g>
     </g>
     <g id="text_27">
      <!-- 20 -->
      <g transform="translate(57.891875 167.974239) scale(0.16 -0.16)">
       <use xlink:href="#ArialMT-32"/>
       <use xlink:href="#ArialMT-30" transform="translate(55.615234 0)"/>
      </g>
     </g>
    </g>
    <g id="ytick_4">
     <g id="line2d_69">
      <g>
       <use xlink:href="#m104c2f59d0" x="84.186875" y="122.074076" style="fill-opacity: 0; stroke: #000000; stroke-opacity: 0; stroke-width: 1.5"/>
      </g>
     </g>
     <g id="text_28">
      <!-- 30 -->
      <g transform="translate(57.891875 127.800326) scale(0.16 -0.16)">
       <use xlink:href="#ArialMT-33"/>
       <use xlink:href="#ArialMT-30" transform="translate(55.615234 0)"/>
      </g>
     </g>
    </g>
    <g id="ytick_5">
     <g id="line2d_70">
      <g>
       <use xlink:href="#m104c2f59d0" x="84.186875" y="81.900163" style="fill-opacity: 0; stroke: #000000; stroke-opacity: 0; stroke-width: 1.5"/>
      </g>
     </g>
     <g id="text_29">
      <!-- 40 -->
      <g transform="translate(57.891875 87.626413) scale(0.16 -0.16)">
       <use xlink:href="#ArialMT-34"/>
       <use xlink:href="#ArialMT-30" transform="translate(55.615234 0)"/>
      </g>
     </g>
    </g>
    <g id="ytick_6">
     <g id="line2d_71">
      <g>
       <use xlink:href="#m104c2f59d0" x="84.186875" y="41.72625" style="fill-opacity: 0; stroke: #000000; stroke-opacity: 0; stroke-width: 1.5"/>
      </g>
     </g>
     <g id="text_30">
      <!-- 50 -->
      <g transform="translate(57.891875 47.4525) scale(0.16 -0.16)">
       <use xlink:href="#ArialMT-35"/>
       <use xlink:href="#ArialMT-30" transform="translate(55.615234 0)"/>
      </g>
     </g>
    </g>
    <g id="text_31">
     <!-- PM2.5_Brakes (gm) -->
     <g transform="translate(49.103437 231.822615) rotate(-90) scale(0.18 -0.18)">
      <defs>
       <path id="ArialMT-50" d="M 494 0 
L 494 4581 
L 2222 4581 
Q 2678 4581 2919 4538 
Q 3256 4481 3484 4323 
Q 3713 4166 3852 3881 
Q 3991 3597 3991 3256 
Q 3991 2672 3619 2267 
Q 3247 1863 2275 1863 
L 1100 1863 
L 1100 0 
L 494 0 
z
M 1100 2403 
L 2284 2403 
Q 2872 2403 3119 2622 
Q 3366 2841 3366 3238 
Q 3366 3525 3220 3729 
Q 3075 3934 2838 4000 
Q 2684 4041 2272 4041 
L 1100 4041 
L 1100 2403 
z
" transform="scale(0.015625)"/>
       <path id="ArialMT-4d" d="M 475 0 
L 475 4581 
L 1388 4581 
L 2472 1338 
Q 2622 884 2691 659 
Q 2769 909 2934 1394 
L 4031 4581 
L 4847 4581 
L 4847 0 
L 4263 0 
L 4263 3834 
L 2931 0 
L 2384 0 
L 1059 3900 
L 1059 0 
L 475 0 
z
" transform="scale(0.015625)"/>
       <path id="ArialMT-2e" d="M 581 0 
L 581 641 
L 1222 641 
L 1222 0 
L 581 0 
z
" transform="scale(0.015625)"/>
       <path id="ArialMT-5f" d="M -97 -1272 
L -97 -866 
L 3631 -866 
L 3631 -1272 
L -97 -1272 
z
" transform="scale(0.015625)"/>
       <path id="ArialMT-42" d="M 469 0 
L 469 4581 
L 2188 4581 
Q 2713 4581 3030 4442 
Q 3347 4303 3526 4014 
Q 3706 3725 3706 3409 
Q 3706 3116 3547 2856 
Q 3388 2597 3066 2438 
Q 3481 2316 3704 2022 
Q 3928 1728 3928 1328 
Q 3928 1006 3792 729 
Q 3656 453 3456 303 
Q 3256 153 2954 76 
Q 2653 0 2216 0 
L 469 0 
z
M 1075 2656 
L 2066 2656 
Q 2469 2656 2644 2709 
Q 2875 2778 2992 2937 
Q 3109 3097 3109 3338 
Q 3109 3566 3000 3739 
Q 2891 3913 2687 3977 
Q 2484 4041 1991 4041 
L 1075 4041 
L 1075 2656 
z
M 1075 541 
L 2216 541 
Q 2509 541 2628 563 
Q 2838 600 2978 687 
Q 3119 775 3209 942 
Q 3300 1109 3300 1328 
Q 3300 1584 3169 1773 
Q 3038 1963 2805 2039 
Q 2572 2116 2134 2116 
L 1075 2116 
L 1075 541 
z
" transform="scale(0.015625)"/>
       <path id="ArialMT-72" d="M 416 0 
L 416 3319 
L 922 3319 
L 922 2816 
Q 1116 3169 1280 3281 
Q 1444 3394 1641 3394 
Q 1925 3394 2219 3213 
L 2025 2691 
Q 1819 2813 1613 2813 
Q 1428 2813 1281 2702 
Q 1134 2591 1072 2394 
Q 978 2094 978 1738 
L 978 0 
L 416 0 
z
" transform="scale(0.015625)"/>
       <path id="ArialMT-61" d="M 2588 409 
Q 2275 144 1986 34 
Q 1697 -75 1366 -75 
Q 819 -75 525 192 
Q 231 459 231 875 
Q 231 1119 342 1320 
Q 453 1522 633 1644 
Q 813 1766 1038 1828 
Q 1203 1872 1538 1913 
Q 2219 1994 2541 2106 
Q 2544 2222 2544 2253 
Q 2544 2597 2384 2738 
Q 2169 2928 1744 2928 
Q 1347 2928 1158 2789 
Q 969 2650 878 2297 
L 328 2372 
Q 403 2725 575 2942 
Q 747 3159 1072 3276 
Q 1397 3394 1825 3394 
Q 2250 3394 2515 3294 
Q 2781 3194 2906 3042 
Q 3031 2891 3081 2659 
Q 3109 2516 3109 2141 
L 3109 1391 
Q 3109 606 3145 398 
Q 3181 191 3288 0 
L 2700 0 
Q 2613 175 2588 409 
z
M 2541 1666 
Q 2234 1541 1622 1453 
Q 1275 1403 1131 1340 
Q 988 1278 909 1158 
Q 831 1038 831 891 
Q 831 666 1001 516 
Q 1172 366 1500 366 
Q 1825 366 2078 508 
Q 2331 650 2450 897 
Q 2541 1088 2541 1459 
L 2541 1666 
z
" transform="scale(0.015625)"/>
       <path id="ArialMT-6b" d="M 425 0 
L 425 4581 
L 988 4581 
L 988 1969 
L 2319 3319 
L 3047 3319 
L 1778 2088 
L 3175 0 
L 2481 0 
L 1384 1697 
L 988 1316 
L 988 0 
L 425 0 
z
" transform="scale(0.015625)"/>
       <path id="ArialMT-65" d="M 2694 1069 
L 3275 997 
Q 3138 488 2766 206 
Q 2394 -75 1816 -75 
Q 1088 -75 661 373 
Q 234 822 234 1631 
Q 234 2469 665 2931 
Q 1097 3394 1784 3394 
Q 2450 3394 2872 2941 
Q 3294 2488 3294 1666 
Q 3294 1616 3291 1516 
L 816 1516 
Q 847 969 1125 678 
Q 1403 388 1819 388 
Q 2128 388 2347 550 
Q 2566 713 2694 1069 
z
M 847 1978 
L 2700 1978 
Q 2663 2397 2488 2606 
Q 2219 2931 1791 2931 
Q 1403 2931 1139 2672 
Q 875 2413 847 1978 
z
" transform="scale(0.015625)"/>
       <path id="ArialMT-73" d="M 197 991 
L 753 1078 
Q 800 744 1014 566 
Q 1228 388 1613 388 
Q 2000 388 2187 545 
Q 2375 703 2375 916 
Q 2375 1106 2209 1216 
Q 2094 1291 1634 1406 
Q 1016 1563 777 1677 
Q 538 1791 414 1992 
Q 291 2194 291 2438 
Q 291 2659 392 2848 
Q 494 3038 669 3163 
Q 800 3259 1026 3326 
Q 1253 3394 1513 3394 
Q 1903 3394 2198 3281 
Q 2494 3169 2634 2976 
Q 2775 2784 2828 2463 
L 2278 2388 
Q 2241 2644 2061 2787 
Q 1881 2931 1553 2931 
Q 1166 2931 1000 2803 
Q 834 2675 834 2503 
Q 834 2394 903 2306 
Q 972 2216 1119 2156 
Q 1203 2125 1616 2013 
Q 2213 1853 2448 1751 
Q 2684 1650 2818 1456 
Q 2953 1263 2953 975 
Q 2953 694 2789 445 
Q 2625 197 2315 61 
Q 2006 -75 1616 -75 
Q 969 -75 630 194 
Q 291 463 197 991 
z
" transform="scale(0.015625)"/>
       <path id="ArialMT-20" transform="scale(0.015625)"/>
       <path id="ArialMT-28" d="M 1497 -1347 
Q 1031 -759 709 28 
Q 388 816 388 1659 
Q 388 2403 628 3084 
Q 909 3875 1497 4659 
L 1900 4659 
Q 1522 4009 1400 3731 
Q 1209 3300 1100 2831 
Q 966 2247 966 1656 
Q 966 153 1900 -1347 
L 1497 -1347 
z
" transform="scale(0.015625)"/>
       <path id="ArialMT-67" d="M 319 -275 
L 866 -356 
Q 900 -609 1056 -725 
Q 1266 -881 1628 -881 
Q 2019 -881 2231 -725 
Q 2444 -569 2519 -288 
Q 2563 -116 2559 434 
Q 2191 0 1641 0 
Q 956 0 581 494 
Q 206 988 206 1678 
Q 206 2153 378 2554 
Q 550 2956 876 3175 
Q 1203 3394 1644 3394 
Q 2231 3394 2613 2919 
L 2613 3319 
L 3131 3319 
L 3131 450 
Q 3131 -325 2973 -648 
Q 2816 -972 2473 -1159 
Q 2131 -1347 1631 -1347 
Q 1038 -1347 672 -1080 
Q 306 -813 319 -275 
z
M 784 1719 
Q 784 1066 1043 766 
Q 1303 466 1694 466 
Q 2081 466 2343 764 
Q 2606 1063 2606 1700 
Q 2606 2309 2336 2618 
Q 2066 2928 1684 2928 
Q 1309 2928 1046 2623 
Q 784 2319 784 1719 
z
" transform="scale(0.015625)"/>
       <path id="ArialMT-6d" d="M 422 0 
L 422 3319 
L 925 3319 
L 925 2853 
Q 1081 3097 1340 3245 
Q 1600 3394 1931 3394 
Q 2300 3394 2536 3241 
Q 2772 3088 2869 2813 
Q 3263 3394 3894 3394 
Q 4388 3394 4653 3120 
Q 4919 2847 4919 2278 
L 4919 0 
L 4359 0 
L 4359 2091 
Q 4359 2428 4304 2576 
Q 4250 2725 4106 2815 
Q 3963 2906 3769 2906 
Q 3419 2906 3187 2673 
Q 2956 2441 2956 1928 
L 2956 0 
L 2394 0 
L 2394 2156 
Q 2394 2531 2256 2718 
Q 2119 2906 1806 2906 
Q 1569 2906 1367 2781 
Q 1166 2656 1075 2415 
Q 984 2175 984 1722 
L 984 0 
L 422 0 
z
" transform="scale(0.015625)"/>
       <path id="ArialMT-29" d="M 791 -1347 
L 388 -1347 
Q 1322 153 1322 1656 
Q 1322 2244 1188 2822 
Q 1081 3291 891 3722 
Q 769 4003 388 4659 
L 791 4659 
Q 1378 3875 1659 3084 
Q 1900 2403 1900 1659 
Q 1900 816 1576 28 
Q 1253 -759 791 -1347 
z
" transform="scale(0.015625)"/>
      </defs>
      <use xlink:href="#ArialMT-50"/>
      <use xlink:href="#ArialMT-4d" transform="translate(66.699219 0)"/>
      <use xlink:href="#ArialMT-32" transform="translate(150 0)"/>
      <use xlink:href="#ArialMT-2e" transform="translate(205.615234 0)"/>
      <use xlink:href="#ArialMT-35" transform="translate(233.398438 0)"/>
      <use xlink:href="#ArialMT-5f" transform="translate(289.013672 0)"/>
      <use xlink:href="#ArialMT-42" transform="translate(344.628906 0)"/>
      <use xlink:href="#ArialMT-72" transform="translate(411.328125 0)"/>
      <use xlink:href="#ArialMT-61" transform="translate(444.628906 0)"/>
      <use xlink:href="#ArialMT-6b" transform="translate(500.244141 0)"/>
      <use xlink:href="#ArialMT-65" transform="translate(550.244141 0)"/>
      <use xlink:href="#ArialMT-73" transform="translate(605.859375 0)"/>
      <use xlink:href="#ArialMT-20" transform="translate(655.859375 0)"/>
      <use xlink:href="#ArialMT-28" transform="translate(683.642578 0)"/>
      <use xlink:href="#ArialMT-67" transform="translate(716.943359 0)"/>
      <use xlink:href="#ArialMT-6d" transform="translate(772.558594 0)"/>
      <use xlink:href="#ArialMT-29" transform="translate(855.859375 0)"/>
     </g>
    </g>
   </g>
   <g id="line2d_72">
    <path d="M 98.136875 214.871243 
L 126.036875 224.671618 
L 153.936875 227.860561 
L 181.836875 226.753631 
L 209.736875 215.704347 
L 237.636875 175.33738 
L 265.536875 163.836125 
L 293.436875 133.965891 
L 321.336875 125.732694 
L 349.236875 124.932768 
L 377.136875 116.645384 
L 405.036875 107.556263 
L 432.936875 98.270379 
L 460.836875 91.33242 
L 488.736875 90.10793 
L 516.636875 85.359631 
L 544.536875 86.409097 
L 572.436875 92.975418 
L 600.336875 105.796798 
L 628.236875 132.766805 
L 656.136875 164.817281 
L 684.036875 161.052254 
L 711.936875 168.203819 
L 739.836875 196.101954 
" clip-path="url(#pb2e2ee5cfc)" style="fill: none; stroke: #9edae5; stroke-opacity: 0.8; stroke-width: 1.5; stroke-linecap: round"/>
   </g>
   <g id="line2d_73">
    <path d="M 98.136875 234.559336 
L 126.036875 237.176079 
L 153.936875 238.298008 
L 181.836875 238.74057 
L 209.736875 235.897044 
L 237.636875 226.665175 
L 265.536875 209.317318 
L 293.436875 188.583949 
L 321.336875 183.594468 
L 349.236875 182.643328 
L 377.136875 182.03289 
L 405.036875 179.772121 
L 432.936875 177.230531 
L 460.836875 177.974046 
L 488.736875 176.044405 
L 516.636875 176.46961 
L 544.536875 177.359689 
L 572.436875 177.603713 
L 600.336875 182.543811 
L 628.236875 193.435517 
L 656.136875 203.875747 
L 684.036875 212.680347 
L 711.936875 220.542838 
L 739.836875 230.263581 
" clip-path="url(#pb2e2ee5cfc)" style="fill: none; stroke: #f7b6d2; stroke-opacity: 0.8; stroke-width: 1.5; stroke-linecap: round"/>
   </g>
   <g id="line2d_74">
    <path d="M 98.136875 233.644613 
L 126.036875 236.210423 
L 153.936875 237.066774 
L 181.836875 236.786548 
L 209.736875 233.384208 
L 237.636875 222.315681 
L 265.536875 206.78633 
L 293.436875 186.952396 
L 321.336875 180.41471 
L 349.236875 178.458606 
L 377.136875 176.931184 
L 405.036875 175.795294 
L 432.936875 173.511844 
L 460.836875 174.3524 
L 488.736875 174.136754 
L 516.636875 175.501864 
L 544.536875 175.473946 
L 572.436875 174.90415 
L 600.336875 182.04288 
L 628.236875 192.743073 
L 656.136875 202.556047 
L 684.036875 210.569542 
L 711.936875 218.569018 
L 739.836875 230.610013 
" clip-path="url(#pb2e2ee5cfc)" style="fill: none; stroke: #bcbd22; stroke-opacity: 0.8; stroke-width: 1.5; stroke-linecap: round"/>
   </g>
   <g id="line2d_75">
    <path d="M 98.136875 219.237177 
L 126.036875 227.528361 
L 153.936875 230.277148 
L 181.836875 228.769587 
L 209.736875 217.287918 
L 237.636875 190.229859 
L 265.536875 165.928985 
L 293.436875 114.441861 
L 321.336875 102.864159 
L 349.236875 102.982949 
L 377.136875 99.350517 
L 405.036875 93.994266 
L 432.936875 88.911594 
L 460.836875 87.270752 
L 488.736875 86.813812 
L 516.636875 85.370363 
L 544.536875 85.344015 
L 572.436875 85.969599 
L 600.336875 95.62061 
L 628.236875 108.780314 
L 656.136875 157.225715 
L 684.036875 171.6172 
L 711.936875 188.678396 
L 739.836875 205.555026 
" clip-path="url(#pb2e2ee5cfc)" style="fill: none; stroke: #9467bd; stroke-opacity: 0.8; stroke-width: 1.5; stroke-linecap: round"/>
   </g>
   <g id="line2d_76">
    <path d="M 98.136875 221.8029 
L 126.036875 229.255337 
L 153.936875 232.065657 
L 181.836875 232.163998 
L 209.736875 223.877704 
L 237.636875 201.708096 
L 265.536875 182.674022 
L 293.436875 157.93146 
L 321.336875 151.745165 
L 349.236875 152.125353 
L 377.136875 148.772973 
L 405.036875 145.64667 
L 432.936875 143.450045 
L 460.836875 142.836882 
L 488.736875 142.415397 
L 516.636875 140.264425 
L 544.536875 139.870504 
L 572.436875 141.722441 
L 600.336875 148.911632 
L 628.236875 155.820135 
L 656.136875 170.313119 
L 684.036875 181.507875 
L 711.936875 195.542092 
L 739.836875 210.019369 
" clip-path="url(#pb2e2ee5cfc)" style="fill: none; stroke: #c5b0d5; stroke-opacity: 0.8; stroke-width: 1.5; stroke-linecap: round"/>
   </g>
   <g id="line2d_77">
    <path d="M 98.136875 232.497074 
L 126.036875 236.379217 
L 153.936875 237.894555 
L 181.836875 238.88884 
L 209.736875 235.348705 
L 237.636875 223.963914 
L 265.536875 204.127052 
L 293.436875 183.824026 
L 321.336875 179.340202 
L 349.236875 179.049767 
L 377.136875 179.617807 
L 405.036875 176.654149 
L 432.936875 174.785953 
L 460.836875 175.941987 
L 488.736875 175.510906 
L 516.636875 174.933261 
L 544.536875 174.255827 
L 572.436875 173.488481 
L 600.336875 178.555924 
L 628.236875 183.541641 
L 656.136875 195.445986 
L 684.036875 205.890617 
L 711.936875 214.342376 
L 739.836875 225.837089 
" clip-path="url(#pb2e2ee5cfc)" style="fill: none; stroke: #8c564b; stroke-opacity: 0.8; stroke-width: 1.5; stroke-linecap: round"/>
   </g>
   <g id="line2d_78">
    <path d="M 98.136875 231.564987 
L 126.036875 236.25771 
L 153.936875 237.890331 
L 181.836875 239.044188 
L 209.736875 235.825766 
L 237.636875 225.297365 
L 265.536875 206.72799 
L 293.436875 185.992213 
L 321.336875 180.857159 
L 349.236875 179.809214 
L 377.136875 178.90532 
L 405.036875 175.153538 
L 432.936875 172.483629 
L 460.836875 174.435372 
L 488.736875 175.296862 
L 516.636875 177.263778 
L 544.536875 175.436008 
L 572.436875 174.773673 
L 600.336875 178.641778 
L 628.236875 183.514958 
L 656.136875 195.489244 
L 684.036875 204.301855 
L 711.936875 213.463334 
L 739.836875 224.205462 
" clip-path="url(#pb2e2ee5cfc)" style="fill: none; stroke: #7f7f7f; stroke-opacity: 0.8; stroke-width: 1.5; stroke-linecap: round"/>
   </g>
   <g id="line2d_79">
    <path d="M 98.136875 219.084409 
L 126.036875 227.4369 
L 153.936875 230.613275 
L 181.836875 231.389568 
L 209.736875 223.788292 
L 237.636875 203.282223 
L 265.536875 175.557479 
L 293.436875 147.830551 
L 321.336875 135.660086 
L 349.236875 136.121948 
L 377.136875 134.750403 
L 405.036875 130.741728 
L 432.936875 125.817964 
L 460.836875 124.090414 
L 488.736875 122.490178 
L 516.636875 123.870076 
L 544.536875 124.090061 
L 572.436875 123.907118 
L 600.336875 132.504625 
L 628.236875 137.956199 
L 656.136875 156.131151 
L 684.036875 170.031491 
L 711.936875 185.570692 
L 739.836875 204.599847 
" clip-path="url(#pb2e2ee5cfc)" style="fill: none; stroke: #9edae5; stroke-opacity: 0.8; stroke-width: 1.5; stroke-linecap: round"/>
   </g>
   <g id="line2d_80">
    <path d="M 98.136875 228.924903 
L 126.036875 233.899752 
L 153.936875 235.715263 
L 181.836875 236.13217 
L 209.736875 231.065831 
L 237.636875 217.327899 
L 265.536875 196.433946 
L 293.436875 174.499149 
L 321.336875 160.389892 
L 349.236875 157.157231 
L 377.136875 153.271836 
L 405.036875 147.443528 
L 432.936875 143.693786 
L 460.836875 141.298512 
L 488.736875 138.689092 
L 516.636875 137.721313 
L 544.536875 136.377371 
L 572.436875 137.031825 
L 600.336875 148.913865 
L 628.236875 164.328038 
L 656.136875 184.221903 
L 684.036875 194.188118 
L 711.936875 205.700443 
L 739.836875 220.438254 
" clip-path="url(#pb2e2ee5cfc)" style="fill: none; stroke: #c7c7c7; stroke-opacity: 0.8; stroke-width: 1.5; stroke-linecap: round"/>
   </g>
   <g id="line2d_81">
    <path d="M 98.136875 222.788386 
L 126.036875 230.030042 
L 153.936875 233.215355 
L 181.836875 235.842489 
L 209.736875 229.454689 
L 237.636875 212.754483 
L 265.536875 191.566339 
L 293.436875 171.007596 
L 321.336875 159.18339 
L 349.236875 157.523863 
L 377.136875 157.182503 
L 405.036875 152.83586 
L 432.936875 150.635449 
L 460.836875 150.739281 
L 488.736875 149.338675 
L 516.636875 149.835201 
L 544.536875 149.598396 
L 572.436875 149.77011 
L 600.336875 156.113461 
L 628.236875 160.035244 
L 656.136875 173.800662 
L 684.036875 184.506599 
L 711.936875 194.690311 
L 739.836875 211.785435 
" clip-path="url(#pb2e2ee5cfc)" style="fill: none; stroke: #c49c94; stroke-opacity: 0.8; stroke-width: 1.5; stroke-linecap: round"/>
   </g>
   <g id="line2d_82">
    <path d="M 98.136875 221.828618 
L 126.036875 229.278859 
L 153.936875 232.250691 
L 181.836875 234.253429 
L 209.736875 227.939725 
L 237.636875 209.997283 
L 265.536875 186.703718 
L 293.436875 165.799035 
L 321.336875 156.227793 
L 349.236875 155.081765 
L 377.136875 154.982781 
L 405.036875 152.674914 
L 432.936875 149.380618 
L 460.836875 147.579451 
L 488.736875 147.129347 
L 516.636875 147.795796 
L 544.536875 145.879655 
L 572.436875 146.946018 
L 600.336875 152.507567 
L 628.236875 156.549883 
L 656.136875 171.04078 
L 684.036875 181.425396 
L 711.936875 192.453889 
L 739.836875 210.495773 
" clip-path="url(#pb2e2ee5cfc)" style="fill: none; stroke: #1f77b4; stroke-opacity: 0.8; stroke-width: 1.5; stroke-linecap: round"/>
   </g>
   <g id="line2d_83">
    <path d="M 98.136875 232.717923 
L 126.036875 236.305197 
L 153.936875 237.992951 
L 181.836875 238.765584 
L 209.736875 234.724275 
L 237.636875 224.075784 
L 265.536875 206.921079 
L 293.436875 186.065554 
L 321.336875 179.015727 
L 349.236875 176.753102 
L 377.136875 174.821217 
L 405.036875 172.277805 
L 432.936875 169.791729 
L 460.836875 169.148051 
L 488.736875 166.459522 
L 516.636875 165.484787 
L 544.536875 164.534481 
L 572.436875 164.978111 
L 600.336875 173.221072 
L 628.236875 183.096688 
L 656.136875 196.524257 
L 684.036875 206.086153 
L 711.936875 214.614622 
L 739.836875 226.487027 
" clip-path="url(#pb2e2ee5cfc)" style="fill: none; stroke: #aec7e8; stroke-opacity: 0.8; stroke-width: 1.5; stroke-linecap: round"/>
   </g>
   <g id="line2d_84">
    <path d="M 98.136875 235.393148 
L 126.036875 238.03879 
L 153.936875 239.29332 
L 181.836875 240.016956 
L 209.736875 237.568294 
L 237.636875 227.994909 
L 265.536875 212.851967 
L 293.436875 189.32277 
L 321.336875 180.14996 
L 349.236875 177.198611 
L 377.136875 178.424001 
L 405.036875 174.986172 
L 432.936875 168.361325 
L 460.836875 168.17 
L 488.736875 163.43562 
L 516.636875 160.071893 
L 544.536875 158.850016 
L 572.436875 158.188446 
L 600.336875 168.645123 
L 628.236875 185.214365 
L 656.136875 202.927332 
L 684.036875 213.571229 
L 711.936875 221.97846 
L 739.836875 229.726774 
" clip-path="url(#pb2e2ee5cfc)" style="fill: none; stroke: #1f77b4; stroke-opacity: 0.8; stroke-width: 1.5; stroke-linecap: round"/>
   </g>
   <g id="line2d_85">
    <path d="M 98.136875 229.464694 
L 126.036875 233.898231 
L 153.936875 236.102743 
L 181.836875 237.615785 
L 209.736875 233.662101 
L 237.636875 220.456094 
L 265.536875 199.894084 
L 293.436875 169.237176 
L 321.336875 157.496772 
L 349.236875 156.249749 
L 377.136875 157.841719 
L 405.036875 149.660859 
L 432.936875 143.050859 
L 460.836875 145.469172 
L 488.736875 140.120439 
L 516.636875 137.680669 
L 544.536875 136.500296 
L 572.436875 138.765726 
L 600.336875 149.384846 
L 628.236875 157.01125 
L 656.136875 180.169569 
L 684.036875 197.086566 
L 711.936875 208.351989 
L 739.836875 220.480104 
" clip-path="url(#pb2e2ee5cfc)" style="fill: none; stroke: #e377c2; stroke-opacity: 0.8; stroke-width: 1.5; stroke-linecap: round"/>
   </g>
   <g id="line2d_86">
    <path d="M 98.136875 233.727855 
L 126.036875 236.19429 
L 153.936875 236.91074 
L 181.836875 237.427618 
L 209.736875 234.918942 
L 237.636875 225.726947 
L 265.536875 210.935965 
L 293.436875 189.643222 
L 321.336875 180.534408 
L 349.236875 176.747626 
L 377.136875 176.067778 
L 405.036875 172.728777 
L 432.936875 171.412736 
L 460.836875 172.479127 
L 488.736875 172.106059 
L 516.636875 171.601356 
L 544.536875 171.770075 
L 572.436875 172.238638 
L 600.336875 176.341428 
L 628.236875 187.70195 
L 656.136875 198.288528 
L 684.036875 207.494878 
L 711.936875 216.386597 
L 739.836875 229.723662 
" clip-path="url(#pb2e2ee5cfc)" style="fill: none; stroke: #ff7f0e; stroke-opacity: 0.8; stroke-width: 1.5; stroke-linecap: round"/>
   </g>
   <g id="line2d_87">
    <path d="M 98.136875 236.025049 
L 126.036875 238.577585 
L 153.936875 239.694418 
L 181.836875 240.3159 
L 209.736875 237.832098 
L 237.636875 228.571319 
L 265.536875 211.674362 
L 293.436875 189.675349 
L 321.336875 182.782681 
L 349.236875 180.618585 
L 377.136875 179.504976 
L 405.036875 177.18397 
L 432.936875 173.951599 
L 460.836875 173.918944 
L 488.736875 171.629484 
L 516.636875 169.478906 
L 544.536875 168.552263 
L 572.436875 170.882783 
L 600.336875 178.174992 
L 628.236875 190.834606 
L 656.136875 204.329412 
L 684.036875 213.91287 
L 711.936875 221.998779 
L 739.836875 230.646108 
" clip-path="url(#pb2e2ee5cfc)" style="fill: none; stroke: #98df8a; stroke-opacity: 0.8; stroke-width: 1.5; stroke-linecap: round"/>
   </g>
   <g id="line2d_88">
    <path d="M 98.136875 229.914256 
L 126.036875 234.16197 
L 153.936875 236.488229 
L 181.836875 237.828347 
L 209.736875 234.045541 
L 237.636875 220.970767 
L 265.536875 199.479119 
L 293.436875 170.205068 
L 321.336875 155.604176 
L 349.236875 152.41347 
L 377.136875 157.164283 
L 405.036875 150.94416 
L 432.936875 140.680302 
L 460.836875 143.005589 
L 488.736875 134.854569 
L 516.636875 132.646096 
L 544.536875 135.060444 
L 572.436875 135.542779 
L 600.336875 144.196291 
L 628.236875 156.767521 
L 656.136875 182.242238 
L 684.036875 198.609205 
L 711.936875 209.500864 
L 739.836875 221.121144 
" clip-path="url(#pb2e2ee5cfc)" style="fill: none; stroke: #d62728; stroke-opacity: 0.8; stroke-width: 1.5; stroke-linecap: round"/>
   </g>
   <g id="line2d_89">
    <path d="M 98.136875 209.589155 
L 126.036875 220.710122 
L 153.936875 224.515963 
L 181.836875 224.93144 
L 209.736875 213.625782 
L 237.636875 191.38134 
L 265.536875 160.667848 
L 293.436875 125.236587 
L 321.336875 102.927949 
L 349.236875 96.197293 
L 377.136875 89.476699 
L 405.036875 79.892226 
L 432.936875 70.678129 
L 460.836875 66.801142 
L 488.736875 62.63867 
L 516.636875 64.625643 
L 544.536875 75.112785 
L 572.436875 84.386723 
L 600.336875 96.08953 
L 628.236875 113.133264 
L 656.136875 142.30593 
L 684.036875 158.354166 
L 711.936875 177.018569 
L 739.836875 197.235013 
" clip-path="url(#pb2e2ee5cfc)" style="fill: none; stroke: #ffbb78; stroke-opacity: 0.8; stroke-width: 1.5; stroke-linecap: round"/>
   </g>
   <g id="line2d_90">
    <path d="M 98.136875 227.145804 
L 126.036875 232.772881 
L 153.936875 234.431117 
L 181.836875 234.646019 
L 209.736875 228.960243 
L 237.636875 216.947831 
L 265.536875 198.531019 
L 293.436875 156.506563 
L 321.336875 140.276626 
L 349.236875 130.729089 
L 377.136875 121.199292 
L 405.036875 111.701855 
L 432.936875 103.879669 
L 460.836875 98.136267 
L 488.736875 93.838855 
L 516.636875 95.447377 
L 544.536875 107.063059 
L 572.436875 114.492844 
L 600.336875 126.869223 
L 628.236875 129.405082 
L 656.136875 186.576751 
L 684.036875 198.19961 
L 711.936875 209.16179 
L 739.836875 219.551916 
" clip-path="url(#pb2e2ee5cfc)" style="fill: none; stroke: #2ca02c; stroke-opacity: 0.8; stroke-width: 1.5; stroke-linecap: round"/>
   </g>
   <g id="line2d_91">
    <path d="M 98.136875 215.923477 
L 126.036875 224.970638 
L 153.936875 228.299876 
L 181.836875 227.701695 
L 209.736875 216.024443 
L 237.636875 189.132963 
L 265.536875 164.663494 
L 293.436875 134.143044 
L 321.336875 117.625416 
L 349.236875 114.21381 
L 377.136875 112.784524 
L 405.036875 105.867998 
L 432.936875 101.069162 
L 460.836875 99.97455 
L 488.736875 95.547333 
L 516.636875 95.170664 
L 544.536875 94.313018 
L 572.436875 95.794689 
L 600.336875 105.701158 
L 628.236875 122.460837 
L 656.136875 155.470797 
L 684.036875 169.91605 
L 711.936875 185.196598 
L 739.836875 204.007856 
" clip-path="url(#pb2e2ee5cfc)" style="fill: none; stroke: #dbdb8d; stroke-opacity: 0.8; stroke-width: 1.5; stroke-linecap: round"/>
   </g>
   <g id="line2d_92">
    <path d="M 98.136875 225.98631 
L 126.036875 232.002024 
L 153.936875 233.719973 
L 181.836875 233.235689 
L 209.736875 224.853687 
L 237.636875 205.55765 
L 265.536875 182.898639 
L 293.436875 155.459933 
L 321.336875 144.858237 
L 349.236875 143.386018 
L 377.136875 141.12798 
L 405.036875 136.422698 
L 432.936875 133.135531 
L 460.836875 131.707117 
L 488.736875 129.623499 
L 516.636875 128.020721 
L 544.536875 127.91 
L 572.436875 132.753347 
L 600.336875 144.337551 
L 628.236875 162.54275 
L 656.136875 179.708433 
L 684.036875 190.942681 
L 711.936875 203.356653 
L 739.836875 217.557203 
" clip-path="url(#pb2e2ee5cfc)" style="fill: none; stroke: #d62728; stroke-opacity: 0.8; stroke-width: 1.5; stroke-linecap: round"/>
   </g>
   <g id="line2d_93">
    <path d="M 98.136875 228.706124 
L 126.036875 233.535001 
L 153.936875 234.91864 
L 181.836875 234.177256 
L 209.736875 226.449485 
L 237.636875 205.654772 
L 265.536875 185.642499 
L 293.436875 154.693711 
L 321.336875 147.076431 
L 349.236875 144.90885 
L 377.136875 142.789251 
L 405.036875 139.042535 
L 432.936875 136.006209 
L 460.836875 135.316865 
L 488.736875 133.781338 
L 516.636875 134.046319 
L 544.536875 133.589461 
L 572.436875 137.783179 
L 600.336875 147.60204 
L 628.236875 166.640942 
L 656.136875 184.904601 
L 684.036875 195.180852 
L 711.936875 206.690205 
L 739.836875 221.174942 
" clip-path="url(#pb2e2ee5cfc)" style="fill: none; stroke: #ff9896; stroke-opacity: 0.8; stroke-width: 1.5; stroke-linecap: round"/>
   </g>
   <g id="line2d_94">
    <path d="M 98.136875 224.114189 
L 126.036875 230.987449 
L 153.936875 233.710113 
L 181.836875 235.432881 
L 209.736875 228.934478 
L 237.636875 208.576083 
L 265.536875 182.114258 
L 293.436875 144.57358 
L 321.336875 137.645294 
L 349.236875 135.169614 
L 377.136875 135.083824 
L 405.036875 125.367135 
L 432.936875 116.088802 
L 460.836875 115.729858 
L 488.736875 109.01951 
L 516.636875 108.966765 
L 544.536875 106.955965 
L 572.436875 111.103235 
L 600.336875 126.62972 
L 628.236875 144.950988 
L 656.136875 166.672606 
L 684.036875 185.07621 
L 711.936875 198.011886 
L 739.836875 212.317844 
" clip-path="url(#pb2e2ee5cfc)" style="fill: none; stroke: #17becf; stroke-opacity: 0.8; stroke-width: 1.5; stroke-linecap: round"/>
   </g>
   <g id="line2d_95">
    <path d="M 98.136875 226.283239 
L 126.036875 232.379993 
L 153.936875 234.764621 
L 181.836875 236.00764 
L 209.736875 230.469097 
L 237.636875 211.871047 
L 265.536875 184.36022 
L 293.436875 148.794399 
L 321.336875 143.818019 
L 349.236875 143.205653 
L 377.136875 140.169851 
L 405.036875 132.212444 
L 432.936875 129.228481 
L 460.836875 128.78533 
L 488.736875 125.863281 
L 516.636875 124.575033 
L 544.536875 119.851554 
L 572.436875 125.376476 
L 600.336875 140.427052 
L 628.236875 153.431713 
L 656.136875 174.049198 
L 684.036875 190.53174 
L 711.936875 204.231945 
L 739.836875 216.431847 
" clip-path="url(#pb2e2ee5cfc)" style="fill: none; stroke: #f7b6d2; stroke-opacity: 0.8; stroke-width: 1.5; stroke-linecap: round"/>
   </g>
   <g id="patch_3">
    <path d="M 84.186875 262.682772 
L 84.186875 40.922772 
" style="fill: none; stroke: #000000; stroke-linejoin: miter; stroke-linecap: square"/>
   </g>
   <g id="patch_4">
    <path d="M 753.786875 262.682772 
L 753.786875 40.922772 
" style="fill: none; stroke: #000000; stroke-linejoin: miter; stroke-linecap: square"/>
   </g>
   <g id="patch_5">
    <path d="M 84.186875 262.682772 
L 753.786875 262.682772 
" style="fill: none; stroke: #000000; stroke-linejoin: miter; stroke-linecap: square"/>
   </g>
   <g id="patch_6">
    <path d="M 84.186875 40.922772 
L 753.786875 40.922772 
" style="fill: none; stroke: #000000; stroke-linejoin: miter; stroke-linecap: square"/>
   </g>
  </g>
 </g>
 <defs>
  <clipPath id="pb2e2ee5cfc">
   <rect x="84.186875" y="40.922772" width="669.6" height="221.76"/>
  </clipPath>
 </defs>
</svg>
