<?xml version="1.0" encoding="utf-8" standalone="no"?>
<!DOCTYPE svg PUBLIC "-//W3C//DTD SVG 1.1//EN"
  "http://www.w3.org/Graphics/SVG/1.1/DTD/svg11.dtd">
<svg xmlns:xlink="http://www.w3.org/1999/xlink" width="572.4pt" height="564.099599pt" viewBox="0 0 572.4 564.099599" xmlns="http://www.w3.org/2000/svg" version="1.1">
 <metadata>
  <rdf:RDF xmlns:dc="http://purl.org/dc/elements/1.1/" xmlns:cc="http://creativecommons.org/ns#" xmlns:rdf="http://www.w3.org/1999/02/22-rdf-syntax-ns#">
   <cc:Work>
    <dc:type rdf:resource="http://purl.org/dc/dcmitype/StillImage"/>
    <dc:date>2025-06-18T02:01:48.322880</dc:date>
    <dc:format>image/svg+xml</dc:format>
    <dc:creator>
     <cc:Agent>
      <dc:title>Matplotlib v3.10.0, https://matplotlib.org/</dc:title>
     </cc:Agent>
    </dc:creator>
   </cc:Work>
  </rdf:RDF>
 </metadata>
 <defs>
  <style type="text/css">*{stroke-linejoin: round; stroke-linecap: butt}</style>
 </defs>
 <g id="figure_1">
  <g id="patch_1">
   <path d="M 0 564.099599 
L 572.4 564.099599 
L 572.4 0 
L 0 0 
L 0 564.099599 
z
" style="fill: none"/>
  </g>
  <g id="axes_1">
   <g id="patch_2">
    <path d="M 7.2 556.899599 
L 565.2 556.899599 
L 565.2 7.2 
L 7.2 7.2 
L 7.2 556.899599 
z
" style="fill: none"/>
   </g>
   <g id="PatchCollection_1">
    <defs>
     <path id="mb1e114b369" d="M 99.347858 -496.174383 
L 101.178438 -499.090538 
L 114.535282 -520.35506 
L 115.035498 -521.153278 
L 117.632367 -525.293368 
L 118.930801 -527.368734 
L 120.878453 -530.476462 
L 140.610396 -521.578994 
L 136.087162 -518.109408 
L 135.193158 -517.417619 
L 126.029618 -510.393302 
L 125.48683 -509.935657 
L 125.050471 -509.446084 
L 124.646041 -508.839438 
L 124.369325 -508.275364 
L 124.188396 -507.700648 
L 122.92189 -502.453696 
L 122.804818 -501.495835 
L 122.868676 -500.463473 
L 123.134748 -499.46304 
L 123.560464 -498.505179 
L 124.614112 -495.940239 
L 125.359115 -494.162874 
L 125.689045 -493.5243 
L 126.47662 -492.27908 
L 127.594125 -490.938074 
L 129.062846 -489.256495 
L 129.892992 -488.053847 
L 133.862795 -475.771936 
L 121.517027 -480.731529 
L 103.60502 -488.107062 
L 96.123058 -491.204147 
L 99.347858 -496.174383 
" style="stroke: #000000"/>
    </defs>
    <g clip-path="url(#p4fcc22dffb)">
     <use xlink:href="#mb1e114b369" x="0" y="564.099599" style="fill: #1f77b4; stroke: #000000"/>
    </g>
   </g>
   <g id="PatchCollection_2">
    <defs>
     <path id="mf7dce6bdcd" d="M 44.85619 -298.461157 
L 46.718699 -301.803029 
L 48.421563 -304.474398 
L 49.922213 -306.581693 
L 51.199361 -308.390987 
L 53.189584 -310.923998 
L 55.382022 -313.520866 
L 56.095097 -314.297798 
L 58.606822 -317.011739 
L 60.948261 -319.331892 
L 63.385486 -321.577545 
L 63.640916 -321.790403 
L 65.918497 -323.748697 
L 68.983653 -326.196565 
L 69.824443 -326.80321 
L 87.07659 -338.137903 
L 89.694744 -339.734339 
L 110.93798 -352.718681 
L 111.246625 -352.899611 
L 112.310915 -353.559471 
L 137.247239 -368.683037 
L 152.466591 -377.910435 
L 152.913593 -378.197793 
L 153.403167 -378.474509 
L 164.131214 -384.838965 
L 167.026084 -386.552473 
L 169.803882 -388.308552 
L 178.701349 -393.928005 
L 181.223718 -395.641513 
L 182.745653 -396.727089 
L 184.246302 -397.823308 
L 187.35403 -400.32439 
L 187.769104 -400.633035 
L 188.173534 -400.994893 
L 189.887041 -402.452971 
L 190.078614 -402.612615 
L 193.207627 -405.475556 
L 196.059926 -405.156269 
L 200.859875 -404.613481 
L 203.55253 -404.315479 
L 204.936107 -403.421475 
L 210.789705 -399.611316 
L 222.252112 -392.161283 
L 234.512737 -384.23232 
L 245.123713 -377.37829 
L 256.703192 -369.885685 
L 268.069813 -362.478224 
L 253.882822 -347.248229 
L 239.631974 -331.965019 
L 225.402412 -316.628594 
L 211.130278 -301.249598 
L 205.45761 -304.953329 
L 199.635941 -308.742203 
L 188.248034 -316.096449 
L 176.636626 -323.610339 
L 167.749801 -329.346864 
L 165.206147 -330.985872 
L 159.469622 -334.700245 
L 150.487011 -334.923746 
L 145.995706 -330.070582 
L 138.822389 -322.375762 
L 136.193591 -319.566036 
L 132.181217 -315.351446 
L 129.147989 -312.467219 
L 125.284615 -308.337772 
L 107.81961 -289.553047 
L 103.796592 -285.221385 
L 101.338081 -282.560659 
L 95.25034 -276.025916 
L 94.18605 -275.834344 
L 86.438016 -279.335859 
L 76.933903 -283.646235 
L 71.250592 -286.211175 
L 59.554041 -291.511341 
L 56.488884 -292.93749 
L 55.360736 -293.991138 
L 50.177642 -296.16229 
L 48.08099 -297.013722 
L 45.835337 -298.024798 
L 44.85619 -298.461157 
" style="stroke: #000000"/>
    </defs>
    <g clip-path="url(#p4fcc22dffb)">
     <use xlink:href="#mf7dce6bdcd" x="0" y="564.099599" style="fill: #1f77b4; stroke: #000000"/>
    </g>
   </g>
   <g id="PatchCollection_3">
    <defs>
     <path id="m9879c0f72a" d="M 95.25034 -276.025916 
L 101.338081 -282.560659 
L 103.796592 -285.221385 
L 107.81961 -289.553047 
L 125.284615 -308.337772 
L 129.147989 -312.467219 
L 132.181217 -315.351446 
L 136.193591 -319.566036 
L 138.822389 -322.375762 
L 145.995706 -330.070582 
L 150.487011 -334.923746 
L 159.469622 -334.700245 
L 165.206147 -330.985872 
L 167.749801 -329.346864 
L 176.636626 -323.610339 
L 188.248034 -316.096449 
L 199.635941 -308.742203 
L 205.45761 -304.953329 
L 211.130278 -301.249598 
L 216.802945 -297.556511 
L 222.46497 -293.85278 
L 229.319 -289.38276 
L 234.363737 -286.094103 
L 238.897614 -281.017438 
L 243.410205 -276.909277 
L 251.424312 -269.597602 
L 258.129341 -263.488575 
L 244.368066 -251.132164 
L 237.471465 -244.927351 
L 232.405442 -238.637395 
L 219.538172 -222.726253 
L 210.119202 -211.199989 
L 198.997367 -217.351587 
L 193.292771 -220.512529 
L 187.588174 -223.673472 
L 178.158561 -228.888495 
L 176.955913 -230.421073 
L 178.573635 -232.421939 
L 172.954181 -235.529667 
L 167.983945 -238.350036 
L 157.670971 -244.203633 
L 153.456381 -246.587644 
L 147.911429 -249.737943 
L 145.708347 -250.983163 
L 140.163395 -254.133463 
L 134.884514 -257.134762 
L 134.096939 -257.581764 
L 120.697523 -263.658862 
L 114.290495 -266.564375 
L 107.830253 -269.725317 
L 99.528788 -273.503548 
L 97.985566 -274.333694 
L 95.622842 -275.85563 
L 95.25034 -276.025916 
" style="stroke: #000000"/>
    </defs>
    <g clip-path="url(#p4fcc22dffb)">
     <use xlink:href="#m9879c0f72a" x="0" y="564.099599" style="fill: #aec7e8; stroke: #000000"/>
    </g>
   </g>
   <g id="PatchCollection_4">
    <defs>
     <path id="meab200b33d" d="M 67.17436 -424.909498 
L 69.771228 -428.879301 
L 72.634169 -432.763961 
L 78.083336 -441.086712 
L 83.745361 -449.750036 
L 80.62699 -451.059113 
L 75.582254 -453.304766 
L 84.085934 -466.470038 
L 92.876973 -480.114241 
L 95.601556 -477.794088 
L 101.508368 -472.770637 
L 103.477305 -471.003915 
L 104.477738 -469.833196 
L 105.32917 -468.587976 
L 106.074173 -467.193755 
L 106.64889 -465.735678 
L 107.127821 -463.894455 
L 107.521608 -462.478949 
L 107.979253 -461.531731 
L 108.62847 -460.659012 
L 118.590228 -451.250685 
L 117.941011 -450.090609 
L 117.38758 -448.675103 
L 117.047007 -447.206382 
L 116.929935 -445.939876 
L 116.98315 -443.811296 
L 116.823506 -442.810863 
L 116.47229 -441.853001 
L 116.14236 -441.235713 
L 113.662564 -437.223338 
L 120.53788 -434.349754 
L 121.495741 -433.945324 
L 128.977703 -430.81631 
L 140.397538 -426.037646 
L 133.969224 -415.575672 
L 128.913845 -407.35935 
L 124.688612 -400.83525 
L 123.76268 -399.387815 
L 118.568943 -391.373708 
L 113.407134 -393.715147 
L 103.030303 -398.398025 
L 99.337215 -400.068961 
L 97.911066 -400.718178 
L 89.726673 -404.411265 
L 80.903706 -408.391712 
L 61.96998 -416.948606 
L 67.17436 -424.909498 
" style="stroke: #000000"/>
    </defs>
    <g clip-path="url(#p4fcc22dffb)">
     <use xlink:href="#meab200b33d" x="0" y="564.099599" style="fill: #ff7f0e; stroke: #000000"/>
    </g>
   </g>
   <g id="PatchCollection_5">
    <defs>
     <path id="m5a787f8101" d="M 118.568943 -391.373708 
L 123.76268 -399.387815 
L 124.688612 -400.83525 
L 128.913845 -407.35935 
L 133.969224 -415.575672 
L 140.397538 -426.037646 
L 143.962911 -431.795457 
L 146.368207 -435.69076 
L 152.157947 -445.045872 
L 157.937044 -454.411628 
L 163.56714 -463.830598 
L 182.681795 -455.805848 
L 198.412007 -449.185962 
L 199.33794 -448.824103 
L 201.221734 -448.185529 
L 203.893103 -447.483097 
L 216.824231 -444.918158 
L 217.239304 -444.833014 
L 218.963455 -443.704867 
L 220.112888 -442.959863 
L 221.081393 -442.331932 
L 222.635257 -441.310213 
L 224.210406 -440.288494 
L 223.369617 -439.362562 
L 219.24017 -435.414044 
L 215.696083 -431.433598 
L 213.812289 -429.315661 
L 211.875281 -427.059365 
L 211.673066 -426.825221 
L 211.417636 -426.52722 
L 210.48106 -425.431001 
L 199.9978 -412.776588 
L 198.326864 -410.839579 
L 196.006711 -408.317211 
L 193.207627 -405.475556 
L 190.078614 -402.612615 
L 189.887041 -402.452971 
L 188.173534 -400.994893 
L 187.769104 -400.633035 
L 187.35403 -400.32439 
L 184.246302 -397.823308 
L 182.745653 -396.727089 
L 181.223718 -395.641513 
L 178.701349 -393.928005 
L 169.803882 -388.308552 
L 167.026084 -386.552473 
L 164.131214 -384.838965 
L 153.403167 -378.474509 
L 152.913593 -378.197793 
L 150.880799 -378.985368 
L 149.316292 -379.602657 
L 136.268092 -384.594178 
L 119.047873 -391.16085 
L 118.568943 -391.373708 
" style="stroke: #000000"/>
    </defs>
    <g clip-path="url(#p4fcc22dffb)">
     <use xlink:href="#m5a787f8101" x="0" y="564.099599" style="fill: #ffbb78; stroke: #000000"/>
    </g>
   </g>
   <g id="PatchCollection_6">
    <defs>
     <path id="m854a2179c8" d="M 40.6416 -384.38132 
L 51.039717 -400.271176 
L 56.414384 -408.466212 
L 59.213468 -412.734016 
L 61.96998 -416.948606 
L 80.903706 -408.391712 
L 89.726673 -404.411265 
L 97.911066 -400.718178 
L 99.337215 -400.068961 
L 103.030303 -398.398025 
L 113.407134 -393.715147 
L 118.568943 -391.373708 
L 119.047873 -391.16085 
L 136.268092 -384.594178 
L 149.316292 -379.602657 
L 150.880799 -378.985368 
L 152.913593 -378.197793 
L 152.466591 -377.910435 
L 137.247239 -368.683037 
L 112.310915 -353.559471 
L 111.246625 -352.899611 
L 110.93798 -352.718681 
L 108.915829 -353.633971 
L 103.126089 -356.241483 
L 99.433001 -357.912418 
L 92.249041 -361.147861 
L 85.203439 -364.319447 
L 77.455405 -367.810319 
L 73.485602 -369.598327 
L 68.706938 -371.748193 
L 59.873328 -375.72864 
L 53.008655 -378.815082 
L 50.603358 -379.900658 
L 40.6416 -384.38132 
" style="stroke: #000000"/>
    </defs>
    <g clip-path="url(#p4fcc22dffb)">
     <use xlink:href="#m854a2179c8" x="0" y="564.099599" style="fill: #2ca02c; stroke: #000000"/>
    </g>
   </g>
   <g id="PatchCollection_7">
    <defs>
     <path id="m1306860458" d="M 116.14236 -441.235713 
L 116.47229 -441.853001 
L 116.823506 -442.810863 
L 116.98315 -443.811296 
L 116.929935 -445.939876 
L 117.047007 -447.206382 
L 117.38758 -448.675103 
L 117.941011 -450.090609 
L 118.590228 -451.250685 
L 133.862795 -475.771936 
L 143.696839 -471.812776 
L 145.186845 -471.20613 
L 163.56714 -463.830598 
L 157.937044 -454.411628 
L 152.157947 -445.045872 
L 146.368207 -435.69076 
L 143.962911 -431.795457 
L 140.397538 -426.037646 
L 128.977703 -430.81631 
L 121.495741 -433.945324 
L 120.53788 -434.349754 
L 113.662564 -437.223338 
L 116.14236 -441.235713 
" style="stroke: #000000"/>
    </defs>
    <g clip-path="url(#p4fcc22dffb)">
     <use xlink:href="#m1306860458" x="0" y="564.099599" style="fill: #98df8a; stroke: #000000"/>
    </g>
   </g>
   <g id="PatchCollection_8">
    <defs>
     <path id="m7d85561c3c" d="M 90.322676 -482.27475 
L 94.441479 -488.596635 
L 96.123058 -491.204147 
L 103.60502 -488.107062 
L 121.517027 -480.731529 
L 133.862795 -475.771936 
L 118.590228 -451.250685 
L 108.62847 -460.659012 
L 107.979253 -461.531731 
L 107.521608 -462.478949 
L 107.127821 -463.894455 
L 106.64889 -465.735678 
L 106.074173 -467.193755 
L 105.32917 -468.587976 
L 104.477738 -469.833196 
L 103.477305 -471.003915 
L 101.508368 -472.770637 
L 95.601556 -477.794088 
L 92.876973 -480.114241 
L 91.163465 -481.572319 
L 90.322676 -482.27475 
" style="stroke: #000000"/>
    </defs>
    <g clip-path="url(#p4fcc22dffb)">
     <use xlink:href="#m7d85561c3c" x="0" y="564.099599" style="fill: #d62728; stroke: #000000"/>
    </g>
   </g>
   <g id="PatchCollection_9">
    <defs>
     <path id="m95305e4ed8" d="M 157.319756 -147.810853 
L 162.619922 -156.122961 
L 164.620788 -157.581039 
L 165.21679 -157.942898 
L 165.599935 -158.177041 
L 166.174652 -158.528257 
L 168.739591 -160.082121 
L 170.059311 -161.699843 
L 177.711559 -171.129455 
L 178.222419 -171.76803 
L 179.712425 -173.598609 
L 180.574501 -174.6629 
L 187.311459 -172.534319 
L 189.450682 -171.831887 
L 193.090555 -170.544096 
L 197.826648 -168.79866 
L 203.446101 -166.467864 
L 204.403962 -166.05279 
L 207.022117 -164.914 
L 211.577279 -162.774776 
L 214.184791 -161.497627 
L 216.792302 -160.167264 
L 221.230393 -157.825826 
L 229.020999 -153.377092 
L 258.288985 -137.838452 
L 263.865866 -134.783939 
L 273.912767 -129.207057 
L 283.778739 -123.949463 
L 291.643845 -119.756158 
L 293.942713 -118.532225 
L 294.442929 -118.276795 
L 294.911217 -118.010722 
L 319.900755 -104.483591 
L 320.369043 -104.217519 
L 323.019126 -102.780727 
L 325.796924 -101.429078 
L 328.649222 -100.215787 
L 330.586231 -99.470784 
L 332.555168 -98.778995 
L 333.587529 -98.470351 
L 335.56711 -97.863705 
L 337.791477 -97.288988 
L 338.632266 -97.065487 
L 341.782565 -96.384342 
L 343.240643 -96.118269 
L 347.189161 -95.405194 
L 350.829034 -94.94755 
L 351.595323 -94.883692 
L 354.607265 -94.649548 
L 358.417424 -94.51119 
L 359.279499 -94.51119 
L 360.833363 -94.500548 
L 364.569023 -94.638905 
L 366.144172 -94.745334 
L 366.665675 -94.787906 
L 368.325968 -94.936907 
L 370.380048 -95.224265 
L 374.434995 -95.788339 
L 378.064225 -96.512056 
L 381.650883 -97.395417 
L 384.002965 -98.06592 
L 384.694754 -98.300064 
L 388.866772 -99.704928 
L 401.436042 -104.834807 
L 401.372184 -103.759874 
L 400.818753 -94.053546 
L 400.542038 -89.391954 
L 400.063107 -81.984493 
L 399.99925 -80.877631 
L 399.807677 -77.961475 
L 399.456462 -72.618737 
L 398.370885 -55.930664 
L 397.093737 -34.9535 
L 387.419337 -37.103367 
L 377.148935 -39.402234 
L 363.004516 -42.563177 
L 361.227151 -42.956964 
L 360.16286 -43.201751 
L 359.492358 -43.350752 
L 349.360313 -45.61769 
L 335.89704 -52.854865 
L 327.638146 -58.048602 
L 322.188979 -61.135044 
L 318.570392 -63.199767 
L 297.146227 -75.247534 
L 269.506605 -90.764888 
L 265.856089 -86.784442 
L 236.162387 -99.949714 
L 215.706726 -109.017468 
L 195.37878 -118.032008 
L 195.868353 -118.798297 
L 184.246302 -123.853676 
L 174.763475 -127.97248 
L 163.56714 -132.836287 
L 151.200086 -138.200311 
L 157.319756 -147.810853 
" style="stroke: #000000"/>
    </defs>
    <g clip-path="url(#p4fcc22dffb)">
     <use xlink:href="#m95305e4ed8" x="0" y="564.099599" style="fill: #d62728; stroke: #000000"/>
    </g>
   </g>
   <g id="PatchCollection_10">
    <defs>
     <path id="me334ea61c6" d="M 181.926149 -176.333835 
L 182.947868 -177.589698 
L 183.32037 -178.047343 
L 186.672884 -182.187433 
L 192.600982 -189.520393 
L 201.434592 -200.461299 
L 210.119202 -211.199989 
L 219.538172 -222.726253 
L 232.405442 -238.637395 
L 237.471465 -244.927351 
L 244.368066 -251.132164 
L 258.129341 -263.488575 
L 251.424312 -269.597602 
L 243.410205 -276.909277 
L 255.085471 -284.657311 
L 262.439717 -289.446618 
L 268.197528 -293.171634 
L 282.586734 -303.771966 
L 295.124075 -294.980928 
L 302.637965 -289.71269 
L 313.855586 -281.847584 
L 314.802804 -281.187724 
L 321.401405 -276.568704 
L 330.405301 -270.246819 
L 331.17159 -269.714674 
L 338.61098 -264.499651 
L 346.806016 -258.752483 
L 352.042325 -255.070038 
L 354.319906 -253.473603 
L 359.652001 -249.727301 
L 361.855082 -248.18408 
L 367.251034 -244.395206 
L 368.794256 -243.320272 
L 374.38178 -239.403684 
L 380.863308 -234.848521 
L 387.238408 -230.378501 
L 388.728414 -229.335497 
L 396.008161 -224.226903 
L 404.03291 -218.596807 
L 405.629346 -217.468659 
L 408.183643 -215.680651 
L 406.076348 -181.729788 
L 404.926914 -163.15792 
L 403.862624 -145.958988 
L 403.309193 -137.040234 
L 402.149116 -117.042218 
L 402.021401 -114.775279 
L 401.6489 -108.485323 
L 401.563757 -107.027245 
L 401.436042 -104.834807 
L 388.866772 -99.704928 
L 384.694754 -98.300064 
L 384.002965 -98.06592 
L 381.650883 -97.395417 
L 378.064225 -96.512056 
L 374.434995 -95.788339 
L 370.380048 -95.224265 
L 368.325968 -94.936907 
L 366.665675 -94.787906 
L 366.144172 -94.745334 
L 364.569023 -94.638905 
L 360.833363 -94.500548 
L 359.279499 -94.51119 
L 358.417424 -94.51119 
L 354.607265 -94.649548 
L 351.595323 -94.883692 
L 350.829034 -94.94755 
L 347.189161 -95.405194 
L 343.240643 -96.118269 
L 341.782565 -96.384342 
L 338.632266 -97.065487 
L 337.791477 -97.288988 
L 335.56711 -97.863705 
L 333.587529 -98.470351 
L 332.555168 -98.778995 
L 330.586231 -99.470784 
L 328.649222 -100.215787 
L 325.796924 -101.429078 
L 323.019126 -102.780727 
L 320.369043 -104.217519 
L 319.900755 -104.483591 
L 294.911217 -118.010722 
L 294.442929 -118.276795 
L 293.942713 -118.532225 
L 291.643845 -119.756158 
L 283.778739 -123.949463 
L 273.912767 -129.207057 
L 263.865866 -134.783939 
L 258.288985 -137.838452 
L 229.020999 -153.377092 
L 221.230393 -157.825826 
L 216.792302 -160.167264 
L 214.184791 -161.497627 
L 211.577279 -162.774776 
L 207.022117 -164.914 
L 204.403962 -166.05279 
L 203.446101 -166.467864 
L 197.826648 -168.79866 
L 193.090555 -170.544096 
L 189.450682 -171.831887 
L 187.311459 -172.534319 
L 180.574501 -174.6629 
L 181.926149 -176.333835 
" style="stroke: #000000"/>
    </defs>
    <g clip-path="url(#p4fcc22dffb)">
     <use xlink:href="#me334ea61c6" x="0" y="564.099599" style="fill: #ff9896; stroke: #000000"/>
    </g>
   </g>
   <g id="PatchCollection_11">
    <defs>
     <path id="m264729f86a" d="M 299.508951 -508.679795 
L 300.339098 -509.414155 
L 301.233102 -510.20173 
L 301.754604 -510.670018 
L 312.301722 -519.993202 
L 313.557584 -521.057492 
L 315.547807 -522.749714 
L 318.272391 -524.708008 
L 320.4329 -526.080943 
L 323.444842 -527.751878 
L 326.616427 -529.263171 
L 329.85187 -530.561605 
L 332.363596 -531.413037 
L 334.098389 -531.913254 
L 334.268675 -531.508824 
L 336.173755 -526.847232 
L 336.929401 -524.984723 
L 343.581216 -523.164787 
L 350.871605 -521.163921 
L 357.19349 -519.461056 
L 357.512777 -519.397199 
L 359.204999 -519.152412 
L 361.25908 -519.077912 
L 362.919373 -519.184341 
L 364.55838 -519.429128 
L 365.729099 -519.705843 
L 367.102034 -507.168502 
L 368.091824 -498.047534 
L 367.953466 -497.047101 
L 365.707813 -480.5506 
L 372.040341 -477.017156 
L 379.171087 -473.026067 
L 381.214524 -471.887276 
L 380.118305 -470.248269 
L 379.171087 -468.928549 
L 377.925867 -467.395971 
L 372.966274 -461.96809 
L 371.41241 -460.39294 
L 369.571187 -458.807147 
L 367.485178 -457.306498 
L 365.707813 -456.210279 
L 363.792091 -455.18856 
L 361.940225 -454.19877 
L 361.131365 -453.773054 
L 360.41829 -453.400552 
L 357.289276 -455.401418 
L 350.754533 -459.765008 
L 346.3058 -462.936594 
L 344.038861 -464.586244 
L 340.696989 -467.129898 
L 337.397689 -469.705481 
L 334.524105 -471.993705 
L 333.449172 -472.845137 
L 328.702437 -476.66594 
L 326.158783 -478.869021 
L 323.710915 -481.146602 
L 321.358833 -483.498684 
L 319.11318 -485.90398 
L 318.761964 -486.297768 
L 314.983734 -490.640073 
L 313.8343 -491.959793 
L 300.232669 -507.839005 
L 299.508951 -508.679795 
" style="stroke: #000000"/>
    </defs>
    <g clip-path="url(#p4fcc22dffb)">
     <use xlink:href="#m264729f86a" x="0" y="564.099599" style="fill: #9467bd; stroke: #000000"/>
    </g>
   </g>
   <g id="PatchCollection_12">
    <defs>
     <path id="m924eaaa2e2" d="M 361.131365 -453.773054 
L 361.940225 -454.19877 
L 363.792091 -455.18856 
L 365.707813 -456.210279 
L 367.485178 -457.306498 
L 369.571187 -458.807147 
L 371.41241 -460.39294 
L 372.966274 -461.96809 
L 377.925867 -467.395971 
L 379.171087 -468.928549 
L 380.118305 -470.248269 
L 381.214524 -471.887276 
L 379.171087 -473.026067 
L 372.040341 -477.017156 
L 365.707813 -480.5506 
L 367.953466 -497.047101 
L 368.091824 -498.047534 
L 367.102034 -507.168502 
L 365.729099 -519.705843 
L 366.357031 -519.87613 
L 367.655465 -520.152845 
L 369.166757 -520.301846 
L 370.507763 -520.28056 
L 371.838126 -520.131559 
L 373.125917 -519.844201 
L 376.393289 -518.758625 
L 384.854397 -515.874398 
L 398.285742 -511.276663 
L 411.3978 -506.785358 
L 418.645617 -504.305561 
L 426.106293 -501.751264 
L 432.672965 -499.505612 
L 444.114086 -495.791238 
L 438.047631 -488.415706 
L 427.638871 -476.059294 
L 426.17015 -469.183978 
L 424.541786 -461.606231 
L 421.029628 -445.152301 
L 420.242053 -441.437928 
L 418.890404 -435.073472 
L 417.038539 -426.325005 
L 416.453179 -423.579135 
L 416.399965 -423.164062 
L 416.112606 -420.960981 
L 415.889105 -419.226188 
L 414.44167 -419.971191 
L 412.270518 -421.152553 
L 409.23729 -422.908632 
L 399.328747 -429.09216 
L 390.335493 -434.70097 
L 380.586593 -440.778068 
L 378.745371 -441.927502 
L 367.325535 -449.079533 
L 360.41829 -453.400552 
L 361.131365 -453.773054 
" style="stroke: #000000"/>
    </defs>
    <g clip-path="url(#p4fcc22dffb)">
     <use xlink:href="#m924eaaa2e2" x="0" y="564.099599" style="fill: #c5b0d5; stroke: #000000"/>
    </g>
   </g>
   <g id="PatchCollection_13">
    <defs>
     <path id="mcad91823ed" d="M 211.130278 -301.249598 
L 225.402412 -316.628594 
L 239.631974 -331.965019 
L 253.882822 -347.248229 
L 268.069813 -362.478224 
L 282.405805 -377.85722 
L 296.667296 -393.151073 
L 303.723541 -400.718178 
L 310.875573 -408.402354 
L 322.33798 -400.994893 
L 333.73653 -393.630004 
L 319.485682 -378.346794 
L 305.139047 -362.946512 
L 290.952057 -347.727159 
L 276.722494 -332.465235 
L 272.146045 -327.537571 
L 268.399743 -323.50391 
L 265.558088 -320.449397 
L 262.52486 -317.224597 
L 267.218381 -314.202012 
L 272.497261 -310.78564 
L 282.586734 -303.771966 
L 268.197528 -293.171634 
L 262.439717 -289.446618 
L 255.085471 -284.657311 
L 243.410205 -276.909277 
L 238.897614 -281.017438 
L 234.363737 -286.094103 
L 229.319 -289.38276 
L 222.46497 -293.85278 
L 216.802945 -297.556511 
L 211.130278 -301.249598 
" style="stroke: #000000"/>
    </defs>
    <g clip-path="url(#p4fcc22dffb)">
     <use xlink:href="#mcad91823ed" x="0" y="564.099599" style="fill: #8c564b; stroke: #000000"/>
    </g>
   </g>
   <g id="PatchCollection_14">
    <defs>
     <path id="m781dfa1382" d="M 196.006711 -408.317211 
L 198.326864 -410.839579 
L 199.9978 -412.776588 
L 210.48106 -425.431001 
L 211.417636 -426.52722 
L 211.673066 -426.825221 
L 211.875281 -427.059365 
L 213.812289 -429.315661 
L 215.696083 -431.433598 
L 219.24017 -435.414044 
L 223.369617 -439.362562 
L 224.210406 -440.288494 
L 229.372215 -436.925337 
L 232.841801 -434.530683 
L 239.39783 -430.007449 
L 250.775094 -422.695774 
L 254.010537 -427.165794 
L 256.043332 -428.368442 
L 258.257056 -429.315661 
L 259.395847 -429.624305 
L 261.524427 -430.039378 
L 266.271162 -430.720524 
L 272.209903 -431.571956 
L 275.466631 -431.284598 
L 276.860852 -430.401237 
L 288.163616 -423.100205 
L 299.551523 -415.735315 
L 303.297825 -413.308733 
L 310.875573 -408.402354 
L 303.723541 -400.718178 
L 296.667296 -393.151073 
L 282.405805 -377.85722 
L 268.069813 -362.478224 
L 256.703192 -369.885685 
L 245.123713 -377.37829 
L 234.512737 -384.23232 
L 222.252112 -392.161283 
L 210.789705 -399.611316 
L 204.936107 -403.421475 
L 203.55253 -404.315479 
L 200.859875 -404.613481 
L 196.059926 -405.156269 
L 193.207627 -405.475556 
L 196.006711 -408.317211 
" style="stroke: #000000"/>
    </defs>
    <g clip-path="url(#p4fcc22dffb)">
     <use xlink:href="#m781dfa1382" x="0" y="564.099599" style="fill: #c49c94; stroke: #000000"/>
    </g>
   </g>
   <g id="PatchCollection_15">
    <defs>
     <path id="mb6013c1e2e" d="M 54.45609 -474.888575 
L 60.299044 -483.892472 
L 66.141998 -492.896368 
L 71.974309 -501.878979 
L 85.661084 -495.706095 
L 87.40652 -494.91852 
L 90.769678 -493.407228 
L 96.123058 -491.204147 
L 94.441479 -488.596635 
L 90.322676 -482.27475 
L 91.163465 -481.572319 
L 92.876973 -480.114241 
L 84.085934 -466.470038 
L 75.582254 -453.304766 
L 62.033837 -459.349935 
L 58.660037 -460.850585 
L 48.33642 -465.458962 
L 54.45609 -474.888575 
" style="stroke: #000000"/>
    </defs>
    <g clip-path="url(#p4fcc22dffb)">
     <use xlink:href="#mb6013c1e2e" x="0" y="564.099599" style="fill: #e377c2; stroke: #000000"/>
    </g>
   </g>
   <g id="PatchCollection_16">
    <defs>
     <path id="m42e973a309" d="M 319.29411 -340.149412 
L 327.595575 -346.205224 
L 334.811463 -351.079674 
L 336.418542 -352.761253 
L 343.091643 -359.721712 
L 345.848155 -362.584653 
L 348.115093 -365.564666 
L 352.702185 -371.599193 
L 357.85335 -378.410651 
L 368.049252 -391.586566 
L 370.507763 -389.809201 
L 384.290324 -379.815515 
L 390.516422 -387.031403 
L 391.57007 -389.170627 
L 392.176715 -390.405204 
L 394.816155 -395.790513 
L 396.614806 -401.590896 
L 414.271384 -386.893046 
L 414.069169 -381.231021 
L 413.728596 -371.875908 
L 413.462523 -364.73452 
L 413.600881 -358.582921 
L 413.792453 -345.300577 
L 413.835025 -342.565351 
L 414.03724 -328.016501 
L 414.218169 -315.798448 
L 413.494452 -303.910324 
L 398.977531 -307.912056 
L 396.582878 -309.402063 
L 396.018804 -299.887307 
L 395.241872 -287.051964 
L 388.34527 -291.341055 
L 380.458878 -296.247433 
L 372.295771 -301.334741 
L 364.143307 -306.411407 
L 352.627685 -313.574081 
L 352.052968 -313.776296 
L 340.367059 -317.831242 
L 333.364029 -320.257825 
L 331.83145 -321.247615 
L 323.487414 -326.686138 
L 312.833867 -333.614669 
L 319.29411 -340.149412 
" style="stroke: #000000"/>
    </defs>
    <g clip-path="url(#p4fcc22dffb)">
     <use xlink:href="#m42e973a309" x="0" y="564.099599" style="fill: #f7b6d2; stroke: #000000"/>
    </g>
   </g>
   <g id="PatchCollection_17">
    <defs>
     <path id="m9ad672ddb9" d="M 166.71744 -73.03381 
L 172.666823 -82.367637 
L 173.624684 -83.868287 
L 178.094704 -90.892603 
L 183.522585 -99.417569 
L 189.205896 -108.336323 
L 193.899416 -115.711855 
L 195.37878 -118.032008 
L 215.706726 -109.017468 
L 236.162387 -99.949714 
L 265.856089 -86.784442 
L 261.311569 -81.824849 
L 257.756839 -77.950832 
L 253.542249 -73.353098 
L 250.296164 -69.819654 
L 245.77293 -64.891989 
L 243.165418 -62.039691 
L 241.505125 -60.24104 
L 239.333973 -54.919588 
L 238.610255 -53.13158 
L 236.311388 -47.469555 
L 234.480809 -43.010179 
L 230.053361 -32.186345 
L 214.163505 -39.434163 
L 201.370735 -45.245188 
L 179.946569 -54.994088 
L 160.778699 -63.710627 
L 166.71744 -73.03381 
" style="stroke: #000000"/>
    </defs>
    <g clip-path="url(#p4fcc22dffb)">
     <use xlink:href="#m9ad672ddb9" x="0" y="564.099599" style="fill: #f7b6d2; stroke: #000000"/>
    </g>
   </g>
   <g id="PatchCollection_18">
    <defs>
     <path id="mf4179c7b35" d="M 265.558088 -320.449397 
L 268.399743 -323.50391 
L 272.146045 -327.537571 
L 276.722494 -332.465235 
L 290.952057 -347.727159 
L 305.139047 -362.946512 
L 319.485682 -378.346794 
L 333.73653 -393.630004 
L 339.473055 -389.91563 
L 345.305367 -386.179971 
L 357.85335 -378.410651 
L 352.702185 -371.599193 
L 348.115093 -365.564666 
L 345.848155 -362.584653 
L 343.091643 -359.721712 
L 336.418542 -352.761253 
L 334.811463 -351.079674 
L 327.595575 -346.205224 
L 319.29411 -340.149412 
L 312.833867 -333.614669 
L 302.552822 -322.609906 
L 297.646443 -317.980243 
L 282.586734 -303.771966 
L 272.497261 -310.78564 
L 267.218381 -314.202012 
L 262.52486 -317.224597 
L 265.558088 -320.449397 
" style="stroke: #000000"/>
    </defs>
    <g clip-path="url(#p4fcc22dffb)">
     <use xlink:href="#mf4179c7b35" x="0" y="564.099599" style="fill: #7f7f7f; stroke: #000000"/>
    </g>
   </g>
   <g id="PatchCollection_19">
    <defs>
     <path id="m51ee6a2d86" d="M 226.775346 -443.353651 
L 229.691502 -446.291092 
L 236.407174 -452.804549 
L 238.684756 -455.00763 
L 241.164552 -457.412927 
L 251.498812 -467.406613 
L 254.308539 -465.735678 
L 265.973161 -458.189859 
L 267.218381 -457.380998 
L 269.410819 -455.976135 
L 288.695761 -443.523937 
L 286.41818 -441.831715 
L 279.393863 -434.360397 
L 277.446212 -432.689461 
L 275.466631 -431.284598 
L 272.209903 -431.571956 
L 266.271162 -430.720524 
L 261.524427 -430.039378 
L 259.395847 -429.624305 
L 258.257056 -429.315661 
L 256.043332 -428.368442 
L 254.010537 -427.165794 
L 250.775094 -422.695774 
L 239.39783 -430.007449 
L 232.841801 -434.530683 
L 229.372215 -436.925337 
L 224.210406 -440.288494 
L 226.775346 -443.353651 
" style="stroke: #000000"/>
    </defs>
    <g clip-path="url(#p4fcc22dffb)">
     <use xlink:href="#m51ee6a2d86" x="0" y="564.099599" style="fill: #c7c7c7; stroke: #000000"/>
    </g>
   </g>
   <g id="PatchCollection_20">
    <defs>
     <path id="m96a0bac750" d="M 282.586734 -303.771966 
L 297.646443 -317.980243 
L 302.552822 -322.609906 
L 312.833867 -333.614669 
L 323.487414 -326.686138 
L 331.83145 -321.247615 
L 333.364029 -320.257825 
L 340.367059 -317.831242 
L 352.052968 -313.776296 
L 352.627685 -313.574081 
L 364.143307 -306.411407 
L 372.295771 -301.334741 
L 380.458878 -296.247433 
L 388.34527 -291.341055 
L 395.241872 -287.051964 
L 396.018804 -299.887307 
L 396.582878 -309.402063 
L 398.977531 -307.912056 
L 413.494452 -303.910324 
L 412.313089 -284.189023 
L 411.333942 -267.841523 
L 410.833726 -259.625201 
L 410.205794 -249.24837 
L 409.737507 -241.468407 
L 409.41822 -236.210813 
L 409.23729 -233.252085 
L 408.90736 -227.749704 
L 408.183643 -215.680651 
L 405.629346 -217.468659 
L 404.03291 -218.596807 
L 396.008161 -224.226903 
L 388.728414 -229.335497 
L 387.238408 -230.378501 
L 380.863308 -234.848521 
L 374.38178 -239.403684 
L 368.794256 -243.320272 
L 367.251034 -244.395206 
L 361.855082 -248.18408 
L 359.652001 -249.727301 
L 354.319906 -253.473603 
L 352.042325 -255.070038 
L 346.806016 -258.752483 
L 338.61098 -264.499651 
L 331.17159 -269.714674 
L 330.405301 -270.246819 
L 321.401405 -276.568704 
L 314.802804 -281.187724 
L 313.855586 -281.847584 
L 302.637965 -289.71269 
L 295.124075 -294.980928 
L 282.586734 -303.771966 
" style="stroke: #000000"/>
    </defs>
    <g clip-path="url(#p4fcc22dffb)">
     <use xlink:href="#m96a0bac750" x="0" y="564.099599" style="fill: #bcbd22; stroke: #000000"/>
    </g>
   </g>
   <g id="PatchCollection_21">
    <defs>
     <path id="mc95b2e0396" d="M 32.840352 -250.270089 
L 33.031924 -251.63238 
L 33.05321 -251.792024 
L 33.542784 -255.250968 
L 34.1175 -259.391057 
L 34.362287 -260.966207 
L 36.02258 -272.566972 
L 36.693083 -276.483561 
L 37.352943 -279.463574 
L 38.129875 -282.422301 
L 38.800378 -284.604097 
L 39.492167 -286.509176 
L 40.662886 -289.489189 
L 41.684605 -291.788057 
L 42.748895 -293.980495 
L 43.259755 -295.268286 
L 44.12183 -297.141437 
L 44.85619 -298.461157 
L 45.835337 -298.024798 
L 48.08099 -297.013722 
L 50.177642 -296.16229 
L 55.360736 -293.991138 
L 56.488884 -292.93749 
L 59.554041 -291.511341 
L 71.250592 -286.211175 
L 76.933903 -283.646235 
L 86.438016 -279.335859 
L 94.18605 -275.834344 
L 95.25034 -276.025916 
L 95.622842 -275.85563 
L 97.985566 -274.333694 
L 99.528788 -273.503548 
L 107.830253 -269.725317 
L 114.290495 -266.564375 
L 120.697523 -263.658862 
L 134.096939 -257.581764 
L 134.884514 -257.134762 
L 140.163395 -254.133463 
L 145.708347 -250.983163 
L 147.911429 -249.737943 
L 153.456381 -246.587644 
L 157.670971 -244.203633 
L 167.983945 -238.350036 
L 172.954181 -235.529667 
L 178.573635 -232.421939 
L 176.955913 -230.421073 
L 178.158561 -228.888495 
L 187.588174 -223.673472 
L 193.292771 -220.512529 
L 198.997367 -217.351587 
L 210.119202 -211.199989 
L 201.434592 -200.461299 
L 192.600982 -189.520393 
L 186.672884 -182.187433 
L 183.32037 -178.047343 
L 182.947868 -177.589698 
L 181.926149 -176.333835 
L 180.574501 -174.6629 
L 165.80215 -179.228705 
L 163.833213 -179.888565 
L 161.789775 -180.580354 
L 157.830615 -182.049075 
L 154.903816 -183.251723 
L 153.520239 -183.815797 
L 150.125153 -185.327089 
L 146.368207 -187.12574 
L 143.249837 -188.764747 
L 136.608665 -192.244977 
L 132.543075 -194.533201 
L 123.688179 -199.51408 
L 122.208816 -200.418727 
L 117.004436 -203.515812 
L 113.279419 -205.612464 
L 104.605453 -210.486914 
L 98.954071 -213.658499 
L 92.983402 -217.160015 
L 91.472109 -218.09659 
L 90.014031 -218.990594 
L 87.087233 -220.863745 
L 85.086367 -222.194108 
L 84.203006 -222.779468 
L 81.21235 -224.886763 
L 79.786201 -225.897839 
L 75.199109 -229.133282 
L 68.281222 -234.018374 
L 66.908287 -234.986879 
L 63.236485 -237.413461 
L 60.341615 -239.16954 
L 56.063168 -241.596122 
L 54.93502 -242.192125 
L 52.167865 -243.479916 
L 49.017566 -244.767707 
L 46.76127 -245.555282 
L 46.314268 -245.597854 
L 44.994548 -246.09807 
L 43.610971 -246.459929 
L 41.73782 -246.875002 
L 39.960455 -247.332647 
L 37.650944 -247.811578 
L 36.299296 -248.024436 
L 34.458073 -248.247937 
L 32.563636 -248.386295 
L 32.840352 -250.270089 
" style="stroke: #000000"/>
    </defs>
    <g clip-path="url(#p4fcc22dffb)">
     <use xlink:href="#mc95b2e0396" x="0" y="564.099599" style="fill: #dbdb8d; stroke: #000000"/>
    </g>
   </g>
   <g id="PatchCollection_22">
    <defs>
     <path id="ma4cf2189e9" d="M 117.015079 -83.655429 
L 122.687746 -92.53161 
L 128.573272 -102.057009 
L 129.37149 -103.344801 
L 133.937296 -110.613904 
L 138.801103 -118.361938 
L 148.35843 -133.666434 
L 149.507864 -135.507656 
L 149.624936 -135.688586 
L 151.200086 -138.200311 
L 163.56714 -132.836287 
L 174.763475 -127.97248 
L 184.246302 -123.853676 
L 195.868353 -118.798297 
L 195.37878 -118.032008 
L 193.899416 -115.711855 
L 189.205896 -108.336323 
L 183.522585 -99.417569 
L 178.094704 -90.892603 
L 173.624684 -83.868287 
L 172.666823 -82.367637 
L 166.71744 -73.03381 
L 160.778699 -63.710627 
L 160.257197 -62.891123 
L 139.78025 -72.81031 
L 121.559599 -81.633277 
L 117.015079 -83.655429 
" style="stroke: #000000"/>
    </defs>
    <g clip-path="url(#p4fcc22dffb)">
     <use xlink:href="#ma4cf2189e9" x="0" y="564.099599" style="fill: #17becf; stroke: #000000"/>
    </g>
   </g>
   <g id="PatchCollection_23">
    <defs>
     <path id="m88cd37c2c6" d="M 416.112606 -420.960981 
L 416.399965 -423.164062 
L 416.453179 -423.579135 
L 417.038539 -426.325005 
L 418.890404 -435.073472 
L 420.242053 -441.437928 
L 421.029628 -445.152301 
L 424.541786 -461.606231 
L 426.17015 -469.183978 
L 427.638871 -476.059294 
L 438.047631 -488.415706 
L 444.114086 -495.791238 
L 446.210738 -496.440455 
L 448.243533 -496.908743 
L 451.723762 -497.792104 
L 453.426627 -498.153963 
L 455.182706 -498.451964 
L 456.374711 -498.611608 
L 463.548029 -499.282111 
L 466.591899 -499.047967 
L 477.649876 -500.176115 
L 477.905306 -500.239972 
L 478.299093 -500.410258 
L 478.650309 -500.655045 
L 478.937668 -500.942404 
L 479.150526 -501.304262 
L 479.267598 -501.729978 
L 479.150526 -503.01777 
L 492.390298 -502.315338 
L 497.63725 -503.337057 
L 516.773191 -504.124632 
L 528.256884 -506.519285 
L 532.652404 -506.849215 
L 534.493626 -507.466504 
L 534.887413 -507.594218 
L 534.504269 -506.06164 
L 534.451054 -505.838139 
L 532.780118 -499.196967 
L 539.836364 -438.606916 
L 530.981468 -427.953369 
L 524.617011 -419.428403 
L 518.380269 -411.510082 
L 517.784267 -410.754436 
L 517.315979 -410.158434 
L 516.900906 -409.509216 
L 516.432618 -408.785499 
L 516.336832 -408.625855 
L 515.442828 -407.231635 
L 512.707602 -407.636065 
L 511.026023 -407.880852 
L 509.003871 -408.178853 
L 507.545793 -408.391712 
L 498.541897 -409.711432 
L 497.541464 -409.849789 
L 485.057337 -411.520725 
L 480.385103 -412.138014 
L 477.309303 -412.585016 
L 475.223294 -412.829802 
L 473.701359 -412.96816 
L 471.785636 -413.085232 
L 468.741766 -413.383233 
L 467.837119 -413.47902 
L 465.634038 -413.777021 
L 459.854941 -413.894093 
L 451.936621 -414.490095 
L 449.893183 -414.596524 
L 448.105175 -414.61781 
L 446.285239 -414.745525 
L 444.135372 -414.79874 
L 436.75984 -414.553953 
L 435.684906 -414.564596 
L 435.099547 -414.54331 
L 432.726179 -414.607167 
L 430.374097 -414.809383 
L 428.628661 -415.054169 
L 426.116936 -415.469243 
L 425.712505 -415.5331 
L 424.009641 -415.969459 
L 422.338705 -416.490961 
L 420.689055 -417.086964 
L 419.443835 -417.58718 
L 419.081976 -417.736181 
L 418.783975 -417.874539 
L 418.028329 -418.193826 
L 415.889105 -419.226188 
L 416.112606 -420.960981 
" style="stroke: #000000"/>
    </defs>
    <g clip-path="url(#p4fcc22dffb)">
     <use xlink:href="#m88cd37c2c6" x="0" y="564.099599" style="fill: #9edae5; stroke: #000000"/>
    </g>
   </g>
   <g id="PatchCollection_24">
    <defs>
     <path id="m49272721d3" d="M 253.180391 -469.034978 
L 255.202542 -470.940058 
L 255.745331 -471.418988 
L 259.385204 -474.643788 
L 261.524427 -476.453082 
L 264.291582 -478.688092 
L 271.28397 -484.318188 
L 275.455989 -487.713274 
L 281.075442 -492.449366 
L 287.014182 -497.63246 
L 298.987449 -508.22215 
L 299.508951 -508.679795 
L 300.232669 -507.839005 
L 313.8343 -491.959793 
L 314.983734 -490.640073 
L 318.761964 -486.297768 
L 319.11318 -485.90398 
L 321.358833 -483.498684 
L 323.710915 -481.146602 
L 326.158783 -478.869021 
L 328.702437 -476.66594 
L 333.449172 -472.845137 
L 334.524105 -471.993705 
L 337.397689 -469.705481 
L 340.696989 -467.129898 
L 344.038861 -464.586244 
L 346.3058 -462.936594 
L 350.754533 -459.765008 
L 357.289276 -455.401418 
L 360.41829 -453.400552 
L 367.325535 -449.079533 
L 378.745371 -441.927502 
L 380.586593 -440.778068 
L 390.335493 -434.70097 
L 399.328747 -429.09216 
L 409.23729 -422.908632 
L 412.270518 -421.152553 
L 414.44167 -419.971191 
L 415.889105 -419.226188 
L 415.793319 -418.406684 
L 415.750747 -418.09804 
L 415.367603 -415.149955 
L 415.271817 -414.362381 
L 414.941887 -405.507485 
L 414.271384 -386.893046 
L 396.614806 -401.590896 
L 394.816155 -395.790513 
L 392.176715 -390.405204 
L 391.57007 -389.170627 
L 390.516422 -387.031403 
L 384.290324 -379.815515 
L 370.507763 -389.809201 
L 368.049252 -391.586566 
L 357.85335 -378.410651 
L 345.305367 -386.179971 
L 339.473055 -389.91563 
L 333.73653 -393.630004 
L 322.33798 -400.994893 
L 310.875573 -408.402354 
L 303.297825 -413.308733 
L 299.551523 -415.735315 
L 288.163616 -423.100205 
L 276.860852 -430.401237 
L 275.466631 -431.284598 
L 277.446212 -432.689461 
L 279.393863 -434.360397 
L 286.41818 -441.831715 
L 288.695761 -443.523937 
L 269.410819 -455.976135 
L 267.218381 -457.380998 
L 265.973161 -458.189859 
L 254.308539 -465.735678 
L 251.498812 -467.406613 
L 253.180391 -469.034978 
" style="stroke: #000000"/>
    </defs>
    <g clip-path="url(#p4fcc22dffb)">
     <use xlink:href="#m49272721d3" x="0" y="564.099599" style="fill: #9edae5; stroke: #000000"/>
    </g>
   </g>
   <g id="matplotlib.axis_1">
    <g id="xtick_1"/>
    <g id="xtick_2"/>
    <g id="xtick_3"/>
    <g id="xtick_4"/>
    <g id="xtick_5"/>
   </g>
   <g id="matplotlib.axis_2">
    <g id="ytick_1"/>
    <g id="ytick_2"/>
    <g id="ytick_3"/>
    <g id="ytick_4"/>
    <g id="ytick_5"/>
   </g>
   <g id="text_1">
    <!-- 8301 -->
    <g transform="translate(88.796977 64.541178) scale(0.2 -0.2)">
     <defs>
      <path id="DejaVuSans-38" d="M 2034 2216 
Q 1584 2216 1326 1975 
Q 1069 1734 1069 1313 
Q 1069 891 1326 650 
Q 1584 409 2034 409 
Q 2484 409 2743 651 
Q 3003 894 3003 1313 
Q 3003 1734 2745 1975 
Q 2488 2216 2034 2216 
z
M 1403 2484 
Q 997 2584 770 2862 
Q 544 3141 544 3541 
Q 544 4100 942 4425 
Q 1341 4750 2034 4750 
Q 2731 4750 3128 4425 
Q 3525 4100 3525 3541 
Q 3525 3141 3298 2862 
Q 3072 2584 2669 2484 
Q 3125 2378 3379 2068 
Q 3634 1759 3634 1313 
Q 3634 634 3220 271 
Q 2806 -91 2034 -91 
Q 1263 -91 848 271 
Q 434 634 434 1313 
Q 434 1759 690 2068 
Q 947 2378 1403 2484 
z
M 1172 3481 
Q 1172 3119 1398 2916 
Q 1625 2713 2034 2713 
Q 2441 2713 2670 2916 
Q 2900 3119 2900 3481 
Q 2900 3844 2670 4047 
Q 2441 4250 2034 4250 
Q 1625 4250 1398 4047 
Q 1172 3844 1172 3481 
z
" transform="scale(0.015625)"/>
      <path id="DejaVuSans-33" d="M 2597 2516 
Q 3050 2419 3304 2112 
Q 3559 1806 3559 1356 
Q 3559 666 3084 287 
Q 2609 -91 1734 -91 
Q 1441 -91 1130 -33 
Q 819 25 488 141 
L 488 750 
Q 750 597 1062 519 
Q 1375 441 1716 441 
Q 2309 441 2620 675 
Q 2931 909 2931 1356 
Q 2931 1769 2642 2001 
Q 2353 2234 1838 2234 
L 1294 2234 
L 1294 2753 
L 1863 2753 
Q 2328 2753 2575 2939 
Q 2822 3125 2822 3475 
Q 2822 3834 2567 4026 
Q 2313 4219 1838 4219 
Q 1578 4219 1281 4162 
Q 984 4106 628 3988 
L 628 4550 
Q 988 4650 1302 4700 
Q 1616 4750 1894 4750 
Q 2613 4750 3031 4423 
Q 3450 4097 3450 3541 
Q 3450 3153 3228 2886 
Q 3006 2619 2597 2516 
z
" transform="scale(0.015625)"/>
      <path id="DejaVuSans-30" d="M 2034 4250 
Q 1547 4250 1301 3770 
Q 1056 3291 1056 2328 
Q 1056 1369 1301 889 
Q 1547 409 2034 409 
Q 2525 409 2770 889 
Q 3016 1369 3016 2328 
Q 3016 3291 2770 3770 
Q 2525 4250 2034 4250 
z
M 2034 4750 
Q 2819 4750 3233 4129 
Q 3647 3509 3647 2328 
Q 3647 1150 3233 529 
Q 2819 -91 2034 -91 
Q 1250 -91 836 529 
Q 422 1150 422 2328 
Q 422 3509 836 4129 
Q 1250 4750 2034 4750 
z
" transform="scale(0.015625)"/>
      <path id="DejaVuSans-31" d="M 794 531 
L 1825 531 
L 1825 4091 
L 703 3866 
L 703 4441 
L 1819 4666 
L 2450 4666 
L 2450 531 
L 3481 531 
L 3481 0 
L 794 0 
L 794 531 
z
" transform="scale(0.015625)"/>
     </defs>
     <use xlink:href="#DejaVuSans-38"/>
     <use xlink:href="#DejaVuSans-33" transform="translate(63.623047 0)"/>
     <use xlink:href="#DejaVuSans-30" transform="translate(127.246094 0)"/>
     <use xlink:href="#DejaVuSans-31" transform="translate(190.869141 0)"/>
    </g>
   </g>
   <g id="text_2">
    <!-- 7710 -->
    <g transform="translate(147.660504 226.127066) scale(0.2 -0.2)">
     <defs>
      <path id="DejaVuSans-37" d="M 525 4666 
L 3525 4666 
L 3525 4397 
L 1831 0 
L 1172 0 
L 2766 4134 
L 525 4134 
L 525 4666 
z
" transform="scale(0.015625)"/>
     </defs>
     <use xlink:href="#DejaVuSans-37"/>
     <use xlink:href="#DejaVuSans-37" transform="translate(63.623047 0)"/>
     <use xlink:href="#DejaVuSans-31" transform="translate(127.246094 0)"/>
     <use xlink:href="#DejaVuSans-30" transform="translate(190.869141 0)"/>
    </g>
   </g>
   <g id="text_3">
    <!-- 7900 -->
    <g transform="translate(150.996622 298.003917) scale(0.2 -0.2)">
     <defs>
      <path id="DejaVuSans-39" d="M 703 97 
L 703 672 
Q 941 559 1184 500 
Q 1428 441 1663 441 
Q 2288 441 2617 861 
Q 2947 1281 2994 2138 
Q 2813 1869 2534 1725 
Q 2256 1581 1919 1581 
Q 1219 1581 811 2004 
Q 403 2428 403 3163 
Q 403 3881 828 4315 
Q 1253 4750 1959 4750 
Q 2769 4750 3195 4129 
Q 3622 3509 3622 2328 
Q 3622 1225 3098 567 
Q 2575 -91 1691 -91 
Q 1453 -91 1209 -44 
Q 966 3 703 97 
z
M 1959 2075 
Q 2384 2075 2632 2365 
Q 2881 2656 2881 3163 
Q 2881 3666 2632 3958 
Q 2384 4250 1959 4250 
Q 1534 4250 1286 3958 
Q 1038 3666 1038 3163 
Q 1038 2656 1286 2365 
Q 1534 2075 1959 2075 
z
" transform="scale(0.015625)"/>
     </defs>
     <use xlink:href="#DejaVuSans-37"/>
     <use xlink:href="#DejaVuSans-39" transform="translate(63.623047 0)"/>
     <use xlink:href="#DejaVuSans-30" transform="translate(127.246094 0)"/>
     <use xlink:href="#DejaVuSans-30" transform="translate(190.869141 0)"/>
    </g>
   </g>
   <g id="text_4">
    <!-- 9102 -->
    <g transform="translate(70.406686 133.831803) scale(0.2 -0.2)">
     <defs>
      <path id="DejaVuSans-32" d="M 1228 531 
L 3431 531 
L 3431 0 
L 469 0 
L 469 531 
Q 828 903 1448 1529 
Q 2069 2156 2228 2338 
Q 2531 2678 2651 2914 
Q 2772 3150 2772 3378 
Q 2772 3750 2511 3984 
Q 2250 4219 1831 4219 
Q 1534 4219 1204 4116 
Q 875 4013 500 3803 
L 500 4441 
Q 881 4594 1212 4672 
Q 1544 4750 1819 4750 
Q 2544 4750 2975 4387 
Q 3406 4025 3406 3419 
Q 3406 3131 3298 2873 
Q 3191 2616 2906 2266 
Q 2828 2175 2409 1742 
Q 1991 1309 1228 531 
z
" transform="scale(0.015625)"/>
     </defs>
     <use xlink:href="#DejaVuSans-39"/>
     <use xlink:href="#DejaVuSans-31" transform="translate(63.623047 0)"/>
     <use xlink:href="#DejaVuSans-30" transform="translate(127.246094 0)"/>
     <use xlink:href="#DejaVuSans-32" transform="translate(190.869141 0)"/>
    </g>
   </g>
   <g id="text_5">
    <!-- 9200 -->
    <g transform="translate(146.247927 149.115013) scale(0.2 -0.2)">
     <use xlink:href="#DejaVuSans-39"/>
     <use xlink:href="#DejaVuSans-32" transform="translate(63.623047 0)"/>
     <use xlink:href="#DejaVuSans-30" transform="translate(127.246094 0)"/>
     <use xlink:href="#DejaVuSans-30" transform="translate(190.869141 0)"/>
    </g>
   </g>
   <g id="text_6">
    <!-- 9300 -->
    <g transform="translate(59.843724 181.740835) scale(0.2 -0.2)">
     <use xlink:href="#DejaVuSans-39"/>
     <use xlink:href="#DejaVuSans-33" transform="translate(63.623047 0)"/>
     <use xlink:href="#DejaVuSans-30" transform="translate(127.246094 0)"/>
     <use xlink:href="#DejaVuSans-30" transform="translate(190.869141 0)"/>
    </g>
   </g>
   <g id="text_7">
    <!-- 9103 -->
    <g transform="translate(111.497154 118.947702) scale(0.2 -0.2)">
     <use xlink:href="#DejaVuSans-39"/>
     <use xlink:href="#DejaVuSans-31" transform="translate(63.623047 0)"/>
     <use xlink:href="#DejaVuSans-30" transform="translate(127.246094 0)"/>
     <use xlink:href="#DejaVuSans-33" transform="translate(190.869141 0)"/>
    </g>
   </g>
   <g id="text_8">
    <!-- 9104 -->
    <g transform="translate(91.518075 97.731073) scale(0.2 -0.2)">
     <defs>
      <path id="DejaVuSans-34" d="M 2419 4116 
L 825 1625 
L 2419 1625 
L 2419 4116 
z
M 2253 4666 
L 3047 4666 
L 3047 1625 
L 3713 1625 
L 3713 1100 
L 3047 1100 
L 3047 0 
L 2419 0 
L 2419 1100 
L 313 1100 
L 313 1709 
L 2253 4666 
z
" transform="scale(0.015625)"/>
     </defs>
     <use xlink:href="#DejaVuSans-39"/>
     <use xlink:href="#DejaVuSans-31" transform="translate(63.623047 0)"/>
     <use xlink:href="#DejaVuSans-30" transform="translate(127.246094 0)"/>
     <use xlink:href="#DejaVuSans-34" transform="translate(190.869141 0)"/>
    </g>
   </g>
   <g id="text_9">
    <!-- 6001 -->
    <g transform="translate(247.107376 464.95915) scale(0.2 -0.2)">
     <defs>
      <path id="DejaVuSans-36" d="M 2113 2584 
Q 1688 2584 1439 2293 
Q 1191 2003 1191 1497 
Q 1191 994 1439 701 
Q 1688 409 2113 409 
Q 2538 409 2786 701 
Q 3034 994 3034 1497 
Q 3034 2003 2786 2293 
Q 2538 2584 2113 2584 
z
M 3366 4563 
L 3366 3988 
Q 3128 4100 2886 4159 
Q 2644 4219 2406 4219 
Q 1781 4219 1451 3797 
Q 1122 3375 1075 2522 
Q 1259 2794 1537 2939 
Q 1816 3084 2150 3084 
Q 2853 3084 3261 2657 
Q 3669 2231 3669 1497 
Q 3669 778 3244 343 
Q 2819 -91 2113 -91 
Q 1303 -91 875 529 
Q 447 1150 447 2328 
Q 447 3434 972 4092 
Q 1497 4750 2381 4750 
Q 2619 4750 2861 4703 
Q 3103 4656 3366 4563 
z
" transform="scale(0.015625)"/>
     </defs>
     <use xlink:href="#DejaVuSans-36"/>
     <use xlink:href="#DejaVuSans-30" transform="translate(63.623047 0)"/>
     <use xlink:href="#DejaVuSans-30" transform="translate(127.246094 0)"/>
     <use xlink:href="#DejaVuSans-31" transform="translate(190.869141 0)"/>
    </g>
   </g>
   <g id="text_10">
    <!-- 6002 -->
    <g transform="translate(276.508617 374.627503) scale(0.2 -0.2)">
     <use xlink:href="#DejaVuSans-36"/>
     <use xlink:href="#DejaVuSans-30" transform="translate(63.623047 0)"/>
     <use xlink:href="#DejaVuSans-30" transform="translate(127.246094 0)"/>
     <use xlink:href="#DejaVuSans-32" transform="translate(190.869141 0)"/>
    </g>
   </g>
   <g id="text_11">
    <!-- 7101 -->
    <g transform="translate(314.181344 75.114903) scale(0.2 -0.2)">
     <use xlink:href="#DejaVuSans-37"/>
     <use xlink:href="#DejaVuSans-31" transform="translate(63.623047 0)"/>
     <use xlink:href="#DejaVuSans-30" transform="translate(127.246094 0)"/>
     <use xlink:href="#DejaVuSans-31" transform="translate(190.869141 0)"/>
    </g>
   </g>
   <g id="text_12">
    <!-- 7102 -->
    <g transform="translate(377.560095 99.902226) scale(0.2 -0.2)">
     <use xlink:href="#DejaVuSans-37"/>
     <use xlink:href="#DejaVuSans-31" transform="translate(63.623047 0)"/>
     <use xlink:href="#DejaVuSans-30" transform="translate(127.246094 0)"/>
     <use xlink:href="#DejaVuSans-32" transform="translate(190.869141 0)"/>
    </g>
   </g>
   <g id="text_13">
    <!-- 7301 -->
    <g transform="translate(239.85231 229.761617) scale(0.2 -0.2)">
     <use xlink:href="#DejaVuSans-37"/>
     <use xlink:href="#DejaVuSans-33" transform="translate(63.623047 0)"/>
     <use xlink:href="#DejaVuSans-30" transform="translate(127.246094 0)"/>
     <use xlink:href="#DejaVuSans-31" transform="translate(190.869141 0)"/>
    </g>
   </g>
   <g id="text_14">
    <!-- 7502 -->
    <g transform="translate(230.547124 167.548523) scale(0.2 -0.2)">
     <defs>
      <path id="DejaVuSans-35" d="M 691 4666 
L 3169 4666 
L 3169 4134 
L 1269 4134 
L 1269 2991 
Q 1406 3038 1543 3061 
Q 1681 3084 1819 3084 
Q 2600 3084 3056 2656 
Q 3513 2228 3513 1497 
Q 3513 744 3044 326 
Q 2575 -91 1722 -91 
Q 1428 -91 1123 -41 
Q 819 9 494 109 
L 494 744 
Q 775 591 1075 516 
Q 1375 441 1709 441 
Q 2250 441 2565 725 
Q 2881 1009 2881 1497 
Q 2881 1984 2565 2268 
Q 2250 2553 1709 2553 
Q 1456 2553 1204 2497 
Q 953 2441 691 2322 
L 691 4666 
z
" transform="scale(0.015625)"/>
     </defs>
     <use xlink:href="#DejaVuSans-37"/>
     <use xlink:href="#DejaVuSans-35" transform="translate(63.623047 0)"/>
     <use xlink:href="#DejaVuSans-30" transform="translate(127.246094 0)"/>
     <use xlink:href="#DejaVuSans-32" transform="translate(190.869141 0)"/>
    </g>
   </g>
   <g id="text_15">
    <!-- 8904 -->
    <g transform="translate(48.22258 92.116941) scale(0.2 -0.2)">
     <use xlink:href="#DejaVuSans-38"/>
     <use xlink:href="#DejaVuSans-39" transform="translate(63.623047 0)"/>
     <use xlink:href="#DejaVuSans-30" transform="translate(127.246094 0)"/>
     <use xlink:href="#DejaVuSans-34" transform="translate(190.869141 0)"/>
    </g>
   </g>
   <g id="text_16">
    <!-- 6200 -->
    <g transform="translate(343.69722 225.685385) scale(0.2 -0.2)">
     <use xlink:href="#DejaVuSans-36"/>
     <use xlink:href="#DejaVuSans-32" transform="translate(63.623047 0)"/>
     <use xlink:href="#DejaVuSans-30" transform="translate(127.246094 0)"/>
     <use xlink:href="#DejaVuSans-30" transform="translate(190.869141 0)"/>
    </g>
   </g>
   <g id="text_17">
    <!-- 6420 -->
    <g transform="translate(186.567898 493.966384) scale(0.2 -0.2)">
     <use xlink:href="#DejaVuSans-36"/>
     <use xlink:href="#DejaVuSans-34" transform="translate(63.623047 0)"/>
     <use xlink:href="#DejaVuSans-32" transform="translate(127.246094 0)"/>
     <use xlink:href="#DejaVuSans-30" transform="translate(190.869141 0)"/>
    </g>
   </g>
   <g id="text_18">
    <!-- 7302 -->
    <g transform="translate(286.972313 220.214932) scale(0.2 -0.2)">
     <use xlink:href="#DejaVuSans-37"/>
     <use xlink:href="#DejaVuSans-33" transform="translate(63.623047 0)"/>
     <use xlink:href="#DejaVuSans-30" transform="translate(127.246094 0)"/>
     <use xlink:href="#DejaVuSans-32" transform="translate(190.869141 0)"/>
    </g>
   </g>
   <g id="text_19">
    <!-- 7501 -->
    <g transform="translate(231.98547 124.710835) scale(0.2 -0.2)">
     <use xlink:href="#DejaVuSans-37"/>
     <use xlink:href="#DejaVuSans-35" transform="translate(63.623047 0)"/>
     <use xlink:href="#DejaVuSans-30" transform="translate(127.246094 0)"/>
     <use xlink:href="#DejaVuSans-31" transform="translate(190.869141 0)"/>
    </g>
   </g>
   <g id="text_20">
    <!-- 6300 -->
    <g transform="translate(343.335345 296.210588) scale(0.2 -0.2)">
     <use xlink:href="#DejaVuSans-36"/>
     <use xlink:href="#DejaVuSans-33" transform="translate(63.623047 0)"/>
     <use xlink:href="#DejaVuSans-30" transform="translate(127.246094 0)"/>
     <use xlink:href="#DejaVuSans-30" transform="translate(190.869141 0)"/>
    </g>
   </g>
   <g id="text_21">
    <!-- 4010 -->
    <g transform="translate(92.528017 333.146785) scale(0.2 -0.2)">
     <use xlink:href="#DejaVuSans-34"/>
     <use xlink:href="#DejaVuSans-30" transform="translate(63.623047 0)"/>
     <use xlink:href="#DejaVuSans-31" transform="translate(127.246094 0)"/>
     <use xlink:href="#DejaVuSans-30" transform="translate(190.869141 0)"/>
    </g>
   </g>
   <g id="text_22">
    <!-- 6410 -->
    <g transform="translate(130.6107 468.88106) scale(0.2 -0.2)">
     <use xlink:href="#DejaVuSans-36"/>
     <use xlink:href="#DejaVuSans-34" transform="translate(63.623047 0)"/>
     <use xlink:href="#DejaVuSans-31" transform="translate(127.246094 0)"/>
     <use xlink:href="#DejaVuSans-30" transform="translate(190.869141 0)"/>
    </g>
   </g>
   <g id="text_23">
    <!-- 6020 -->
    <g transform="translate(455.00085 116.239083) scale(0.2 -0.2)">
     <use xlink:href="#DejaVuSans-36"/>
     <use xlink:href="#DejaVuSans-30" transform="translate(63.623047 0)"/>
     <use xlink:href="#DejaVuSans-32" transform="translate(127.246094 0)"/>
     <use xlink:href="#DejaVuSans-30" transform="translate(190.869141 0)"/>
    </g>
   </g>
   <g id="text_24">
    <!-- 7400 -->
    <g transform="translate(302.627326 123.316614) scale(0.2 -0.2)">
     <use xlink:href="#DejaVuSans-37"/>
     <use xlink:href="#DejaVuSans-34" transform="translate(63.623047 0)"/>
     <use xlink:href="#DejaVuSans-30" transform="translate(127.246094 0)"/>
     <use xlink:href="#DejaVuSans-30" transform="translate(190.869141 0)"/>
    </g>
   </g>
  </g>
 </g>
 <defs>
  <clipPath id="p4fcc22dffb">
   <rect x="7.2" y="7.2" width="558" height="549.699599"/>
  </clipPath>
 </defs>
</svg>
