<?xml version="1.0" encoding="utf-8" standalone="no"?>
<!DOCTYPE svg PUBLIC "-//W3C//DTD SVG 1.1//EN"
  "http://www.w3.org/Graphics/SVG/1.1/DTD/svg11.dtd">
<svg xmlns:xlink="http://www.w3.org/1999/xlink" width="572.4pt" height="725.742364pt" viewBox="0 0 572.4 725.742364" xmlns="http://www.w3.org/2000/svg" version="1.1">
 <metadata>
  <rdf:RDF xmlns:dc="http://purl.org/dc/elements/1.1/" xmlns:cc="http://creativecommons.org/ns#" xmlns:rdf="http://www.w3.org/1999/02/22-rdf-syntax-ns#">
   <cc:Work>
    <dc:type rdf:resource="http://purl.org/dc/dcmitype/StillImage"/>
    <dc:date>2025-06-18T01:46:50.584691</dc:date>
    <dc:format>image/svg+xml</dc:format>
    <dc:creator>
     <cc:Agent>
      <dc:title>Matplotlib v3.10.0, https://matplotlib.org/</dc:title>
     </cc:Agent>
    </dc:creator>
   </cc:Work>
  </rdf:RDF>
 </metadata>
 <defs>
  <style type="text/css">*{stroke-linejoin: round; stroke-linecap: butt}</style>
 </defs>
 <g id="figure_1">
  <g id="patch_1">
   <path d="M 0 725.742364 
L 572.4 725.742364 
L 572.4 0 
L 0 0 
L 0 725.742364 
z
" style="fill: none"/>
  </g>
  <g id="axes_1">
   <g id="patch_2">
    <path d="M 7.2 718.542364 
L 565.2 718.542364 
L 565.2 7.2 
L 7.2 7.2 
L 7.2 718.542364 
z
" style="fill: none"/>
   </g>
   <g id="PatchCollection_1">
    <defs>
     <path id="mcce49ed518" d="M 358.882965 -456.832447 
L 359.029375 -465.334007 
L 359.078179 -468.232931 
L 359.107461 -470.146026 
L 359.126982 -471.073291 
L 359.156264 -472.674044 
L 359.312435 -474.060062 
L 359.439324 -478.628064 
L 359.390521 -479.438201 
L 379.273042 -479.916475 
L 379.331607 -483.840271 
L 379.399931 -488.203299 
L 379.438974 -490.721557 
L 379.565863 -499.027902 
L 379.634188 -502.629596 
L 379.848923 -510.19413 
L 380.356479 -522.053366 
L 380.434564 -523.634597 
L 380.776188 -531.101524 
L 380.79571 -535.835458 
L 386.798533 -535.757372 
L 389.326551 -535.737851 
L 394.441152 -535.679287 
L 395.661238 -535.669526 
L 403.469789 -535.571919 
L 404.367772 -535.562158 
L 407.481431 -535.532876 
L 415.358307 -535.435269 
L 421.380651 -535.376705 
L 433.142281 -535.240056 
L 450.42846 -535.02532 
L 469.735101 -534.859389 
L 469.72534 -533.717388 
L 468.290519 -522.25834 
L 467.529185 -516.187192 
L 466.845937 -510.740728 
L 465.879629 -502.980981 
L 465.538005 -500.257749 
L 463.927491 -487.578615 
L 463.029508 -479.457722 
L 462.336499 -473.152318 
L 461.467798 -465.363289 
L 461.116413 -464.543391 
L 456.011573 -453.406446 
L 455.611385 -452.225402 
L 455.445453 -450.976034 
L 455.142872 -439.272969 
L 433.191084 -439.42914 
L 429.316091 -439.458422 
L 422.844755 -439.507226 
L 420.014155 -439.341294 
L 413.659947 -439.097277 
L 411.668767 -439.116798 
L 409.999689 -439.458422 
L 408.760082 -439.800046 
L 405.265755 -441.13726 
L 403.733327 -441.713141 
L 402.483959 -442.337825 
L 402.005685 -442.659928 
L 401.068659 -443.284612 
L 400.22924 -443.840971 
L 398.735855 -444.690151 
L 397.154623 -445.441724 
L 396.627546 -445.636938 
L 395.163443 -446.183536 
L 393.094177 -446.749656 
L 390.614962 -447.188887 
L 388.448089 -447.36458 
L 385.871268 -447.393862 
L 384.651182 -447.403622 
L 383.148036 -447.296255 
L 378.775247 -447.462186 
L 376.139862 -447.618357 
L 358.717033 -447.335297 
L 358.882965 -456.832447 
" style="stroke: #000000"/>
    </defs>
    <g clip-path="url(#pa40fa753be)">
     <use xlink:href="#mcce49ed518" x="0" y="725.742364" style="fill: #1f77b4; stroke: #000000"/>
    </g>
   </g>
   <g id="PatchCollection_2">
    <defs>
     <path id="m939a2f5342" d="M 271.973797 -490.418975 
L 272.30566 -502.034194 
L 272.57896 -512.868558 
L 280.95363 -512.790473 
L 280.729134 -513.815345 
L 280.641288 -514.849978 
L 280.768177 -521.848391 
L 280.885305 -529.129865 
L 281.207408 -534.488483 
L 281.597836 -535.913543 
L 295.009021 -535.972107 
L 297.205176 -535.894022 
L 301.050887 -535.835458 
L 303.442256 -535.786654 
L 307.424617 -535.484073 
L 312.939405 -535.435269 
L 325.218351 -535.347423 
L 326.838625 -535.747611 
L 327.931822 -535.991629 
L 328.585789 -536.01115 
L 332.050833 -536.098996 
L 340.171725 -536.01115 
L 350.498534 -535.903782 
L 364.319668 -535.747611 
L 365.666643 -535.835458 
L 366.906251 -535.913543 
L 369.365944 -535.903782 
L 380.79571 -535.835458 
L 380.776188 -531.101524 
L 380.434564 -523.634597 
L 380.356479 -522.053366 
L 379.848923 -510.19413 
L 379.634188 -502.629596 
L 379.565863 -499.027902 
L 379.438974 -490.721557 
L 379.399931 -488.203299 
L 379.331607 -483.840271 
L 379.273042 -479.916475 
L 359.390521 -479.438201 
L 359.439324 -478.628064 
L 359.312435 -474.060062 
L 359.156264 -472.674044 
L 359.126982 -471.073291 
L 359.107461 -470.146026 
L 359.078179 -468.232931 
L 359.029375 -465.334007 
L 358.882965 -456.832447 
L 358.717033 -447.335297 
L 358.502298 -434.929463 
L 358.297324 -422.474825 
L 340.103401 -422.660278 
L 325.686864 -422.884774 
L 325.247633 -422.894534 
L 310.616362 -422.962859 
L 303.608187 -422.992141 
L 296.160782 -423.021423 
L 296.248629 -435.329651 
L 296.316953 -447.920939 
L 296.365757 -457.086225 
L 296.541449 -458.218465 
L 296.970919 -459.721611 
L 297.702971 -461.400449 
L 297.986031 -462.317954 
L 298.161723 -463.459954 
L 298.161723 -465.041186 
L 298.288612 -471.356351 
L 298.376459 -475.30943 
L 298.435023 -478.413329 
L 290.480062 -471.131855 
L 284.506521 -471.092813 
L 282.749597 -471.219702 
L 283.071699 -471.951753 
L 283.08146 -477.642234 
L 283.110742 -483.810989 
L 282.066349 -483.928118 
L 271.895711 -483.937878 
L 271.973797 -490.418975 
" style="stroke: #000000"/>
    </defs>
    <g clip-path="url(#pa40fa753be)">
     <use xlink:href="#m939a2f5342" x="0" y="725.742364" style="fill: #aec7e8; stroke: #000000"/>
    </g>
   </g>
   <g id="PatchCollection_3">
    <defs>
     <path id="m1ee388e2a0" d="M 140.019053 -340.485044 
L 140.038574 -344.496686 
L 140.048335 -348.215509 
L 140.087378 -355.633632 
L 140.126421 -365.706662 
L 140.136181 -366.497278 
L 140.224027 -370.2161 
L 140.624216 -374.061811 
L 150.638682 -373.183349 
L 164.498859 -373.222392 
L 176.70948 -373.261435 
L 176.543548 -365.911636 
L 179.081327 -365.872594 
L 189.456939 -365.735944 
L 195.879472 -365.687141 
L 197.98778 -365.570012 
L 207.221391 -365.696901 
L 208.441477 -365.53097 
L 214.024591 -365.413841 
L 216.523327 -365.296713 
L 219.334405 -364.935568 
L 221.891706 -364.379208 
L 223.043467 -363.83261 
L 223.316766 -363.705721 
L 223.785279 -363.481225 
L 227.855486 -361.314352 
L 228.021418 -359.29389 
L 228.353281 -356.131427 
L 228.216632 -353.212981 
L 227.718837 -350.753288 
L 227.494341 -350.118843 
L 225.961913 -350.577595 
L 225.766699 -350.021236 
L 224.634459 -348.332637 
L 224.0781 -347.10279 
L 223.22892 -345.238499 
L 222.789689 -344.721182 
L 222.223569 -344.350276 
L 208.314588 -340.641215 
L 203.444005 -339.274718 
L 195.030292 -330.265603 
L 188.383263 -323.150061 
L 181.66791 -315.956434 
L 180.155003 -314.33616 
L 179.637686 -314.687545 
L 179.071566 -314.882758 
L 174.7183 -315.429357 
L 168.949733 -316.161409 
L 159.843011 -317.32293 
L 147.525022 -319.031051 
L 139.872643 -319.997359 
L 140.019053 -340.485044 
" style="stroke: #000000"/>
    </defs>
    <g clip-path="url(#pa40fa753be)">
     <use xlink:href="#m1ee388e2a0" x="0" y="725.742364" style="fill: #ff7f0e; stroke: #000000"/>
    </g>
   </g>
   <g id="PatchCollection_4">
    <defs>
     <path id="m5d7ca05968" d="M 194.29824 -177.266815 
L 195.908754 -177.530354 
L 198.348926 -176.310268 
L 199.842311 -175.929601 
L 204.254142 -175.91008 
L 204.254142 -175.705105 
L 212.365274 -175.685584 
L 220.173825 -175.666062 
L 220.232389 -181.717689 
L 220.290953 -187.798598 
L 220.476406 -200.59486 
L 220.53497 -212.171036 
L 220.505688 -225.914085 
L 220.739944 -237.909971 
L 221.052287 -248.549121 
L 221.315825 -249.798489 
L 221.53056 -250.852644 
L 221.559842 -252.160576 
L 221.716013 -258.836887 
L 221.794099 -262.253128 
L 222.057637 -273.839064 
L 222.438304 -277.147938 
L 222.6628 -278.836537 
L 222.672561 -279.207443 
L 222.877535 -280.573939 
L 222.994663 -281.969718 
L 223.746236 -287.494267 
L 223.804801 -287.884695 
L 224.146425 -290.285824 
L 224.273314 -294.19986 
L 229.270786 -296.708357 
L 231.135077 -297.586819 
L 233.331232 -298.631213 
L 233.858309 -297.655144 
L 235.380977 -298.45552 
L 246.186059 -298.387195 
L 258.572372 -298.328631 
L 274.374926 -298.240785 
L 279.762826 -298.211503 
L 292.822627 -298.143178 
L 295.575141 -298.123657 
L 309.113216 -298.055332 
L 313.505525 -298.035811 
L 315.27221 -298.02605 
L 319.742605 -297.996768 
L 323.207649 -297.957725 
L 324.037308 -297.869879 
L 323.968983 -296.005587 
L 323.910419 -294.492681 
L 323.881137 -292.472218 
L 323.724966 -281.491444 
L 323.685923 -279.334332 
L 323.627359 -275.469099 
L 323.607838 -274.024518 
L 323.607838 -271.974773 
L 323.559034 -269.817661 
L 323.480949 -264.98612 
L 323.451667 -262.702119 
L 323.422385 -260.915913 
L 323.246692 -248.871224 
L 322.78794 -210.814301 
L 322.641529 -202.429869 
L 322.436555 -199.706637 
L 322.260863 -187.632666 
L 322.114452 -176.134575 
L 322.07541 -173.79201 
L 321.928999 -163.787305 
L 321.899717 -161.688757 
L 321.880196 -158.858157 
L 321.841153 -149.975931 
L 321.675221 -136.789241 
L 321.51905 -127.331134 
L 321.314076 -113.646649 
L 320.874845 -99.386284 
L 320.621067 -88.68857 
L 320.572264 -84.208414 
L 320.503939 -78.234873 
L 320.503939 -62.559207 
L 320.621067 -53.745306 
L 320.582024 -53.159665 
L 318.11257 -53.686742 
L 316.765595 -53.960041 
L 312.119508 -55.472948 
L 306.448548 -58.596368 
L 299.899126 -63.759772 
L 295.009021 -68.210646 
L 285.824214 -76.312017 
L 285.619239 -76.458427 
L 270.158309 -89.957459 
L 267.044649 -92.846623 
L 264.399503 -95.306316 
L 264.009075 -95.667462 
L 259.938868 -98.712796 
L 258.67974 -99.483891 
L 258.748064 -102.812286 
L 256.112679 -105.232936 
L 251.056642 -109.937588 
L 241.061697 -120.215593 
L 238.367747 -122.88026 
L 229.026769 -133.470607 
L 218.163123 -146.374237 
L 199.324995 -167.877033 
L 191.487162 -176.817824 
L 194.29824 -177.266815 
" style="stroke: #000000"/>
    </defs>
    <g clip-path="url(#pa40fa753be)">
     <use xlink:href="#m5d7ca05968" x="0" y="725.742364" style="fill: #ffbb78; stroke: #000000"/>
    </g>
   </g>
   <g id="PatchCollection_5">
    <defs>
     <path id="m1000ce8da5" d="M 34.3108 -528.017146 
L 34.340082 -530.018087 
L 34.408406 -536.909133 
L 34.486492 -544.795769 
L 34.545056 -552.936183 
L 34.613381 -563.428923 
L 34.652424 -570.778721 
L 34.671945 -573.013919 
L 34.671945 -573.5898 
L 34.701227 -577.982109 
L 34.74027 -583.779958 
L 34.984287 -622.500608 
L 35.120937 -644.891627 
L 35.189261 -646.726636 
L 35.511364 -647.175628 
L 35.999399 -647.468449 
L 46.326207 -634.447691 
L 50.835645 -628.747449 
L 52.61209 -626.746508 
L 54.60327 -625.253122 
L 56.487083 -624.111122 
L 58.009751 -623.398592 
L 58.517306 -623.164335 
L 60.674418 -622.432283 
L 63.583104 -621.81736 
L 74.671245 -620.567992 
L 77.43352 -620.25565 
L 78.741452 -619.035564 
L 84.119592 -613.764792 
L 99.219376 -599.904615 
L 106.188508 -593.159979 
L 108.823893 -590.915021 
L 111.32263 -588.025857 
L 112.952665 -586.132284 
L 113.362613 -585.614967 
L 114.504614 -584.199668 
L 117.618273 -579.436452 
L 119.258069 -576.72298 
L 121.805609 -572.262346 
L 123.6699 -568.738738 
L 124.138413 -567.840754 
L 125.446345 -565.361539 
L 126.598107 -563.419162 
L 128.433116 -560.637366 
L 130.648792 -558.13863 
L 135.304641 -553.248525 
L 137.373906 -551.169499 
L 142.039515 -547.811822 
L 147.144355 -545.08859 
L 150.726528 -543.517119 
L 157.412599 -541.418571 
L 158.974309 -541.213597 
L 162.780978 -540.715802 
L 175.801736 -540.013032 
L 177.480574 -539.759254 
L 182.604936 -538.7051 
L 184.303295 -538.324433 
L 186.538493 -537.768074 
L 189.456939 -536.957937 
L 194.776514 -534.830107 
L 197.792566 -533.3172 
L 199.695901 -532.175199 
L 201.989662 -530.564686 
L 202.399611 -530.281626 
L 205.981784 -527.304616 
L 207.865597 -525.479367 
L 209.739649 -523.224648 
L 212.570248 -518.900663 
L 214.053873 -516.284799 
L 215.8596 -512.663584 
L 217.372507 -508.339599 
L 218.182644 -505.596845 
L 219.246559 -501.721852 
L 219.8322 -499.28168 
L 220.632577 -494.918653 
L 221.628167 -486.163315 
L 221.852663 -484.172135 
L 222.262612 -480.150731 
L 223.804801 -467.37399 
L 224.390442 -464.914297 
L 224.780869 -463.274501 
L 224.956562 -462.522928 
L 225.102972 -461.956808 
L 225.942391 -458.804106 
L 224.37092 -458.794345 
L 222.399261 -458.843149 
L 222.047877 -458.930995 
L 203.307355 -458.833388 
L 203.190227 -458.960277 
L 193.058633 -459.057884 
L 189.232443 -459.096927 
L 187.729297 -459.126209 
L 184.205688 -459.204294 
L 176.85589 -459.223816 
L 175.401548 -459.223816 
L 168.227442 -459.223816 
L 164.889287 -459.223816 
L 153.283828 -459.233576 
L 142.000473 -459.233576 
L 128.306227 -459.243337 
L 117.384017 -459.243337 
L 117.657316 -467.256862 
L 117.754923 -484.582084 
L 117.793966 -492.410156 
L 118.086787 -496.851269 
L 107.252423 -496.900072 
L 95.01252 -497.00744 
L 81.171864 -497.270978 
L 72.123706 -497.485714 
L 69.078371 -497.554038 
L 62.323975 -497.710209 
L 62.40206 -506.114162 
L 62.597274 -524.161674 
L 53.676005 -524.23976 
L 52.885389 -524.151914 
L 48.824943 -523.907897 
L 43.173504 -523.761486 
L 34.261996 -523.67364 
L 34.3108 -528.017146 
" style="stroke: #000000"/>
    </defs>
    <g clip-path="url(#pa40fa753be)">
     <use xlink:href="#m1000ce8da5" x="0" y="725.742364" style="fill: #2ca02c; stroke: #000000"/>
    </g>
   </g>
   <g id="PatchCollection_6">
    <defs>
     <path id="m076f2314d9" d="M 259.450834 -415.534975 
L 264.272614 -418.980498 
L 267.90359 -421.567081 
L 268.811334 -422.094158 
L 269.719078 -422.445543 
L 270.558497 -422.660278 
L 274.501815 -423.099509 
L 281.451425 -423.089748 
L 296.160782 -423.021423 
L 303.608187 -422.992141 
L 310.616362 -422.962859 
L 325.247633 -422.894534 
L 325.686864 -422.884774 
L 340.103401 -422.660278 
L 358.297324 -422.474825 
L 358.082588 -410.039708 
L 357.867853 -397.59483 
L 357.614075 -382.504806 
L 357.467665 -374.296068 
L 357.428622 -372.256084 
L 357.25293 -371.680203 
L 365.832575 -371.572836 
L 377.096409 -371.455707 
L 380.65906 -371.406904 
L 382.181728 -371.387382 
L 385.841986 -371.34834 
L 396.568982 -371.240972 
L 397.320555 -371.21169 
L 404.592268 -371.045758 
L 405.431687 -371.016476 
L 407.500953 -370.977434 
L 412.225126 -370.870066 
L 415.553521 -370.879827 
L 415.895145 -370.78222 
L 418.364599 -370.762698 
L 425.011627 -370.860305 
L 425.646072 -370.870066 
L 427.588449 -370.840784 
L 432.41999 -370.79198 
L 442.766319 -370.635809 
L 454.088718 -370.460117 
L 464.083662 -370.313707 
L 473.239188 -370.186818 
L 475.894095 -370.147775 
L 484.32733 -370.050168 
L 499.134294 -369.884236 
L 508.319101 -369.923279 
L 510.915444 -369.93304 
L 516.137413 -369.952561 
L 521.300817 -369.972083 
L 530.544188 -370.001365 
L 531.588582 -370.011125 
L 537.259542 -370.06969 
L 539.836364 -370.2161 
L 539.660671 -369.532852 
L 537.962311 -365.716423 
L 533.306463 -360.14307 
L 532.769625 -359.508625 
L 530.065915 -357.253906 
L 527.703828 -355.008948 
L 526.796084 -354.150007 
L 526.356853 -353.788862 
L 525.32222 -352.754229 
L 523.740989 -351.260843 
L 512.867582 -348.410722 
L 505.342091 -346.048636 
L 498.138704 -343.862242 
L 492.087077 -342.124839 
L 487.353143 -340.660736 
L 475.698881 -337.068803 
L 464.200791 -333.330459 
L 456.587454 -330.597466 
L 447.16839 -327.405721 
L 435.445803 -323.872352 
L 432.107648 -322.867001 
L 429.091595 -321.9983 
L 421.917489 -320.182812 
L 414.850751 -318.757752 
L 410.643894 -318.015939 
L 408.574629 -317.732879 
L 403.752849 -317.31317 
L 402.562045 -317.205802 
L 397.974521 -316.932503 
L 394.148331 -316.932503 
L 391.874091 -317.078913 
L 389.355833 -317.235084 
L 384.573096 -317.615751 
L 378.462905 -317.420537 
L 374.773365 -317.254606 
L 372.655296 -317.166759 
L 371.074064 -317.274127 
L 366.935533 -317.615751 
L 365.178609 -317.791443 
L 362.709155 -318.367324 
L 361.245051 -318.708948 
L 359.605256 -319.236025 
L 357.526229 -319.909513 
L 357.028434 -320.124248 
L 354.724912 -321.119838 
L 351.738141 -322.749873 
L 348.380464 -325.063156 
L 344.085761 -328.020645 
L 336.911656 -332.725296 
L 325.452608 -340.231266 
L 322.299905 -342.300532 
L 312.744192 -348.557133 
L 302.690683 -355.145597 
L 293.42779 -361.226506 
L 288.781702 -364.271841 
L 286.780761 -365.579773 
L 280.621767 -367.80521 
L 278.503697 -368.849604 
L 274.00402 -371.06528 
L 270.626822 -372.724597 
L 270.011899 -373.066221 
L 268.147607 -374.110614 
L 264.22381 -376.150598 
L 264.965623 -378.30771 
L 269.572668 -391.650571 
L 270.050941 -392.19717 
L 260.163364 -399.878831 
L 267.435077 -405.237449 
L 262.008134 -411.308597 
L 260.788048 -413.085043 
L 259.450834 -415.534975 
" style="stroke: #000000"/>
    </defs>
    <g clip-path="url(#pa40fa753be)">
     <use xlink:href="#m076f2314d9" x="0" y="725.742364" style="fill: #98df8a; stroke: #000000"/>
    </g>
   </g>
   <g id="PatchCollection_7">
    <defs>
     <path id="mbbec09794e" d="M 322.709854 -640.069847 
L 337.26304 -640.099129 
L 338.073178 -640.079608 
L 350.518055 -639.777026 
L 350.459491 -639.533009 
L 351.367235 -636.390068 
L 353.114398 -637.024512 
L 354.900604 -637.405179 
L 356.179254 -637.512547 
L 360.142094 -637.590632 
L 361.899017 -637.56135 
L 368.292268 -637.805367 
L 373.689929 -637.912735 
L 374.880733 -638.010342 
L 374.314613 -632.329621 
L 374.207245 -630.279877 
L 374.109638 -628.48391 
L 374.021792 -626.844114 
L 373.914425 -624.198968 
L 373.56304 -616.292811 
L 372.56745 -605.595096 
L 371.776834 -597.161862 
L 371.484013 -594.106766 
L 371.122868 -590.173209 
L 370.556748 -584.121582 
L 370.381056 -582.38418 
L 369.239055 -570.33949 
L 368.106815 -558.28504 
L 367.003857 -547.001685 
L 365.959464 -536.782244 
L 365.666643 -535.835458 
L 364.319668 -535.747611 
L 350.498534 -535.903782 
L 340.171725 -536.01115 
L 332.050833 -536.098996 
L 328.585789 -536.01115 
L 327.931822 -535.991629 
L 326.838625 -535.747611 
L 326.877668 -537.924245 
L 327.521874 -545.967052 
L 327.678045 -560.783777 
L 327.804934 -573.03344 
L 327.89278 -580.744384 
L 327.931822 -585.165976 
L 327.990387 -589.860867 
L 328.058711 -596.947126 
L 328.107515 -601.632257 
L 328.1856 -608.533063 
L 328.263686 -616.507546 
L 328.292968 -620.528949 
L 328.03919 -622.715343 
L 327.414506 -624.852934 
L 325.979685 -628.0642 
L 324.056829 -632.378425 
L 323.510231 -634.027981 
L 323.119803 -635.618973 
L 322.78794 -637.824889 
L 322.709854 -640.069847 
" style="stroke: #000000"/>
    </defs>
    <g clip-path="url(#pa40fa753be)">
     <use xlink:href="#mbbec09794e" x="0" y="725.742364" style="fill: #d62728; stroke: #000000"/>
    </g>
   </g>
   <g id="PatchCollection_8">
    <defs>
     <path id="mbb9bd109f5" d="M 365.959464 -536.782244 
L 367.003857 -547.001685 
L 368.106815 -558.28504 
L 369.239055 -570.33949 
L 370.381056 -582.38418 
L 370.556748 -584.121582 
L 371.122868 -590.173209 
L 371.484013 -594.106766 
L 371.776834 -597.161862 
L 372.56745 -605.595096 
L 373.56304 -616.292811 
L 373.914425 -624.198968 
L 374.021792 -626.844114 
L 374.109638 -628.48391 
L 374.207245 -630.279877 
L 374.314613 -632.329621 
L 374.880733 -638.010342 
L 376.042255 -638.098188 
L 382.650241 -638.176273 
L 394.714451 -638.342205 
L 405.002217 -638.400769 
L 420.053198 -638.371487 
L 422.122464 -638.371487 
L 422.07366 -627.322388 
L 422.190789 -626.473208 
L 422.151746 -616.185443 
L 422.102942 -605.536532 
L 422.083421 -602.364308 
L 422.07366 -599.943658 
L 422.034618 -590.739329 
L 421.995575 -583.80924 
L 421.976053 -579.026503 
L 421.956532 -575.395527 
L 421.92725 -566.796361 
L 421.868686 -556.918544 
L 421.829643 -549.305207 
L 421.702754 -548.270574 
L 421.566105 -547.235941 
L 421.380651 -535.376705 
L 415.358307 -535.435269 
L 407.481431 -535.532876 
L 404.367772 -535.562158 
L 403.469789 -535.571919 
L 395.661238 -535.669526 
L 394.441152 -535.679287 
L 389.326551 -535.737851 
L 386.798533 -535.757372 
L 380.79571 -535.835458 
L 369.365944 -535.903782 
L 366.906251 -535.913543 
L 365.666643 -535.835458 
L 365.959464 -536.782244 
" style="stroke: #000000"/>
    </defs>
    <g clip-path="url(#pa40fa753be)">
     <use xlink:href="#mbb9bd109f5" x="0" y="725.742364" style="fill: #ff9896; stroke: #000000"/>
    </g>
   </g>
   <g id="PatchCollection_9">
    <defs>
     <path id="m34b19994e5" d="M 213.214454 -644.901388 
L 213.546317 -648.581167 
L 214.01483 -653.861699 
L 214.268608 -656.594692 
L 214.737121 -661.81666 
L 216.386678 -680.147233 
L 216.406199 -681.396601 
L 226.752528 -681.357558 
L 231.340052 -681.38684 
L 236.14231 -681.894396 
L 242.545322 -682.626448 
L 245.122144 -682.929029 
L 257.488936 -684.344329 
L 269.738599 -685.740107 
L 272.813216 -685.993885 
L 276.004961 -686.159817 
L 282.769118 -686.20862 
L 284.838384 -686.19886 
L 287.034539 -686.189099 
L 288.33271 -686.179338 
L 293.515636 -686.140295 
L 296.1315 -686.150056 
L 309.005848 -686.101253 
L 323.061239 -686.042688 
L 322.992914 -676.926206 
L 322.905068 -665.633089 
L 322.895307 -664.188508 
L 322.807461 -652.788024 
L 322.709854 -640.069847 
L 322.78794 -637.824889 
L 323.119803 -635.618973 
L 323.510231 -634.027981 
L 324.056829 -632.378425 
L 325.979685 -628.0642 
L 327.414506 -624.852934 
L 328.03919 -622.715343 
L 328.292968 -620.528949 
L 328.263686 -616.507546 
L 328.1856 -608.533063 
L 328.107515 -601.632257 
L 328.058711 -596.947126 
L 327.990387 -589.860867 
L 327.931822 -585.165976 
L 327.89278 -580.744384 
L 327.804934 -573.03344 
L 327.678045 -560.783777 
L 327.521874 -545.967052 
L 326.877668 -537.924245 
L 326.838625 -535.747611 
L 325.218351 -535.347423 
L 312.939405 -535.435269 
L 307.424617 -535.484073 
L 303.442256 -535.786654 
L 301.050887 -535.835458 
L 297.205176 -535.894022 
L 297.69321 -541.340486 
L 298.620476 -557.621314 
L 298.474065 -559.797947 
L 297.907946 -561.916016 
L 297.019723 -566.142394 
L 295.633705 -572.691816 
L 291.87584 -590.514833 
L 291.573259 -591.939893 
L 290.792404 -598.655247 
L 290.538626 -602.10077 
L 290.245805 -606.005045 
L 290.17748 -608.415935 
L 290.099395 -621.046266 
L 290.089634 -621.856403 
L 290.519105 -635.911794 
L 285.980385 -635.960597 
L 282.671511 -635.989879 
L 266.820154 -635.697059 
L 260.592834 -635.589691 
L 256.991141 -635.589691 
L 254.502165 -635.599452 
L 242.935749 -635.628734 
L 233.214104 -635.648255 
L 226.391383 -635.667777 
L 212.384795 -635.706819 
L 213.214454 -644.901388 
" style="stroke: #000000"/>
    </defs>
    <g clip-path="url(#pa40fa753be)">
     <use xlink:href="#m34b19994e5" x="0" y="725.742364" style="fill: #9467bd; stroke: #000000"/>
    </g>
   </g>
   <g id="PatchCollection_10">
    <defs>
     <path id="m091fc1f240" d="M 32.671004 -294.209621 
L 33.959415 -294.785501 
L 36.194612 -295.380903 
L 37.414698 -295.537074 
L 49.732687 -295.302818 
L 51.489611 -295.263775 
L 56.408998 -295.088083 
L 57.951186 -294.76598 
L 59.161512 -294.307228 
L 59.464093 -294.190099 
L 60.196145 -293.809433 
L 68.580576 -296.75716 
L 70.532714 -297.430648 
L 76.818597 -299.646324 
L 78.975709 -300.134358 
L 80.332444 -300.222205 
L 81.552531 -300.212444 
L 96.056913 -300.192923 
L 101.249599 -300.144119 
L 102.801549 -299.948905 
L 105.641909 -298.972837 
L 108.06256 -297.567297 
L 108.980064 -296.89381 
L 109.760919 -296.073912 
L 110.239193 -295.293057 
L 110.90292 -293.692304 
L 111.576407 -293.897279 
L 113.928733 -293.711826 
L 116.193213 -293.936321 
L 118.018462 -294.443877 
L 121.073557 -295.732288 
L 122.967131 -296.337451 
L 125.114482 -296.503382 
L 128.140295 -296.415536 
L 130.775681 -296.005587 
L 131.556536 -295.790852 
L 133.323221 -295.302818 
L 134.992299 -294.62933 
L 135.44129 -294.453638 
L 138.379257 -292.940731 
L 139.960489 -291.681603 
L 143.737875 -295.507792 
L 147.63239 -299.831777 
L 148.042339 -300.358854 
L 149.506442 -302.310992 
L 153.918273 -308.704243 
L 159.843011 -317.32293 
L 168.949733 -316.161409 
L 174.7183 -315.429357 
L 179.071566 -314.882758 
L 179.637686 -314.687545 
L 180.155003 -314.33616 
L 181.66791 -315.956434 
L 188.744409 -310.841833 
L 192.853658 -308.372379 
L 202.790039 -301.696069 
L 196.99219 -295.214972 
L 196.699369 -294.951433 
L 195.274309 -293.672783 
L 189.222682 -288.23608 
L 187.309587 -286.479156 
L 184.488748 -284.146351 
L 181.589824 -282.28206 
L 178.27119 -280.320161 
L 170.814024 -276.75751 
L 167.9151 -275.61551 
L 160.516498 -272.950842 
L 159.843011 -274.141646 
L 158.935267 -275.449578 
L 157.861591 -276.679425 
L 153.644974 -272.843474 
L 152.376084 -271.965012 
L 150.931502 -271.213439 
L 149.594288 -270.705884 
L 130.414536 -264.498086 
L 123.211148 -262.165281 
L 117.862291 -260.418118 
L 114.826717 -259.285878 
L 111.478801 -257.841296 
L 108.052799 -256.123415 
L 104.538951 -254.083431 
L 101.200796 -251.838473 
L 98.370196 -249.652079 
L 95.276058 -246.97765 
L 94.602571 -246.411531 
L 93.899801 -246.919086 
L 93.206792 -247.075257 
L 74.993348 -248.314865 
L 71.059791 -248.197736 
L 66.872455 -248.256301 
L 66.960302 -258.016989 
L 66.979823 -259.705588 
L 67.106712 -272.091901 
L 67.555704 -273.595047 
L 66.072079 -273.692654 
L 54.290928 -273.887868 
L 47.321797 -274.004996 
L 32.836936 -274.249013 
L 32.817414 -283.589992 
L 32.671004 -294.209621 
" style="stroke: #000000"/>
    </defs>
    <g clip-path="url(#pa40fa753be)">
     <use xlink:href="#m091fc1f240" x="0" y="725.742364" style="fill: #c5b0d5; stroke: #000000"/>
    </g>
   </g>
   <g id="PatchCollection_11">
    <defs>
     <path id="m79d25369e4" d="M 77.43352 -620.25565 
L 82.762856 -619.660248 
L 86.384071 -619.367427 
L 102.25495 -617.630025 
L 104.177806 -617.600743 
L 113.079553 -617.5617 
L 114.475332 -617.551939 
L 122.479096 -617.512897 
L 123.728464 -617.503136 
L 131.292998 -617.473854 
L 135.734111 -619.299102 
L 137.129889 -619.914026 
L 137.129889 -617.220076 
L 144.909158 -617.386008 
L 145.494799 -617.532418 
L 155.333573 -617.571461 
L 160.39937 -617.581221 
L 163.347098 -617.581221 
L 178.027173 -617.493375 
L 178.759224 -617.639785 
L 179.422951 -618.049734 
L 176.56307 -621.153633 
L 177.051104 -621.485497 
L 177.304882 -621.973531 
L 177.568421 -626.463448 
L 178.202865 -634.740511 
L 178.427361 -635.843469 
L 191.330991 -635.775144 
L 195.938036 -635.755623 
L 198.173233 -635.736101 
L 204.947151 -635.726341 
L 210.413136 -635.71658 
L 212.384795 -635.706819 
L 226.391383 -635.667777 
L 233.214104 -635.648255 
L 242.935749 -635.628734 
L 254.502165 -635.599452 
L 256.991141 -635.589691 
L 260.592834 -635.589691 
L 266.820154 -635.697059 
L 282.671511 -635.989879 
L 285.980385 -635.960597 
L 290.519105 -635.911794 
L 290.089634 -621.856403 
L 290.099395 -621.046266 
L 290.17748 -608.415935 
L 290.245805 -606.005045 
L 290.538626 -602.10077 
L 290.792404 -598.655247 
L 291.573259 -591.939893 
L 291.87584 -590.514833 
L 295.633705 -572.691816 
L 297.019723 -566.142394 
L 297.907946 -561.916016 
L 298.474065 -559.797947 
L 298.620476 -557.621314 
L 297.69321 -541.340486 
L 297.205176 -535.894022 
L 295.009021 -535.972107 
L 281.597836 -535.913543 
L 273.340293 -535.8745 
L 268.450188 -536.177082 
L 259.95839 -536.225885 
L 259.314184 -536.225885 
L 258.367398 -536.235646 
L 257.362047 -536.245406 
L 257.244918 -536.245406 
L 256.229807 -536.255167 
L 253.887242 -536.264928 
L 247.816094 -536.303971 
L 243.697083 -536.323492 
L 242.340348 -536.421099 
L 240.261321 -536.596791 
L 239.39262 -536.665116 
L 236.952448 -536.665116 
L 221.66721 -536.684637 
L 219.763876 -536.528466 
L 217.870302 -536.255167 
L 216.015771 -535.86474 
L 214.190523 -535.357184 
L 212.091975 -534.615372 
L 209.105204 -533.336721 
L 207.465409 -533.03414 
L 204.439595 -531.667644 
L 201.989662 -530.564686 
L 199.695901 -532.175199 
L 197.792566 -533.3172 
L 194.776514 -534.830107 
L 189.456939 -536.957937 
L 186.538493 -537.768074 
L 184.303295 -538.324433 
L 182.604936 -538.7051 
L 177.480574 -539.759254 
L 175.801736 -540.013032 
L 162.780978 -540.715802 
L 158.974309 -541.213597 
L 157.412599 -541.418571 
L 150.726528 -543.517119 
L 147.144355 -545.08859 
L 142.039515 -547.811822 
L 137.373906 -551.169499 
L 135.304641 -553.248525 
L 130.648792 -558.13863 
L 128.433116 -560.637366 
L 126.598107 -563.419162 
L 125.446345 -565.361539 
L 124.138413 -567.840754 
L 123.6699 -568.738738 
L 121.805609 -572.262346 
L 119.258069 -576.72298 
L 117.618273 -579.436452 
L 114.504614 -584.199668 
L 113.362613 -585.614967 
L 112.952665 -586.132284 
L 111.32263 -588.025857 
L 108.823893 -590.915021 
L 106.188508 -593.159979 
L 99.219376 -599.904615 
L 84.119592 -613.764792 
L 78.741452 -619.035564 
L 77.43352 -620.25565 
" style="stroke: #000000"/>
    </defs>
    <g clip-path="url(#pa40fa753be)">
     <use xlink:href="#m79d25369e4" x="0" y="725.742364" style="fill: #8c564b; stroke: #000000"/>
    </g>
   </g>
   <g id="PatchCollection_12">
    <defs>
     <path id="ma00686c806" d="M 201.989662 -530.564686 
L 204.439595 -531.667644 
L 207.465409 -533.03414 
L 209.105204 -533.336721 
L 212.091975 -534.615372 
L 214.190523 -535.357184 
L 216.015771 -535.86474 
L 217.870302 -536.255167 
L 219.763876 -536.528466 
L 221.66721 -536.684637 
L 236.952448 -536.665116 
L 239.39262 -536.665116 
L 240.261321 -536.596791 
L 242.340348 -536.421099 
L 243.697083 -536.323492 
L 247.816094 -536.303971 
L 253.887242 -536.264928 
L 256.229807 -536.255167 
L 257.244918 -536.245406 
L 257.362047 -536.245406 
L 258.367398 -536.235646 
L 259.314184 -536.225885 
L 259.95839 -536.225885 
L 268.450188 -536.177082 
L 273.340293 -535.8745 
L 281.597836 -535.913543 
L 281.207408 -534.488483 
L 280.885305 -529.129865 
L 280.768177 -521.848391 
L 280.641288 -514.849978 
L 280.729134 -513.815345 
L 280.95363 -512.790473 
L 272.57896 -512.868558 
L 272.30566 -502.034194 
L 271.973797 -490.418975 
L 271.895711 -483.937878 
L 282.066349 -483.928118 
L 283.110742 -483.810989 
L 283.08146 -477.642234 
L 283.071699 -471.951753 
L 282.749597 -471.219702 
L 284.506521 -471.092813 
L 290.480062 -471.131855 
L 298.435023 -478.413329 
L 298.376459 -475.30943 
L 298.288612 -471.356351 
L 298.161723 -465.041186 
L 298.161723 -463.459954 
L 297.986031 -462.317954 
L 297.702971 -461.400449 
L 296.970919 -459.721611 
L 296.541449 -458.218465 
L 296.365757 -457.086225 
L 296.316953 -447.920939 
L 296.248629 -435.329651 
L 296.160782 -423.021423 
L 281.451425 -423.089748 
L 274.501815 -423.099509 
L 270.558497 -422.660278 
L 269.719078 -422.445543 
L 268.811334 -422.094158 
L 267.90359 -421.567081 
L 264.272614 -418.980498 
L 259.450834 -415.534975 
L 253.038062 -411.006016 
L 247.259734 -422.650517 
L 242.193937 -430.136965 
L 241.090979 -432.19647 
L 238.797218 -436.335002 
L 238.182294 -437.44772 
L 235.624994 -441.439842 
L 230.74465 -448.662751 
L 228.909641 -451.698325 
L 226.654922 -456.129678 
L 225.942391 -458.804106 
L 225.102972 -461.956808 
L 224.956562 -462.522928 
L 224.780869 -463.274501 
L 224.390442 -464.914297 
L 223.804801 -467.37399 
L 222.262612 -480.150731 
L 221.852663 -484.172135 
L 221.628167 -486.163315 
L 220.632577 -494.918653 
L 219.8322 -499.28168 
L 219.246559 -501.721852 
L 218.182644 -505.596845 
L 217.372507 -508.339599 
L 215.8596 -512.663584 
L 214.053873 -516.284799 
L 212.570248 -518.900663 
L 209.739649 -523.224648 
L 207.865597 -525.479367 
L 205.981784 -527.304616 
L 202.399611 -530.281626 
L 201.989662 -530.564686 
" style="stroke: #000000"/>
    </defs>
    <g clip-path="url(#pa40fa753be)">
     <use xlink:href="#ma00686c806" x="0" y="725.742364" style="fill: #c49c94; stroke: #000000"/>
    </g>
   </g>
   <g id="PatchCollection_13">
    <defs>
     <path id="maa5d0db866" d="M 127.418004 -381.70443 
L 127.535133 -390.274314 
L 127.613218 -395.486522 
L 127.710825 -401.616234 
L 127.77915 -406.906527 
L 127.876757 -413.114325 
L 127.954842 -418.521746 
L 128.042688 -426.447425 
L 128.111013 -436.627823 
L 128.042688 -437.896712 
L 128.091492 -446.720374 
L 128.159817 -452.830565 
L 128.306227 -459.243337 
L 142.000473 -459.233576 
L 153.283828 -459.233576 
L 164.889287 -459.223816 
L 168.227442 -459.223816 
L 175.401548 -459.223816 
L 176.85589 -459.223816 
L 184.205688 -459.204294 
L 187.729297 -459.126209 
L 189.232443 -459.096927 
L 193.058633 -459.057884 
L 203.190227 -458.960277 
L 203.307355 -458.833388 
L 222.047877 -458.930995 
L 222.399261 -458.843149 
L 224.37092 -458.794345 
L 225.581246 -454.772942 
L 225.883827 -452.918411 
L 226.225451 -450.117094 
L 226.323058 -449.365521 
L 226.440186 -447.247451 
L 226.606118 -444.455894 
L 226.498751 -440.922525 
L 226.48899 -428.731426 
L 226.703725 -406.486817 
L 226.879417 -388.410023 
L 226.928221 -384.574072 
L 226.937981 -383.480875 
L 226.889178 -383.12949 
L 226.937981 -374.383914 
L 227.06487 -372.236562 
L 227.308888 -368.176116 
L 227.494341 -365.892115 
L 227.855486 -361.314352 
L 223.785279 -363.481225 
L 223.316766 -363.705721 
L 223.043467 -363.83261 
L 221.891706 -364.379208 
L 219.334405 -364.935568 
L 216.523327 -365.296713 
L 214.024591 -365.413841 
L 208.441477 -365.53097 
L 207.221391 -365.696901 
L 197.98778 -365.570012 
L 195.879472 -365.687141 
L 189.456939 -365.735944 
L 179.081327 -365.872594 
L 176.543548 -365.911636 
L 176.70948 -373.261435 
L 164.498859 -373.222392 
L 150.638682 -373.183349 
L 140.624216 -374.061811 
L 136.466162 -374.003247 
L 134.377375 -374.003247 
L 131.000177 -374.013008 
L 129.867937 -374.013008 
L 128.501441 -374.013008 
L 127.300876 -374.022768 
L 127.418004 -381.70443 
" style="stroke: #000000"/>
    </defs>
    <g clip-path="url(#pa40fa753be)">
     <use xlink:href="#maa5d0db866" x="0" y="725.742364" style="fill: #e377c2; stroke: #000000"/>
    </g>
   </g>
   <g id="PatchCollection_14">
    <defs>
     <path id="m4fe251da20" d="M 357.428622 -372.256084 
L 357.467665 -374.296068 
L 357.614075 -382.504806 
L 357.867853 -397.59483 
L 358.082588 -410.039708 
L 358.297324 -422.474825 
L 358.502298 -434.929463 
L 358.717033 -447.335297 
L 376.139862 -447.618357 
L 378.775247 -447.462186 
L 383.148036 -447.296255 
L 384.651182 -447.403622 
L 385.871268 -447.393862 
L 388.448089 -447.36458 
L 390.614962 -447.188887 
L 393.094177 -446.749656 
L 395.163443 -446.183536 
L 396.627546 -445.636938 
L 397.154623 -445.441724 
L 398.735855 -444.690151 
L 400.22924 -443.840971 
L 401.068659 -443.284612 
L 402.005685 -442.659928 
L 402.483959 -442.337825 
L 403.733327 -441.713141 
L 405.265755 -441.13726 
L 408.760082 -439.800046 
L 409.999689 -439.458422 
L 411.668767 -439.116798 
L 413.659947 -439.097277 
L 420.014155 -439.341294 
L 422.844755 -439.507226 
L 429.316091 -439.458422 
L 433.191084 -439.42914 
L 455.142872 -439.272969 
L 454.869573 -428.262913 
L 454.840291 -426.906177 
L 454.771966 -421.186414 
L 454.703641 -413.924462 
L 454.606034 -403.148662 
L 454.41082 -385.911287 
L 454.12776 -381.723951 
L 454.039914 -374.237503 
L 454.010632 -371.319058 
L 454.088718 -370.460117 
L 442.766319 -370.635809 
L 432.41999 -370.79198 
L 427.588449 -370.840784 
L 425.646072 -370.870066 
L 425.011627 -370.860305 
L 418.364599 -370.762698 
L 415.895145 -370.78222 
L 415.553521 -370.879827 
L 412.225126 -370.870066 
L 407.500953 -370.977434 
L 405.431687 -371.016476 
L 404.592268 -371.045758 
L 397.320555 -371.21169 
L 396.568982 -371.240972 
L 385.841986 -371.34834 
L 382.181728 -371.387382 
L 380.65906 -371.406904 
L 377.096409 -371.455707 
L 365.832575 -371.572836 
L 357.25293 -371.680203 
L 357.428622 -372.256084 
" style="stroke: #000000"/>
    </defs>
    <g clip-path="url(#pa40fa753be)">
     <use xlink:href="#m4fe251da20" x="0" y="725.742364" style="fill: #f7b6d2; stroke: #000000"/>
    </g>
   </g>
   <g id="PatchCollection_15">
    <defs>
     <path id="m79a2fc8cba" d="M 188.383263 -323.150061 
L 195.030292 -330.265603 
L 203.444005 -339.274718 
L 208.314588 -340.641215 
L 222.223569 -344.350276 
L 222.789689 -344.721182 
L 223.22892 -345.238499 
L 224.0781 -347.10279 
L 224.634459 -348.332637 
L 225.766699 -350.021236 
L 225.961913 -350.577595 
L 227.494341 -350.118843 
L 227.718837 -350.753288 
L 228.216632 -353.212981 
L 228.353281 -356.131427 
L 228.021418 -359.29389 
L 227.855486 -361.314352 
L 227.494341 -365.892115 
L 227.308888 -368.176116 
L 227.06487 -372.236562 
L 226.937981 -374.383914 
L 226.889178 -383.12949 
L 226.937981 -383.480875 
L 226.928221 -384.574072 
L 226.879417 -388.410023 
L 226.703725 -406.486817 
L 226.48899 -428.731426 
L 226.498751 -440.922525 
L 226.606118 -444.455894 
L 226.440186 -447.247451 
L 226.323058 -449.365521 
L 226.225451 -450.117094 
L 225.883827 -452.918411 
L 225.581246 -454.772942 
L 224.37092 -458.794345 
L 225.942391 -458.804106 
L 226.654922 -456.129678 
L 228.909641 -451.698325 
L 230.74465 -448.662751 
L 235.624994 -441.439842 
L 238.182294 -437.44772 
L 238.797218 -436.335002 
L 241.090979 -432.19647 
L 242.193937 -430.136965 
L 247.259734 -422.650517 
L 253.038062 -411.006016 
L 259.450834 -415.534975 
L 260.788048 -413.085043 
L 262.008134 -411.308597 
L 267.435077 -405.237449 
L 260.163364 -399.878831 
L 270.050941 -392.19717 
L 269.572668 -391.650571 
L 264.965623 -378.30771 
L 264.22381 -376.150598 
L 268.147607 -374.110614 
L 270.011899 -373.066221 
L 270.626822 -372.724597 
L 274.00402 -371.06528 
L 278.503697 -368.849604 
L 280.621767 -367.80521 
L 286.780761 -365.579773 
L 288.781702 -364.271841 
L 293.42779 -361.226506 
L 302.690683 -355.145597 
L 312.744192 -348.557133 
L 322.299905 -342.300532 
L 325.452608 -340.231266 
L 336.911656 -332.725296 
L 344.085761 -328.020645 
L 348.380464 -325.063156 
L 351.738141 -322.749873 
L 354.724912 -321.119838 
L 357.028434 -320.124248 
L 357.526229 -319.909513 
L 359.605256 -319.236025 
L 361.245051 -318.708948 
L 362.709155 -318.367324 
L 365.178609 -317.791443 
L 366.935533 -317.615751 
L 371.074064 -317.274127 
L 372.655296 -317.166759 
L 374.773365 -317.254606 
L 378.462905 -317.420537 
L 384.573096 -317.615751 
L 389.355833 -317.235084 
L 391.874091 -317.078913 
L 394.148331 -316.932503 
L 397.974521 -316.932503 
L 402.562045 -317.205802 
L 403.752849 -317.31317 
L 408.574629 -317.732879 
L 410.643894 -318.015939 
L 414.850751 -318.757752 
L 421.917489 -320.182812 
L 429.091595 -321.9983 
L 432.107648 -322.867001 
L 432.058844 -320.583 
L 441.702404 -323.745463 
L 446.123996 -325.25837 
L 447.607621 -325.736644 
L 447.412407 -324.321344 
L 447.285518 -314.960844 
L 446.787723 -309.66079 
L 446.533945 -303.218736 
L 446.358253 -301.100667 
L 446.270406 -297.010938 
L 439.467207 -297.098784 
L 434.059785 -297.167109 
L 431.814827 -297.186631 
L 428.359544 -297.235434 
L 417.24212 -297.362323 
L 405.500012 -297.479451 
L 394.899904 -297.577058 
L 392.313322 -297.60634 
L 384.426686 -297.684426 
L 373.114048 -297.782033 
L 361.781889 -297.899161 
L 349.912892 -297.996768 
L 338.658819 -298.104135 
L 331.523756 -298.162699 
L 328.937173 -298.182221 
L 324.037308 -297.869879 
L 323.207649 -297.957725 
L 319.742605 -297.996768 
L 315.27221 -298.02605 
L 313.505525 -298.035811 
L 309.113216 -298.055332 
L 295.575141 -298.123657 
L 292.822627 -298.143178 
L 279.762826 -298.211503 
L 274.374926 -298.240785 
L 258.572372 -298.328631 
L 246.186059 -298.387195 
L 235.380977 -298.45552 
L 233.858309 -297.655144 
L 233.331232 -298.631213 
L 231.135077 -297.586819 
L 229.270786 -296.708357 
L 224.273314 -294.19986 
L 224.341638 -299.704888 
L 222.038116 -299.421828 
L 206.870007 -299.753692 
L 205.679203 -299.948905 
L 204.625048 -300.456461 
L 204.08821 -300.817607 
L 202.790039 -301.696069 
L 192.853658 -308.372379 
L 188.744409 -310.841833 
L 181.66791 -315.956434 
L 188.383263 -323.150061 
" style="stroke: #000000"/>
    </defs>
    <g clip-path="url(#pa40fa753be)">
     <use xlink:href="#m79a2fc8cba" x="0" y="725.742364" style="fill: #7f7f7f; stroke: #000000"/>
    </g>
   </g>
   <g id="PatchCollection_16">
    <defs>
     <path id="m177b57325d" d="M 32.6222 -368.263962 
L 32.719807 -374.198461 
L 56.252827 -374.081332 
L 60.781786 -374.061811 
L 63.768557 -374.04229 
L 68.248712 -374.022768 
L 71.743039 -373.778751 
L 79.405179 -373.954443 
L 88.941371 -373.90564 
L 96.281409 -373.856837 
L 103.026045 -373.827555 
L 105.700473 -373.817794 
L 111.625211 -374.05205 
L 116.173692 -374.04229 
L 127.300876 -374.022768 
L 128.501441 -374.013008 
L 129.867937 -374.013008 
L 131.000177 -374.013008 
L 134.377375 -374.003247 
L 136.466162 -374.003247 
L 140.624216 -374.061811 
L 140.224027 -370.2161 
L 140.136181 -366.497278 
L 140.126421 -365.706662 
L 140.087378 -355.633632 
L 140.048335 -348.215509 
L 140.038574 -344.496686 
L 140.019053 -340.485044 
L 139.872643 -319.997359 
L 147.525022 -319.031051 
L 159.843011 -317.32293 
L 153.918273 -308.704243 
L 149.506442 -302.310992 
L 148.042339 -300.358854 
L 147.63239 -299.831777 
L 143.737875 -295.507792 
L 139.960489 -291.681603 
L 138.379257 -292.940731 
L 135.44129 -294.453638 
L 134.992299 -294.62933 
L 133.323221 -295.302818 
L 131.556536 -295.790852 
L 130.775681 -296.005587 
L 128.140295 -296.415536 
L 125.114482 -296.503382 
L 122.967131 -296.337451 
L 121.073557 -295.732288 
L 115.890632 -302.828308 
L 115.685657 -309.055628 
L 113.762802 -309.08491 
L 114.006819 -313.106313 
L 114.16299 -315.585528 
L 114.524135 -321.578591 
L 112.757451 -321.588351 
L 112.74769 -328.020645 
L 112.737929 -331.22215 
L 112.728169 -340.43624 
L 105.192917 -340.416719 
L 101.952369 -340.416719 
L 93.60698 -340.397197 
L 93.59722 -337.224974 
L 93.59722 -333.984425 
L 93.59722 -331.036697 
L 93.567938 -321.685958 
L 95.754332 -321.676197 
L 95.930024 -309.055628 
L 96.056913 -300.192923 
L 81.552531 -300.212444 
L 80.332444 -300.222205 
L 78.975709 -300.134358 
L 76.818597 -299.646324 
L 70.532714 -297.430648 
L 68.580576 -296.75716 
L 60.196145 -293.809433 
L 59.464093 -294.190099 
L 59.161512 -294.307228 
L 57.951186 -294.76598 
L 56.408998 -295.088083 
L 51.489611 -295.263775 
L 49.732687 -295.302818 
L 37.414698 -295.537074 
L 36.194612 -295.380903 
L 33.959415 -294.785501 
L 32.671004 -294.209621 
L 32.739329 -300.700478 
L 32.875978 -312.471868 
L 32.954064 -319.040812 
L 32.963825 -320.00712 
L 32.963825 -327.298354 
L 32.954064 -332.07133 
L 32.944303 -335.555896 
L 32.934543 -338.796445 
L 32.924782 -345.502037 
L 32.90526 -349.65033 
L 32.90526 -352.197869 
L 32.8955 -355.88741 
L 32.797893 -361.978079 
L 32.710047 -363.071276 
L 32.563636 -364.906285 
L 32.6222 -368.263962 
" style="stroke: #000000"/>
    </defs>
    <g clip-path="url(#pa40fa753be)">
     <use xlink:href="#m177b57325d" x="0" y="725.742364" style="fill: #c7c7c7; stroke: #000000"/>
    </g>
   </g>
   <g id="PatchCollection_17">
    <defs>
     <path id="mcba65f0aa1" d="M 133.372024 -246.11871 
L 133.74293 -249.125002 
L 134.123597 -250.676951 
L 134.640914 -252.267943 
L 135.246076 -253.78085 
L 136.124538 -255.264475 
L 137.120129 -256.933552 
L 138.486625 -258.73928 
L 140.175224 -260.545007 
L 141.67837 -262.077435 
L 144.128303 -264.371197 
L 148.139946 -267.68007 
L 148.998886 -268.451165 
L 149.486921 -268.753746 
L 150.394665 -269.212498 
L 151.88805 -269.837182 
L 160.516498 -272.950842 
L 167.9151 -275.61551 
L 170.814024 -276.75751 
L 178.27119 -280.320161 
L 181.589824 -282.28206 
L 184.488748 -284.146351 
L 187.309587 -286.479156 
L 189.222682 -288.23608 
L 195.274309 -293.672783 
L 196.699369 -294.951433 
L 196.99219 -295.214972 
L 202.790039 -301.696069 
L 204.08821 -300.817607 
L 204.625048 -300.456461 
L 205.679203 -299.948905 
L 206.870007 -299.753692 
L 222.038116 -299.421828 
L 224.341638 -299.704888 
L 224.273314 -294.19986 
L 224.146425 -290.285824 
L 223.804801 -287.884695 
L 223.746236 -287.494267 
L 222.994663 -281.969718 
L 222.877535 -280.573939 
L 222.672561 -279.207443 
L 222.6628 -278.836537 
L 222.438304 -277.147938 
L 222.057637 -273.839064 
L 221.794099 -262.253128 
L 221.716013 -258.836887 
L 221.559842 -252.160576 
L 221.53056 -250.852644 
L 221.315825 -249.798489 
L 221.052287 -248.549121 
L 220.739944 -237.909971 
L 220.505688 -225.914085 
L 220.53497 -212.171036 
L 220.476406 -200.59486 
L 220.290953 -187.798598 
L 220.232389 -181.717689 
L 220.173825 -175.666062 
L 212.365274 -175.685584 
L 204.254142 -175.705105 
L 204.254142 -175.91008 
L 199.842311 -175.929601 
L 198.348926 -176.310268 
L 195.908754 -177.530354 
L 194.29824 -177.266815 
L 191.487162 -176.817824 
L 187.904989 -180.907552 
L 186.967963 -181.971467 
L 185.337928 -183.845519 
L 181.404371 -187.759555 
L 181.150593 -188.013333 
L 176.358095 -192.151865 
L 172.512384 -195.099593 
L 172.102435 -195.470499 
L 167.329459 -199.199082 
L 159.638036 -205.201905 
L 156.729351 -207.476145 
L 150.32634 -212.688353 
L 149.789502 -213.127584 
L 147.749518 -214.991875 
L 145.387431 -217.500372 
L 144.050217 -219.140168 
L 142.547071 -220.984938 
L 140.633976 -224.391418 
L 138.437821 -229.164394 
L 135.890282 -234.737747 
L 134.074794 -239.705938 
L 133.73317 -241.921614 
L 133.528195 -243.873752 
L 133.372024 -246.11871 
" style="stroke: #000000"/>
    </defs>
    <g clip-path="url(#pa40fa753be)">
     <use xlink:href="#mcba65f0aa1" x="0" y="725.742364" style="fill: #bcbd22; stroke: #000000"/>
    </g>
   </g>
   <g id="PatchCollection_18">
    <defs>
     <path id="m35b916490c" d="M 323.422385 -260.915913 
L 323.451667 -262.702119 
L 323.480949 -264.98612 
L 323.559034 -269.817661 
L 323.607838 -271.974773 
L 323.607838 -274.024518 
L 323.627359 -275.469099 
L 323.685923 -279.334332 
L 323.724966 -281.491444 
L 323.881137 -292.472218 
L 323.910419 -294.492681 
L 323.968983 -296.005587 
L 324.037308 -297.869879 
L 328.937173 -298.182221 
L 331.523756 -298.162699 
L 338.658819 -298.104135 
L 349.912892 -297.996768 
L 361.781889 -297.899161 
L 373.114048 -297.782033 
L 384.426686 -297.684426 
L 392.313322 -297.60634 
L 394.899904 -297.577058 
L 394.782776 -285.327394 
L 394.655887 -269.602926 
L 394.880383 -269.290584 
L 395.134161 -269.183216 
L 398.228299 -269.105131 
L 402.347309 -269.163695 
L 405.792832 -269.212498 
L 405.685465 -268.460925 
L 405.685465 -267.660549 
L 405.568337 -267.211557 
L 405.539054 -263.980769 
L 405.509772 -262.096957 
L 405.47073 -257.8901 
L 405.431687 -254.63003 
L 405.568337 -254.024867 
L 394.470434 -254.161517 
L 384.270515 -254.288406 
L 384.290036 -246.392009 
L 384.270515 -245.591633 
L 359.849273 -245.816129 
L 360.259222 -249.993703 
L 343.91983 -250.130353 
L 341.284444 -249.935139 
L 337.946289 -249.437344 
L 334.344595 -249.017634 
L 325.755189 -248.988352 
L 323.246692 -248.871224 
L 323.422385 -260.915913 
" style="stroke: #000000"/>
    </defs>
    <g clip-path="url(#pa40fa753be)">
     <use xlink:href="#m35b916490c" x="0" y="725.742364" style="fill: #dbdb8d; stroke: #000000"/>
    </g>
   </g>
   <g id="PatchCollection_19">
    <defs>
     <path id="mbf585a0c37" d="M 322.641529 -202.429869 
L 322.78794 -210.814301 
L 323.246692 -248.871224 
L 325.755189 -248.988352 
L 334.344595 -249.017634 
L 337.946289 -249.437344 
L 341.284444 -249.935139 
L 343.91983 -250.130353 
L 360.259222 -249.993703 
L 359.849273 -245.816129 
L 384.270515 -245.591633 
L 384.290036 -246.392009 
L 384.270515 -254.288406 
L 394.470434 -254.161517 
L 405.568337 -254.024867 
L 405.431687 -254.63003 
L 405.47073 -257.8901 
L 405.509772 -262.096957 
L 405.539054 -263.980769 
L 405.568337 -267.211557 
L 405.685465 -267.660549 
L 405.685465 -268.460925 
L 405.792832 -269.212498 
L 402.347309 -269.163695 
L 398.228299 -269.105131 
L 395.134161 -269.183216 
L 394.880383 -269.290584 
L 394.655887 -269.602926 
L 394.782776 -285.327394 
L 394.899904 -297.577058 
L 405.500012 -297.479451 
L 417.24212 -297.362323 
L 428.359544 -297.235434 
L 431.814827 -297.186631 
L 434.059785 -297.167109 
L 439.467207 -297.098784 
L 446.270406 -297.010938 
L 449.266938 -296.971896 
L 463.810363 -296.776682 
L 463.742038 -284.605104 
L 463.859167 -278.270417 
L 463.956773 -272.326158 
L 463.976295 -266.557591 
L 464.064141 -264.790906 
L 464.04462 -262.526427 
L 464.005577 -260.135058 
L 464.034859 -253.253773 
L 463.947013 -252.170337 
L 461.721576 -246.323684 
L 461.614208 -241.989939 
L 461.49708 -230.472327 
L 461.389712 -219.228014 
L 461.35067 -208.510778 
L 461.370191 -197.315269 
L 447.17815 -197.598329 
L 433.757204 -197.861867 
L 424.123405 -198.193731 
L 414.772666 -198.46703 
L 400.600146 -198.672004 
L 390.097646 -198.808654 
L 384.407164 -198.876979 
L 376.510768 -198.974586 
L 359.068418 -199.199082 
L 351.972398 -199.286928 
L 344.954463 -199.374774 
L 337.409451 -199.550466 
L 332.226525 -199.618791 
L 329.786353 -199.657834 
L 328.068472 -199.677355 
L 325.77471 -199.687116 
L 322.436555 -199.706637 
L 322.641529 -202.429869 
" style="stroke: #000000"/>
    </defs>
    <g clip-path="url(#pa40fa753be)">
     <use xlink:href="#mbf585a0c37" x="0" y="725.742364" style="fill: #17becf; stroke: #000000"/>
    </g>
   </g>
   <g id="PatchCollection_20">
    <defs>
     <path id="m7d7e5b2960" d="M 39.366836 -113.578325 
L 49.322738 -126.345305 
L 57.795015 -137.19919 
L 63.739275 -143.982868 
L 66.413703 -147.447913 
L 68.336559 -149.95641 
L 70.757209 -153.099351 
L 71.860167 -155.568805 
L 73.421877 -158.662943 
L 74.88598 -162.049902 
L 75.071434 -162.547697 
L 76.067024 -165.261169 
L 77.091896 -168.68717 
L 77.794666 -171.830112 
L 77.814187 -171.937479 
L 78.311982 -175.158507 
L 78.70241 -179.60938 
L 78.70241 -184.577571 
L 78.70241 -201.639254 
L 78.692649 -213.244712 
L 79.288051 -217.773671 
L 79.942017 -221.082545 
L 80.996171 -224.938016 
L 82.011283 -227.739334 
L 82.333386 -228.627557 
L 83.95366 -232.239011 
L 85.954601 -235.938312 
L 88.570465 -240.037801 
L 89.800312 -241.71664 
L 90.063851 -242.019221 
L 91.703646 -243.805427 
L 94.602571 -246.411531 
L 95.276058 -246.97765 
L 98.370196 -249.652079 
L 101.200796 -251.838473 
L 104.538951 -254.083431 
L 108.052799 -256.123415 
L 111.478801 -257.841296 
L 114.826717 -259.285878 
L 117.862291 -260.418118 
L 123.211148 -262.165281 
L 130.414536 -264.498086 
L 149.594288 -270.705884 
L 150.931502 -271.213439 
L 152.376084 -271.965012 
L 153.644974 -272.843474 
L 157.861591 -276.679425 
L 158.935267 -275.449578 
L 159.843011 -274.141646 
L 160.516498 -272.950842 
L 151.88805 -269.837182 
L 150.394665 -269.212498 
L 149.486921 -268.753746 
L 148.998886 -268.451165 
L 148.139946 -267.68007 
L 144.128303 -264.371197 
L 141.67837 -262.077435 
L 140.175224 -260.545007 
L 138.486625 -258.73928 
L 137.120129 -256.933552 
L 136.124538 -255.264475 
L 135.246076 -253.78085 
L 134.640914 -252.267943 
L 134.123597 -250.676951 
L 133.74293 -249.125002 
L 133.372024 -246.11871 
L 133.528195 -243.873752 
L 133.73317 -241.921614 
L 134.074794 -239.705938 
L 135.890282 -234.737747 
L 138.437821 -229.164394 
L 140.633976 -224.391418 
L 142.547071 -220.984938 
L 144.050217 -219.140168 
L 145.387431 -217.500372 
L 147.749518 -214.991875 
L 149.789502 -213.127584 
L 150.32634 -212.688353 
L 137.344624 -212.93237 
L 124.177456 -212.942131 
L 124.294584 -211.712284 
L 124.460516 -209.974881 
L 124.606926 -200.487493 
L 124.675251 -192.181147 
L 124.841183 -176.007686 
L 124.899747 -168.433392 
L 124.987593 -160.683406 
L 125.075439 -151.81094 
L 125.309696 -144.265928 
L 125.495149 -138.33143 
L 125.807491 -129.634657 
L 125.905098 -126.520997 
L 126.168636 -117.306908 
L 126.246722 -114.78865 
L 126.51026 -105.223176 
L 126.764038 -93.158965 
L 126.812842 -91.323955 
L 127.056859 -81.153318 
L 127.21303 -69.040304 
L 127.369201 -56.575905 
L 127.35944 -39.533744 
L 121.463985 -40.275556 
L 118.194154 -40.851437 
L 113.362613 -42.100805 
L 113.128357 -42.139848 
L 111.18598 -43.194002 
L 103.924028 -46.522397 
L 99.912385 -48.425731 
L 97.823598 -49.597013 
L 96.349734 -50.494997 
L 95.100366 -51.461305 
L 94.241425 -52.290963 
L 93.538656 -53.071818 
L 91.303458 -56.175717 
L 89.692944 -58.420676 
L 83.426583 -70.377519 
L 82.801899 -71.480476 
L 78.185093 -79.679454 
L 73.099775 -88.034604 
L 72.221313 -89.11804 
L 71.782082 -89.654878 
L 71.33309 -90.201476 
L 70.464389 -91.275152 
L 66.599156 -94.974453 
L 64.217548 -97.356061 
L 62.772966 -98.683514 
L 60.283991 -100.674695 
L 56.526126 -102.997739 
L 55.901442 -103.388166 
L 47.380361 -108.151382 
L 42.812359 -110.591554 
L 42.558581 -110.728204 
L 41.924136 -111.09911 
L 41.348256 -111.430973 
L 39.923195 -112.367999 
L 38.878802 -113.012205 
L 39.366836 -113.578325 
" style="stroke: #000000"/>
    </defs>
    <g clip-path="url(#pa40fa753be)">
     <use xlink:href="#m7d7e5b2960" x="0" y="725.742364" style="fill: #9edae5; stroke: #000000"/>
    </g>
   </g>
   <g id="matplotlib.axis_1">
    <g id="xtick_1"/>
    <g id="xtick_2"/>
    <g id="xtick_3"/>
    <g id="xtick_4"/>
    <g id="xtick_5"/>
    <g id="xtick_6"/>
   </g>
   <g id="matplotlib.axis_2">
    <g id="ytick_1"/>
    <g id="ytick_2"/>
    <g id="ytick_3"/>
    <g id="ytick_4"/>
    <g id="ytick_5"/>
    <g id="ytick_6"/>
    <g id="ytick_7"/>
   </g>
   <g id="text_1">
    <!-- 1800 -->
    <g transform="translate(396.090841 245.551671) scale(0.2 -0.2)">
     <defs>
      <path id="DejaVuSans-31" d="M 794 531 
L 1825 531 
L 1825 4091 
L 703 3866 
L 703 4441 
L 1819 4666 
L 2450 4666 
L 2450 531 
L 3481 531 
L 3481 0 
L 794 0 
L 794 531 
z
" transform="scale(0.015625)"/>
      <path id="DejaVuSans-38" d="M 2034 2216 
Q 1584 2216 1326 1975 
Q 1069 1734 1069 1313 
Q 1069 891 1326 650 
Q 1584 409 2034 409 
Q 2484 409 2743 651 
Q 3003 894 3003 1313 
Q 3003 1734 2745 1975 
Q 2488 2216 2034 2216 
z
M 1403 2484 
Q 997 2584 770 2862 
Q 544 3141 544 3541 
Q 544 4100 942 4425 
Q 1341 4750 2034 4750 
Q 2731 4750 3128 4425 
Q 3525 4100 3525 3541 
Q 3525 3141 3298 2862 
Q 3072 2584 2669 2484 
Q 3125 2378 3379 2068 
Q 3634 1759 3634 1313 
Q 3634 634 3220 271 
Q 2806 -91 2034 -91 
Q 1263 -91 848 271 
Q 434 634 434 1313 
Q 434 1759 690 2068 
Q 947 2378 1403 2484 
z
M 1172 3481 
Q 1172 3119 1398 2916 
Q 1625 2713 2034 2713 
Q 2441 2713 2670 2916 
Q 2900 3119 2900 3481 
Q 2900 3844 2670 4047 
Q 2441 4250 2034 4250 
Q 1625 4250 1398 4047 
Q 1172 3844 1172 3481 
z
" transform="scale(0.015625)"/>
      <path id="DejaVuSans-30" d="M 2034 4250 
Q 1547 4250 1301 3770 
Q 1056 3291 1056 2328 
Q 1056 1369 1301 889 
Q 1547 409 2034 409 
Q 2525 409 2770 889 
Q 3016 1369 3016 2328 
Q 3016 3291 2770 3770 
Q 2525 4250 2034 4250 
z
M 2034 4750 
Q 2819 4750 3233 4129 
Q 3647 3509 3647 2328 
Q 3647 1150 3233 529 
Q 2819 -91 2034 -91 
Q 1250 -91 836 529 
Q 422 1150 422 2328 
Q 422 3509 836 4129 
Q 1250 4750 2034 4750 
z
" transform="scale(0.015625)"/>
     </defs>
     <use xlink:href="#DejaVuSans-31"/>
     <use xlink:href="#DejaVuSans-38" transform="translate(63.623047 0)"/>
     <use xlink:href="#DejaVuSans-30" transform="translate(127.246094 0)"/>
     <use xlink:href="#DejaVuSans-30" transform="translate(190.869141 0)"/>
    </g>
   </g>
   <g id="text_2">
    <!-- 1900 -->
    <g transform="translate(295.801492 252.227982) scale(0.2 -0.2)">
     <defs>
      <path id="DejaVuSans-39" d="M 703 97 
L 703 672 
Q 941 559 1184 500 
Q 1428 441 1663 441 
Q 2288 441 2617 861 
Q 2947 1281 2994 2138 
Q 2813 1869 2534 1725 
Q 2256 1581 1919 1581 
Q 1219 1581 811 2004 
Q 403 2428 403 3163 
Q 403 3881 828 4315 
Q 1253 4750 1959 4750 
Q 2769 4750 3195 4129 
Q 3622 3509 3622 2328 
Q 3622 1225 3098 567 
Q 2575 -91 1691 -91 
Q 1453 -91 1209 -44 
Q 966 3 703 97 
z
M 1959 2075 
Q 2384 2075 2632 2365 
Q 2881 2656 2881 3163 
Q 2881 3666 2632 3958 
Q 2384 4250 1959 4250 
Q 1534 4250 1286 3958 
Q 1038 3666 1038 3163 
Q 1038 2656 1286 2365 
Q 1534 2075 1959 2075 
z
" transform="scale(0.015625)"/>
     </defs>
     <use xlink:href="#DejaVuSans-31"/>
     <use xlink:href="#DejaVuSans-39" transform="translate(63.623047 0)"/>
     <use xlink:href="#DejaVuSans-30" transform="translate(127.246094 0)"/>
     <use xlink:href="#DejaVuSans-30" transform="translate(190.869141 0)"/>
    </g>
   </g>
   <g id="text_3">
    <!-- 3600 -->
    <g transform="translate(152.198958 388.765369) scale(0.2 -0.2)">
     <defs>
      <path id="DejaVuSans-33" d="M 2597 2516 
Q 3050 2419 3304 2112 
Q 3559 1806 3559 1356 
Q 3559 666 3084 287 
Q 2609 -91 1734 -91 
Q 1441 -91 1130 -33 
Q 819 25 488 141 
L 488 750 
Q 750 597 1062 519 
Q 1375 441 1716 441 
Q 2309 441 2620 675 
Q 2931 909 2931 1356 
Q 2931 1769 2642 2001 
Q 2353 2234 1838 2234 
L 1294 2234 
L 1294 2753 
L 1863 2753 
Q 2328 2753 2575 2939 
Q 2822 3125 2822 3475 
Q 2822 3834 2567 4026 
Q 2313 4219 1838 4219 
Q 1578 4219 1281 4162 
Q 984 4106 628 3988 
L 628 4550 
Q 988 4650 1302 4700 
Q 1616 4750 1894 4750 
Q 2613 4750 3031 4423 
Q 3450 4097 3450 3541 
Q 3450 3153 3228 2886 
Q 3006 2619 2597 2516 
z
" transform="scale(0.015625)"/>
      <path id="DejaVuSans-36" d="M 2113 2584 
Q 1688 2584 1439 2293 
Q 1191 2003 1191 1497 
Q 1191 994 1439 701 
Q 1688 409 2113 409 
Q 2538 409 2786 701 
Q 3034 994 3034 1497 
Q 3034 2003 2786 2293 
Q 2538 2584 2113 2584 
z
M 3366 4563 
L 3366 3988 
Q 3128 4100 2886 4159 
Q 2644 4219 2406 4219 
Q 1781 4219 1451 3797 
Q 1122 3375 1075 2522 
Q 1259 2794 1537 2939 
Q 1816 3084 2150 3084 
Q 2853 3084 3261 2657 
Q 3669 2231 3669 1497 
Q 3669 778 3244 343 
Q 2819 -91 2113 -91 
Q 1303 -91 875 529 
Q 447 1150 447 2328 
Q 447 3434 972 4092 
Q 1497 4750 2381 4750 
Q 2619 4750 2861 4703 
Q 3103 4656 3366 4563 
z
" transform="scale(0.015625)"/>
     </defs>
     <use xlink:href="#DejaVuSans-33"/>
     <use xlink:href="#DejaVuSans-36" transform="translate(63.623047 0)"/>
     <use xlink:href="#DejaVuSans-30" transform="translate(127.246094 0)"/>
     <use xlink:href="#DejaVuSans-30" transform="translate(190.869141 0)"/>
    </g>
   </g>
   <g id="text_4">
    <!-- 2000 -->
    <g transform="translate(245.692098 555.453522) scale(0.2 -0.2)">
     <defs>
      <path id="DejaVuSans-32" d="M 1228 531 
L 3431 531 
L 3431 0 
L 469 0 
L 469 531 
Q 828 903 1448 1529 
Q 2069 2156 2228 2338 
Q 2531 2678 2651 2914 
Q 2772 3150 2772 3378 
Q 2772 3750 2511 3984 
Q 2250 4219 1831 4219 
Q 1534 4219 1204 4116 
Q 875 4013 500 3803 
L 500 4441 
Q 881 4594 1212 4672 
Q 1544 4750 1819 4750 
Q 2544 4750 2975 4387 
Q 3406 4025 3406 3419 
Q 3406 3131 3298 2873 
Q 3191 2616 2906 2266 
Q 2828 2175 2409 1742 
Q 1991 1309 1228 531 
z
" transform="scale(0.015625)"/>
     </defs>
     <use xlink:href="#DejaVuSans-32"/>
     <use xlink:href="#DejaVuSans-30" transform="translate(63.623047 0)"/>
     <use xlink:href="#DejaVuSans-30" transform="translate(127.246094 0)"/>
     <use xlink:href="#DejaVuSans-30" transform="translate(190.869141 0)"/>
    </g>
   </g>
   <g id="text_5">
    <!-- 1800 -->
    <g transform="translate(59.553076 178.16876) scale(0.2 -0.2)">
     <use xlink:href="#DejaVuSans-31"/>
     <use xlink:href="#DejaVuSans-38" transform="translate(63.623047 0)"/>
     <use xlink:href="#DejaVuSans-30" transform="translate(127.246094 0)"/>
     <use xlink:href="#DejaVuSans-30" transform="translate(190.869141 0)"/>
    </g>
   </g>
   <g id="text_6">
    <!-- 1900 -->
    <g transform="translate(361.244969 382.463868) scale(0.2 -0.2)">
     <use xlink:href="#DejaVuSans-31"/>
     <use xlink:href="#DejaVuSans-39" transform="translate(63.623047 0)"/>
     <use xlink:href="#DejaVuSans-30" transform="translate(127.246094 0)"/>
     <use xlink:href="#DejaVuSans-30" transform="translate(190.869141 0)"/>
    </g>
   </g>
   <g id="text_7">
    <!-- 1202 -->
    <g transform="translate(323.967577 143.747693) scale(0.2 -0.2)">
     <use xlink:href="#DejaVuSans-31"/>
     <use xlink:href="#DejaVuSans-32" transform="translate(63.623047 0)"/>
     <use xlink:href="#DejaVuSans-30" transform="translate(127.246094 0)"/>
     <use xlink:href="#DejaVuSans-32" transform="translate(190.869141 0)"/>
    </g>
   </g>
   <g id="text_8">
    <!-- 1201 -->
    <g transform="translate(370.977095 144.113719) scale(0.2 -0.2)">
     <use xlink:href="#DejaVuSans-31"/>
     <use xlink:href="#DejaVuSans-32" transform="translate(63.623047 0)"/>
     <use xlink:href="#DejaVuSans-30" transform="translate(127.246094 0)"/>
     <use xlink:href="#DejaVuSans-31" transform="translate(190.869141 0)"/>
    </g>
   </g>
   <g id="text_9">
    <!-- 1001 -->
    <g transform="translate(283.738374 118.74081) scale(0.2 -0.2)">
     <use xlink:href="#DejaVuSans-31"/>
     <use xlink:href="#DejaVuSans-30" transform="translate(63.623047 0)"/>
     <use xlink:href="#DejaVuSans-30" transform="translate(127.246094 0)"/>
     <use xlink:href="#DejaVuSans-31" transform="translate(190.869141 0)"/>
    </g>
   </g>
   <g id="text_10">
    <!-- 4300 -->
    <g transform="translate(80.926352 449.960003) scale(0.2 -0.2)">
     <defs>
      <path id="DejaVuSans-34" d="M 2419 4116 
L 825 1625 
L 2419 1625 
L 2419 4116 
z
M 2253 4666 
L 3047 4666 
L 3047 1625 
L 3713 1625 
L 3713 1100 
L 3047 1100 
L 3047 0 
L 2419 0 
L 2419 1100 
L 313 1100 
L 313 1709 
L 2253 4666 
z
" transform="scale(0.015625)"/>
     </defs>
     <use xlink:href="#DejaVuSans-34"/>
     <use xlink:href="#DejaVuSans-33" transform="translate(63.623047 0)"/>
     <use xlink:href="#DejaVuSans-30" transform="translate(127.246094 0)"/>
     <use xlink:href="#DejaVuSans-30" transform="translate(190.869141 0)"/>
    </g>
   </g>
   <g id="text_11">
    <!-- 1002 -->
    <g transform="translate(179.43547 149.443054) scale(0.2 -0.2)">
     <use xlink:href="#DejaVuSans-31"/>
     <use xlink:href="#DejaVuSans-30" transform="translate(63.623047 0)"/>
     <use xlink:href="#DejaVuSans-30" transform="translate(127.246094 0)"/>
     <use xlink:href="#DejaVuSans-32" transform="translate(190.869141 0)"/>
    </g>
   </g>
   <g id="text_12">
    <!-- 2100 -->
    <g transform="translate(227.612095 257.630522) scale(0.2 -0.2)">
     <use xlink:href="#DejaVuSans-32"/>
     <use xlink:href="#DejaVuSans-31" transform="translate(63.623047 0)"/>
     <use xlink:href="#DejaVuSans-30" transform="translate(127.246094 0)"/>
     <use xlink:href="#DejaVuSans-30" transform="translate(190.869141 0)"/>
    </g>
   </g>
   <g id="text_13">
    <!-- 2600 -->
    <g transform="translate(151.798832 321.250688) scale(0.2 -0.2)">
     <use xlink:href="#DejaVuSans-32"/>
     <use xlink:href="#DejaVuSans-36" transform="translate(63.623047 0)"/>
     <use xlink:href="#DejaVuSans-30" transform="translate(127.246094 0)"/>
     <use xlink:href="#DejaVuSans-30" transform="translate(190.869141 0)"/>
    </g>
   </g>
   <g id="text_14">
    <!-- 2800 -->
    <g transform="translate(380.88019 324.666929) scale(0.2 -0.2)">
     <use xlink:href="#DejaVuSans-32"/>
     <use xlink:href="#DejaVuSans-38" transform="translate(63.623047 0)"/>
     <use xlink:href="#DejaVuSans-30" transform="translate(127.246094 0)"/>
     <use xlink:href="#DejaVuSans-30" transform="translate(190.869141 0)"/>
    </g>
   </g>
   <g id="text_15">
    <!-- 3500 -->
    <g transform="translate(220.30841 354.03196) scale(0.2 -0.2)">
     <defs>
      <path id="DejaVuSans-35" d="M 691 4666 
L 3169 4666 
L 3169 4134 
L 1269 4134 
L 1269 2991 
Q 1406 3038 1543 3061 
Q 1681 3084 1819 3084 
Q 2600 3084 3056 2656 
Q 3513 2228 3513 1497 
Q 3513 744 3044 326 
Q 2575 -91 1722 -91 
Q 1428 -91 1123 -41 
Q 819 9 494 109 
L 494 744 
Q 775 591 1075 516 
Q 1375 441 1709 441 
Q 2250 441 2565 725 
Q 2881 1009 2881 1497 
Q 2881 1984 2565 2268 
Q 2250 2553 1709 2553 
Q 1456 2553 1204 2497 
Q 953 2441 691 2322 
L 691 4666 
z
" transform="scale(0.015625)"/>
     </defs>
     <use xlink:href="#DejaVuSans-33"/>
     <use xlink:href="#DejaVuSans-35" transform="translate(63.623047 0)"/>
     <use xlink:href="#DejaVuSans-30" transform="translate(127.246094 0)"/>
     <use xlink:href="#DejaVuSans-30" transform="translate(190.869141 0)"/>
    </g>
   </g>
   <g id="text_16">
    <!-- 3800 -->
    <g transform="translate(37.824302 398.233236) scale(0.2 -0.2)">
     <use xlink:href="#DejaVuSans-33"/>
     <use xlink:href="#DejaVuSans-38" transform="translate(63.623047 0)"/>
     <use xlink:href="#DejaVuSans-30" transform="translate(127.246094 0)"/>
     <use xlink:href="#DejaVuSans-30" transform="translate(190.869141 0)"/>
    </g>
   </g>
   <g id="text_17">
    <!-- 4400 -->
    <g transform="translate(152.134622 492.45316) scale(0.2 -0.2)">
     <use xlink:href="#DejaVuSans-34"/>
     <use xlink:href="#DejaVuSans-34" transform="translate(63.623047 0)"/>
     <use xlink:href="#DejaVuSans-30" transform="translate(127.246094 0)"/>
     <use xlink:href="#DejaVuSans-30" transform="translate(190.869141 0)"/>
    </g>
   </g>
   <g id="text_18">
    <!-- 4800 -->
    <g transform="translate(333.67488 460.364897) scale(0.2 -0.2)">
     <use xlink:href="#DejaVuSans-34"/>
     <use xlink:href="#DejaVuSans-38" transform="translate(63.623047 0)"/>
     <use xlink:href="#DejaVuSans-30" transform="translate(127.246094 0)"/>
     <use xlink:href="#DejaVuSans-30" transform="translate(190.869141 0)"/>
    </g>
   </g>
   <g id="text_19">
    <!-- 4900 -->
    <g transform="translate(397.803196 483.629497) scale(0.2 -0.2)">
     <use xlink:href="#DejaVuSans-34"/>
     <use xlink:href="#DejaVuSans-39" transform="translate(63.623047 0)"/>
     <use xlink:href="#DejaVuSans-30" transform="translate(127.246094 0)"/>
     <use xlink:href="#DejaVuSans-30" transform="translate(190.869141 0)"/>
    </g>
   </g>
   <g id="text_20">
    <!-- 5800 -->
    <g transform="translate(73.381969 574.14524) scale(0.2 -0.2)">
     <use xlink:href="#DejaVuSans-35"/>
     <use xlink:href="#DejaVuSans-38" transform="translate(63.623047 0)"/>
     <use xlink:href="#DejaVuSans-30" transform="translate(127.246094 0)"/>
     <use xlink:href="#DejaVuSans-30" transform="translate(190.869141 0)"/>
    </g>
   </g>
  </g>
 </g>
 <defs>
  <clipPath id="pa40fa753be">
   <rect x="7.2" y="7.2" width="558" height="711.342364"/>
  </clipPath>
 </defs>
</svg>
