<?xml version="1.0" encoding="utf-8" standalone="no"?>
<!DOCTYPE svg PUBLIC "-//W3C//DTD SVG 1.1//EN"
  "http://www.w3.org/Graphics/SVG/1.1/DTD/svg11.dtd">
<svg xmlns:xlink="http://www.w3.org/1999/xlink" width="536.267189pt" height="679.68pt" viewBox="0 0 536.267189 679.68" xmlns="http://www.w3.org/2000/svg" version="1.1">
 <metadata>
  <rdf:RDF xmlns:dc="http://purl.org/dc/elements/1.1/" xmlns:cc="http://creativecommons.org/ns#" xmlns:rdf="http://www.w3.org/1999/02/22-rdf-syntax-ns#">
   <cc:Work>
    <dc:type rdf:resource="http://purl.org/dc/dcmitype/StillImage"/>
    <dc:date>2025-10-27T16:07:27.089275</dc:date>
    <dc:format>image/svg+xml</dc:format>
    <dc:creator>
     <cc:Agent>
      <dc:title>Matplotlib v3.10.7, https://matplotlib.org/</dc:title>
     </cc:Agent>
    </dc:creator>
   </cc:Work>
  </rdf:RDF>
 </metadata>
 <defs>
  <style type="text/css">*{stroke-linejoin: round; stroke-linecap: butt}</style>
 </defs>
 <g id="figure_1">
  <g id="patch_1">
   <path d="M -0 679.68 
L 536.267189 679.68 
L 536.267189 0 
L -0 0 
L -0 679.68 
z
" style="fill: none"/>
  </g>
  <g id="axes_1">
   <g id="patch_2">
    <path d="M 7.2 672.48 
L 529.067189 672.48 
L 529.067189 7.2 
L 7.2 7.2 
L 7.2 672.48 
z
" style="fill: none"/>
   </g>
   <g id="PatchCollection_1">
    <defs>
     <path id="maae0793181" d="M 335.954849 -418.834714 
L 336.110036 -427.716884 
L 336.246966 -435.667932 
L 336.292609 -438.379139 
L 336.319995 -440.168353 
L 336.338252 -441.035575 
L 336.365638 -442.532672 
L 336.511697 -443.828939 
L 336.630369 -448.101144 
L 336.584726 -448.858822 
L 355.179772 -449.306125 
L 355.234544 -452.97584 
L 355.298444 -457.056343 
L 355.334959 -459.411533 
L 355.453631 -467.180009 
L 355.517532 -470.548478 
L 355.718362 -477.623177 
L 356.193051 -488.714478 
L 356.266081 -490.193318 
L 356.585583 -497.17673 
L 356.60384 -501.604122 
L 362.217956 -501.531093 
L 364.582275 -501.512836 
L 369.365684 -501.458064 
L 370.506764 -501.448935 
L 377.809679 -501.357649 
L 378.649514 -501.34852 
L 381.561551 -501.321134 
L 388.928366 -501.229848 
L 394.560739 -501.175076 
L 405.560754 -501.047275 
L 421.727581 -500.846445 
L 439.784038 -500.691258 
L 439.774909 -499.623207 
L 438.432998 -488.90618 
L 437.720964 -483.228164 
L 437.081959 -478.134381 
L 436.178223 -470.877109 
L 435.858721 -468.330218 
L 434.352495 -456.47211 
L 433.51266 -448.877079 
L 432.864526 -442.979976 
L 432.052077 -435.695318 
L 431.723446 -434.928512 
L 426.949165 -424.51273 
L 426.574891 -423.408164 
L 426.419704 -422.239698 
L 426.136716 -411.294455 
L 405.606397 -411.440513 
L 401.982326 -411.467899 
L 395.930035 -411.513542 
L 393.282729 -411.358355 
L 387.339982 -411.130139 
L 385.477739 -411.148397 
L 383.916741 -411.467899 
L 382.757403 -411.787402 
L 379.489349 -413.038026 
L 378.056152 -413.576616 
L 376.887686 -414.160849 
L 376.440382 -414.462094 
L 375.564032 -415.046327 
L 374.778969 -415.56666 
L 373.382287 -416.360852 
L 371.903446 -417.063757 
L 371.4105 -417.24633 
L 370.041203 -417.757534 
L 368.105931 -418.286996 
L 365.787256 -418.697785 
L 363.760697 -418.8621 
L 361.350735 -418.889486 
L 360.209655 -418.898615 
L 358.803843 -418.7982 
L 354.714211 -418.953387 
L 352.249478 -419.099445 
z
" style="stroke: #000000"/>
    </defs>
    <g clip-path="url(#p3a5ed65612)">
     <use xlink:href="#maae0793181" x="0" y="679.68" style="fill: #1f77b4; stroke: #000000"/>
    </g>
   </g>
   <g id="PatchCollection_2">
    <defs>
     <path id="m16731f3a7a" d="M 254.755568 -453.067126 
L 254.828597 -459.128545 
L 255.138971 -469.991631 
L 255.394573 -480.124425 
L 263.226949 -480.051396 
L 263.01699 -481.009903 
L 262.934832 -481.977539 
L 263.053505 -488.522777 
L 263.163048 -495.332744 
L 263.464294 -500.34437 
L 263.829439 -501.677152 
L 276.372195 -501.731923 
L 278.42614 -501.658894 
L 282.022825 -501.604122 
L 284.259343 -501.558479 
L 287.983829 -501.275491 
L 293.141513 -501.229848 
L 304.625346 -501.14769 
L 306.140701 -501.521965 
L 307.163109 -501.750181 
L 307.774728 -501.768438 
L 311.015396 -501.850596 
L 318.610427 -501.768438 
L 328.268532 -501.668023 
L 341.194691 -501.521965 
L 342.454443 -501.604122 
L 343.613781 -501.677152 
L 345.914199 -501.668023 
L 356.60384 -501.604122 
L 356.585583 -497.17673 
L 356.266081 -490.193318 
L 356.193051 -488.714478 
L 355.718362 -477.623177 
L 355.517532 -470.548478 
L 355.453631 -467.180009 
L 355.334959 -459.411533 
L 355.298444 -457.056343 
L 355.234544 -452.97584 
L 355.179772 -449.306125 
L 336.584726 -448.858822 
L 336.630369 -448.101144 
L 336.511697 -443.828939 
L 336.365638 -442.532672 
L 336.338252 -441.035575 
L 336.319995 -440.168353 
L 336.292609 -438.379139 
L 336.246966 -435.667932 
L 336.110036 -427.716884 
L 335.954849 -418.834714 
L 335.754019 -407.232209 
L 335.562318 -395.58406 
L 318.546527 -395.757504 
L 305.063521 -395.967463 
L 304.652732 -395.976592 
L 290.968896 -396.040492 
L 284.41453 -396.067878 
L 277.449375 -396.095264 
L 277.531533 -407.606483 
L 277.595433 -419.382433 
L 277.641076 -427.954229 
L 277.805392 -429.013151 
L 278.207052 -430.418962 
L 278.891701 -431.989089 
L 279.156431 -432.847182 
L 279.320747 -433.915233 
L 279.320747 -435.394073 
L 279.439419 -441.300305 
L 279.521577 -444.997406 
L 279.576349 -447.900314 
L 272.136505 -441.090346 
L 266.549775 -441.053832 
L 264.906619 -441.172504 
L 265.207864 -441.857152 
L 265.216993 -447.179151 
L 265.244379 -452.948454 
L 264.267614 -453.057998 
z
" style="stroke: #000000"/>
    </defs>
    <g clip-path="url(#p3a5ed65612)">
     <use xlink:href="#m16731f3a7a" x="0" y="679.68" style="fill: #aec7e8; stroke: #000000"/>
    </g>
   </g>
   <g id="PatchCollection_3">
    <defs>
     <path id="m21428e5ab3" d="M 131.28154 -299.742435 
L 131.418469 -318.903457 
L 131.436726 -322.655329 
L 131.445855 -326.133342 
L 131.48237 -333.071111 
L 131.518884 -342.491871 
L 131.528013 -343.231291 
L 131.610171 -346.709304 
L 131.984445 -350.305989 
L 141.350433 -349.484412 
L 154.313106 -349.520926 
L 165.733039 -349.557441 
L 165.577852 -342.683572 
L 167.951299 -342.647058 
L 177.655047 -342.519257 
L 183.661694 -342.473614 
L 185.633481 -342.36407 
L 194.269178 -342.482742 
L 195.410258 -342.327555 
L 200.631842 -342.218012 
L 202.968775 -342.108468 
L 205.597824 -341.770708 
L 207.989529 -341.250375 
L 209.066709 -340.739171 
L 209.322311 -340.620499 
L 209.760485 -340.41054 
L 213.56713 -338.383981 
L 213.722317 -336.494352 
L 214.03269 -333.536672 
L 213.904889 -330.807208 
L 213.439329 -328.506789 
L 213.22937 -327.913428 
L 211.796173 -328.342474 
L 211.6136 -327.822141 
L 210.554677 -326.242886 
L 210.034345 -325.092677 
L 209.240153 -323.349106 
L 208.829364 -322.865288 
L 208.299902 -322.518399 
L 195.291586 -319.049515 
L 190.736393 -317.771505 
L 182.867502 -309.345767 
L 176.650896 -302.690986 
L 170.37039 -295.963176 
L 168.95545 -294.447822 
L 168.471632 -294.776453 
L 167.942171 -294.959026 
L 163.870796 -295.47023 
L 158.475768 -296.154878 
L 149.958744 -297.241186 
L 138.438396 -298.838699 
z
" style="stroke: #000000"/>
    </defs>
    <g clip-path="url(#p3a5ed65612)">
     <use xlink:href="#m21428e5ab3" x="0" y="679.68" style="fill: #ff7f0e; stroke: #000000"/>
    </g>
   </g>
   <g id="PatchCollection_4">
    <defs>
     <path id="mdb0908ff18" d="M 179.553805 -165.834367 
L 182.182854 -166.254285 
L 183.68908 -166.500758 
L 185.971241 -165.359678 
L 187.367924 -165.003661 
L 191.49407 -164.985403 
L 191.49407 -164.793702 
L 199.079973 -164.775444 
L 206.382887 -164.757187 
L 206.437659 -170.416946 
L 206.492431 -176.104091 
L 206.665875 -188.071742 
L 206.720647 -198.898313 
L 206.693261 -211.751443 
L 206.912349 -222.970545 
L 207.204465 -232.920766 
L 207.450939 -234.089232 
L 207.651769 -235.075126 
L 207.679155 -236.298364 
L 207.825213 -242.542356 
L 207.898242 -245.737381 
L 208.144716 -256.573081 
L 208.500733 -259.667691 
L 208.710691 -261.246946 
L 208.71982 -261.593835 
L 208.911522 -262.871845 
L 209.021065 -264.177241 
L 209.723971 -269.344053 
L 209.778743 -269.709198 
L 210.098245 -271.954845 
L 210.216918 -275.615431 
L 214.890783 -277.961492 
L 216.634354 -278.78307 
L 218.688298 -279.759835 
L 219.181245 -278.84697 
L 220.605314 -279.595519 
L 230.710722 -279.531618 
L 242.29497 -279.476847 
L 257.074243 -279.394689 
L 262.113254 -279.367303 
L 274.327379 -279.303402 
L 276.901656 -279.285145 
L 289.563085 -279.221245 
L 293.670974 -279.202987 
L 295.323258 -279.193859 
L 299.504177 -279.166473 
L 302.744845 -279.129958 
L 303.52078 -279.0478 
L 303.45688 -277.30423 
L 303.402108 -275.88929 
L 303.374722 -273.999661 
L 303.228663 -263.729937 
L 303.192149 -261.712507 
L 303.137377 -258.097564 
L 303.11912 -256.746525 
L 303.11912 -254.82951 
L 303.073477 -252.81208 
L 303.000447 -248.293401 
L 302.973061 -246.157299 
L 302.945676 -244.486757 
L 302.78136 -233.222011 
L 302.352314 -197.629431 
L 302.215384 -189.787927 
L 302.023683 -187.241035 
L 301.859367 -175.948904 
L 301.722437 -165.195362 
L 301.685923 -163.004488 
L 301.548993 -153.647628 
L 301.521607 -151.68497 
L 301.50335 -149.037664 
L 301.466835 -140.730598 
L 301.311648 -128.397801 
L 301.16559 -119.552146 
L 300.973889 -106.753788 
L 300.5631 -93.41684 
L 300.325755 -83.411847 
L 300.280112 -79.2218 
L 300.216211 -73.63507 
L 300.216211 -58.974469 
L 300.325755 -50.731305 
L 300.28924 -50.183586 
L 297.979694 -50.676533 
L 296.719941 -50.932135 
L 292.374707 -52.347074 
L 287.070965 -55.26824 
L 280.945645 -60.097292 
L 276.372195 -64.259954 
L 267.782142 -71.836728 
L 267.59044 -71.973657 
L 253.130669 -84.598571 
L 250.218632 -87.300649 
L 247.74477 -89.601067 
L 247.379624 -89.938827 
L 243.57298 -92.786964 
L 242.395385 -93.508127 
L 242.459285 -96.620994 
L 239.994552 -98.884898 
L 235.265915 -103.284904 
L 225.918184 -112.897365 
L 223.398678 -115.389485 
L 214.662567 -125.294062 
L 204.502387 -137.362129 
L 186.884105 -157.47253 
z
" style="stroke: #000000"/>
    </defs>
    <g clip-path="url(#p3a5ed65612)">
     <use xlink:href="#mdb0908ff18" x="0" y="679.68" style="fill: #ffbb78; stroke: #000000"/>
    </g>
   </g>
   <g id="PatchCollection_5">
    <defs>
     <path id="mbe65da163c" d="M 32.50962 -490.229833 
L 32.555263 -494.292079 
L 32.582649 -496.163451 
L 32.646549 -502.608273 
L 32.719579 -509.984217 
L 32.77435 -517.597505 
L 32.838251 -527.410797 
L 32.874766 -534.284665 
L 32.893023 -536.375124 
L 32.893023 -536.913714 
L 32.920409 -541.021604 
L 32.956923 -546.444018 
L 33.185139 -582.657346 
L 33.31294 -603.598453 
L 33.376841 -605.314638 
L 33.678086 -605.734556 
L 34.134518 -606.008415 
L 43.792623 -593.830805 
L 48.010056 -588.499677 
L 49.671469 -586.628305 
L 51.533712 -585.231623 
L 53.29554 -584.163572 
L 54.719609 -583.497181 
L 55.194298 -583.278093 
L 57.211728 -582.593445 
L 59.932064 -582.018341 
L 70.302203 -580.849874 
L 72.885609 -580.557758 
L 74.108847 -579.416677 
L 79.138729 -574.48721 
L 93.26074 -561.524537 
L 99.778592 -555.216644 
L 102.243325 -553.117056 
L 104.580258 -550.414978 
L 106.104742 -548.644021 
L 106.488145 -548.160203 
L 107.556196 -546.83655 
L 110.468233 -542.381772 
L 112.001845 -539.844009 
L 114.384421 -535.672219 
L 116.127992 -532.376779 
L 116.566167 -531.536944 
L 117.789405 -529.218268 
L 118.866585 -527.401668 
L 120.58277 -524.800005 
L 122.654972 -522.463072 
L 127.009335 -517.889622 
L 128.944607 -515.945221 
L 133.308098 -512.804968 
L 138.082379 -510.258076 
L 141.432591 -508.788365 
L 147.685711 -506.825706 
L 149.146294 -506.634005 
L 152.706465 -506.168444 
L 164.884075 -505.511182 
L 166.454202 -505.273837 
L 171.24674 -504.287943 
L 172.835124 -503.931926 
L 174.925583 -503.411594 
L 177.655047 -502.653916 
L 182.630158 -500.663872 
L 185.450908 -499.248932 
L 187.230994 -498.180881 
L 189.376225 -496.674655 
L 189.759628 -496.409924 
L 193.10984 -493.625688 
L 194.871668 -491.918632 
L 196.624368 -489.809915 
L 199.271674 -485.765926 
L 200.659228 -483.31945 
L 202.348027 -479.932723 
L 203.762967 -475.888734 
L 204.520644 -473.323586 
L 205.515666 -469.699514 
L 206.063385 -467.417353 
L 206.811934 -463.33685 
L 207.743055 -455.148457 
L 207.953014 -453.286214 
L 208.336417 -449.525213 
L 209.778743 -437.575819 
L 210.326461 -435.275401 
L 210.691607 -433.741789 
L 210.855923 -433.038883 
L 210.992852 -432.509422 
L 211.777916 -429.56087 
L 210.308204 -429.551741 
L 208.464218 -429.597385 
L 208.135587 -429.679542 
L 190.608592 -429.588256 
L 190.499048 -429.706928 
L 181.023517 -429.798215 
L 177.445088 -429.834729 
L 176.039277 -429.862115 
L 172.743837 -429.935144 
L 165.869969 -429.953402 
L 164.509801 -429.953402 
L 157.800248 -429.953402 
L 154.678252 -429.953402 
L 143.824295 -429.96253 
L 133.271584 -429.96253 
L 120.464097 -429.971659 
L 110.249146 -429.971659 
L 110.504748 -437.466275 
L 110.596034 -453.669617 
L 110.632549 -460.990789 
L 110.906408 -465.144321 
L 100.773614 -465.189965 
L 89.326295 -465.29038 
L 76.381879 -465.536853 
L 67.919627 -465.737683 
L 65.07149 -465.801584 
L 58.754469 -465.947642 
L 58.827498 -473.807404 
L 59.010071 -490.686265 
L 50.666491 -490.759294 
L 49.927071 -490.677136 
L 46.129555 -490.44892 
L 40.844071 -490.311991 
z
" style="stroke: #000000"/>
    </defs>
    <g clip-path="url(#p3a5ed65612)">
     <use xlink:href="#mbe65da163c" x="0" y="679.68" style="fill: #2ca02c; stroke: #000000"/>
    </g>
   </g>
   <g id="PatchCollection_6">
    <defs>
     <path id="m4a45df1efa" d="M 243.116548 -389.093595 
L 247.626098 -392.316006 
L 251.021953 -394.735096 
L 251.870917 -395.228043 
L 252.71988 -395.556674 
L 253.504944 -395.757504 
L 257.192916 -396.168293 
L 263.69251 -396.159164 
L 277.449375 -396.095264 
L 284.41453 -396.067878 
L 290.968896 -396.040492 
L 304.652732 -395.976592 
L 305.063521 -395.967463 
L 318.546527 -395.757504 
L 335.562318 -395.58406 
L 335.361488 -383.954168 
L 335.160657 -372.315148 
L 334.923313 -358.202266 
L 334.786383 -350.525077 
L 334.749869 -348.61719 
L 334.585553 -348.078601 
L 342.60963 -347.978185 
L 353.144085 -347.868642 
L 356.476039 -347.822999 
L 357.900108 -347.804741 
L 361.323349 -347.768227 
L 371.355728 -347.667812 
L 372.058633 -347.640426 
L 378.859473 -347.485239 
L 379.644536 -347.457853 
L 381.579808 -347.421338 
L 385.998072 -347.320923 
L 389.110939 -347.330052 
L 389.430441 -347.238765 
L 391.739988 -347.220508 
L 397.956594 -347.311794 
L 398.549956 -347.320923 
L 400.366556 -347.293537 
L 404.885234 -347.247894 
L 414.561596 -347.101836 
L 425.150822 -346.93752 
L 434.498553 -346.80059 
L 443.06122 -346.681918 
L 445.544211 -346.645404 
L 453.431359 -346.554117 
L 467.279511 -346.39893 
L 475.869564 -346.435445 
L 478.297783 -346.444573 
L 483.181607 -346.462831 
L 488.01066 -346.481088 
L 496.655485 -346.508474 
L 497.63225 -346.517603 
L 502.935991 -346.572374 
L 505.345953 -346.709304 
L 505.181638 -346.070299 
L 503.593254 -342.501 
L 499.238891 -337.288544 
L 498.736816 -336.695182 
L 496.208181 -334.586466 
L 493.99905 -332.486878 
L 493.150086 -331.683557 
L 492.739297 -331.345797 
L 491.771661 -330.378161 
L 490.292821 -328.981479 
L 480.123512 -326.315915 
L 473.085328 -324.106783 
L 466.348389 -322.061967 
L 460.688631 -320.437069 
L 456.261239 -319.067772 
L 445.361639 -315.708432 
L 434.608097 -312.212161 
L 427.487755 -309.656141 
L 418.678614 -306.671075 
L 407.715114 -303.366506 
L 404.593118 -302.426256 
L 401.772367 -301.613806 
L 395.062814 -299.915879 
L 388.453677 -298.583097 
L 384.519231 -297.88932 
L 382.583959 -297.624589 
L 378.074409 -297.232058 
L 376.960715 -297.131643 
L 372.670253 -296.876041 
L 369.091824 -296.876041 
L 366.96485 -297.01297 
L 364.609661 -297.159029 
L 360.136625 -297.515046 
L 354.422095 -297.332473 
L 350.971468 -297.177286 
L 348.990552 -297.095128 
L 347.511712 -297.195543 
L 343.641167 -297.515046 
L 341.998011 -297.679361 
L 339.688465 -298.217951 
L 338.319168 -298.537454 
L 336.785556 -299.0304 
L 334.841155 -299.660277 
L 334.375594 -299.861107 
L 332.221234 -300.792229 
L 329.42787 -302.316712 
L 326.287616 -304.4802 
L 322.271013 -307.246179 
L 315.56146 -311.646185 
L 304.844433 -318.666112 
L 301.895882 -320.601384 
L 292.95894 -326.452845 
L 283.556437 -332.614679 
L 274.893355 -338.301824 
L 270.548121 -341.14996 
L 268.676749 -342.373198 
L 262.916575 -344.454529 
L 260.935659 -345.431294 
L 256.727355 -347.503496 
L 253.568844 -349.055365 
L 252.99374 -349.374868 
L 251.250169 -350.351633 
L 247.580454 -352.259519 
L 248.274231 -354.276949 
L 252.582951 -366.755805 
L 253.030254 -367.267009 
L 243.782939 -374.451251 
L 250.583778 -379.462876 
L 245.508252 -385.140892 
L 244.367172 -386.802305 
z
" style="stroke: #000000"/>
    </defs>
    <g clip-path="url(#p3a5ed65612)">
     <use xlink:href="#m4a45df1efa" x="0" y="679.68" style="fill: #98df8a; stroke: #000000"/>
    </g>
   </g>
   <g id="PatchCollection_7">
    <defs>
     <path id="m9dc7fbcc2f" d="M 302.279285 -599.088903 
L 315.890092 -599.116289 
L 316.647769 -599.098032 
L 328.286789 -598.815044 
L 328.232017 -598.586828 
L 329.080981 -595.647405 
L 330.715008 -596.240767 
L 332.38555 -596.596784 
L 333.581402 -596.697199 
L 337.287631 -596.770228 
L 338.930787 -596.742842 
L 344.910048 -596.971058 
L 349.958188 -597.071473 
L 351.071883 -597.16276 
L 350.542421 -591.849889 
L 350.442006 -589.932874 
L 350.35072 -588.253204 
L 350.268562 -586.719592 
L 350.168147 -584.24573 
L 349.839516 -576.851529 
L 348.908394 -566.846536 
L 348.168974 -558.959388 
L 347.895115 -556.102122 
L 347.557355 -552.423279 
L 347.027894 -546.76352 
L 346.863578 -545.138622 
L 345.795527 -533.873876 
L 344.736604 -522.600002 
L 343.705068 -512.04729 
L 342.728303 -502.489601 
L 342.454443 -501.604122 
L 341.194691 -501.521965 
L 328.268532 -501.668023 
L 318.610427 -501.768438 
L 311.015396 -501.850596 
L 307.774728 -501.768438 
L 307.163109 -501.750181 
L 306.140701 -501.521965 
L 306.177215 -503.557652 
L 306.779706 -511.079654 
L 306.925764 -524.936934 
L 307.044436 -536.393382 
L 307.126594 -543.60501 
L 307.163109 -547.740285 
L 307.217881 -552.131163 
L 307.281781 -558.758558 
L 307.327424 -563.140306 
L 307.400453 -569.594257 
L 307.473483 -577.052359 
L 307.500868 -580.81336 
L 307.263524 -582.858176 
L 306.679291 -584.857349 
L 305.33738 -587.860672 
L 303.539037 -591.895533 
L 303.027833 -593.438273 
L 302.662688 -594.926242 
L 302.352314 -596.989316 
z
" style="stroke: #000000"/>
    </defs>
    <g clip-path="url(#p3a5ed65612)">
     <use xlink:href="#m9dc7fbcc2f" x="0" y="679.68" style="fill: #d62728; stroke: #000000"/>
    </g>
   </g>
   <g id="PatchCollection_8">
    <defs>
     <path id="m4d9c64c604" d="M 342.454443 -501.604122 
L 342.728303 -502.489601 
L 343.705068 -512.04729 
L 344.736604 -522.600002 
L 345.795527 -533.873876 
L 346.863578 -545.138622 
L 347.027894 -546.76352 
L 347.557355 -552.423279 
L 347.895115 -556.102122 
L 348.168974 -558.959388 
L 348.908394 -566.846536 
L 349.839516 -576.851529 
L 350.168147 -584.24573 
L 350.268562 -586.719592 
L 350.35072 -588.253204 
L 350.442006 -589.932874 
L 350.542421 -591.849889 
L 351.071883 -597.16276 
L 352.158191 -597.244918 
L 358.338283 -597.317947 
L 369.621286 -597.473134 
L 379.242876 -597.527905 
L 393.319244 -597.50052 
L 395.254516 -597.50052 
L 395.208873 -587.166895 
L 395.318416 -586.372703 
L 395.281902 -576.751113 
L 395.236259 -566.791764 
L 395.218001 -563.824955 
L 395.208873 -561.561051 
L 395.172358 -552.952741 
L 395.135844 -546.471404 
L 395.117586 -541.998369 
L 395.099329 -538.602513 
L 395.071943 -530.560179 
L 395.017171 -521.321992 
L 394.980657 -514.20165 
L 394.861984 -513.234014 
L 394.734183 -512.266378 
L 394.560739 -501.175076 
L 388.928366 -501.229848 
L 381.561551 -501.321134 
L 378.649514 -501.34852 
L 377.809679 -501.357649 
L 370.506764 -501.448935 
L 369.365684 -501.458064 
L 364.582275 -501.512836 
L 362.217956 -501.531093 
L 356.60384 -501.604122 
L 345.914199 -501.668023 
L 343.613781 -501.677152 
z
" style="stroke: #000000"/>
    </defs>
    <g clip-path="url(#p3a5ed65612)">
     <use xlink:href="#m4d9c64c604" x="0" y="679.68" style="fill: #ff9896; stroke: #000000"/>
    </g>
   </g>
   <g id="PatchCollection_9">
    <defs>
     <path id="m80593b018b" d="M 199.09823 -595.0084 
L 199.874165 -603.607582 
L 200.184539 -607.04908 
L 200.622714 -611.987676 
L 200.860058 -614.543696 
L 201.298233 -619.427521 
L 202.840974 -636.571113 
L 202.859231 -637.739579 
L 212.535593 -637.703064 
L 216.826055 -637.73045 
L 221.317348 -638.20514 
L 227.305738 -638.889788 
L 229.7157 -639.172776 
L 241.28169 -640.496429 
L 252.738138 -641.801825 
L 255.61366 -642.03917 
L 258.598727 -642.194357 
L 264.924876 -642.24 
L 266.860149 -642.230871 
L 268.914094 -642.221743 
L 270.128203 -642.212614 
L 274.975513 -642.176099 
L 277.421989 -642.185228 
L 289.462669 -642.139585 
L 302.607916 -642.084813 
L 302.544015 -633.55866 
L 302.461857 -622.99682 
L 302.452729 -621.645781 
L 302.370571 -610.983526 
L 302.279285 -599.088903 
L 302.352314 -596.989316 
L 302.662688 -594.926242 
L 303.027833 -593.438273 
L 303.539037 -591.895533 
L 305.33738 -587.860672 
L 306.679291 -584.857349 
L 307.263524 -582.858176 
L 307.500868 -580.81336 
L 307.473483 -577.052359 
L 307.400453 -569.594257 
L 307.327424 -563.140306 
L 307.281781 -558.758558 
L 307.217881 -552.131163 
L 307.163109 -547.740285 
L 307.126594 -543.60501 
L 307.044436 -536.393382 
L 306.925764 -524.936934 
L 306.779706 -511.079654 
L 306.177215 -503.557652 
L 306.140701 -501.521965 
L 304.625346 -501.14769 
L 293.141513 -501.229848 
L 287.983829 -501.275491 
L 284.259343 -501.558479 
L 282.022825 -501.604122 
L 278.42614 -501.658894 
L 278.882572 -506.752677 
L 279.749793 -521.979254 
L 279.612863 -524.014942 
L 279.083402 -525.995857 
L 278.252696 -529.94856 
L 276.956428 -536.073879 
L 273.441901 -552.742782 
L 273.158913 -554.075564 
L 272.428621 -560.35607 
L 272.191276 -563.578481 
L 271.917417 -567.229939 
L 271.853517 -569.484713 
L 271.780488 -581.297178 
L 271.771359 -582.054855 
L 272.173019 -595.200101 
L 267.9282 -595.245745 
L 264.83359 -595.273131 
L 250.008673 -594.999271 
L 244.184599 -594.898856 
L 240.81613 -594.898856 
L 238.488326 -594.907985 
L 227.670883 -594.935371 
L 218.578755 -594.953628 
L 212.197833 -594.971885 
z
" style="stroke: #000000"/>
    </defs>
    <g clip-path="url(#p3a5ed65612)">
     <use xlink:href="#m80593b018b" x="0" y="679.68" style="fill: #9467bd; stroke: #000000"/>
    </g>
   </g>
   <g id="PatchCollection_10">
    <defs>
     <path id="m1f01e649f4" d="M 31.021651 -275.624559 
L 32.226632 -276.163149 
L 34.317091 -276.719996 
L 35.458172 -276.866055 
L 46.978519 -276.646967 
L 48.621675 -276.610453 
L 53.222511 -276.446137 
L 54.664837 -276.144892 
L 55.796789 -275.715846 
L 56.079777 -275.606302 
L 56.764425 -275.250285 
L 64.605929 -278.007135 
L 66.431658 -278.637011 
L 72.310504 -280.709213 
L 74.327934 -281.165646 
L 75.596816 -281.247803 
L 76.737896 -281.238675 
L 90.30306 -281.220417 
L 95.159498 -281.174774 
L 96.610953 -280.992201 
L 99.267388 -280.079337 
L 101.531291 -278.764812 
L 102.389384 -278.134936 
L 103.119675 -277.36813 
L 103.566979 -276.637839 
L 104.187726 -275.140741 
L 104.817603 -275.332443 
L 107.017606 -275.158998 
L 109.135451 -275.368957 
L 110.842507 -275.843647 
L 113.699773 -277.048628 
L 115.470729 -277.614603 
L 117.479031 -277.76979 
L 120.30891 -277.687633 
L 122.773644 -277.30423 
L 123.503936 -277.103399 
L 125.15622 -276.646967 
L 126.717218 -276.017091 
L 127.137136 -275.852775 
L 129.884857 -274.437836 
L 131.363697 -273.260241 
L 134.896482 -276.838669 
L 138.538811 -280.882658 
L 138.922214 -281.375604 
L 140.29151 -283.201333 
L 144.417657 -289.180594 
L 149.958744 -297.241186 
L 158.475768 -296.154878 
L 163.870796 -295.47023 
L 167.942171 -294.959026 
L 168.471632 -294.776453 
L 168.95545 -294.447822 
L 170.37039 -295.963176 
L 176.988656 -291.179767 
L 180.831815 -288.870221 
L 190.124774 -282.626229 
L 184.70236 -276.564809 
L 184.4285 -276.318336 
L 183.095719 -275.122484 
L 177.43596 -270.03783 
L 175.646746 -268.394674 
L 173.008568 -266.212928 
L 170.297361 -264.469357 
L 167.193622 -262.6345 
L 160.219339 -259.302545 
L 157.508132 -258.234494 
L 150.58862 -255.742374 
L 149.958744 -256.856069 
L 149.10978 -258.079307 
L 148.105629 -259.229516 
L 144.162055 -255.641959 
L 142.975332 -254.820381 
L 141.624292 -254.117476 
L 140.373668 -253.642786 
L 122.435884 -247.836969 
L 115.698946 -245.655223 
L 110.696449 -244.021196 
L 107.857441 -242.962274 
L 104.726316 -241.611235 
L 101.522163 -240.004593 
L 98.235851 -238.096707 
L 95.113855 -235.997119 
L 92.466549 -233.952303 
L 89.572769 -231.451055 
L 88.942892 -230.921593 
L 88.28563 -231.396283 
L 87.637496 -231.542341 
L 70.603448 -232.701679 
L 66.924605 -232.592135 
L 63.008417 -232.646907 
L 63.090575 -241.77555 
L 63.108832 -243.354805 
L 63.227504 -254.939054 
L 63.647422 -256.344865 
L 62.259868 -256.436151 
L 51.241596 -256.618724 
L 44.723744 -256.728268 
L 31.176838 -256.956484 
L 31.158581 -265.692595 
z
" style="stroke: #000000"/>
    </defs>
    <g clip-path="url(#p3a5ed65612)">
     <use xlink:href="#m1f01e649f4" x="0" y="679.68" style="fill: #c5b0d5; stroke: #000000"/>
    </g>
   </g>
   <g id="PatchCollection_11">
    <defs>
     <path id="md627951ac2" d="M 72.885609 -580.557758 
L 77.869848 -580.00091 
L 81.256575 -579.727051 
L 96.099749 -578.102153 
L 97.898091 -578.074767 
L 106.223414 -578.038252 
L 107.52881 -578.029124 
L 115.014297 -577.992609 
L 116.182764 -577.98348 
L 123.257462 -577.956094 
L 127.410995 -579.663151 
L 128.716391 -580.238255 
L 128.716391 -577.71875 
L 135.991919 -577.873937 
L 136.539638 -578.010866 
L 145.74131 -578.047381 
L 150.479076 -578.056509 
L 153.235927 -578.056509 
L 166.965406 -577.974352 
L 167.650054 -578.111281 
L 168.270802 -578.494684 
L 165.596109 -581.397593 
L 166.052542 -581.707967 
L 166.289886 -582.164399 
L 166.53636 -586.363575 
L 167.129722 -594.104664 
L 167.33968 -595.136201 
L 179.407747 -595.0723 
L 183.716466 -595.054043 
L 185.806926 -595.035786 
L 192.142204 -595.026657 
L 197.254244 -595.017529 
L 199.09823 -595.0084 
L 212.197833 -594.971885 
L 218.578755 -594.953628 
L 227.670883 -594.935371 
L 238.488326 -594.907985 
L 240.81613 -594.898856 
L 244.184599 -594.898856 
L 250.008673 -594.999271 
L 264.83359 -595.273131 
L 267.9282 -595.245745 
L 272.173019 -595.200101 
L 271.771359 -582.054855 
L 271.780488 -581.297178 
L 271.853517 -569.484713 
L 271.917417 -567.229939 
L 272.191276 -563.578481 
L 272.428621 -560.35607 
L 273.158913 -554.075564 
L 273.441901 -552.742782 
L 276.956428 -536.073879 
L 278.252696 -529.94856 
L 279.083402 -525.995857 
L 279.612863 -524.014942 
L 279.749793 -521.979254 
L 278.882572 -506.752677 
L 278.42614 -501.658894 
L 276.372195 -501.731923 
L 263.829439 -501.677152 
L 256.106607 -501.640637 
L 251.533157 -501.923625 
L 243.591237 -501.969268 
L 242.988747 -501.969268 
L 242.103268 -501.978397 
L 241.163018 -501.987525 
L 241.053474 -501.987525 
L 240.104096 -501.996654 
L 237.913221 -502.005783 
L 232.235205 -502.042297 
L 228.382918 -502.060555 
L 227.114036 -502.151841 
L 225.169635 -502.316157 
L 224.357186 -502.380057 
L 222.075025 -502.380057 
L 207.77957 -502.398314 
L 205.999484 -502.252256 
L 204.228528 -501.996654 
L 202.494085 -501.631508 
L 200.787029 -501.156819 
L 198.824371 -500.463042 
L 196.031006 -499.26719 
L 194.497394 -498.984202 
L 191.667515 -497.706192 
L 189.376225 -496.674655 
L 187.230994 -498.180881 
L 185.450908 -499.248932 
L 182.630158 -500.663872 
L 177.655047 -502.653916 
L 174.925583 -503.411594 
L 172.835124 -503.931926 
L 171.24674 -504.287943 
L 166.454202 -505.273837 
L 164.884075 -505.511182 
L 152.706465 -506.168444 
L 149.146294 -506.634005 
L 147.685711 -506.825706 
L 141.432591 -508.788365 
L 138.082379 -510.258076 
L 133.308098 -512.804968 
L 128.944607 -515.945221 
L 127.009335 -517.889622 
L 122.654972 -522.463072 
L 120.58277 -524.800005 
L 118.866585 -527.401668 
L 117.789405 -529.218268 
L 116.566167 -531.536944 
L 116.127992 -532.376779 
L 114.384421 -535.672219 
L 112.001845 -539.844009 
L 110.468233 -542.381772 
L 107.556196 -546.83655 
L 106.488145 -548.160203 
L 106.104742 -548.644021 
L 104.580258 -550.414978 
L 102.243325 -553.117056 
L 99.778592 -555.216644 
L 93.26074 -561.524537 
L 79.138729 -574.48721 
L 74.108847 -579.416677 
z
" style="stroke: #000000"/>
    </defs>
    <g clip-path="url(#p3a5ed65612)">
     <use xlink:href="#md627951ac2" x="0" y="679.68" style="fill: #8c564b; stroke: #000000"/>
    </g>
   </g>
   <g id="PatchCollection_12">
    <defs>
     <path id="me5c68cc916" d="M 189.376225 -496.674655 
L 191.667515 -497.706192 
L 194.497394 -498.984202 
L 196.031006 -499.26719 
L 198.824371 -500.463042 
L 200.787029 -501.156819 
L 202.494085 -501.631508 
L 204.228528 -501.996654 
L 205.999484 -502.252256 
L 207.77957 -502.398314 
L 222.075025 -502.380057 
L 224.357186 -502.380057 
L 225.169635 -502.316157 
L 227.114036 -502.151841 
L 228.382918 -502.060555 
L 232.235205 -502.042297 
L 237.913221 -502.005783 
L 240.104096 -501.996654 
L 241.053474 -501.987525 
L 241.163018 -501.987525 
L 242.103268 -501.978397 
L 242.988747 -501.969268 
L 243.591237 -501.969268 
L 251.533157 -501.923625 
L 256.106607 -501.640637 
L 263.829439 -501.677152 
L 263.464294 -500.34437 
L 263.163048 -495.332744 
L 263.053505 -488.522777 
L 262.934832 -481.977539 
L 263.01699 -481.009903 
L 263.226949 -480.051396 
L 255.394573 -480.124425 
L 255.138971 -469.991631 
L 254.828597 -459.128545 
L 254.755568 -453.067126 
L 264.267614 -453.057998 
L 265.244379 -452.948454 
L 265.216993 -447.179151 
L 265.207864 -441.857152 
L 264.906619 -441.172504 
L 266.549775 -441.053832 
L 272.136505 -441.090346 
L 279.576349 -447.900314 
L 279.521577 -444.997406 
L 279.439419 -441.300305 
L 279.320747 -435.394073 
L 279.320747 -433.915233 
L 279.156431 -432.847182 
L 278.891701 -431.989089 
L 278.207052 -430.418962 
L 277.805392 -429.013151 
L 277.641076 -427.954229 
L 277.595433 -419.382433 
L 277.531533 -407.606483 
L 277.449375 -396.095264 
L 263.69251 -396.159164 
L 257.192916 -396.168293 
L 253.504944 -395.757504 
L 252.71988 -395.556674 
L 251.870917 -395.228043 
L 251.021953 -394.735096 
L 247.626098 -392.316006 
L 243.116548 -389.093595 
L 237.119029 -384.857904 
L 231.714872 -395.748375 
L 226.977107 -402.750045 
L 225.94557 -404.676189 
L 223.800339 -408.546733 
L 223.225234 -409.587399 
L 220.83353 -413.321014 
L 216.269208 -420.07621 
L 214.553023 -422.915218 
L 212.444307 -427.059622 
L 211.777916 -429.56087 
L 210.992852 -432.509422 
L 210.855923 -433.038883 
L 210.691607 -433.741789 
L 210.326461 -435.275401 
L 209.778743 -437.575819 
L 208.336417 -449.525213 
L 207.953014 -453.286214 
L 207.743055 -455.148457 
L 206.811934 -463.33685 
L 206.063385 -467.417353 
L 205.515666 -469.699514 
L 204.520644 -473.323586 
L 203.762967 -475.888734 
L 202.348027 -479.932723 
L 200.659228 -483.31945 
L 199.271674 -485.765926 
L 196.624368 -489.809915 
L 194.871668 -491.918632 
L 193.10984 -493.625688 
L 189.759628 -496.409924 
z
" style="stroke: #000000"/>
    </defs>
    <g clip-path="url(#p3a5ed65612)">
     <use xlink:href="#me5c68cc916" x="0" y="679.68" style="fill: #c49c94; stroke: #000000"/>
    </g>
   </g>
   <g id="PatchCollection_13">
    <defs>
     <path id="m3212f63fb8" d="M 119.523847 -350.269475 
L 119.633391 -357.453717 
L 119.742935 -365.468666 
L 119.815964 -370.343361 
L 119.90725 -376.076149 
L 119.971151 -381.023874 
L 120.062437 -386.829691 
L 120.135466 -391.886959 
L 120.217624 -399.299418 
L 120.281524 -408.820593 
L 120.217624 -410.007316 
L 120.263267 -418.25961 
L 120.327168 -423.97414 
L 120.464097 -429.971659 
L 133.271584 -429.96253 
L 143.824295 -429.96253 
L 154.678252 -429.953402 
L 157.800248 -429.953402 
L 164.509801 -429.953402 
L 165.869969 -429.953402 
L 172.743837 -429.935144 
L 176.039277 -429.862115 
L 177.445088 -429.834729 
L 181.023517 -429.798215 
L 190.499048 -429.706928 
L 190.608592 -429.588256 
L 208.135587 -429.679542 
L 208.464218 -429.597385 
L 210.308204 -429.551741 
L 211.440156 -425.79074 
L 211.723144 -424.056298 
L 212.042646 -421.436378 
L 212.133933 -420.733472 
L 212.243476 -418.752556 
L 212.398663 -416.141764 
L 212.298248 -412.837196 
L 212.28912 -401.43552 
L 212.48995 -380.631342 
L 212.654265 -363.725095 
L 212.699909 -360.137538 
L 212.709037 -359.11513 
L 212.663394 -358.786499 
L 212.709037 -350.607235 
L 212.82771 -348.598933 
L 213.055926 -344.801418 
L 213.22937 -342.665315 
L 213.56713 -338.383981 
L 209.760485 -340.41054 
L 209.322311 -340.620499 
L 209.066709 -340.739171 
L 207.989529 -341.250375 
L 205.597824 -341.770708 
L 202.968775 -342.108468 
L 200.631842 -342.218012 
L 195.410258 -342.327555 
L 194.269178 -342.482742 
L 185.633481 -342.36407 
L 183.661694 -342.473614 
L 177.655047 -342.519257 
L 167.951299 -342.647058 
L 165.577852 -342.683572 
L 165.733039 -349.557441 
L 154.313106 -349.520926 
L 141.350433 -349.484412 
L 131.984445 -350.305989 
L 128.095643 -350.251218 
L 126.142113 -350.251218 
L 122.983603 -350.260346 
L 121.92468 -350.260346 
L 120.64667 -350.260346 
z
" style="stroke: #000000"/>
    </defs>
    <g clip-path="url(#p3a5ed65612)">
     <use xlink:href="#m3212f63fb8" x="0" y="679.68" style="fill: #e377c2; stroke: #000000"/>
    </g>
   </g>
   <g id="PatchCollection_14">
    <defs>
     <path id="m966a9e9c97" d="M 334.585553 -348.078601 
L 334.749869 -348.61719 
L 334.786383 -350.525077 
L 334.923313 -358.202266 
L 335.160657 -372.315148 
L 335.361488 -383.954168 
L 335.562318 -395.58406 
L 335.754019 -407.232209 
L 335.954849 -418.834714 
L 352.249478 -419.099445 
L 354.714211 -418.953387 
L 358.803843 -418.7982 
L 360.209655 -418.898615 
L 361.350735 -418.889486 
L 363.760697 -418.8621 
L 365.787256 -418.697785 
L 368.105931 -418.286996 
L 370.041203 -417.757534 
L 371.4105 -417.24633 
L 371.903446 -417.063757 
L 373.382287 -416.360852 
L 374.778969 -415.56666 
L 375.564032 -415.046327 
L 376.440382 -414.462094 
L 376.887686 -414.160849 
L 378.056152 -413.576616 
L 379.489349 -413.038026 
L 382.757403 -411.787402 
L 383.916741 -411.467899 
L 385.477739 -411.148397 
L 387.339982 -411.130139 
L 393.282729 -411.358355 
L 395.930035 -411.513542 
L 401.982326 -411.467899 
L 405.606397 -411.440513 
L 426.136716 -411.294455 
L 425.881114 -400.997345 
L 425.853728 -399.728464 
L 425.789827 -394.379079 
L 425.725927 -387.587368 
L 425.634641 -377.509346 
L 425.452068 -361.388162 
L 425.187337 -357.471974 
L 425.105179 -350.470305 
L 425.077793 -347.740841 
L 425.150822 -346.93752 
L 414.561596 -347.101836 
L 404.885234 -347.247894 
L 400.366556 -347.293537 
L 398.549956 -347.320923 
L 397.956594 -347.311794 
L 391.739988 -347.220508 
L 389.430441 -347.238765 
L 389.110939 -347.330052 
L 385.998072 -347.320923 
L 381.579808 -347.421338 
L 379.644536 -347.457853 
L 378.859473 -347.485239 
L 372.058633 -347.640426 
L 371.355728 -347.667812 
L 361.323349 -347.768227 
L 357.900108 -347.804741 
L 356.476039 -347.822999 
L 353.144085 -347.868642 
L 342.60963 -347.978185 
z
" style="stroke: #000000"/>
    </defs>
    <g clip-path="url(#p3a5ed65612)">
     <use xlink:href="#m966a9e9c97" x="0" y="679.68" style="fill: #f7b6d2; stroke: #000000"/>
    </g>
   </g>
   <g id="PatchCollection_15">
    <defs>
     <path id="m997be27493" d="M 170.37039 -295.963176 
L 176.650896 -302.690986 
L 182.867502 -309.345767 
L 190.736393 -317.771505 
L 195.291586 -319.049515 
L 208.299902 -322.518399 
L 208.829364 -322.865288 
L 209.240153 -323.349106 
L 210.034345 -325.092677 
L 210.554677 -326.242886 
L 211.6136 -327.822141 
L 211.796173 -328.342474 
L 213.22937 -327.913428 
L 213.439329 -328.506789 
L 213.904889 -330.807208 
L 214.03269 -333.536672 
L 213.722317 -336.494352 
L 213.56713 -338.383981 
L 213.22937 -342.665315 
L 213.055926 -344.801418 
L 212.82771 -348.598933 
L 212.709037 -350.607235 
L 212.663394 -358.786499 
L 212.709037 -359.11513 
L 212.699909 -360.137538 
L 212.654265 -363.725095 
L 212.48995 -380.631342 
L 212.28912 -401.43552 
L 212.298248 -412.837196 
L 212.398663 -416.141764 
L 212.243476 -418.752556 
L 212.133933 -420.733472 
L 212.042646 -421.436378 
L 211.723144 -424.056298 
L 211.440156 -425.79074 
L 210.308204 -429.551741 
L 211.777916 -429.56087 
L 212.444307 -427.059622 
L 214.553023 -422.915218 
L 216.269208 -420.07621 
L 220.83353 -413.321014 
L 223.225234 -409.587399 
L 223.800339 -408.546733 
L 225.94557 -404.676189 
L 226.977107 -402.750045 
L 231.714872 -395.748375 
L 237.119029 -384.857904 
L 243.116548 -389.093595 
L 244.367172 -386.802305 
L 245.508252 -385.140892 
L 250.583778 -379.462876 
L 243.782939 -374.451251 
L 253.030254 -367.267009 
L 252.582951 -366.755805 
L 248.274231 -354.276949 
L 247.580454 -352.259519 
L 251.250169 -350.351633 
L 252.99374 -349.374868 
L 253.568844 -349.055365 
L 256.727355 -347.503496 
L 260.935659 -345.431294 
L 262.916575 -344.454529 
L 268.676749 -342.373198 
L 270.548121 -341.14996 
L 274.893355 -338.301824 
L 283.556437 -332.614679 
L 292.95894 -326.452845 
L 301.895882 -320.601384 
L 304.844433 -318.666112 
L 315.56146 -311.646185 
L 322.271013 -307.246179 
L 326.287616 -304.4802 
L 329.42787 -302.316712 
L 332.221234 -300.792229 
L 334.375594 -299.861107 
L 334.841155 -299.660277 
L 336.785556 -299.0304 
L 338.319168 -298.537454 
L 339.688465 -298.217951 
L 341.998011 -297.679361 
L 343.641167 -297.515046 
L 347.511712 -297.195543 
L 348.990552 -297.095128 
L 350.971468 -297.177286 
L 354.422095 -297.332473 
L 360.136625 -297.515046 
L 364.609661 -297.159029 
L 366.96485 -297.01297 
L 369.091824 -296.876041 
L 372.670253 -296.876041 
L 376.960715 -297.131643 
L 378.074409 -297.232058 
L 382.583959 -297.624589 
L 384.519231 -297.88932 
L 388.453677 -298.583097 
L 395.062814 -299.915879 
L 401.772367 -301.613806 
L 404.593118 -302.426256 
L 404.547475 -300.290153 
L 413.566574 -303.247834 
L 417.70185 -304.662773 
L 419.089403 -305.110077 
L 418.90683 -303.786424 
L 418.788158 -295.032055 
L 418.322597 -290.075201 
L 418.085253 -284.050297 
L 417.920937 -282.069381 
L 417.838779 -278.24448 
L 411.476115 -278.326638 
L 406.418847 -278.390538 
L 404.319259 -278.408795 
L 401.087719 -278.454439 
L 390.690194 -278.573111 
L 379.708436 -278.682655 
L 369.79473 -278.773941 
L 367.375639 -278.801327 
L 359.999696 -278.874356 
L 349.419598 -278.965643 
L 338.821243 -279.075186 
L 327.720813 -279.166473 
L 317.195488 -279.266888 
L 310.522449 -279.32166 
L 308.103359 -279.339917 
L 303.52078 -279.0478 
L 302.744845 -279.129958 
L 299.504177 -279.166473 
L 295.323258 -279.193859 
L 293.670974 -279.202987 
L 289.563085 -279.221245 
L 276.901656 -279.285145 
L 274.327379 -279.303402 
L 262.113254 -279.367303 
L 257.074243 -279.394689 
L 242.29497 -279.476847 
L 230.710722 -279.531618 
L 220.605314 -279.595519 
L 219.181245 -278.84697 
L 218.688298 -279.759835 
L 216.634354 -278.78307 
L 214.890783 -277.961492 
L 210.216918 -275.615431 
L 210.280818 -280.763985 
L 208.126458 -280.499255 
L 193.940547 -280.809629 
L 192.826852 -280.992201 
L 191.840959 -281.466891 
L 191.338883 -281.804651 
L 190.124774 -282.626229 
L 180.831815 -288.870221 
L 176.988656 -291.179767 
z
" style="stroke: #000000"/>
    </defs>
    <g clip-path="url(#p3a5ed65612)">
     <use xlink:href="#m997be27493" x="0" y="679.68" style="fill: #7f7f7f; stroke: #000000"/>
    </g>
   </g>
   <g id="PatchCollection_16">
    <defs>
     <path id="m38f22d0819" d="M 30.921236 -341.743322 
L 30.976008 -344.883575 
L 31.067294 -350.43379 
L 53.076453 -350.324247 
L 57.312143 -350.305989 
L 60.105508 -350.287732 
L 64.295556 -350.269475 
L 67.56361 -350.041259 
L 74.729595 -350.205574 
L 83.648279 -350.159931 
L 90.513019 -350.114288 
L 96.820911 -350.086902 
L 99.32216 -350.077773 
L 104.863246 -350.296861 
L 109.117194 -350.287732 
L 119.523847 -350.269475 
L 120.64667 -350.260346 
L 121.92468 -350.260346 
L 122.983603 -350.260346 
L 126.142113 -350.251218 
L 128.095643 -350.251218 
L 131.984445 -350.305989 
L 131.610171 -346.709304 
L 131.528013 -343.231291 
L 131.518884 -342.491871 
L 131.48237 -333.071111 
L 131.445855 -326.133342 
L 131.436726 -322.655329 
L 131.418469 -318.903457 
L 131.28154 -299.742435 
L 138.438396 -298.838699 
L 149.958744 -297.241186 
L 144.417657 -289.180594 
L 140.29151 -283.201333 
L 138.922214 -281.375604 
L 138.538811 -280.882658 
L 134.896482 -276.838669 
L 131.363697 -273.260241 
L 129.884857 -274.437836 
L 127.137136 -275.852775 
L 126.717218 -276.017091 
L 125.15622 -276.646967 
L 123.503936 -277.103399 
L 122.773644 -277.30423 
L 120.30891 -277.687633 
L 117.479031 -277.76979 
L 115.470729 -277.614603 
L 113.699773 -277.048628 
L 108.852463 -283.685151 
L 108.660762 -289.509226 
L 106.862419 -289.536611 
L 107.090635 -293.297612 
L 107.236693 -295.616288 
L 107.574453 -301.221275 
L 105.922169 -301.230403 
L 105.91304 -307.246179 
L 105.903911 -310.240374 
L 105.894783 -318.857814 
L 98.84747 -318.839556 
L 95.816761 -318.839556 
L 88.011771 -318.821299 
L 88.002642 -315.85449 
L 88.002642 -312.82378 
L 88.002642 -310.06693 
L 87.975256 -301.32169 
L 90.020072 -301.312561 
L 90.184388 -289.509226 
L 90.30306 -281.220417 
L 76.737896 -281.238675 
L 75.596816 -281.247803 
L 74.327934 -281.165646 
L 72.310504 -280.709213 
L 66.431658 -278.637011 
L 64.605929 -278.007135 
L 56.764425 -275.250285 
L 56.079777 -275.606302 
L 55.796789 -275.715846 
L 54.664837 -276.144892 
L 53.222511 -276.446137 
L 48.621675 -276.610453 
L 46.978519 -276.646967 
L 35.458172 -276.866055 
L 34.317091 -276.719996 
L 32.226632 -276.163149 
L 31.021651 -275.624559 
L 31.085551 -281.695107 
L 31.213352 -292.704251 
L 31.286382 -298.847828 
L 31.29551 -299.751563 
L 31.29551 -306.57066 
L 31.286382 -311.034566 
L 31.277253 -314.293492 
L 31.268124 -317.324201 
L 31.258996 -323.595579 
L 31.240738 -327.475253 
L 31.240738 -329.857829 
L 31.23161 -333.308456 
L 31.140323 -339.004729 
L 31.058166 -340.027137 
z
" style="stroke: #000000"/>
    </defs>
    <g clip-path="url(#p3a5ed65612)">
     <use xlink:href="#m38f22d0819" x="0" y="679.68" style="fill: #c7c7c7; stroke: #000000"/>
    </g>
   </g>
   <g id="PatchCollection_17">
    <defs>
     <path id="m7256c3ca1b" d="M 125.201863 -230.647734 
L 125.548752 -233.459356 
L 125.904769 -234.91081 
L 126.388587 -236.398779 
L 126.954563 -237.813719 
L 127.776141 -239.201273 
L 128.707262 -240.762271 
L 129.985272 -242.45107 
L 131.564527 -244.139869 
L 132.970339 -245.573066 
L 135.261628 -247.718297 
L 139.0135 -250.812907 
L 139.816821 -251.53407 
L 140.273253 -251.817058 
L 141.122217 -252.246104 
L 142.518899 -252.830337 
L 150.58862 -255.742374 
L 157.508132 -258.234494 
L 160.219339 -259.302545 
L 167.193622 -262.6345 
L 170.297361 -264.469357 
L 173.008568 -266.212928 
L 175.646746 -268.394674 
L 177.43596 -270.03783 
L 183.095719 -275.122484 
L 184.4285 -276.318336 
L 184.70236 -276.564809 
L 190.124774 -282.626229 
L 191.338883 -281.804651 
L 191.840959 -281.466891 
L 192.826852 -280.992201 
L 193.940547 -280.809629 
L 208.126458 -280.499255 
L 210.280818 -280.763985 
L 210.216918 -275.615431 
L 210.098245 -271.954845 
L 209.778743 -269.709198 
L 209.723971 -269.344053 
L 209.021065 -264.177241 
L 208.911522 -262.871845 
L 208.71982 -261.593835 
L 208.710691 -261.246946 
L 208.500733 -259.667691 
L 208.144716 -256.573081 
L 207.898242 -245.737381 
L 207.825213 -242.542356 
L 207.679155 -236.298364 
L 207.651769 -235.075126 
L 207.450939 -234.089232 
L 207.204465 -232.920766 
L 206.912349 -222.970545 
L 206.693261 -211.751443 
L 206.720647 -198.898313 
L 206.665875 -188.071742 
L 206.492431 -176.104091 
L 206.437659 -170.416946 
L 206.382887 -164.757187 
L 199.079973 -164.775444 
L 191.49407 -164.793702 
L 191.49407 -164.985403 
L 187.367924 -165.003661 
L 185.971241 -165.359678 
L 183.68908 -166.500758 
L 182.182854 -166.254285 
L 179.553805 -165.834367 
L 176.203593 -169.659269 
L 175.327243 -170.654291 
L 173.80276 -172.40699 
L 170.123917 -176.067576 
L 169.886572 -176.304921 
L 165.404408 -180.175466 
L 161.807723 -182.932316 
L 161.42432 -183.279204 
L 156.960413 -186.766346 
L 149.767042 -192.380462 
L 147.046706 -194.507435 
L 141.058316 -199.382131 
L 140.556241 -199.79292 
L 138.648355 -201.536491 
L 136.439223 -203.882552 
L 135.188599 -205.416164 
L 133.782788 -207.141478 
L 131.993574 -210.327374 
L 129.939629 -214.791281 
L 127.557053 -220.003736 
L 125.859125 -224.650215 
L 125.539623 -226.722417 
L 125.347921 -228.548146 
z
" style="stroke: #000000"/>
    </defs>
    <g clip-path="url(#p3a5ed65612)">
     <use xlink:href="#m7256c3ca1b" x="0" y="679.68" style="fill: #bcbd22; stroke: #000000"/>
    </g>
   </g>
   <g id="PatchCollection_18">
    <defs>
     <path id="m7e1f7fc580" d="M 302.78136 -233.222011 
L 302.945676 -244.486757 
L 302.973061 -246.157299 
L 303.000447 -248.293401 
L 303.073477 -252.81208 
L 303.11912 -254.82951 
L 303.11912 -256.746525 
L 303.137377 -258.097564 
L 303.192149 -261.712507 
L 303.228663 -263.729937 
L 303.374722 -273.999661 
L 303.402108 -275.88929 
L 303.45688 -277.30423 
L 303.52078 -279.0478 
L 308.103359 -279.339917 
L 310.522449 -279.32166 
L 317.195488 -279.266888 
L 327.720813 -279.166473 
L 338.821243 -279.075186 
L 349.419598 -278.965643 
L 359.999696 -278.874356 
L 367.375639 -278.801327 
L 369.79473 -278.773941 
L 369.685186 -267.317494 
L 369.566514 -252.61125 
L 369.776473 -252.319133 
L 370.013817 -252.218718 
L 372.907597 -252.145689 
L 376.759885 -252.200461 
L 379.982296 -252.246104 
L 379.881881 -251.543198 
L 379.881881 -250.79465 
L 379.772337 -250.374732 
L 379.744951 -247.353151 
L 379.717565 -245.591323 
L 379.681051 -241.656878 
L 379.644536 -238.607911 
L 379.772337 -238.041935 
L 369.39307 -238.169736 
L 359.853637 -238.288408 
L 359.871895 -230.903336 
L 359.853637 -230.154787 
L 337.013772 -230.364746 
L 337.397175 -234.271805 
L 322.115826 -234.399606 
L 319.651093 -234.217033 
L 316.529097 -233.751473 
L 313.160627 -233.358941 
L 305.127421 -233.331555 
z
" style="stroke: #000000"/>
    </defs>
    <g clip-path="url(#p3a5ed65612)">
     <use xlink:href="#m7e1f7fc580" x="0" y="679.68" style="fill: #dbdb8d; stroke: #000000"/>
    </g>
   </g>
   <g id="PatchCollection_19">
    <defs>
     <path id="m09efe4ef7e" d="M 302.023683 -187.241035 
L 302.215384 -189.787927 
L 302.352314 -197.629431 
L 302.78136 -233.222011 
L 305.127421 -233.331555 
L 313.160627 -233.358941 
L 316.529097 -233.751473 
L 319.651093 -234.217033 
L 322.115826 -234.399606 
L 337.397175 -234.271805 
L 337.013772 -230.364746 
L 359.853637 -230.154787 
L 359.871895 -230.903336 
L 359.853637 -238.288408 
L 369.39307 -238.169736 
L 379.772337 -238.041935 
L 379.644536 -238.607911 
L 379.681051 -241.656878 
L 379.717565 -245.591323 
L 379.744951 -247.353151 
L 379.772337 -250.374732 
L 379.881881 -250.79465 
L 379.881881 -251.543198 
L 379.982296 -252.246104 
L 376.759885 -252.200461 
L 372.907597 -252.145689 
L 370.013817 -252.218718 
L 369.776473 -252.319133 
L 369.566514 -252.61125 
L 369.685186 -267.317494 
L 369.79473 -278.773941 
L 379.708436 -278.682655 
L 390.690194 -278.573111 
L 401.087719 -278.454439 
L 404.319259 -278.408795 
L 406.418847 -278.390538 
L 411.476115 -278.326638 
L 417.838779 -278.24448 
L 420.641273 -278.207965 
L 434.242951 -278.025392 
L 434.179051 -266.641974 
L 434.288594 -260.717485 
L 434.379881 -255.158141 
L 434.398138 -249.763113 
L 434.480296 -248.110828 
L 434.462039 -245.992983 
L 434.425524 -243.756466 
L 434.45291 -237.320772 
L 434.370752 -236.307493 
L 432.289421 -230.839435 
L 432.189006 -226.786318 
L 432.079463 -216.014519 
L 431.979048 -205.498322 
L 431.942533 -195.475072 
L 431.96079 -185.004518 
L 418.687743 -185.269248 
L 406.135859 -185.515722 
L 397.125888 -185.826096 
L 388.380648 -186.081698 
L 375.125858 -186.273399 
L 365.303437 -186.4012 
L 359.981438 -186.465101 
L 352.596366 -186.556387 
L 336.283481 -186.766346 
L 329.646957 -186.848504 
L 323.083462 -186.930662 
L 316.027021 -187.094977 
L 311.179712 -187.158878 
L 308.897551 -187.195392 
L 307.29091 -187.213649 
L 305.145679 -187.222778 
z
" style="stroke: #000000"/>
    </defs>
    <g clip-path="url(#p3a5ed65612)">
     <use xlink:href="#m09efe4ef7e" x="0" y="679.68" style="fill: #17becf; stroke: #000000"/>
    </g>
   </g>
   <g id="PatchCollection_20">
    <defs>
     <path id="m759f79ef08" d="M 36.827468 -106.160426 
L 37.2839 -106.689888 
L 46.595116 -118.630153 
L 54.518779 -128.781204 
L 60.078122 -135.125611 
L 62.579371 -138.36628 
L 64.377713 -140.712341 
L 66.641617 -143.651764 
L 67.673154 -145.961311 
L 69.133736 -148.855091 
L 70.503033 -152.02273 
L 70.676477 -152.488291 
L 71.607599 -155.026053 
L 72.566106 -158.230207 
L 73.223369 -161.16963 
L 73.241626 -161.270045 
L 73.707187 -164.282498 
L 74.072332 -168.445159 
L 74.072332 -173.091638 
L 74.072332 -189.048507 
L 74.063204 -199.902464 
L 74.620051 -204.138154 
L 75.23167 -207.232764 
L 76.217564 -210.838578 
L 77.166942 -213.458499 
L 77.468188 -214.289205 
L 78.983542 -217.666803 
L 80.854914 -221.126559 
L 83.301391 -224.960589 
L 84.4516 -226.530716 
L 84.698073 -226.813704 
L 86.231685 -228.484246 
L 88.942892 -230.921593 
L 89.572769 -231.451055 
L 92.466549 -233.952303 
L 95.113855 -235.997119 
L 98.235851 -238.096707 
L 101.522163 -240.004593 
L 104.726316 -241.611235 
L 107.857441 -242.962274 
L 110.696449 -244.021196 
L 115.698946 -245.655223 
L 122.435884 -247.836969 
L 140.373668 -253.642786 
L 141.624292 -254.117476 
L 142.975332 -254.820381 
L 144.162055 -255.641959 
L 148.105629 -259.229516 
L 149.10978 -258.079307 
L 149.958744 -256.856069 
L 150.58862 -255.742374 
L 142.518899 -252.830337 
L 141.122217 -252.246104 
L 140.273253 -251.817058 
L 139.816821 -251.53407 
L 139.0135 -250.812907 
L 135.261628 -247.718297 
L 132.970339 -245.573066 
L 131.564527 -244.139869 
L 129.985272 -242.45107 
L 128.707262 -240.762271 
L 127.776141 -239.201273 
L 126.954563 -237.813719 
L 126.388587 -236.398779 
L 125.904769 -234.91081 
L 125.548752 -233.459356 
L 125.201863 -230.647734 
L 125.347921 -228.548146 
L 125.539623 -226.722417 
L 125.859125 -224.650215 
L 127.557053 -220.003736 
L 129.939629 -214.791281 
L 131.993574 -210.327374 
L 133.782788 -207.141478 
L 135.188599 -205.416164 
L 136.439223 -203.882552 
L 138.648355 -201.536491 
L 140.556241 -199.79292 
L 141.058316 -199.382131 
L 128.917221 -199.610347 
L 116.602681 -199.619476 
L 116.712225 -198.469267 
L 116.867412 -196.844368 
L 117.004342 -187.971327 
L 117.068242 -180.202851 
L 117.223429 -165.07669 
L 117.278201 -157.992863 
L 117.360359 -150.74472 
L 117.442516 -142.446783 
L 117.661604 -135.390342 
L 117.835048 -129.840127 
L 118.127165 -121.706506 
L 118.218451 -118.794468 
L 118.464924 -110.177029 
L 118.537954 -107.821839 
L 118.784427 -98.875769 
L 119.021772 -87.592766 
L 119.067415 -85.876581 
L 119.295631 -76.364535 
L 119.441689 -65.035888 
L 119.587748 -53.378611 
L 119.578619 -37.44 
L 114.064918 -38.133777 
L 111.006823 -38.672367 
L 106.488145 -39.840833 
L 106.269057 -39.877348 
L 104.452457 -40.863241 
L 97.660747 -43.976109 
L 93.908874 -45.756194 
L 91.955345 -46.851631 
L 90.576919 -47.691466 
L 89.408453 -48.595202 
L 88.605132 -49.371137 
L 87.94787 -50.101428 
L 85.857411 -53.004337 
L 84.351185 -55.103925 
L 78.490596 -66.286513 
L 77.906363 -67.318049 
L 73.588514 -74.98611 
L 68.832491 -82.800228 
L 68.010913 -83.813508 
L 67.600124 -84.315583 
L 67.180207 -84.826787 
L 66.367758 -85.830938 
L 62.752815 -89.290694 
L 60.525426 -91.518083 
L 59.174387 -92.759578 
L 56.846583 -94.621821 
L 53.332055 -96.794438 
L 52.747822 -97.159584 
L 44.778516 -101.614362 
L 40.506311 -103.896523 
L 40.268967 -104.024324 
L 39.675605 -104.371212 
L 39.137015 -104.681586 
L 37.804233 -105.557936 
z
" style="stroke: #000000"/>
    </defs>
    <g clip-path="url(#p3a5ed65612)">
     <use xlink:href="#m759f79ef08" x="0" y="679.68" style="fill: #9edae5; stroke: #000000"/>
    </g>
   </g>
   <g id="matplotlib.axis_1">
    <g id="xtick_1"/>
    <g id="xtick_2"/>
    <g id="xtick_3"/>
    <g id="xtick_4"/>
    <g id="xtick_5"/>
    <g id="xtick_6"/>
   </g>
   <g id="matplotlib.axis_2">
    <g id="ytick_1"/>
    <g id="ytick_2"/>
    <g id="ytick_3"/>
    <g id="ytick_4"/>
    <g id="ytick_5"/>
    <g id="ytick_6"/>
    <g id="ytick_7"/>
   </g>
   <g id="text_1">
    <!-- 1800 -->
    <g transform="translate(379.440556 228.267275) scale(0.12 -0.12)">
     <defs>
      <path id="DejaVuSans-31" d="M 794 531 
L 1825 531 
L 1825 4091 
L 703 3866 
L 703 4441 
L 1819 4666 
L 2450 4666 
L 2450 531 
L 3481 531 
L 3481 0 
L 794 0 
L 794 531 
z
" transform="scale(0.015625)"/>
      <path id="DejaVuSans-38" d="M 2034 2216 
Q 1584 2216 1326 1975 
Q 1069 1734 1069 1313 
Q 1069 891 1326 650 
Q 1584 409 2034 409 
Q 2484 409 2743 651 
Q 3003 894 3003 1313 
Q 3003 1734 2745 1975 
Q 2488 2216 2034 2216 
z
M 1403 2484 
Q 997 2584 770 2862 
Q 544 3141 544 3541 
Q 544 4100 942 4425 
Q 1341 4750 2034 4750 
Q 2731 4750 3128 4425 
Q 3525 4100 3525 3541 
Q 3525 3141 3298 2862 
Q 3072 2584 2669 2484 
Q 3125 2378 3379 2068 
Q 3634 1759 3634 1313 
Q 3634 634 3220 271 
Q 2806 -91 2034 -91 
Q 1263 -91 848 271 
Q 434 634 434 1313 
Q 434 1759 690 2068 
Q 947 2378 1403 2484 
z
M 1172 3481 
Q 1172 3119 1398 2916 
Q 1625 2713 2034 2713 
Q 2441 2713 2670 2916 
Q 2900 3119 2900 3481 
Q 2900 3844 2670 4047 
Q 2441 4250 2034 4250 
Q 1625 4250 1398 4047 
Q 1172 3844 1172 3481 
z
" transform="scale(0.015625)"/>
      <path id="DejaVuSans-30" d="M 2034 4250 
Q 1547 4250 1301 3770 
Q 1056 3291 1056 2328 
Q 1056 1369 1301 889 
Q 1547 409 2034 409 
Q 2525 409 2770 889 
Q 3016 1369 3016 2328 
Q 3016 3291 2770 3770 
Q 2525 4250 2034 4250 
z
M 2034 4750 
Q 2819 4750 3233 4129 
Q 3647 3509 3647 2328 
Q 3647 1150 3233 529 
Q 2819 -91 2034 -91 
Q 1250 -91 836 529 
Q 422 1150 422 2328 
Q 422 3509 836 4129 
Q 1250 4750 2034 4750 
z
" transform="scale(0.015625)"/>
     </defs>
     <use xlink:href="#DejaVuSans-31"/>
     <use xlink:href="#DejaVuSans-38" transform="translate(63.623047 0)"/>
     <use xlink:href="#DejaVuSans-30" transform="translate(127.246094 0)"/>
     <use xlink:href="#DejaVuSans-30" transform="translate(190.869141 0)"/>
    </g>
   </g>
   <g id="text_2">
    <!-- 1900 -->
    <g transform="translate(285.645358 234.511267) scale(0.12 -0.12)">
     <defs>
      <path id="DejaVuSans-39" d="M 703 97 
L 703 672 
Q 941 559 1184 500 
Q 1428 441 1663 441 
Q 2288 441 2617 861 
Q 2947 1281 2994 2138 
Q 2813 1869 2534 1725 
Q 2256 1581 1919 1581 
Q 1219 1581 811 2004 
Q 403 2428 403 3163 
Q 403 3881 828 4315 
Q 1253 4750 1959 4750 
Q 2769 4750 3195 4129 
Q 3622 3509 3622 2328 
Q 3622 1225 3098 567 
Q 2575 -91 1691 -91 
Q 1453 -91 1209 -44 
Q 966 3 703 97 
z
M 1959 2075 
Q 2384 2075 2632 2365 
Q 2881 2656 2881 3163 
Q 2881 3666 2632 3958 
Q 2384 4250 1959 4250 
Q 1534 4250 1286 3958 
Q 1038 3666 1038 3163 
Q 1038 2656 1286 2365 
Q 1534 2075 1959 2075 
z
" transform="scale(0.015625)"/>
     </defs>
     <use xlink:href="#DejaVuSans-31"/>
     <use xlink:href="#DejaVuSans-39" transform="translate(63.623047 0)"/>
     <use xlink:href="#DejaVuSans-30" transform="translate(127.246094 0)"/>
     <use xlink:href="#DejaVuSans-30" transform="translate(190.869141 0)"/>
    </g>
   </g>
   <g id="text_3">
    <!-- 3600 -->
    <g transform="translate(151.341682 362.207293) scale(0.12 -0.12)">
     <defs>
      <path id="DejaVuSans-33" d="M 2597 2516 
Q 3050 2419 3304 2112 
Q 3559 1806 3559 1356 
Q 3559 666 3084 287 
Q 2609 -91 1734 -91 
Q 1441 -91 1130 -33 
Q 819 25 488 141 
L 488 750 
Q 750 597 1062 519 
Q 1375 441 1716 441 
Q 2309 441 2620 675 
Q 2931 909 2931 1356 
Q 2931 1769 2642 2001 
Q 2353 2234 1838 2234 
L 1294 2234 
L 1294 2753 
L 1863 2753 
Q 2328 2753 2575 2939 
Q 2822 3125 2822 3475 
Q 2822 3834 2567 4026 
Q 2313 4219 1838 4219 
Q 1578 4219 1281 4162 
Q 984 4106 628 3988 
L 628 4550 
Q 988 4650 1302 4700 
Q 1616 4750 1894 4750 
Q 2613 4750 3031 4423 
Q 3450 4097 3450 3541 
Q 3450 3153 3228 2886 
Q 3006 2619 2597 2516 
z
" transform="scale(0.015625)"/>
      <path id="DejaVuSans-36" d="M 2113 2584 
Q 1688 2584 1439 2293 
Q 1191 2003 1191 1497 
Q 1191 994 1439 701 
Q 1688 409 2113 409 
Q 2538 409 2786 701 
Q 3034 994 3034 1497 
Q 3034 2003 2786 2293 
Q 2538 2584 2113 2584 
z
M 3366 4563 
L 3366 3988 
Q 3128 4100 2886 4159 
Q 2644 4219 2406 4219 
Q 1781 4219 1451 3797 
Q 1122 3375 1075 2522 
Q 1259 2794 1537 2939 
Q 1816 3084 2150 3084 
Q 2853 3084 3261 2657 
Q 3669 2231 3669 1497 
Q 3669 778 3244 343 
Q 2819 -91 2113 -91 
Q 1303 -91 875 529 
Q 447 1150 447 2328 
Q 447 3434 972 4092 
Q 1497 4750 2381 4750 
Q 2619 4750 2861 4703 
Q 3103 4656 3366 4563 
z
" transform="scale(0.015625)"/>
     </defs>
     <use xlink:href="#DejaVuSans-33"/>
     <use xlink:href="#DejaVuSans-36" transform="translate(63.623047 0)"/>
     <use xlink:href="#DejaVuSans-30" transform="translate(127.246094 0)"/>
     <use xlink:href="#DejaVuSans-30" transform="translate(190.869141 0)"/>
    </g>
   </g>
   <g id="text_4">
    <!-- 2000 -->
    <g transform="translate(238.780754 518.101698) scale(0.12 -0.12)">
     <defs>
      <path id="DejaVuSans-32" d="M 1228 531 
L 3431 531 
L 3431 0 
L 469 0 
L 469 531 
Q 828 903 1448 1529 
Q 2069 2156 2228 2338 
Q 2531 2678 2651 2914 
Q 2772 3150 2772 3378 
Q 2772 3750 2511 3984 
Q 2250 4219 1831 4219 
Q 1534 4219 1204 4116 
Q 875 4013 500 3803 
L 500 4441 
Q 881 4594 1212 4672 
Q 1544 4750 1819 4750 
Q 2544 4750 2975 4387 
Q 3406 4025 3406 3419 
Q 3406 3131 3298 2873 
Q 3191 2616 2906 2266 
Q 2828 2175 2409 1742 
Q 1991 1309 1228 531 
z
" transform="scale(0.015625)"/>
     </defs>
     <use xlink:href="#DejaVuSans-32"/>
     <use xlink:href="#DejaVuSans-30" transform="translate(63.623047 0)"/>
     <use xlink:href="#DejaVuSans-30" transform="translate(127.246094 0)"/>
     <use xlink:href="#DejaVuSans-30" transform="translate(190.869141 0)"/>
    </g>
   </g>
   <g id="text_5">
    <!-- 1800 -->
    <g transform="translate(64.695004 165.247686) scale(0.12 -0.12)">
     <use xlink:href="#DejaVuSans-31"/>
     <use xlink:href="#DejaVuSans-38" transform="translate(63.623047 0)"/>
     <use xlink:href="#DejaVuSans-30" transform="translate(127.246094 0)"/>
     <use xlink:href="#DejaVuSans-30" transform="translate(190.869141 0)"/>
    </g>
   </g>
   <g id="text_6">
    <!-- 1900 -->
    <g transform="translate(346.851098 356.313841) scale(0.12 -0.12)">
     <use xlink:href="#DejaVuSans-31"/>
     <use xlink:href="#DejaVuSans-39" transform="translate(63.623047 0)"/>
     <use xlink:href="#DejaVuSans-30" transform="translate(127.246094 0)"/>
     <use xlink:href="#DejaVuSans-30" transform="translate(190.869141 0)"/>
    </g>
   </g>
   <g id="text_7">
    <!-- 1202 -->
    <g transform="translate(311.987571 133.055526) scale(0.12 -0.12)">
     <use xlink:href="#DejaVuSans-31"/>
     <use xlink:href="#DejaVuSans-32" transform="translate(63.623047 0)"/>
     <use xlink:href="#DejaVuSans-30" transform="translate(127.246094 0)"/>
     <use xlink:href="#DejaVuSans-32" transform="translate(190.869141 0)"/>
    </g>
   </g>
   <g id="text_8">
    <!-- 1201 -->
    <g transform="translate(355.953028 133.39785) scale(0.12 -0.12)">
     <use xlink:href="#DejaVuSans-31"/>
     <use xlink:href="#DejaVuSans-32" transform="translate(63.623047 0)"/>
     <use xlink:href="#DejaVuSans-30" transform="translate(127.246094 0)"/>
     <use xlink:href="#DejaVuSans-31" transform="translate(190.869141 0)"/>
    </g>
   </g>
   <g id="text_9">
    <!-- 1001 -->
    <g transform="translate(274.363377 109.667942) scale(0.12 -0.12)">
     <use xlink:href="#DejaVuSans-31"/>
     <use xlink:href="#DejaVuSans-30" transform="translate(63.623047 0)"/>
     <use xlink:href="#DejaVuSans-30" transform="translate(127.246094 0)"/>
     <use xlink:href="#DejaVuSans-31" transform="translate(190.869141 0)"/>
    </g>
   </g>
   <g id="text_10">
    <!-- 4300 -->
    <g transform="translate(84.684273 419.439321) scale(0.12 -0.12)">
     <defs>
      <path id="DejaVuSans-34" d="M 2419 4116 
L 825 1625 
L 2419 1625 
L 2419 4116 
z
M 2253 4666 
L 3047 4666 
L 3047 1625 
L 3713 1625 
L 3713 1100 
L 3047 1100 
L 3047 0 
L 2419 0 
L 2419 1100 
L 313 1100 
L 313 1709 
L 2253 4666 
z
" transform="scale(0.015625)"/>
     </defs>
     <use xlink:href="#DejaVuSans-34"/>
     <use xlink:href="#DejaVuSans-33" transform="translate(63.623047 0)"/>
     <use xlink:href="#DejaVuSans-30" transform="translate(127.246094 0)"/>
     <use xlink:href="#DejaVuSans-30" transform="translate(190.869141 0)"/>
    </g>
   </g>
   <g id="text_11">
    <!-- 1002 -->
    <g transform="translate(176.814518 138.382089) scale(0.12 -0.12)">
     <use xlink:href="#DejaVuSans-31"/>
     <use xlink:href="#DejaVuSans-30" transform="translate(63.623047 0)"/>
     <use xlink:href="#DejaVuSans-30" transform="translate(127.246094 0)"/>
     <use xlink:href="#DejaVuSans-32" transform="translate(190.869141 0)"/>
    </g>
   </g>
   <g id="text_12">
    <!-- 2100 -->
    <g transform="translate(221.871506 239.563971) scale(0.12 -0.12)">
     <use xlink:href="#DejaVuSans-32"/>
     <use xlink:href="#DejaVuSans-31" transform="translate(63.623047 0)"/>
     <use xlink:href="#DejaVuSans-30" transform="translate(127.246094 0)"/>
     <use xlink:href="#DejaVuSans-30" transform="translate(190.869141 0)"/>
    </g>
   </g>
   <g id="text_13">
    <!-- 2600 -->
    <g transform="translate(150.967466 299.064468) scale(0.12 -0.12)">
     <use xlink:href="#DejaVuSans-32"/>
     <use xlink:href="#DejaVuSans-36" transform="translate(63.623047 0)"/>
     <use xlink:href="#DejaVuSans-30" transform="translate(127.246094 0)"/>
     <use xlink:href="#DejaVuSans-30" transform="translate(190.869141 0)"/>
    </g>
   </g>
   <g id="text_14">
    <!-- 2800 -->
    <g transform="translate(365.214857 302.259493) scale(0.12 -0.12)">
     <use xlink:href="#DejaVuSans-32"/>
     <use xlink:href="#DejaVuSans-38" transform="translate(63.623047 0)"/>
     <use xlink:href="#DejaVuSans-30" transform="translate(127.246094 0)"/>
     <use xlink:href="#DejaVuSans-30" transform="translate(190.869141 0)"/>
    </g>
   </g>
   <g id="text_15">
    <!-- 3500 -->
    <g transform="translate(215.040765 329.723016) scale(0.12 -0.12)">
     <defs>
      <path id="DejaVuSans-35" d="M 691 4666 
L 3169 4666 
L 3169 4134 
L 1269 4134 
L 1269 2991 
Q 1406 3038 1543 3061 
Q 1681 3084 1819 3084 
Q 2600 3084 3056 2656 
Q 3513 2228 3513 1497 
Q 3513 744 3044 326 
Q 2575 -91 1722 -91 
Q 1428 -91 1123 -41 
Q 819 9 494 109 
L 494 744 
Q 775 591 1075 516 
Q 1375 441 1709 441 
Q 2250 441 2565 725 
Q 2881 1009 2881 1497 
Q 2881 1984 2565 2268 
Q 2250 2553 1709 2553 
Q 1456 2553 1204 2497 
Q 953 2441 691 2322 
L 691 4666 
z
" transform="scale(0.015625)"/>
     </defs>
     <use xlink:href="#DejaVuSans-33"/>
     <use xlink:href="#DejaVuSans-35" transform="translate(63.623047 0)"/>
     <use xlink:href="#DejaVuSans-30" transform="translate(127.246094 0)"/>
     <use xlink:href="#DejaVuSans-30" transform="translate(190.869141 0)"/>
    </g>
   </g>
   <g id="text_16">
    <!-- 3800 -->
    <g transform="translate(44.373259 371.062077) scale(0.12 -0.12)">
     <use xlink:href="#DejaVuSans-33"/>
     <use xlink:href="#DejaVuSans-38" transform="translate(63.623047 0)"/>
     <use xlink:href="#DejaVuSans-30" transform="translate(127.246094 0)"/>
     <use xlink:href="#DejaVuSans-30" transform="translate(190.869141 0)"/>
    </g>
   </g>
   <g id="text_17">
    <!-- 4400 -->
    <g transform="translate(151.281512 459.18087) scale(0.12 -0.12)">
     <use xlink:href="#DejaVuSans-34"/>
     <use xlink:href="#DejaVuSans-34" transform="translate(63.623047 0)"/>
     <use xlink:href="#DejaVuSans-30" transform="translate(127.246094 0)"/>
     <use xlink:href="#DejaVuSans-30" transform="translate(190.869141 0)"/>
    </g>
   </g>
   <g id="text_18">
    <!-- 4800 -->
    <g transform="translate(321.066286 429.170455) scale(0.12 -0.12)">
     <use xlink:href="#DejaVuSans-34"/>
     <use xlink:href="#DejaVuSans-38" transform="translate(63.623047 0)"/>
     <use xlink:href="#DejaVuSans-30" transform="translate(127.246094 0)"/>
     <use xlink:href="#DejaVuSans-30" transform="translate(190.869141 0)"/>
    </g>
   </g>
   <g id="text_19">
    <!-- 4900 -->
    <g transform="translate(381.042028 450.928576) scale(0.12 -0.12)">
     <use xlink:href="#DejaVuSans-34"/>
     <use xlink:href="#DejaVuSans-39" transform="translate(63.623047 0)"/>
     <use xlink:href="#DejaVuSans-30" transform="translate(127.246094 0)"/>
     <use xlink:href="#DejaVuSans-30" transform="translate(190.869141 0)"/>
    </g>
   </g>
   <g id="text_20">
    <!-- 5800 -->
    <g transform="translate(77.628419 535.583049) scale(0.12 -0.12)">
     <use xlink:href="#DejaVuSans-35"/>
     <use xlink:href="#DejaVuSans-38" transform="translate(63.623047 0)"/>
     <use xlink:href="#DejaVuSans-30" transform="translate(127.246094 0)"/>
     <use xlink:href="#DejaVuSans-30" transform="translate(190.869141 0)"/>
    </g>
   </g>
  </g>
 </g>
 <defs>
  <clipPath id="p3a5ed65612">
   <rect x="7.2" y="7.2" width="521.867189" height="665.28"/>
  </clipPath>
 </defs>
</svg>
