<?xml version="1.0" encoding="utf-8" standalone="no"?>
<!DOCTYPE svg PUBLIC "-//W3C//DTD SVG 1.1//EN"
  "http://www.w3.org/Graphics/SVG/1.1/DTD/svg11.dtd">
<svg xmlns:xlink="http://www.w3.org/1999/xlink" width="572.4pt" height="468.779532pt" viewBox="0 0 572.4 468.779532" xmlns="http://www.w3.org/2000/svg" version="1.1">
 <metadata>
  <rdf:RDF xmlns:dc="http://purl.org/dc/elements/1.1/" xmlns:cc="http://creativecommons.org/ns#" xmlns:rdf="http://www.w3.org/1999/02/22-rdf-syntax-ns#">
   <cc:Work>
    <dc:type rdf:resource="http://purl.org/dc/dcmitype/StillImage"/>
    <dc:date>2025-06-18T01:53:59.398672</dc:date>
    <dc:format>image/svg+xml</dc:format>
    <dc:creator>
     <cc:Agent>
      <dc:title>Matplotlib v3.10.0, https://matplotlib.org/</dc:title>
     </cc:Agent>
    </dc:creator>
   </cc:Work>
  </rdf:RDF>
 </metadata>
 <defs>
  <style type="text/css">*{stroke-linejoin: round; stroke-linecap: butt}</style>
 </defs>
 <g id="figure_1">
  <g id="patch_1">
   <path d="M 0 468.779532 
L 572.4 468.779532 
L 572.4 0 
L 0 0 
L 0 468.779532 
z
" style="fill: none"/>
  </g>
  <g id="axes_1">
   <g id="patch_2">
    <path d="M 7.2 461.579532 
L 565.2 461.579532 
L 565.2 7.2 
L 7.2 7.2 
L 7.2 461.579532 
z
" style="fill: none"/>
   </g>
   <g id="PatchCollection_1">
    <defs>
     <path id="m5c4d918503" d="M 212.747734 -177.010018 
L 214.758948 -182.545153 
L 216.082567 -186.223782 
L 217.303047 -189.610185 
L 221.892739 -202.485389 
L 254.966027 -188.578793 
L 279.134968 -178.402397 
L 282.676079 -176.906879 
L 295.671612 -171.423314 
L 287.661138 -160.387425 
L 279.358436 -148.956169 
L 276.057983 -143.042858 
L 263.182779 -147.185614 
L 248.021324 -151.517458 
L 235.16331 -155.350796 
L 231.140883 -156.622846 
L 207.968954 -163.722257 
L 212.747734 -177.010018 
" style="stroke: #000000"/>
    </defs>
    <g clip-path="url(#p7526320721)">
     <use xlink:href="#m5c4d918503" x="0" y="468.779532" style="fill: #1f77b4; stroke: #000000"/>
    </g>
   </g>
   <g id="PatchCollection_2">
    <defs>
     <path id="me84ec2529d" d="M 141.822378 -192.480891 
L 146.41207 -197.878507 
L 152.273812 -204.80602 
L 162.14079 -216.581073 
L 171.062327 -227.032507 
L 179.640067 -237.226093 
L 188.716312 -232.75673 
L 198.63486 -227.85762 
L 226.121444 -214.48391 
L 221.892739 -202.485389 
L 217.303047 -189.610185 
L 216.082567 -186.223782 
L 214.758948 -182.545153 
L 212.747734 -177.010018 
L 207.968954 -163.722257 
L 193.288814 -168.827645 
L 180.877736 -173.297009 
L 168.363519 -177.731992 
L 161.126589 -180.018243 
L 152.239432 -182.149786 
L 136.321623 -186.000314 
L 141.822378 -192.480891 
" style="stroke: #000000"/>
    </defs>
    <g clip-path="url(#p7526320721)">
     <use xlink:href="#me84ec2529d" x="0" y="468.779532" style="fill: #1f77b4; stroke: #000000"/>
    </g>
   </g>
   <g id="PatchCollection_3">
    <defs>
     <path id="m298c7bbe4b" d="M 305.091655 -326.441459 
L 309.818866 -332.904846 
L 317.82934 -343.906355 
L 325.15222 -353.996802 
L 332.475099 -364.05287 
L 339.815169 -374.126127 
L 349.561819 -370.000561 
L 378.303262 -357.88171 
L 419.90272 -340.330865 
L 412.407942 -330.068519 
L 405.256961 -320.25311 
L 397.779372 -309.956385 
L 389.872037 -299.109584 
L 380.555134 -287.918986 
L 339.69484 -304.868186 
L 319.703034 -313.291217 
L 307.515425 -318.448175 
L 301.206747 -321.112603 
L 305.091655 -326.441459 
" style="stroke: #000000"/>
    </defs>
    <g clip-path="url(#p7526320721)">
     <use xlink:href="#m298c7bbe4b" x="0" y="468.779532" style="fill: #aec7e8; stroke: #000000"/>
    </g>
   </g>
   <g id="PatchCollection_4">
    <defs>
     <path id="m900be34a04" d="M 303.389859 -182.063837 
L 310.781498 -192.257423 
L 318.465365 -202.794806 
L 325.736675 -212.747734 
L 333.403352 -223.250738 
L 340.829371 -233.478704 
L 378.956477 -217.440566 
L 386.330926 -227.496633 
L 426.245778 -210.650571 
L 418.905708 -200.594504 
L 411.42812 -190.349348 
L 403.813013 -179.829155 
L 396.490133 -169.876227 
L 388.823456 -159.356033 
L 381.242728 -148.973359 
L 373.67919 -138.539115 
L 333.764339 -155.350796 
L 295.671612 -171.423314 
L 303.389859 -182.063837 
" style="stroke: #000000"/>
    </defs>
    <g clip-path="url(#p7526320721)">
     <use xlink:href="#m900be34a04" x="0" y="468.779532" style="fill: #ff7f0e; stroke: #000000"/>
    </g>
   </g>
   <g id="PatchCollection_5">
    <defs>
     <path id="mceb9d497d3" d="M 90.751308 -69.934389 
L 94.000191 -73.939626 
L 106.204991 -88.946373 
L 121.142978 -106.995724 
L 122.535356 -110.313367 
L 125.543582 -117.533107 
L 130.287983 -132.178867 
L 144.985312 -126.179606 
L 158.805958 -120.455383 
L 171.835871 -115.109337 
L 187.495832 -108.7319 
L 183.370266 -98.177327 
L 177.474144 -84.35668 
L 176.717791 -82.173568 
L 170.082505 -66.10105 
L 159.407603 -45.851397 
L 148.577992 -27.853615 
L 132.677373 -33.165281 
L 119.286473 -37.858113 
L 105.08765 -42.757223 
L 92.642192 -50.509849 
L 81.589113 -58.537513 
L 90.751308 -69.934389 
" style="stroke: #000000"/>
    </defs>
    <g clip-path="url(#p7526320721)">
     <use xlink:href="#mceb9d497d3" x="0" y="468.779532" style="fill: #ff7f0e; stroke: #000000"/>
    </g>
   </g>
   <g id="PatchCollection_6">
    <defs>
     <path id="ma497d2b3c0" d="M 88.482246 -326.596168 
L 94.790924 -335.586464 
L 102.938917 -346.759872 
L 105.654915 -350.507261 
L 110.502455 -357.194116 
L 118.564499 -368.212815 
L 126.540593 -379.145565 
L 135.152712 -391.058137 
L 190.555627 -367.748689 
L 181.943508 -355.853307 
L 173.915844 -344.834608 
L 165.922559 -333.867478 
L 158.376211 -323.605132 
L 151.070522 -313.463116 
L 143.558553 -303.286719 
L 138.607874 -296.427966 
L 132.849271 -288.744099 
L 104.692283 -302.599125 
L 79.698229 -314.872684 
L 88.482246 -326.596168 
" style="stroke: #000000"/>
    </defs>
    <g clip-path="url(#p7526320721)">
     <use xlink:href="#ma497d2b3c0" x="0" y="468.779532" style="fill: #ffbb78; stroke: #000000"/>
    </g>
   </g>
   <g id="PatchCollection_7">
    <defs>
     <path id="mfb41e435aa" d="M 138.607874 -296.427966 
L 143.558553 -303.286719 
L 151.070522 -313.463116 
L 158.376211 -323.605132 
L 166.128838 -320.339059 
L 187.169225 -311.469092 
L 204.015286 -304.352491 
L 213.624417 -300.312874 
L 227.634152 -294.399563 
L 219.709627 -284.566963 
L 211.355356 -274.682795 
L 196.864305 -280.768005 
L 190.19464 -272.8091 
L 182.87176 -264.145411 
L 174.569058 -254.312812 
L 168.879215 -247.711907 
L 165.733471 -244.067657 
L 152.823887 -250.427904 
L 139.759595 -256.822532 
L 148.509233 -267.188016 
L 157.104162 -276.814337 
L 132.849271 -288.744099 
L 138.607874 -296.427966 
" style="stroke: #000000"/>
    </defs>
    <g clip-path="url(#p7526320721)">
     <use xlink:href="#mfb41e435aa" x="0" y="468.779532" style="fill: #2ca02c; stroke: #000000"/>
    </g>
   </g>
   <g id="PatchCollection_8">
    <defs>
     <path id="mb14bb172ce" d="M 279.358436 -148.956169 
L 287.661138 -160.387425 
L 295.671612 -171.423314 
L 333.764339 -155.350796 
L 373.67919 -138.539115 
L 365.428058 -127.331327 
L 358.895912 -117.945664 
L 344.215773 -122.363458 
L 329.810671 -126.746872 
L 316.59167 -131.164665 
L 301.9631 -135.066763 
L 289.431693 -138.986051 
L 276.057983 -143.042858 
L 279.358436 -148.956169 
" style="stroke: #000000"/>
    </defs>
    <g clip-path="url(#p7526320721)">
     <use xlink:href="#mb14bb172ce" x="0" y="468.779532" style="fill: #2ca02c; stroke: #000000"/>
    </g>
   </g>
   <g id="PatchCollection_9">
    <defs>
     <path id="m14e0f0b1e1" d="M 348.16944 -243.569151 
L 355.715788 -253.883066 
L 363.726262 -264.884575 
L 371.736736 -275.851705 
L 380.555134 -287.918986 
L 418.819759 -272.224645 
L 458.992459 -254.708179 
L 449.795884 -242.967506 
L 441.85417 -231.965996 
L 433.757746 -220.998866 
L 426.245778 -210.650571 
L 386.330926 -227.496633 
L 378.956477 -217.440566 
L 340.829371 -233.478704 
L 348.16944 -243.569151 
" style="stroke: #000000"/>
    </defs>
    <g clip-path="url(#p7526320721)">
     <use xlink:href="#m14e0f0b1e1" x="0" y="468.779532" style="fill: #98df8a; stroke: #000000"/>
    </g>
   </g>
   <g id="PatchCollection_10">
    <defs>
     <path id="m073fe6f6db" d="M 253.470509 -351.366754 
L 253.659598 -353.928043 
L 253.883066 -355.200092 
L 254.175293 -356.472142 
L 262.099818 -367.439272 
L 269.646166 -377.289061 
L 277.175324 -387.379508 
L 284.377875 -397.435575 
L 291.821084 -407.491642 
L 299.109584 -417.564899 
L 306.81064 -414.316016 
L 314.18509 -411.239031 
L 327.077484 -405.807036 
L 339.007246 -400.787597 
L 354.460928 -394.238261 
L 348.20382 -385.643332 
L 347.138049 -384.199384 
L 339.815169 -374.126127 
L 332.475099 -364.05287 
L 325.15222 -353.996802 
L 317.82934 -343.906355 
L 309.818866 -332.904846 
L 305.091655 -326.441459 
L 301.206747 -321.112603 
L 293.711968 -324.275537 
L 280.200739 -329.96538 
L 273.720163 -332.698568 
L 271.983987 -333.454921 
L 254.398762 -340.760611 
L 253.590838 -348.788275 
L 253.470509 -351.366754 
" style="stroke: #000000"/>
    </defs>
    <g clip-path="url(#p7526320721)">
     <use xlink:href="#m073fe6f6db" x="0" y="468.779532" style="fill: #d62728; stroke: #000000"/>
    </g>
   </g>
   <g id="PatchCollection_11">
    <defs>
     <path id="m85f1bce22b" d="M 176.717791 -82.173568 
L 177.474144 -84.35668 
L 183.370266 -98.177327 
L 187.495832 -108.7319 
L 189.661754 -114.215465 
L 192.171473 -120.678852 
L 205.785841 -116.604855 
L 214.277632 -114.077946 
L 226.843418 -110.296177 
L 241.918924 -105.792434 
L 255.189495 -101.787197 
L 259.263492 -100.566717 
L 267.96156 -97.919479 
L 281.025853 -93.948621 
L 294.984018 -89.754296 
L 308.564006 -85.62873 
L 298.112572 -64.605533 
L 296.840522 -61.906725 
L 295.534093 -59.517335 
L 289.191035 -48.086079 
L 280.802384 -31.532245 
L 267.256776 -36.035988 
L 253.573648 -40.57411 
L 240.646875 -44.510588 
L 232.516072 -46.951548 
L 228.287366 -48.240787 
L 214.569859 -52.366353 
L 199.528733 -56.904476 
L 186.928567 -60.737815 
L 170.082505 -66.10105 
L 176.717791 -82.173568 
" style="stroke: #000000"/>
    </defs>
    <g clip-path="url(#p7526320721)">
     <use xlink:href="#m85f1bce22b" x="0" y="468.779532" style="fill: #d62728; stroke: #000000"/>
    </g>
   </g>
   <g id="PatchCollection_12">
    <defs>
     <path id="md2a6107309" d="M 269.044521 -276.951856 
L 276.573679 -287.265771 
L 284.481014 -298.30166 
L 292.560248 -309.28598 
L 301.206747 -321.112603 
L 307.515425 -318.448175 
L 319.703034 -313.291217 
L 339.69484 -304.868186 
L 380.555134 -287.918986 
L 371.736736 -275.851705 
L 363.726262 -264.884575 
L 355.715788 -253.883066 
L 348.16944 -243.569151 
L 340.829371 -233.478704 
L 300.192545 -250.634183 
L 271.416722 -262.907742 
L 261.635692 -266.809839 
L 269.044521 -276.951856 
" style="stroke: #000000"/>
    </defs>
    <g clip-path="url(#p7526320721)">
     <use xlink:href="#md2a6107309" x="0" y="468.779532" style="fill: #ff9896; stroke: #000000"/>
    </g>
   </g>
   <g id="PatchCollection_13">
    <defs>
     <path id="m7f58744bdf" d="M 347.670934 -96.664619 
L 358.895912 -117.945664 
L 373.008786 -113.648199 
L 387.379508 -109.281975 
L 402.145596 -104.812612 
L 429.185244 -96.664619 
L 446.065685 -91.490472 
L 441.149385 -82.087619 
L 434.668809 -69.693731 
L 433.465519 -67.32153 
L 425.231576 -51.197443 
L 424.76745 -50.33795 
L 420.676264 -42.705653 
L 414.711383 -31.686954 
L 399.910915 -36.207886 
L 385.282345 -40.64287 
L 371.27261 -44.166791 
L 382.050652 -63.230344 
L 366.270361 -68.060694 
L 351.88245 -72.478488 
L 337.408589 -76.861902 
L 347.670934 -96.664619 
" style="stroke: #000000"/>
    </defs>
    <g clip-path="url(#p7526320721)">
     <use xlink:href="#m7f58744bdf" x="0" y="468.779532" style="fill: #9467bd; stroke: #000000"/>
    </g>
   </g>
   <g id="PatchCollection_14">
    <defs>
     <path id="mf284ba9b2a" d="M 365.428058 -127.331327 
L 373.67919 -138.539115 
L 414.195687 -121.469585 
L 455.038791 -104.210967 
L 446.65014 -92.332775 
L 446.065685 -91.490472 
L 429.185244 -96.664619 
L 402.145596 -104.812612 
L 387.379508 -109.281975 
L 373.008786 -113.648199 
L 358.895912 -117.945664 
L 365.428058 -127.331327 
" style="stroke: #000000"/>
    </defs>
    <g clip-path="url(#p7526320721)">
     <use xlink:href="#mf284ba9b2a" x="0" y="468.779532" style="fill: #9467bd; stroke: #000000"/>
    </g>
   </g>
   <g id="PatchCollection_15">
    <defs>
     <path id="m7785bc42b9" d="M 381.242728 -148.973359 
L 388.823456 -159.356033 
L 396.490133 -169.876227 
L 436.98944 -152.875457 
L 478.038822 -135.565269 
L 470.251816 -125.027886 
L 469.942399 -124.615329 
L 464.458834 -117.034602 
L 462.653899 -114.576452 
L 458.734611 -109.230406 
L 455.038791 -104.210967 
L 414.195687 -121.469585 
L 373.67919 -138.539115 
L 381.242728 -148.973359 
" style="stroke: #000000"/>
    </defs>
    <g clip-path="url(#p7526320721)">
     <use xlink:href="#m7785bc42b9" x="0" y="468.779532" style="fill: #c5b0d5; stroke: #000000"/>
    </g>
   </g>
   <g id="PatchCollection_16">
    <defs>
     <path id="m405ebafc9b" d="M 403.813013 -179.829155 
L 411.42812 -190.349348 
L 418.905708 -200.594504 
L 459.405015 -183.524975 
L 500.299689 -166.249167 
L 493.389366 -156.725985 
L 492.87367 -156.038391 
L 489.865445 -151.895635 
L 489.2638 -151.087711 
L 485.189803 -145.535387 
L 478.038822 -135.565269 
L 436.98944 -152.875457 
L 396.490133 -169.876227 
L 403.813013 -179.829155 
" style="stroke: #000000"/>
    </defs>
    <g clip-path="url(#p7526320721)">
     <use xlink:href="#m405ebafc9b" x="0" y="468.779532" style="fill: #8c564b; stroke: #000000"/>
    </g>
   </g>
   <g id="PatchCollection_17">
    <defs>
     <path id="ma4263198bb" d="M 426.245778 -210.650571 
L 433.757746 -220.998866 
L 441.85417 -231.965996 
L 449.795884 -242.967506 
L 458.992459 -254.708179 
L 498.615083 -238.309054 
L 539.836364 -220.311272 
L 531.224244 -208.690928 
L 523.145011 -197.637848 
L 515.168917 -186.619149 
L 507.760087 -176.459943 
L 500.299689 -166.249167 
L 459.405015 -183.524975 
L 418.905708 -200.594504 
L 426.245778 -210.650571 
" style="stroke: #000000"/>
    </defs>
    <g clip-path="url(#p7526320721)">
     <use xlink:href="#ma4263198bb" x="0" y="468.779532" style="fill: #c49c94; stroke: #000000"/>
    </g>
   </g>
   <g id="PatchCollection_18">
    <defs>
     <path id="m0bba3bbacb" d="M 255.189495 -101.787197 
L 265.967536 -121.452395 
L 276.057983 -143.042858 
L 289.431693 -138.986051 
L 301.9631 -135.066763 
L 316.59167 -131.164665 
L 329.810671 -126.746872 
L 344.215773 -122.363458 
L 358.895912 -117.945664 
L 347.670934 -96.664619 
L 337.408589 -76.861902 
L 323.020677 -81.262506 
L 308.564006 -85.62873 
L 294.984018 -89.754296 
L 281.025853 -93.948621 
L 267.96156 -97.919479 
L 259.263492 -100.566717 
L 255.189495 -101.787197 
" style="stroke: #000000"/>
    </defs>
    <g clip-path="url(#p7526320721)">
     <use xlink:href="#m0bba3bbacb" x="0" y="468.779532" style="fill: #c49c94; stroke: #000000"/>
    </g>
   </g>
   <g id="PatchCollection_19">
    <defs>
     <path id="m5a5bc5bc56" d="M 196.709596 -133.07274 
L 199.631872 -141.083214 
L 207.728295 -163.086233 
L 207.968954 -163.722257 
L 231.140883 -156.622846 
L 235.16331 -155.350796 
L 248.021324 -151.517458 
L 263.182779 -147.185614 
L 276.057983 -143.042858 
L 265.967536 -121.452395 
L 255.189495 -101.787197 
L 241.918924 -105.792434 
L 226.843418 -110.296177 
L 214.277632 -114.077946 
L 205.785841 -116.604855 
L 192.171473 -120.678852 
L 196.709596 -133.07274 
" style="stroke: #000000"/>
    </defs>
    <g clip-path="url(#p7526320721)">
     <use xlink:href="#m5a5bc5bc56" x="0" y="468.779532" style="fill: #e377c2; stroke: #000000"/>
    </g>
   </g>
   <g id="PatchCollection_20">
    <defs>
     <path id="mad98c69db4" d="M 226.121444 -214.48391 
L 229.284378 -222.580333 
L 230.642377 -226.052685 
L 234.080349 -230.126681 
L 239.151357 -236.194701 
L 246.560186 -246.11325 
L 254.415951 -256.925671 
L 257.338227 -260.65587 
L 258.730606 -262.443615 
L 261.635692 -266.809839 
L 271.416722 -262.907742 
L 300.192545 -250.634183 
L 340.829371 -233.478704 
L 333.403352 -223.250738 
L 325.736675 -212.747734 
L 318.465365 -202.794806 
L 310.781498 -192.257423 
L 303.389859 -182.063837 
L 295.671612 -171.423314 
L 282.676079 -176.906879 
L 279.134968 -178.402397 
L 254.966027 -188.578793 
L 221.892739 -202.485389 
L 226.121444 -214.48391 
" style="stroke: #000000"/>
    </defs>
    <g clip-path="url(#p7526320721)">
     <use xlink:href="#mad98c69db4" x="0" y="468.779532" style="fill: #f7b6d2; stroke: #000000"/>
    </g>
   </g>
   <g id="PatchCollection_21">
    <defs>
     <path id="m5bbacc9cb2" d="M 231.914427 -230.968984 
L 235.885284 -246.319528 
L 236.916675 -250.307575 
L 239.718622 -260.071415 
L 240.320267 -262.753033 
L 244.050467 -274.235858 
L 244.8412 -279.203728 
L 245.666313 -284.377875 
L 246.0273 -286.681316 
L 249.087095 -298.834546 
L 252.267219 -311.898839 
L 255.000407 -325.169409 
L 255.344204 -332.595428 
L 254.398762 -340.760611 
L 271.983987 -333.454921 
L 273.720163 -332.698568 
L 280.200739 -329.96538 
L 293.711968 -324.275537 
L 301.206747 -321.112603 
L 292.560248 -309.28598 
L 284.481014 -298.30166 
L 276.573679 -287.265771 
L 269.044521 -276.951856 
L 261.635692 -266.809839 
L 258.730606 -262.443615 
L 257.338227 -260.65587 
L 254.415951 -256.925671 
L 246.560186 -246.11325 
L 239.151357 -236.194701 
L 234.080349 -230.126681 
L 230.642377 -226.052685 
L 231.914427 -230.968984 
" style="stroke: #000000"/>
    </defs>
    <g clip-path="url(#p7526320721)">
     <use xlink:href="#m5bbacc9cb2" x="0" y="468.779532" style="fill: #f7b6d2; stroke: #000000"/>
    </g>
   </g>
   <g id="PatchCollection_22">
    <defs>
     <path id="mdc3cc2f26f" d="M 101.254311 -144.555565 
L 118.908296 -165.424053 
L 136.321623 -186.000314 
L 152.239432 -182.149786 
L 161.126589 -180.018243 
L 168.363519 -177.731992 
L 180.877736 -173.297009 
L 193.288814 -168.827645 
L 207.968954 -163.722257 
L 207.728295 -163.086233 
L 199.631872 -141.083214 
L 196.709596 -133.07274 
L 192.171473 -120.678852 
L 189.661754 -114.215465 
L 187.495832 -108.7319 
L 171.835871 -115.109337 
L 158.805958 -120.455383 
L 144.985312 -126.179606 
L 130.287983 -132.178867 
L 121.074218 -136.063775 
L 115.556274 -138.401596 
L 101.254311 -144.555565 
" style="stroke: #000000"/>
    </defs>
    <g clip-path="url(#p7526320721)">
     <use xlink:href="#mdc3cc2f26f" x="0" y="468.779532" style="fill: #7f7f7f; stroke: #000000"/>
    </g>
   </g>
   <g id="PatchCollection_23">
    <defs>
     <path id="m0146240877" d="M 165.922559 -333.867478 
L 173.915844 -344.834608 
L 181.943508 -355.853307 
L 190.555627 -367.748689 
L 223.250738 -354.168701 
L 232.137895 -350.66197 
L 239.770192 -347.705314 
L 254.398762 -340.760611 
L 255.344204 -332.595428 
L 255.000407 -325.169409 
L 252.267219 -311.898839 
L 249.087095 -298.834546 
L 246.0273 -286.681316 
L 227.634152 -294.399563 
L 213.624417 -300.312874 
L 204.015286 -304.352491 
L 187.169225 -311.469092 
L 166.128838 -320.339059 
L 158.376211 -323.605132 
L 165.922559 -333.867478 
" style="stroke: #000000"/>
    </defs>
    <g clip-path="url(#p7526320721)">
     <use xlink:href="#m0146240877" x="0" y="468.779532" style="fill: #c7c7c7; stroke: #000000"/>
    </g>
   </g>
   <g id="PatchCollection_24">
    <defs>
     <path id="m7df5fdb39f" d="M 56.337211 -91.559231 
L 69.470263 -107.064484 
L 83.359669 -123.429229 
L 101.254311 -144.555565 
L 115.556274 -138.401596 
L 121.074218 -136.063775 
L 130.287983 -132.178867 
L 125.543582 -117.533107 
L 122.535356 -110.313367 
L 121.142978 -106.995724 
L 106.204991 -88.946373 
L 94.000191 -73.939626 
L 90.751308 -69.934389 
L 81.589113 -58.537513 
L 71.687755 -65.636924 
L 58.950069 -74.764739 
L 48.447066 -82.276707 
L 56.337211 -91.559231 
" style="stroke: #000000"/>
    </defs>
    <g clip-path="url(#p7526320721)">
     <use xlink:href="#m7df5fdb39f" x="0" y="468.779532" style="fill: #c7c7c7; stroke: #000000"/>
    </g>
   </g>
   <g id="PatchCollection_25">
    <defs>
     <path id="m7c95521b54" d="M 82.276707 -211.836672 
L 98.796162 -231.312781 
L 108.336533 -242.761227 
L 117.17212 -252.662586 
L 126.213986 -263.509387 
L 139.759595 -256.822532 
L 152.823887 -250.427904 
L 165.733471 -244.067657 
L 179.640067 -237.226093 
L 171.062327 -227.032507 
L 162.14079 -216.581073 
L 152.273812 -204.80602 
L 146.41207 -197.878507 
L 141.822378 -192.480891 
L 136.321623 -186.000314 
L 121.916521 -192.274613 
L 109.006938 -198.65205 
L 95.977025 -205.098247 
L 91.868649 -207.109461 
L 82.276707 -211.836672 
" style="stroke: #000000"/>
    </defs>
    <g clip-path="url(#p7526320721)">
     <use xlink:href="#m7c95521b54" x="0" y="468.779532" style="fill: #bcbd22; stroke: #000000"/>
    </g>
   </g>
   <g id="PatchCollection_26">
    <defs>
     <path id="mc3710122cc" d="M 168.879215 -247.711907 
L 174.569058 -254.312812 
L 182.87176 -264.145411 
L 190.19464 -272.8091 
L 196.864305 -280.768005 
L 211.355356 -274.682795 
L 219.709627 -284.566963 
L 227.634152 -294.399563 
L 246.0273 -286.681316 
L 245.666313 -284.377875 
L 244.8412 -279.203728 
L 244.050467 -274.235858 
L 240.320267 -262.753033 
L 239.718622 -260.071415 
L 236.916675 -250.307575 
L 235.885284 -246.319528 
L 231.914427 -230.968984 
L 230.642377 -226.052685 
L 229.284378 -222.580333 
L 226.121444 -214.48391 
L 198.63486 -227.85762 
L 188.716312 -232.75673 
L 179.640067 -237.226093 
L 165.733471 -244.067657 
L 168.879215 -247.711907 
" style="stroke: #000000"/>
    </defs>
    <g clip-path="url(#p7526320721)">
     <use xlink:href="#mc3710122cc" x="0" y="468.779532" style="fill: #dbdb8d; stroke: #000000"/>
    </g>
   </g>
   <g id="PatchCollection_27">
    <defs>
     <path id="md3e4ba4cd4" d="M 347.138049 -384.199384 
L 348.20382 -385.643332 
L 354.460928 -394.238261 
L 362.196365 -404.878784 
L 370.533446 -416.344419 
L 378.818958 -427.775675 
L 417.44457 -411.496879 
L 458.115776 -394.37578 
L 450.449099 -381.259918 
L 443.384067 -370.481877 
L 440.960297 -367.129854 
L 435.837719 -359.978873 
L 432.245039 -357.641052 
L 426.967752 -350.043135 
L 419.90272 -340.330865 
L 378.303262 -357.88171 
L 349.561819 -370.000561 
L 339.815169 -374.126127 
L 347.138049 -384.199384 
" style="stroke: #000000"/>
    </defs>
    <g clip-path="url(#p7526320721)">
     <use xlink:href="#md3e4ba4cd4" x="0" y="468.779532" style="fill: #dbdb8d; stroke: #000000"/>
    </g>
   </g>
   <g id="PatchCollection_28">
    <defs>
     <path id="m75df7faeb2" d="M 33.182471 -237.793358 
L 42.963501 -258.575897 
L 44.063652 -261.016857 
L 49.942583 -271.141684 
L 51.885037 -274.510896 
L 56.543489 -282.830788 
L 64.433634 -293.849487 
L 68.198213 -299.006445 
L 72.048742 -304.318111 
L 79.698229 -314.872684 
L 104.692283 -302.599125 
L 132.849271 -288.744099 
L 157.104162 -276.814337 
L 148.509233 -267.188016 
L 139.759595 -256.822532 
L 126.213986 -263.509387 
L 117.17212 -252.662586 
L 108.336533 -242.761227 
L 98.796162 -231.312781 
L 82.276707 -211.836672 
L 69.968769 -217.887502 
L 56.938856 -224.299319 
L 43.891753 -230.762706 
L 32.563636 -236.418169 
L 33.182471 -237.793358 
" style="stroke: #000000"/>
    </defs>
    <g clip-path="url(#p7526320721)">
     <use xlink:href="#m75df7faeb2" x="0" y="468.779532" style="fill: #17becf; stroke: #000000"/>
    </g>
   </g>
   <g id="PatchCollection_29">
    <defs>
     <path id="m6fec1b0ef1" d="M 32.890244 -326.699307 
L 50.612988 -329.294976 
L 60.11898 -330.584215 
L 56.956046 -341.585724 
L 53.775922 -352.673183 
L 51.730329 -359.652266 
L 50.40671 -363.571554 
L 47.346915 -374.779341 
L 62.009864 -377.35782 
L 69.710921 -388.806266 
L 77.687015 -399.721826 
L 86.264755 -411.531259 
L 94.240849 -408.196426 
L 135.152712 -391.058137 
L 126.540593 -379.145565 
L 118.564499 -368.212815 
L 110.502455 -357.194116 
L 105.654915 -350.507261 
L 102.938917 -346.759872 
L 94.790924 -335.586464 
L 88.482246 -326.596168 
L 79.698229 -314.872684 
L 72.048742 -304.318111 
L 68.198213 -299.006445 
L 64.433634 -293.849487 
L 60.772194 -295.018397 
L 52.246024 -304.369681 
L 44.3215 -313.359977 
L 36.620443 -322.487792 
L 32.890244 -326.699307 
" style="stroke: #000000"/>
    </defs>
    <g clip-path="url(#p7526320721)">
     <use xlink:href="#m6fec1b0ef1" x="0" y="468.779532" style="fill: #9edae5; stroke: #000000"/>
    </g>
   </g>
   <g id="PatchCollection_30">
    <defs>
     <path id="mbee1fc87a9" d="M 199.098986 -379.540932 
L 207.109461 -390.525252 
L 214.48391 -400.615699 
L 221.82398 -410.706146 
L 229.09529 -420.745023 
L 236.486929 -430.801091 
L 239.013838 -434.273442 
L 243.826999 -440.925917 
L 259.916706 -434.101543 
L 299.109584 -417.564899 
L 291.821084 -407.491642 
L 284.377875 -397.435575 
L 277.175324 -387.379508 
L 269.646166 -377.289061 
L 262.099818 -367.439272 
L 254.175293 -356.472142 
L 253.883066 -355.200092 
L 253.659598 -353.928043 
L 253.470509 -351.366754 
L 253.590838 -348.788275 
L 254.398762 -340.760611 
L 239.770192 -347.705314 
L 232.137895 -350.66197 
L 223.250738 -354.168701 
L 190.555627 -367.748689 
L 199.098986 -379.540932 
" style="stroke: #000000"/>
    </defs>
    <g clip-path="url(#p7526320721)">
     <use xlink:href="#mbee1fc87a9" x="0" y="468.779532" style="fill: #9edae5; stroke: #000000"/>
    </g>
   </g>
   <g id="matplotlib.axis_1">
    <g id="xtick_1"/>
    <g id="xtick_2"/>
    <g id="xtick_3"/>
    <g id="xtick_4"/>
    <g id="xtick_5"/>
    <g id="xtick_6"/>
   </g>
   <g id="matplotlib.axis_2">
    <g id="ytick_1"/>
    <g id="ytick_2"/>
    <g id="ytick_3"/>
    <g id="ytick_4"/>
    <g id="ytick_5"/>
   </g>
   <g id="text_1">
    <!-- 3602 -->
    <g transform="translate(224.999219 300.133186) scale(0.2 -0.2)">
     <defs>
      <path id="DejaVuSans-33" d="M 2597 2516 
Q 3050 2419 3304 2112 
Q 3559 1806 3559 1356 
Q 3559 666 3084 287 
Q 2609 -91 1734 -91 
Q 1441 -91 1130 -33 
Q 819 25 488 141 
L 488 750 
Q 750 597 1062 519 
Q 1375 441 1716 441 
Q 2309 441 2620 675 
Q 2931 909 2931 1356 
Q 2931 1769 2642 2001 
Q 2353 2234 1838 2234 
L 1294 2234 
L 1294 2753 
L 1863 2753 
Q 2328 2753 2575 2939 
Q 2822 3125 2822 3475 
Q 2822 3834 2567 4026 
Q 2313 4219 1838 4219 
Q 1578 4219 1281 4162 
Q 984 4106 628 3988 
L 628 4550 
Q 988 4650 1302 4700 
Q 1616 4750 1894 4750 
Q 2613 4750 3031 4423 
Q 3450 4097 3450 3541 
Q 3450 3153 3228 2886 
Q 3006 2619 2597 2516 
z
" transform="scale(0.015625)"/>
      <path id="DejaVuSans-36" d="M 2113 2584 
Q 1688 2584 1439 2293 
Q 1191 2003 1191 1497 
Q 1191 994 1439 701 
Q 1688 409 2113 409 
Q 2538 409 2786 701 
Q 3034 994 3034 1497 
Q 3034 2003 2786 2293 
Q 2538 2584 2113 2584 
z
M 3366 4563 
L 3366 3988 
Q 3128 4100 2886 4159 
Q 2644 4219 2406 4219 
Q 1781 4219 1451 3797 
Q 1122 3375 1075 2522 
Q 1259 2794 1537 2939 
Q 1816 3084 2150 3084 
Q 2853 3084 3261 2657 
Q 3669 2231 3669 1497 
Q 3669 778 3244 343 
Q 2819 -91 2113 -91 
Q 1303 -91 875 529 
Q 447 1150 447 2328 
Q 447 3434 972 4092 
Q 1497 4750 2381 4750 
Q 2619 4750 2861 4703 
Q 3103 4656 3366 4563 
z
" transform="scale(0.015625)"/>
      <path id="DejaVuSans-30" d="M 2034 4250 
Q 1547 4250 1301 3770 
Q 1056 3291 1056 2328 
Q 1056 1369 1301 889 
Q 1547 409 2034 409 
Q 2525 409 2770 889 
Q 3016 1369 3016 2328 
Q 3016 3291 2770 3770 
Q 2525 4250 2034 4250 
z
M 2034 4750 
Q 2819 4750 3233 4129 
Q 3647 3509 3647 2328 
Q 3647 1150 3233 529 
Q 2819 -91 2034 -91 
Q 1250 -91 836 529 
Q 422 1150 422 2328 
Q 422 3509 836 4129 
Q 1250 4750 2034 4750 
z
" transform="scale(0.015625)"/>
      <path id="DejaVuSans-32" d="M 1228 531 
L 3431 531 
L 3431 0 
L 469 0 
L 469 531 
Q 828 903 1448 1529 
Q 2069 2156 2228 2338 
Q 2531 2678 2651 2914 
Q 2772 3150 2772 3378 
Q 2772 3750 2511 3984 
Q 2250 4219 1831 4219 
Q 1534 4219 1204 4116 
Q 875 4013 500 3803 
L 500 4441 
Q 881 4594 1212 4672 
Q 1544 4750 1819 4750 
Q 2544 4750 2975 4387 
Q 3406 4025 3406 3419 
Q 3406 3131 3298 2873 
Q 3191 2616 2906 2266 
Q 2828 2175 2409 1742 
Q 1991 1309 1228 531 
z
" transform="scale(0.015625)"/>
     </defs>
     <use xlink:href="#DejaVuSans-33"/>
     <use xlink:href="#DejaVuSans-36" transform="translate(63.623047 0)"/>
     <use xlink:href="#DejaVuSans-30" transform="translate(127.246094 0)"/>
     <use xlink:href="#DejaVuSans-32" transform="translate(190.869141 0)"/>
    </g>
   </g>
   <g id="text_2">
    <!-- 5502 -->
    <g transform="translate(159.266377 274.116335) scale(0.2 -0.2)">
     <defs>
      <path id="DejaVuSans-35" d="M 691 4666 
L 3169 4666 
L 3169 4134 
L 1269 4134 
L 1269 2991 
Q 1406 3038 1543 3061 
Q 1681 3084 1819 3084 
Q 2600 3084 3056 2656 
Q 3513 2228 3513 1497 
Q 3513 744 3044 326 
Q 2575 -91 1722 -91 
Q 1428 -91 1123 -41 
Q 819 9 494 109 
L 494 744 
Q 775 591 1075 516 
Q 1375 441 1709 441 
Q 2250 441 2565 725 
Q 2881 1009 2881 1497 
Q 2881 1984 2565 2268 
Q 2250 2553 1709 2553 
Q 1456 2553 1204 2497 
Q 953 2441 691 2322 
L 691 4666 
z
" transform="scale(0.015625)"/>
     </defs>
     <use xlink:href="#DejaVuSans-35"/>
     <use xlink:href="#DejaVuSans-35" transform="translate(63.623047 0)"/>
     <use xlink:href="#DejaVuSans-30" transform="translate(127.246094 0)"/>
     <use xlink:href="#DejaVuSans-32" transform="translate(190.869141 0)"/>
    </g>
   </g>
   <g id="text_3">
    <!-- 4800 -->
    <g transform="translate(335.662649 142.8116) scale(0.2 -0.2)">
     <defs>
      <path id="DejaVuSans-34" d="M 2419 4116 
L 825 1625 
L 2419 1625 
L 2419 4116 
z
M 2253 4666 
L 3047 4666 
L 3047 1625 
L 3713 1625 
L 3713 1100 
L 3047 1100 
L 3047 0 
L 2419 0 
L 2419 1100 
L 313 1100 
L 313 1709 
L 2253 4666 
z
" transform="scale(0.015625)"/>
      <path id="DejaVuSans-38" d="M 2034 2216 
Q 1584 2216 1326 1975 
Q 1069 1734 1069 1313 
Q 1069 891 1326 650 
Q 1584 409 2034 409 
Q 2484 409 2743 651 
Q 3003 894 3003 1313 
Q 3003 1734 2745 1975 
Q 2488 2216 2034 2216 
z
M 1403 2484 
Q 997 2584 770 2862 
Q 544 3141 544 3541 
Q 544 4100 942 4425 
Q 1341 4750 2034 4750 
Q 2731 4750 3128 4425 
Q 3525 4100 3525 3541 
Q 3525 3141 3298 2862 
Q 3072 2584 2669 2484 
Q 3125 2378 3379 2068 
Q 3634 1759 3634 1313 
Q 3634 634 3220 271 
Q 2806 -91 2034 -91 
Q 1263 -91 848 271 
Q 434 634 434 1313 
Q 434 1759 690 2068 
Q 947 2378 1403 2484 
z
M 1172 3481 
Q 1172 3119 1398 2916 
Q 1625 2713 2034 2713 
Q 2441 2713 2670 2916 
Q 2900 3119 2900 3481 
Q 2900 3844 2670 4047 
Q 2441 4250 2034 4250 
Q 1625 4250 1398 4047 
Q 1172 3844 1172 3481 
z
" transform="scale(0.015625)"/>
     </defs>
     <use xlink:href="#DejaVuSans-34"/>
     <use xlink:href="#DejaVuSans-38" transform="translate(63.623047 0)"/>
     <use xlink:href="#DejaVuSans-30" transform="translate(127.246094 0)"/>
     <use xlink:href="#DejaVuSans-30" transform="translate(190.869141 0)"/>
    </g>
   </g>
   <g id="text_4">
    <!-- 3200 -->
    <g transform="translate(331.96162 288.09169) scale(0.2 -0.2)">
     <use xlink:href="#DejaVuSans-33"/>
     <use xlink:href="#DejaVuSans-32" transform="translate(63.623047 0)"/>
     <use xlink:href="#DejaVuSans-30" transform="translate(127.246094 0)"/>
     <use xlink:href="#DejaVuSans-30" transform="translate(190.869141 0)"/>
    </g>
   </g>
   <g id="text_5">
    <!-- 4100 -->
    <g transform="translate(110.733318 396.241685) scale(0.2 -0.2)">
     <defs>
      <path id="DejaVuSans-31" d="M 794 531 
L 1825 531 
L 1825 4091 
L 703 3866 
L 703 4441 
L 1819 4666 
L 2450 4666 
L 2450 531 
L 3481 531 
L 3481 0 
L 794 0 
L 794 531 
z
" transform="scale(0.015625)"/>
     </defs>
     <use xlink:href="#DejaVuSans-34"/>
     <use xlink:href="#DejaVuSans-31" transform="translate(63.623047 0)"/>
     <use xlink:href="#DejaVuSans-30" transform="translate(127.246094 0)"/>
     <use xlink:href="#DejaVuSans-30" transform="translate(190.869141 0)"/>
    </g>
   </g>
   <g id="text_6">
    <!-- 6300 -->
    <g transform="translate(108.904287 134.087747) scale(0.2 -0.2)">
     <use xlink:href="#DejaVuSans-36"/>
     <use xlink:href="#DejaVuSans-33" transform="translate(63.623047 0)"/>
     <use xlink:href="#DejaVuSans-30" transform="translate(127.246094 0)"/>
     <use xlink:href="#DejaVuSans-30" transform="translate(190.869141 0)"/>
    </g>
   </g>
   <g id="text_7">
    <!-- 5900 -->
    <g transform="translate(156.204021 191.630798) scale(0.2 -0.2)">
     <defs>
      <path id="DejaVuSans-39" d="M 703 97 
L 703 672 
Q 941 559 1184 500 
Q 1428 441 1663 441 
Q 2288 441 2617 861 
Q 2947 1281 2994 2138 
Q 2813 1869 2534 1725 
Q 2256 1581 1919 1581 
Q 1219 1581 811 2004 
Q 403 2428 403 3163 
Q 403 3881 828 4315 
Q 1253 4750 1959 4750 
Q 2769 4750 3195 4129 
Q 3622 3509 3622 2328 
Q 3622 1225 3098 567 
Q 2575 -91 1691 -91 
Q 1453 -91 1209 -44 
Q 966 3 703 97 
z
M 1959 2075 
Q 2384 2075 2632 2365 
Q 2881 2656 2881 3163 
Q 2881 3666 2632 3958 
Q 2384 4250 1959 4250 
Q 1534 4250 1286 3958 
Q 1038 3666 1038 3163 
Q 1038 2656 1286 2365 
Q 1534 2075 1959 2075 
z
" transform="scale(0.015625)"/>
     </defs>
     <use xlink:href="#DejaVuSans-35"/>
     <use xlink:href="#DejaVuSans-39" transform="translate(63.623047 0)"/>
     <use xlink:href="#DejaVuSans-30" transform="translate(127.246094 0)"/>
     <use xlink:href="#DejaVuSans-30" transform="translate(190.869141 0)"/>
    </g>
   </g>
   <g id="text_8">
    <!-- 3002 -->
    <g transform="translate(291.387337 328.298769) scale(0.2 -0.2)">
     <use xlink:href="#DejaVuSans-33"/>
     <use xlink:href="#DejaVuSans-30" transform="translate(63.623047 0)"/>
     <use xlink:href="#DejaVuSans-30" transform="translate(127.246094 0)"/>
     <use xlink:href="#DejaVuSans-32" transform="translate(190.869141 0)"/>
    </g>
   </g>
   <g id="text_9">
    <!-- 3400 -->
    <g transform="translate(377.674632 225.572174) scale(0.2 -0.2)">
     <use xlink:href="#DejaVuSans-33"/>
     <use xlink:href="#DejaVuSans-34" transform="translate(63.623047 0)"/>
     <use xlink:href="#DejaVuSans-30" transform="translate(127.246094 0)"/>
     <use xlink:href="#DejaVuSans-30" transform="translate(190.869141 0)"/>
    </g>
   </g>
   <g id="text_10">
    <!-- 5000 -->
    <g transform="translate(275.57014 103.515583) scale(0.2 -0.2)">
     <use xlink:href="#DejaVuSans-35"/>
     <use xlink:href="#DejaVuSans-30" transform="translate(63.623047 0)"/>
     <use xlink:href="#DejaVuSans-30" transform="translate(127.246094 0)"/>
     <use xlink:href="#DejaVuSans-30" transform="translate(190.869141 0)"/>
    </g>
   </g>
   <g id="text_11">
    <!-- 1800 -->
    <g transform="translate(212.675665 400.160973) scale(0.2 -0.2)">
     <use xlink:href="#DejaVuSans-31"/>
     <use xlink:href="#DejaVuSans-38" transform="translate(63.623047 0)"/>
     <use xlink:href="#DejaVuSans-30" transform="translate(127.246094 0)"/>
     <use xlink:href="#DejaVuSans-30" transform="translate(190.869141 0)"/>
    </g>
   </g>
   <g id="text_12">
    <!-- 4000 -->
    <g transform="translate(299.109169 192.189469) scale(0.2 -0.2)">
     <use xlink:href="#DejaVuSans-34"/>
     <use xlink:href="#DejaVuSans-30" transform="translate(63.623047 0)"/>
     <use xlink:href="#DejaVuSans-30" transform="translate(127.246094 0)"/>
     <use xlink:href="#DejaVuSans-30" transform="translate(190.869141 0)"/>
    </g>
   </g>
   <g id="text_13">
    <!-- 2201 -->
    <g transform="translate(365.508223 399.628087) scale(0.2 -0.2)">
     <use xlink:href="#DejaVuSans-32"/>
     <use xlink:href="#DejaVuSans-32" transform="translate(63.623047 0)"/>
     <use xlink:href="#DejaVuSans-30" transform="translate(127.246094 0)"/>
     <use xlink:href="#DejaVuSans-31" transform="translate(190.869141 0)"/>
    </g>
   </g>
   <g id="text_14">
    <!-- 2202 -->
    <g transform="translate(371.336281 358.501351) scale(0.2 -0.2)">
     <use xlink:href="#DejaVuSans-32"/>
     <use xlink:href="#DejaVuSans-32" transform="translate(63.623047 0)"/>
     <use xlink:href="#DejaVuSans-30" transform="translate(127.246094 0)"/>
     <use xlink:href="#DejaVuSans-32" transform="translate(190.869141 0)"/>
    </g>
   </g>
   <g id="text_15">
    <!-- 2601 -->
    <g transform="translate(400.410653 337.246091) scale(0.2 -0.2)">
     <use xlink:href="#DejaVuSans-32"/>
     <use xlink:href="#DejaVuSans-36" transform="translate(63.623047 0)"/>
     <use xlink:href="#DejaVuSans-30" transform="translate(127.246094 0)"/>
     <use xlink:href="#DejaVuSans-31" transform="translate(190.869141 0)"/>
    </g>
   </g>
   <g id="text_16">
    <!-- 2602 -->
    <g transform="translate(422.958549 306.235586) scale(0.2 -0.2)">
     <use xlink:href="#DejaVuSans-32"/>
     <use xlink:href="#DejaVuSans-36" transform="translate(63.623047 0)"/>
     <use xlink:href="#DejaVuSans-30" transform="translate(127.246094 0)"/>
     <use xlink:href="#DejaVuSans-32" transform="translate(190.869141 0)"/>
    </g>
   </g>
   <g id="text_17">
    <!-- 2800 -->
    <g transform="translate(453.290503 264.627533) scale(0.2 -0.2)">
     <use xlink:href="#DejaVuSans-32"/>
     <use xlink:href="#DejaVuSans-38" transform="translate(63.623047 0)"/>
     <use xlink:href="#DejaVuSans-30" transform="translate(127.246094 0)"/>
     <use xlink:href="#DejaVuSans-30" transform="translate(190.869141 0)"/>
    </g>
   </g>
   <g id="text_18">
    <!-- 3001 -->
    <g transform="translate(281.675973 364.431852) scale(0.2 -0.2)">
     <use xlink:href="#DejaVuSans-33"/>
     <use xlink:href="#DejaVuSans-30" transform="translate(63.623047 0)"/>
     <use xlink:href="#DejaVuSans-30" transform="translate(127.246094 0)"/>
     <use xlink:href="#DejaVuSans-31" transform="translate(190.869141 0)"/>
    </g>
   </g>
   <g id="text_19">
    <!-- 3601 -->
    <g transform="translate(206.182557 347.035715) scale(0.2 -0.2)">
     <use xlink:href="#DejaVuSans-33"/>
     <use xlink:href="#DejaVuSans-36" transform="translate(63.623047 0)"/>
     <use xlink:href="#DejaVuSans-30" transform="translate(127.246094 0)"/>
     <use xlink:href="#DejaVuSans-31" transform="translate(190.869141 0)"/>
    </g>
   </g>
   <g id="text_20">
    <!-- 3800 -->
    <g transform="translate(253.380952 255.766161) scale(0.2 -0.2)">
     <use xlink:href="#DejaVuSans-33"/>
     <use xlink:href="#DejaVuSans-38" transform="translate(63.623047 0)"/>
     <use xlink:href="#DejaVuSans-30" transform="translate(127.246094 0)"/>
     <use xlink:href="#DejaVuSans-30" transform="translate(190.869141 0)"/>
    </g>
   </g>
   <g id="text_21">
    <!-- 4200 -->
    <g transform="translate(233.465354 192.507481) scale(0.2 -0.2)">
     <use xlink:href="#DejaVuSans-34"/>
     <use xlink:href="#DejaVuSans-32" transform="translate(63.623047 0)"/>
     <use xlink:href="#DejaVuSans-30" transform="translate(127.246094 0)"/>
     <use xlink:href="#DejaVuSans-30" transform="translate(190.869141 0)"/>
    </g>
   </g>
   <g id="text_22">
    <!-- 4300 -->
    <g transform="translate(131.255695 320.477383) scale(0.2 -0.2)">
     <use xlink:href="#DejaVuSans-34"/>
     <use xlink:href="#DejaVuSans-33" transform="translate(63.623047 0)"/>
     <use xlink:href="#DejaVuSans-30" transform="translate(127.246094 0)"/>
     <use xlink:href="#DejaVuSans-30" transform="translate(190.869141 0)"/>
    </g>
   </g>
   <g id="text_23">
    <!-- 6100 -->
    <g transform="translate(183.264567 145.415863) scale(0.2 -0.2)">
     <use xlink:href="#DejaVuSans-36"/>
     <use xlink:href="#DejaVuSans-31" transform="translate(63.623047 0)"/>
     <use xlink:href="#DejaVuSans-30" transform="translate(127.246094 0)"/>
     <use xlink:href="#DejaVuSans-30" transform="translate(190.869141 0)"/>
    </g>
   </g>
   <g id="text_24">
    <!-- 4500 -->
    <g transform="translate(63.364913 375.020805) scale(0.2 -0.2)">
     <use xlink:href="#DejaVuSans-34"/>
     <use xlink:href="#DejaVuSans-35" transform="translate(63.623047 0)"/>
     <use xlink:href="#DejaVuSans-30" transform="translate(127.246094 0)"/>
     <use xlink:href="#DejaVuSans-30" transform="translate(190.869141 0)"/>
    </g>
   </g>
   <g id="text_25">
    <!-- 5501 -->
    <g transform="translate(103.217414 252.491493) scale(0.2 -0.2)">
     <use xlink:href="#DejaVuSans-35"/>
     <use xlink:href="#DejaVuSans-35" transform="translate(63.623047 0)"/>
     <use xlink:href="#DejaVuSans-30" transform="translate(127.246094 0)"/>
     <use xlink:href="#DejaVuSans-31" transform="translate(190.869141 0)"/>
    </g>
   </g>
   <g id="text_26">
    <!-- 5700 -->
    <g transform="translate(182.49635 217.106169) scale(0.2 -0.2)">
     <defs>
      <path id="DejaVuSans-37" d="M 525 4666 
L 3525 4666 
L 3525 4397 
L 1831 0 
L 1172 0 
L 2766 4134 
L 525 4134 
L 525 4666 
z
" transform="scale(0.015625)"/>
     </defs>
     <use xlink:href="#DejaVuSans-35"/>
     <use xlink:href="#DejaVuSans-37" transform="translate(63.623047 0)"/>
     <use xlink:href="#DejaVuSans-30" transform="translate(127.246094 0)"/>
     <use xlink:href="#DejaVuSans-30" transform="translate(190.869141 0)"/>
    </g>
   </g>
   <g id="text_27">
    <!-- 6400 -->
    <g transform="translate(373.238908 91.568631) scale(0.2 -0.2)">
     <use xlink:href="#DejaVuSans-36"/>
     <use xlink:href="#DejaVuSans-34" transform="translate(63.623047 0)"/>
     <use xlink:href="#DejaVuSans-30" transform="translate(127.246094 0)"/>
     <use xlink:href="#DejaVuSans-30" transform="translate(190.869141 0)"/>
    </g>
   </g>
   <g id="text_28">
    <!-- 6500 -->
    <g transform="translate(59.531196 212.03516) scale(0.2 -0.2)">
     <use xlink:href="#DejaVuSans-36"/>
     <use xlink:href="#DejaVuSans-35" transform="translate(63.623047 0)"/>
     <use xlink:href="#DejaVuSans-30" transform="translate(127.246094 0)"/>
     <use xlink:href="#DejaVuSans-30" transform="translate(190.869141 0)"/>
    </g>
   </g>
   <g id="text_29">
    <!-- 7100 -->
    <g transform="translate(55.538567 119.364633) scale(0.2 -0.2)">
     <use xlink:href="#DejaVuSans-37"/>
     <use xlink:href="#DejaVuSans-31" transform="translate(63.623047 0)"/>
     <use xlink:href="#DejaVuSans-30" transform="translate(127.246094 0)"/>
     <use xlink:href="#DejaVuSans-30" transform="translate(190.869141 0)"/>
    </g>
   </g>
   <g id="text_30">
    <!-- 5200 -->
    <g transform="translate(220.318883 80.317869) scale(0.2 -0.2)">
     <use xlink:href="#DejaVuSans-35"/>
     <use xlink:href="#DejaVuSans-32" transform="translate(63.623047 0)"/>
     <use xlink:href="#DejaVuSans-30" transform="translate(127.246094 0)"/>
     <use xlink:href="#DejaVuSans-30" transform="translate(190.869141 0)"/>
    </g>
   </g>
  </g>
 </g>
 <defs>
  <clipPath id="p7526320721">
   <rect x="7.2" y="7.2" width="558" height="454.379532"/>
  </clipPath>
 </defs>
</svg>
