<?xml version="1.0" encoding="utf-8" standalone="no"?>
<!DOCTYPE svg PUBLIC "-//W3C//DTD SVG 1.1//EN"
  "http://www.w3.org/Graphics/SVG/1.1/DTD/svg11.dtd">
<svg xmlns:xlink="http://www.w3.org/1999/xlink" width="572.4pt" height="773.416514pt" viewBox="0 0 572.4 773.416514" xmlns="http://www.w3.org/2000/svg" version="1.1">
 <metadata>
  <rdf:RDF xmlns:dc="http://purl.org/dc/elements/1.1/" xmlns:cc="http://creativecommons.org/ns#" xmlns:rdf="http://www.w3.org/1999/02/22-rdf-syntax-ns#">
   <cc:Work>
    <dc:type rdf:resource="http://purl.org/dc/dcmitype/StillImage"/>
    <dc:date>2025-06-18T01:58:07.657516</dc:date>
    <dc:format>image/svg+xml</dc:format>
    <dc:creator>
     <cc:Agent>
      <dc:title>Matplotlib v3.10.0, https://matplotlib.org/</dc:title>
     </cc:Agent>
    </dc:creator>
   </cc:Work>
  </rdf:RDF>
 </metadata>
 <defs>
  <style type="text/css">*{stroke-linejoin: round; stroke-linecap: butt}</style>
 </defs>
 <g id="figure_1">
  <g id="patch_1">
   <path d="M 0 773.416514 
L 572.4 773.416514 
L 572.4 0 
L 0 0 
L 0 773.416514 
z
" style="fill: none"/>
  </g>
  <g id="axes_1">
   <g id="patch_2">
    <path d="M 7.2 766.216514 
L 565.2 766.216514 
L 565.2 7.2 
L 7.2 7.2 
L 7.2 766.216514 
z
" style="fill: none"/>
   </g>
   <g id="PatchCollection_1">
    <defs>
     <path id="m6be64537aa" d="M 314.988413 -706.632553 
L 320.113646 -710.594316 
L 325.244845 -714.562045 
L 330.686303 -711.34013 
L 330.859331 -711.238699 
L 331.467916 -710.874742 
L 338.568063 -706.680285 
L 346.324527 -702.098005 
L 351.455726 -706.059768 
L 356.580958 -710.027497 
L 364.349355 -705.439251 
L 372.105819 -700.851004 
L 379.862283 -696.262757 
L 374.731084 -692.295028 
L 369.414923 -688.184102 
L 367.052185 -686.292718 
L 366.71806 -686.036158 
L 364.468685 -684.359569 
L 356.712222 -688.953782 
L 355.578585 -688.643523 
L 354.224187 -690.349945 
L 354.051158 -690.499108 
L 353.925861 -690.612472 
L 351.545224 -692.014602 
L 348.955758 -693.542029 
L 345.662244 -690.976429 
L 345.07156 -690.505075 
L 344.838866 -690.320113 
L 343.872291 -689.5564 
L 343.573965 -689.329672 
L 339.83893 -686.507513 
L 324.713826 -695.40358 
L 326.133855 -696.495451 
L 318.771181 -700.487047 
L 311.885828 -704.251915 
L 314.988413 -706.632553 
" style="stroke: #000000"/>
    </defs>
    <g clip-path="url(#p4c0138af05)">
     <use xlink:href="#m6be64537aa" x="0" y="773.416514" style="fill: #1f77b4; stroke: #000000"/>
    </g>
   </g>
   <g id="PatchCollection_2">
    <defs>
     <path id="m789efd7643" d="M 32.808263 -372.979316 
L 32.81423 -373.289575 
L 33.488445 -373.283608 
L 41.256842 -373.206043 
L 46.006185 -373.140412 
L 49.592057 -373.695297 
L 49.794919 -384.423083 
L 50.063412 -395.216501 
L 58.124168 -395.150869 
L 66.220722 -395.079271 
L 66.316187 -405.878655 
L 74.126349 -405.824957 
L 82.199038 -405.813024 
L 90.26576 -405.801091 
L 94.651145 -405.801091 
L 97.664233 -405.789158 
L 98.344415 -405.568397 
L 99.131995 -405.365535 
L 102.276346 -405.353602 
L 106.220209 -405.371502 
L 114.096003 -405.365535 
L 121.977764 -405.365535 
L 130.098184 -405.365535 
L 132.884545 -405.359569 
L 138.218605 -405.359569 
L 143.033579 -405.359569 
L 146.100366 -407.692474 
L 152.466632 -412.549214 
L 153.988093 -412.543248 
L 161.505896 -412.543248 
L 161.487996 -410.055213 
L 161.458164 -405.287971 
L 161.428331 -400.359633 
L 161.3448 -394.578084 
L 161.249336 -383.903997 
L 161.22547 -380.20476 
L 161.201604 -377.507898 
L 161.165805 -372.901751 
L 161.076307 -361.977071 
L 160.98681 -351.112055 
L 160.801848 -340.253006 
L 152.800757 -340.366369 
L 144.769834 -340.479733 
L 140.891602 -340.533432 
L 136.786643 -340.593097 
L 134.477603 -340.622929 
L 133.540861 -340.634862 
L 132.353525 -340.652762 
L 128.916815 -340.700494 
L 120.999256 -340.825791 
L 113.248759 -340.927221 
L 105.492295 -341.028652 
L 97.39574 -341.136049 
L 96.775223 -341.147982 
L 87.938821 -341.273279 
L 80.176391 -341.37471 
L 72.545224 -341.47614 
L 64.741028 -341.577571 
L 57.02633 -341.625303 
L 48.995406 -341.714801 
L 49.192301 -352.251658 
L 49.222134 -354.005813 
L 49.329531 -359.662065 
L 49.38323 -362.346994 
L 41.018182 -362.412626 
L 32.563636 -362.484224 
L 32.808263 -372.979316 
" style="stroke: #000000"/>
    </defs>
    <g clip-path="url(#p4c0138af05)">
     <use xlink:href="#m789efd7643" x="0" y="773.416514" style="fill: #1f77b4; stroke: #000000"/>
    </g>
   </g>
   <g id="PatchCollection_3">
    <defs>
     <path id="m6189f6672b" d="M 286.945814 -133.937037 
L 293.687971 -133.901238 
L 297.464772 -133.877372 
L 300.418195 -133.823674 
L 307.166318 -133.69241 
L 307.422878 -133.69241 
L 313.866709 -133.650645 
L 322.273523 -133.602913 
L 329.606364 -133.561147 
L 329.874857 -133.561147 
L 337.470225 -133.513415 
L 345.065593 -133.471649 
L 349.761237 -133.45375 
L 352.672894 -133.423917 
L 354.331584 -133.417951 
L 360.268262 -133.382152 
L 367.833797 -133.346353 
L 368.866004 -133.31652 
L 372.964996 -132.982396 
L 374.766883 -133.101726 
L 376.640367 -133.322487 
L 377.958966 -135.166138 
L 380.769192 -140.893989 
L 382.577045 -143.966742 
L 383.137897 -144.736421 
L 383.704715 -145.297273 
L 387.201091 -147.922538 
L 399.498069 -156.979701 
L 401.87274 -155.488073 
L 402.284429 -155.094284 
L 402.52309 -154.658728 
L 402.529056 -154.515532 
L 402.564855 -153.906948 
L 402.278463 -153.334163 
L 400.148419 -151.072856 
L 403.215205 -149.742324 
L 407.326131 -147.958337 
L 408.692462 -147.654045 
L 409.706768 -147.665978 
L 410.906037 -147.809174 
L 411.914377 -148.071701 
L 414.038455 -148.519189 
L 411.090999 -154.449901 
L 425.744749 -155.094284 
L 429.485751 -149.324668 
L 430.601488 -147.391519 
L 431.401001 -145.750728 
L 432.122949 -143.996574 
L 432.7017 -142.367717 
L 434.348457 -136.598101 
L 435.410496 -133.030128 
L 436.01908 -131.234208 
L 436.973722 -128.955001 
L 437.7971 -127.379842 
L 443.703946 -117.15921 
L 445.666928 -113.764265 
L 445.881722 -113.346609 
L 445.929454 -113.251145 
L 447.254019 -110.64378 
L 447.546378 -110.065029 
L 448.429422 -108.328774 
L 449.282633 -106.652185 
L 450.786194 -104.116418 
L 451.764701 -102.457728 
L 457.277757 -91.873138 
L 461.329018 -84.092808 
L 462.40299 -82.028395 
L 463.781254 -79.04514 
L 464.371938 -77.76234 
L 465.624905 -74.629922 
L 466.19769 -73.06073 
L 466.72871 -71.139514 
L 466.836107 -70.560762 
L 467.158299 -68.85434 
L 467.492423 -66.533368 
L 467.569988 -64.588285 
L 467.385026 -55.304395 
L 467.516289 -46.432193 
L 464.383871 -46.43816 
L 463.834952 -46.43816 
L 462.152396 -46.139834 
L 460.660769 -45.489485 
L 459.455533 -44.66014 
L 458.339796 -43.478771 
L 458.047437 -41.700751 
L 456.937666 -41.843947 
L 455.815962 -42.464464 
L 450.082145 -46.599256 
L 449.39003 -47.20784 
L 448.805312 -48.717367 
L 438.077526 -48.824764 
L 430.565689 -48.908295 
L 423.191082 -48.979894 
L 415.303355 -49.057458 
L 415.327221 -61.294771 
L 415.321255 -63.078758 
L 415.339154 -64.427189 
L 415.351087 -64.826946 
L 415.440585 -70.608494 
L 415.440585 -75.62633 
L 415.458485 -81.288548 
L 415.482351 -92.17743 
L 413.519369 -102.785886 
L 404.408507 -102.666555 
L 396.425316 -102.559158 
L 388.448091 -102.451761 
L 380.470867 -102.344364 
L 380.100943 -102.344364 
L 372.183384 -102.236967 
L 363.8959 -102.123603 
L 359.856573 -102.069904 
L 355.75758 -102.016206 
L 347.326901 -101.902842 
L 339.474973 -101.777545 
L 338.866389 -101.813344 
L 331.849772 -101.676115 
L 324.087342 -101.532918 
L 316.080285 -101.467287 
L 309.439559 -101.353923 
L 301.987387 -101.228626 
L 294.648579 -101.097363 
L 291.152204 -101.037698 
L 287.285905 -101.031732 
L 287.172541 -111.998178 
L 287.053211 -122.898993 
L 286.945814 -133.937037 
" style="stroke: #000000"/>
    </defs>
    <g clip-path="url(#p4c0138af05)">
     <use xlink:href="#m6189f6672b" x="0" y="773.416514" style="fill: #aec7e8; stroke: #000000"/>
    </g>
   </g>
   <g id="PatchCollection_4">
    <defs>
     <path id="mc6ab1c7e8c" d="M 441.311375 -717.056047 
L 441.908026 -718.553641 
L 442.045256 -718.887765 
L 443.053596 -721.435465 
L 443.978405 -723.905601 
L 445.798191 -724.675281 
L 447.516546 -725.307731 
L 449.742054 -726.125143 
L 456.227651 -728.839905 
L 456.26345 -724.382922 
L 459.85529 -724.359056 
L 463.685789 -724.382922 
L 469.986425 -724.418721 
L 476.251261 -724.394855 
L 476.245294 -724.69318 
L 483.942093 -724.69318 
L 483.822763 -731.668031 
L 491.770155 -731.715763 
L 491.889485 -724.734946 
L 491.996882 -717.783961 
L 492.104279 -710.862809 
L 492.20571 -704.239982 
L 492.223609 -694.061115 
L 492.223609 -693.518163 
L 492.235542 -689.001514 
L 492.235542 -687.64115 
L 492.241509 -684.019478 
L 492.247475 -682.020697 
L 488.792866 -680.708064 
L 480.505383 -676.847732 
L 476.615218 -681.107821 
L 472.910015 -685.159081 
L 472.725053 -685.367909 
L 472.552024 -685.552871 
L 468.828922 -689.622031 
L 464.93279 -693.88212 
L 461.042625 -698.136242 
L 455.684699 -704.198216 
L 454.903086 -704.8247 
L 454.747957 -704.955963 
L 450.195509 -709.991698 
L 449.497427 -710.755412 
L 444.783884 -715.90451 
L 441.526169 -714.544146 
L 440.118073 -713.953461 
L 441.311375 -717.056047 
" style="stroke: #000000"/>
    </defs>
    <g clip-path="url(#p4c0138af05)">
     <use xlink:href="#mc6ab1c7e8c" x="0" y="773.416514" style="fill: #ff7f0e; stroke: #000000"/>
    </g>
   </g>
   <g id="PatchCollection_5">
    <defs>
     <path id="m43bec54f29" d="M 393.179534 -702.539527 
L 394.098377 -702.915417 
L 399.611433 -705.21849 
L 406.234259 -707.998884 
L 412.869019 -710.749445 
L 419.491846 -713.517906 
L 422.224508 -710.540617 
L 423.29848 -709.359248 
L 423.453609 -709.204119 
L 423.841432 -708.750664 
L 424.56338 -707.980984 
L 424.915404 -707.593161 
L 427.033515 -705.242356 
L 429.157593 -702.897517 
L 429.742311 -702.282967 
L 430.332995 -701.674382 
L 433.614576 -703.082479 
L 434.270892 -703.368871 
L 434.933175 -703.649297 
L 436.114544 -704.162417 
L 437.612138 -704.800834 
L 437.486842 -704.043087 
L 438.351986 -702.915417 
L 442.367447 -698.518098 
L 447.785039 -692.593353 
L 441.788696 -690.081452 
L 441.687265 -689.974055 
L 441.6276 -689.848759 
L 441.550035 -689.502701 
L 441.645499 -689.305806 
L 445.058343 -685.564804 
L 448.948508 -681.310682 
L 452.838673 -677.050593 
L 456.734805 -672.796471 
L 450.111978 -670.022044 
L 443.656214 -667.372913 
L 443.041663 -667.838301 
L 442.51661 -668.178392 
L 439.587053 -671.507705 
L 438.799474 -671.179547 
L 438.226689 -670.940887 
L 437.647937 -670.69626 
L 436.776827 -670.332303 
L 436.418836 -670.18314 
L 435.595458 -669.837082 
L 434.63485 -669.437326 
L 433.668275 -669.031603 
L 432.982126 -668.745211 
L 436.860358 -664.479156 
L 430.255431 -661.716661 
L 426.365266 -665.97675 
L 422.469135 -670.236838 
L 418.573003 -674.49096 
L 414.676872 -678.745082 
L 409.25928 -684.669827 
L 406.395355 -687.790312 
L 403.835722 -690.588606 
L 398.680657 -696.226958 
L 398.406197 -696.519317 
L 398.143671 -696.817643 
L 397.075666 -697.981112 
L 395.047052 -700.194688 
L 393.537525 -701.859344 
L 393.179534 -702.539527 
" style="stroke: #000000"/>
    </defs>
    <g clip-path="url(#p4c0138af05)">
     <use xlink:href="#m43bec54f29" x="0" y="773.416514" style="fill: #ffbb78; stroke: #000000"/>
    </g>
   </g>
   <g id="PatchCollection_6">
    <defs>
     <path id="m11a896cf7b" d="M 420.85221 -714.096657 
L 426.287701 -716.423597 
L 428.572875 -717.318573 
L 432.737499 -719.060794 
L 439.264862 -721.90682 
L 439.563187 -722.032117 
L 440.816154 -722.563136 
L 441.621633 -722.903227 
L 442.856701 -723.42828 
L 443.978405 -723.905601 
L 443.053596 -721.435465 
L 442.045256 -718.887765 
L 441.908026 -718.553641 
L 441.311375 -717.056047 
L 440.118073 -713.953461 
L 441.526169 -714.544146 
L 444.783884 -715.90451 
L 449.497427 -710.755412 
L 450.195509 -709.991698 
L 454.747957 -704.955963 
L 454.903086 -704.8247 
L 455.684699 -704.198216 
L 461.042625 -698.136242 
L 464.93279 -693.88212 
L 468.828922 -689.622031 
L 472.552024 -685.552871 
L 472.725053 -685.367909 
L 472.910015 -685.159081 
L 476.615218 -681.107821 
L 469.986425 -678.33936 
L 463.357631 -675.564932 
L 456.734805 -672.796471 
L 452.838673 -677.050593 
L 448.948508 -681.310682 
L 445.058343 -685.564804 
L 441.645499 -689.305806 
L 441.550035 -689.502701 
L 441.6276 -689.848759 
L 441.687265 -689.974055 
L 441.788696 -690.081452 
L 447.785039 -692.593353 
L 442.367447 -698.518098 
L 438.351986 -702.915417 
L 437.486842 -704.043087 
L 437.612138 -704.800834 
L 436.114544 -704.162417 
L 434.933175 -703.649297 
L 434.270892 -703.368871 
L 433.614576 -703.082479 
L 430.332995 -701.674382 
L 429.742311 -702.282967 
L 429.157593 -702.897517 
L 427.033515 -705.242356 
L 424.915404 -707.593161 
L 424.56338 -707.980984 
L 423.841432 -708.750664 
L 423.453609 -709.204119 
L 423.29848 -709.359248 
L 422.224508 -710.540617 
L 419.491846 -713.517906 
L 420.85221 -714.096657 
" style="stroke: #000000"/>
    </defs>
    <g clip-path="url(#p4c0138af05)">
     <use xlink:href="#m11a896cf7b" x="0" y="773.416514" style="fill: #2ca02c; stroke: #000000"/>
    </g>
   </g>
   <g id="PatchCollection_7">
    <defs>
     <path id="m24e03b9567" d="M 430.255431 -661.716661 
L 436.860358 -664.479156 
L 432.982126 -668.745211 
L 433.668275 -669.031603 
L 434.63485 -669.437326 
L 435.595458 -669.837082 
L 436.418836 -670.18314 
L 436.776827 -670.332303 
L 437.647937 -670.69626 
L 438.226689 -670.940887 
L 438.799474 -671.179547 
L 439.587053 -671.507705 
L 442.51661 -668.178392 
L 443.041663 -667.838301 
L 443.656214 -667.372913 
L 450.111978 -670.022044 
L 456.734805 -672.796471 
L 463.357631 -675.564932 
L 469.986425 -678.33936 
L 476.615218 -681.107821 
L 480.505383 -676.847732 
L 488.792866 -680.708064 
L 492.247475 -682.020697 
L 492.235542 -675.206942 
L 492.271342 -669.950446 
L 492.283275 -665.392032 
L 492.289241 -663.948136 
L 492.289241 -658.190454 
L 492.295208 -657.915994 
L 492.313107 -653.912466 
L 492.319074 -652.361173 
L 492.331007 -648.232347 
L 492.331007 -647.892256 
L 492.336973 -646.48416 
L 492.34294 -643.840996 
L 492.348906 -642.946019 
L 492.360839 -637.027241 
L 487.360903 -637.033207 
L 482.158106 -637.04514 
L 472.170167 -637.06304 
L 471.44822 -637.06304 
L 469.825329 -637.06304 
L 467.892179 -637.069006 
L 466.680978 -637.069006 
L 466.07836 -637.069006 
L 465.153551 -637.069006 
L 458.781318 -637.080939 
L 451.078553 -637.122705 
L 450.816026 -638.602399 
L 450.111978 -639.777802 
L 449.724155 -640.440085 
L 445.839956 -644.68824 
L 441.943825 -648.942362 
L 438.041727 -653.208417 
L 435.923616 -655.51149 
L 435.040572 -656.489998 
L 434.151562 -657.462539 
L 430.255431 -661.716661 
" style="stroke: #000000"/>
    </defs>
    <g clip-path="url(#p4c0138af05)">
     <use xlink:href="#m24e03b9567" x="0" y="773.416514" style="fill: #98df8a; stroke: #000000"/>
    </g>
   </g>
   <g id="PatchCollection_8">
    <defs>
     <path id="m6fb6ffabc7" d="M 450.839892 -603.573016 
L 450.935356 -607.009726 
L 450.965189 -612.06336 
L 450.995021 -617.069263 
L 451.012921 -622.075165 
L 458.81115 -622.063232 
L 466.597447 -622.051299 
L 474.383743 -622.039366 
L 482.176006 -622.021467 
L 483.780997 -622.021467 
L 486.006505 -622.0155 
L 487.748727 -622.0334 
L 481.519689 -626.985603 
L 477.647424 -630.058356 
L 473.608096 -634.043985 
L 473.381369 -634.217014 
L 469.825329 -637.06304 
L 471.44822 -637.06304 
L 472.170167 -637.06304 
L 482.158106 -637.04514 
L 487.360903 -637.033207 
L 492.360839 -637.027241 
L 499.258125 -637.009341 
L 509.747251 -636.991442 
L 515.964355 -636.985475 
L 514.866517 -631.96764 
L 513.512119 -628.465298 
L 513.512119 -626.967704 
L 513.327157 -622.039366 
L 513.297325 -616.961866 
L 513.309258 -611.96193 
L 513.21976 -606.765099 
L 513.136229 -601.944159 
L 504.108898 -601.956092 
L 501.227074 -601.968025 
L 499.556451 -601.968025 
L 498.375082 -601.973991 
L 497.116148 -601.973991 
L 495.272496 -601.985924 
L 493.894232 -601.997857 
L 492.372772 -601.997857 
L 491.191403 -602.003824 
L 490.505254 -602.003824 
L 489.652043 -602.003824 
L 487.975454 -602.00979 
L 482.092474 -602.003824 
L 474.300212 -602.015757 
L 466.519882 -602.02769 
L 458.727619 -602.039623 
L 452.84464 -602.039623 
L 450.720562 -601.89046 
L 450.839892 -603.573016 
" style="stroke: #000000"/>
    </defs>
    <g clip-path="url(#p4c0138af05)">
     <use xlink:href="#m6fb6ffabc7" x="0" y="773.416514" style="fill: #d62728; stroke: #000000"/>
    </g>
   </g>
   <g id="PatchCollection_9">
    <defs>
     <path id="mcb0ffd32de" d="M 70.367447 -126.091076 
L 70.391313 -126.56243 
L 71.16696 -130.965715 
L 71.817309 -132.391711 
L 72.228999 -133.662578 
L 72.1574 -134.951344 
L 71.972439 -137.791403 
L 75.904369 -138.01813 
L 76.864977 -139.599256 
L 77.682389 -140.929788 
L 77.897184 -141.47274 
L 81.465157 -139.104035 
L 83.129813 -135.458497 
L 83.344608 -134.724617 
L 83.422172 -134.378559 
L 85.271791 -134.754449 
L 88.159582 -134.474023 
L 89.657176 -134.384526 
L 92.157144 -134.420325 
L 94.209623 -134.396459 
L 101.882556 -134.408392 
L 105.122371 -134.426291 
L 108.051928 -134.444191 
L 108.845474 -134.426291 
L 109.394393 -134.241329 
L 109.722551 -133.931071 
L 109.835915 -133.620812 
L 110.181972 -129.044499 
L 114.465927 -129.032566 
L 126.160287 -129.014666 
L 142.072971 -128.984834 
L 141.577751 -133.746109 
L 141.607583 -134.545621 
L 149.590774 -134.575454 
L 157.353205 -134.569487 
L 165.539257 -134.47999 
L 171.869725 -134.402425 
L 177.889934 -134.336793 
L 190.091448 -134.199564 
L 190.592635 -129.599384 
L 190.855161 -126.156708 
L 190.843228 -125.846449 
L 190.90886 -124.181793 
L 191.571143 -116.50886 
L 191.857535 -112.010111 
L 192.000731 -109.802502 
L 192.358722 -105.106858 
L 192.478052 -103.567499 
L 192.573516 -102.117636 
L 193.146301 -90.130917 
L 193.313364 -86.670341 
L 193.211933 -79.158504 
L 185.81346 -79.098839 
L 178.116661 -79.122705 
L 170.443729 -79.092872 
L 163.033323 -79.086906 
L 129.829691 -79.379265 
L 121.446744 -79.456829 
L 113.17716 -79.534394 
L 104.90161 -79.600026 
L 96.655893 -79.671624 
L 92.288407 -79.707423 
L 92.091512 -81.956797 
L 91.363598 -87.040264 
L 90.904177 -88.74072 
L 90.056932 -90.39941 
L 88.553371 -92.272894 
L 87.634529 -93.114172 
L 86.602322 -93.895785 
L 81.071367 -97.517457 
L 79.645371 -98.561596 
L 78.255174 -99.898095 
L 76.184795 -102.541259 
L 74.549971 -105.029294 
L 73.350703 -107.630692 
L 72.748085 -109.623507 
L 70.886534 -117.558966 
L 70.450978 -119.635311 
L 70.230217 -123.447912 
L 70.367447 -126.091076 
" style="stroke: #000000"/>
    </defs>
    <g clip-path="url(#p4c0138af05)">
     <use xlink:href="#mcb0ffd32de" x="0" y="773.416514" style="fill: #ff9896; stroke: #000000"/>
    </g>
   </g>
   <g id="PatchCollection_10">
    <defs>
     <path id="m53a2e2594d" d="M 287.065144 -144.760287 
L 287.184474 -155.720767 
L 287.303804 -166.681247 
L 287.435068 -177.635761 
L 287.4649 -183.089151 
L 287.494733 -188.435145 
L 287.524565 -193.995933 
L 287.554398 -199.001835 
L 287.608096 -209.681889 
L 287.661795 -220.367909 
L 287.733393 -231.185193 
L 294.403952 -231.215025 
L 300.895515 -233.714993 
L 301.289305 -233.870123 
L 302.876397 -234.448874 
L 304.391891 -234.771066 
L 306.074447 -234.854597 
L 307.762969 -234.669635 
L 312.548111 -233.524065 
L 313.538551 -233.386835 
L 314.552858 -233.34507 
L 322.088561 -233.404735 
L 335.244717 -233.553897 
L 335.11942 -235.451248 
L 334.695798 -237.766254 
L 334.707731 -237.998948 
L 335.125387 -247.378302 
L 339.266145 -261.530865 
L 340.167088 -263.01056 
L 340.793572 -264.048733 
L 342.696888 -265.808854 
L 346.115699 -267.270649 
L 355.154962 -269.991377 
L 358.335113 -270.510464 
L 364.414987 -270.993751 
L 365.602322 -270.253904 
L 367.135716 -269.275396 
L 368.63331 -268.302855 
L 372.786001 -265.969949 
L 375.053275 -264.699083 
L 379.796651 -262.043985 
L 388.442125 -257.121614 
L 391.980266 -255.039302 
L 395.190248 -253.147918 
L 394.850157 -240.958337 
L 395.894297 -237.461962 
L 396.276153 -236.751947 
L 396.771374 -236.077731 
L 397.230795 -235.630243 
L 397.773747 -235.22452 
L 398.400231 -234.84863 
L 399.020748 -234.604003 
L 400.058921 -234.323577 
L 400.786835 -234.222147 
L 402.391827 -234.210214 
L 403.352435 -234.329544 
L 404.002784 -234.47274 
L 405.745005 -235.129056 
L 409.068352 -235.528812 
L 409.128017 -234.425008 
L 408.960955 -224.013447 
L 408.853557 -221.352383 
L 408.740194 -218.595856 
L 408.692462 -214.950318 
L 408.907256 -211.984962 
L 409.074318 -210.147277 
L 409.51584 -207.551844 
L 410.005094 -205.529197 
L 410.649477 -203.345455 
L 412.511028 -198.297787 
L 413.334407 -195.541259 
L 414.044422 -192.790697 
L 414.163752 -192.319343 
L 414.778302 -189.312222 
L 413.459704 -188.673805 
L 412.129172 -187.772862 
L 410.810573 -186.758555 
L 409.939462 -185.726349 
L 409.366677 -184.831372 
L 408.90129 -183.972195 
L 408.602964 -182.969821 
L 408.358337 -181.931648 
L 408.25094 -176.156066 
L 408.322538 -168.900789 
L 408.25094 -165.464079 
L 408.203208 -163.411599 
L 408.692462 -160.416411 
L 409.372644 -158.292333 
L 409.712735 -157.218361 
L 411.090999 -154.449901 
L 414.038455 -148.519189 
L 411.914377 -148.071701 
L 410.906037 -147.809174 
L 409.706768 -147.665978 
L 408.692462 -147.654045 
L 407.326131 -147.958337 
L 403.215205 -149.742324 
L 400.148419 -151.072856 
L 402.278463 -153.334163 
L 402.564855 -153.906948 
L 402.529056 -154.515532 
L 402.52309 -154.658728 
L 402.284429 -155.094284 
L 401.87274 -155.488073 
L 399.498069 -156.979701 
L 387.201091 -147.922538 
L 383.704715 -145.297273 
L 383.137897 -144.736421 
L 382.577045 -143.966742 
L 380.769192 -140.893989 
L 377.958966 -135.166138 
L 376.640367 -133.322487 
L 374.766883 -133.101726 
L 372.964996 -132.982396 
L 368.866004 -133.31652 
L 367.833797 -133.346353 
L 360.268262 -133.382152 
L 354.331584 -133.417951 
L 352.672894 -133.423917 
L 349.761237 -133.45375 
L 345.065593 -133.471649 
L 337.470225 -133.513415 
L 329.874857 -133.561147 
L 329.606364 -133.561147 
L 322.273523 -133.602913 
L 313.866709 -133.650645 
L 307.422878 -133.69241 
L 307.166318 -133.69241 
L 300.418195 -133.823674 
L 297.464772 -133.877372 
L 293.687971 -133.901238 
L 286.945814 -133.937037 
L 287.065144 -144.760287 
" style="stroke: #000000"/>
    </defs>
    <g clip-path="url(#p4c0138af05)">
     <use xlink:href="#m53a2e2594d" x="0" y="773.416514" style="fill: #9467bd; stroke: #000000"/>
    </g>
   </g>
   <g id="PatchCollection_11">
    <defs>
     <path id="m599e3d77c2" d="M 126.697273 -195.427895 
L 126.715173 -199.747649 
L 126.762905 -204.144967 
L 126.786771 -208.542285 
L 126.810637 -212.939604 
L 126.84047 -217.336922 
L 126.876269 -221.740207 
L 126.918034 -226.053994 
L 126.965766 -230.373747 
L 127.001565 -234.687534 
L 127.049297 -239.007288 
L 127.07913 -243.219645 
L 143.051479 -242.831821 
L 148.439238 -242.700558 
L 148.481003 -249.902136 
L 148.504869 -253.601373 
L 148.546635 -260.952114 
L 148.564535 -264.388824 
L 159.202823 -264.233695 
L 167.174081 -264.197896 
L 175.145339 -264.162097 
L 183.164329 -264.120331 
L 187.615346 -264.150164 
L 191.308616 -264.090498 
L 191.332482 -253.207583 
L 191.356348 -242.318701 
L 191.296683 -231.811676 
L 191.517444 -231.435786 
L 199.506602 -231.405954 
L 207.453994 -231.376121 
L 207.430128 -220.851197 
L 207.239199 -220.481273 
L 207.08407 -220.07555 
L 207.119869 -209.735587 
L 207.078104 -198.972002 
L 199.035247 -198.977969 
L 190.998358 -198.977969 
L 190.962559 -188.190518 
L 190.932726 -177.403067 
L 190.723898 -166.597716 
L 190.51507 -155.798332 
L 182.406582 -155.834131 
L 174.298095 -155.86993 
L 166.195573 -155.905729 
L 158.087085 -155.941528 
L 150.097928 -155.995227 
L 142.10877 -156.054892 
L 142.419029 -166.788644 
L 142.711388 -177.53433 
L 142.723321 -181.854084 
L 142.735254 -186.173837 
L 127.437121 -186.370732 
L 126.983666 -187.170244 
L 126.750972 -187.933958 
L 126.673407 -191.108141 
L 126.697273 -195.427895 
" style="stroke: #000000"/>
    </defs>
    <g clip-path="url(#p4c0138af05)">
     <use xlink:href="#m599e3d77c2" x="0" y="773.416514" style="fill: #c5b0d5; stroke: #000000"/>
    </g>
   </g>
   <g id="PatchCollection_12">
    <defs>
     <path id="m9052dc4c0f" d="M 190.091448 -134.199564 
L 206.427754 -134.014602 
L 212.19737 -133.943004 
L 214.673471 -133.919138 
L 222.817758 -133.823674 
L 230.842715 -133.82964 
L 238.861705 -133.82964 
L 242.477411 -133.823674 
L 247.065657 -133.823674 
L 251.385411 -133.82964 
L 254.87582 -133.817707 
L 254.911619 -130.595791 
L 255.156246 -122.88706 
L 262.99624 -122.88706 
L 266.677577 -122.88706 
L 266.719343 -133.740142 
L 268.682325 -133.775941 
L 270.883967 -133.817707 
L 278.914891 -133.94897 
L 281.307461 -133.972836 
L 286.945814 -133.937037 
L 287.053211 -122.898993 
L 287.172541 -111.998178 
L 287.285905 -101.031732 
L 287.399269 -90.184615 
L 287.333637 -81.294515 
L 286.211933 -81.372079 
L 282.25017 -81.413845 
L 279.320613 -81.407878 
L 271.385154 -81.413845 
L 263.395997 -81.419811 
L 255.341207 -81.431744 
L 249.076371 -81.437711 
L 243.103894 -81.443677 
L 236.850991 -81.449644 
L 232.274678 -81.45561 
L 223.37861 -81.461577 
L 223.402476 -79.218169 
L 216.344094 -79.206236 
L 208.313171 -79.188336 
L 193.211933 -79.158504 
L 193.313364 -86.670341 
L 193.146301 -90.130917 
L 192.573516 -102.117636 
L 192.478052 -103.567499 
L 192.358722 -105.106858 
L 192.000731 -109.802502 
L 191.857535 -112.010111 
L 191.571143 -116.50886 
L 190.90886 -124.181793 
L 190.843228 -125.846449 
L 190.855161 -126.156708 
L 190.592635 -129.599384 
L 190.091448 -134.199564 
" style="stroke: #000000"/>
    </defs>
    <g clip-path="url(#p4c0138af05)">
     <use xlink:href="#m9052dc4c0f" x="0" y="773.416514" style="fill: #8c564b; stroke: #000000"/>
    </g>
   </g>
   <g id="PatchCollection_13">
    <defs>
     <path id="ma4b2ef666f" d="M 159.465349 -275.092744 
L 159.721909 -285.963726 
L 159.978469 -296.828742 
L 160.229063 -307.037441 
L 160.246962 -307.693758 
L 160.33646 -313.123282 
L 160.431924 -318.54684 
L 160.616886 -329.399923 
L 160.801848 -340.253006 
L 160.98681 -351.112055 
L 167.764766 -351.094155 
L 168.504613 -351.094155 
L 168.773106 -350.956926 
L 168.958068 -351.267184 
L 169.292192 -351.380548 
L 169.680015 -351.392481 
L 172.329146 -351.314916 
L 183.605851 -350.664567 
L 183.796779 -350.849528 
L 184.095105 -350.903227 
L 184.506794 -350.861461 
L 184.685789 -350.801796 
L 193.134368 -350.867428 
L 193.349163 -351.016591 
L 193.647488 -351.094155 
L 194.118843 -351.129954 
L 200.652172 -351.135921 
L 200.687971 -347.520216 
L 200.670071 -345.032181 
L 200.610406 -343.28996 
L 200.628306 -340.58713 
L 200.485109 -340.014345 
L 199.649798 -340.115776 
L 192.794277 -340.217207 
L 192.740579 -333.958337 
L 192.555617 -329.352191 
L 194.256072 -329.280593 
L 196.505447 -328.928569 
L 196.666543 -328.904703 
L 196.91117 -328.856971 
L 197.627151 -328.725707 
L 198.987515 -328.230487 
L 200.085353 -327.615936 
L 201.290588 -326.852223 
L 202.1259 -326.136242 
L 202.865747 -325.30093 
L 203.002977 -325.1816 
L 203.456432 -324.799743 
L 204.989825 -323.170886 
L 205.980266 -321.631526 
L 206.606749 -319.94897 
L 206.720113 -318.970463 
L 206.541118 -317.801026 
L 204.93016 -314.507513 
L 204.148547 -313.755732 
L 203.516097 -313.385809 
L 204.81083 -310.694912 
L 206.696247 -304.901431 
L 208.647296 -298.863322 
L 208.832258 -297.902714 
L 209.023186 -297.01967 
L 209.440842 -296.047129 
L 209.625804 -295.408712 
L 209.727234 -294.84786 
L 209.798832 -293.487496 
L 210.168756 -293.177237 
L 210.496914 -292.825213 
L 210.77734 -292.31806 
L 210.908603 -291.840739 
L 210.956335 -291.435016 
L 210.753474 -290.510207 
L 210.479015 -289.973221 
L 210.317919 -289.573465 
L 209.894297 -289.233374 
L 209.786899 -289.143876 
L 209.655636 -288.988747 
L 209.226047 -288.636723 
L 208.790492 -288.344364 
L 208.289305 -288.069904 
L 207.525592 -287.789478 
L 206.648515 -287.550818 
L 206.069763 -287.443421 
L 205.962366 -287.425521 
L 205.687907 -287.377789 
L 203.891987 -287.300225 
L 202.961211 -287.34199 
L 201.86934 -287.485186 
L 201.09966 -287.664182 
L 200.407545 -287.914775 
L 199.721396 -288.225034 
L 199.118778 -288.577058 
L 198.719022 -288.923115 
L 198.259601 -289.382537 
L 197.961275 -289.728594 
L 197.114031 -291.458882 
L 196.529313 -291.327619 
L 192.29309 -290.259614 
L 194.405235 -286.518612 
L 193.134368 -286.071123 
L 192.56755 -285.886162 
L 191.410047 -285.80263 
L 189.351601 -285.814563 
L 184.876718 -285.838429 
L 184.727555 -278.457856 
L 184.823019 -277.521114 
L 185.192943 -276.590338 
L 185.819426 -275.367203 
L 186.803901 -274.358863 
L 187.340887 -273.708514 
L 187.752576 -272.813537 
L 187.943504 -271.888728 
L 187.645179 -266.733663 
L 187.615346 -264.150164 
L 183.164329 -264.120331 
L 175.145339 -264.162097 
L 167.174081 -264.197896 
L 159.202823 -264.233695 
L 159.465349 -275.092744 
" style="stroke: #000000"/>
    </defs>
    <g clip-path="url(#p4c0138af05)">
     <use xlink:href="#ma4b2ef666f" x="0" y="773.416514" style="fill: #8c564b; stroke: #000000"/>
    </g>
   </g>
   <g id="PatchCollection_14">
    <defs>
     <path id="m6063a08cc2" d="M 157.39497 -135.72699 
L 157.92599 -145.207776 
L 158.087085 -155.941528 
L 166.195573 -155.905729 
L 174.298095 -155.86993 
L 182.406582 -155.834131 
L 190.51507 -155.798332 
L 190.723898 -166.597716 
L 190.932726 -177.403067 
L 198.957683 -177.420966 
L 206.463553 -177.438866 
L 214.327414 -177.462732 
L 219.870302 -177.474665 
L 223.038519 -177.486598 
L 231.087342 -177.504497 
L 239.136165 -177.522397 
L 247.190954 -177.540296 
L 255.239777 -177.564162 
L 263.336332 -177.582062 
L 271.367255 -177.599962 
L 279.404144 -177.617861 
L 287.435068 -177.635761 
L 287.303804 -166.681247 
L 287.184474 -155.720767 
L 287.065144 -144.760287 
L 286.945814 -133.937037 
L 281.307461 -133.972836 
L 278.914891 -133.94897 
L 270.883967 -133.817707 
L 268.682325 -133.775941 
L 266.719343 -133.740142 
L 266.677577 -122.88706 
L 262.99624 -122.88706 
L 255.156246 -122.88706 
L 254.911619 -130.595791 
L 254.87582 -133.817707 
L 251.385411 -133.82964 
L 247.065657 -133.823674 
L 242.477411 -133.823674 
L 238.861705 -133.82964 
L 230.842715 -133.82964 
L 222.817758 -133.823674 
L 214.673471 -133.919138 
L 212.19737 -133.943004 
L 206.427754 -134.014602 
L 190.091448 -134.199564 
L 177.889934 -134.336793 
L 171.869725 -134.402425 
L 165.539257 -134.47999 
L 157.353205 -134.569487 
L 157.39497 -135.72699 
" style="stroke: #000000"/>
    </defs>
    <g clip-path="url(#p4c0138af05)">
     <use xlink:href="#m6063a08cc2" x="0" y="773.416514" style="fill: #c49c94; stroke: #000000"/>
    </g>
   </g>
   <g id="PatchCollection_15">
    <defs>
     <path id="me7c68a2345" d="M 190.962559 -188.190518 
L 190.998358 -198.977969 
L 199.035247 -198.977969 
L 207.078104 -198.972002 
L 207.119869 -209.735587 
L 207.08407 -220.07555 
L 207.239199 -220.481273 
L 207.430128 -220.851197 
L 207.453994 -231.376121 
L 213.492102 -231.346289 
L 214.166318 -231.346289 
L 216.439559 -231.346289 
L 217.340502 -231.346289 
L 220.102996 -231.334356 
L 223.39651 -231.316456 
L 226.528928 -231.31049 
L 233.306884 -231.29259 
L 239.088433 -231.286623 
L 255.567935 -231.250824 
L 255.275576 -232.766318 
L 254.828088 -233.995419 
L 253.133599 -237.760287 
L 251.319779 -242.109874 
L 250.13841 -245.743479 
L 251.582306 -256.680092 
L 264.183576 -255.665786 
L 265.042754 -255.552422 
L 266.385218 -255.212331 
L 267.041535 -254.937871 
L 267.912645 -254.532149 
L 268.628626 -254.150292 
L 269.207378 -253.643139 
L 269.798062 -252.95699 
L 270.818336 -251.119305 
L 271.82071 -249.013126 
L 272.214499 -247.569231 
L 272.363662 -246.542991 
L 272.471059 -245.260191 
L 272.471059 -242.843754 
L 272.530724 -242.014409 
L 272.57249 -241.393892 
L 272.69182 -240.600346 
L 272.942414 -239.926131 
L 273.336203 -239.359312 
L 274.070084 -238.547867 
L 275.12019 -237.778187 
L 275.842138 -237.420196 
L 277.148803 -236.919009 
L 277.990081 -236.680349 
L 279.064053 -236.435722 
L 287.775159 -236.417823 
L 287.733393 -231.185193 
L 287.661795 -220.367909 
L 287.608096 -209.681889 
L 287.554398 -199.001835 
L 287.524565 -193.995933 
L 287.494733 -188.435145 
L 287.4649 -183.089151 
L 287.435068 -177.635761 
L 279.404144 -177.617861 
L 271.367255 -177.599962 
L 263.336332 -177.582062 
L 255.239777 -177.564162 
L 247.190954 -177.540296 
L 239.136165 -177.522397 
L 231.087342 -177.504497 
L 223.038519 -177.486598 
L 219.870302 -177.474665 
L 214.327414 -177.462732 
L 206.463553 -177.438866 
L 198.957683 -177.420966 
L 190.932726 -177.403067 
L 190.962559 -188.190518 
" style="stroke: #000000"/>
    </defs>
    <g clip-path="url(#p4c0138af05)">
     <use xlink:href="#me7c68a2345" x="0" y="773.416514" style="fill: #e377c2; stroke: #000000"/>
    </g>
   </g>
   <g id="PatchCollection_16">
    <defs>
     <path id="m96b8c58526" d="M 82.008109 -427.185064 
L 82.413832 -427.632553 
L 82.425765 -438.527401 
L 82.437698 -449.243254 
L 82.449631 -460.066504 
L 82.574928 -470.842022 
L 82.628626 -481.611574 
L 82.801655 -490.811933 
L 82.807622 -491.277321 
L 82.819555 -491.694977 
L 82.87922 -493.395432 
L 83.243177 -503.562366 
L 83.642933 -514.558645 
L 83.6489 -514.809238 
L 91.876718 -514.73764 
L 99.710746 -514.683942 
L 107.908732 -514.624277 
L 115.563765 -514.564612 
L 119.012408 -514.534779 
L 119.603092 -514.528812 
L 125.348842 -514.487047 
L 131.398884 -514.63621 
L 132.341592 -514.630243 
L 137.550356 -514.600411 
L 143.821159 -514.534779 
L 149.095554 -514.457214 
L 150.432052 -514.319985 
L 151.070469 -514.230487 
L 152.210072 -513.991827 
L 152.878322 -513.794932 
L 153.648002 -513.526439 
L 154.298351 -513.269879 
L 155.079964 -512.893989 
L 155.664682 -512.547931 
L 156.708821 -511.861782 
L 157.466568 -511.223366 
L 158.152717 -510.495451 
L 158.588272 -509.8988 
L 158.570373 -509.188786 
L 156.732687 -509.194752 
L 156.649156 -503.210342 
L 156.476128 -492.18423 
L 156.326965 -481.134253 
L 156.183769 -466.516302 
L 156.058472 -454.947238 
L 162.13238 -454.893539 
L 161.917585 -449.237287 
L 161.73859 -438.079913 
L 161.702791 -435.955835 
L 161.523795 -426.922538 
L 161.46413 -421.314018 
L 161.511862 -418.283031 
L 161.505896 -415.287842 
L 161.505896 -412.543248 
L 153.988093 -412.543248 
L 152.466632 -412.549214 
L 146.100366 -407.692474 
L 143.033579 -405.359569 
L 138.218605 -405.359569 
L 132.884545 -405.359569 
L 130.098184 -405.365535 
L 121.977764 -405.365535 
L 114.096003 -405.365535 
L 106.220209 -405.371502 
L 102.276346 -405.353602 
L 99.131995 -405.365535 
L 98.344415 -405.568397 
L 97.664233 -405.789158 
L 94.651145 -405.801091 
L 90.26576 -405.801091 
L 82.199038 -405.813024 
L 82.210971 -416.606441 
L 81.787348 -417.077796 
L 82.008109 -427.185064 
" style="stroke: #000000"/>
    </defs>
    <g clip-path="url(#p4c0138af05)">
     <use xlink:href="#m96b8c58526" x="0" y="773.416514" style="fill: #f7b6d2; stroke: #000000"/>
    </g>
   </g>
   <g id="PatchCollection_17">
    <defs>
     <path id="m499cf65ec2" d="M 152.961853 -518.347379 
L 153.08715 -522.434439 
L 153.18858 -525.310297 
L 153.194547 -527.625303 
L 153.194547 -528.204055 
L 154.011959 -531.211176 
L 153.439174 -535.745724 
L 158.606172 -537.028524 
L 160.569154 -537.523744 
L 157.054879 -539.934214 
L 160.664618 -541.754 
L 161.279169 -542.016527 
L 161.87582 -542.255187 
L 163.182485 -543.191929 
L 184.03544 -559.396972 
L 231.463232 -570.375351 
L 257.483185 -576.39556 
L 318.747315 -590.577956 
L 338.579996 -601.055149 
L 348.579868 -622.236261 
L 349.289883 -572.338333 
L 349.319715 -571.461256 
L 349.337615 -570.876538 
L 349.391313 -569.42071 
L 350.137127 -516.527594 
L 351.020171 -471.283544 
L 350.441419 -467.071188 
L 350.411587 -466.796728 
L 349.803003 -461.074844 
L 348.162212 -456.77299 
L 347.643126 -455.233631 
L 347.46413 -454.804042 
L 347.279169 -454.38042 
L 346.962943 -453.574941 
L 346.652685 -452.763495 
L 346.443857 -452.298107 
L 343.15631 -443.688433 
L 338.371168 -431.307923 
L 337.637287 -429.416539 
L 336.891474 -427.889113 
L 333.060974 -420.019285 
L 333.120639 -419.398768 
L 333.496529 -415.037249 
L 333.747123 -412.17929 
L 334.260243 -406.248579 
L 322.452518 -382.961288 
L 316.873831 -383.00902 
L 313.478886 -384.184423 
L 310.280837 -384.118791 
L 309.535023 -384.184423 
L 309.451492 -384.584179 
L 308.854841 -384.721409 
L 307.930031 -384.721409 
L 307.345313 -384.721409 
L 303.998101 -384.554347 
L 298.252351 -384.273921 
L 293.162918 -382.281106 
L 293.115186 -382.400436 
L 292.757195 -382.925489 
L 292.339539 -383.253647 
L 291.319266 -383.784667 
L 290.191596 -384.315686 
L 289.917136 -384.578213 
L 289.744107 -384.906371 
L 289.523346 -385.210663 
L 289.451748 -385.467223 
L 289.326452 -383.056752 
L 276.283659 -386.606826 
L 256.999897 -382.370604 
L 256.946199 -384.894438 
L 251.236248 -391.415834 
L 249.315032 -394.070931 
L 249.028639 -393.921768 
L 248.89141 -393.683108 
L 248.825778 -393.062591 
L 248.670649 -387.561468 
L 248.694515 -383.892064 
L 244.744685 -383.933829 
L 244.673087 -383.868198 
L 240.818721 -383.89803 
L 232.841496 -383.945762 
L 225.210329 -384.15459 
L 225.079066 -373.19411 
L 223.90963 -373.253776 
L 222.841624 -373.379072 
L 222.077911 -373.402938 
L 221.165035 -373.295541 
L 221.027805 -360.23485 
L 220.305857 -351.05239 
L 217.519497 -351.070289 
L 210.789273 -351.123988 
L 208.897889 -351.135921 
L 207.871649 -351.135921 
L 200.652172 -351.135921 
L 194.118843 -351.129954 
L 193.647488 -351.094155 
L 193.349163 -351.016591 
L 193.134368 -350.867428 
L 184.685789 -350.801796 
L 184.506794 -350.861461 
L 184.095105 -350.903227 
L 183.796779 -350.849528 
L 183.605851 -350.664567 
L 172.329146 -351.314916 
L 169.680015 -351.392481 
L 169.292192 -351.380548 
L 168.958068 -351.267184 
L 168.773106 -350.956926 
L 168.504613 -351.094155 
L 167.764766 -351.094155 
L 160.98681 -351.112055 
L 161.076307 -361.977071 
L 161.165805 -372.901751 
L 161.201604 -377.507898 
L 161.22547 -380.20476 
L 161.249336 -383.903997 
L 161.3448 -394.578084 
L 161.428331 -400.359633 
L 161.458164 -405.287971 
L 161.487996 -410.055213 
L 161.505896 -412.543248 
L 161.505896 -415.287842 
L 161.511862 -418.283031 
L 161.46413 -421.314018 
L 161.523795 -426.922538 
L 161.702791 -435.955835 
L 161.73859 -438.079913 
L 161.917585 -449.237287 
L 162.13238 -454.893539 
L 156.058472 -454.947238 
L 156.183769 -466.516302 
L 156.326965 -481.134253 
L 156.476128 -492.18423 
L 156.649156 -503.210342 
L 156.732687 -509.194752 
L 158.570373 -509.188786 
L 158.588272 -509.8988 
L 158.152717 -510.495451 
L 157.466568 -511.223366 
L 156.708821 -511.861782 
L 155.664682 -512.547931 
L 155.079964 -512.893989 
L 154.298351 -513.269879 
L 153.648002 -513.526439 
L 152.878322 -513.794932 
L 152.961853 -518.347379 
" style="stroke: #000000"/>
    </defs>
    <g clip-path="url(#p4c0138af05)">
     <use xlink:href="#m499cf65ec2" x="0" y="773.416514" style="fill: #7f7f7f; stroke: #000000"/>
    </g>
   </g>
   <g id="PatchCollection_18">
    <defs>
     <path id="meb9b6c02fd" d="M 221.027805 -360.23485 
L 221.165035 -373.295541 
L 222.077911 -373.402938 
L 222.841624 -373.379072 
L 223.90963 -373.253776 
L 225.079066 -373.19411 
L 225.210329 -384.15459 
L 232.841496 -383.945762 
L 240.818721 -383.89803 
L 244.673087 -383.868198 
L 244.744685 -383.933829 
L 248.694515 -383.892064 
L 248.670649 -387.561468 
L 248.825778 -393.062591 
L 248.89141 -393.683108 
L 249.028639 -393.921768 
L 249.315032 -394.070931 
L 251.236248 -391.415834 
L 256.946199 -384.894438 
L 256.999897 -382.370604 
L 276.283659 -386.606826 
L 289.326452 -383.056752 
L 289.451748 -385.467223 
L 289.523346 -385.210663 
L 289.744107 -384.906371 
L 289.917136 -384.578213 
L 290.191596 -384.315686 
L 291.319266 -383.784667 
L 292.339539 -383.253647 
L 292.757195 -382.925489 
L 293.115186 -382.400436 
L 293.162918 -382.281106 
L 298.252351 -384.273921 
L 303.998101 -384.554347 
L 307.345313 -384.721409 
L 307.930031 -384.721409 
L 308.854841 -384.721409 
L 309.451492 -384.584179 
L 309.535023 -384.184423 
L 310.280837 -384.118791 
L 313.478886 -384.184423 
L 316.873831 -383.00902 
L 322.452518 -382.961288 
L 334.260243 -406.248579 
L 345.513081 -389.238057 
L 361.10954 -365.676307 
L 373.937538 -335.831821 
L 386.019722 -307.777289 
L 386.771502 -306.023135 
L 390.560236 -302.675922 
L 392.254725 -301.178328 
L 405.30945 -288.081837 
L 406.037364 -287.347957 
L 407.61849 -285.760865 
L 406.83091 -284.93152 
L 404.050516 -282.001963 
L 399.754629 -281.602207 
L 400.029088 -277.282453 
L 394.718894 -273.004465 
L 386.628306 -272.950767 
L 386.085353 -272.539077 
L 385.649798 -272.204953 
L 382.332418 -269.704985 
L 376.628434 -270.420966 
L 374.24183 -270.683493 
L 372.648771 -270.844588 
L 371.133278 -270.91022 
L 370.047373 -270.880388 
L 368.687008 -270.808789 
L 366.980586 -270.725258 
L 364.414987 -270.993751 
L 358.335113 -270.510464 
L 355.154962 -269.991377 
L 346.115699 -267.270649 
L 342.696888 -265.808854 
L 340.793572 -264.048733 
L 340.167088 -263.01056 
L 339.266145 -261.530865 
L 335.125387 -247.378302 
L 334.707731 -237.998948 
L 334.695798 -237.766254 
L 335.11942 -235.451248 
L 335.244717 -233.553897 
L 322.088561 -233.404735 
L 314.552858 -233.34507 
L 313.538551 -233.386835 
L 312.548111 -233.524065 
L 307.762969 -234.669635 
L 306.074447 -234.854597 
L 304.391891 -234.771066 
L 302.876397 -234.448874 
L 301.289305 -233.870123 
L 300.895515 -233.714993 
L 294.403952 -231.215025 
L 287.733393 -231.185193 
L 287.775159 -236.417823 
L 279.064053 -236.435722 
L 277.990081 -236.680349 
L 277.148803 -236.919009 
L 275.842138 -237.420196 
L 275.12019 -237.778187 
L 274.070084 -238.547867 
L 273.336203 -239.359312 
L 272.942414 -239.926131 
L 272.69182 -240.600346 
L 272.57249 -241.393892 
L 272.530724 -242.014409 
L 272.471059 -242.843754 
L 272.471059 -245.260191 
L 272.363662 -246.542991 
L 272.214499 -247.569231 
L 271.82071 -249.013126 
L 270.818336 -251.119305 
L 269.798062 -252.95699 
L 269.207378 -253.643139 
L 268.628626 -254.150292 
L 267.912645 -254.532149 
L 267.041535 -254.937871 
L 266.385218 -255.212331 
L 265.042754 -255.552422 
L 264.183576 -255.665786 
L 251.582306 -256.680092 
L 252.501148 -263.804106 
L 253.59302 -272.115455 
L 251.152717 -280.21201 
L 250.77086 -281.49481 
L 250.854391 -286.094989 
L 250.943889 -290.856265 
L 250.884224 -292.246462 
L 250.967755 -293.744056 
L 249.332931 -296.936139 
L 247.9845 -298.905088 
L 242.930865 -305.187823 
L 242.61464 -305.581613 
L 241.612267 -307.061307 
L 240.818721 -308.672265 
L 240.144505 -310.915673 
L 239.935677 -313.200847 
L 240.138539 -329.203028 
L 247.930801 -329.143363 
L 247.620543 -329.829512 
L 247.483313 -330.605158 
L 247.542978 -339.95468 
L 247.692141 -350.718265 
L 240.418965 -350.760031 
L 232.44174 -350.837595 
L 224.900071 -350.968859 
L 220.305857 -351.05239 
L 221.027805 -360.23485 
" style="stroke: #000000"/>
    </defs>
    <g clip-path="url(#p4c0138af05)">
     <use xlink:href="#meb9b6c02fd" x="0" y="773.416514" style="fill: #c7c7c7; stroke: #000000"/>
    </g>
   </g>
   <g id="PatchCollection_19">
    <defs>
     <path id="m738c9b8227" d="M 184.727555 -278.457856 
L 184.876718 -285.838429 
L 189.351601 -285.814563 
L 191.410047 -285.80263 
L 192.56755 -285.886162 
L 193.134368 -286.071123 
L 194.405235 -286.518612 
L 192.29309 -290.259614 
L 196.529313 -291.327619 
L 197.114031 -291.458882 
L 197.961275 -289.728594 
L 198.259601 -289.382537 
L 198.719022 -288.923115 
L 199.118778 -288.577058 
L 199.721396 -288.225034 
L 200.407545 -287.914775 
L 201.09966 -287.664182 
L 201.86934 -287.485186 
L 202.961211 -287.34199 
L 203.891987 -287.300225 
L 205.687907 -287.377789 
L 205.962366 -287.425521 
L 206.069763 -287.443421 
L 206.648515 -287.550818 
L 207.525592 -287.789478 
L 208.289305 -288.069904 
L 208.790492 -288.344364 
L 209.226047 -288.636723 
L 209.655636 -288.988747 
L 209.786899 -289.143876 
L 209.894297 -289.233374 
L 210.317919 -289.573465 
L 210.479015 -289.973221 
L 210.753474 -290.510207 
L 210.956335 -291.435016 
L 210.908603 -291.840739 
L 210.77734 -292.31806 
L 210.496914 -292.825213 
L 210.168756 -293.177237 
L 209.798832 -293.487496 
L 209.727234 -294.84786 
L 209.625804 -295.408712 
L 209.440842 -296.047129 
L 209.023186 -297.01967 
L 208.832258 -297.902714 
L 208.647296 -298.863322 
L 206.696247 -304.901431 
L 204.81083 -310.694912 
L 203.516097 -313.385809 
L 204.148547 -313.755732 
L 204.93016 -314.507513 
L 206.541118 -317.801026 
L 206.720113 -318.970463 
L 206.606749 -319.94897 
L 205.980266 -321.631526 
L 204.989825 -323.170886 
L 203.456432 -324.799743 
L 203.002977 -325.1816 
L 202.865747 -325.30093 
L 202.1259 -326.136242 
L 201.290588 -326.852223 
L 200.085353 -327.615936 
L 198.987515 -328.230487 
L 197.627151 -328.725707 
L 196.91117 -328.856971 
L 196.666543 -328.904703 
L 196.505447 -328.928569 
L 194.256072 -329.280593 
L 192.555617 -329.352191 
L 192.740579 -333.958337 
L 192.794277 -340.217207 
L 199.649798 -340.115776 
L 200.485109 -340.014345 
L 200.628306 -340.58713 
L 200.610406 -343.28996 
L 200.670071 -345.032181 
L 200.687971 -347.520216 
L 200.652172 -351.135921 
L 207.871649 -351.135921 
L 208.897889 -351.135921 
L 210.789273 -351.123988 
L 217.519497 -351.070289 
L 220.305857 -351.05239 
L 224.900071 -350.968859 
L 232.44174 -350.837595 
L 240.418965 -350.760031 
L 247.692141 -350.718265 
L 247.542978 -339.95468 
L 247.483313 -330.605158 
L 247.620543 -329.829512 
L 247.930801 -329.143363 
L 240.138539 -329.203028 
L 239.935677 -313.200847 
L 240.144505 -310.915673 
L 240.818721 -308.672265 
L 241.612267 -307.061307 
L 242.61464 -305.581613 
L 242.930865 -305.187823 
L 247.9845 -298.905088 
L 249.332931 -296.936139 
L 250.967755 -293.744056 
L 250.884224 -292.246462 
L 250.943889 -290.856265 
L 250.854391 -286.094989 
L 250.77086 -281.49481 
L 251.152717 -280.21201 
L 253.59302 -272.115455 
L 252.501148 -263.804106 
L 251.582306 -256.680092 
L 250.13841 -245.743479 
L 251.319779 -242.109874 
L 253.133599 -237.760287 
L 254.828088 -233.995419 
L 255.275576 -232.766318 
L 255.567935 -231.250824 
L 239.088433 -231.286623 
L 233.306884 -231.29259 
L 226.528928 -231.31049 
L 223.39651 -231.316456 
L 220.102996 -231.334356 
L 217.340502 -231.346289 
L 216.439559 -231.346289 
L 214.166318 -231.346289 
L 213.492102 -231.346289 
L 207.453994 -231.376121 
L 199.506602 -231.405954 
L 191.517444 -231.435786 
L 191.296683 -231.811676 
L 191.356348 -242.318701 
L 191.332482 -253.207583 
L 191.308616 -264.090498 
L 187.615346 -264.150164 
L 187.645179 -266.733663 
L 187.943504 -271.888728 
L 187.752576 -272.813537 
L 187.340887 -273.708514 
L 186.803901 -274.358863 
L 185.819426 -275.367203 
L 185.192943 -276.590338 
L 184.823019 -277.521114 
L 184.727555 -278.457856 
" style="stroke: #000000"/>
    </defs>
    <g clip-path="url(#p4c0138af05)">
     <use xlink:href="#m738c9b8227" x="0" y="773.416514" style="fill: #bcbd22; stroke: #000000"/>
    </g>
   </g>
   <g id="PatchCollection_20">
    <defs>
     <path id="m3bbc9f4b6c" d="M 310.286803 -680.648399 
L 339.677834 -681.304715 
L 347.61926 -681.268916 
L 348.597767 -681.38228 
L 347.637159 -681.955065 
L 339.83893 -686.507513 
L 343.573965 -689.329672 
L 343.872291 -689.5564 
L 344.838866 -690.320113 
L 345.07156 -690.505075 
L 345.662244 -690.976429 
L 348.955758 -693.542029 
L 351.545224 -692.014602 
L 353.925861 -690.612472 
L 354.051158 -690.499108 
L 354.224187 -690.349945 
L 355.578585 -688.643523 
L 356.712222 -688.953782 
L 364.468685 -684.359569 
L 366.71806 -686.036158 
L 367.052185 -686.292718 
L 369.414923 -688.184102 
L 374.731084 -692.295028 
L 379.862283 -696.262757 
L 381.7477 -697.718586 
L 384.993482 -700.230487 
L 386.127119 -699.562238 
L 392.385988 -702.193469 
L 392.833477 -702.390364 
L 393.179534 -702.539527 
L 393.537525 -701.859344 
L 395.047052 -700.194688 
L 397.075666 -697.981112 
L 398.143671 -696.817643 
L 398.406197 -696.519317 
L 398.680657 -696.226958 
L 403.835722 -690.588606 
L 406.395355 -687.790312 
L 409.25928 -684.669827 
L 414.676872 -678.745082 
L 418.573003 -674.49096 
L 422.469135 -670.236838 
L 426.365266 -665.97675 
L 430.255431 -661.716661 
L 434.151562 -657.462539 
L 435.040572 -656.489998 
L 435.923616 -655.51149 
L 438.041727 -653.208417 
L 441.943825 -648.942362 
L 445.839956 -644.68824 
L 449.724155 -640.440085 
L 450.111978 -639.777802 
L 450.816026 -638.602399 
L 451.078553 -637.122705 
L 443.131161 -637.224135 
L 440.768422 -637.104805 
L 437.194483 -637.116738 
L 435.511927 -637.116738 
L 434.366357 -637.116738 
L 428.644473 -637.128671 
L 425.261461 -637.134638 
L 419.945301 -637.146571 
L 413.829627 -637.152537 
L 412.159004 -637.158504 
L 407.982447 -637.158504 
L 404.157914 -637.18237 
L 401.091127 -637.170437 
L 400.136486 -637.176403 
L 399.34294 -637.16447 
L 398.531494 -637.140604 
L 397.821479 -637.128671 
L 392.606749 -637.761121 
L 390.81083 -638.5845 
L 389.032809 -639.670405 
L 376.729865 -639.574941 
L 349.176519 -640.732444 
L 344.970129 -645.827844 
L 325.280644 -665.588927 
L 318.514621 -672.384782 
L 310.286803 -680.648399 
" style="stroke: #000000"/>
    </defs>
    <g clip-path="url(#p4c0138af05)">
     <use xlink:href="#m3bbc9f4b6c" x="0" y="773.416514" style="fill: #dbdb8d; stroke: #000000"/>
    </g>
   </g>
   <g id="PatchCollection_21">
    <defs>
     <path id="m935ce4c871" d="M 492.223609 -693.518163 
L 497.55767 -695.743671 
L 500.648322 -697.032437 
L 506.734163 -699.568204 
L 508.094527 -700.135023 
L 509.228164 -700.612344 
L 510.367768 -701.083698 
L 515.946455 -703.804427 
L 517.330686 -703.995355 
L 519.365266 -704.836633 
L 518.822313 -703.911824 
L 524.048977 -703.899891 
L 531.638378 -703.95359 
L 539.836364 -703.91779 
L 539.734933 -698.637429 
L 539.675268 -695.77947 
L 539.532072 -688.804619 
L 539.48434 -681.835735 
L 539.442574 -675.290473 
L 539.436607 -674.866851 
L 539.412741 -671.107949 
L 539.359043 -663.793007 
L 539.32921 -652.796728 
L 539.299378 -647.88629 
L 539.281478 -642.862488 
L 539.257612 -636.94371 
L 531.829306 -636.955643 
L 527.020299 -636.961609 
L 515.964355 -636.985475 
L 509.747251 -636.991442 
L 499.258125 -637.009341 
L 492.360839 -637.027241 
L 492.348906 -642.946019 
L 492.34294 -643.840996 
L 492.336973 -646.48416 
L 492.331007 -647.892256 
L 492.331007 -648.232347 
L 492.319074 -652.361173 
L 492.313107 -653.912466 
L 492.295208 -657.915994 
L 492.289241 -658.190454 
L 492.289241 -663.948136 
L 492.283275 -665.392032 
L 492.271342 -669.950446 
L 492.235542 -675.206942 
L 492.247475 -682.020697 
L 492.241509 -684.019478 
L 492.235542 -687.64115 
L 492.235542 -689.001514 
L 492.223609 -693.518163 
" style="stroke: #000000"/>
    </defs>
    <g clip-path="url(#p4c0138af05)">
     <use xlink:href="#m935ce4c871" x="0" y="773.416514" style="fill: #17becf; stroke: #000000"/>
    </g>
   </g>
   <g id="PatchCollection_22">
    <defs>
     <path id="m59f37431ad" d="M 349.176519 -640.732444 
L 376.729865 -639.574941 
L 389.032809 -639.670405 
L 390.81083 -638.5845 
L 392.606749 -637.761121 
L 397.821479 -637.128671 
L 398.531494 -637.140604 
L 399.34294 -637.16447 
L 400.136486 -637.176403 
L 401.091127 -637.170437 
L 404.157914 -637.18237 
L 407.982447 -637.158504 
L 412.159004 -637.158504 
L 413.829627 -637.152537 
L 419.945301 -637.146571 
L 425.261461 -637.134638 
L 428.644473 -637.128671 
L 434.366357 -637.116738 
L 435.511927 -637.116738 
L 437.194483 -637.116738 
L 440.768422 -637.104805 
L 443.131161 -637.224135 
L 451.078553 -637.122705 
L 458.781318 -637.080939 
L 465.153551 -637.069006 
L 466.07836 -637.069006 
L 466.680978 -637.069006 
L 467.892179 -637.069006 
L 469.825329 -637.06304 
L 473.381369 -634.217014 
L 473.608096 -634.043985 
L 477.647424 -630.058356 
L 481.519689 -626.985603 
L 487.748727 -622.0334 
L 486.006505 -622.0155 
L 483.780997 -622.021467 
L 482.176006 -622.021467 
L 474.383743 -622.039366 
L 466.597447 -622.051299 
L 458.81115 -622.063232 
L 451.012921 -622.075165 
L 449.455662 -622.081132 
L 448.632283 -622.081132 
L 443.137127 -622.087098 
L 442.069122 -622.087098 
L 440.941451 -622.093065 
L 439.014268 -622.093065 
L 435.446295 -622.099031 
L 427.683865 -622.110964 
L 419.897568 -622.122897 
L 412.105306 -622.13483 
L 404.641201 -622.146763 
L 403.949086 -622.146763 
L 403.280837 -622.146763 
L 401.836941 -622.15273 
L 393.925348 -622.236261 
L 380.32767 -622.236261 
L 348.579868 -622.236261 
L 349.176519 -640.732444 
" style="stroke: #000000"/>
    </defs>
    <g clip-path="url(#p4c0138af05)">
     <use xlink:href="#m59f37431ad" x="0" y="773.416514" style="fill: #9edae5; stroke: #000000"/>
    </g>
   </g>
   <g id="PatchCollection_23">
    <defs>
     <path id="m8269bcb012" d="M 333.060974 -420.019285 
L 336.891474 -427.889113 
L 337.637287 -429.416539 
L 338.371168 -431.307923 
L 343.15631 -443.688433 
L 346.443857 -452.298107 
L 346.652685 -452.763495 
L 346.962943 -453.574941 
L 347.279169 -454.38042 
L 347.46413 -454.804042 
L 347.643126 -455.233631 
L 348.162212 -456.77299 
L 349.803003 -461.074844 
L 350.411587 -466.796728 
L 350.441419 -467.071188 
L 351.020171 -471.283544 
L 350.137127 -516.527594 
L 349.391313 -569.42071 
L 349.337615 -570.876538 
L 349.319715 -571.461256 
L 349.289883 -572.338333 
L 348.579868 -622.236261 
L 380.32767 -622.236261 
L 393.925348 -622.236261 
L 401.836941 -622.15273 
L 403.280837 -622.146763 
L 403.949086 -622.146763 
L 404.641201 -622.146763 
L 412.105306 -622.13483 
L 419.897568 -622.122897 
L 427.683865 -622.110964 
L 435.446295 -622.099031 
L 439.014268 -622.093065 
L 440.941451 -622.093065 
L 442.069122 -622.087098 
L 443.137127 -622.087098 
L 448.632283 -622.081132 
L 449.455662 -622.081132 
L 451.012921 -622.075165 
L 450.995021 -617.069263 
L 450.965189 -612.06336 
L 450.935356 -607.009726 
L 450.839892 -603.573016 
L 450.720562 -601.89046 
L 452.84464 -602.039623 
L 458.727619 -602.039623 
L 466.519882 -602.02769 
L 474.300212 -602.015757 
L 482.092474 -602.003824 
L 487.975454 -602.00979 
L 489.652043 -602.003824 
L 490.505254 -602.003824 
L 491.191403 -602.003824 
L 492.372772 -601.997857 
L 493.894232 -601.997857 
L 495.272496 -601.985924 
L 497.116148 -601.973991 
L 498.375082 -601.973991 
L 499.556451 -601.968025 
L 501.227074 -601.968025 
L 504.108898 -601.956092 
L 513.136229 -601.944159 
L 513.010932 -597.8034 
L 513.052698 -597.242548 
L 513.070597 -596.950189 
L 513.154128 -596.639931 
L 513.309258 -596.240175 
L 513.553885 -595.738988 
L 513.661282 -595.559992 
L 513.899942 -595.249734 
L 514.251966 -594.802245 
L 514.520459 -594.539719 
L 514.961981 -594.193661 
L 512.778238 -593.197254 
L 512.635042 -591.854789 
L 513.327157 -591.013511 
L 513.118329 -590.69132 
L 512.987066 -590.088702 
L 512.987066 -576.401527 
L 512.987066 -570.560313 
L 512.987066 -567.141503 
L 512.993033 -564.880195 
L 513.010932 -557.887445 
L 513.004966 -548.943645 
L 512.998999 -545.590466 
L 512.957234 -540.632296 
L 512.969167 -539.283865 
L 513.088497 -537.285084 
L 513.183961 -536.551203 
L 513.321191 -535.984384 
L 513.333124 -535.912786 
L 513.631449 -535.155039 
L 513.619516 -534.713518 
L 516.745968 -534.713518 
L 520.689831 -534.713518 
L 520.642099 -529.636017 
L 520.6063 -525.381895 
L 520.552602 -519.773375 
L 520.612267 -518.96193 
L 520.683865 -515.173196 
L 520.284109 -513.651735 
L 520.182678 -513.168448 
L 520.033515 -504.469276 
L 520.72563 -504.469276 
L 520.671932 -499.45144 
L 520.636133 -494.188978 
L 520.594367 -488.914583 
L 520.558568 -483.687919 
L 520.48697 -478.849079 
L 520.498903 -478.461256 
L 528.124103 -478.443357 
L 527.61695 -478.049567 
L 527.449888 -477.739308 
L 527.527452 -473.252492 
L 527.569218 -471.552037 
L 527.813845 -460.681055 
L 527.89141 -457.190646 
L 527.998807 -452.321973 
L 520.361673 -452.286174 
L 520.475037 -447.053545 
L 520.594367 -441.814948 
L 520.707731 -436.600218 
L 520.815128 -431.367588 
L 513.303291 -431.337756 
L 513.010932 -419.923821 
L 512.718573 -409.082671 
L 512.396382 -398.319086 
L 515.469135 -398.331019 
L 513.911875 -393.551844 
L 513.858177 -393.235619 
L 513.858177 -392.883595 
L 512.629076 -389.184359 
L 512.420248 -388.987464 
L 511.000218 -384.542414 
L 509.604055 -380.198794 
L 508.106461 -375.706011 
L 506.728197 -371.141631 
L 505.278335 -366.660781 
L 504.138731 -363.241971 
L 504.150664 -362.866081 
L 504.240162 -362.64532 
L 504.425124 -362.412626 
L 504.699583 -362.25153 
L 504.950176 -362.179932 
L 505.06354 -362.150099 
L 513.631449 -362.144133 
L 513.59565 -357.878078 
L 513.530019 -349.178905 
L 510.421467 -349.190839 
L 507.49191 -349.208738 
L 504.902444 -349.220671 
L 502.229448 -349.238571 
L 501.38817 -349.172939 
L 500.576724 -349.065542 
L 499.866709 -348.76125 
L 499.580317 -348.570321 
L 499.466953 -348.492757 
L 498.888202 -348.009469 
L 498.589876 -347.454584 
L 498.500379 -347.144325 
L 497.253378 -348.713518 
L 497.014717 -349.053609 
L 495.946712 -350.598935 
L 487.158042 -351.511811 
L 487.408635 -350.055983 
L 487.384769 -349.584628 
L 487.122243 -349.101341 
L 486.752319 -348.576288 
L 484.974299 -348.588221 
L 475.153423 -348.64192 
L 468.620094 -353.08697 
L 464.503201 -355.87333 
L 462.922076 -357.006967 
L 462.080798 -357.514121 
L 457.892308 -360.419811 
L 456.722872 -361.165625 
L 455.595201 -361.75631 
L 455.129813 -361.935305 
L 454.324334 -362.1322 
L 453.888779 -362.197832 
L 451.179983 -362.287329 
L 446.854263 -362.263463 
L 439.891345 -362.281363 
L 431.67546 -362.382793 
L 422.982254 -362.460358 
L 411.94421 -362.442458 
L 405.560044 -362.52599 
L 396.652043 -362.603554 
L 388.591288 -362.830282 
L 387.720177 -362.878014 
L 387.045961 -362.919779 
L 379.760852 -363.325502 
L 367.535472 -363.67156 
L 367.272945 -363.79089 
L 367.243113 -364.673933 
L 361.10954 -365.676307 
L 345.513081 -389.238057 
L 334.260243 -406.248579 
L 333.747123 -412.17929 
L 333.496529 -415.037249 
L 333.120639 -419.398768 
L 333.060974 -420.019285 
" style="stroke: #000000"/>
    </defs>
    <g clip-path="url(#p4c0138af05)">
     <use xlink:href="#m8269bcb012" x="0" y="773.416514" style="fill: #9edae5; stroke: #000000"/>
    </g>
   </g>
   <g id="matplotlib.axis_1">
    <g id="xtick_1"/>
    <g id="xtick_2"/>
    <g id="xtick_3"/>
    <g id="xtick_4"/>
    <g id="xtick_5"/>
   </g>
   <g id="matplotlib.axis_2">
    <g id="ytick_1"/>
    <g id="ytick_2"/>
    <g id="ytick_3"/>
    <g id="ytick_4"/>
    <g id="ytick_5"/>
    <g id="ytick_6"/>
    <g id="ytick_7"/>
   </g>
   <g id="text_1">
    <!-- 8002 -->
    <g transform="translate(336.059522 83.766287) scale(0.2 -0.2)">
     <defs>
      <path id="DejaVuSans-38" d="M 2034 2216 
Q 1584 2216 1326 1975 
Q 1069 1734 1069 1313 
Q 1069 891 1326 650 
Q 1584 409 2034 409 
Q 2484 409 2743 651 
Q 3003 894 3003 1313 
Q 3003 1734 2745 1975 
Q 2488 2216 2034 2216 
z
M 1403 2484 
Q 997 2584 770 2862 
Q 544 3141 544 3541 
Q 544 4100 942 4425 
Q 1341 4750 2034 4750 
Q 2731 4750 3128 4425 
Q 3525 4100 3525 3541 
Q 3525 3141 3298 2862 
Q 3072 2584 2669 2484 
Q 3125 2378 3379 2068 
Q 3634 1759 3634 1313 
Q 3634 634 3220 271 
Q 2806 -91 2034 -91 
Q 1263 -91 848 271 
Q 434 634 434 1313 
Q 434 1759 690 2068 
Q 947 2378 1403 2484 
z
M 1172 3481 
Q 1172 3119 1398 2916 
Q 1625 2713 2034 2713 
Q 2441 2713 2670 2916 
Q 2900 3119 2900 3481 
Q 2900 3844 2670 4047 
Q 2441 4250 2034 4250 
Q 1625 4250 1398 4047 
Q 1172 3844 1172 3481 
z
" transform="scale(0.015625)"/>
      <path id="DejaVuSans-30" d="M 2034 4250 
Q 1547 4250 1301 3770 
Q 1056 3291 1056 2328 
Q 1056 1369 1301 889 
Q 1547 409 2034 409 
Q 2525 409 2770 889 
Q 3016 1369 3016 2328 
Q 3016 3291 2770 3770 
Q 2525 4250 2034 4250 
z
M 2034 4750 
Q 2819 4750 3233 4129 
Q 3647 3509 3647 2328 
Q 3647 1150 3233 529 
Q 2819 -91 2034 -91 
Q 1250 -91 836 529 
Q 422 1150 422 2328 
Q 422 3509 836 4129 
Q 1250 4750 2034 4750 
z
" transform="scale(0.015625)"/>
      <path id="DejaVuSans-32" d="M 1228 531 
L 3431 531 
L 3431 0 
L 469 0 
L 469 531 
Q 828 903 1448 1529 
Q 2069 2156 2228 2338 
Q 2531 2678 2651 2914 
Q 2772 3150 2772 3378 
Q 2772 3750 2511 3984 
Q 2250 4219 1831 4219 
Q 1534 4219 1204 4116 
Q 875 4013 500 3803 
L 500 4441 
Q 881 4594 1212 4672 
Q 1544 4750 1819 4750 
Q 2544 4750 2975 4387 
Q 3406 4025 3406 3419 
Q 3406 3131 3298 2873 
Q 3191 2616 2906 2266 
Q 2828 2175 2409 1742 
Q 1991 1309 1228 531 
z
" transform="scale(0.015625)"/>
     </defs>
     <use xlink:href="#DejaVuSans-38"/>
     <use xlink:href="#DejaVuSans-30" transform="translate(63.623047 0)"/>
     <use xlink:href="#DejaVuSans-30" transform="translate(127.246094 0)"/>
     <use xlink:href="#DejaVuSans-32" transform="translate(190.869141 0)"/>
    </g>
   </g>
   <g id="text_2">
    <!-- 0500 -->
    <g transform="translate(79.957447 403.333666) scale(0.2 -0.2)">
     <defs>
      <path id="DejaVuSans-35" d="M 691 4666 
L 3169 4666 
L 3169 4134 
L 1269 4134 
L 1269 2991 
Q 1406 3038 1543 3061 
Q 1681 3084 1819 3084 
Q 2600 3084 3056 2656 
Q 3513 2228 3513 1497 
Q 3513 744 3044 326 
Q 2575 -91 1722 -91 
Q 1428 -91 1123 -41 
Q 819 9 494 109 
L 494 744 
Q 775 591 1075 516 
Q 1375 441 1709 441 
Q 2250 441 2565 725 
Q 2881 1009 2881 1497 
Q 2881 1984 2565 2268 
Q 2250 2553 1709 2553 
Q 1456 2553 1204 2497 
Q 953 2441 691 2322 
L 691 4666 
z
" transform="scale(0.015625)"/>
     </defs>
     <use xlink:href="#DejaVuSans-30"/>
     <use xlink:href="#DejaVuSans-35" transform="translate(63.623047 0)"/>
     <use xlink:href="#DejaVuSans-30" transform="translate(127.246094 0)"/>
     <use xlink:href="#DejaVuSans-30" transform="translate(190.869141 0)"/>
    </g>
   </g>
   <g id="text_3">
    <!-- 6500 -->
    <g transform="translate(409.288253 682.330683) scale(0.2 -0.2)">
     <defs>
      <path id="DejaVuSans-36" d="M 2113 2584 
Q 1688 2584 1439 2293 
Q 1191 2003 1191 1497 
Q 1191 994 1439 701 
Q 1688 409 2113 409 
Q 2538 409 2786 701 
Q 3034 994 3034 1497 
Q 3034 2003 2786 2293 
Q 2538 2584 2113 2584 
z
M 3366 4563 
L 3366 3988 
Q 3128 4100 2886 4159 
Q 2644 4219 2406 4219 
Q 1781 4219 1451 3797 
Q 1122 3375 1075 2522 
Q 1259 2794 1537 2939 
Q 1816 3084 2150 3084 
Q 2853 3084 3261 2657 
Q 3669 2231 3669 1497 
Q 3669 778 3244 343 
Q 2819 -91 2113 -91 
Q 1303 -91 875 529 
Q 447 1150 447 2328 
Q 447 3434 972 4092 
Q 1497 4750 2381 4750 
Q 2619 4750 2861 4703 
Q 3103 4656 3366 4563 
z
" transform="scale(0.015625)"/>
     </defs>
     <use xlink:href="#DejaVuSans-36"/>
     <use xlink:href="#DejaVuSans-35" transform="translate(63.623047 0)"/>
     <use xlink:href="#DejaVuSans-30" transform="translate(127.246094 0)"/>
     <use xlink:href="#DejaVuSans-30" transform="translate(190.869141 0)"/>
    </g>
   </g>
   <g id="text_4">
    <!-- 8400 -->
    <g transform="translate(448.284535 74.402923) scale(0.2 -0.2)">
     <defs>
      <path id="DejaVuSans-34" d="M 2419 4116 
L 825 1625 
L 2419 1625 
L 2419 4116 
z
M 2253 4666 
L 3047 4666 
L 3047 1625 
L 3713 1625 
L 3713 1100 
L 3047 1100 
L 3047 0 
L 2419 0 
L 2419 1100 
L 313 1100 
L 313 1709 
L 2253 4666 
z
" transform="scale(0.015625)"/>
     </defs>
     <use xlink:href="#DejaVuSans-38"/>
     <use xlink:href="#DejaVuSans-34" transform="translate(63.623047 0)"/>
     <use xlink:href="#DejaVuSans-30" transform="translate(127.246094 0)"/>
     <use xlink:href="#DejaVuSans-30" transform="translate(190.869141 0)"/>
    </g>
   </g>
   <g id="text_5">
    <!-- 8200 -->
    <g transform="translate(400.27991 92.257706) scale(0.2 -0.2)">
     <use xlink:href="#DejaVuSans-38"/>
     <use xlink:href="#DejaVuSans-32" transform="translate(63.623047 0)"/>
     <use xlink:href="#DejaVuSans-30" transform="translate(127.246094 0)"/>
     <use xlink:href="#DejaVuSans-30" transform="translate(190.869141 0)"/>
    </g>
   </g>
   <g id="text_6">
    <!-- 8300 -->
    <g transform="translate(429.685354 92.363193) scale(0.2 -0.2)">
     <defs>
      <path id="DejaVuSans-33" d="M 2597 2516 
Q 3050 2419 3304 2112 
Q 3559 1806 3559 1356 
Q 3559 666 3084 287 
Q 2609 -91 1734 -91 
Q 1441 -91 1130 -33 
Q 819 25 488 141 
L 488 750 
Q 750 597 1062 519 
Q 1375 441 1716 441 
Q 2309 441 2620 675 
Q 2931 909 2931 1356 
Q 2931 1769 2642 2001 
Q 2353 2234 1838 2234 
L 1294 2234 
L 1294 2753 
L 1863 2753 
Q 2328 2753 2575 2939 
Q 2822 3125 2822 3475 
Q 2822 3834 2567 4026 
Q 2313 4219 1838 4219 
Q 1578 4219 1281 4162 
Q 984 4106 628 3988 
L 628 4550 
Q 988 4650 1302 4700 
Q 1616 4750 1894 4750 
Q 2613 4750 3031 4423 
Q 3450 4097 3450 3541 
Q 3450 3153 3228 2886 
Q 3006 2619 2597 2516 
z
" transform="scale(0.015625)"/>
     </defs>
     <use xlink:href="#DejaVuSans-38"/>
     <use xlink:href="#DejaVuSans-33" transform="translate(63.623047 0)"/>
     <use xlink:href="#DejaVuSans-30" transform="translate(127.246094 0)"/>
     <use xlink:href="#DejaVuSans-30" transform="translate(190.869141 0)"/>
    </g>
   </g>
   <g id="text_7">
    <!-- 8500 -->
    <g transform="translate(436.629704 118.981706) scale(0.2 -0.2)">
     <use xlink:href="#DejaVuSans-38"/>
     <use xlink:href="#DejaVuSans-35" transform="translate(63.623047 0)"/>
     <use xlink:href="#DejaVuSans-30" transform="translate(127.246094 0)"/>
     <use xlink:href="#DejaVuSans-30" transform="translate(190.869141 0)"/>
    </g>
   </g>
   <g id="text_8">
    <!-- 9100 -->
    <g transform="translate(468.452058 163.261866) scale(0.2 -0.2)">
     <defs>
      <path id="DejaVuSans-39" d="M 703 97 
L 703 672 
Q 941 559 1184 500 
Q 1428 441 1663 441 
Q 2288 441 2617 861 
Q 2947 1281 2994 2138 
Q 2813 1869 2534 1725 
Q 2256 1581 1919 1581 
Q 1219 1581 811 2004 
Q 403 2428 403 3163 
Q 403 3881 828 4315 
Q 1253 4750 1959 4750 
Q 2769 4750 3195 4129 
Q 3622 3509 3622 2328 
Q 3622 1225 3098 567 
Q 2575 -91 1691 -91 
Q 1453 -91 1209 -44 
Q 966 3 703 97 
z
M 1959 2075 
Q 2384 2075 2632 2365 
Q 2881 2656 2881 3163 
Q 2881 3666 2632 3958 
Q 2384 4250 1959 4250 
Q 1534 4250 1286 3958 
Q 1038 3666 1038 3163 
Q 1038 2656 1286 2365 
Q 1534 2075 1959 2075 
z
" transform="scale(0.015625)"/>
      <path id="DejaVuSans-31" d="M 794 531 
L 1825 531 
L 1825 4091 
L 703 3866 
L 703 4441 
L 1819 4666 
L 2450 4666 
L 2450 531 
L 3481 531 
L 3481 0 
L 794 0 
L 794 531 
z
" transform="scale(0.015625)"/>
     </defs>
     <use xlink:href="#DejaVuSans-39"/>
     <use xlink:href="#DejaVuSans-31" transform="translate(63.623047 0)"/>
     <use xlink:href="#DejaVuSans-30" transform="translate(127.246094 0)"/>
     <use xlink:href="#DejaVuSans-30" transform="translate(190.869141 0)"/>
    </g>
   </g>
   <g id="text_9">
    <!-- 2000 -->
    <g transform="translate(106.738145 668.028957) scale(0.2 -0.2)">
     <use xlink:href="#DejaVuSans-32"/>
     <use xlink:href="#DejaVuSans-30" transform="translate(63.623047 0)"/>
     <use xlink:href="#DejaVuSans-30" transform="translate(127.246094 0)"/>
     <use xlink:href="#DejaVuSans-30" transform="translate(190.869141 0)"/>
    </g>
   </g>
   <g id="text_10">
    <!-- 1300 -->
    <g transform="translate(324.057873 577.761619) scale(0.2 -0.2)">
     <use xlink:href="#DejaVuSans-31"/>
     <use xlink:href="#DejaVuSans-33" transform="translate(63.623047 0)"/>
     <use xlink:href="#DejaVuSans-30" transform="translate(127.246094 0)"/>
     <use xlink:href="#DejaVuSans-30" transform="translate(190.869141 0)"/>
    </g>
   </g>
   <g id="text_11">
    <!-- 1500 -->
    <g transform="translate(141.508132 567.597668) scale(0.2 -0.2)">
     <use xlink:href="#DejaVuSans-31"/>
     <use xlink:href="#DejaVuSans-35" transform="translate(63.623047 0)"/>
     <use xlink:href="#DejaVuSans-30" transform="translate(127.246094 0)"/>
     <use xlink:href="#DejaVuSans-30" transform="translate(190.869141 0)"/>
    </g>
   </g>
   <g id="text_12">
    <!-- 6600 -->
    <g transform="translate(214.249618 671.480584) scale(0.2 -0.2)">
     <use xlink:href="#DejaVuSans-36"/>
     <use xlink:href="#DejaVuSans-36" transform="translate(63.623047 0)"/>
     <use xlink:href="#DejaVuSans-30" transform="translate(127.246094 0)"/>
     <use xlink:href="#DejaVuSans-30" transform="translate(190.869141 0)"/>
    </g>
   </g>
   <g id="text_13">
    <!-- 0702 -->
    <g transform="translate(157.335435 469.740929) scale(0.2 -0.2)">
     <defs>
      <path id="DejaVuSans-37" d="M 525 4666 
L 3525 4666 
L 3525 4397 
L 1831 0 
L 1172 0 
L 2766 4134 
L 525 4134 
L 525 4666 
z
" transform="scale(0.015625)"/>
     </defs>
     <use xlink:href="#DejaVuSans-30"/>
     <use xlink:href="#DejaVuSans-37" transform="translate(63.623047 0)"/>
     <use xlink:href="#DejaVuSans-30" transform="translate(127.246094 0)"/>
     <use xlink:href="#DejaVuSans-32" transform="translate(190.869141 0)"/>
    </g>
   </g>
   <g id="text_14">
    <!-- 1402 -->
    <g transform="translate(197.116063 628.470992) scale(0.2 -0.2)">
     <use xlink:href="#DejaVuSans-31"/>
     <use xlink:href="#DejaVuSans-34" transform="translate(63.623047 0)"/>
     <use xlink:href="#DejaVuSans-30" transform="translate(127.246094 0)"/>
     <use xlink:href="#DejaVuSans-32" transform="translate(190.869141 0)"/>
    </g>
   </g>
   <g id="text_15">
    <!-- 1401 -->
    <g transform="translate(221.918158 564.029695) scale(0.2 -0.2)">
     <use xlink:href="#DejaVuSans-31"/>
     <use xlink:href="#DejaVuSans-34" transform="translate(63.623047 0)"/>
     <use xlink:href="#DejaVuSans-30" transform="translate(127.246094 0)"/>
     <use xlink:href="#DejaVuSans-31" transform="translate(190.869141 0)"/>
    </g>
   </g>
   <g id="text_16">
    <!-- 9800 -->
    <g transform="translate(93.867986 315.643861) scale(0.2 -0.2)">
     <use xlink:href="#DejaVuSans-39"/>
     <use xlink:href="#DejaVuSans-38" transform="translate(63.623047 0)"/>
     <use xlink:href="#DejaVuSans-30" transform="translate(127.246094 0)"/>
     <use xlink:href="#DejaVuSans-30" transform="translate(190.869141 0)"/>
    </g>
   </g>
   <g id="text_17">
    <!-- 9900 -->
    <g transform="translate(228.110812 292.276022) scale(0.2 -0.2)">
     <use xlink:href="#DejaVuSans-39"/>
     <use xlink:href="#DejaVuSans-39" transform="translate(63.623047 0)"/>
     <use xlink:href="#DejaVuSans-30" transform="translate(127.246094 0)"/>
     <use xlink:href="#DejaVuSans-30" transform="translate(190.869141 0)"/>
    </g>
   </g>
   <g id="text_18">
    <!-- 0800 -->
    <g transform="translate(284.693868 457.763159) scale(0.2 -0.2)">
     <use xlink:href="#DejaVuSans-30"/>
     <use xlink:href="#DejaVuSans-38" transform="translate(63.623047 0)"/>
     <use xlink:href="#DejaVuSans-30" transform="translate(127.246094 0)"/>
     <use xlink:href="#DejaVuSans-30" transform="translate(190.869141 0)"/>
    </g>
   </g>
   <g id="text_19">
    <!-- 0701 -->
    <g transform="translate(205.457427 487.843322) scale(0.2 -0.2)">
     <use xlink:href="#DejaVuSans-30"/>
     <use xlink:href="#DejaVuSans-37" transform="translate(63.623047 0)"/>
     <use xlink:href="#DejaVuSans-30" transform="translate(127.246094 0)"/>
     <use xlink:href="#DejaVuSans-31" transform="translate(190.869141 0)"/>
    </g>
   </g>
   <g id="text_20">
    <!-- 8100 -->
    <g transform="translate(348.145515 110.82847) scale(0.2 -0.2)">
     <use xlink:href="#DejaVuSans-38"/>
     <use xlink:href="#DejaVuSans-31" transform="translate(63.623047 0)"/>
     <use xlink:href="#DejaVuSans-30" transform="translate(127.246094 0)"/>
     <use xlink:href="#DejaVuSans-30" transform="translate(190.869141 0)"/>
    </g>
   </g>
   <g id="text_21">
    <!-- 8600 -->
    <g transform="translate(490.387946 108.406066) scale(0.2 -0.2)">
     <use xlink:href="#DejaVuSans-38"/>
     <use xlink:href="#DejaVuSans-36" transform="translate(63.623047 0)"/>
     <use xlink:href="#DejaVuSans-30" transform="translate(127.246094 0)"/>
     <use xlink:href="#DejaVuSans-30" transform="translate(190.869141 0)"/>
    </g>
   </g>
   <g id="text_22">
    <!-- 9200 -->
    <g transform="translate(395.162251 151.18899) scale(0.2 -0.2)">
     <use xlink:href="#DejaVuSans-39"/>
     <use xlink:href="#DejaVuSans-32" transform="translate(63.623047 0)"/>
     <use xlink:href="#DejaVuSans-30" transform="translate(127.246094 0)"/>
     <use xlink:href="#DejaVuSans-30" transform="translate(190.869141 0)"/>
    </g>
   </g>
   <g id="text_23">
    <!-- 9300 -->
    <g transform="translate(410.201766 292.634013) scale(0.2 -0.2)">
     <use xlink:href="#DejaVuSans-39"/>
     <use xlink:href="#DejaVuSans-33" transform="translate(63.623047 0)"/>
     <use xlink:href="#DejaVuSans-30" transform="translate(127.246094 0)"/>
     <use xlink:href="#DejaVuSans-30" transform="translate(190.869141 0)"/>
    </g>
   </g>
  </g>
 </g>
 <defs>
  <clipPath id="p4c0138af05">
   <rect x="7.2" y="7.2" width="558" height="759.016514"/>
  </clipPath>
 </defs>
</svg>
